<?xml version="1.0" encoding="UTF-8" standalone="no"?>
<!-- Created with Inkscape (http://www.inkscape.org/) -->

<svg
   xmlns:dc="http://purl.org/dc/elements/1.1/"
   xmlns:cc="http://creativecommons.org/ns#"
   xmlns:rdf="http://www.w3.org/1999/02/22-rdf-syntax-ns#"
   xmlns:svg="http://www.w3.org/2000/svg"
   xmlns="http://www.w3.org/2000/svg"
   xmlns:sodipodi="http://sodipodi.sourceforge.net/DTD/sodipodi-0.dtd"
   xmlns:inkscape="http://www.inkscape.org/namespaces/inkscape"
   version="1.1"
   width="19.200001pt"
   height="19.200001pt"
   id="svg2"
   inkscape:version="0.91 r13725"
   sodipodi:docname="akonadi.svgz">
  <sodipodi:namedview
     pagecolor="#323232"
     bordercolor="#666666"
     borderopacity="1"
     objecttolerance="10"
     gridtolerance="10"
     guidetolerance="10"
     inkscape:pageopacity="1"
     inkscape:pageshadow="2"
     inkscape:window-width="1920"
     inkscape:window-height="1056"
     id="namedview3061"
     showgrid="true"
     inkscape:showpageshadow="false"
     showborder="false"
     inkscape:zoom="45.254834"
     inkscape:cx="13.044466"
     inkscape:cy="10.786984"
     inkscape:window-x="0"
     inkscape:window-y="-3"
     inkscape:window-maximized="1"
     inkscape:current-layer="svg2">
    <inkscape:grid
       type="xygrid"
       id="grid3063"
       empspacing="5"
       visible="true"
       enabled="true"
       snapvisiblegridlinesonly="true" />
  </sodipodi:namedview>
  <metadata
     id="metadata31">
    <rdf:RDF>
      <cc:Work
         rdf:about="">
        <dc:format>image/svg+xml</dc:format>
        <dc:type
           rdf:resource="http://purl.org/dc/dcmitype/StillImage" />
        <dc:title />
        <dc:creator>
          <cc:Agent>
            <dc:title>obnosim</dc:title>
          </cc:Agent>
        </dc:creator>
        <cc:license
           rdf:resource="http://creativecommons.org/licenses/by-nc-sa/3.0/" />
      </cc:Work>
      <cc:License
         rdf:about="http://creativecommons.org/licenses/by-nc-sa/3.0/">
        <cc:permits
           rdf:resource="http://creativecommons.org/ns#Reproduction" />
        <cc:permits
           rdf:resource="http://creativecommons.org/ns#Distribution" />
        <cc:requires
           rdf:resource="http://creativecommons.org/ns#Notice" />
        <cc:requires
           rdf:resource="http://creativecommons.org/ns#Attribution" />
        <cc:prohibits
           rdf:resource="http://creativecommons.org/ns#CommercialUse" />
        <cc:permits
           rdf:resource="http://creativecommons.org/ns#DerivativeWorks" />
        <cc:requires
           rdf:resource="http://creativecommons.org/ns#ShareAlike" />
      </cc:License>
    </rdf:RDF>
  </metadata>
  <defs
     id="defs4" />
  <g
     id="akonadi">
    <rect
       y="0"
       x="0"
       height="24"
       width="24"
       id="rect3065"
       style="opacity:0.25;fill:none;stroke:none" />
    <path
       style="opacity:0.37500000000000000;color:#000000;fill:#000000;fill-opacity:1;fill-rule:nonzero;stroke:#000000;stroke-width:2;marker:none;visibility:visible;display:inline;overflow:visible;enable-background:accumulate;stroke-opacity:1;stroke-miterlimit:4;stroke-dasharray:none;stroke-linejoin:round"
       d="M 12 4 C 9.790861 4 7.7914653 4.8960347 6.34375 6.34375 L 5.625 5.625 C 3.9963203 7.2536797 3 9.5147186 3 12 L 2 12 C 2 17.522847 6.4771525 22 12 22 C 17.522847 22 22 17.522847 22 12 L 20 12 C 20 7.581722 16.418278 4 12 4 z "
       id="path3773" />
    <path
       id="path3932"
       d="m 2,12 c 0,5.522847 4.4771525,10 10,10 5.522847,0 10,-4.477153 10,-10 0,1.656854 -4.477153,3 -10,3 C 6.4771525,15 2,13.656854 2,12 z"
       style="color:#000000;fill:#e0e0e0;fill-opacity:1;fill-rule:nonzero;stroke:none;stroke-width:1px;marker:none;visibility:visible;display:inline;overflow:visible;enable-background:accumulate"
       inkscape:connector-curvature="0" />
    <path
       sodipodi:nodetypes="cccsscsc"
       inkscape:connector-curvature="0"
       id="path3934"
       d="M 5.625,5.625 C 3.8911468,7.3588532 3.0231917,9.6284094 3,11.90625 3.00147,11.93748 3.00147,11.96877 3,12 c 0,-0.03615 0.00919,0.08429 0.375,0.34375 0.3658053,0.259458 1.0059735,0.561167 1.84375,0.8125 C 6.4953417,13.539228 8.1967535,13.8215 10.125,13.9375 10.11429,13.92682 10.10446,13.91696 10.09375,13.90625 6.5790309,10.391532 4.5705843,6.6794157 5.625,5.625 z"
       style="color:#000000;fill:#e0e0e0;fill-opacity:1;fill-rule:nonzero;stroke:none;stroke-width:1px;marker:none;visibility:visible;display:inline;overflow:visible;enable-background:accumulate" />
    <path
       sodipodi:nodetypes="sccsssscsscss"
       inkscape:connector-curvature="0"
       id="path3936"
       d="M 12,4 C 9.8223944,4 7.8487732,4.8698101 6.40625,6.28125 6.3960652,6.2918951 6.3856451,6.3023152 6.375,6.3125 6.3754191,6.3122548 6.347461,6.32115 6.34375,6.34375 6.33633,6.38895 6.34211,6.4965066 6.375,6.6875 6.440788,7.0694868 6.6595579,7.686764 7.03125,8.375 c 0.7433842,1.376472 2.0810158,3.112266 3.78125,4.8125 0.281558,0.281558 0.562035,0.551881 0.84375,0.8125 0.115871,0.0013 0.226868,0 0.34375,0 2.680357,0 5.105697,-0.341084 6.78125,-0.84375 0.47399,-0.142197 0.853918,-0.311077 1.1875,-0.46875 C 19.988389,12.458867 20,12.233722 20,12 20,7.581722 16.418278,4 12,4 z"
       style="color:#000000;fill:#e0e0e0;fill-opacity:1;fill-rule:nonzero;stroke:none;stroke-width:1px;marker:none;visibility:visible;display:inline;overflow:visible;enable-background:accumulate" />
  </g>
</svg>
