<?xml version="1.0" encoding="UTF-8" standalone="no"?>
<!-- Created with Inkscape (http://www.inkscape.org/) -->

<svg
   xmlns:dc="http://purl.org/dc/elements/1.1/"
   xmlns:cc="http://creativecommons.org/ns#"
   xmlns:rdf="http://www.w3.org/1999/02/22-rdf-syntax-ns#"
   xmlns:svg="http://www.w3.org/2000/svg"
   xmlns="http://www.w3.org/2000/svg"
   xmlns:sodipodi="http://sodipodi.sourceforge.net/DTD/sodipodi-0.dtd"
   xmlns:inkscape="http://www.inkscape.org/namespaces/inkscape"
   version="1.1"
   width="24"
   height="24"
   viewBox="0 0 48 48"
   id="RSSicon"
   inkscape:version="0.91 r13725"
   sodipodi:docname="akregator.svgz">
  <sodipodi:namedview
     pagecolor="#323232"
     bordercolor="#000000"
     borderopacity="1"
     objecttolerance="10"
     gridtolerance="10"
     guidetolerance="10"
     inkscape:pageopacity="1"
     inkscape:pageshadow="2"
     inkscape:window-width="1920"
     inkscape:window-height="1056"
     id="namedview24"
     showgrid="false"
     inkscape:zoom="15.999999"
     inkscape:cx="6.8226404"
     inkscape:cy="12.179226"
     inkscape:window-x="0"
     inkscape:window-y="-3"
     inkscape:window-maximized="1"
     inkscape:current-layer="RSSicon"
     inkscape:showpageshadow="false"
     showborder="false"
     showguides="false">
    <inkscape:grid
       empspacing="4"
       visible="true"
       enabled="true"
       snapvisiblegridlinesonly="true"
       type="xygrid"
       id="grid3001" />
    <sodipodi:guide
       position="0,0"
       orientation="0,24"
       id="guide3003" />
    <sodipodi:guide
       position="24,0"
       orientation="-24,0"
       id="guide3005" />
    <sodipodi:guide
       position="24,24"
       orientation="0,-24"
       id="guide3007" />
    <sodipodi:guide
       position="0,24"
       orientation="24,0"
       id="guide3009" />
  </sodipodi:namedview>
  <metadata
     id="metadata3089">
    <rdf:RDF>
      <cc:Work
         rdf:about="">
        <dc:format>image/svg+xml</dc:format>
        <dc:type
           rdf:resource="http://purl.org/dc/dcmitype/StillImage" />
        <dc:title />
        <dc:creator>
          <cc:Agent>
            <dc:title>obnosim</dc:title>
          </cc:Agent>
        </dc:creator>
        <cc:license
           rdf:resource="http://creativecommons.org/licenses/by-nc-sa/3.0/" />
      </cc:Work>
      <cc:License
         rdf:about="http://creativecommons.org/licenses/by-nc-sa/3.0/">
        <cc:permits
           rdf:resource="http://creativecommons.org/ns#Reproduction" />
        <cc:permits
           rdf:resource="http://creativecommons.org/ns#Distribution" />
        <cc:requires
           rdf:resource="http://creativecommons.org/ns#Notice" />
        <cc:requires
           rdf:resource="http://creativecommons.org/ns#Attribution" />
        <cc:prohibits
           rdf:resource="http://creativecommons.org/ns#CommercialUse" />
        <cc:permits
           rdf:resource="http://creativecommons.org/ns#DerivativeWorks" />
        <cc:requires
           rdf:resource="http://creativecommons.org/ns#ShareAlike" />
      </cc:License>
    </rdf:RDF>
  </metadata>
  <defs
     id="defs3058" />
  <rect
     style="opacity:0.125;fill:#000000;fill-opacity:1;fill-rule:evenodd;stroke:none"
     id="rect3775"
     width="0"
     height="0"
     x="0"
     y="0"
     transform="scale(2,2)" />
  <g
     id="akregator">
    <rect
       transform="scale(2,2)"
       y="0"
       x="0"
       height="24"
       width="24"
       id="rect3005"
       style="opacity:0.12500000000000000;fill:none;fill-opacity:1;stroke:none" />
    <path
       style="opacity:0.375;color:#000000;fill:none;stroke:#000000;stroke-width:4;stroke-miterlimit:4;stroke-opacity:1;stroke-dasharray:none;marker:none;visibility:visible;display:inline;overflow:visible;enable-background:accumulate"
       d="m 10,6 c -2.209139,0 -4,1.790861 -4,4 0,2.209139 1.790861,4 4,4 13.254834,0 24,10.74517 24,24 0,2.20914 1.790861,4 4,4 2.209139,0 4,-1.79086 4,-4 C 42,20.32689 27.673112,6 10,6 z m 0,14 c -2.209139,0 -4,1.79086 -4,4 0,2.20914 1.790861,4 4,4 5.522848,0 10,4.47715 10,10 0,2.20914 1.790861,4 4,4 2.209139,0 4,-1.79086 4,-4 0,-9.94112 -8.058875,-18 -18,-18 z m 0,14 c -2.209139,0 -4,1.79086 -4,4 0,2.20914 1.790861,4 4,4 2.209139,0 4,-1.79086 4,-4 0,-2.20914 -1.790861,-4 -4,-4 z"
       id="path3859"
       inkscape:connector-curvature="0" />
    <path
       inkscape:connector-curvature="0"
       id="path3820"
       d="m 10,6 c -2.209139,0 -4,1.790861 -4,4 0,2.209139 1.790861,4 4,4 13.254834,0 24,10.74517 24,24 0,2.20914 1.790861,4 4,4 2.209139,0 4,-1.79086 4,-4 C 42,20.32689 27.673112,6 10,6 z m 0,14 c -2.209139,0 -4,1.79086 -4,4 0,2.20914 1.790861,4 4,4 5.522848,0 10,4.47715 10,10 0,2.20914 1.790861,4 4,4 2.209139,0 4,-1.79086 4,-4 0,-9.94112 -8.058875,-18 -18,-18 z m 0,14 c -2.209139,0 -4,1.79086 -4,4 0,2.20914 1.790861,4 4,4 2.209139,0 4,-1.79086 4,-4 0,-2.20914 -1.790861,-4 -4,-4 z"
       style="color:#000000;fill:#e0e0e0;fill-opacity:1;fill-rule:nonzero;stroke:none;stroke-width:1px;marker:none;visibility:visible;display:inline;overflow:visible;enable-background:accumulate" />
  </g>
</svg>
