<?xml version="1.0" encoding="UTF-8" standalone="no"?>
<svg id="RSSicon" xmlns:rdf="http://www.w3.org/1999/02/22-rdf-syntax-ns#" xmlns="http://www.w3.org/2000/svg" height="22" viewBox="0 0 44 44" width="22" version="1.1" xmlns:cc="http://creativecommons.org/ns#" xmlns:dc="http://purl.org/dc/elements/1.1/">
	<defs id="defs3615">
		<style id="current-color-scheme" type="text/css">
			.ColorScheme-Text { color:#0000FF; }
		</style>
	</defs>
	<metadata id="metadata3089">
		<rdf:RDF>
			<cc:Work rdf:about="">
				<dc:format>image/svg+xml</dc:format>
				<dc:type rdf:resource="http://purl.org/dc/dcmitype/StillImage"/>
				<dc:title/>
				<dc:creator>
					<cc:Agent>
						<dc:title>obnosim</dc:title>
					</cc:Agent>
				</dc:creator>
				<cc:license rdf:resource="http://creativecommons.org/licenses/by-nc-sa/3.0/"/>
			</cc:Work>
			<cc:License rdf:about="http://creativecommons.org/licenses/by-nc-sa/3.0/">
				<cc:permits rdf:resource="http://creativecommons.org/ns#Reproduction"/>
				<cc:permits rdf:resource="http://creativecommons.org/ns#Distribution"/>
				<cc:requires rdf:resource="http://creativecommons.org/ns#Notice"/>
				<cc:requires rdf:resource="http://creativecommons.org/ns#Attribution"/>
				<cc:prohibits rdf:resource="http://creativecommons.org/ns#CommercialUse"/>
				<cc:permits rdf:resource="http://creativecommons.org/ns#DerivativeWorks"/>
				<cc:requires rdf:resource="http://creativecommons.org/ns#ShareAlike"/>
			</cc:License>
		</rdf:RDF>
	</metadata>
	<rect id="rect3775" style="opacity:.125;fill:#000000;fill-rule:evenodd" height="0" width="0" y="-2" x="-2"/>
	<g id="22-22-akregator" transform="translate(-2,-2)">
		<rect id="rect3005" style="opacity:.125;fill:none" height="44" width="44" y="2" x="2"/>
		<path id="path3820" class="ColorScheme-Text" style="opacity:.875;fill:currentColor" d="m10 6c-2.2091 0-4 1.7909-4 4s1.7909 4 4 4c13.255 0 24 10.745 24 24 0 2.2091 1.7909 4 4 4s4-1.7909 4-4c0-17.673-14.327-32-32-32zm0 14c-2.2091 0-4 1.7909-4 4s1.7909 4 4 4c5.5228 0 10 4.4772 10 10 0 2.2091 1.7909 4 4 4s4-1.7909 4-4c0-9.9411-8.0589-18-18-18zm0 14c-2.2091 0-4 1.7909-4 4s1.7909 4 4 4 4-1.7909 4-4-1.7909-4-4-4z"/>
	</g>
	<g id="akregator">
		<rect id="rect3340" style="opacity:.875;fill:none" height="64" width="64" y="-20" x="48"/>
		<circle id="path4142" class="ColorScheme-Text" cx="58" cy="34" r="6" style="opacity:.875;fill-rule:evenodd;fill:currentColor"/>
		<path id="path4148" class="ColorScheme-Text" d="m58 12c12.15 0 22 9.8497 22 22" style="opacity:.875;stroke-dashoffset:1;stroke:currentColor;stroke-linecap:round;stroke-width:12;fill:none"/>
		<path id="path4150" class="ColorScheme-Text" d="m58-10c24.301 0 44 19.699 44 44" style="opacity:.875;stroke-dashoffset:1;stroke:currentColor;stroke-linecap:round;stroke-width:12;fill:none"/>
	</g>
</svg>
