<?xml version="1.0" encoding="UTF-8" standalone="no"?>
<!-- Created with Inkscape (http://www.inkscape.org/) -->

<svg
   xmlns:dc="http://purl.org/dc/elements/1.1/"
   xmlns:cc="http://creativecommons.org/ns#"
   xmlns:rdf="http://www.w3.org/1999/02/22-rdf-syntax-ns#"
   xmlns:svg="http://www.w3.org/2000/svg"
   xmlns="http://www.w3.org/2000/svg"
   xmlns:sodipodi="http://sodipodi.sourceforge.net/DTD/sodipodi-0.dtd"
   xmlns:inkscape="http://www.inkscape.org/namespaces/inkscape"
   version="1.1"
   width="24.000078"
   height="24.002201"
   id="svg2"
   inkscape:version="0.91 r13725"
   sodipodi:docname="juk.svgz">
  <sodipodi:namedview
     pagecolor="#323232"
     bordercolor="#666666"
     borderopacity="1"
     objecttolerance="10"
     gridtolerance="10"
     guidetolerance="10"
     inkscape:pageopacity="1"
     inkscape:pageshadow="2"
     inkscape:window-width="1920"
     inkscape:window-height="1056"
     id="namedview10"
     showgrid="false"
     inkscape:showpageshadow="false"
     inkscape:zoom="16"
     inkscape:cx="30.25115"
     inkscape:cy="17.584408"
     inkscape:window-x="0"
     inkscape:window-y="-3"
     inkscape:window-maximized="1"
     inkscape:current-layer="svg2"
     showborder="false">
    <inkscape:grid
       type="xygrid"
       id="grid2987"
       empspacing="4"
       visible="true"
       enabled="true"
       snapvisiblegridlinesonly="true" />
  </sodipodi:namedview>
  <metadata
     id="metadata16">
    <rdf:RDF>
      <cc:Work
         rdf:about="">
        <dc:format>image/svg+xml</dc:format>
        <dc:type
           rdf:resource="http://purl.org/dc/dcmitype/StillImage" />
        <dc:title />
        <dc:creator>
          <cc:Agent>
            <dc:title>obnosim</dc:title>
          </cc:Agent>
        </dc:creator>
        <cc:license
           rdf:resource="http://creativecommons.org/licenses/by-nc-sa/3.0/" />
      </cc:Work>
      <cc:License
         rdf:about="http://creativecommons.org/licenses/by-nc-sa/3.0/">
        <cc:permits
           rdf:resource="http://creativecommons.org/ns#Reproduction" />
        <cc:permits
           rdf:resource="http://creativecommons.org/ns#Distribution" />
        <cc:requires
           rdf:resource="http://creativecommons.org/ns#Notice" />
        <cc:requires
           rdf:resource="http://creativecommons.org/ns#Attribution" />
        <cc:prohibits
           rdf:resource="http://creativecommons.org/ns#CommercialUse" />
        <cc:permits
           rdf:resource="http://creativecommons.org/ns#DerivativeWorks" />
        <cc:requires
           rdf:resource="http://creativecommons.org/ns#ShareAlike" />
      </cc:License>
    </rdf:RDF>
  </metadata>
  <defs
     id="defs4" />
  <g
     id="amarok">
    <rect
       y="0.0022010803"
       x="0"
       height="24"
       width="24"
       id="rect3785"
       style="opacity:0.125;fill:none;stroke:none" />
    <path
       inkscape:connector-curvature="0"
       style="opacity:0.375;color:#000000;fill:none;stroke:#000000;stroke-width:2;stroke-linejoin:round;stroke-miterlimit:4;stroke-opacity:1;stroke-dasharray:none;marker:none;visibility:visible;display:inline;overflow:visible;enable-background:accumulate"
       d="m 23,1.0022011 -16,4 0,3 0,1.9999999 0,1 0,6.40625 c -0.5878377,-0.254652 -1.2723548,-0.40625 -2,-0.40625 -2.209139,0 -4,1.343146 -4,3 0,1.656854 1.790861,3 4,3 2.209139,0 4,-1.343146 4,-3 l 0,-9.5 12,-2.9999999 0,6.9062499 c -0.587838,-0.254652 -1.272355,-0.40625 -2,-0.40625 -2.209139,0 -4,1.343146 -4,3 0,1.656854 1.790861,3 4,3 2.209139,0 4,-1.343146 4,-3 l 0,-9.9999999 0,-1 0,-2 0,-2 0,-1 z m -2,3.5 0,2 -12,3 0,-2 12,-3 z"
       id="path3801" />
    <path
       id="path2986"
       d="m 23,1 -16,4 0,3 0,2 0,1 0,6.40625 C 6.4121623,17.151598 5.7276452,17 5,17 c -2.209139,0 -4,1.343146 -4,3 0,1.656854 1.790861,3 4,3 2.209139,0 4,-1.343146 4,-3 l 0,-9.5 12,-3 0,6.90625 C 20.412162,14.151598 19.727645,14 19,14 c -2.209139,0 -4,1.343146 -4,3 0,1.656854 1.790861,3 4,3 2.209139,0 4,-1.343146 4,-3 L 23,7 23,6 23,4 23,2 23,1 z m -2,3.5 0,2 -12,3 0,-2 12,-3 z"
       style="color:#000000;fill:#e0e0e0;fill-opacity:1;fill-rule:nonzero;stroke:none;stroke-width:1px;marker:none;visibility:visible;display:inline;overflow:visible;enable-background:accumulate"
       inkscape:connector-curvature="0" />
  </g>
</svg>
