<?xml version="1.0" encoding="UTF-8" standalone="no"?>
<svg id="svg3613" xmlns:rdf="http://www.w3.org/1999/02/22-rdf-syntax-ns#" xmlns="http://www.w3.org/2000/svg" height="32" width="32" version="1.1" xmlns:cc="http://creativecommons.org/ns#" xmlns:dc="http://purl.org/dc/elements/1.1/">
	<defs id="defs3615">
		<style id="current-color-scheme" type="text/css">.ColorScheme-Text {
			color:#0000FF;
			}
			.ColorScheme-Background{
			color:#E9E8E8;
			}
			.ColorScheme-ViewText {
			color:#31363b;
			}
			.ColorScheme-ViewBackground{
			color:#FFFFFF;
			}
			.ColorScheme-ViewHover {
			color:#000000;
			}
			.ColorScheme-ViewFocus{
			color:#5a5a5a;
			}
			.ColorScheme-ButtonText {
			color:#31363b;
			}
			.ColorScheme-ButtonBackground{
			color:#E9E8E8;
			}
			.ColorScheme-ButtonHover {
			color:#1489ff;
			}
			.ColorScheme-ButtonFocus{
			color:#2B74C7;
			}</style>
	</defs>
	<metadata id="metadata3618">
		<rdf:RDF>
			<cc:Work rdf:about="">
				<dc:format>image/svg+xml</dc:format>
				<dc:type rdf:resource="http://purl.org/dc/dcmitype/StillImage"/>
				<dc:title/>
			</cc:Work>
		</rdf:RDF>
	</metadata>
	<g id="22-22-applications-other" transform="translate(-22,10)">
		<rect id="rect4142" style="fill:none" height="22" width="22" y="0" x="0"/>
		<path id="rect4144" class="ColorScheme-Text" d="m2 4v14c0 1 0 1 1 1h16c1 0 1 0 1-1v-14c0-1 0-1-1-1h-16c-1 0-1 0-1 1zm1 1h16v13h-16z" style="opacity:.875;fill:currentColor"/>
	</g>
	<g id="applications-other" transform="translate(0,10)">
		<rect id="rect4155" style="fill:none" height="32" width="32" y="-10" x="0"/>
		<path id="path4157" class="ColorScheme-Text" style="opacity:.875;fill:currentColor" d="m2-5v22c0 2 0 2 2 2h24c2 0 2 0 2-2v-22c0-2 0-2-2-2h-24c-2 0-2 0-2 2zm2 2h24v20h-24z"/>
	</g>
</svg>
