<?xml version="1.0" encoding="UTF-8" standalone="no"?>
<svg id="svg2" xmlns:rdf="http://www.w3.org/1999/02/22-rdf-syntax-ns#" xmlns="http://www.w3.org/2000/svg" height="22" viewBox="0 0 22 22" width="22" version="1.1" xmlns:cc="http://creativecommons.org/ns#" xmlns:dc="http://purl.org/dc/elements/1.1/">
	<defs id="defs3615">
		<style id="current-color-scheme" type="text/css">.ColorScheme-Text {
            color:#0000FF;
            }
            .ColorScheme-Background{
            color:#E9E8E8;
            }
            .ColorScheme-ViewText {
            color:#31363b;
            }
            .ColorScheme-ViewBackground{
            color:#FFFFFF;
            }
            .ColorScheme-ViewHover {
            color:#000000;
            }
            .ColorScheme-ViewFocus{
            color:#5a5a5a;
            }
            .ColorScheme-ButtonText {
            color:#31363b;
            }
            .ColorScheme-ButtonBackground{
            color:#E9E8E8;
            }
            .ColorScheme-ButtonHover {
            color:#1489ff;
            }
            .ColorScheme-ButtonFocus{
            color:#2B74C7;
            }</style>
	</defs>
	<metadata id="metadata31">
		<rdf:RDF>
			<cc:Work rdf:about="">
				<dc:format>image/svg+xml</dc:format>
				<dc:type rdf:resource="http://purl.org/dc/dcmitype/StillImage"/>
				<dc:title/>
				<dc:creator>
					<cc:Agent>
						<dc:title>obnosim</dc:title>
					</cc:Agent>
				</dc:creator>
				<cc:license rdf:resource="http://creativecommons.org/licenses/by-nc-sa/3.0/"/>
			</cc:Work>
			<cc:License rdf:about="http://creativecommons.org/licenses/by-nc-sa/3.0/">
				<cc:permits rdf:resource="http://creativecommons.org/ns#Reproduction"/>
				<cc:permits rdf:resource="http://creativecommons.org/ns#Distribution"/>
				<cc:requires rdf:resource="http://creativecommons.org/ns#Notice"/>
				<cc:requires rdf:resource="http://creativecommons.org/ns#Attribution"/>
				<cc:prohibits rdf:resource="http://creativecommons.org/ns#CommercialUse"/>
				<cc:permits rdf:resource="http://creativecommons.org/ns#DerivativeWorks"/>
				<cc:requires rdf:resource="http://creativecommons.org/ns#ShareAlike"/>
			</cc:License>
		</rdf:RDF>
	</metadata>
	<g id="apport" style="opacity:.875" transform="matrix(0,-1,1,0,0,22)">
		<rect id="rect4268" style="opacity:1;fill:none" ry=".5" height="22" width="22" y="0" x="0"/>
		<path id="path4194" class="ColorScheme-Text" style="opacity:1;fill:currentColor;fill-rule:evenodd" d="m10.5 3c-.277 0-.5.223-.5.5v.6855a9 7 0 0 0 -2.2773 .6641 6 10 0 0 1 1.2402 5.1504h11.933a9 7 0 0 0 -3.896 -4.8047v-.6953c0-.2770-.223-0.5-0.5-0.5s-0.5.2230-0.5 0.5v.2441a9 7 0 0 0 -2 -.5664v-.6777c0-.2770-.223-0.5-0.5-0.5s-0.5.2230-0.5 0.5v.5488a9 7 0 0 0 -1 -.0488 9 7 0 0 0 -1 .0488v-.5488c0-.2770-.223-0.5-0.5-0.5zm-4.2109 2.5977a9 7 0 0 0 -1.3223 1.0468 2 2 0 0 1 .0332 .3555 2 2 0 0 1 -.2793 1.0137l-.7559-.7559a1 1 0 0 0 .0352 -.2578 1 1 0 0 0 -1 -1 1 1 0 0 0 -1 1 1 1 0 0 0 1 1 1 1 0 0 0 .2578 -.0352l.7539.7540a2 2 0 0 1 -.6113 .2382 9 7 0 0 0 -.4004 2.043 9 7 0 0 0 .3945 2.039 2 2 0 0 1 .6192 .240l-.7559.756a1 1 0 0 0 -.2578 -.035 1 1 0 0 0 -1 1 1 1 0 0 0 1 1 1 1 0 0 0 1 -1 1 1 0 0 0 -.0352 -.258l.7559-.756a2 2 0 0 1 .2793 1.014 2 2 0 0 1 -.0332 .352 9 7 0 0 0 1.3203 1.052 4.4688 8 0 0 0 1.1817 -5.404 4.4688 8 0 0 0 -1.1797 -5.4023zm2.6797 6.4023a6 10 0 0 1 -1.2442 5.158 9 7 0 0 0 2.2754 .660v.682c0 .277.223 0.5 0.5 0.5s0.5-.223 0.5-0.5v-.549a9 7 0 0 0 1 .049 9 7 0 0 0 1 -.047v.547c0 .277.223 0.5 0.5 0.5s0.5-.223 0.5-0.5v-.684a9 7 0 0 0 2 -.558v.242c0 .277.223 0.5 0.5 0.5s0.5-.223 0.5-0.5v-.688a9 7 0 0 0 3.898 -4.812h-11.929z" transform="matrix(0,1,-1,0,22,0)"/>
	</g>
</svg>
