<?xml version="1.0" encoding="UTF-8" standalone="no"?>
<svg id="svg4100" xmlns:rdf="http://www.w3.org/1999/02/22-rdf-syntax-ns#" xmlns="http://www.w3.org/2000/svg" height="24" width="96" version="1.1" xmlns:cc="http://creativecommons.org/ns#" xmlns:dc="http://purl.org/dc/elements/1.1/">
	<defs id="defs3615">
		<style id="current-color-scheme" type="text/css">.ColorScheme-Text {
            color:#0000FF;
            }
            .ColorScheme-Background{
            color:#E9E8E8;
            }
            .ColorScheme-ViewText {
            color:#31363b;
            }
            .ColorScheme-ViewBackground{
            color:#ffffff;
            }
            .ColorScheme-ViewHover {
            color:#000000;
            }
            .ColorScheme-ViewFocus{
            color:#5a5a5a;
            }
            .ColorScheme-ButtonText {
            color:#31363b;
            }
            .ColorScheme-ButtonBackground{
            color:#E9E8E8;
            }
            .ColorScheme-ButtonHover {
            color:#1489ff;
            }
            .ColorScheme-ButtonFocus{
            color:#2B74C7;
            }</style>
	</defs>
	<metadata id="metadata4105">
		<rdf:RDF>
			<cc:Work rdf:about="">
				<dc:format>image/svg+xml</dc:format>
				<dc:type rdf:resource="http://purl.org/dc/dcmitype/StillImage"/>
				<dc:title/>
				<dc:creator>
					<cc:Agent>
						<dc:title>obnosim</dc:title>
					</cc:Agent>
				</dc:creator>
				<cc:license rdf:resource="http://creativecommons.org/licenses/by-nc-sa/3.0/"/>
			</cc:Work>
			<cc:License rdf:about="http://creativecommons.org/licenses/by-nc-sa/3.0/">
				<cc:permits rdf:resource="http://creativecommons.org/ns#Reproduction"/>
				<cc:permits rdf:resource="http://creativecommons.org/ns#Distribution"/>
				<cc:requires rdf:resource="http://creativecommons.org/ns#Notice"/>
				<cc:requires rdf:resource="http://creativecommons.org/ns#Attribution"/>
				<cc:prohibits rdf:resource="http://creativecommons.org/ns#CommercialUse"/>
				<cc:permits rdf:resource="http://creativecommons.org/ns#DerivativeWorks"/>
				<cc:requires rdf:resource="http://creativecommons.org/ns#ShareAlike"/>
			</cc:License>
		</rdf:RDF>
	</metadata>
	<g id="audio-volume-muted" transform="translate(72)">
		<rect id="rect3929" style="fill:none" height="22" width="22" y="1" x="1"/>
		<path id="path3937" class="ColorScheme-Text" style="fill:currentColor" d="m3 10c-1.1046 0-2 .89543-2 2s.89543 2 2 2h1l3 4v-12l-3 4z"/>
		<path id="path3939" class="ColorScheme-Text" style="stroke:currentColor;opacity:.875;stroke-width:2;stroke-linecap:round;fill:none" d="m12 9 6 6"/>
		<path id="path3941" class="ColorScheme-Text" style="stroke:currentColor;opacity:.875;stroke-width:2;stroke-linecap:round;fill:none" d="m12 15 6-6"/>
	</g>
	<g id="audio-volume-high">
		<rect id="rect3805" style="fill:none" height="22" width="22" y="1" x="1"/>
		<path id="path3783" class="ColorScheme-Text" style="fill:currentColor" d="m7 6-3 4h-1c-1.1046 0-2 .89543-2 2s.89543 2 2 2h1l3 4z"/>
		<path id="path3788" class="ColorScheme-Text" style="stroke:currentColor;opacity:.875;stroke-linecap:round;stroke-width:3;fill:none" d="m18.875 20.781c1.663-2.523 2.625-5.533 2.625-8.781 0-3.2478-.962-6.2581-2.625-8.7812"/>
		<path id="path3794" class="ColorScheme-Text" style="stroke:currentColor;opacity:.875;stroke-linecap:round;stroke-width:3;fill:none" d="m14.531 18.312c1.25-1.784 1.969-3.968 1.969-6.312 0-2.3438-.719-4.5279-1.969-6.3125"/>
		<path id="path3796" class="ColorScheme-Text" style="stroke:currentColor;opacity:.875;stroke-linecap:round;stroke-width:3;fill:none" d="m10.125 15.781c.846-1.034 1.375-2.34 1.375-3.781s-.529-2.7469-1.375-3.7812"/>
	</g>
	<g id="audio-volume-medium" transform="translate(24)">
		<rect id="rect3816" style="fill:none" height="22" width="22" y="1" x="1"/>
		<path id="path3818" class="ColorScheme-Text" style="fill:currentColor" d="m7 6-3 4h-1c-1.1046 0-2 .89543-2 2s.89543 2 2 2h1l3 4z"/>
		<path id="path3820" class="ColorScheme-Text" style="opacity:.1875;stroke:currentColor;opacity:.875;stroke-linecap:round;stroke-width:3;fill:none" d="m18.875 20.781c1.663-2.523 2.625-5.533 2.625-8.781 0-3.2478-.962-6.2581-2.625-8.7812"/>
		<path id="path3822" class="ColorScheme-Text" style="stroke:currentColor;opacity:.875;stroke-linecap:round;stroke-width:3;fill:none" d="m14.531 18.312c1.25-1.784 1.969-3.968 1.969-6.312 0-2.3438-.719-4.5279-1.969-6.3125"/>
		<path id="path3824" class="ColorScheme-Text" style="stroke:currentColor;opacity:.875;stroke-linecap:round;stroke-width:3;fill:none" d="m10.125 15.781c.846-1.034 1.375-2.34 1.375-3.781s-.529-2.7469-1.375-3.7812"/>
	</g>
	<g id="audio-volume-low" transform="translate(48)">
		<rect id="rect3828" style="fill:none" height="22" width="22" y="1" x="1"/>
		<path id="path3830" class="ColorScheme-Text" style="fill:currentColor" d="m7 6-3 4h-1c-1.1046 0-2 .89543-2 2s.89543 2 2 2h1l3 4z"/>
		<path id="path3832" class="ColorScheme-Text" style="opacity:.1875;stroke:currentColor;opacity:.875;stroke-linecap:round;stroke-width:3;fill:none" d="m18.875 20.781c1.663-2.523 2.625-5.533 2.625-8.781 0-3.2478-.962-6.2581-2.625-8.7812"/>
		<path id="path3834" class="ColorScheme-Text" style="opacity:.1875;stroke:currentColor;opacity:.875;stroke-linecap:round;stroke-width:3;fill:none" d="m14.531 18.312c1.25-1.784 1.969-3.968 1.969-6.312 0-2.3438-.719-4.5279-1.969-6.3125"/>
		<path id="path3836" class="ColorScheme-Text" style="stroke:currentColor;opacity:.875;stroke-linecap:round;stroke-width:3;fill:none" d="m10.125 15.781c.846-1.034 1.375-2.34 1.375-3.781s-.529-2.7469-1.375-3.7812"/>
	</g>
</svg>
