<?xml version="1.0" encoding="UTF-8" standalone="no"?>
<svg xmlns:rdf="http://www.w3.org/1999/02/22-rdf-syntax-ns#" xmlns="http://www.w3.org/2000/svg" height="22" width="22" version="1.1" xmlns:cc="http://creativecommons.org/ns#" xmlns:dc="http://purl.org/dc/elements/1.1/">
	<defs>
		<style id="current-color-scheme" type="text/css">.ColorScheme-Text { color:#0000FF; }</style>
	</defs>
	<metadata>
		<rdf:RDF>
			<cc:Work rdf:about="">
				<dc:format>image/svg+xml</dc:format>
				<dc:type rdf:resource="http://purl.org/dc/dcmitype/StillImage"/>
				<dc:title/>
				<dc:creator>
					<cc:Agent>
						<dc:title>obnosim</dc:title>
					</cc:Agent>
				</dc:creator>
				<cc:license rdf:resource="http://creativecommons.org/licenses/by-sa/3.0/"/>
			</cc:Work>
			<cc:License rdf:about="http://creativecommons.org/licenses/by-sa/3.0/">
				<cc:permits rdf:resource="http://creativecommons.org/ns#Reproduction"/>
				<cc:permits rdf:resource="http://creativecommons.org/ns#Distribution"/>
				<cc:requires rdf:resource="http://creativecommons.org/ns#Notice"/>
				<cc:requires rdf:resource="http://creativecommons.org/ns#Attribution"/>
				<cc:permits rdf:resource="http://creativecommons.org/ns#DerivativeWorks"/>
				<cc:requires rdf:resource="http://creativecommons.org/ns#ShareAlike"/>
			</cc:License>
		</rdf:RDF>
	</metadata>
	<g id="audio-volume-muted" transform="translate(65,-1)" class="ColorScheme-Text">
		<rect style="fill:none" height="22" width="22" y="1" x="1"/>
		<path style="opacity:.875;fill:currentColor" d="m3 10c-1.1046 0-2 .89543-2 2s.89543 2 2 2h1l3 3v-10l-3 3z"/>
		<path style="opacity:.875;stroke:currentColor;stroke-linecap:round;fill:none;stroke-width:2" d="m12 15 6-6m-6 0 6 6"/>
	</g>
	<g id="audio-volume-low" class="ColorScheme-Text">
		<rect style="fill:none" height="22" width="22" y="0" x="33"/>
		<path style="opacity:.875;fill-rule:evenodd;fill:currentColor" d="m39 6-3 3h-1c-1.108 0-2 .892-2 2s.892 2 2 2h1l3 3z"/>
		<path style="stroke-linejoin:round;opacity:.875;stroke:currentColor;stroke-linecap:round;stroke-width:2;fill:none" d="m42.885 15.336c.731-1.328 1.114-2.82 1.115-4.336-.004-1.5155-.390-3.0056-1.123-4.332"/>
		<path style="opacity:.1875;stroke-linejoin:round;stroke:currentColor;stroke-linecap:round;stroke-width:2;fill:none" d="m47.266 17.746c1.137-2.067 1.733-4.387 1.734-6.746-.005-2.3579-.606-4.6764-1.746-6.7402m4.3926 15.895c1.543-2.805 2.352-5.954 2.353-9.155-.007-3.1997-.822-6.3458-2.369-9.1465"/>
	</g>
	<g id="audio-volume-medium" class="ColorScheme-Text">
		<rect style="fill:none" height="22" width="22" y="0" x="0"/>
		<path style="fill-rule:evenodd;opacity:.875;fill:currentColor" d="m6 6-3 3h-1c-1.108 0-2 .892-2 2s.892 2 2 2h1l3 3z"/>
		<path style="stroke-linejoin:round;opacity:.875;stroke:currentColor;stroke-linecap:round;stroke-width:2;fill:none" d="m14.266 17.746c1.137-2.067 1.733-4.387 1.734-6.746-.005-2.3579-.606-4.6764-1.746-6.7402m-4.3692 11.076c.7312-1.328 1.1142-2.82 1.1152-4.336-.004-1.5155-.390-3.0056-1.123-4.332"/>
		<path style="opacity:.1875;stroke-linejoin:round;stroke:currentColor;stroke-linecap:round;stroke-width:2;fill:none" d="m18.646 20.154c1.544-2.804 2.353-5.953 2.354-9.154-.007-3.1997-.822-6.3458-2.369-9.1465"/>
	</g>
	<g id="audio-volume-high" class="ColorScheme-Text">
		<rect style="fill:none" height="22" width="22" y="0" x="-33"/>
		<path style="opacity:.875;fill-rule:evenodd;fill:currentColor" d="m-27 6-3 3h-1c-1.108 0-2 .892-2 2s.892 2 2 2h1l3 3z"/>
		<path style="stroke-linejoin:round;opacity:.875;stroke:currentColor;stroke-linecap:round;stroke-width:2;fill:none" d="m-23.115 15.336c.731-1.328 1.114-2.82 1.115-4.336-.004-1.5155-.390-3.0056-1.123-4.332m4.3887 11.078c1.137-2.067 1.733-4.387 1.734-6.746-.005-2.3579-.606-4.6764-1.746-6.7402m4.3926 15.895c1.543-2.805 2.352-5.954 2.353-9.155-.007-3.1997-.822-6.3458-2.369-9.1465"/>
	</g>
</svg>
