<?xml version="1.0" encoding="UTF-8" standalone="no"?>
<!-- Created with Inkscape (http://www.inkscape.org/) -->

<svg
   xmlns:dc="http://purl.org/dc/elements/1.1/"
   xmlns:cc="http://creativecommons.org/ns#"
   xmlns:rdf="http://www.w3.org/1999/02/22-rdf-syntax-ns#"
   xmlns:svg="http://www.w3.org/2000/svg"
   xmlns="http://www.w3.org/2000/svg"
   xmlns:sodipodi="http://sodipodi.sourceforge.net/DTD/sodipodi-0.dtd"
   xmlns:inkscape="http://www.inkscape.org/namespaces/inkscape"
   width="96"
   height="24"
   id="svg4100"
   version="1.1"
   inkscape:version="0.91 r13725"
   sodipodi:docname="audio.svg">
  <defs
     id="defs4102" />
  <sodipodi:namedview
     id="base"
     pagecolor="#323232"
     bordercolor="#666666"
     borderopacity="1.0"
     inkscape:pageopacity="1"
     inkscape:pageshadow="2"
     inkscape:zoom="1"
     inkscape:cx="92.394269"
     inkscape:cy="13.809647"
     inkscape:current-layer="svg4100"
     showgrid="false"
     inkscape:grid-bbox="true"
     inkscape:document-units="px"
     fit-margin-top="0"
     fit-margin-left="0"
     fit-margin-right="0"
     fit-margin-bottom="0"
     inkscape:window-width="1920"
     inkscape:window-height="1056"
     inkscape:window-x="0"
     inkscape:window-y="-3"
     inkscape:window-maximized="1"
     showguides="false"
     inkscape:guide-bbox="true"
     inkscape:showpageshadow="false"
     showborder="false">
    <inkscape:grid
       type="xygrid"
       id="grid4165"
       empspacing="5"
       visible="true"
       enabled="true"
       snapvisiblegridlinesonly="true"
       originx="0px"
       originy="0px" />
    <sodipodi:guide
       orientation="0,1"
       position="95,15"
       id="guide3032" />
    <sodipodi:guide
       orientation="0,1"
       position="97,9"
       id="guide3034" />
    <sodipodi:guide
       orientation="0,1"
       position="0,12"
       id="guide3036" />
    <sodipodi:guide
       orientation="1,0"
       position="12,24"
       id="guide3038" />
    <sodipodi:guide
       position="0,0"
       orientation="0,24"
       id="guide3042" />
    <sodipodi:guide
       position="24,0"
       orientation="-24,0"
       id="guide3044" />
    <sodipodi:guide
       position="24,24"
       orientation="0,-24"
       id="guide3046" />
    <sodipodi:guide
       position="0,24"
       orientation="24,0"
       id="guide3048" />
  </sodipodi:namedview>
  <metadata
     id="metadata4105">
    <rdf:RDF>
      <cc:Work
         rdf:about="">
        <dc:format>image/svg+xml</dc:format>
        <dc:type
           rdf:resource="http://purl.org/dc/dcmitype/StillImage" />
        <dc:title />
        <dc:creator>
          <cc:Agent>
            <dc:title>obnosim</dc:title>
          </cc:Agent>
        </dc:creator>
        <cc:license
           rdf:resource="http://creativecommons.org/licenses/by-nc-sa/3.0/" />
      </cc:Work>
      <cc:License
         rdf:about="http://creativecommons.org/licenses/by-nc-sa/3.0/">
        <cc:permits
           rdf:resource="http://creativecommons.org/ns#Reproduction" />
        <cc:permits
           rdf:resource="http://creativecommons.org/ns#Distribution" />
        <cc:requires
           rdf:resource="http://creativecommons.org/ns#Notice" />
        <cc:requires
           rdf:resource="http://creativecommons.org/ns#Attribution" />
        <cc:prohibits
           rdf:resource="http://creativecommons.org/ns#CommercialUse" />
        <cc:permits
           rdf:resource="http://creativecommons.org/ns#DerivativeWorks" />
        <cc:requires
           rdf:resource="http://creativecommons.org/ns#ShareAlike" />
      </cc:License>
    </rdf:RDF>
  </metadata>
  <g
     id="audio-volume-muted"
     transform="translate(72,0)"
     style="opacity:1">
    <rect
       style="fill:none;stroke:none"
       id="rect3929"
       width="24"
       height="24"
       x="0"
       y="0" />
    <path
       style="color:#000000;fill:none;fill-opacity:1;fill-rule:nonzero;stroke:#000000;stroke-width:2;marker:none;visibility:visible;display:inline;overflow:visible;enable-background:accumulate;stroke-opacity:1;stroke-miterlimit:4;stroke-dasharray:none;opacity:0.37500000000000000;stroke-linejoin:round"
       d="M 79 7 L 76 10 L 75 10 C 73.895431 10 73 10.895431 73 12 C 73 13.104569 73.895431 14 75 14 L 76 14 L 79 17 L 79 7 z M 83.90625 7.96875 A 1.0001 1.0001 0 0 0 83.78125 8 A 1.0001 1.0001 0 0 0 83.28125 9.71875 L 85.5625 12 L 83.28125 14.28125 A 1.016466 1.016466 0 1 0 84.71875 15.71875 L 87 13.4375 L 89.28125 15.71875 A 1.016466 1.016466 0 1 0 90.71875 14.28125 L 88.4375 12 L 90.71875 9.71875 A 1.0001 1.0001 0 0 0 89.875 8 A 1.0001 1.0001 0 0 0 89.28125 8.28125 L 87 10.5625 L 84.71875 8.28125 A 1.0001 1.0001 0 0 0 83.90625 7.96875 z "
       transform="translate(-72,0)"
       id="path3851" />
    <path
       style="color:#000000;fill:#e0e0e0;fill-opacity:1;fill-rule:nonzero;stroke:none;stroke-width:1px;marker:none;visibility:visible;display:inline;overflow:visible;enable-background:accumulate"
       d="m 3,10 c -1.1045695,0 -2,0.895431 -2,2 0,1.104569 0.8954305,2 2,2 l 1,0 3,3 0,-10 -3,3 z"
       id="path3937"
       inkscape:connector-curvature="0"
       sodipodi:nodetypes="sssccccs" />
    <path
       style="fill:none;stroke:#e0e0e0;stroke-width:2;stroke-linecap:round;stroke-miterlimit:4;stroke-opacity:1;stroke-dasharray:none"
       d="m 12,9 6,6"
       id="path3939"
       inkscape:connector-curvature="0"
       sodipodi:nodetypes="cc" />
    <path
       inkscape:connector-curvature="0"
       id="path3941"
       d="M 12,15 18,9"
       style="fill:none;stroke:#e0e0e0;stroke-width:2;stroke-linecap:round;stroke-miterlimit:4;stroke-opacity:1;stroke-dasharray:none"
       sodipodi:nodetypes="cc" />
  </g>
  <g
     id="audio-volume-high">
    <rect
       y="0"
       x="0"
       height="24"
       width="24"
       id="rect3805"
       style="fill:none;stroke:none" />
    <path
       style="color:#000000;fill:none;fill-opacity:1;fill-rule:nonzero;stroke:#000000;stroke-width:2;marker:none;visibility:visible;display:inline;overflow:visible;enable-background:accumulate;stroke-opacity:1;stroke-miterlimit:4;stroke-dasharray:none;opacity:0.37500000000000000;stroke-linejoin:round"
       d="M 18.71875 1.6875 A 1.50015 1.50015 0 0 0 17.625 4.03125 C 19.132469 6.318734 20 9.0484379 20 12 C 20 14.951562 19.132469 17.681266 17.625 19.96875 A 1.50015 1.50015 0 1 0 20.125 21.59375 C 21.943127 18.834862 23 15.544084 23 12 C 23 8.4559167 21.943127 5.1651376 20.125 2.40625 A 1.50015 1.50015 0 0 0 18.875 1.6875 A 1.50015 1.50015 0 0 0 18.71875 1.6875 z M 14.3125 4.15625 A 1.50015 1.50015 0 0 0 13.3125 6.5625 C 14.387198 8.0977279 15 9.9632217 15 12 C 15 14.036778 14.387198 15.902272 13.3125 17.4375 A 1.5003255 1.5003255 0 1 0 15.75 19.1875 C 17.173844 17.15351 18 14.650732 18 12 C 18 9.3492677 17.173844 6.8464899 15.75 4.8125 A 1.50015 1.50015 0 0 0 14.46875 4.15625 A 1.50015 1.50015 0 0 0 14.3125 4.15625 z M 9.96875 6.6875 A 1.50015 1.50015 0 0 0 8.96875 9.15625 C 9.6170386 9.9484572 10 10.926104 10 12 C 10 13.073896 9.6170382 14.051544 8.96875 14.84375 A 1.50015 1.50015 0 1 0 11.28125 16.71875 C 12.325804 15.442308 13 13.807642 13 12 C 13 10.192358 12.325803 8.5576918 11.28125 7.28125 A 1.50015 1.50015 0 0 0 10.125 6.6875 A 1.50015 1.50015 0 0 0 9.96875 6.6875 z M 7 7 L 4 10 L 3 10 C 1.8954305 10 1 10.895431 1 12 C 1 13.104569 1.8954305 14 3 14 L 4 14 L 7 17 L 7 7 z "
       id="path3804" />
    <path
       id="path3783"
       d="m 7,7 -3,3 -1,0 c -1.1045695,0 -2,0.895431 -2,2 0,1.104569 0.8954305,2 2,2 l 1,0 3,3 0,-10 z"
       style="color:#000000;fill:#e0e0e0;fill-opacity:1;fill-rule:nonzero;stroke:none;stroke-width:1px;marker:none;visibility:visible;display:inline;overflow:visible;enable-background:accumulate"
       inkscape:connector-curvature="0" />
    <path
       sodipodi:nodetypes="csc"
       inkscape:connector-curvature="0"
       id="path3788"
       d="M 18.875,20.78125 C 20.537798,18.258064 21.5,15.247823 21.5,12 21.5,8.7521773 20.537798,5.7419358 18.875,3.21875"
       style="color:#000000;fill:none;stroke:#e0e0e0;stroke-width:3;stroke-linecap:round;stroke-miterlimit:4;stroke-opacity:1;stroke-dasharray:none;marker:none;visibility:visible;display:inline;overflow:visible;enable-background:accumulate" />
    <path
       sodipodi:nodetypes="csc"
       inkscape:connector-curvature="0"
       id="path3794"
       d="M 14.53125,18.3125 C 15.780521,16.527891 16.5,14.343755 16.5,12 16.5,9.6562447 15.780521,7.4721089 14.53125,5.6875"
       style="color:#000000;fill:none;stroke:#e0e0e0;stroke-width:3;stroke-linecap:round;stroke-miterlimit:4;stroke-opacity:1;stroke-dasharray:none;marker:none;visibility:visible;display:inline;overflow:visible;enable-background:accumulate" />
    <path
       sodipodi:nodetypes="csc"
       inkscape:connector-curvature="0"
       id="path3796"
       d="M 10.125,15.78125 C 10.971421,14.746926 11.5,13.440769 11.5,12 11.5,10.559231 10.971421,9.2530745 10.125,8.21875"
       style="color:#000000;fill:none;stroke:#e0e0e0;stroke-width:3;stroke-linecap:round;stroke-miterlimit:4;stroke-opacity:1;stroke-dasharray:none;marker:none;visibility:visible;display:inline;overflow:visible;enable-background:accumulate" />
  </g>
  <g
     id="audio-volume-medium"
     transform="translate(24,0)">
    <path
       style="color:#000000;fill:none;fill-opacity:1;fill-rule:nonzero;stroke:#000000;stroke-width:2;marker:none;visibility:visible;display:inline;overflow:visible;enable-background:accumulate;stroke-opacity:1;opacity:0.37500000000000000;stroke-miterlimit:4;stroke-dasharray:none;stroke-linejoin:round"
       d="M 38.3125 4.15625 A 1.50015 1.50015 0 0 0 37.3125 6.5625 C 38.387198 8.0977279 39 9.9632217 39 12 C 39 14.036778 38.387198 15.902272 37.3125 17.4375 A 1.5003255 1.5003255 0 1 0 39.75 19.1875 C 41.173844 17.15351 42 14.650732 42 12 C 42 9.3492677 41.173844 6.8464899 39.75 4.8125 A 1.50015 1.50015 0 0 0 38.46875 4.15625 A 1.50015 1.50015 0 0 0 38.3125 4.15625 z M 33.96875 6.6875 A 1.50015 1.50015 0 0 0 32.96875 9.15625 C 33.617039 9.9484572 34 10.926104 34 12 C 34 13.073896 33.617038 14.051544 32.96875 14.84375 A 1.50015 1.50015 0 1 0 35.28125 16.71875 C 36.325804 15.442308 37 13.807642 37 12 C 37 10.192358 36.325803 8.5576918 35.28125 7.28125 A 1.50015 1.50015 0 0 0 34.125 6.6875 A 1.50015 1.50015 0 0 0 33.96875 6.6875 z M 31 7 L 28 10 L 27 10 C 25.89543 10 25 10.895431 25 12 C 25 13.104569 25.89543 14 27 14 L 28 14 L 31 17 L 31 7 z "
       transform="translate(-24,0)"
       id="path3826" />
    <rect
       style="fill:none;stroke:none"
       id="rect3816"
       width="24"
       height="24"
       x="0"
       y="0" />
    <path
       style="color:#000000;fill:#e0e0e0;fill-opacity:1;fill-rule:nonzero;stroke:none;stroke-width:1px;marker:none;visibility:visible;display:inline;overflow:visible;enable-background:accumulate"
       d="m 7,7 -3,3 -1,0 c -1.1045695,0 -2,0.895431 -2,2 0,1.104569 0.8954305,2 2,2 l 1,0 3,3 0,-10 z"
       id="path3818"
       inkscape:connector-curvature="0" />
    <path
       style="opacity:0.1875;color:#000000;fill:none;stroke:#e0e0e0;stroke-width:3;stroke-linecap:round;stroke-miterlimit:4;stroke-opacity:1;stroke-dasharray:none;marker:none;visibility:visible;display:inline;overflow:visible;enable-background:accumulate"
       d="M 18.875,20.78125 C 20.537798,18.258064 21.5,15.247823 21.5,12 21.5,8.7521773 20.537798,5.7419358 18.875,3.21875"
       id="path3820"
       inkscape:connector-curvature="0"
       sodipodi:nodetypes="csc" />
    <path
       style="color:#000000;fill:none;stroke:#e0e0e0;stroke-width:3;stroke-linecap:round;stroke-miterlimit:4;stroke-opacity:1;stroke-dasharray:none;marker:none;visibility:visible;display:inline;overflow:visible;enable-background:accumulate"
       d="M 14.53125,18.3125 C 15.780521,16.527891 16.5,14.343755 16.5,12 16.5,9.6562447 15.780521,7.4721089 14.53125,5.6875"
       id="path3822"
       inkscape:connector-curvature="0"
       sodipodi:nodetypes="csc" />
    <path
       style="color:#000000;fill:none;stroke:#e0e0e0;stroke-width:3;stroke-linecap:round;stroke-miterlimit:4;stroke-opacity:1;stroke-dasharray:none;marker:none;visibility:visible;display:inline;overflow:visible;enable-background:accumulate"
       d="M 10.125,15.78125 C 10.971421,14.746926 11.5,13.440769 11.5,12 11.5,10.559231 10.971421,9.2530745 10.125,8.21875"
       id="path3824"
       inkscape:connector-curvature="0"
       sodipodi:nodetypes="csc" />
  </g>
  <g
     transform="translate(48,0)"
     id="audio-volume-low">
    <rect
       y="0"
       x="0"
       height="24"
       width="24"
       id="rect3828"
       style="fill:none;stroke:none" />
    <path
       style="color:#000000;fill:none;fill-opacity:1;fill-rule:nonzero;stroke:#000000;stroke-width:2;marker:none;visibility:visible;display:inline;overflow:visible;enable-background:accumulate;stroke-opacity:1;stroke-linejoin:round;stroke-miterlimit:4;stroke-dasharray:none;opacity:0.375"
       d="M 57.96875 6.6875 A 1.50015 1.50015 0 0 0 56.96875 9.15625 C 57.617039 9.9484572 58 10.926104 58 12 C 58 13.073896 57.617038 14.051544 56.96875 14.84375 A 1.50015 1.50015 0 1 0 59.28125 16.71875 C 60.325804 15.442308 61 13.807642 61 12 C 61 10.192358 60.325803 8.5576918 59.28125 7.28125 A 1.50015 1.50015 0 0 0 58.125 6.6875 A 1.50015 1.50015 0 0 0 57.96875 6.6875 z M 55 7 L 52 10 L 51 10 C 49.895431 10 49 10.895431 49 12 C 49 13.104569 49.895431 14 51 14 L 52 14 L 55 17 L 55 7 z "
       transform="translate(-48,0)"
       id="path3842" />
    <path
       inkscape:connector-curvature="0"
       id="path3830"
       d="m 7,7 -3,3 -1,0 c -1.1045695,0 -2,0.895431 -2,2 0,1.104569 0.8954305,2 2,2 l 1,0 3,3 0,-10 z"
       style="color:#000000;fill:#e0e0e0;fill-opacity:1;fill-rule:nonzero;stroke:none;stroke-width:1px;marker:none;visibility:visible;display:inline;overflow:visible;enable-background:accumulate" />
    <path
       sodipodi:nodetypes="csc"
       inkscape:connector-curvature="0"
       id="path3832"
       d="M 18.875,20.78125 C 20.537798,18.258064 21.5,15.247823 21.5,12 21.5,8.7521773 20.537798,5.7419358 18.875,3.21875"
       style="opacity:0.1875;color:#000000;fill:none;stroke:#e0e0e0;stroke-width:3;stroke-linecap:round;stroke-miterlimit:4;stroke-opacity:1;stroke-dasharray:none;marker:none;visibility:visible;display:inline;overflow:visible;enable-background:accumulate" />
    <path
       sodipodi:nodetypes="csc"
       inkscape:connector-curvature="0"
       id="path3834"
       d="M 14.53125,18.3125 C 15.780521,16.527891 16.5,14.343755 16.5,12 16.5,9.6562447 15.780521,7.4721089 14.53125,5.6875"
       style="opacity:0.1875;color:#000000;fill:none;stroke:#e0e0e0;stroke-width:3;stroke-linecap:round;stroke-miterlimit:4;stroke-opacity:1;stroke-dasharray:none;marker:none;visibility:visible;display:inline;overflow:visible;enable-background:accumulate" />
    <path
       sodipodi:nodetypes="csc"
       inkscape:connector-curvature="0"
       id="path3836"
       d="M 10.125,15.78125 C 10.971421,14.746926 11.5,13.440769 11.5,12 11.5,10.559231 10.971421,9.2530745 10.125,8.21875"
       style="color:#000000;fill:none;stroke:#e0e0e0;stroke-width:3;stroke-linecap:round;stroke-miterlimit:4;stroke-opacity:1;stroke-dasharray:none;marker:none;visibility:visible;display:inline;overflow:visible;enable-background:accumulate" />
  </g>
</svg>
