<?xml version="1.0" encoding="UTF-8" standalone="no"?>
<!-- Created with Inkscape (http://www.inkscape.org/) -->

<svg
   xmlns:dc="http://purl.org/dc/elements/1.1/"
   xmlns:cc="http://creativecommons.org/ns#"
   xmlns:rdf="http://www.w3.org/1999/02/22-rdf-syntax-ns#"
   xmlns:svg="http://www.w3.org/2000/svg"
   xmlns="http://www.w3.org/2000/svg"
   xmlns:sodipodi="http://sodipodi.sourceforge.net/DTD/sodipodi-0.dtd"
   xmlns:inkscape="http://www.inkscape.org/namespaces/inkscape"
   version="1.1"
   width="24.000002"
   height="24.000002"
   id="svg3066"
   inkscape:version="0.91 r13725"
   sodipodi:docname="bangarang.svg">
  <sodipodi:namedview
     pagecolor="#323232"
     bordercolor="#666666"
     borderopacity="1"
     objecttolerance="10"
     gridtolerance="10"
     guidetolerance="10"
     inkscape:pageopacity="1"
     inkscape:pageshadow="2"
     inkscape:window-width="1200"
     inkscape:window-height="1049"
     id="namedview15"
     showgrid="true"
     inkscape:showpageshadow="false"
     showguides="false"
     showborder="true"
     inkscape:guide-bbox="true"
     inkscape:zoom="16"
     inkscape:cx="17.860798"
     inkscape:cy="15.750102"
     inkscape:window-x="0"
     inkscape:window-y="0"
     inkscape:window-maximized="0"
     inkscape:current-layer="svg3066">
    <inkscape:grid
       type="xygrid"
       id="grid2992"
       empspacing="4"
       visible="true"
       enabled="true"
       snapvisiblegridlinesonly="true" />
    <sodipodi:guide
       position="0,0"
       orientation="0,24.000002"
       id="guide3765" />
    <sodipodi:guide
       position="24.000002,0"
       orientation="-24.000002,0"
       id="guide3767" />
    <sodipodi:guide
       position="24.000002,24.000002"
       orientation="0,-24.000002"
       id="guide3769" />
    <sodipodi:guide
       position="0,24.000002"
       orientation="24.000002,0"
       id="guide3771" />
  </sodipodi:namedview>
  <defs
     id="defs3068" />
  <metadata
     id="metadata3071">
    <rdf:RDF>
      <cc:Work
         rdf:about="">
        <dc:format>image/svg+xml</dc:format>
        <dc:type
           rdf:resource="http://purl.org/dc/dcmitype/StillImage" />
        <dc:title></dc:title>
        <dc:creator>
          <cc:Agent>
            <dc:title>obnosim</dc:title>
          </cc:Agent>
        </dc:creator>
        <cc:license
           rdf:resource="http://creativecommons.org/licenses/by-nc-sa/3.0/" />
      </cc:Work>
      <cc:License
         rdf:about="http://creativecommons.org/licenses/by-nc-sa/3.0/">
        <cc:permits
           rdf:resource="http://creativecommons.org/ns#Reproduction" />
        <cc:permits
           rdf:resource="http://creativecommons.org/ns#Distribution" />
        <cc:requires
           rdf:resource="http://creativecommons.org/ns#Notice" />
        <cc:requires
           rdf:resource="http://creativecommons.org/ns#Attribution" />
        <cc:prohibits
           rdf:resource="http://creativecommons.org/ns#CommercialUse" />
        <cc:permits
           rdf:resource="http://creativecommons.org/ns#DerivativeWorks" />
        <cc:requires
           rdf:resource="http://creativecommons.org/ns#ShareAlike" />
      </cc:License>
    </rdf:RDF>
  </metadata>
  <g
     id="bangarang">
    <rect
       ry="0.5"
       y="1.9073486e-06"
       x="0"
       height="24"
       width="24"
       id="rect4169"
       style="opacity:0.375;fill:none;fill-opacity:1;fill-rule:evenodd;stroke:none;stroke-width:2;stroke-linecap:round;stroke-linejoin:round;stroke-miterlimit:4;stroke-dasharray:none;stroke-dashoffset:0;stroke-opacity:1" />
    <path
       sodipodi:nodetypes="ssssccsssccccsssccssssssssss"
       inkscape:connector-curvature="0"
       style="opacity:0.375;fill:#000000;fill-opacity:1;fill-rule:evenodd;stroke:#000000;stroke-width:2;stroke-linecap:round;stroke-linejoin:round;stroke-miterlimit:4;stroke-dasharray:none;stroke-dashoffset:0;stroke-opacity:1"
       d="M 2,2 C 1.446,2 1,2.446 1,3 l 0,18 c 0,0.554 0.446,1 1,1 l 7.7695312,0 C 9.5075818,21.708754 9.3052055,21.369028 9.1738281,21 L 4,21 C 3.446,21 3,20.554 3,20 3,19.446 3.446,19 4,19 l 5.1757812,0 c 0.1302084,-0.368716 0.3312445,-0.708421 0.5917969,-1 l 4.4628909,0 c 0.261949,0.291246 0.464326,0.630972 0.595703,1 L 20,19 c 0.554,0 1,0.446 1,1 0,0.554 -0.446,1 -1,1 l -5.175781,0 c -0.130208,0.368716 -0.331245,0.708421 -0.591797,1 L 22,22 c 0.554,0 1,-0.446 1,-1 L 23,3 C 23,2.446 22.554,2 22,2 Z m 10,16 c -1.104569,0 -2,0.895431 -2,2 0,1.104569 0.895431,2 2,2 1.104569,0 2,-0.895431 2,-2 0,-1.104569 -0.895431,-2 -2,-2 z"
       id="path4165" />
    <path
       id="rect3341"
       d="M 2,2 C 1.446,2 1,2.446 1,3 l 0,18 c 0,0.554 0.446,1 1,1 l 7.7695312,0 A 3,3 0 0 1 9.1738281,21 L 4,21 C 3.446,21 3,20.554 3,20 3,19.446 3.446,19 4,19 l 5.1757812,0 A 3,3 0 0 1 9.7675781,18 L 3,18 3,4 l 18,0 0,14 -6.769531,0 a 3,3 0 0 1 0.595703,1 L 20,19 c 0.554,0 1,0.446 1,1 0,0.554 -0.446,1 -1,1 l -5.175781,0 a 3,3 0 0 1 -0.591797,1 L 22,22 c 0.554,0 1,-0.446 1,-1 L 23,3 C 23,2.446 22.554,2 22,2 L 2,2 Z m 8,5 0,8 6,-4 -6,-4 z m 2,11 a 2,2 0 0 0 -2,2 2,2 0 0 0 2,2 2,2 0 0 0 2,-2 2,2 0 0 0 -2,-2 z"
       style="opacity:1;fill:#e0e0e0;fill-opacity:1;fill-rule:evenodd;stroke:none;stroke-width:1;stroke-linecap:round;stroke-linejoin:miter;stroke-miterlimit:4;stroke-dasharray:none;stroke-dashoffset:0;stroke-opacity:1"
       inkscape:connector-curvature="0" />
  </g>
</svg>
