<?xml version="1.0" encoding="UTF-8" standalone="no"?>
<!-- Created with Inkscape (http://www.inkscape.org/) -->

<svg
   xmlns:dc="http://purl.org/dc/elements/1.1/"
   xmlns:cc="http://creativecommons.org/ns#"
   xmlns:rdf="http://www.w3.org/1999/02/22-rdf-syntax-ns#"
   xmlns:svg="http://www.w3.org/2000/svg"
   xmlns="http://www.w3.org/2000/svg"
   xmlns:sodipodi="http://sodipodi.sourceforge.net/DTD/sodipodi-0.dtd"
   xmlns:inkscape="http://www.inkscape.org/namespaces/inkscape"
   version="1.0"
   width="22"
   height="22"
   id="svg1966"
   style="display:inline"
   sodipodi:version="0.32"
   inkscape:version="0.91 r13725"
   sodipodi:docname="battery.svg"
   inkscape:output_extension="org.inkscape.output.svgz.inkscape">
  <sodipodi:namedview
     inkscape:window-height="1056"
     inkscape:window-width="1920"
     inkscape:pageshadow="2"
     inkscape:pageopacity="1"
     guidetolerance="10.0"
     gridtolerance="10.0"
     objecttolerance="10.0"
     borderopacity="1"
     bordercolor="#228997"
     pagecolor="#323232"
     id="base"
     showgrid="true"
     inkscape:zoom="2"
     inkscape:cx="54.506038"
     inkscape:cy="23.868238"
     inkscape:window-x="0"
     inkscape:window-y="-3"
     inkscape:current-layer="svg1966"
     inkscape:window-maximized="1"
     showguides="false"
     inkscape:guide-bbox="true"
     fit-margin-top="0"
     fit-margin-left="0"
     fit-margin-right="0"
     fit-margin-bottom="0"
     showborder="false"
     inkscape:showpageshadow="false">
    <inkscape:grid
       snapvisiblegridlinesonly="true"
       enabled="true"
       visible="true"
       empspacing="11"
       id="grid3082"
       type="xygrid"
       originx="-33"
       originy="0" />
    <sodipodi:guide
       orientation="1,0"
       position="5,24"
       id="guide3841" />
    <sodipodi:guide
       orientation="0,1"
       position="17,12"
       id="guide3843" />
    <sodipodi:guide
       position="-33,0"
       orientation="0,24.0625"
       id="guide3867" />
    <sodipodi:guide
       position="-8.9375,0"
       orientation="-24.161762,0"
       id="guide3869" />
    <sodipodi:guide
       position="-8.9375,24.161762"
       orientation="0,-24.0625"
       id="guide3871" />
    <sodipodi:guide
       position="-33,24.161762"
       orientation="24.161762,0"
       id="guide3873" />
  </sodipodi:namedview>
  <metadata
     id="metadata218">
    <rdf:RDF>
      <cc:Work
         rdf:about="">
        <dc:format>image/svg+xml</dc:format>
        <dc:type
           rdf:resource="http://purl.org/dc/dcmitype/StillImage" />
        <dc:title />
        <dc:creator>
          <cc:Agent>
            <dc:title>obnosim</dc:title>
          </cc:Agent>
        </dc:creator>
        <cc:license
           rdf:resource="http://creativecommons.org/licenses/by-nc-sa/3.0/" />
      </cc:Work>
      <cc:License
         rdf:about="http://creativecommons.org/licenses/by-nc-sa/3.0/">
        <cc:permits
           rdf:resource="http://creativecommons.org/ns#Reproduction" />
        <cc:permits
           rdf:resource="http://creativecommons.org/ns#Distribution" />
        <cc:requires
           rdf:resource="http://creativecommons.org/ns#Notice" />
        <cc:requires
           rdf:resource="http://creativecommons.org/ns#Attribution" />
        <cc:prohibits
           rdf:resource="http://creativecommons.org/ns#CommercialUse" />
        <cc:permits
           rdf:resource="http://creativecommons.org/ns#DerivativeWorks" />
        <cc:requires
           rdf:resource="http://creativecommons.org/ns#ShareAlike" />
      </cc:License>
    </rdf:RDF>
  </metadata>
  <defs
     id="defs1968" />
  <g
     id="Battery"
     transform="translate(-27,-1.1617622)">
    <rect
       y="1.1617622"
       x="1"
       height="22"
       width="22"
       id="rect3925"
       style="opacity:0.25;fill:none;stroke:none" />
    <path
       style="opacity:0.18800001;fill:#ffffff;fill-opacity:1;stroke:none"
       d="m -22,7 c -1.108,0 -2,0.892 -2,2 l 0,1 c -0.554,0 -1,0.446 -1,1 l 0,2 c 0,0.554 0.446,1 1,1 l 0,1 c 0,1.108 0.892,2 2,2 l 16,0 c 1.108,0 2,-0.892 2,-2 L -4,9 C -4,7.892 -4.892,7 -6,7 l -16,0 z m 7,3 7,2 -5,0 0,2 -7,-2 5,0 0,-2 z"
       transform="translate(26,0.16176224)"
       id="path3910"
       inkscape:connector-curvature="0" />
  </g>
  <g
     id="Unavailable"
     transform="translate(-104,24.838238)">
    <rect
       y="-24.838238"
       x="27"
       height="22"
       width="22"
       id="rect3961"
       style="opacity:0.5;fill:none;stroke:none" />
    <path
       inkscape:connector-curvature="0"
       id="path3983"
       d="m 42,-15.838238 -7,-7"
       style="fill:none;stroke:#fd0000;stroke-width:2;stroke-linecap:round;stroke-linejoin:round;stroke-miterlimit:4;stroke-dasharray:none;stroke-opacity:1"
       sodipodi:nodetypes="cc" />
    <path
       style="fill:none;stroke:#fd0000;stroke-width:2;stroke-linecap:round;stroke-linejoin:round;stroke-miterlimit:4;stroke-dasharray:none;stroke-opacity:1"
       d="m 42,-22.838238 -7,7"
       id="path3981"
       inkscape:connector-curvature="0"
       sodipodi:nodetypes="cc" />
  </g>
  <g
     id="AcAdapter"
     transform="translate(-4,27)">
    <rect
       y="-27"
       x="-51"
       height="22"
       width="22"
       id="rect3080"
       style="fill:none;stroke:none" />
    <path
       sodipodi:nodetypes="ssssssssssssssssss"
       inkscape:connector-curvature="0"
       id="path3082"
       d="m -48,-22.005512 c -1.662,0 -3,1.338 -3,3 l 0,6 c 0,1.662 1.338,3 3,3 l 16,0 c 1.662,0 3,-1.338 3,-3 l 0,-6 c 0,-1.662 -1.338,-3 -3,-3 z m 0,1.099512 16,0 c 1.108,0 1.9,0.792488 1.9,1.900488 l 0,6 c 0,1.108 -0.792,1.899512 -1.9,1.899512 l -16,0 c -1.108,0 -1.899999,-0.791512 -1.899999,-1.899512 l 0,-6 c 0,-1.108 0.791999,-1.900488 1.899999,-1.900488 z"
       style="fill:#e0e0e0;fill-opacity:1;fill-rule:nonzero;stroke:none" />
  </g>
  <g
     id="Fill100"
     transform="translate(-1,51)">
    <rect
       y="-51"
       x="1"
       height="22"
       width="22"
       id="rect3868"
       style="opacity:0.25;fill:none;stroke:none" />
    <path
       id="path3870"
       d="m 4,-45 c -1.108,0 -2,0.892 -2,2 l 0,1 c -0.554,0 -1,0.446 -1,1 l 0,2 c 0,0.554 0.446,1 1,1 l 0,1 c 0,1.108 0.892,2 2,2 l 16,0 c 1.108,0 2,-0.892 2,-2 l 0,-6 c 0,-1.108 -0.892,-2 -2,-2 l -16,0 z m 7,3 7,2 -5,0 0,2 -7,-2 5,0 0,-2 z"
       style="fill:#e0e0e0;fill-opacity:1;stroke:none"
       inkscape:connector-curvature="0" />
  </g>
  <g
     id="Fill90"
     transform="translate(-5,51)">
    <rect
       style="opacity:0.25;fill:none;stroke:none"
       id="rect3874"
       width="22"
       height="22"
       x="27"
       y="-51" />
    <path
       id="path3876"
       d="m 30,-45 c -1.108,0 -2,0.892 -2,2 l 0,1 c -0.554,0 -1,0.446 -1,1 l 0,2 c 0,0.554 0.446,1 1,1 l 0,1 c 0,1.108 0.892,2 2,2 l 16,0 c 1.108,0 2,-0.892 2,-2 0,0.554 -0.446,1 -1,1 -0.554,0 -1,-0.446 -1,-1 l 0,-6 c 0,-0.554 0.446,-1 1,-1 0.554,0 1,0.446 1,1 0,-1.108 -0.892,-2 -2,-2 l -16,0 z m 7,3 7,2 -5,0 0,2 -7,-2 5,0 0,-2 z"
       style="fill:#e0e0e0;fill-opacity:1;stroke:none"
       inkscape:connector-curvature="0" />
  </g>
  <g
     id="Fill80"
     transform="translate(-9,51)">
    <rect
       y="-51"
       x="53"
       height="22"
       width="22"
       id="rect3880"
       style="opacity:0.25;fill:none;stroke:none" />
    <path
       id="path3882"
       d="m 56,-45 c -1.108,0 -2,0.892 -2,2 l 0,1 c -0.554,0 -1,0.446 -1,1 l 0,2 c 0,0.554 0.446,1 1,1 l 0,1 c 0,1.108 0.892,2 2,2 l 16,0 c -1.063654,-0.04915 -1.90625,-0.923774 -1.90625,-2 l 0,-6 c 0,-1.076226 0.842596,-1.950848 1.90625,-2 l -16,0 z m 7,3 7,2 -5,0 0,2 -7,-2 5,0 0,-2 z"
       style="fill:#e0e0e0;fill-opacity:1;stroke:none"
       inkscape:connector-curvature="0" />
  </g>
  <g
     id="Fill70"
     transform="translate(-13,51)">
    <rect
       style="opacity:0.25;fill:none;stroke:none"
       id="rect3886"
       width="22"
       height="22"
       x="79"
       y="-51" />
    <path
       id="path3888"
       d="m 82,-45 c -1.108,0 -2,0.892 -2,2 l 0,1 c -0.554,0 -1,0.446 -1,1 l 0,2 c 0,0.554 0.446,1 1,1 l 0,1 c 0,1.108 0.892,2 2,2 l 14.09375,0 c -1.108,0 -2,-0.892 -2,-2 l 0,-3 -3.09375,0 0,2 -7,-2 5,0 0,-2 5.09375,1.46875 0,-2.46875 c 0,-1.108 0.892,-2 2,-2 L 82,-45 Z m 12.09375,4.46875 0,0.53125 1.90625,0 -1.90625,-0.53125 z"
       style="fill:#e0e0e0;fill-opacity:1;stroke:none"
       inkscape:connector-curvature="0" />
  </g>
  <g
     id="Fill60"
     transform="translate(-17,51)">
    <rect
       y="-51"
       x="105"
       height="22"
       width="22"
       id="rect3892"
       style="opacity:0.25;fill:none;stroke:none" />
    <path
       id="path3894"
       d="m 108,-45 c -1.108,0 -2,0.892 -2,2 l 0,1 c -0.554,0 -1,0.446 -1,1 l 0,2 c 0,0.554 0.446,1 1,1 l 0,1 c 0,1.108 0.892,2 2,2 l 12.09375,0 c -1.108,0 -2,-0.892 -2,-2 l 0,-3 -1.09375,0 0,2 -7,-2 5,0 0,-2 3.09375,0.875 0,-1.875 c 0,-1.108 0.892,-2 2,-2 L 108,-45 Z m 10.09375,3.875 0,1.125 3.90625,0 -3.90625,-1.125 z"
       style="fill:#e0e0e0;fill-opacity:1;stroke:none"
       inkscape:connector-curvature="0" />
  </g>
  <g
     id="Fill50"
     transform="translate(109,27)">
    <rect
       style="opacity:0.25;fill:none;stroke:none"
       id="rect3898"
       width="22"
       height="22"
       x="1"
       y="-27" />
    <path
       id="path3900"
       d="m 4,-21 c -1.108,0 -2,0.892 -2,2 l 0,1 c -0.554,0 -1,0.446 -1,1 l 0,2 c 0,0.554 0.446,1 1,1 l 0,1 c 0,1.108 0.892,2 2,2 l 10.09375,0 c -1.108,0 -2,-0.892 -2,-2 l 0,-1.25 L 6,-16 l 5,0 0,-2 1.09375,0.3125 0,-1.3125 c 0,-1.108 0.892,-2 2,-2 L 4,-21 Z m 8.09375,3.3125 0,3.4375 L 13,-14 l 0,-2 5,0 -5.90625,-1.6875 z"
       style="fill:#e0e0e0;fill-opacity:1;stroke:none"
       inkscape:connector-curvature="0" />
  </g>
  <g
     id="Fill40"
     transform="translate(105,27)">
    <rect
       style="opacity:0.25;fill:none;stroke:none"
       id="rect3904"
       width="22"
       height="22"
       x="27"
       y="-27" />
    <path
       id="path3906"
       d="m 30,-21 c -1.108,0 -2,0.892 -2,2 l 0,1 c -0.554,0 -1,0.446 -1,1 l 0,2 c 0,0.554 0.446,1 1,1 l 0,1 c 0,1.108 0.892,2 2,2 l 8.09375,0 c -1.108,0 -2,-0.892 -2,-2 l 0,-1.84375 L 32,-16 l 4.09375,0 0,-3 c 0,-1.108 0.892,-2 2,-2 L 30,-21 Z m 6.09375,5 0,1.15625 L 39,-14 l 0,-2 5,0 -7,-2 0,2 -0.90625,0 z"
       style="fill:#e0e0e0;fill-opacity:1;stroke:none"
       inkscape:connector-curvature="0" />
  </g>
  <g
     id="Fill30"
     transform="translate(101,27)">
    <rect
       y="-27"
       x="53"
       height="22"
       width="22"
       id="rect3910"
       style="opacity:0.25;fill:none;stroke:none" />
    <path
       id="path3912"
       d="m 56,-21 c -1.108,0 -2,0.892 -2,2 l 0,1 c -0.554,0 -1,0.446 -1,1 l 0,2 c 0,0.554 0.446,1 1,1 l 0,1 c 0,1.108 0.892,2 2,2 l 6.09375,0 c -1.108,0 -2,-0.892 -2,-2 l 0,-2.40625 L 58,-16 l 2.09375,0 0,-3 c 0,-1.108 0.892,-2 2,-2 L 56,-21 Z m 4.09375,5 0,0.59375 L 65,-14 l 0,-2 5,0 -7,-2 0,2 -2.90625,0 z"
       style="fill:#e0e0e0;fill-opacity:1;stroke:none"
       inkscape:connector-curvature="0" />
  </g>
  <g
     id="Fill20"
     transform="translate(97,27)">
    <rect
       style="opacity:0.25;fill:none;stroke:none"
       id="rect3916"
       width="22"
       height="22"
       x="79"
       y="-27" />
    <path
       id="path3918"
       d="m 82,-21 c -1.108,0 -2,0.892 -2,2 l 0,1 c -0.554,0 -1,0.446 -1,1 l 0,2 c 0,0.554 0.446,1 1,1 l 0,1 c 0,1.108 0.892,2 2,2 l 4.09375,0 c -1.108,0 -2,-0.892 -2,-2 l 0,-2.96875 L 84,-16 l 0.09375,0 0,-3 c 0,-1.108 0.892,-2 2,-2 L 82,-21 Z m 2.09375,5 0,0.03125 L 91,-14 l 0,-2 5,0 -7,-2 0,2 -4.90625,0 z"
       style="fill:#e0e0e0;fill-opacity:1;stroke:none"
       inkscape:connector-curvature="0" />
  </g>
  <g
     id="Fill10"
     transform="translate(93,27)">
    <rect
       y="-27"
       x="105"
       height="22"
       width="22"
       id="rect3922"
       style="opacity:0.25;fill:none;stroke:none" />
    <path
       id="path3924"
       d="m 108,-21 c -1.108,0 -2,0.892 -2,2 l 0,1 c -0.554,0 -1,0.446 -1,1 l 0,2 c 0,0.554 0.446,1 1,1 l 0,1 c 0,1.108 0.892,2 2,2 l 2.09375,0 c -1.108,0 -2,-0.892 -2,-2 l 0,-6 c 0,-1.108 0.892,-2 2,-2 L 108,-21 Z m 7,3 0,2 -5,0 7,2 0,-2 5,0 -7,-2 z"
       style="fill:#e0e0e0;fill-opacity:1;stroke:none"
       inkscape:connector-curvature="0" />
  </g>
</svg>
