<?xml version="1.0" encoding="UTF-8" standalone="no"?>
<!-- Created with Inkscape (http://www.inkscape.org/) -->

<svg
   xmlns:dc="http://purl.org/dc/elements/1.1/"
   xmlns:cc="http://creativecommons.org/ns#"
   xmlns:rdf="http://www.w3.org/1999/02/22-rdf-syntax-ns#"
   xmlns:svg="http://www.w3.org/2000/svg"
   xmlns="http://www.w3.org/2000/svg"
   xmlns:sodipodi="http://sodipodi.sourceforge.net/DTD/sodipodi-0.dtd"
   xmlns:inkscape="http://www.inkscape.org/namespaces/inkscape"
   version="1.0"
   width="24"
   height="24"
   id="svg1966"
   style="display:inline"
   sodipodi:version="0.32"
   inkscape:version="0.91 r13725"
   sodipodi:docname="battery.svgz"
   inkscape:output_extension="org.inkscape.output.svgz.inkscape">
  <sodipodi:namedview
     inkscape:window-height="1056"
     inkscape:window-width="1920"
     inkscape:pageshadow="2"
     inkscape:pageopacity="1"
     guidetolerance="10.0"
     gridtolerance="10.0"
     objecttolerance="10.0"
     borderopacity="1"
     bordercolor="#228997"
     pagecolor="#323232"
     id="base"
     showgrid="false"
     inkscape:zoom="5.6568542"
     inkscape:cx="68.027309"
     inkscape:cy="35.355361"
     inkscape:window-x="0"
     inkscape:window-y="-3"
     inkscape:current-layer="svg1966"
     inkscape:window-maximized="1"
     showguides="false"
     inkscape:guide-bbox="true"
     fit-margin-top="0"
     fit-margin-left="0"
     fit-margin-right="0"
     fit-margin-bottom="0"
     showborder="false"
     inkscape:showpageshadow="false">
    <inkscape:grid
       snapvisiblegridlinesonly="true"
       enabled="true"
       visible="true"
       empspacing="4"
       id="grid3082"
       type="xygrid"
       originx="-26px"
       originy="0px" />
    <sodipodi:guide
       orientation="1,0"
       position="12,24"
       id="guide3841" />
    <sodipodi:guide
       orientation="0,1"
       position="24,12"
       id="guide3843" />
    <sodipodi:guide
       position="-26,0"
       orientation="0,24.0625"
       id="guide3867" />
    <sodipodi:guide
       position="-1.9375,0"
       orientation="-24.161762,0"
       id="guide3869" />
    <sodipodi:guide
       position="-1.9375,24.161762"
       orientation="0,-24.0625"
       id="guide3871" />
    <sodipodi:guide
       position="-26,24.161762"
       orientation="24.161762,0"
       id="guide3873" />
  </sodipodi:namedview>
  <metadata
     id="metadata218">
    <rdf:RDF>
      <cc:Work
         rdf:about="">
        <dc:format>image/svg+xml</dc:format>
        <dc:type
           rdf:resource="http://purl.org/dc/dcmitype/StillImage" />
        <dc:title />
        <dc:creator>
          <cc:Agent>
            <dc:title>obnosim</dc:title>
          </cc:Agent>
        </dc:creator>
        <cc:license
           rdf:resource="http://creativecommons.org/licenses/by-nc-sa/3.0/" />
      </cc:Work>
      <cc:License
         rdf:about="http://creativecommons.org/licenses/by-nc-sa/3.0/">
        <cc:permits
           rdf:resource="http://creativecommons.org/ns#Reproduction" />
        <cc:permits
           rdf:resource="http://creativecommons.org/ns#Distribution" />
        <cc:requires
           rdf:resource="http://creativecommons.org/ns#Notice" />
        <cc:requires
           rdf:resource="http://creativecommons.org/ns#Attribution" />
        <cc:prohibits
           rdf:resource="http://creativecommons.org/ns#CommercialUse" />
        <cc:permits
           rdf:resource="http://creativecommons.org/ns#DerivativeWorks" />
        <cc:requires
           rdf:resource="http://creativecommons.org/ns#ShareAlike" />
      </cc:License>
    </rdf:RDF>
  </metadata>
  <defs
     id="defs1968" />
  <g
     id="Battery"
     transform="translate(-26,-0.16176224)">
    <rect
       y="0.16176224"
       x="0"
       height="24"
       width="24"
       id="rect3925"
       style="opacity:0.25;fill:none;stroke:none" />
    <path
       style="opacity:0.18800001;fill:#ffffff;fill-opacity:1;stroke:none"
       d="M -22 7 C -23.108 7 -24 7.892 -24 9 L -24 10 C -24.554 10 -25 10.446 -25 11 L -25 13 C -25 13.554 -24.554 14 -24 14 L -24 15 C -24 16.108 -23.108 17 -22 17 L -6 17 C -4.892 17 -4 16.108 -4 15 L -4 9 C -4 7.892 -4.892 7 -6 7 L -22 7 z M -15 10 L -8 12 L -13 12 L -13 14 L -20 12 L -15 12 L -15 10 z "
       transform="translate(26,0.16176224)"
       id="path3910" />
  </g>
  <g
     id="Unavailable"
     transform="translate(-104,25.838238)">
    <rect
       y="-25.838238"
       x="26"
       height="24"
       width="24"
       id="rect3961"
       style="opacity:0.5;fill:none;stroke:none" />
    <path
       inkscape:connector-curvature="0"
       id="path3983"
       d="m 42,-15.838238 -7,-7"
       style="fill:none;stroke:#fd0000;stroke-width:2;stroke-linecap:round;stroke-linejoin:round;stroke-miterlimit:4;stroke-opacity:1;stroke-dasharray:none"
       sodipodi:nodetypes="cc" />
    <path
       style="fill:none;stroke:#fd0000;stroke-width:2;stroke-linecap:round;stroke-linejoin:round;stroke-miterlimit:4;stroke-opacity:1;stroke-dasharray:none"
       d="m 42,-22.838238 -7,7"
       id="path3981"
       inkscape:connector-curvature="0"
       sodipodi:nodetypes="cc" />
  </g>
  <g
     id="AcAdapter"
     transform="translate(0,28)">
    <rect
       y="-28"
       x="-52"
       height="24"
       width="24"
       id="rect3080"
       style="fill:none;stroke:none" />
    <path
       style="opacity:0.375;fill:#000000;fill-opacity:1;stroke:none"
       d="M -48.28125 5 C -50.341437 5 -52 6.658562 -52 8.71875 L -52 11 C -52 10.07972 -51.357455 9.287262 -50.5 9.0625 L -50.5 9 C -50.5 7.615 -49.385 6.5 -48 6.5 L -32 6.5 C -30.615 6.5 -29.5 7.615 -29.5 9 L -29.5 15 C -29.5 16.385 -30.615 17.5 -32 17.5 L -48 17.5 C -49.385 17.5 -50.5 16.385 -50.5 15 L -50.5 14.9375 C -51.357455 14.712738 -52 13.920281 -52 13 L -52 15.28125 C -52 17.341437 -50.341437 19 -48.28125 19 L -31.71875 19 C -29.658562 19 -28 17.341437 -28 15.28125 L -28 8.71875 C -28 6.658562 -29.658562 5 -31.71875 5 L -48.28125 5 z "
       transform="translate(0,-28)"
       id="rect3086" />
    <path
       sodipodi:nodetypes="ssssssssssssssssss"
       inkscape:connector-curvature="0"
       id="path3082"
       d="m -48,-22.005512 c -1.662,0 -3,1.338 -3,3 l 0,6 c 0,1.662 1.338,3 3,3 l 16,0 c 1.662,0 3,-1.338 3,-3 l 0,-6 c 0,-1.662 -1.338,-3 -3,-3 z m 0,1.099512 16,0 c 1.108,0 1.9,0.792488 1.9,1.900488 l 0,6 c 0,1.108 -0.792,1.899512 -1.9,1.899512 l -16,0 c -1.108,0 -1.899999,-0.791512 -1.899999,-1.899512 l 0,-6 c 0,-1.108 0.791999,-1.900488 1.899999,-1.900488 z"
       style="fill:#e0e0e0;fill-opacity:1;fill-rule:nonzero;stroke:none" />
  </g>
  <g
     id="Fill100"
     transform="translate(0,52)">
    <rect
       y="-52"
       x="0"
       height="24"
       width="24"
       id="rect3868"
       style="opacity:0.25;fill:none;stroke:none" />
    <path
       inkscape:connector-curvature="0"
       style="opacity:0.375;fill:none;stroke:#000000;stroke-width:2;stroke-linejoin:round;stroke-miterlimit:4;stroke-opacity:1;stroke-dasharray:none"
       d="m 4,-45 c -1.108,0 -2,0.892 -2,2 l 0,1 c -0.554,0 -1,0.446 -1,1 l 0,2 c 0,0.554 0.446,1 1,1 l 0,1 c 0,1.108 0.892,2 2,2 l 16,0 c 1.108,0 2,-0.892 2,-2 l 0,-6 c 0,-1.108 -0.892,-2 -2,-2 l -16,0 z m 7,3 7,2 -5,0 0,2 -7,-2 5,0 0,-2 z"
       id="path3946" />
    <path
       id="path3870"
       d="m 4,-45 c -1.108,0 -2,0.892 -2,2 l 0,1 c -0.554,0 -1,0.446 -1,1 l 0,2 c 0,0.554 0.446,1 1,1 l 0,1 c 0,1.108 0.892,2 2,2 l 16,0 c 1.108,0 2,-0.892 2,-2 l 0,-6 c 0,-1.108 -0.892,-2 -2,-2 l -16,0 z m 7,3 7,2 -5,0 0,2 -7,-2 5,0 0,-2 z"
       style="fill:#e0e0e0;fill-opacity:1;stroke:none"
       inkscape:connector-curvature="0" />
  </g>
  <g
     id="Fill90"
     transform="translate(0,52)">
    <rect
       style="opacity:0.25;fill:none;stroke:none"
       id="rect3874"
       width="24"
       height="24"
       x="26"
       y="-52" />
    <path
       inkscape:connector-curvature="0"
       style="opacity:0.375;fill:none;stroke:#000000;stroke-width:2;stroke-linejoin:round;stroke-miterlimit:4;stroke-opacity:1;stroke-dasharray:none"
       d="m 30,-45 c -1.108,0 -2,0.892 -2,2 l 0,1 c -0.554,0 -1,0.446 -1,1 l 0,2 c 0,0.554 0.446,1 1,1 l 0,1 c 0,1.108 0.892,2 2,2 l 16,0 c 1.108,0 2,-0.892 2,-2 0,0.554 -0.446,1 -1,1 -0.554,0 -1,-0.446 -1,-1 l 0,-6 c 0,-0.554 0.446,-1 1,-1 0.554,0 1,0.446 1,1 0,-1.108 -0.892,-2 -2,-2 l -16,0 z m 7,3 7,2 -5,0 0,2 -7,-2 5,0 0,-2 z"
       id="path3948" />
    <path
       id="path3876"
       d="m 30,-45 c -1.108,0 -2,0.892 -2,2 l 0,1 c -0.554,0 -1,0.446 -1,1 l 0,2 c 0,0.554 0.446,1 1,1 l 0,1 c 0,1.108 0.892,2 2,2 l 16,0 c 1.108,0 2,-0.892 2,-2 0,0.554 -0.446,1 -1,1 -0.554,0 -1,-0.446 -1,-1 l 0,-6 c 0,-0.554 0.446,-1 1,-1 0.554,0 1,0.446 1,1 0,-1.108 -0.892,-2 -2,-2 l -16,0 z m 7,3 7,2 -5,0 0,2 -7,-2 5,0 0,-2 z"
       style="fill:#e0e0e0;fill-opacity:1;stroke:none"
       inkscape:connector-curvature="0" />
  </g>
  <g
     id="Fill80"
     transform="translate(0,52)">
    <rect
       y="-52"
       x="52"
       height="24"
       width="24"
       id="rect3880"
       style="opacity:0.25;fill:none;stroke:none" />
    <path
       inkscape:connector-curvature="0"
       style="opacity:0.375;fill:none;stroke:#000000;stroke-width:2;stroke-linejoin:round;stroke-miterlimit:4;stroke-opacity:1;stroke-dasharray:none"
       d="m 56,-45 c -1.108,0 -2,0.892 -2,2 l 0,1 c -0.554,0 -1,0.446 -1,1 l 0,2 c 0,0.554 0.446,1 1,1 l 0,1 c 0,1.108 0.892,2 2,2 l 16,0 c -1.063654,-0.04915 -1.90625,-0.923774 -1.90625,-2 l 0,-6 c 0,-1.076226 0.842596,-1.950848 1.90625,-2 l -16,0 z m 7,3 7,2 -5,0 0,2 -7,-2 5,0 0,-2 z"
       id="path3950" />
    <path
       id="path3882"
       d="m 56,-45 c -1.108,0 -2,0.892 -2,2 l 0,1 c -0.554,0 -1,0.446 -1,1 l 0,2 c 0,0.554 0.446,1 1,1 l 0,1 c 0,1.108 0.892,2 2,2 l 16,0 c -1.063654,-0.04915 -1.90625,-0.923774 -1.90625,-2 l 0,-6 c 0,-1.076226 0.842596,-1.950848 1.90625,-2 l -16,0 z m 7,3 7,2 -5,0 0,2 -7,-2 5,0 0,-2 z"
       style="fill:#e0e0e0;fill-opacity:1;stroke:none"
       inkscape:connector-curvature="0" />
  </g>
  <g
     id="Fill70"
     transform="translate(0,52)">
    <rect
       style="opacity:0.25;fill:none;stroke:none"
       id="rect3886"
       width="24"
       height="24"
       x="78"
       y="-52" />
    <path
       inkscape:connector-curvature="0"
       style="opacity:0.375;fill:none;stroke:#000000;stroke-width:2;stroke-linejoin:round;stroke-miterlimit:4;stroke-opacity:1;stroke-dasharray:none"
       d="m 82,-45 c -1.108,0 -2,0.892 -2,2 l 0,1 c -0.554,0 -1,0.446 -1,1 l 0,2 c 0,0.554 0.446,1 1,1 l 0,1 c 0,1.108 0.892,2 2,2 l 14.09375,0 c -1.108,0 -2,-0.892 -2,-2 l 0,-3 -3.09375,0 0,2 -7,-2 5,0 0,-2 5.09375,1.46875 0,-2.46875 c 0,-1.108 0.892,-2 2,-2 L 82,-45 z m 12.09375,4.46875 0,0.53125 1.90625,0 -1.90625,-0.53125 z"
       id="path3952" />
    <path
       id="path3888"
       d="m 82,-45 c -1.108,0 -2,0.892 -2,2 l 0,1 c -0.554,0 -1,0.446 -1,1 l 0,2 c 0,0.554 0.446,1 1,1 l 0,1 c 0,1.108 0.892,2 2,2 l 14.09375,0 c -1.108,0 -2,-0.892 -2,-2 l 0,-3 -3.09375,0 0,2 -7,-2 5,0 0,-2 5.09375,1.46875 0,-2.46875 c 0,-1.108 0.892,-2 2,-2 L 82,-45 z m 12.09375,4.46875 0,0.53125 1.90625,0 -1.90625,-0.53125 z"
       style="fill:#e0e0e0;fill-opacity:1;stroke:none"
       inkscape:connector-curvature="0" />
  </g>
  <g
     id="Fill60"
     transform="translate(0,52)">
    <rect
       y="-52"
       x="104"
       height="24"
       width="24"
       id="rect3892"
       style="opacity:0.25;fill:none;stroke:none" />
    <path
       inkscape:connector-curvature="0"
       style="opacity:0.375;fill:none;stroke:#000000;stroke-width:2;stroke-linejoin:round;stroke-miterlimit:4;stroke-opacity:1;stroke-dasharray:none"
       d="m 108,-45 c -1.108,0 -2,0.892 -2,2 l 0,1 c -0.554,0 -1,0.446 -1,1 l 0,2 c 0,0.554 0.446,1 1,1 l 0,1 c 0,1.108 0.892,2 2,2 l 12.09375,0 c -1.108,0 -2,-0.892 -2,-2 l 0,-3 -1.09375,0 0,2 -7,-2 5,0 0,-2 3.09375,0.875 0,-1.875 c 0,-1.108 0.892,-2 2,-2 L 108,-45 z m 10.09375,3.875 0,1.125 3.90625,0 -3.90625,-1.125 z"
       id="path3954" />
    <path
       id="path3894"
       d="m 108,-45 c -1.108,0 -2,0.892 -2,2 l 0,1 c -0.554,0 -1,0.446 -1,1 l 0,2 c 0,0.554 0.446,1 1,1 l 0,1 c 0,1.108 0.892,2 2,2 l 12.09375,0 c -1.108,0 -2,-0.892 -2,-2 l 0,-3 -1.09375,0 0,2 -7,-2 5,0 0,-2 3.09375,0.875 0,-1.875 c 0,-1.108 0.892,-2 2,-2 L 108,-45 z m 10.09375,3.875 0,1.125 3.90625,0 -3.90625,-1.125 z"
       style="fill:#e0e0e0;fill-opacity:1;stroke:none"
       inkscape:connector-curvature="0" />
  </g>
  <g
     id="Fill50"
     transform="translate(0,52)">
    <rect
       style="opacity:0.25;fill:none;stroke:none"
       id="rect3898"
       width="24"
       height="24"
       x="0"
       y="-28" />
    <path
       inkscape:connector-curvature="0"
       style="opacity:0.375;fill:none;stroke:#000000;stroke-width:2;stroke-linejoin:round;stroke-miterlimit:4;stroke-opacity:1;stroke-dasharray:none"
       d="m 4,-21 c -1.108,0 -2,0.892 -2,2 l 0,1 c -0.554,0 -1,0.446 -1,1 l 0,2 c 0,0.554 0.446,1 1,1 l 0,1 c 0,1.108 0.892,2 2,2 l 10.09375,0 c -1.108,0 -2,-0.892 -2,-2 l 0,-1.25 L 6,-16 l 5,0 0,-2 1.09375,0.3125 0,-1.3125 c 0,-1.108 0.892,-2 2,-2 L 4,-21 z m 8.09375,3.3125 0,3.4375 L 13,-14 l 0,-2 5,0 -5.90625,-1.6875 z"
       id="path3956" />
    <path
       id="path3900"
       d="m 4,-21 c -1.108,0 -2,0.892 -2,2 l 0,1 c -0.554,0 -1,0.446 -1,1 l 0,2 c 0,0.554 0.446,1 1,1 l 0,1 c 0,1.108 0.892,2 2,2 l 10.09375,0 c -1.108,0 -2,-0.892 -2,-2 l 0,-1.25 L 6,-16 l 5,0 0,-2 1.09375,0.3125 0,-1.3125 c 0,-1.108 0.892,-2 2,-2 L 4,-21 z m 8.09375,3.3125 0,3.4375 L 13,-14 l 0,-2 5,0 -5.90625,-1.6875 z"
       style="fill:#e0e0e0;fill-opacity:1;stroke:none"
       inkscape:connector-curvature="0" />
  </g>
  <g
     id="Fill40"
     transform="translate(0,52)">
    <rect
       style="opacity:0.25;fill:none;stroke:none"
       id="rect3904"
       width="24"
       height="24"
       x="26"
       y="-28" />
    <path
       inkscape:connector-curvature="0"
       style="opacity:0.375;fill:none;stroke:#000000;stroke-width:2;stroke-linejoin:round;stroke-miterlimit:4;stroke-opacity:1;stroke-dasharray:none"
       d="m 30,-21 c -1.108,0 -2,0.892 -2,2 l 0,1 c -0.554,0 -1,0.446 -1,1 l 0,2 c 0,0.554 0.446,1 1,1 l 0,1 c 0,1.108 0.892,2 2,2 l 8.09375,0 c -1.108,0 -2,-0.892 -2,-2 l 0,-1.84375 L 32,-16 l 4.09375,0 0,-3 c 0,-1.108 0.892,-2 2,-2 L 30,-21 z m 6.09375,5 0,1.15625 L 39,-14 l 0,-2 5,0 -7,-2 0,2 -0.90625,0 z"
       id="path3958" />
    <path
       id="path3906"
       d="m 30,-21 c -1.108,0 -2,0.892 -2,2 l 0,1 c -0.554,0 -1,0.446 -1,1 l 0,2 c 0,0.554 0.446,1 1,1 l 0,1 c 0,1.108 0.892,2 2,2 l 8.09375,0 c -1.108,0 -2,-0.892 -2,-2 l 0,-1.84375 L 32,-16 l 4.09375,0 0,-3 c 0,-1.108 0.892,-2 2,-2 L 30,-21 z m 6.09375,5 0,1.15625 L 39,-14 l 0,-2 5,0 -7,-2 0,2 -0.90625,0 z"
       style="fill:#e0e0e0;fill-opacity:1;stroke:none"
       inkscape:connector-curvature="0" />
  </g>
  <g
     id="Fill30"
     transform="translate(0,52)">
    <rect
       y="-28"
       x="52"
       height="24"
       width="24"
       id="rect3910"
       style="opacity:0.25;fill:none;stroke:none" />
    <path
       inkscape:connector-curvature="0"
       style="opacity:0.375;fill:none;stroke:#000000;stroke-width:2;stroke-linejoin:round;stroke-miterlimit:4;stroke-opacity:1;stroke-dasharray:none"
       d="m 56,-21 c -1.108,0 -2,0.892 -2,2 l 0,1 c -0.554,0 -1,0.446 -1,1 l 0,2 c 0,0.554 0.446,1 1,1 l 0,1 c 0,1.108 0.892,2 2,2 l 6.09375,0 c -1.108,0 -2,-0.892 -2,-2 l 0,-2.40625 L 58,-16 l 2.09375,0 0,-3 c 0,-1.108 0.892,-2 2,-2 L 56,-21 z m 4.09375,5 0,0.59375 L 65,-14 l 0,-2 5,0 -7,-2 0,2 -2.90625,0 z"
       id="path3960" />
    <path
       id="path3912"
       d="m 56,-21 c -1.108,0 -2,0.892 -2,2 l 0,1 c -0.554,0 -1,0.446 -1,1 l 0,2 c 0,0.554 0.446,1 1,1 l 0,1 c 0,1.108 0.892,2 2,2 l 6.09375,0 c -1.108,0 -2,-0.892 -2,-2 l 0,-2.40625 L 58,-16 l 2.09375,0 0,-3 c 0,-1.108 0.892,-2 2,-2 L 56,-21 z m 4.09375,5 0,0.59375 L 65,-14 l 0,-2 5,0 -7,-2 0,2 -2.90625,0 z"
       style="fill:#e0e0e0;fill-opacity:1;stroke:none"
       inkscape:connector-curvature="0" />
  </g>
  <g
     id="Fill20"
     transform="translate(0,52)">
    <rect
       style="opacity:0.25;fill:none;stroke:none"
       id="rect3916"
       width="24"
       height="24"
       x="78"
       y="-28" />
    <path
       inkscape:connector-curvature="0"
       style="opacity:0.375;fill:none;stroke:#000000;stroke-width:2;stroke-linejoin:round;stroke-miterlimit:4;stroke-opacity:1;stroke-dasharray:none"
       d="m 82,-21 c -1.108,0 -2,0.892 -2,2 l 0,1 c -0.554,0 -1,0.446 -1,1 l 0,2 c 0,0.554 0.446,1 1,1 l 0,1 c 0,1.108 0.892,2 2,2 l 4.09375,0 c -1.108,0 -2,-0.892 -2,-2 l 0,-2.96875 L 84,-16 l 0.09375,0 0,-3 c 0,-1.108 0.892,-2 2,-2 L 82,-21 z m 2.09375,5 0,0.03125 L 91,-14 l 0,-2 5,0 -7,-2 0,2 -4.90625,0 z"
       id="path3962" />
    <path
       id="path3918"
       d="m 82,-21 c -1.108,0 -2,0.892 -2,2 l 0,1 c -0.554,0 -1,0.446 -1,1 l 0,2 c 0,0.554 0.446,1 1,1 l 0,1 c 0,1.108 0.892,2 2,2 l 4.09375,0 c -1.108,0 -2,-0.892 -2,-2 l 0,-2.96875 L 84,-16 l 0.09375,0 0,-3 c 0,-1.108 0.892,-2 2,-2 L 82,-21 z m 2.09375,5 0,0.03125 L 91,-14 l 0,-2 5,0 -7,-2 0,2 -4.90625,0 z"
       style="fill:#e0e0e0;fill-opacity:1;stroke:none"
       inkscape:connector-curvature="0" />
  </g>
  <g
     id="Fill10"
     transform="translate(0,52)">
    <rect
       y="-28"
       x="104"
       height="24"
       width="24"
       id="rect3922"
       style="opacity:0.25;fill:none;stroke:none" />
    <path
       inkscape:connector-curvature="0"
       style="opacity:0.375;fill:none;stroke:#000000;stroke-width:2;stroke-linejoin:round;stroke-miterlimit:4;stroke-opacity:1;stroke-dasharray:none"
       d="m 108,-21 c -1.108,0 -2,0.892 -2,2 l 0,1 c -0.554,0 -1,0.446 -1,1 l 0,2 c 0,0.554 0.446,1 1,1 l 0,1 c 0,1.108 0.892,2 2,2 l 2.09375,0 c -1.108,0 -2,-0.892 -2,-2 l 0,-6 c 0,-1.108 0.892,-2 2,-2 L 108,-21 z m 7,3 0,2 -5,0 7,2 0,-2 5,0 -7,-2 z"
       id="path3964" />
    <path
       id="path3924"
       d="m 108,-21 c -1.108,0 -2,0.892 -2,2 l 0,1 c -0.554,0 -1,0.446 -1,1 l 0,2 c 0,0.554 0.446,1 1,1 l 0,1 c 0,1.108 0.892,2 2,2 l 2.09375,0 c -1.108,0 -2,-0.892 -2,-2 l 0,-6 c 0,-1.108 0.892,-2 2,-2 L 108,-21 z m 7,3 0,2 -5,0 7,2 0,-2 5,0 -7,-2 z"
       style="fill:#e0e0e0;fill-opacity:1;stroke:none"
       inkscape:connector-curvature="0" />
  </g>
</svg>
