<?xml version="1.0" encoding="UTF-8" standalone="no"?>
<svg id="svg1966" xmlns:rdf="http://www.w3.org/1999/02/22-rdf-syntax-ns#" xmlns="http://www.w3.org/2000/svg" height="22" width="22" version="1.0" xmlns:cc="http://creativecommons.org/ns#" xmlns:dc="http://purl.org/dc/elements/1.1/">
	<defs id="defs3615">
		<style id="current-color-scheme" type="text/css">.ColorScheme-Text {
            color:#0000FF;
            }
            .ColorScheme-Background{
            color:#E9E8E8;
            }
            .ColorScheme-ViewText {
            color:#31363b;
            }
            .ColorScheme-ViewBackground{
            color:currentColor;
            }
            .ColorScheme-ViewHover {
            color:#000000;
            }
            .ColorScheme-ViewFocus{
            color:#5a5a5a;
            }
            .ColorScheme-ButtonText {
            color:#31363b;
            }
            .ColorScheme-ButtonBackground{
            color:#E9E8E8;
            }
            .ColorScheme-ButtonHover {
            color:#1489ff;
            }
            .ColorScheme-ButtonFocus{
            color:#2B74C7;
            }</style>
	</defs>
	<metadata id="metadata218">
		<rdf:RDF>
			<cc:Work rdf:about="">
				<dc:format>image/svg+xml</dc:format>
				<dc:type rdf:resource="http://purl.org/dc/dcmitype/StillImage"/>
				<dc:title/>
				<dc:creator>
					<cc:Agent>
						<dc:title>obnosim</dc:title>
					</cc:Agent>
				</dc:creator>
				<cc:license rdf:resource="http://creativecommons.org/licenses/by-nc-sa/3.0/"/>
			</cc:Work>
			<cc:License rdf:about="http://creativecommons.org/licenses/by-nc-sa/3.0/">
				<cc:permits rdf:resource="http://creativecommons.org/ns#Reproduction"/>
				<cc:permits rdf:resource="http://creativecommons.org/ns#Distribution"/>
				<cc:requires rdf:resource="http://creativecommons.org/ns#Notice"/>
				<cc:requires rdf:resource="http://creativecommons.org/ns#Attribution"/>
				<cc:prohibits rdf:resource="http://creativecommons.org/ns#CommercialUse"/>
				<cc:permits rdf:resource="http://creativecommons.org/ns#DerivativeWorks"/>
				<cc:requires rdf:resource="http://creativecommons.org/ns#ShareAlike"/>
			</cc:License>
		</rdf:RDF>
	</metadata>
	<g id="22-22-Unavailable" transform="translate(-93,24.838)">
		<rect id="rect3961" style="opacity:.5;fill:none" height="22" width="22" y="-24.838" x="27"/>
		<path id="path3981" style="stroke-linejoin:round;stroke:#ff2020;stroke-linecap:round;fill:none;stroke-width:2" d="m42-17.838-8 8m8 0-8-8"/>
	</g>
	<g id="22-22-Fill90" transform="translate(0,-22)">
		<rect id="rect4181" style="fill:none" height="22" width="22" y="0" x="0"/>
		<path id="rect3376" class="ColorScheme-Text" style="opacity:.875;fill:currentColor" d="m2 6c-.554 0-1 .446-1 1v2c-.554 0-1 .446-1 1v2c0 .554.446 1 1 1v2c0 .554.446 1 1 1h18c.554 0 1-.446 1-1v-1c0 .554-.446 1-1 1s-1-.446-1-1v-6c0-.554.446-1 1-1s1 .446 1 1v-1c0-.554-.446-1-1-1h-18zm7 3 9 2h-6l1 2-9-2h6l-1-2z"/>
	</g>
	<g id="22-22-Fill70" transform="translate(0,-66)">
		<rect id="rect4199" style="fill:none" height="22" width="22" y="0" x="0"/>
		<path id="path4203" class="ColorScheme-Text" style="opacity:.875;fill:currentColor;fill-rule:evenodd" d="m4 11 9 2-1-2h6l-9-2 1 2zm-2-5c-.554 0-1 .446-1 1v2c-.554 0-1 .446-1 1v2c0 .554.446 1 1 1v2c0 .554.446 1 1 1h14c-.554 0-1-.446-1-1v-8c0-.554.446-1 1-1h-14z"/>
	</g>
	<g id="22-22-Fill60" transform="translate(0,-88)">
		<rect id="rect4207" style="fill:none" height="22" width="22" y="0" x="0"/>
		<path id="path4211" class="ColorScheme-Text" style="opacity:.875;fill:currentColor;fill-rule:evenodd" d="m4 11 9 2-1-2h6l-9-2 1 2zm-2-5c-.554 0-1 .446-1 1v2c-.554 0-1 .446-1 1v2c0 .554.446 1 1 1v2c0 .554.446 1 1 1h12c-.554 0-1-.446-1-1v-8c0-.554.446-1 1-1h-12z"/>
	</g>
	<g id="22-22-Fill50" transform="translate(0,-110)">
		<rect id="rect4215" style="fill:none" height="22" width="22" y="0" x="0"/>
		<path id="path4219" class="ColorScheme-Text" style="opacity:.875;fill:currentColor;fill-rule:evenodd" d="m4 11 9 2-1-2h6l-9-2 1 2zm-2-5c-.554 0-1 .446-1 1v2c-.554 0-1 .446-1 1v2c0 .554.446 1 1 1v2c0 .554.446 1 1 1h10c-.554 0-1-.446-1-1v-8c0-.554.446-1 1-1h-10z"/>
	</g>
	<g id="22-22-Fill40" transform="translate(0,-132)">
		<rect id="rect4223" style="fill:none" height="22" width="22" y="0" x="0"/>
		<path id="path4227" class="ColorScheme-Text" style="opacity:.875;fill:currentColor;fill-rule:evenodd" d="m4 11 9 2-1-2h6l-9-2 1 2zm-2-5c-.554 0-1 .446-1 1v2c-.554 0-1 .446-1 1v2c0 .554.446 1 1 1v2c0 .554.446 1 1 1h8c-.554 0-1-.446-1-1v-8c0-.554.446-1 1-1h-8z"/>
	</g>
	<g id="22-22-Fill20" transform="translate(0,-176)">
		<rect id="rect4239" style="fill:none" height="22" width="22" y="0" x="0"/>
		<path id="path4243" class="ColorScheme-Text" style="opacity:.875;fill:currentColor;fill-rule:evenodd" d="m4 11 9 2-1-2h6l-9-2 1 2zm-2-5c-.554 0-1 .446-1 1v2c-.554 0-1 .446-1 1v2c0 .554.446 1 1 1v2c0 .554.446 1 1 1h4c-.554 0-1-.446-1-1v-8c0-.554.446-1 1-1h-4z"/>
	</g>
	<g id="22-22-Fill10" transform="translate(0,-198)">
		<rect id="rect4247" style="fill:none" height="22" width="22" y="0" x="0"/>
		<path id="path4251" class="ColorScheme-Text" style="opacity:.875;fill:currentColor;fill-rule:evenodd" d="m2 6c-.554 0-1 .446-1 1v2c-.554 0-1 .446-1 1v2c0 .554.446 1 1 1v2c0 .554.446 1 1 1h2c-.554 0-1-.446-1-1v-8c0-.554.446-1 1-1h-2zm2 5 9 2-1-2h6l-9-2 1 2z"/>
	</g>
	<g id="22-22-Fill0" transform="translate(0,-220)">
		<rect id="rect4255" style="fill:none" height="22" width="22" y="0" x="0"/>
		<path id="path4259" class="ColorScheme-Text" style="opacity:.875;fill:currentColor;fill-rule:evenodd" d="m1 9c-.554 0-1 .446-1 1v2c0 .554.446 1 1 1v-4zm3 2 9 2-1-2h6l-9-2 1 2z"/>
	</g>
	<g id="22-22-Battery">
		<rect id="rect4263" style="fill:none" height="22" width="22" y="0" x="-33"/>
		<path id="path4265" class="ColorScheme-Text" style="opacity:.187;fill:currentColor" d="m-31 6c-.554 0-1 .446-1 1v2c-.554 0-1 .446-1 1v2c0 .554.446 1 1 1v2c0 .554.446 1 1 1h18c.554 0 1-.446 1-1v-8c0-.554-.446-1-1-1h-18zm7 3 9 2h-6l1 2-9-2h6l-1-2z"/>
	</g>
	<g id="22-22-Fill100" transform="translate(33)">
		<rect id="rect4322" style="fill:none" height="22" width="22" y="0" x="-33"/>
		<path id="path4324" class="ColorScheme-Text" style="opacity:.875;fill:currentColor" d="m-31 6c-.554 0-1 .446-1 1v2c-.554 0-1 .446-1 1v2c0 .554.446 1 1 1v2c0 .554.446 1 1 1h18c.554 0 1-.446 1-1v-8c0-.554-.446-1-1-1h-18zm7 3 9 2h-6l1 2-9-2h6l-1-2z"/>
	</g>
	<g id="22-22-AcAdapter" transform="translate(11)">
		<rect id="rect4366" style="fill:none" height="22" width="22" y="0" x="22"/>
		<path id="rect4359" class="ColorScheme-Text" style="opacity:.875;fill:currentColor;fill-rule:evenodd" d="m24 6h18c.554 0 1 .446 1 1v8c0 .554-.446 1-1 1h-18c-.554 0-1-.446-1-1v-8c0-.554.446-1 1-1zm0-1h18c1.108 0 2 .892 2 2v8c0 1.108-.892 2-2 2h-18c-1.108 0-2-.892-2-2v-8c0-1.108.892-2 2-2z"/>
	</g>
	<g id="22-22-Fill30" transform="translate(0,-154)">
		<rect id="rect4457" style="fill:none" height="22" width="22" y="0" x="0"/>
		<path id="path4459" class="ColorScheme-Text" style="opacity:.875;fill:currentColor;fill-rule:evenodd" d="m4 11 9 2-1-2h6l-9-2 1 2zm-2-5c-.554 0-1 .446-1 1v2c-.554 0-1 .446-1 1v2c0 .554.446 1 1 1v2c0 .554.446 1 1 1h7c-.554 0-1-.446-1-1v-8c0-.554.446-1 1-1z"/>
	</g>
	<g id="22-22-Fill80" transform="translate(0,-45)">
		<rect id="rect4479" style="fill:none" height="22" width="22" y="0" x="0"/>
		<path id="path4481" class="ColorScheme-Text" style="opacity:.875;fill:currentColor;fill-rule:evenodd" d="m4 11 9 2-1-2h6l-9-2 1 2zm-2-5c-.554 0-1 .446-1 1v2c-.554 0-1 .446-1 1v2c0 .554.446 1 1 1v2c0 .554.446 1 1 1h16c-.554 0-1-.446-1-1v-8c0-.554.446-1 1-1z"/>
	</g>
	<g id="32-32-Fill100">
		<rect id="rect3459" style="fill:none" height="32" width="32" y="-10" x="96"/>
		<path id="rect4261" class="ColorScheme-Text" style="opacity:.875;fill:currentColor" d="m101 0c-1.108 0-2 .892-2 2v2h-1c-.554 0-1 .446-1 1v2c0 .554.446 1 1 1h1v2c0 1.108.892 2 2 2h22c1.108 0 2-.892 2-2v-8c0-1.108-.892-2-2-2h-22zm9 3 11 3h-7l1 3-11-3h7l-1-3z"/>
	</g>
	<g id="32-32-Fill90">
		<rect id="rect4270" style="fill:none" height="32" width="32" y="-42" x="96"/>
		<path id="path4276" class="ColorScheme-Text" style="opacity:.875;fill-rule:evenodd;fill:currentColor" d="m104-26 11 3-1-3h7l-11-3 1 3zm-3-6c-1.108 0-2 .892-2 2v2h-1c-.554 0-1 .446-1 1v2c0 .554.446 1 1 1h1v2c0 1.108.892 2 2 2h22c1.108 0 2-.892 2-2 0 .554-.446 1-1 1s-1-.446-1-1v-8c0-.554.446-1 1-1s1 .446 1 1c0-1.108-.892-2-2-2h-22z"/>
	</g>
	<g id="32-32-Battery">
		<rect id="rect4278" style="fill:none" height="32" width="32" y="-10" x="64"/>
		<path id="rect4280" class="ColorScheme-Text" style="opacity:0.187;fill:currentColor" d="m69 0c-1.108 0-2 .892-2 2v2h-1c-.554 0-1 .446-1 1v2c0 .554.446 1 1 1h1v2c0 1.108.892 2 2 2h22c1.108 0 2-.892 2-2v-8c0-1.108-.892-2-2-2h-22zm9 3 11 3h-7l1 3-11-3h7l-1-3z"/>
	</g>
	<g id="32-32-Fill80">
		<rect id="rect4288" style="fill:none" height="32" width="32" y="-74" x="96"/>
		<path id="path4294" class="ColorScheme-Text" style="opacity:.875;fill-rule:evenodd;fill:currentColor" d="m104-58 11 3-1-3h7l-11-3 1 3zm-3-6c-1.108 0-2 .892-2 2v2h-1c-.554 0-1 .446-1 1v2c0 .554.446 1 1 1h1v2c0 1.108.892 2 2 2h21c-1.108 0-2-.892-2-2v-8c0-1.108.892-2 2-2h-21z"/>
	</g>
	<g id="32-32-Fill70">
		<rect id="rect4296" style="fill:none" height="32" width="32" y="-106" x="96"/>
		<path id="path4302" class="ColorScheme-Text" style="opacity:.875;fill-rule:evenodd;fill:currentColor" d="m104-90 11 3-1-3h7l-11-3 1 3zm-3-6c-1.108 0-2 .892-2 2v2h-1c-.554 0-1 .446-1 1v2c0 .554.446 1 1 1h1v2c0 1.108.892 2 2 2h18c-1.108 0-2-.892-2-2v-8c0-1.108.892-2 2-2h-18z"/>
	</g>
	<g id="32-32-Fill60">
		<rect id="rect4304" style="fill:none" height="32" width="32" y="-138" x="96"/>
		<path id="path4310" class="ColorScheme-Text" style="opacity:.875;fill-rule:evenodd;fill:currentColor" d="m104-122 11 3-1-3h7l-11-3 1 3zm-3-6c-1.108 0-2 .892-2 2v2h-1c-.554 0-1 .446-1 1v2c0 .554.446 1 1 1h1v2c0 1.108.892 2 2 2h15c-1.108 0-2-.892-2-2v-8c0-1.108.892-2 2-2h-15z"/>
	</g>
	<g id="32-32-Fill50">
		<rect id="rect4312" style="fill:none" height="32" width="32" y="-170" x="96"/>
		<path id="path4318" class="ColorScheme-Text" style="opacity:.875;fill-rule:evenodd;fill:currentColor" d="m104-154 11 3-1-3h7l-11-3 1 3zm-3-6c-1.108 0-2 .892-2 2v2h-1c-.554 0-1 .446-1 1v2c0 .554.446 1 1 1h1v2c0 1.108.892 2 2 2h12c-1.108 0-2-.892-2-2v-8c0-1.108.892-2 2-2h-12z"/>
	</g>
	<g id="32-32-Fill40">
		<rect id="rect4320" style="fill:none" height="32" width="32" y="-202" x="96"/>
		<path id="path4327" class="ColorScheme-Text" style="opacity:.875;fill-rule:evenodd;fill:currentColor" d="m104-186 11 3-1-3h7l-11-3 1 3zm-3-6c-1.108 0-2 .892-2 2v2h-1c-.554 0-1 .446-1 1v2c0 .554.446 1 1 1h1v2c0 1.108.892 2 2 2h9c-1.108 0-2-.892-2-2v-8c0-1.108.892-2 2-2h-9z"/>
	</g>
	<g id="32-32-Fill30">
		<rect id="rect4329" style="fill:none" height="32" width="32" y="-234" x="96"/>
		<path id="path4335" class="ColorScheme-Text" style="opacity:.875;fill-rule:evenodd;fill:currentColor" d="m104-218 11 3-1-3h7l-11-3 1 3zm-3-6c-1.108 0-2 .892-2 2v2h-1c-.554 0-1 .446-1 1v2c0 .554.446 1 1 1h1v2c0 1.108.892 2 2 2h6c-1.108 0-2-.892-2-2v-8c0-1.108.892-2 2-2h-6z"/>
	</g>
	<g id="32-32-Fill20">
		<rect id="rect4337" style="fill:none" height="32" width="32" y="-266" x="96"/>
		<path id="path4343" class="ColorScheme-Text" style="opacity:.875;fill-rule:evenodd;fill:currentColor" d="m104-250 11 3-1-3h7l-11-3 1 3zm-3-6c-1.108 0-2 .892-2 2v2h-1c-.554 0-1 .446-1 1v2c0 .554.446 1 1 1h1v2c0 1.108.892 2 2 2h3c-1.108 0-2-.892-2-2v-8c0-1.108.892-2 2-2h-3z"/>
	</g>
	<g id="32-32-Fill0">
		<rect id="rect4353" style="fill:none" height="32" width="32" y="-330" x="96"/>
		<path id="path4359" class="ColorScheme-Text" style="opacity:.875;fill-rule:evenodd;fill:currentColor" d="m104-314 11 3-1-3h7l-11-3 1 3zm-6-2c-.554 0-1 .446-1 1v2c0 .554.446 1 1 1h1v-4h-1z"/>
	</g>
	<g id="32-32-Fill10">
		<rect id="rect4345" style="fill:none" height="32" width="32" y="-298" x="96"/>
		<path id="rect4398" class="ColorScheme-Text" style="opacity:.875;fill-rule:evenodd;fill:currentColor" d="m100-287c-.554 0-1 .446-1 1v2h-1c-.554 0-1 .446-1 1v2c0 .554.446 1 1 1h1v2c0 .554.446 1 1 1s1-.446 1-1v-8c0-.554-.446-1-1-1zm4 5 11 3-1-3h7l-11-3 1 3z"/>
	</g>
	<g id="32-32-AcAdapter">
		<rect id="rect4428" style="fill:none" height="32" width="32" y="-10" x="128"/>
		<rect id="rect4501" class="ColorScheme-Text" style="opacity:.875;stroke:currentColor;stroke-width:2;fill:none" ry="3" height="14" width="28" y="-1" x="130"/>
	</g>
	<g id="32-32-Unavailable">
		<rect id="rect4511" style="fill:none" transform="translate(64)" height="32" width="32" y="-10" x="96"/>
		<path id="path4515" class="ColorScheme-Text" d="m171 1 10 10m0-10-10 10" style="stroke-linejoin:round;stroke-dashoffset:1;stroke:#ff2020;stroke-linecap:round;stroke-width:2;fill:none"/>
	</g>
</svg>
