<?xml version="1.0" encoding="UTF-8" standalone="no"?>
<svg id="svg1966" xmlns:rdf="http://www.w3.org/1999/02/22-rdf-syntax-ns#" xmlns="http://www.w3.org/2000/svg" height="22" width="22" version="1.0" xmlns:cc="http://creativecommons.org/ns#" xmlns:dc="http://purl.org/dc/elements/1.1/">
	<defs id="defs3615">
		<style id="current-color-scheme" type="text/css">.ColorScheme-Text {
            color:#0000FF;
            }
            .ColorScheme-Background{
            color:#E9E8E8;
            }
            .ColorScheme-ViewText {
            color:#31363b;
            }
            .ColorScheme-ViewBackground{
            color:currentColor;
            }
            .ColorScheme-ViewHover {
            color:#000000;
            }
            .ColorScheme-ViewFocus{
            color:#5a5a5a;
            }
            .ColorScheme-ButtonText {
            color:#31363b;
            }
            .ColorScheme-ButtonBackground{
            color:#E9E8E8;
            }
            .ColorScheme-ButtonHover {
            color:#1489ff;
            }
            .ColorScheme-ButtonFocus{
            color:#2B74C7;
            }</style>
	</defs>
	<metadata id="metadata218">
		<rdf:RDF>
			<cc:Work rdf:about="">
				<dc:format>image/svg+xml</dc:format>
				<dc:type rdf:resource="http://purl.org/dc/dcmitype/StillImage"/>
				<dc:title/>
				<dc:creator>
					<cc:Agent>
						<dc:title>obnosim</dc:title>
					</cc:Agent>
				</dc:creator>
				<cc:license rdf:resource="http://creativecommons.org/licenses/by-nc-sa/3.0/"/>
			</cc:Work>
			<cc:License rdf:about="http://creativecommons.org/licenses/by-nc-sa/3.0/">
				<cc:permits rdf:resource="http://creativecommons.org/ns#Reproduction"/>
				<cc:permits rdf:resource="http://creativecommons.org/ns#Distribution"/>
				<cc:requires rdf:resource="http://creativecommons.org/ns#Notice"/>
				<cc:requires rdf:resource="http://creativecommons.org/ns#Attribution"/>
				<cc:prohibits rdf:resource="http://creativecommons.org/ns#CommercialUse"/>
				<cc:permits rdf:resource="http://creativecommons.org/ns#DerivativeWorks"/>
				<cc:requires rdf:resource="http://creativecommons.org/ns#ShareAlike"/>
			</cc:License>
		</rdf:RDF>
	</metadata>
	<g id="Unavailable" transform="translate(-93,24.838)">
		<rect id="rect3961" style="opacity:.5;fill:none" height="22" width="22" y="-24.838" x="27"/>
		<path id="path3981" style="stroke-linejoin:round;stroke:#ff2020;stroke-linecap:round;stroke-width:2;fill:none" d="m42-17.838-8 8m8 0-8-8"/>
	</g>
	<g id="Fill90" transform="translate(0,-22)">
		<rect id="rect4181" style="fill:none" height="22" width="22" y="0" x="0"/>
		<path id="rect3376" style="opacity:.875;fill:currentColor" d="m2 6c-.554 0-1 .446-1 1v2c-.554 0-1 .446-1 1v2c0 .554.446 1 1 1v2c0 .554.446 1 1 1h18c.554 0 1-.446 1-1v-1c0 .554-.446 1-1 1s-1-.446-1-1v-6c0-.554.446-1 1-1s1 .446 1 1v-1c0-.554-.446-1-1-1h-18zm7 3 9 2h-6l1 2-9-2h6l-1-2z" class="ColorScheme-Text"/>
	</g>
	<rect id="rect4191" style="fill:none" height="22" width="22" y="-44" x="0"/>
	<g id="Fill70" transform="translate(0,-66)">
		<rect id="rect4199" style="fill:none" height="22" width="22" y="0" x="0"/>
		<path id="path4203" style="opacity:.875;fill-rule:evenodd;fill:currentColor" d="m4 11 9 2-1-2h6l-9-2 1 2zm-2-5c-.554 0-1 .446-1 1v2c-.554 0-1 .446-1 1v2c0 .554.446 1 1 1v2c0 .554.446 1 1 1h14c-.554 0-1-.446-1-1v-8c0-.554.446-1 1-1h-14z" class="ColorScheme-Text"/>
	</g>
	<g id="Fill60" transform="translate(0,-88)">
		<rect id="rect4207" style="fill:none" height="22" width="22" y="0" x="0"/>
		<path id="path4211" style="opacity:.875;fill-rule:evenodd;fill:currentColor" d="m4 11 9 2-1-2h6l-9-2 1 2zm-2-5c-.554 0-1 .446-1 1v2c-.554 0-1 .446-1 1v2c0 .554.446 1 1 1v2c0 .554.446 1 1 1h12c-.554 0-1-.446-1-1v-8c0-.554.446-1 1-1h-12z" class="ColorScheme-Text"/>
	</g>
	<g id="Fill50" transform="translate(0,-110)">
		<rect id="rect4215" style="fill:none" height="22" width="22" y="0" x="0"/>
		<path id="path4219" style="opacity:.875;fill-rule:evenodd;fill:currentColor" d="m4 11 9 2-1-2h6l-9-2 1 2zm-2-5c-.554 0-1 .446-1 1v2c-.554 0-1 .446-1 1v2c0 .554.446 1 1 1v2c0 .554.446 1 1 1h10c-.554 0-1-.446-1-1v-8c0-.554.446-1 1-1h-10z" class="ColorScheme-Text"/>
	</g>
	<g id="Fill40" transform="translate(0,-132)">
		<rect id="rect4223" style="fill:none" height="22" width="22" y="0" x="0"/>
		<path id="path4227" style="opacity:.875;fill-rule:evenodd;fill:currentColor" d="m4 11 9 2-1-2h6l-9-2 1 2zm-2-5c-.554 0-1 .446-1 1v2c-.554 0-1 .446-1 1v2c0 .554.446 1 1 1v2c0 .554.446 1 1 1h8c-.554 0-1-.446-1-1v-8c0-.554.446-1 1-1h-8z" class="ColorScheme-Text"/>
	</g>
	<g id="Fill20" transform="translate(0,-176)">
		<rect id="rect4239" style="fill:none" height="22" width="22" y="0" x="0"/>
		<path id="path4243" style="opacity:.875;fill-rule:evenodd;fill:currentColor" d="m4 11 9 2-1-2h6l-9-2 1 2zm-2-5c-.554 0-1 .446-1 1v2c-.554 0-1 .446-1 1v2c0 .554.446 1 1 1v2c0 .554.446 1 1 1h4c-.554 0-1-.446-1-1v-8c0-.554.446-1 1-1h-4z" class="ColorScheme-Text"/>
	</g>
	<g id="Fill10" transform="translate(0,-198)">
		<rect id="rect4247" style="fill:none" height="22" width="22" y="0" x="0"/>
		<path id="path4251" style="opacity:.875;fill-rule:evenodd;fill:currentColor" d="m2 6c-.554 0-1 .446-1 1v2c-.554 0-1 .446-1 1v2c0 .554.446 1 1 1v2c0 .554.446 1 1 1h2c-.554 0-1-.446-1-1v-8c0-.554.446-1 1-1h-2zm2 5 9 2-1-2h6l-9-2 1 2z" class="ColorScheme-Text"/>
	</g>
	<g id="Fill0" transform="translate(0,-220)">
		<rect id="rect4255" style="fill:none" height="22" width="22" y="0" x="0"/>
		<path id="path4259" style="opacity:.875;fill-rule:evenodd;fill:currentColor" d="m1 9c-.554 0-1 .446-1 1v2c0 .554.446 1 1 1v-4zm3 2 9 2-1-2h6l-9-2 1 2z" class="ColorScheme-Text"/>
	</g>
	<g id="Battery">
		<rect id="rect4263" style="fill:none" height="22" width="22" y="0" x="-33"/>
		<path id="path4265" style="opacity:0.187;fill:currentColor" d="m-31 6c-.554 0-1 .446-1 1v2c-.554 0-1 .446-1 1v2c0 .554.446 1 1 1v2c0 .554.446 1 1 1h18c.554 0 1-.446 1-1v-8c0-.554-.446-1-1-1h-18zm7 3 9 2h-6l1 2-9-2h6l-1-2z" class="ColorScheme-Text"/>
	</g>
	<g id="Fill100" transform="translate(33)">
		<rect id="rect4322" style="fill:none" height="22" width="22" y="0" x="-33"/>
		<path id="path4324" d="m-31 6c-.554 0-1 .446-1 1v2c-.554 0-1 .446-1 1v2c0 .554.446 1 1 1v2c0 .554.446 1 1 1h18c.554 0 1-.446 1-1v-8c0-.554-.446-1-1-1h-18zm7 3 9 2h-6l1 2-9-2h6l-1-2z" style="opacity:.875;fill:currentColor" class="ColorScheme-Text"/>
	</g>
	<g id="AcAdapter" transform="translate(11)">
		<path id="rect4359" style="fill-rule:evenodd;fill:currentColor" d="m24 6h18c.554 0 1 .446 1 1v8c0 .554-.446 1-1 1h-18c-.554 0-1-.446-1-1v-8c0-.554.446-1 1-1zm0-1h18c1.108 0 2 .892 2 2v8c0 1.108-.892 2-2 2h-18c-1.108 0-2-.892-2-2v-8c0-1.108.892-2 2-2z" class="ColorScheme-Text"/>
		<rect id="rect4366" style="fill:none" height="22" width="22" y="0" x="22"/>
	</g>
	<g id="Fill30" transform="translate(0,-154)">
		<rect id="rect4457" style="fill:none" height="22" width="22" y="0" x="0"/>
		<path id="path4459" style="opacity:.875;fill-rule:evenodd;fill:currentColor" d="m4 11 9 2-1-2h6l-9-2 1 2zm-2-5c-.554 0-1 .446-1 1v2c-.554 0-1 .446-1 1v2c0 .554.446 1 1 1v2c0 .554.446 1 1 1h7c-.554 0-1-.446-1-1v-8c0-.554.446-1 1-1z" class="ColorScheme-Text"/>
	</g>
	<g id="Fill80" transform="translate(0,-45)">
		<rect id="rect4479" style="fill:none" height="22" width="22" y="0" x="0"/>
		<path id="path4481" style="opacity:.875;fill-rule:evenodd;fill:currentColor" d="m4 11 9 2-1-2h6l-9-2 1 2zm-2-5c-.554 0-1 .446-1 1v2c-.554 0-1 .446-1 1v2c0 .554.446 1 1 1v2c0 .554.446 1 1 1h16c-.554 0-1-.446-1-1v-8c0-.554.446-1 1-1z" class="ColorScheme-Text"/>
	</g>
</svg>
