<?xml version="1.0" encoding="UTF-8" standalone="no"?>
<svg id="svg1966" xmlns:rdf="http://www.w3.org/1999/02/22-rdf-syntax-ns#" xmlns="http://www.w3.org/2000/svg" height="22" width="22" version="1.0" xmlns:cc="http://creativecommons.org/ns#" xmlns:dc="http://purl.org/dc/elements/1.1/">
    <defs id="defs3615">
        <style id="current-color-scheme" type="text/css">
            .ColorScheme-Text {
            color:#0000FF;
            }
            .ColorScheme-Background{
            color:#E9E8E8;
            }
            .ColorScheme-ViewText {
            color:#31363b;
            }
            .ColorScheme-ViewBackground{
            color:#ffffff;
            }
            .ColorScheme-ViewHover {
            color:#000000;
            }
            .ColorScheme-ViewFocus{
            color:#5a5a5a;
            }
            .ColorScheme-ButtonText {
            color:#31363b;
            }
            .ColorScheme-ButtonBackground{
            color:#E9E8E8;
            }
            .ColorScheme-ButtonHover {
            color:#1489ff;
            }
            .ColorScheme-ButtonFocus{
            color:#2B74C7;
            }
        </style>
    </defs>
	<metadata id="metadata218">
		<rdf:RDF>
			<cc:Work rdf:about="">
				<dc:format>image/svg+xml</dc:format>
				<dc:type rdf:resource="http://purl.org/dc/dcmitype/StillImage"/>
				<dc:title/>
				<dc:creator>
					<cc:Agent>
						<dc:title>obnosim</dc:title>
					</cc:Agent>
				</dc:creator>
				<cc:license rdf:resource="http://creativecommons.org/licenses/by-nc-sa/3.0/"/>
			</cc:Work>
			<cc:License rdf:about="http://creativecommons.org/licenses/by-nc-sa/3.0/">
				<cc:permits rdf:resource="http://creativecommons.org/ns#Reproduction"/>
				<cc:permits rdf:resource="http://creativecommons.org/ns#Distribution"/>
				<cc:requires rdf:resource="http://creativecommons.org/ns#Notice"/>
				<cc:requires rdf:resource="http://creativecommons.org/ns#Attribution"/>
				<cc:prohibits rdf:resource="http://creativecommons.org/ns#CommercialUse"/>
				<cc:permits rdf:resource="http://creativecommons.org/ns#DerivativeWorks"/>
				<cc:requires rdf:resource="http://creativecommons.org/ns#ShareAlike"/>
			</cc:License>
		</rdf:RDF>
	</metadata>
	<g id="Battery" transform="translate(-27 -1.1618)">
		<rect id="rect3925" style="opacity:.25;fill:none" height="22" width="22" y="1.1618" x="1"/>
		<path id="path3910" style="opacity:0.188;fill:currentColor" d="m-22 7c-1.108 0-2 .892-2 2v1c-.554 0-1 .446-1 1v2c0 .554.446 1 1 1v1c0 1.108.892 2 2 2h16c1.108 0 2-.892 2-2v-6c0-1.108-.892-2-2-2h-16zm7 3 7 2h-5v2l-7-2h5v-2z" transform="translate(26 .16176)" class="ColorScheme-Text"/>
	</g>
	<g id="Unavailable" transform="translate(-104 24.838)">
		<rect id="rect3961" style="opacity:.5;fill:none" height="22" width="22" y="-24.838" x="27"/>
		<path id="path3983" d="m42-15.838-7-7" style="stroke-linejoin:round;stroke:#fd0000;stroke-linecap:round;stroke-width:2;fill:none"/>
		<path id="path3981" style="stroke-linejoin:round;stroke:#fd0000;stroke-linecap:round;stroke-width:2;fill:none" d="m42-22.838-7 7"/>
	</g>
	<g id="AcAdapter" transform="translate(-4,27)">
		<rect id="rect3080" style="fill:none" height="22" width="22" y="-27" x="-51"/>
		<path id="path3082" d="m-48-22.006c-1.662 0-3 1.338-3 3v6c0 1.662 1.338 3 3 3h16c1.662 0 3-1.338 3-3v-6c0-1.662-1.338-3-3-3zm0 1.0995h16c1.108 0 1.9.79249 1.9 1.9005v6c0 1.108-.792 1.8995-1.9 1.8995h-16c-1.108 0-1.9-.79151-1.9-1.8995v-6c0-1.108 0.792-1.9005 1.9-1.9005z" style="fill:currentColor;opacity:.875" class="ColorScheme-Text"/>
	</g>
	<g id="Fill100" transform="translate(-1,51)">
		<rect id="rect3868" style="opacity:.25;fill:none" height="22" width="22" y="-51" x="1"/>
		<path id="path3870" style="fill:currentColor;opacity:.875" class="ColorScheme-Text" d="m4-45c-1.108 0-2 .892-2 2v1c-.554 0-1 .446-1 1v2c0 .554.446 1 1 1v1c0 1.108.892 2 2 2h16c1.108 0 2-.892 2-2v-6c0-1.108-.892-2-2-2h-16zm7 3 7 2h-5v2l-7-2h5v-2z"/>
	</g>
	<g id="Fill90" transform="translate(-5,51)">
		<rect id="rect3874" style="opacity:.25;fill:none" height="22" width="22" y="-51" x="27"/>
		<path id="path3876" style="fill:currentColor;opacity:.875" class="ColorScheme-Text" d="m30-45c-1.108 0-2 .892-2 2v1c-.554 0-1 .446-1 1v2c0 .554.446 1 1 1v1c0 1.108.892 2 2 2h16c1.108 0 2-.892 2-2 0 .554-.446 1-1 1s-1-.446-1-1v-6c0-.554.446-1 1-1s1 .446 1 1c0-1.108-.892-2-2-2h-16zm7 3 7 2h-5v2l-7-2h5v-2z"/>
	</g>
	<g id="Fill80" transform="translate(-9,51)">
		<rect id="rect3880" style="opacity:.25;fill:none" height="22" width="22" y="-51" x="53"/>
		<path id="path3882" style="fill:currentColor;opacity:.875" class="ColorScheme-Text" d="m56-45c-1.108 0-2 .892-2 2v1c-.554 0-1 .446-1 1v2c0 .554.446 1 1 1v1c0 1.108.892 2 2 2h16c-1.0637-.04915-1.9062-.92377-1.9062-2v-6c0-1.0762.84260-1.9508 1.9062-2h-16zm7 3 7 2h-5v2l-7-2h5v-2z"/>
	</g>
	<g id="Fill70" transform="translate(-13,51)">
		<rect id="rect3886" style="opacity:.25;fill:none" height="22" width="22" y="-51" x="79"/>
		<path id="path3888" style="fill:currentColor;opacity:.875" class="ColorScheme-Text" d="m82-45c-1.108 0-2 .892-2 2v1c-.554 0-1 .446-1 1v2c0 .554.446 1 1 1v1c0 1.108.892 2 2 2h14.094c-1.108 0-2-.892-2-2v-3h-3.0938v2l-7-2h5v-2l5.0938 1.4688v-2.4688c0-1.108.892-2 2-2h-14.094zm12.094 4.4688v.53125h1.9062l-1.9062-.53125z"/>
	</g>
	<g id="Fill60" transform="translate(-17,51)">
		<rect id="rect3892" style="opacity:.25;fill:none" height="22" width="22" y="-51" x="105"/>
		<path id="path3894" style="fill:currentColor;opacity:.875" class="ColorScheme-Text" d="m108-45c-1.108 0-2 .892-2 2v1c-.554 0-1 .446-1 1v2c0 .554.446 1 1 1v1c0 1.108.892 2 2 2h12.094c-1.108 0-2-.892-2-2v-3h-1.0938v2l-7-2h5v-2l3.0938.875v-1.875c0-1.108.892-2 2-2h-12.09zm10.094 3.875v1.125h3.9062l-3.9062-1.125z"/>
	</g>
	<g id="Fill50" transform="translate(109,27)">
		<rect id="rect3898" style="opacity:.25;fill:none" height="22" width="22" y="-27" x="1"/>
		<path id="path3900" style="fill:currentColor;opacity:.875" class="ColorScheme-Text" d="m4-21c-1.108 0-2 .892-2 2v1c-.554 0-1 .446-1 1v2c0 .554.446 1 1 1v1c0 1.108.892 2 2 2h10.094c-1.108 0-2-.892-2-2v-1.25l-6.094-1.75h5v-2l1.0938.3125v-1.3125c0-1.108.892-2 2-2h-10.094zm8.0938 3.3125v3.4375l.906.250v-2h5l-5.9062-1.6875z"/>
	</g>
	<g id="Fill40" transform="translate(105,27)">
		<rect id="rect3904" style="opacity:.25;fill:none" height="22" width="22" y="-27" x="27"/>
		<path id="path3906" style="fill:currentColor;opacity:.875" class="ColorScheme-Text" d="m30-21c-1.108 0-2 .892-2 2v1c-.554 0-1 .446-1 1v2c0 .554.446 1 1 1v1c0 1.108.892 2 2 2h8.0938c-1.108 0-2-.892-2-2v-1.8438l-4.094-1.156h4.0938v-3c0-1.108.892-2 2-2h-8.094zm6.0938 5v1.1562l2.906.844v-2h5l-7-2v2h-.90625z"/>
	</g>
	<g id="Fill30" transform="translate(101,27)">
		<rect id="rect3910" style="opacity:.25;fill:none" height="22" width="22" y="-27" x="53"/>
		<path id="path3912" style="fill:currentColor;opacity:.875" class="ColorScheme-Text" d="m56-21c-1.108 0-2 .892-2 2v1c-.554 0-1 .446-1 1v2c0 .554.446 1 1 1v1c0 1.108.892 2 2 2h6.0938c-1.108 0-2-.892-2-2v-2.4062l-2.094-.594h2.0938v-3c0-1.108.892-2 2-2h-6.094zm4.0938 5v.59375l4.906 1.406v-2h5l-7-2v2h-2.9062z"/>
	</g>
	<g id="Fill20" transform="translate(97,27)">
		<rect id="rect3916" style="opacity:.25;fill:none" height="22" width="22" y="-27" x="79"/>
		<path id="path3918" style="fill:currentColor;opacity:.875" class="ColorScheme-Text" d="m82-21c-1.108 0-2 .892-2 2v1c-.554 0-1 .446-1 1v2c0 .554.446 1 1 1v1c0 1.108.892 2 2 2h4.0938c-1.108 0-2-.892-2-2v-2.9688l-.094-.031h.09375v-3c0-1.108.892-2 2-2h-4.094zm2.0938 5v.03125l6.906 1.969v-2h5l-7-2v2h-4.9062z"/>
	</g>
	<g id="Fill10" transform="translate(93,27)">
		<rect id="rect3922" style="opacity:.25;fill:none" height="22" width="22" y="-27" x="105"/>
		<path id="path3924" style="fill:currentColor;opacity:.875" class="ColorScheme-Text" d="m108-21c-1.108 0-2 .892-2 2v1c-.554 0-1 .446-1 1v2c0 .554.446 1 1 1v1c0 1.108.892 2 2 2h2.0938c-1.108 0-2-.892-2-2v-6c0-1.108.892-2 2-2h-2.09zm7 3v2h-5l7 2v-2h5l-7-2z"/>
	</g>
</svg>
