<?xml version="1.0" encoding="UTF-8" standalone="no"?>
<!-- Created with Inkscape (http://www.inkscape.org/) -->

<svg
   xmlns:dc="http://purl.org/dc/elements/1.1/"
   xmlns:cc="http://creativecommons.org/ns#"
   xmlns:rdf="http://www.w3.org/1999/02/22-rdf-syntax-ns#"
   xmlns:svg="http://www.w3.org/2000/svg"
   xmlns="http://www.w3.org/2000/svg"
   xmlns:sodipodi="http://sodipodi.sourceforge.net/DTD/sodipodi-0.dtd"
   xmlns:inkscape="http://www.inkscape.org/namespaces/inkscape"
   version="1.1"
   width="24.000078"
   height="24.002201"
   id="svg2"
   inkscape:version="0.91 r13725"
   sodipodi:docname="clementine.svg">
  <sodipodi:namedview
     pagecolor="#323232"
     bordercolor="#666666"
     borderopacity="1"
     objecttolerance="10"
     gridtolerance="10"
     guidetolerance="10"
     inkscape:pageopacity="1"
     inkscape:pageshadow="2"
     inkscape:window-width="1920"
     inkscape:window-height="1056"
     id="namedview10"
     showgrid="false"
     inkscape:showpageshadow="false"
     inkscape:zoom="22.627417"
     inkscape:cx="18.583191"
     inkscape:cy="9.9948521"
     inkscape:window-x="0"
     inkscape:window-y="-3"
     inkscape:window-maximized="1"
     inkscape:current-layer="svg2"
     showborder="true"
     showguides="false">
    <inkscape:grid
       type="xygrid"
       id="grid2987"
       empspacing="4"
       visible="true"
       enabled="true"
       snapvisiblegridlinesonly="true" />
  </sodipodi:namedview>
  <metadata
     id="metadata16">
    <rdf:RDF>
      <cc:Work
         rdf:about="">
        <dc:format>image/svg+xml</dc:format>
        <dc:type
           rdf:resource="http://purl.org/dc/dcmitype/StillImage" />
        <dc:title />
        <dc:creator>
          <cc:Agent>
            <dc:title>obnosim</dc:title>
          </cc:Agent>
        </dc:creator>
        <cc:license
           rdf:resource="http://creativecommons.org/licenses/by-nc-sa/3.0/" />
      </cc:Work>
      <cc:License
         rdf:about="http://creativecommons.org/licenses/by-nc-sa/3.0/">
        <cc:permits
           rdf:resource="http://creativecommons.org/ns#Reproduction" />
        <cc:permits
           rdf:resource="http://creativecommons.org/ns#Distribution" />
        <cc:requires
           rdf:resource="http://creativecommons.org/ns#Notice" />
        <cc:requires
           rdf:resource="http://creativecommons.org/ns#Attribution" />
        <cc:prohibits
           rdf:resource="http://creativecommons.org/ns#CommercialUse" />
        <cc:permits
           rdf:resource="http://creativecommons.org/ns#DerivativeWorks" />
        <cc:requires
           rdf:resource="http://creativecommons.org/ns#ShareAlike" />
      </cc:License>
    </rdf:RDF>
  </metadata>
  <defs
     id="defs4" />
  <g
     id="clementine">
    <path
       sodipodi:nodetypes="csccscc"
       inkscape:connector-curvature="0"
       style="opacity:0.375;fill:#000000;fill-opacity:1;fill-rule:nonzero;stroke:#000000;stroke-width:2;stroke-linecap:round;stroke-linejoin:round;stroke-miterlimit:4;stroke-dasharray:none;stroke-dashoffset:0.2;stroke-opacity:1"
       d="m 21.137002,18.865198 c 4,-4 -4,-4 -8,-8 C 9.89656,7.6247565 9.282157,1.7291029 7.0198148,1.777308 5,2.0022011 4,3.0022011 2.6037992,5.5605111 0.8356887,8.2975816 -0.41252428,15.315672 4.1370023,19.865198 c 4.5495265,4.549527 11.5676167,3.301314 14.3046877,1.533203 1.6949,-1.08428 2.695312,-2.533203 2.695312,-2.533203 z"
       id="path4155" />
    <rect
       y="0.0022010803"
       x="0"
       height="24"
       width="24"
       id="rect3785"
       style="opacity:1;fill:none;stroke:none" />
    <path
       id="path3340"
       d="M 6.8828125,1.9140625 C 6.3607336,1.9251868 5.75,2.2519531 5,3.0019531 c -2,2 -4,9.9999999 1,14.9999999 5,5 13,3 15,1 4,-4 -4,-4 -8,-8 C 9.759558,7.7615111 9.145154,1.8658574 6.8828125,1.9140625 Z M 2.4667969,5.6972656 C 0.6986865,8.4343361 -0.54952653,15.452427 4,20.001953 c 4.5495265,4.549527 11.567617,3.301314 14.304688,1.533203 -1.08635,0.32197 -2.313012,0.534244 -3.636719,0.591797 C 11.586874,22.260914 8.0286708,21.444687 5.2929688,18.708984 2.5572665,15.973282 1.7410394,12.415079 1.875,9.3339844 1.9325525,8.0102773 2.1448274,6.7836152 2.4667969,5.6972656 Z M 9.632813,9.7226562 C 10.398174,9.6837175 11.266,10.038258 11.65625,10.630859 10.810562,11.054975 9.444163,10.688573 8.9238281,9.8984375 9.135252,9.7924109 9.377692,9.7356359 9.632813,9.7226562 Z M 12,12.001953 c -0.05555,0.944445 -1.055555,1.944445 -2,2 0.05556,-0.944445 1.055555,-1.944445 2,-2 z m 1.359375,0.386719 c 0.790139,0.52033 1.156532,1.886731 0.732422,2.732422 -0.790134,-0.52034 -1.156532,-1.886732 -0.732422,-2.732422 z"
       style="opacity:1;fill:#e0e0e0;fill-opacity:1;fill-rule:nonzero;stroke:none;stroke-width:4;stroke-linecap:round;stroke-linejoin:round;stroke-miterlimit:4;stroke-dasharray:none;stroke-dashoffset:0.2;stroke-opacity:1"
       inkscape:connector-curvature="0" />
  </g>
</svg>
