<?xml version="1.0" encoding="UTF-8" standalone="no"?>
<svg id="svg" xmlns:rdf="http://www.w3.org/1999/02/22-rdf-syntax-ns#" xmlns="http://www.w3.org/2000/svg" height="22" viewBox="0 0 22 21.99991" width="22" version="1.1" xmlns:cc="http://creativecommons.org/ns#" xmlns:dc="http://purl.org/dc/elements/1.1/">
	<defs id="defs3615">
		<style id="current-color-scheme" type="text/css">.ColorScheme-Text {
            color:#0000FF;
            }
            .ColorScheme-Background{
            color:#E9E8E8;
            }
            .ColorScheme-ViewText {
            color:#31363b;
            }
            .ColorScheme-ViewBackground{
            color:#ffffff;
            }
            .ColorScheme-ViewHover {
            color:#000000;
            }
            .ColorScheme-ViewFocus{
            color:#5a5a5a;
            }
            .ColorScheme-ButtonText {
            color:#31363b;
            }
            .ColorScheme-ButtonBackground{
            color:#E9E8E8;
            }
            .ColorScheme-ButtonHover {
            color:#1489ff;
            }
            .ColorScheme-ButtonFocus{
            color:#2B74C7;
            }</style>
	</defs>
	<metadata id="metadata34">
		<rdf:RDF>
			<cc:Work rdf:about="">
				<dc:format>image/svg+xml</dc:format>
				<dc:type rdf:resource="http://purl.org/dc/dcmitype/StillImage"/>
				<dc:title/>
				<cc:license rdf:resource="http://creativecommons.org/licenses/by-nc-sa/3.0/"/>
				<dc:creator>
					<cc:Agent>
						<dc:title>obnosim</dc:title>
					</cc:Agent>
				</dc:creator>
			</cc:Work>
			<cc:License rdf:about="http://creativecommons.org/licenses/by-nc-sa/3.0/">
				<cc:permits rdf:resource="http://creativecommons.org/ns#Reproduction"/>
				<cc:permits rdf:resource="http://creativecommons.org/ns#Distribution"/>
				<cc:requires rdf:resource="http://creativecommons.org/ns#Notice"/>
				<cc:requires rdf:resource="http://creativecommons.org/ns#Attribution"/>
				<cc:prohibits rdf:resource="http://creativecommons.org/ns#CommercialUse"/>
				<cc:permits rdf:resource="http://creativecommons.org/ns#DerivativeWorks"/>
				<cc:requires rdf:resource="http://creativecommons.org/ns#ShareAlike"/>
			</cc:License>
		</rdf:RDF>
	</metadata>
	<g id="22-22-configure" transform="matrix(.99995 0 0 .99995 -.99879 -.99963)">
		<path id="path4141" d="m16.014.99999a6.9862 6.9862 0 0 0 -6.9864 6.9862 6.9862 6.9862 0 0 0 .4132 2.3388l-7.5203 7.5203a2.9944 2.9944 0 1 0 4.2338 4.2338l7.5184-7.5184a6.9862 6.9862 0 0 0 2.3411 .4113 6.9862 6.9862 0 0 0 6.986 -6.9862 6.9862 6.9862 0 0 0 -.411 -2.3411l-3.46 3.4601a2.9944 2.9944 0 1 1 -4.234 -4.2338l3.458-3.4581a6.9862 6.9862 0 0 0 -2.339 -.41321z" style="opacity:.875;fill:currentColor" class="ColorScheme-Text"/>
	</g>
	<g id="configure">
		<rect id="rect3338" style="fill:none" height="32" width="32" y="-10" x="24"/>
		<path id="path4140" class="ColorScheme-Text" style="opacity:.875;fill:currentColor" d="m45-8c-4.9706.000001-9 4.0294-9 9 .0033.97469.16491 1.9424.47852 2.8652l-9.3066 9.3066c-3.9266 3.77 1.8862 9.5828 5.6562 5.6562l9.308-9.3065c.923.3136 1.89.4752 2.865.4785 4.971 0 9-4.0294 9-9-.003-.97458-.164-1.9423-.477-2.8652l-5.4 5.4004c-1.175 1.1752-3.384.8599-4.951-.7071-1.567-1.5669-1.882-3.774-.707-4.9492l5.4004-5.4004c-.923-.3136-1.89-.4752-2.865-.4785z" transform="translate(0 -.000044823)"/>
	</g>
</svg>
