<?xml version="1.0" encoding="UTF-8" standalone="no"?>
<svg id="svg7826" xmlns:rdf="http://www.w3.org/1999/02/22-rdf-syntax-ns#" xmlns="http://www.w3.org/2000/svg" height="22" width="22" version="1.1" xmlns:cc="http://creativecommons.org/ns#" xmlns:dc="http://purl.org/dc/elements/1.1/">
    <defs id="defs3615">
        <style id="current-color-scheme" type="text/css">
            .ColorScheme-Text {
            color:#0000FF;
            }
            .ColorScheme-Background{
            color:#E9E8E8;
            }
            .ColorScheme-ViewText {
            color:#31363b;
            }
            .ColorScheme-ViewBackground{
            color:#ffffff;
            }
            .ColorScheme-ViewHover {
            color:#000000;
            }
            .ColorScheme-ViewFocus{
            color:#5a5a5a;
            }
            .ColorScheme-ButtonText {
            color:#31363b;
            }
            .ColorScheme-ButtonBackground{
            color:#E9E8E8;
            }
            .ColorScheme-ButtonHover {
            color:#1489ff;
            }
            .ColorScheme-ButtonFocus{
            color:#2B74C7;
            }
        </style>
    </defs>
	<metadata id="metadata7831">
		<rdf:RDF>
			<cc:Work rdf:about="">
				<dc:format>image/svg+xml</dc:format>
				<dc:type rdf:resource="http://purl.org/dc/dcmitype/StillImage"/>
				<dc:title/>
				<dc:creator>
					<cc:Agent>
						<dc:title>obnosim</dc:title>
					</cc:Agent>
				</dc:creator>
				<cc:license rdf:resource="http://creativecommons.org/licenses/by-nc-sa/3.0/"/>
			</cc:Work>
			<cc:License rdf:about="http://creativecommons.org/licenses/by-nc-sa/3.0/">
				<cc:permits rdf:resource="http://creativecommons.org/ns#Reproduction"/>
				<cc:permits rdf:resource="http://creativecommons.org/ns#Distribution"/>
				<cc:requires rdf:resource="http://creativecommons.org/ns#Notice"/>
				<cc:requires rdf:resource="http://creativecommons.org/ns#Attribution"/>
				<cc:prohibits rdf:resource="http://creativecommons.org/ns#CommercialUse"/>
				<cc:permits rdf:resource="http://creativecommons.org/ns#DerivativeWorks"/>
				<cc:requires rdf:resource="http://creativecommons.org/ns#ShareAlike"/>
			</cc:License>
		</rdf:RDF>
	</metadata>
	<g id="device-notifier" transform="translate(195 35)">
		<rect id="rect2996" style="fill:none" transform="translate(-196,3e-5)" height="22" width="22" y="-35" x="1"/>
		<path id="path3779" style="stroke-linejoin:round;stroke:currentColor;stroke-linecap:round;stroke-width:2;fill:none;opacity:.875" d="m5.5501-26.725c.3542-.837.8668-1.591 1.5002-2.225 1.2667-1.266 3.0167-2.05 4.9497-2.05 3.866 0 7 3.134 7 7 0 1.933-.78350 3.683-2.0503 4.9497-.63338.63338-1.3876 1.1459-2.225 1.5002" transform="matrix(.70711 .70711 -.70711 .70711 -209.46 -15.515)" class="ColorScheme-Text"/>
		<path id="rect3784" d="m3-26c-1.108 0-2 .892-2 2s.892 2 2 2h2 2 2v-2-2h-2-2-2z" style="fill:currentColor;opacity:.875" class="ColorScheme-Text" transform="translate(-196,3e-5)"/>
		<path id="path3789" style="fill:currentColor;opacity:.875" class="ColorScheme-Text" d="m-175-26c1.108 0 2 .892 2 2s-.892 2-2 2h-2v-2-2z"/>
		<path id="path3865" d="m12-28c-2.2091 0-4 1.7909-4 4s1.7909 4 4 4 4-1.7909 4-4-1.7909-4-4-4zm0 2c1.1046 0 2 .89543 2 2s-.89543 2-2 2-2-.89543-2-2 .89543-2 2-2z" style="fill:currentColor;opacity:.875" class="ColorScheme-Text" transform="translate(-196,3e-5)"/>
	</g>
</svg>
