<?xml version="1.0" encoding="UTF-8" standalone="no"?>
<svg id="svg7826" xmlns:rdf="http://www.w3.org/1999/02/22-rdf-syntax-ns#" xmlns="http://www.w3.org/2000/svg" height="22" shape-rendering="crispEdges" width="22" version="1.1" xmlns:cc="http://creativecommons.org/ns#" xmlns:dc="http://purl.org/dc/elements/1.1/">
	<defs id="defs3615">
		<style id="current-color-scheme" type="text/css">
			.ColorScheme-Text { color:#0000FF; }
		</style>
	</defs>
	<metadata id="metadata7">
		<rdf:RDF>
			<cc:Work rdf:about="">
				<dc:format>image/svg+xml</dc:format>
				<dc:type rdf:resource="http://purl.org/dc/dcmitype/StillImage"/>
				<dc:title/>
				<dc:creator>
					<cc:Agent>
						<dc:title>obnosim</dc:title>
					</cc:Agent>
				</dc:creator>
				<cc:license rdf:resource="http://creativecommons.org/licenses/by-sa/3.0/"/>
			</cc:Work>
			<cc:License rdf:about="http://creativecommons.org/licenses/by-sa/3.0/">
				<cc:permits rdf:resource="http://creativecommons.org/ns#Reproduction"/>
				<cc:permits rdf:resource="http://creativecommons.org/ns#Distribution"/>
				<cc:requires rdf:resource="http://creativecommons.org/ns#Notice"/>
				<cc:requires rdf:resource="http://creativecommons.org/ns#Attribution"/>
				<cc:permits rdf:resource="http://creativecommons.org/ns#DerivativeWorks"/>
				<cc:requires rdf:resource="http://creativecommons.org/ns#ShareAlike"/>
			</cc:License>
		</rdf:RDF>
	</metadata>
	<g id="22-22-device-notifier" transform="translate(195 35)">
		<rect style="fill:none" transform="translate(-196,3e-5)" height="22" width="22" y="-35" x="1"/>
		<path d="m10.996 3c-1.0228.0005-2.0462.1935-3.0097.5840a1.0001 1.0001 0 1 0 .7520 1.8535c.7206-.2921 1.4887-.4369 2.2577-.4375 1.537.0004 3.067.5822 4.242 1.7578 2.352 2.3516 2.352 6.1332 0 8.4842-1.175 1.176-2.705 1.758-4.242 1.758-.768 0-1.5361-.147-2.2577-.439a1.0001 1.0001 0 1 0 -.7520 1.853c.9637.391 1.9869.584 3.0097.584 2.046 0 4.098-.784 5.656-2.342 1.047-1.046 1.735-2.315 2.078-3.656h1.27c1.108 0 2-.892 2-2s-.892-2-2-2h-1.27c-.343-1.3408-1.031-2.61-2.078-3.6562-1.558-1.5581-3.609-2.3432-5.654-2.3438a1.0001 1.0001 0 0 0 -.002 0z" style="opacity:.875;fill:currentColor" transform="translate(-195,-35)" class="ColorScheme-Text"/>
		<path d="m11 7c-1.4768 0-2.7524.8094-3.4453 2h-5.5547c-1.108 0-2 .892-2 2s.8920 2 2 2h5.5547c.6929 1.191 1.9685 2 3.4453 2 2.209 0 4-1.791 4-4 0-2.2091-1.791-4-4-4zm0 2c1.105 0 2 .8954 2 2 0 1.105-.895 2-2 2-1.1046 0-2-.895-2-2 0-1.1046.8954-2 2-2z" style="opacity:.875;fill:currentColor" transform="translate(-195,-35)" class="ColorScheme-Text"/>
	</g>
	<g id="device-notifier">
		<rect style="fill:none" height="32" width="32" y="-10" x="24"/>
		<path class="ColorScheme-Text" style="fill:currentColor;opacity:.875" d="m40-4c-1.378 0-2.695.2808-3.893.7871a1.0001 1.0001 0 1 0 .780 1.8418c.956-.4045 2.005-.6289 3.113-.6289 4.43 0 8 3.5699 8 8 0 4.43-3.57 8-8 8-1.108 0-2.157-.224-3.113-.629a1.0001 1.0001 0 1 0 -.780 1.842c1.198.506 2.515.787 3.893.787 4.826 0 8.869-3.443 9.799-8h2.201c1.108 0 2-.892 2-2s-.892-2-2-2h-2.201c-.930-4.5569-4.973-8-9.799-8zm0 5a5 5 0 0 0 -4.576 3h-7.424c-1.108 0-2 .892-2 2s.892 2 2 2h7.42a5 5 0 0 0 4.58 3 5 5 0 0 0 5 -5 5 5 0 0 0 -5 -5zm0 2a3 3 0 0 1 3 3 3 3 0 0 1 -3 3 3 3 0 0 1 -3 -3 3 3 0 0 1 3 -3z"/>
	</g>
</svg>
