<?xml version="1.0" encoding="UTF-8" standalone="no"?>
<svg id="svg2" xmlns:rdf="http://www.w3.org/1999/02/22-rdf-syntax-ns#" xmlns="http://www.w3.org/2000/svg" height="22" width="22" version="1.1" xmlns:cc="http://creativecommons.org/ns#" xmlns:dc="http://purl.org/dc/elements/1.1/">
	<defs id="defs81">
		<style id="current-color-scheme" type="text/css">.ColorScheme-Text {
			color:#0000FF;
			}
			.ColorScheme-Background{
			color:#E9E8E8;
			}
			.ColorScheme-ViewText {
			color:#31363b;
			}
			.ColorScheme-ViewBackground{
			color:currentColor;
			}
			.ColorScheme-ViewHover {
			color:#000000;
			}
			.ColorScheme-ViewFocus{
			color:#5a5a5a;
			}
			.ColorScheme-ButtonText {
			color:#31363b;
			}
			.ColorScheme-ButtonBackground{
			color:#E9E8E8;
			}
			.ColorScheme-ButtonHover {
			color:#1489ff;
			}
			.ColorScheme-ButtonFocus{
			color:#2B74C7;
			}</style>
	</defs>
	<metadata id="metadata34">
		<RDF>
			<Work about="">
				<format>image/svg+xml</format>
				<type resource="http://purl.org/dc/dcmitype/StillImage"/>
				<title/>
			</Work>
		</RDF>
		<rdf:RDF>
			<cc:Work rdf:about="">
				<dc:format>image/svg+xml</dc:format>
				<dc:type rdf:resource="http://purl.org/dc/dcmitype/StillImage"/>
				<dc:title/>
			</cc:Work>
		</rdf:RDF>
	</metadata>
	<g id="document-decrypt" transform="translate(-55,-11)">
		<rect id="rect3404" style="fill:none" height="22" width="22" y="33" x="33"/>
		<path id="path4424" class="ColorScheme-Text" style="fill:currentColor" d="m36 34v5.4238.60547c.31018-.23532.63993-.44477 1-.60352v-.32-4.105h14v6.3828l1 .5v-7.883zm16 12.752-1 .75v2.084l-3.414 3.414h-10.586v-4.102-.324c-.36-.159-.69-.368-1-.603v.609 5.42h12l4-4z"/>
		<path id="path4433" class="ColorScheme-Text" style="opacity:.875;fill:currentColor" d="m49.25 45 .75 2 4-3-4-2h-7.541c-.714-1.236-2.032-1.998-3.459-2-2.2091 0-4 1.791-4 4 0 2.2091 1.7909 4 4 4 1.4272-.0018 2.7454-.76398 3.459-2h.541l1 1 .75-2h.5l.75 2 1-1 1 1 .75-2zm-13.25-1c0-.55228.44772-1 1-1s1 .44772 1 1-.44772 1-1 1-1-.44772-1-1z"/>
	</g>
	<g id="document-encrypt" transform="translate(-55,-11)">
		<rect id="rect4458" style="fill:none" height="22" width="22" y="33" x="55"/>
		<path id="path4460" class="ColorScheme-Text" style="fill:currentColor" d="m74 34h-16v20h12l4-4m-1-.414-3.414 3.414h-10.586v-18h14"/>
		<path id="rect4468" class="ColorScheme-Text" style="opacity:.875;fill:currentColor" d="m66 38c-2.216 0-4 1.784-4 4v3 1 3c0 .554.446 1 1 1h6c.554 0 1-.446 1-1v-3-1-3c0-2.216-1.784-4-4-4zm0 1c1.662 0 3 1.338 3 3v2h-6v-2c0-1.662 1.338-3 3-3zm0 6a1 1 0 0 1 1 1 1 1 0 0 1 -.5293 .88086l.529 2.119h-2l.529-2.119a1 1 0 0 1 -.529 -.881 1 1 0 0 1 1 -1z"/>
	</g>
	<g id="22-22-document-open-recent" transform="translate(-55,-33)">
		<rect id="rect4510" style="fill:none" height="22" width="22" y="33" x="55"/>
		<path id="path4512" class="ColorScheme-Text" style="fill:currentColor" d="m74 34h-16v20h12l4-4m-1-.414-3.414 3.414h-10.586v-18h14"/>
		<path id="path4516" d="m62 38h8c0 6-8 6-8 12h8c0-6-8-6-8-12z" style="opacity:.875;fill:currentColor" class="ColorScheme-Text"/>
	</g>
	<g id="document-open-recent" transform="matrix(1.4545,0,0,1.4545,-112,-58)">
		<rect id="rect4522" style="fill:none" height="22" width="22" y="33" x="55"/>
		<path id="path4526" style="opacity:.875;fill:currentColor" d="m33 8c0 4.364 3 6.682 6 9 3-2.318 6-4.636 6-9h-12zm6 9c-3 2.318-6 4.636-6 9h12c0-4.364-3-6.682-6-9zm-5-8h10v1h-10v-1zm0 15h10v1h-10v-1z" class="ColorScheme-Text" transform="matrix(.6875 0 0 .6875 39.187 32.312)"/>
		<path id="path4544" d="m59.125 35.062h13.75v14.437l-3.4375 3.4375h-10.312z" style="opacity:.875;stroke-dashoffset:1;stroke:currentColor;stroke-linecap:round;stroke-width:1.2781;fill:none" class="ColorScheme-Text"/>
	</g>
</svg>
