<?xml version="1.0" encoding="UTF-8" standalone="no"?>
<svg id="svg" xmlns:rdf="http://www.w3.org/1999/02/22-rdf-syntax-ns#" xmlns="http://www.w3.org/2000/svg" height="48" width="48" version="1.1" xmlns:cc="http://creativecommons.org/ns#" xmlns:dc="http://purl.org/dc/elements/1.1/">
	<defs id="defs3615">
		<style id="current-color-scheme" type="text/css">
			.ColorScheme-Text { color:#0000FF; }
		</style>
	</defs>
	<metadata id="metadata7">
		<rdf:RDF>
			<cc:Work rdf:about="">
				<dc:format>image/svg+xml</dc:format>
				<dc:type rdf:resource="http://purl.org/dc/dcmitype/StillImage"/>
				<dc:title/>
				<dc:creator>
					<cc:Agent>
						<dc:title>obnosim</dc:title>
					</cc:Agent>
				</dc:creator>
				<cc:license rdf:resource="http://creativecommons.org/licenses/by-sa/3.0/"/>
			</cc:Work>
			<cc:License rdf:about="http://creativecommons.org/licenses/by-sa/3.0/">
				<cc:permits rdf:resource="http://creativecommons.org/ns#Reproduction"/>
				<cc:permits rdf:resource="http://creativecommons.org/ns#Distribution"/>
				<cc:requires rdf:resource="http://creativecommons.org/ns#Notice"/>
				<cc:requires rdf:resource="http://creativecommons.org/ns#Attribution"/>
				<cc:permits rdf:resource="http://creativecommons.org/ns#DerivativeWorks"/>
				<cc:requires rdf:resource="http://creativecommons.org/ns#ShareAlike"/>
			</cc:License>
		</rdf:RDF>
	</metadata>
	<g id="22-22-go-previous">
		<rect style="fill:none" height="22" width="22" y="0" x="0"/>
		<path d="m14 19-8-8 8-8" style="opacity:.875;stroke:currentColor;stroke-linecap:round;stroke-width:2;fill:none" class="ColorScheme-Text"/>
	</g>
	<g id="22-22-go-next">
		<rect style="fill:none" height="22" width="22" y="0" x="26"/>
		<path d="m33.596 19 8-8-8-8" style="opacity:.875;stroke:currentColor;stroke-linecap:round;stroke-width:2;fill:none" class="ColorScheme-Text"/>
	</g>
	<g id="22-22-go-up">
		<rect style="fill:none" transform="rotate(90)" height="22" width="22" y="-22" x="26"/>
		<path d="m2 41 8-8 8 8" style="opacity:.875;stroke:currentColor;stroke-linecap:round;stroke-width:2;fill:none" class="ColorScheme-Text"/>
	</g>
	<g id="22-22-go-down">
		<rect style="fill:none" transform="rotate(90)" height="22" width="22" y="-48" x="26"/>
		<path d="m29.596 33 8 8 8-8" style="opacity:.875;stroke:currentColor;stroke-linecap:round;stroke-width:2;fill:none" class="ColorScheme-Text"/>
	</g>
	<g id="22-22-go-home">
		<rect style="fill:none" height="22" width="22" y="0" x="-33"/>
		<path d="m-25 18v-7h-4l7-7 7 7h-4v7z" style="opacity:.875;stroke-linejoin:round;stroke:currentColor;stroke-width:2;fill:none" class="ColorScheme-Text"/>
	</g>
	<g id="go-next" transform="matrix(1.3333 0 0 1.3333 -1.3333 -70.667)">
		<rect style="fill:none" height="24" width="24" y="-1" x="25"/>
		<path style="opacity:.875;stroke:currentColor;stroke-linecap:round;stroke-width:1.5;fill:none" d="m33.25 19.25 8.25-8.25-8.25-8.25" class="ColorScheme-Text"/>
	</g>
	<g id="go-home" transform="matrix(1.3333 0 0 1.3333 11.333 -63.667)">
		<rect style="fill:none" height="24" width="24" y="-1" x="-34"/>
		<path style="opacity:.875;stroke-linejoin:round;stroke:currentColor;stroke-width:1.5;fill:none" d="m-25.75 18.5v-7.4999h-4.5l8.25-8.25 8.25 8.25h-4.5v7.4999z" class="ColorScheme-Text"/>
	</g>
	<g id="go-up" transform="matrix(0 -1.3333 1.3333 0 1.3333 25.333)">
		<rect style="fill:none" height="24" width="24" y="-1" x="25"/>
		<path style="opacity:.875;stroke:currentColor;stroke-linecap:round;stroke-width:1.5;fill:none" d="m33.25 19.25 8.25-8.25-8.25-8.25" class="ColorScheme-Text"/>
	</g>
	<g id="go-previous" transform="matrix(-1.3333 0 0 -1.3333 65.333 -41.333)">
		<rect style="fill:none" height="24" width="24" y="-1" x="25"/>
		<path style="opacity:.875;stroke:currentColor;stroke-linecap:round;stroke-width:1.5;fill:none" d="m33.25 19.25 8.25-8.25-8.25-8.25" class="ColorScheme-Text"/>
	</g>
	<g id="go-down" transform="matrix(0 1.3333 1.3333 0 33.333 -73.333)">
		<rect style="fill:none" height="24" width="24" y="-1" x="25"/>
		<path style="opacity:.875;stroke:currentColor;stroke-linecap:round;stroke-width:1.5;fill:none" d="m33.25 19.25 8.25-8.25-8.25-8.25" class="ColorScheme-Text"/>
	</g>
</svg>
