<?xml version="1.0" encoding="UTF-8" standalone="no"?>
<svg
   xmlns:dc="http://purl.org/dc/elements/1.1/"
   xmlns:cc="http://creativecommons.org/ns#"
   xmlns:rdf="http://www.w3.org/1999/02/22-rdf-syntax-ns#"
   xmlns:svg="http://www.w3.org/2000/svg"
   xmlns="http://www.w3.org/2000/svg"
   xmlns:sodipodi="http://sodipodi.sourceforge.net/DTD/sodipodi-0.dtd"
   xmlns:inkscape="http://www.inkscape.org/namespaces/inkscape"
   id="svg"
   height="100%"
   viewBox="0 0 22 22"
   width="100%"
   version="1.1"
   inkscape:version="0.91 r13725"
   sodipodi:docname="input.svg">
  <sodipodi:namedview
     pagecolor="#ffffff"
     bordercolor="#666666"
     borderopacity="1"
     objecttolerance="10"
     gridtolerance="10"
     guidetolerance="10"
     inkscape:pageopacity="0"
     inkscape:pageshadow="2"
     inkscape:window-width="640"
     inkscape:window-height="480"
     id="namedview30"
     showgrid="false"
     inkscape:zoom="7.5853273"
     inkscape:cx="88.033791"
     inkscape:cy="25.015315"
     inkscape:current-layer="svg" />
  <defs
     id="defs3615">
    <style
       id="current-color-scheme"
       type="text/css">.ColorScheme-Text {
            color:#0000FF;
            }
            .ColorScheme-Background{
            color:#E9E8E8;
            }
            .ColorScheme-ViewText {
            color:#31363b;
            }
            .ColorScheme-ViewBackground{
            color:currentColor;
            }
            .ColorScheme-ViewHover {
            color:#000000;
            }
            .ColorScheme-ViewFocus{
            color:#5a5a5a;
            }
            .ColorScheme-ButtonText {
            color:#31363b;
            }
            .ColorScheme-ButtonBackground{
            color:#E9E8E8;
            }
            .ColorScheme-ButtonHover {
            color:#1489ff;
            }
            .ColorScheme-ButtonFocus{
            color:#2B74C7;
            }</style>
  </defs>
  <metadata
     id="metadata34">
    <rdf:RDF>
      <cc:Work
         rdf:about="">
        <dc:format>image/svg+xml</dc:format>
        <dc:type
           rdf:resource="http://purl.org/dc/dcmitype/StillImage" />
        <dc:title />
      </cc:Work>
    </rdf:RDF>
  </metadata>
  <g
     id="input-mouse-battery"
     transform="translate(22,29)">
    <rect
       id="rect4161"
       style="fill:none"
       height="22"
       width="22"
       y="-29"
       x="-55" />
    <path
       id="rect4180"
       class="ColorScheme-Text"
       style="fill-rule:evenodd;fill:currentColor"
       d="m-45-29c-3.878 0-7 3.122-7 7v8c0 3.878 3.122 7 7 7h2c3.878 0 7-3.122 7-7v-8c0-3.878-3.122-7-7-7v1.2754c.5958.34556 1 .98354 1 1.7246v5c0 .74107-.4042 1.379-1 1.7246v2.275c0 .554-.446 1-1 1s-1-.446-1-1v-2.2754c-.596-.346-1-.984-1-1.725v-5c0-.74107.4042-1.379 1-1.7246v-1.275zm1 2c-.554 0-1 .446-1 1v4c0 .554.446 1 1 1s1-.446 1-1v-4c0-.554-.446-1-1-1zm-1 13 6 3h-4v2l-6-3h4v-2z" />
  </g>
  <g
     id="22-22-input-keyboard-battery"
     transform="translate(-33,0)">
    <rect
       id="rect4169"
       style="fill:none"
       height="22"
       width="22"
       y="0"
       x="33" />
    <path
       id="rect4177"
       class="ColorScheme-Text"
       style="opacity:0.875;fill:currentColor"
       d="m 38,1 c -2.216,0 -4,1.784 -4,4 l 0,12 c 0,2.216 1.784,4 4,4 l 12,0 c 2.216,0 4,-1.784 4,-4 L 54,5 C 54,2.784 52.216,1 50,1 L 38,1 Z m 0,1 12,0 c 1.662,0 3,1.338 3,3 l 0,11 c 0,1.662 -1.338,3 -3,3 l -12,0 c -1.662,0 -3,-1.338 -3,-3 L 35,5 c 0,-1.662 1.338,-3 3,-3 z"
       inkscape:connector-curvature="0" />
    <path
       id="path4171"
       style="opacity:0.875;fill:currentColor;fill-rule:evenodd"
       d="m 43,7 8,2 -6,0 0,3 -8,-2 6,0 z"
       class="ColorScheme-Text"
       inkscape:connector-curvature="0" />
    <rect
       id="rect4185"
       class="ColorScheme-Text"
       style="opacity:0.875;fill:currentColor"
       ry="0.5"
       height="1"
       width="6"
       y="16"
       x="41" />
  </g>
  <g
     id="22-22-input-keyboard-brightness"
     transform="translate(-33,0)">
    <rect
       id="rect4197"
       style="fill:none"
       height="22"
       width="22"
       y="0"
       x="66" />
    <path
       id="path4244"
       class="ColorScheme-Text"
       style="opacity:0.875;fill:currentColor"
       d="m 77,6 a 3,3 0 0 0 -3,3 3,3 0 0 0 3,3 3,3 0 0 0 3,-3 3,3 0 0 0 -3,-3 z"
       inkscape:connector-curvature="0" />
    <path
       id="path4195"
       class="ColorScheme-Text"
       style="opacity:0.875;fill:currentColor"
       d="m 71,1 c -2.216,0 -4,1.784 -4,4 l 0,12 c 0,2.216 1.784,4 4,4 l 12,0 c 2.216,0 4,-1.784 4,-4 L 87,5 C 87,2.784 85.216,1 83,1 L 71,1 Z m 0,1 12,0 c 1.662,0 3,1.338 3,3 l 0,11 c 0,1.662 -1.338,3 -3,3 l -12,0 c -1.662,0 -3,-1.338 -3,-3 L 68,5 c 0,-1.662 1.338,-3 3,-3 z m 3.5,14 5,0 c 0.277,0 0.5,0.223 0.5,0.5 0,0.277 -0.223,0.5 -0.5,0.5 l -5,0 C 74.223,17 74,16.777 74,16.5 74,16.223 74.223,16 74.5,16 Z"
       inkscape:connector-curvature="0" />
    <path
       id="path4267"
       class="ColorScheme-Text"
       style="opacity:0.875;fill:currentColor"
       d="M 77,3.3438 75.916,5.1504 A 4,4 0 0 1 77,5 4,4 0 0 1 78.086,5.1543 L 77,3.3438 Z M 73,5 73.512,7.0469 A 4,4 0 0 1 75.051,5.5137 L 73,5 Z m 8,0 -2.0469,0.51172 a 4,4 0 0 1 1.5332,1.5391 l 0.514,-2.0508 z M 73.154,7.9141 71.344,9 73.15,10.084 A 4,4 0 0 1 73,9 4,4 0 0 1 73.154,7.9141 Z m 7.6953,0.00195 a 4,4 0 0 1 0.151,1.084 4,4 0 0 1 -0.154,1.086 l 1.81,-1.086 -1.806,-1.084 z m -7.335,3.033 -0.514,2.051 2.047,-0.512 a 4,4 0 0 1 -1.5332,-1.5391 z m 6.9746,0.0039 a 4,4 0 0 1 -1.5391,1.5332 l 2.05,0.514 -0.512,-2.047 z m -4.575,1.893 1.086,1.81 1.084,-1.806 a 4,4 0 0 1 -1.084,0.15 4,4 0 0 1 -1.086,-0.154 z"
       inkscape:connector-curvature="0" />
  </g>
  <g
     id="input-keyboard-battery">
    <rect
       id="rect4281"
       style="fill:none"
       height="32"
       width="32"
       y="-42"
       x="0" />
    <path
       id="rect4283"
       class="ColorScheme-Text"
       style="opacity:0.875;fill:currentColor"
       d="m 5,-41 c -2.216,0 -4,1.784 -4,4 l 0,22 c 0,2.216 1.784,4 4,4 l 22,0 c 2.216,0 4,-1.784 4,-4 l 0,-22 c 0,-2.216 -1.784,-4 -4,-4 l -22,0 z m 0,1 22,0 c 1.662,0 3,1.338 3,3 l 0,21 c 0,1.662 -1.338,3 -3,3 l -22,0 c -1.662,0 -3,-1.338 -3,-3 l 0,-21 c 0,-1.662 1.338,-3 3,-3 z"
       inkscape:connector-curvature="0" />
    <rect
       id="rect4289"
       class="ColorScheme-Text"
       style="opacity:0.875;fill:currentColor"
       ry="0.5"
       height="1"
       width="8"
       y="-17"
       x="12" />
    <path
       id="path4291"
       class="ColorScheme-Text"
       d="m 4,-28 10,0 0,-5 14,5 -10,0 0,5 z"
       style="opacity:0.875;fill:currentColor"
       inkscape:connector-curvature="0" />
  </g>
  <g
     id="input-keyboard-brightness">
    <rect
       id="rect4293"
       style="fill:none"
       height="32"
       width="32"
       y="-42"
       x="40" />
    <path
       id="path4295"
       class="ColorScheme-Text"
       style="opacity:0.875;fill:currentColor"
       d="m 45,-41 c -2.216,0 -4,1.784 -4,4 l 0,22 c 0,2.216 1.784,4 4,4 l 22,0 c 2.216,0 4,-1.784 4,-4 l 0,-22 c 0,-2.216 -1.784,-4 -4,-4 l -22,0 z m 0,1 22,0 c 1.662,0 3,1.338 3,3 l 0,21 c 0,1.662 -1.338,3 -3,3 l -22,0 c -1.662,0 -3,-1.338 -3,-3 l 0,-21 c 0,-1.662 1.338,-3 3,-3 z"
       inkscape:connector-curvature="0" />
    <rect
       id="rect4297"
       class="ColorScheme-Text"
       style="opacity:0.875;fill:currentColor"
       ry="0.5"
       height="1"
       width="8"
       y="-17"
       x="52" />
    <circle
       id="path4301"
       class="ColorScheme-Text"
       cx="56"
       cy="-29"
       r="5"
       style="opacity:0.875;fill:currentColor" />
    <path
       id="path4303"
       class="ColorScheme-Text"
       style="opacity:0.875;fill:currentColor"
       d="m 56,-39 -1.0996,3.0898 a 7,7 0 0 1 1.1,-0.09 7,7 0 0 1 1.1016,0.0957 L 56,-39.0005 Z m -7.0703,2.9297 1.4102,2.9648 a 7,7 0 0 1 1.5566,-1.5547 l -2.9668,-1.4102 z m 14.141,0 -2.9648,1.4102 a 7,7 0 0 1 1.5547,1.5566 l 1.4102,-2.9668 z m -13.975,5.968 -3.096,1.102 3.0898,1.0996 a 7,7 0 0 1 -0.09,-1.1 7,7 0 0 1 0.0957,-1.1016 z m 13.814,0.002 a 7,7 0 0 1 0.09,1.1 7,7 0 0 1 -0.0957,1.1016 l 3.096,-1.102 -3.09,-1.1 z m -12.57,5.2031 -1.4102,2.9668 2.9648,-1.4102 a 7,7 0 0 1 -1.5547,-1.5566 z m 11.32,0.002 a 7,7 0 0 1 -1.5566,1.5547 l 2.9668,1.4102 -1.4102,-2.9648 z m -6.762,2.799 1.102,3.096 1.1,-3.09 a 7,7 0 0 1 -1.1,0.09 7,7 0 0 1 -1.1016,-0.0957 z"
       inkscape:connector-curvature="0" />
  </g>
</svg>
