<?xml version="1.0" encoding="UTF-8" standalone="no"?>
<svg id="svg" xmlns:rdf="http://www.w3.org/1999/02/22-rdf-syntax-ns#" xmlns="http://www.w3.org/2000/svg" height="100%" viewBox="0 0 22 22" width="100%" version="1.1" xmlns:cc="http://creativecommons.org/ns#" xmlns:dc="http://purl.org/dc/elements/1.1/">
	<defs id="defs3615">
		<style id="current-color-scheme" type="text/css">.ColorScheme-Text {
            color:#0000FF;
            }
            .ColorScheme-Background{
            color:#E9E8E8;
            }
            .ColorScheme-ViewText {
            color:#31363b;
            }
            .ColorScheme-ViewBackground{
            color:currentColor;
            }
            .ColorScheme-ViewHover {
            color:#000000;
            }
            .ColorScheme-ViewFocus{
            color:#5a5a5a;
            }
            .ColorScheme-ButtonText {
            color:#31363b;
            }
            .ColorScheme-ButtonBackground{
            color:#E9E8E8;
            }
            .ColorScheme-ButtonHover {
            color:#1489ff;
            }
            .ColorScheme-ButtonFocus{
            color:#2B74C7;
            }</style>
	</defs>
	<metadata id="metadata34">
		<rdf:RDF>
			<cc:Work rdf:about="">
				<dc:format>image/svg+xml</dc:format>
				<dc:type rdf:resource="http://purl.org/dc/dcmitype/StillImage"/>
				<dc:title/>
			</cc:Work>
		</rdf:RDF>
	</metadata>
	<g id="input-mouse-battery" transform="translate(22,29)">
		<rect id="rect4161" style="fill:none" height="22" width="22" y="-29" x="-55"/>
		<path id="rect4180" d="m-45-29c-3.878 0-7 3.122-7 7v8c0 3.878 3.122 7 7 7h2c3.878 0 7-3.122 7-7v-8c0-3.878-3.122-7-7-7v1.2754c.5958.34556 1 .98354 1 1.7246v5c0 .74107-.4042 1.379-1 1.7246v2.275c0 .554-.446 1-1 1s-1-.446-1-1v-2.2754c-.596-.346-1-.984-1-1.725v-5c0-.74107.4042-1.379 1-1.7246v-1.275zm1 2c-.554 0-1 .446-1 1v4c0 .554.446 1 1 1s1-.446 1-1v-4c0-.554-.446-1-1-1zm-1 13 6 3h-4v2l-6-3h4v-2z" style="opacity:.875;fill:currentColor;fill-rule:evenodd" class="ColorScheme-Text"/>
	</g>
	<g id="22-22-input-keyboard-battery" transform="translate(-33)">
		<rect id="rect4169" style="fill:none" height="22" width="22" y="0" x="33"/>
		<path id="rect4177" d="m38 1c-2.216 0-4 1.784-4 4v12c0 2.216 1.784 4 4 4h12c2.216 0 4-1.784 4-4v-12c0-2.216-1.784-4-4-4h-12zm0 1h12c1.662 0 3 1.338 3 3v11c0 1.662-1.338 3-3 3h-12c-1.662 0-3-1.338-3-3v-11c0-1.662 1.338-3 3-3z" style="opacity:.875;fill:currentColor" class="ColorScheme-Text"/>
		<path id="path4171" class="ColorScheme-Text" style="opacity:.875;fill-rule:evenodd;fill:currentColor" d="m43 7 8 2h-6v3l-8-2h6z"/>
		<rect id="rect4185" style="opacity:.875;fill:currentColor" class="ColorScheme-Text" ry=".5" height="1" width="6" y="16" x="41"/>
	</g>
	<g id="22-22-input-keyboard-brightness" transform="translate(-33)">
		<rect id="rect4197" style="fill:none" height="22" width="22" y="0" x="66"/>
		<path id="path4244" d="m77 6a3 3 0 0 0 -3 3 3 3 0 0 0 3 3 3 3 0 0 0 3 -3 3 3 0 0 0 -3 -3z" style="opacity:.875;fill:currentColor" class="ColorScheme-Text"/>
		<path id="path4195" d="m71 1c-2.216 0-4 1.784-4 4v12c0 2.216 1.784 4 4 4h12c2.216 0 4-1.784 4-4v-12c0-2.216-1.784-4-4-4h-12zm0 1h12c1.662 0 3 1.338 3 3v11c0 1.662-1.338 3-3 3h-12c-1.662 0-3-1.338-3-3v-11c0-1.662 1.338-3 3-3zm3.5 14h5c.277 0 .5.223.5.5s-.223.5-.5.5h-5c-.277 0-.5-.223-.5-.5s.223-.5.5-.5z" style="opacity:.875;fill:currentColor" class="ColorScheme-Text"/>
		<path id="path4267" d="m77 3.3438-1.084 1.8066a4 4 0 0 1 1.084 -.1504 4 4 0 0 1 1.086 .1543l-1.086-1.8105zm-4 1.6562.512 2.0469a4 4 0 0 1 1.539 -1.5332l-2.051-.5137zm8 0-2.0469.51172a4 4 0 0 1 1.5332 1.5391l.514-2.0508zm-7.846 2.9141-1.81 1.0859 1.806 1.084a4 4 0 0 1 -.150 -1.084 4 4 0 0 1 .154 -1.0859zm7.6953.00195a4 4 0 0 1 .151 1.084 4 4 0 0 1 -.154 1.086l1.81-1.086-1.806-1.084zm-7.335 3.033-.514 2.051 2.047-.512a4 4 0 0 1 -1.5332 -1.5391zm6.9746.0039a4 4 0 0 1 -1.5391 1.5332l2.05.514-.512-2.047zm-4.575 1.893 1.086 1.81 1.084-1.806a4 4 0 0 1 -1.084 .15 4 4 0 0 1 -1.086 -.154z" style="opacity:.875;fill:currentColor" class="ColorScheme-Text"/>
	</g>
	<g id="input-keyboard-battery">
		<rect id="rect4281" style="fill:none" height="32" width="32" y="-42" x="0"/>
		<path id="rect4283" d="m5-41c-2.216 0-4 1.784-4 4v22c0 2.216 1.784 4 4 4h22c2.216 0 4-1.784 4-4v-22c0-2.216-1.784-4-4-4h-22zm0 1h22c1.662 0 3 1.338 3 3v21c0 1.662-1.338 3-3 3h-22c-1.662 0-3-1.338-3-3v-21c0-1.662 1.338-3 3-3z" style="opacity:.875;fill:currentColor" class="ColorScheme-Text"/>
		<rect id="rect4289" style="opacity:.875;fill:currentColor" class="ColorScheme-Text" ry=".5" height="1" width="8" y="-17" x="12"/>
		<path id="path4291" d="m4-28h10v-5l14 5h-10v5z" style="opacity:.875;fill:currentColor" class="ColorScheme-Text"/>
	</g>
	<g id="input-keyboard-brightness">
		<rect id="rect4293" style="fill:none" height="32" width="32" y="-42" x="40"/>
		<path id="path4295" d="m45-41c-2.216 0-4 1.784-4 4v22c0 2.216 1.784 4 4 4h22c2.216 0 4-1.784 4-4v-22c0-2.216-1.784-4-4-4h-22zm0 1h22c1.662 0 3 1.338 3 3v21c0 1.662-1.338 3-3 3h-22c-1.662 0-3-1.338-3-3v-21c0-1.662 1.338-3 3-3z" style="opacity:.875;fill:currentColor" class="ColorScheme-Text"/>
		<rect id="rect4297" style="opacity:.875;fill:currentColor" class="ColorScheme-Text" ry=".5" height="1" width="8" y="-17" x="52"/>
		<circle id="path4301" style="opacity:.875;fill:currentColor" class="ColorScheme-Text" cy="-29" cx="56" r="5"/>
		<path id="path4303" d="m56-39-1.0996 3.0898a7 7 0 0 1 1.1 -.09 7 7 0 0 1 1.1016 .0957l-1.102-3.096zm-7.0703 2.9297 1.4102 2.9648a7 7 0 0 1 1.5566 -1.5547l-2.9668-1.4102zm14.141 0-2.9648 1.4102a7 7 0 0 1 1.5547 1.5566l1.4102-2.9668zm-13.975 5.968-3.096 1.102 3.0898 1.0996a7 7 0 0 1 -.09 -1.1 7 7 0 0 1 .0957 -1.1016zm13.814.002a7 7 0 0 1 .09 1.1 7 7 0 0 1 -.0957 1.1016l3.096-1.102-3.09-1.1zm-12.57 5.2031-1.4102 2.9668 2.9648-1.4102a7 7 0 0 1 -1.5547 -1.5566zm11.32.002a7 7 0 0 1 -1.5566 1.5547l2.9668 1.4102-1.4102-2.9648zm-6.762 2.799 1.102 3.096 1.1-3.09a7 7 0 0 1 -1.1 .09 7 7 0 0 1 -1.1016 -.0957z" style="opacity:.875;fill:currentColor" class="ColorScheme-Text"/>
	</g>
</svg>
