<?xml version="1.0" encoding="UTF-8" standalone="no"?>
<svg id="svg" xmlns:rdf="http://www.w3.org/1999/02/22-rdf-syntax-ns#" xmlns="http://www.w3.org/2000/svg" height="100%" viewBox="0 0 22 22" width="100%" version="1.1" xmlns:cc="http://creativecommons.org/ns#" xmlns:dc="http://purl.org/dc/elements/1.1/">
	<defs id="defs81">
		<style id="colors" type="text/css">.ColorScheme-Text {
        color:#7B7C7E;
      }
      .ColorScheme-Background{
        color:#EFF0F1;
      }
      .ColorScheme-Highlight{
        color:#3DAEE6;
      }
      .ColorScheme-ViewText {
        color:#7B7C7E;
      }
      .ColorScheme-ViewBackground{
        color:#FCFCFC;
      }
      .ColorScheme-ViewHover {
        color:#3DAEE6;
      }
      .ColorScheme-ViewFocus{
        color:#1E92FF;
      }
      .ColorScheme-ButtonText {
        color:#7B7C7E;
      }
      .ColorScheme-ButtonBackground{
        color:#EFF0F1;
      }
      .ColorScheme-ButtonHover {
        color:#3DAEE6;
      }
      .ColorScheme-ButtonFocus{
        color:#1E92FF;
      }</style>
	</defs>
	<metadata id="metadata34">
		<rdf:RDF>
			<cc:Work rdf:about="">
				<dc:format>image/svg+xml</dc:format>
				<dc:type rdf:resource="http://purl.org/dc/dcmitype/StillImage"/>
				<dc:title/>
			</cc:Work>
		</rdf:RDF>
	</metadata>
	<g id="input-keyboard-battery" transform="translate(-104 -1390.4)">
		<rect id="rect3835" style="opacity:.01;fill:#da4453;fill-opacity:.0039216" height="32" width="32" y="1356.4" x="136"/>
		<path id="path3061" d="m140 1372.4v12h24v-12h-24zm1 1h22v10h-22v-10zm1 1v2h2v-2h-2zm3 0v2h2v-2h-2zm3 0v2h2v-2h-2zm3 0v2h2v-2h-2zm3 0v2h2v-2h-2zm3 0v2h2v-2h-2zm3 0v2h2v-2h-2zm-18 3v2h2v-2h-2zm3 0v2h2v-2h-2zm3 0v2h2v-2h-2zm3 0v2h2v-2h-2zm3 0v2h2v-2h-2zm3 0v2h2v-2h-2zm3 0v2h2v-2h-2zm-18 3v2h2v-2h-2zm4 0v2h12v-2h-12zm14 0v2h2v-2h-2z" style="fill:currentColor" class="ColorScheme-Text"/>
		<path id="path3063" class="ColorScheme-Background" style="fill:currentColor;fill-opacity:.4902" d="m155.96 1365.1a3.9637 3.9637 0 1 1 -7.5394 2.4497 3.9637 3.9637 0 1 1 7.5394 -2.4497z"/>
		<path id="path6686-8-1" class="ColorScheme-Text" style="fill:currentColor;fill-rule:evenodd" d="m152.91 1360.4-4.3636 6.5454h2.1817v5.4546l4.3636-6.5456h-2.1817z"/>
	</g>
	<g id="input-keyboard-brightness" transform="translate(-72 -1390.4)">
		<rect id="rect3857" style="opacity:.01;fill:#da4453;fill-opacity:.0039216" height="32" width="32" y="1356.4" x="136"/>
		<path id="path3859" class="ColorScheme-Text" style="fill:currentColor" d="m140 1372.4v12h24v-12h-24zm1 1h22v10h-22v-10zm1 1v2h2v-2h-2zm3 0v2h2v-2h-2zm3 0v2h2v-2h-2zm3 0v2h2v-2h-2zm3 0v2h2v-2h-2zm3 0v2h2v-2h-2zm3 0v2h2v-2h-2zm-18 3v2h2v-2h-2zm3 0v2h2v-2h-2zm3 0v2h2v-2h-2zm3 0v2h2v-2h-2zm3 0v2h2v-2h-2zm3 0v2h2v-2h-2zm3 0v2h2v-2h-2zm-18 3v2h2v-2h-2zm4 0v2h12v-2h-12zm14 0v2h2v-2h-2z"/>
		<path id="path3861" d="m155.96 1365.1a3.9637 3.9637 0 1 1 -7.5394 2.4497 3.9637 3.9637 0 1 1 7.5394 -2.4497z" style="fill:currentColor;fill-opacity:.4902" class="ColorScheme-Background"/>
		<path id="path3863" class="ColorScheme-Text" style="fill:currentColor" d="m151.98 1363.4c1.6474 0 2.9767 1.3355 2.9767 2.9828 0 1.6474-1.3293 2.9828-2.9767 2.9828v-2.9828zm-1.9191-2.9973.22244 2.0514c-.57943.2514-1.081.627-1.483 1.0752l-1.8908-.8403 1.3841 1.5447c-.31368.5349-.51917 1.1297-.58082 1.7549l-2.0144.4326 2.0268.4325c.0312.292.0911.5872.18539.8774.0946.2912.21122.5728.35837.828l-1.3841 1.5448 1.8908-.8403c.40899.4596.9163.815 1.4706 1.0628l-.22245 2.0762 1.0505-1.8043c.58991.1314 1.2098.146 1.829.012l1.0381 1.7796-.21011-2.0515c.56721-.2503 1.0625-.6104 1.4583-1.0504l1.9156.8403-1.3965-1.5571c.30363-.5214.49089-1.1104.55614-1.7178l2.0391-.4326-2.0268-.4449c-.0301-.3002-.0884-.6036-.18536-.9021-.0976-.3003-.22968-.5783-.38312-.8404l1.3841-1.5448-1.9032.8404c-.41148-.4547-.91586-.8071-1.4706-1.0504l.22245-2.0762-1.0381 1.8043c-.57995-.126-1.1964-.1418-1.8043-.012zm1.8908 2.3727c1.5467-.021 2.9937.9584 3.4974 2.5088.62001 1.9082-.42754 3.9526-2.3357 4.5726s-3.9402-.4276-4.5602-2.3358c-.62001-1.9081.41516-3.9401 2.3234-4.5602.35778-.1162.71825-.1805 1.0752-.1854z"/>
	</g>
	<g id="input-mouse-battery" transform="translate(27,29)">
		<rect id="rect4161" style="fill:none" height="24" width="24" y="-30" x="-56"/>
		<rect id="rect4201" style="opacity:.375;fill-rule:evenodd;fill:#000000" ry="8" height="24" width="18" y="-30" x="-53"/>
		<path id="rect4180" style="fill-rule:evenodd;fill:#e0e0e0" d="m-45-29c-3.878 0-7 3.122-7 7v8c0 3.878 3.122 7 7 7h2c3.878 0 7-3.122 7-7v-8c0-3.878-3.122-7-7-7v1.2754c.59580.34556 1 .98354 1 1.7246v5c0 .74107-.40420 1.379-1 1.7246v2.275c0 .554-.446 1-1 1s-1-.446-1-1v-2.2754c-.596-.346-1-.984-1-1.725v-5c0-.74107.40420-1.379 1-1.7246v-1.275zm1 2c-.554 0-1 .446-1 1v4c0 .554.446 1 1 1s1-.446 1-1v-4c0-.554-.446-1-1-1zm-1 13 6 3h-4v2l-6-3h4v-2z"/>
	</g>
	<g id="24-24-input-keyboard-battery" transform="translate(27,29)">
		<rect id="rect3357" style="fill:none" height="24" width="24" y="-30" x="-28"/>
		<path id="path4394" d="m-17-29v2h-4l6 3v-2h4zm-8 6c-1.108 0-2 .892-2 2v11c0 1.108.892 2 2 2h18c1.108 0 2-.892 2-2v-11c0-1.108-.892-2-2-2z" style="opacity:.375;stroke-linejoin:round;fill-rule:evenodd;stroke:#000000;stroke-linecap:round;stroke-width:2;fill:#000000"/>
		<path id="rect4249" d="m-25-23c-1.108 0-2 .892-2 2v11c0 1.108.892 2 2 2h18c1.108 0 2-.892 2-2v-11c0-1.108-.892-2-2-2h-18zm0 1h18c.554 0 1 .446 1 1v11c0 .554-.446 1-1 1h-18c-.554 0-1-.446-1-1v-11c0-.554.446-1 1-1zm0 1v2h2v-2h-2zm3 0v2h2v-2h-2zm3 0v2h2v-2h-2zm3 0v2h2v-2h-2zm3 0v2h2v-2h-2zm3 0v2h3v-2h-3zm-15 3v2h3v-2h-3zm4 0v2h2v-2h-2zm3 0v2h2v-2h-2zm3 0v2h2v-2h-2zm3 0v2h2v-2h-2zm3 0v2h2v-2h-2zm-16 3v2h5v-2h-5zm6 0v2h2v-2h-2zm3 0v2h2v-2h-2zm3 0v2h2v-2h-2zm3 0v2h3v-2h-3zm-15 3v2h2v-2h-2zm3 0v2h2v-2h-2zm3 0v2h9v-2h-9zm10 0v2h2v-2h-2z" style="fill-rule:evenodd;fill:#e0e0e0"/>
		<path id="path4313" d="m-17-29 6 3h-4v2l-6-3h4v-2z" style="fill-rule:evenodd;fill:#e0e0e0"/>
	</g>
	<g id="24-24-input-keyboard-brightness" transform="translate(27,29)">
		<rect id="rect4159" style="fill:none" height="24" width="24" y="-30" x="0"/>
		<path id="path4399" d="m7.5-28c-.277 0-.5.223-.5.5v2c0 .277.223.5.5.5s.5-.223.5-.5v-2c0-.277-.223-.5-.5-.5zm3 0c-.277 0-.5.223-.5.5v2c0 .277.223.5.5.5s.5-.223.5-.5v-2c0-.277-.223-.5-.5-.5zm3 0c-.277 0-.5.223-.5.5v2c0 .277.223.5.5.5s.5-.223.5-.5v-2c0-.277-.223-.5-.5-.5zm3 0c-.277 0-.5.223-.5.5v2c0 .277.223.5.5.5s.5-.223.5-.5v-2c0-.277-.223-.5-.5-.5zm-12 1c-.277 0-.5.223-.5.5v1c0 .277.223.5.5.5s.5-.223.5-.5v-1c0-.277-.223-.5-.5-.5zm15 0c-.277 0-.5.223-.5.5v1c0 .277.223.5.5.5s.5-.223.5-.5v-1c0-.277-.223-.5-.5-.5zm-16.5 3c-.554 0-1 .446-1 1v11c0 .554.446 1 1 1h18c.554 0 1-.446 1-1v-11c0-.554-.446-1-1-1zm1.5 14c-.277 0-.5.223-.5.5s.223.5.5.5.5-.223.5-.5-.223-.5-.5-.5zm3 0c-.277 0-.5.223-.5.5v1c0 .277.223.5.5.5s.5-.223.5-.5v-1c0-.277-.223-.5-.5-.5zm3 0c-.277 0-.5.223-.5.5v1c0 .277.223.5.5.5s.5-.223.5-.5v-1c0-.277-.223-.5-.5-.5zm3 0c-.277 0-.5.223-.5.5v1c0 .277.223.5.5.5s.5-.223.5-.5v-1c0-.277-.223-.5-.5-.5zm3 0c-.277 0-.5.223-.5.5v1c0 .277.223.5.5.5s.5-.223.5-.5v-1c0-.277-.223-.5-.5-.5zm3 0c-.277 0-.5.223-.5.5s.223.5.5.5.5-.223.5-.5-.223-.5-.5-.5z" style="opacity:.375;stroke-linejoin:round;fill-rule:evenodd;stroke:#000000;stroke-linecap:round;stroke-width:2;fill:#000000"/>
		<path id="path4321" style="fill-rule:evenodd;fill:#e0e0e0" d="m3-24h18c.554 0 1 .446 1 1v11c0 .554-.446 1-1 1h-18c-.554 0-1-.446-1-1v-11c0-.554.446-1 1-1zm0 1v2h2v-2zm3 0v2h2v-2zm3 0v2h2v-2zm3 0v2h2v-2zm3 0v2h2v-2zm3 0v2h3v-2zm-15 3v2h3v-2zm4 0v2h2v-2zm3 0v2h2v-2zm3 0v2h2v-2zm3 0v2h2v-2zm3 0v2h2v-2zm-16 3v2h5v-2zm6 0v2h2v-2zm3 0v2h2v-2zm3 0v2h2v-2zm3 0v2h3v-2zm-15 3v2h2v-2zm3 0v2h2v-2zm3 0v2h9v-2zm10 0v2h2v-2z"/>
		<rect id="rect4325" style="fill-rule:evenodd;fill:#e0e0e0" ry=".5" height="3" width="1" y="-28" x="10"/>
		<rect id="rect4358" style="fill-rule:evenodd;fill:#e0e0e0" ry=".5" height="3" width="1" y="-28" x="7"/>
		<rect id="rect4360" style="fill-rule:evenodd;fill:#e0e0e0" ry=".5" height="2" width="1" y="-27" x="4"/>
		<rect id="rect4364" ry=".5" style="fill-rule:evenodd;fill:#e0e0e0" transform="scale(-1,1)" height="3" width="1" y="-28" x="-14"/>
		<rect id="rect4366" ry=".5" style="fill-rule:evenodd;fill:#e0e0e0" transform="scale(-1,1)" height="3" width="1" y="-28" x="-17"/>
		<rect id="rect4368" ry=".5" style="fill-rule:evenodd;fill:#e0e0e0" transform="scale(-1,1)" height="2" width="1" y="-27" x="-20"/>
		<rect id="rect4374" ry=".5" style="fill-rule:evenodd;fill:#e0e0e0" transform="scale(1,-1)" height="1" width="1" y="9" x="4"/>
		<rect id="rect4380" style="fill-rule:evenodd;fill:#e0e0e0" transform="scale(-1)" ry=".5" height="1" width="1" y="9" x="-20"/>
		<rect id="rect4382" style="fill-rule:evenodd;fill:#e0e0e0" transform="scale(1,-1)" ry=".5" height="2" width="1" y="8" x="7"/>
		<rect id="rect4384" ry=".5" style="fill-rule:evenodd;fill:#e0e0e0" transform="scale(1,-1)" height="2" width="1" y="8" x="10"/>
		<rect id="rect4386" style="fill-rule:evenodd;fill:#e0e0e0" transform="scale(1,-1)" ry=".5" height="2" width="1" y="8" x="13"/>
		<rect id="rect4388" ry=".5" style="fill-rule:evenodd;fill:#e0e0e0" transform="scale(1,-1)" height="2" width="1" y="8" x="16"/>
	</g>
</svg>
