<?xml version="1.0" encoding="UTF-8" standalone="no"?>
<svg id="svg" xmlns:rdf="http://www.w3.org/1999/02/22-rdf-syntax-ns#" xmlns="http://www.w3.org/2000/svg" height="100%" viewBox="0 0 22 22" width="100%" version="1.1" xmlns:cc="http://creativecommons.org/ns#" xmlns:dc="http://purl.org/dc/elements/1.1/">
	<defs id="defs81">
		<style id="colors" type="text/css">.ColorScheme-Text {
        color:#7B7C7E;
      }
      .ColorScheme-Background{
        color:#EFF0F1;
      }
      .ColorScheme-Highlight{
        color:#3DAEE6;
      }
      .ColorScheme-ViewText {
        color:#7B7C7E;
      }
      .ColorScheme-ViewBackground{
        color:#FCFCFC;
      }
      .ColorScheme-ViewHover {
        color:#3DAEE6;
      }
      .ColorScheme-ViewFocus{
        color:#1E92FF;
      }
      .ColorScheme-ButtonText {
        color:#7B7C7E;
      }
      .ColorScheme-ButtonBackground{
        color:#EFF0F1;
      }
      .ColorScheme-ButtonHover {
        color:#3DAEE6;
      }
      .ColorScheme-ButtonFocus{
        color:#1E92FF;
      }</style>
	</defs>
	<metadata id="metadata34">
		<rdf:RDF>
			<cc:Work rdf:about="">
				<dc:format>image/svg+xml</dc:format>
				<dc:type rdf:resource="http://purl.org/dc/dcmitype/StillImage"/>
				<dc:title/>
			</cc:Work>
		</rdf:RDF>
	</metadata>
	<g id="input-mouse-battery" transform="translate(27,29)">
		<rect id="rect4161" style="fill:none" height="24" width="24" y="-30" x="-56"/>
		<rect id="rect4201" style="opacity:.375;fill:#000000;fill-rule:evenodd" ry="8" height="24" width="18" y="-30" x="-53"/>
		<path id="rect4180" style="fill:#e0e0e0;fill-rule:evenodd" d="m-45-29c-3.878 0-7 3.122-7 7v8c0 3.878 3.122 7 7 7h2c3.878 0 7-3.122 7-7v-8c0-3.878-3.122-7-7-7v1.2754c.59580.34556 1 .98354 1 1.7246v5c0 .74107-.40420 1.379-1 1.7246v2.275c0 .554-.446 1-1 1s-1-.446-1-1v-2.2754c-.596-.346-1-.984-1-1.725v-5c0-.74107.40420-1.379 1-1.7246v-1.275zm1 2c-.554 0-1 .446-1 1v4c0 .554.446 1 1 1s1-.446 1-1v-4c0-.554-.446-1-1-1zm-1 13 6 3h-4v2l-6-3h4v-2z"/>
	</g>
	<g id="24-24-input-keyboard-battery" transform="translate(27,29)">
		<rect id="rect3357" style="fill:none" height="24" width="24" y="-30" x="-28"/>
		<path id="path4394" style="opacity:.375;stroke-linejoin:round;fill-rule:evenodd;stroke:#000000;stroke-linecap:round;stroke-width:2;fill:#000000" d="m-17-29v2h-4l6 3v-2h4zm-8 6c-1.108 0-2 .892-2 2v11c0 1.108.892 2 2 2h18c1.108 0 2-.892 2-2v-11c0-1.108-.892-2-2-2z"/>
		<path id="rect4249" style="fill:#e0e0e0;fill-rule:evenodd" d="m-25-23c-1.108 0-2 .892-2 2v11c0 1.108.892 2 2 2h18c1.108 0 2-.892 2-2v-11c0-1.108-.892-2-2-2h-18zm0 1h18c.554 0 1 .446 1 1v11c0 .554-.446 1-1 1h-18c-.554 0-1-.446-1-1v-11c0-.554.446-1 1-1zm0 1v2h2v-2h-2zm3 0v2h2v-2h-2zm3 0v2h2v-2h-2zm3 0v2h2v-2h-2zm3 0v2h2v-2h-2zm3 0v2h3v-2h-3zm-15 3v2h3v-2h-3zm4 0v2h2v-2h-2zm3 0v2h2v-2h-2zm3 0v2h2v-2h-2zm3 0v2h2v-2h-2zm3 0v2h2v-2h-2zm-16 3v2h5v-2h-5zm6 0v2h2v-2h-2zm3 0v2h2v-2h-2zm3 0v2h2v-2h-2zm3 0v2h3v-2h-3zm-15 3v2h2v-2h-2zm3 0v2h2v-2h-2zm3 0v2h9v-2h-9zm10 0v2h2v-2h-2z"/>
		<path id="path4313" style="fill:#e0e0e0;fill-rule:evenodd" d="m-17-29 6 3h-4v2l-6-3h4v-2z"/>
	</g>
	<g id="24-24-input-keyboard-brightness" transform="translate(27,29)">
		<rect id="rect4159" style="fill:none" height="24" width="24" y="-30" x="0"/>
		<path id="path4399" style="opacity:.375;stroke-linejoin:round;fill-rule:evenodd;stroke:#000000;stroke-linecap:round;stroke-width:2;fill:#000000" d="m7.5-28c-.277 0-.5.223-.5.5v2c0 .277.223.5.5.5s.5-.223.5-.5v-2c0-.277-.223-.5-.5-.5zm3 0c-.277 0-.5.223-.5.5v2c0 .277.223.5.5.5s.5-.223.5-.5v-2c0-.277-.223-.5-.5-.5zm3 0c-.277 0-.5.223-.5.5v2c0 .277.223.5.5.5s.5-.223.5-.5v-2c0-.277-.223-.5-.5-.5zm3 0c-.277 0-.5.223-.5.5v2c0 .277.223.5.5.5s.5-.223.5-.5v-2c0-.277-.223-.5-.5-.5zm-12 1c-.277 0-.5.223-.5.5v1c0 .277.223.5.5.5s.5-.223.5-.5v-1c0-.277-.223-.5-.5-.5zm15 0c-.277 0-.5.223-.5.5v1c0 .277.223.5.5.5s.5-.223.5-.5v-1c0-.277-.223-.5-.5-.5zm-16.5 3c-.554 0-1 .446-1 1v11c0 .554.446 1 1 1h18c.554 0 1-.446 1-1v-11c0-.554-.446-1-1-1zm1.5 14c-.277 0-.5.223-.5.5s.223.5.5.5.5-.223.5-.5-.223-.5-.5-.5zm3 0c-.277 0-.5.223-.5.5v1c0 .277.223.5.5.5s.5-.223.5-.5v-1c0-.277-.223-.5-.5-.5zm3 0c-.277 0-.5.223-.5.5v1c0 .277.223.5.5.5s.5-.223.5-.5v-1c0-.277-.223-.5-.5-.5zm3 0c-.277 0-.5.223-.5.5v1c0 .277.223.5.5.5s.5-.223.5-.5v-1c0-.277-.223-.5-.5-.5zm3 0c-.277 0-.5.223-.5.5v1c0 .277.223.5.5.5s.5-.223.5-.5v-1c0-.277-.223-.5-.5-.5zm3 0c-.277 0-.5.223-.5.5s.223.5.5.5.5-.223.5-.5-.223-.5-.5-.5z"/>
		<path id="path4321" style="fill:#e0e0e0;fill-rule:evenodd" d="m3-24h18c.554 0 1 .446 1 1v11c0 .554-.446 1-1 1h-18c-.554 0-1-.446-1-1v-11c0-.554.446-1 1-1zm0 1v2h2v-2zm3 0v2h2v-2zm3 0v2h2v-2zm3 0v2h2v-2zm3 0v2h2v-2zm3 0v2h3v-2zm-15 3v2h3v-2zm4 0v2h2v-2zm3 0v2h2v-2zm3 0v2h2v-2zm3 0v2h2v-2zm3 0v2h2v-2zm-16 3v2h5v-2zm6 0v2h2v-2zm3 0v2h2v-2zm3 0v2h2v-2zm3 0v2h3v-2zm-15 3v2h2v-2zm3 0v2h2v-2zm3 0v2h9v-2zm10 0v2h2v-2z"/>
		<rect id="rect4325" style="fill:#e0e0e0;fill-rule:evenodd" ry=".5" height="3" width="1" y="-28" x="10"/>
		<rect id="rect4358" style="fill:#e0e0e0;fill-rule:evenodd" ry=".5" height="3" width="1" y="-28" x="7"/>
		<rect id="rect4360" style="fill:#e0e0e0;fill-rule:evenodd" ry=".5" height="2" width="1" y="-27" x="4"/>
		<rect id="rect4364" ry=".5" style="fill:#e0e0e0;fill-rule:evenodd" transform="scale(-1,1)" height="3" width="1" y="-28" x="-14"/>
		<rect id="rect4366" ry=".5" style="fill:#e0e0e0;fill-rule:evenodd" transform="scale(-1,1)" height="3" width="1" y="-28" x="-17"/>
		<rect id="rect4368" ry=".5" style="fill:#e0e0e0;fill-rule:evenodd" transform="scale(-1,1)" height="2" width="1" y="-27" x="-20"/>
		<rect id="rect4374" ry=".5" style="fill:#e0e0e0;fill-rule:evenodd" transform="scale(1,-1)" height="1" width="1" y="9" x="4"/>
		<rect id="rect4380" style="fill:#e0e0e0;fill-rule:evenodd" transform="scale(-1)" ry=".5" height="1" width="1" y="9" x="-20"/>
		<rect id="rect4382" style="fill:#e0e0e0;fill-rule:evenodd" transform="scale(1,-1)" ry=".5" height="2" width="1" y="8" x="7"/>
		<rect id="rect4384" ry=".5" style="fill:#e0e0e0;fill-rule:evenodd" transform="scale(1,-1)" height="2" width="1" y="8" x="10"/>
		<rect id="rect4386" style="fill:#e0e0e0;fill-rule:evenodd" transform="scale(1,-1)" ry=".5" height="2" width="1" y="8" x="13"/>
		<rect id="rect4388" ry=".5" style="fill:#e0e0e0;fill-rule:evenodd" transform="scale(1,-1)" height="2" width="1" y="8" x="16"/>
	</g>
	<g id="input-keyboard-battery" transform="translate(-5.661 -42.881)">
		<rect id="rect3358" style="fill:none" height="32" width="32" y="-38" x="0"/>
		<path id="rect4164" d="m2-24c-1.108 0-2 .892-2 2v11c0 1.108.892 2 2 2h28c1.108 0 2-.892 2-2v-11c0-1.108-.892-2-2-2h-28zm0 1h28c.554 0 1 .446 1 1v11c0 .554-.446 1-1 1h-28c-.554 0-1-.446-1-1v-11c0-.554.446-1 1-1zm0 1v2h2v-2h-2zm3 0v2h2v-2h-2zm3 0v2h2v-2h-2zm3 0v2h2v-2h-2zm3 0v2h2v-2h-2zm3 0v2h2v-2h-2zm3 0v2h2v-2h-2zm3 0v2h2v-2h-2zm3 0v2h4v-2h-4zm-24 3v2h4v-2h-4zm5 0v2h2v-2h-2zm3 0v2h2v-2h-2zm3 0v2h2v-2h-2zm3 0v2h2v-2h-2zm3 0v2h2v-2h-2zm3 0v2h2v-2h-2zm3 0v2h2v-2h-2zm3 0v2h2v-2h-2zm-26 3v2h5v-2h-5zm6 0v2h2v-2h-2zm3 0v2h2v-2h-2zm3 0v2h2v-2h-2zm3 0v2h2v-2h-2zm3 0v2h2v-2h-2zm3 0v2h2v-2h-2zm3 0v2h4v-2h-4zm-24 3v2h2v-2h-2zm3 0v2h2v-2h-2zm3 0v2h2v-2h-2zm3 0v2h13v-2h-13zm14 0v2h2v-2h-2zm3 0v2h2v-2h-2z" style="color:#7b7c7e;fill-rule:evenodd;fill:#e0e0e0"/>
		<path id="path4259" d="m4-27h17l-3-5 10-3h-17l3 5z" style="color:#7b7c7e;fill-rule:evenodd;fill:#e0e0e0"/>
	</g>
	<g id="input-keyboard-brightness" transform="translate(-5.661 -42.881)">
		<rect id="rect3360" style="fill:none" height="32" width="32" y="-38" x="36"/>
		<path id="path4265" d="m38-27h28c.554 0 1 .446 1 1v11c0 .554-.446 1-1 1h-28c-.554 0-1-.446-1-1v-11c0-.554.446-1 1-1zm0 1v2h2v-2zm3 0v2h2v-2zm3 0v2h2v-2zm3 0v2h2v-2zm3 0v2h2v-2zm3 0v2h2v-2zm3 0v2h2v-2zm3 0v2h2v-2zm3 0v2h4v-2zm-24 3v2h4v-2zm5 0v2h2v-2zm3 0v2h2v-2zm3 0v2h2v-2zm3 0v2h2v-2zm3 0v2h2v-2zm3 0v2h2v-2zm3 0v2h2v-2zm3 0v2h2v-2zm-26 3v2h5v-2zm6 0v2h2v-2zm3 0v2h2v-2zm3 0v2h2v-2zm3 0v2h2v-2zm3 0v2h2v-2zm3 0v2h2v-2zm3 0v2h4v-2zm-24 3v2h2v-2zm3 0v2h2v-2zm3 0v2h2v-2zm3 0v2h13v-2zm14 0v2h2v-2zm3 0v2h2v-2z" style="color:#7b7c7e;fill-rule:evenodd;fill:#e0e0e0"/>
		<path id="rect4285" d="m38.5-30c.277 0 .5.223.5.5v1c0 .277-.223.5-.5.5s-.5-.223-.5-.5v-1c0-.277.223-.5.5-.5zm3-1c.277 0 .5.223.5.5v2c0 .277-.223.5-.5.5s-.5-.223-.5-.5v-2c0-.277.223-.5.5-.5zm3 0c.277 0 .5.223.5.5v2c0 .277-.223.5-.5.5s-.5-.223-.5-.5v-2c0-.277.223-.5.5-.5zm21 1c.277 0 .5.223.5.5v1c0 .277-.223.5-.5.5s-.5-.223-.5-.5v-1c0-.277.223-.5.5-.5zm-3-1c.277 0 .5.223.5.5v2c0 .277-.223.5-.5.5s-.5-.223-.5-.5v-2c0-.277.223-.5.5-.5zm-3 0c.277 0 .5.223.5.5v2c0 .277-.223.5-.5.5s-.5-.223-.5-.5v-2c0-.277.223-.5.5-.5zm-3-1c.277 0 .5.223.5.5v3c0 .277-.223.5-.5.5s-.5-.223-.5-.5v-3c0-.277.223-.5.5-.5zm-3 0c.277 0 .5.223.5.5v3c0 .277-.223.5-.5.5s-.5-.223-.5-.5v-3c0-.277.223-.5.5-.5zm-3 0c.277 0 .5.223.5.5v3c0 .277-.223.5-.5.5s-.5-.223-.5-.5v-3c0-.277.223-.5.5-.5zm-3 0c.277 0 .5.223.5.5v3c0 .277-.223.5-.5.5s-.5-.223-.5-.5v-3c0-.277.223-.5.5-.5z" style="color:#7b7c7e;fill-rule:evenodd;fill:#e0e0e0"/>
		<path id="rect4305" d="m38.438-13h.125c.242 0 .437.195.437.438v.125c0 .242-.195.437-.438.437h-.125c-.242 0-.437-.195-.437-.438v-.125c0-.242.195-.437.438-.437zm3.0625 0c.277 0 .5.223.5.5v1c0 .277-.223.5-.5.5s-.5-.223-.5-.5v-1c0-.277.223-.5.5-.5zm3 0c.277 0 .5.223.5.5v1c0 .277-.223.5-.5.5s-.5-.223-.5-.5v-1c0-.277.223-.5.5-.5zm21 0c.277 0 .5.223.5.5s-.223.5-.5.5-.5-.223-.5-.5.223-.5.5-.5zm-3 0c.277 0 .5.223.5.5v1c0 .277-.223.5-.5.5s-.5-.223-.5-.5v-1c0-.277.223-.5.5-.5zm-3 0c.277 0 .5.223.5.5v1c0 .277-.223.5-.5.5s-.5-.223-.5-.5v-1c0-.277.223-.5.5-.5zm-3 0c.277 0 .5.223.5.5v2c0 .277-.223.5-.5.5s-.5-.223-.5-.5v-2c0-.277.223-.5.5-.5zm-3 0c.277 0 .5.223.5.5v2c0 .277-.223.5-.5.5s-.5-.223-.5-.5v-2c0-.277.223-.5.5-.5zm-3 0c.277 0 .5.223.5.5v2c0 .277-.223.5-.5.5s-.5-.223-.5-.5v-2c0-.277.223-.5.5-.5zm-3 0c.277 0 .5.223.5.5v2c0 .277-.223.5-.5.5s-.5-.223-.5-.5v-2c0-.277.223-.5.5-.5z" style="color:#7b7c7e;fill-rule:evenodd;fill:#e0e0e0"/>
	</g>
</svg>
