<?xml version="1.0" encoding="UTF-8" standalone="no"?>
<!-- Created with Inkscape (http://www.inkscape.org/) -->

<svg
   xmlns:dc="http://purl.org/dc/elements/1.1/"
   xmlns:cc="http://creativecommons.org/ns#"
   xmlns:rdf="http://www.w3.org/1999/02/22-rdf-syntax-ns#"
   xmlns:svg="http://www.w3.org/2000/svg"
   xmlns="http://www.w3.org/2000/svg"
   xmlns:sodipodi="http://sodipodi.sourceforge.net/DTD/sodipodi-0.dtd"
   xmlns:inkscape="http://www.inkscape.org/namespaces/inkscape"
   version="1.1"
   width="24.166878"
   height="24.097322"
   id="svg7826"
   inkscape:version="0.91 r13725"
   sodipodi:docname="ktimer.svgz">
  <sodipodi:namedview
     pagecolor="#323232"
     bordercolor="#666666"
     borderopacity="1"
     objecttolerance="10"
     gridtolerance="10"
     guidetolerance="10"
     inkscape:pageopacity="1"
     inkscape:pageshadow="2"
     inkscape:window-width="1920"
     inkscape:window-height="1056"
     id="namedview50"
     showgrid="false"
     inkscape:showpageshadow="false"
     showborder="false"
     showguides="false"
     inkscape:zoom="11.313708"
     inkscape:cx="52.999931"
     inkscape:cy="9.9584052"
     inkscape:window-x="0"
     inkscape:window-y="-3"
     inkscape:window-maximized="1"
     inkscape:current-layer="svg7826"
     fit-margin-top="0"
     fit-margin-left="0"
     fit-margin-right="0"
     fit-margin-bottom="0">
    <inkscape:grid
       type="xygrid"
       id="grid3027"
       empspacing="4"
       visible="true"
       enabled="true"
       snapvisiblegridlinesonly="true"
       originx="-1.8053566px"
       originy="-28px" />
  </sodipodi:namedview>
  <defs
     id="defs7828" />
  <metadata
     id="metadata7831">
    <rdf:RDF>
      <cc:Work
         rdf:about="">
        <dc:format>image/svg+xml</dc:format>
        <dc:type
           rdf:resource="http://purl.org/dc/dcmitype/StillImage" />
        <dc:title />
        <dc:creator>
          <cc:Agent>
            <dc:title>obnosim</dc:title>
          </cc:Agent>
        </dc:creator>
        <cc:license
           rdf:resource="http://creativecommons.org/licenses/by-nc-sa/3.0/" />
      </cc:Work>
      <cc:License
         rdf:about="http://creativecommons.org/licenses/by-nc-sa/3.0/">
        <cc:permits
           rdf:resource="http://creativecommons.org/ns#Reproduction" />
        <cc:permits
           rdf:resource="http://creativecommons.org/ns#Distribution" />
        <cc:requires
           rdf:resource="http://creativecommons.org/ns#Notice" />
        <cc:requires
           rdf:resource="http://creativecommons.org/ns#Attribution" />
        <cc:prohibits
           rdf:resource="http://creativecommons.org/ns#CommercialUse" />
        <cc:permits
           rdf:resource="http://creativecommons.org/ns#DerivativeWorks" />
        <cc:requires
           rdf:resource="http://creativecommons.org/ns#ShareAlike" />
      </cc:License>
    </rdf:RDF>
  </metadata>
  <g
     id="kalarm-partdisabled"
     transform="translate(26.097322,28.097322)">
    <rect
       y="-28"
       x="0"
       height="24"
       width="24"
       id="rect3006"
       style="opacity:0.125;fill:none;stroke:none" />
    <path
       id="path3795"
       style="opacity:0.375;color:#000000;fill:none;stroke:#000000;stroke-width:4;stroke-linecap:round;stroke-miterlimit:4;stroke-opacity:1;stroke-dasharray:none;marker:none;visibility:visible;display:inline;overflow:visible;enable-background:accumulate"
       d="m 2.011604,-22.734806 c 0.8783636,-1.354224 2.077491,-2.356386 3.2535897,-3.25359 m 13.4696123,0 c 1.354224,0.878364 2.356386,2.077492 3.25359,3.25359 m -13.52393,10.27034 7.071068,-7.071068 m -7.0710679,0 7.0710679,7.071068 M 20,-16 c 0,4.418278 -3.581722,8 -8,8 -4.418278,0 -8,-3.581722 -8,-8 0,-4.418278 3.581722,-8 8,-8 4.418278,0 8,3.581722 8,8 z"
       inkscape:connector-curvature="0" />
    <path
       inkscape:connector-curvature="0"
       d="m 2.011604,-22.734806 c 0.8783636,-1.354224 2.077491,-2.356386 3.2535897,-3.25359 m 13.4696123,0 c 1.354224,0.878364 2.356386,2.077492 3.25359,3.25359 m -13.52393,10.27034 7.071068,-7.071068 m -7.0710679,0 7.0710679,7.071068 M 20,-16 c 0,4.418278 -3.581722,8 -8,8 -4.418278,0 -8,-3.581722 -8,-8 0,-4.418278 3.581722,-8 8,-8 4.418278,0 8,3.581722 8,8 z"
       style="color:#000000;fill:none;stroke:#e0e0e0;stroke-width:2;stroke-linecap:round;stroke-miterlimit:4;stroke-opacity:1;stroke-dasharray:none;marker:none;visibility:visible;display:inline;overflow:visible;enable-background:accumulate"
       id="path3785" />
  </g>
  <g
     transform="translate(52.097322,28.097322)"
     id="kalarm-disabled">
    <rect
       style="opacity:0.125;fill:none;stroke:none"
       id="rect3804"
       width="24"
       height="24"
       x="0"
       y="-28" />
    <path
       inkscape:connector-curvature="0"
       d="m 2.011604,-22.734806 c 0.8783636,-1.354224 2.077491,-2.356386 3.2535897,-3.25359 m 13.4696123,0 c 1.354224,0.878364 2.356386,2.077492 3.25359,3.25359 M 20,-16 c 0,4.418278 -3.581722,8 -8,8 -4.418278,0 -8,-3.581722 -8,-8 0,-4.418278 3.581722,-8 8,-8 4.418278,0 8,3.581722 8,8 z"
       style="opacity:0.375;color:#000000;fill:none;stroke:#000000;stroke-width:4;stroke-linecap:round;stroke-miterlimit:4;stroke-opacity:1;stroke-dasharray:none;marker:none;visibility:visible;display:inline;overflow:visible;enable-background:accumulate"
       id="path3806"
       sodipodi:nodetypes="ccccsssss" />
    <path
       id="path3808"
       style="color:#000000;fill:none;stroke:#e0e0e0;stroke-width:2;stroke-linecap:round;stroke-miterlimit:4;stroke-opacity:1;stroke-dasharray:none;marker:none;visibility:visible;display:inline;overflow:visible;enable-background:accumulate"
       d="m 2.011604,-22.734806 c 0.8783636,-1.354224 2.077491,-2.356386 3.2535897,-3.25359 m 13.4696123,0 c 1.354224,0.878364 2.356386,2.077492 3.25359,3.25359 M 20,-16 c 0,4.418278 -3.581722,8 -8,8 -4.418278,0 -8,-3.581722 -8,-8 0,-4.418278 3.581722,-8 8,-8 4.418278,0 8,3.581722 8,8 z"
       inkscape:connector-curvature="0"
       sodipodi:nodetypes="ccccsssss" />
  </g>
  <g
     transform="translate(0.09732168,28.097322)"
     id="kalarm">
    <rect
       style="opacity:0.125;fill:none;stroke:none"
       id="rect3812"
       width="24"
       height="24"
       x="0"
       y="-28" />
    <path
       inkscape:connector-curvature="0"
       d="m 2.011604,-22.734806 c 0.8783636,-1.354224 2.077491,-2.356386 3.2535897,-3.25359 m 13.4696123,0 c 1.354224,0.878364 2.356386,2.077492 3.25359,3.25359 M 12,-21 l 0,5 3.535534,3.535534 M 20,-16 c 0,4.418278 -3.581722,8 -8,8 -4.418278,0 -8,-3.581722 -8,-8 0,-4.418278 3.581722,-8 8,-8 4.418278,0 8,3.581722 8,8 z"
       style="opacity:0.375;color:#000000;fill:none;stroke:#000000;stroke-width:4;stroke-linecap:round;stroke-miterlimit:4;stroke-opacity:1;stroke-dasharray:none;marker:none;visibility:visible;display:inline;overflow:visible;enable-background:accumulate"
       id="path3814"
       sodipodi:nodetypes="cccccccsssss" />
    <path
       id="path3816"
       style="color:#000000;fill:none;stroke:#e0e0e0;stroke-width:2;stroke-linecap:round;stroke-miterlimit:4;stroke-opacity:1;stroke-dasharray:none;marker:none;visibility:visible;display:inline;overflow:visible;enable-background:accumulate"
       d="m 2.011604,-22.734806 c 0.8783636,-1.354224 2.077491,-2.356386 3.2535897,-3.25359 m 13.4696123,0 c 1.354224,0.878364 2.356386,2.077492 3.25359,3.25359 M 12,-21 l 0,5 3.535534,3.535534 M 20,-16 c 0,4.418278 -3.581722,8 -8,8 -4.418278,0 -8,-3.581722 -8,-8 0,-4.418278 3.581722,-8 8,-8 4.418278,0 8,3.581722 8,8 z"
       inkscape:connector-curvature="0"
       sodipodi:nodetypes="cccccccsssss" />
  </g>
</svg>
