<?xml version="1.0" encoding="UTF-8" standalone="no"?>
<!-- Created with Inkscape (http://www.inkscape.org/) -->

<svg
   xmlns:dc="http://purl.org/dc/elements/1.1/"
   xmlns:cc="http://creativecommons.org/ns#"
   xmlns:rdf="http://www.w3.org/1999/02/22-rdf-syntax-ns#"
   xmlns:svg="http://www.w3.org/2000/svg"
   xmlns="http://www.w3.org/2000/svg"
   xmlns:sodipodi="http://sodipodi.sourceforge.net/DTD/sodipodi-0.dtd"
   xmlns:inkscape="http://www.inkscape.org/namespaces/inkscape"
   version="1.1"
   width="24"
   height="24"
   id="svg3045"
   inkscape:version="0.91 r13725"
   sodipodi:docname="kdeconnect.svgz">
  <sodipodi:namedview
     pagecolor="#323232"
     bordercolor="#666666"
     borderopacity="1"
     objecttolerance="10"
     gridtolerance="10"
     guidetolerance="10"
     inkscape:pageopacity="1"
     inkscape:pageshadow="2"
     inkscape:window-width="1920"
     inkscape:window-height="1056"
     id="namedview10"
     showgrid="true"
     inkscape:showpageshadow="false"
     showborder="false"
     fit-margin-top="0"
     fit-margin-left="0"
     fit-margin-right="0"
     fit-margin-bottom="0"
     inkscape:zoom="16"
     inkscape:cx="27.510472"
     inkscape:cy="10.511032"
     inkscape:window-x="0"
     inkscape:window-y="-3"
     inkscape:window-maximized="1"
     inkscape:current-layer="svg3045">
    <inkscape:grid
       type="xygrid"
       id="grid2987"
       empspacing="4"
       visible="true"
       enabled="true"
       snapvisiblegridlinesonly="true"
       originx="0px"
       originy="8px" />
  </sodipodi:namedview>
  <defs
     id="defs3047" />
  <metadata
     id="metadata3050">
    <rdf:RDF>
      <cc:Work
         rdf:about="">
        <dc:format>image/svg+xml</dc:format>
        <dc:type
           rdf:resource="http://purl.org/dc/dcmitype/StillImage" />
        <dc:title />
        <dc:creator>
          <cc:Agent>
            <dc:title>obnosim</dc:title>
          </cc:Agent>
        </dc:creator>
        <cc:license
           rdf:resource="http://creativecommons.org/licenses/by-nc-sa/3.0/" />
      </cc:Work>
      <cc:License
         rdf:about="http://creativecommons.org/licenses/by-nc-sa/3.0/">
        <cc:permits
           rdf:resource="http://creativecommons.org/ns#Reproduction" />
        <cc:permits
           rdf:resource="http://creativecommons.org/ns#Distribution" />
        <cc:requires
           rdf:resource="http://creativecommons.org/ns#Notice" />
        <cc:requires
           rdf:resource="http://creativecommons.org/ns#Attribution" />
        <cc:prohibits
           rdf:resource="http://creativecommons.org/ns#CommercialUse" />
        <cc:permits
           rdf:resource="http://creativecommons.org/ns#DerivativeWorks" />
        <cc:requires
           rdf:resource="http://creativecommons.org/ns#ShareAlike" />
      </cc:License>
    </rdf:RDF>
  </metadata>
  <g
     id="kdeconnect"
     transform="translate(0,-8)">
    <rect
       y="8"
       x="0"
       height="24"
       width="24"
       id="rect2989"
       style="fill:none;stroke:none" />
    <path
       d="m 12,29 c 0.343663,0 0.666355,-0.025 1,-0.0625 C 9.49893,28.543965 6.610112,26.136953 5.5,22.90625 5.736358,22.558156 5.836195,22.125811 5.71875,21.6875 5.504337,20.887301 4.675199,20.410587 3.875,20.625 c -0.800199,0.214413 -1.276913,1.043551 -1.0625,1.84375 0.127308,0.475118 0.482145,0.830446 0.90625,1 C 5.072898,26.720868 8.256063,29 12,29 z m 0,-18 c -0.343663,0 -0.666355,0.025 -1,0.0625 3.50107,0.393535 6.389888,2.800547 7.5,6.03125 -0.236358,0.348094 -0.336195,0.780439 -0.21875,1.21875 0.214413,0.800199 1.043551,1.276913 1.84375,1.0625 0.800199,-0.214413 1.276913,-1.043551 1.0625,-1.84375 -0.127308,-0.475118 -0.482145,-0.830446 -0.90625,-1 C 18.927102,13.279132 15.743937,11 12,11 z m -3.7532629,5.000052 c -0.131324,-0.0015 -0.248248,0.120084 -0.246698,0.2514 l 0,7.499937 c -0.0025,0.131316 0.115374,0.250148 0.246698,0.248596 l 1.6171858,0 c 0.074749,5e-4 0.1488991,-0.03513 0.1952991,-0.09375 l 1.961508,-2.492166 2.164607,2.499979 c 0.04625,0.05376 0.116574,0.08599 0.187498,0.08594 l 1.351564,0 c 0.183673,0 0.307822,-0.253246 0.195322,-0.398434 l -2.794726,-3.601533 2.794726,-3.601532 c 0.11275,-0.145518 -0.0125,-0.399369 -0.196572,-0.398434 l -1.351564,0 c -0.07092,-5.5e-5 -0.141249,0.03217 -0.187498,0.08594 l -4.187315,4.843692 -0.0077,-4.679668 c 0.0025,-0.131316 -0.1186741,-0.25155 -0.2499976,-0.249998 l -1.4921873,0 z"
       style="color:#000000;fill:none;fill-opacity:1;fill-rule:nonzero;stroke:#000000;stroke-width:2;marker:none;visibility:visible;display:inline;overflow:visible;enable-background:accumulate;stroke-opacity:1;stroke-miterlimit:4;stroke-dasharray:none;stroke-linejoin:round;opacity:0.375"
       id="path3000" />
    <path
       id="path3924"
       style="color:#000000;fill:#e0e0e0;fill-opacity:1;fill-rule:nonzero;stroke:none;stroke-width:1px;marker:none;visibility:visible;display:inline;overflow:visible;enable-background:accumulate"
       d="m 12,29 c 0.343663,0 0.666355,-0.025 1,-0.0625 C 9.49893,28.543965 6.610112,26.136953 5.5,22.90625 5.736358,22.558156 5.836195,22.125811 5.71875,21.6875 5.504337,20.887301 4.675199,20.410587 3.875,20.625 c -0.800199,0.214413 -1.276913,1.043551 -1.0625,1.84375 0.127308,0.475118 0.482145,0.830446 0.90625,1 C 5.072898,26.720868 8.256063,29 12,29 z m 0,-18 c -0.343663,0 -0.666355,0.025 -1,0.0625 3.50107,0.393535 6.389888,2.800547 7.5,6.03125 -0.236358,0.348094 -0.336195,0.780439 -0.21875,1.21875 0.214413,0.800199 1.043551,1.276913 1.84375,1.0625 0.800199,-0.214413 1.276913,-1.043551 1.0625,-1.84375 -0.127308,-0.475118 -0.482145,-0.830446 -0.90625,-1 C 18.927102,13.279132 15.743937,11 12,11 z m -3.7532629,5.000052 c -0.131324,-0.0015 -0.248248,0.120084 -0.246698,0.2514 l 0,7.499937 c -0.0025,0.131316 0.115374,0.250148 0.246698,0.248596 l 1.6171858,0 c 0.074749,5e-4 0.1488991,-0.03513 0.1952991,-0.09375 l 1.961508,-2.492166 2.164607,2.499979 c 0.04625,0.05376 0.116574,0.08599 0.187498,0.08594 l 1.351564,0 c 0.183673,0 0.307822,-0.253246 0.195322,-0.398434 l -2.794726,-3.601533 2.794726,-3.601532 c 0.11275,-0.145518 -0.0125,-0.399369 -0.196572,-0.398434 l -1.351564,0 c -0.07092,-5.5e-5 -0.141249,0.03217 -0.187498,0.08594 l -4.187315,4.843692 -0.0077,-4.679668 c 0.0025,-0.131316 -0.1186741,-0.25155 -0.2499976,-0.249998 l -1.4921873,0 z" />
  </g>
</svg>
