<?xml version="1.0" encoding="UTF-8" standalone="no"?>
<svg id="svg2" xmlns:rdf="http://www.w3.org/1999/02/22-rdf-syntax-ns#" xmlns="http://www.w3.org/2000/svg" height="22" width="22" version="1.1" xmlns:cc="http://creativecommons.org/ns#" xmlns:dc="http://purl.org/dc/elements/1.1/">
	<defs id="defs4">
		<style id="current-color-scheme" type="text/css">
			.ColorScheme-Text { color:#0000FF; }
		</style>
	</defs>
	<metadata id="metadata7">
		<rdf:RDF>
			<cc:Work rdf:about="">
				<dc:format>image/svg+xml</dc:format>
				<dc:type rdf:resource="http://purl.org/dc/dcmitype/StillImage"/>
				<dc:title/>
			</cc:Work>
		</rdf:RDF>
	</metadata>
	<g id="22-22-keyboard-layout" transform="translate(-33)">
		<rect id="rect4169" style="fill:none" height="22" width="22" y="0" x="33"/>
		<path id="rect4177" class="ColorScheme-Text" style="opacity:.875;fill:currentColor" d="m38 1c-2.216 0-4 1.784-4 4v12c0 2.216 1.784 4 4 4h12c2.216 0 4-1.784 4-4v-12c0-2.216-1.784-4-4-4h-12zm0 1h12c1.662 0 3 1.338 3 3v11c0 1.662-1.338 3-3 3h-12c-1.662 0-3-1.338-3-3v-11c0-1.662 1.338-3 3-3z"/>
		<path id="rect4185" d="m41 4-4 10h2l1.125-3h3.75l1.125 3h2l-4-10zm1 2 1.125 3h-2.25z" style="opacity:.875;fill:currentColor" class="ColorScheme-Text"/>
	</g>
	<g id="keyboard-layout" transform="translate(-9)">
		<rect id="rect3342" style="fill:none" height="32" width="32" y="-10" x="33"/>
		<path id="path3344" style="opacity:.875;fill:currentColor" d="m38-9c-2.216 0-4 1.784-4 4v22c0 2.216 1.784 4 4 4h22c2.216 0 4-1.784 4-4v-22c0-2.216-1.784-4-4-4zm0 1h22c1.662 0 3 1.338 3 3v21c0 1.662-1.338 3-3 3h-22c-1.662 0-3-1.338-3-3v-21c0-1.662 1.338-3 3-3z" class="ColorScheme-Text"/>
		<path id="path3346" style="opacity:.875;fill:currentColor" d="m43-4-4 10h2l1.125-3h3.75l1.125 3h2l-4-10zm1 2 1.125 3h-2.25z" class="ColorScheme-Text"/>
	</g>
</svg>
