<?xml version="1.0" encoding="UTF-8" standalone="no"?>
<svg id="svg3727" xmlns:rdf="http://www.w3.org/1999/02/22-rdf-syntax-ns#" xmlns="http://www.w3.org/2000/svg" height="22" width="22" version="1.0" xmlns:cc="http://creativecommons.org/ns#" xmlns:dc="http://purl.org/dc/elements/1.1/">
    <defs id="defs3615">
        <style id="current-color-scheme" type="text/css">
            .ColorScheme-Text {
            color:#0000FF;
            }
            .ColorScheme-Background{
            color:#E9E8E8;
            }
            .ColorScheme-ViewText {
            color:#31363b;
            }
            .ColorScheme-ViewBackground{
            color:#ffffff;
            }
            .ColorScheme-ViewHover {
            color:#000000;
            }
            .ColorScheme-ViewFocus{
            color:#5a5a5a;
            }
            .ColorScheme-ButtonText {
            color:#31363b;
            }
            .ColorScheme-ButtonBackground{
            color:#E9E8E8;
            }
            .ColorScheme-ButtonHover {
            color:#1489ff;
            }
            .ColorScheme-ButtonFocus{
            color:#2B74C7;
            }
        </style>
    </defs>
	<metadata id="metadata244">
		<rdf:RDF>
			<cc:Work rdf:about="">
				<dc:format>image/svg+xml</dc:format>
				<dc:type rdf:resource="http://purl.org/dc/dcmitype/StillImage"/>
				<dc:title/>
				<dc:creator>
					<cc:Agent>
						<dc:title>obnosim</dc:title>
					</cc:Agent>
				</dc:creator>
				<cc:license rdf:resource="http://creativecommons.org/licenses/by-nc-sa/3.0/"/>
			</cc:Work>
			<cc:License rdf:about="http://creativecommons.org/licenses/by-nc-sa/3.0/">
				<cc:permits rdf:resource="http://creativecommons.org/ns#Reproduction"/>
				<cc:permits rdf:resource="http://creativecommons.org/ns#Distribution"/>
				<cc:requires rdf:resource="http://creativecommons.org/ns#Notice"/>
				<cc:requires rdf:resource="http://creativecommons.org/ns#Attribution"/>
				<cc:prohibits rdf:resource="http://creativecommons.org/ns#CommercialUse"/>
				<cc:permits rdf:resource="http://creativecommons.org/ns#DerivativeWorks"/>
				<cc:requires rdf:resource="http://creativecommons.org/ns#ShareAlike"/>
			</cc:License>
		</rdf:RDF>
	</metadata>
	<g id="22-22-kmail" transform="translate(-29,3)">
		<rect id="rect3946" style="fill:none" height="22" width="22" y="-3" x="1"/>
		<path id="rect3948" style="fill:currentColor;opacity:.875" class="ColorScheme-Text" d="m2 1c-.554 0-1 .446-1 1v12c0 .554.446 1 1 1h20c.554 0 1-.446 1-1v-12c0-.554-.446-1-1-1h-20zm19.031 1.4062a.50005 .50005 0 0 1 .3125 .9375l-4.656 4.6563 4.6562 4.6562a.50005 .50005 0 1 1 -.6875 .6875l-4.656-4.6565-3.656 3.6565-.344.375-.344-.375-3.656-3.6565-4.6562 4.6565a.50005 .50005 0 1 1 -.6875 -.6875l4.6562-4.656-4.6563-4.6562a.50005 .50005 0 0 1 0.25 -.8438 .50005 .50005 0 0 1 .4376 .1562l4.8438 4.875a.50005 .50005 0 0 1 .0312 .0313l.125.0625a.50005 .50005 0 0 1 .125 .1875l3.5312 3.5 3.5312-3.5.03125-.03125a.50005 .50005 0 0 1 .126 -.1562l.125-.09375 4.8438-4.875a.50005 .50005 0 0 1 .375 -.25z"/>
	</g>
	<g id="kmail" transform="matrix(1.3333 0 0 1.3333 -5 -28.667)">
		<rect id="rect3341" style="fill:none" height="24" width="24" y="-4" x="0"/>
		<path id="rect3345" style="opacity:.875;fill-rule:evenodd;fill:currentColor" d="m2-27c-0.554 0-1 .446-1 1v16c0 0.554 0.446 1 1 1h28c.554 0 1-0.446 1-1v-16c0-.554-.446-1-1-1h-28zm.99414 1.4941a.50005 .50005 0 0 1 .35938 .15234l6.9492 6.9473a.50005 .50005 0 0 1 .01172 .0098 .50005 .50005 0 0 1 .0918 .09375l5.5938 5.5938 5.5938-5.5938a.50005 .50005 0 0 1 .0098 -.01172 .50005 .50005 0 0 1 .09375 -.0918l6.9492-6.9473a.50087 .50087 0 1 1 .70703 .70703l-6.646 6.647 6.6445 6.6465a.50087 .50087 0 1 1 -.70703 .70703l-6.647-6.644-6 6-6-6-6.6465 6.6445a.50087 .50087 0 1 1 -.7075 -.708l6.6445-6.646-6.6445-6.646a.50005 .50005 0 0 1 .34766 -.85938z" transform="matrix(0.75 0 0 0.75 0 21.5)" class="ColorScheme-Text"/>
	</g>
	<g id="mail-unread-new" transform="translate(-29,3)">
		<rect id="rect3989" style="fill:none" height="22" width="22" y="-3" x="29"/>
		<path id="rect4011" d="m40-2.75c-1.3608 0-2.7772.61425-4.5 1.75h9c-1.723-1.1358-3.139-1.75-4.5-1.75zm-9 2.75v2.4062 2.5938.3125l1.0312 1c.076-.1796.261-.3125.469-.3125h15c.20775 0 .39305.13292.46875.3125l1.031-1v-.3125-2.5938-2.4062h-3.062-11.876-3.062zm1.5 2h5c.277 0 .5.223.5.5s-.223.5-.5.5h-5c-.277 0-.5-.223-.5-.5s.223-.5.5-.5zm-2.5 1.1875c-.353.2878-.622.5034-1 .8125v13c0 .554.446 1 1 1h20c.554 0 1-.446 1-1v-13c-.378-.3091-.647-.5247-1-.8125v2.3125a.50005 .50005 0 0 1 -.156 .3438l-5.156 5.1562 4.6562 4.6562a.50005 .50005 0 1 1 -.6875 .6875l-4.844-4.844h-7.625l-4.8438 4.8438a.50005 .50005 0 1 1 -.6875 -.6875l4.656-4.656-5.156-5.1562a.50005 .50005 0 0 1 -.156 -.3438v-2.3125zm5.438.8125h12.124c.247 0 .438.1911.438.4375v.125c0 .2464-.191.4375-.438.4375h-12.124c-.247 0-.438-.1911-.438-.4375v-.125c0-.2464.191-.4375.438-.4375zm-2.75 3 1 1h12.625l1-1h-14.625zm2 2 1 1h8.625l1-1h-10.625z" style="fill:currentColor;opacity:.875" class="ColorScheme-Text"/>
	</g>
</svg>
