<?xml version="1.0" encoding="UTF-8" standalone="no"?>
<!-- Created with Inkscape (http://www.inkscape.org/) -->

<svg
     xmlns:dc="http://purl.org/dc/elements/1.1/"
     xmlns:cc="http://creativecommons.org/ns#"
     xmlns:rdf="http://www.w3.org/1999/02/22-rdf-syntax-ns#"
     xmlns:svg="http://www.w3.org/2000/svg"
     xmlns="http://www.w3.org/2000/svg"
     xmlns:sodipodi="http://sodipodi.sourceforge.net/DTD/sodipodi-0.dtd"
     xmlns:inkscape="http://www.inkscape.org/namespaces/inkscape"
     version="1.1"
     width="22"
     height="22"
     id="svg3053"
     inkscape:version="0.91 r13725"
     sodipodi:docname="konv_message.svgz">
    <sodipodi:namedview
         pagecolor="#323232"
         bordercolor="#666666"
         borderopacity="1"
         objecttolerance="10"
         gridtolerance="10"
         guidetolerance="10"
         inkscape:pageopacity="1"
         inkscape:pageshadow="2"
         inkscape:window-width="960"
         inkscape:window-height="1049"
         id="namedview10"
         showgrid="true"
         inkscape:showpageshadow="false"
         showborder="false"
         inkscape:zoom="19.666667"
         inkscape:cx="27.830464"
         inkscape:cy="16.65653"
         inkscape:window-x="0"
         inkscape:window-y="0"
         inkscape:window-maximized="0"
         inkscape:current-layer="konv_message"
         fit-margin-top="0"
         fit-margin-left="0"
         fit-margin-right="0"
         fit-margin-bottom="0">
        <inkscape:grid
             type="xygrid"
             id="grid3336"
             originx="-1"
             originy="-1" />
    </sodipodi:namedview>
    <defs
         id="defs3055" />
    <metadata
         id="metadata3058">
        <rdf:RDF>
            <cc:Work
                 rdf:about="">
                <dc:format>image/svg+xml</dc:format>
                <dc:type
                     rdf:resource="http://purl.org/dc/dcmitype/StillImage" />
                <dc:title></dc:title>
                <dc:creator>
                    <cc:Agent>
                        <dc:title>obnosim</dc:title>
                    </cc:Agent>
                </dc:creator>
                <cc:license
                     rdf:resource="http://creativecommons.org/licenses/by-nc-sa/3.0/" />
            </cc:Work>
            <cc:License
                 rdf:about="http://creativecommons.org/licenses/by-nc-sa/3.0/">
                <cc:permits
                     rdf:resource="http://creativecommons.org/ns#Reproduction" />
                <cc:permits
                     rdf:resource="http://creativecommons.org/ns#Distribution" />
                <cc:requires
                     rdf:resource="http://creativecommons.org/ns#Notice" />
                <cc:requires
                     rdf:resource="http://creativecommons.org/ns#Attribution" />
                <cc:prohibits
                     rdf:resource="http://creativecommons.org/ns#CommercialUse" />
                <cc:permits
                     rdf:resource="http://creativecommons.org/ns#DerivativeWorks" />
                <cc:requires
                     rdf:resource="http://creativecommons.org/ns#ShareAlike" />
            </cc:License>
        </rdf:RDF>
    </metadata>
    <g
         id="konv_message"
         transform="translate(27,-1.0000019)">
        <rect
             y="1.0000019"
             x="-27"
             height="22"
             width="22"
             id="rect2995"
             style="opacity:0.375;fill:none;stroke:none" />
        <path
             id="path3765"
             d="m -16,1 c -6.075132,0 -11,4.9248678 -11,11 0,6.075132 4.924868,11 11,11 l 11,0 0,-11 C -5,5.9248678 -9.9248678,1 -16,1 Z m -4,4 8,0 c 0.554,0 1,0.446 1,1 0,0.554 -0.446,1 -1,1 l -8,0 c -0.554,0 -1,-0.446 -1,-1 0,-0.554 0.446,-1 1,-1 z m -3,4 14,0 c 0.554,0 1,0.446 1,1 0,0.554 -0.446,1 -1,1 l -14,0 c -0.554,0 -1,-0.446 -1,-1 0,-0.554 0.446,-1 1,-1 z m 0,4 14,0 c 0.554,0 1,0.446 1,1 0,0.554 -0.446,1 -1,1 l -14,0 c -0.554,0 -1,-0.446 -1,-1 0,-0.554 0.446,-1 1,-1 z m 2,4 10,0 c 0.554,0 1,0.446 1,1 0,0.554 -0.446,1 -1,1 l -10,0 c -0.554,0 -1,-0.446 -1,-1 0,-0.554 0.446,-1 1,-1 z"
             style="color:#000000;display:inline;overflow:visible;visibility:visible;fill:#e0e0e0;fill-opacity:1;fill-rule:nonzero;stroke:none;stroke-width:1px;marker:none;enable-background:accumulate"
             inkscape:connector-curvature="0" />
    </g>
</svg>
