<?xml version="1.0" encoding="UTF-8" standalone="no"?>
<svg id="svg3053" xmlns:rdf="http://www.w3.org/1999/02/22-rdf-syntax-ns#" xmlns="http://www.w3.org/2000/svg" height="22" width="22" version="1.1" xmlns:cc="http://creativecommons.org/ns#" xmlns:dc="http://purl.org/dc/elements/1.1/">
	<defs id="defs3615">
		<style id="current-color-scheme" type="text/css">
			.ColorScheme-Text { color:#0000FF; }
		</style>
	</defs>
	<metadata id="metadata7">
		<rdf:RDF>
			<cc:Work rdf:about="">
				<dc:format>image/svg+xml</dc:format>
				<dc:type rdf:resource="http://purl.org/dc/dcmitype/StillImage"/>
				<dc:title/>
				<dc:creator>
					<cc:Agent>
						<dc:title>obnosim</dc:title>
					</cc:Agent>
				</dc:creator>
				<cc:license rdf:resource="http://creativecommons.org/licenses/by-sa/3.0/"/>
			</cc:Work>
			<cc:License rdf:about="http://creativecommons.org/licenses/by-sa/3.0/">
				<cc:permits rdf:resource="http://creativecommons.org/ns#Reproduction"/>
				<cc:permits rdf:resource="http://creativecommons.org/ns#Distribution"/>
				<cc:requires rdf:resource="http://creativecommons.org/ns#Notice"/>
				<cc:requires rdf:resource="http://creativecommons.org/ns#Attribution"/>
				<cc:permits rdf:resource="http://creativecommons.org/ns#DerivativeWorks"/>
				<cc:requires rdf:resource="http://creativecommons.org/ns#ShareAlike"/>
			</cc:License>
		</rdf:RDF>
	</metadata>
	<g id="22-22-konversation" transform="translate(27 -1)">
		<rect style="opacity:.375;fill:none" height="22" width="22" y="1" x="-27"/>
		<path d="m12 1c-6.0751 0-11 4.9249-11 11 0 6.075 4.9249 11 11 11h11v-11c0-6.0751-4.925-11-11-11zm0 2c4.9706 0 9 4.0294 9 9v9h-9c-4.9706 0-9-4.029-9-9 0-4.9706 4.0294-9 9-9z" style="opacity:.875;fill:currentColor" transform="translate(-28 .0000019073)" class="ColorScheme-Text"/>
	</g>
	<g id="konversation">
		<rect style="opacity:.875;fill:none" height="32" width="32" y="-34" x="0"/>
		<path style="opacity:.875;fill-rule:evenodd;fill:currentColor" d="m16-33a15 15 0 0 0 -15 15 15 15 0 0 0 15 15h15v-15a15 15 0 0 0 -15 -15zm0 2a13 13 0 0 1 13 13v13h-13a13 13 0 0 1 -13 -13 13 13 0 0 1 13 -13z" class="ColorScheme-Text"/>
	</g>
</svg>
