<?xml version="1.0" encoding="UTF-8" standalone="no"?>
<svg id="svg3053" xmlns:rdf="http://www.w3.org/1999/02/22-rdf-syntax-ns#" xmlns="http://www.w3.org/2000/svg" height="22" width="22" version="1.1" xmlns:cc="http://creativecommons.org/ns#" xmlns:dc="http://purl.org/dc/elements/1.1/">
	<defs id="defs3615">
		<style id="current-color-scheme" type="text/css">
			.ColorScheme-Text { color:#0000FF; }
		</style>
	</defs>
	<metadata id="metadata3058">
		<rdf:RDF>
			<cc:Work rdf:about="">
				<dc:format>image/svg+xml</dc:format>
				<dc:type rdf:resource="http://purl.org/dc/dcmitype/StillImage"/>
				<dc:title/>
				<dc:creator>
					<cc:Agent>
						<dc:title>obnosim</dc:title>
					</cc:Agent>
				</dc:creator>
				<cc:license rdf:resource="http://creativecommons.org/licenses/by-nc-sa/3.0/"/>
			</cc:Work>
			<cc:License rdf:about="http://creativecommons.org/licenses/by-nc-sa/3.0/">
				<cc:permits rdf:resource="http://creativecommons.org/ns#Reproduction"/>
				<cc:permits rdf:resource="http://creativecommons.org/ns#Distribution"/>
				<cc:requires rdf:resource="http://creativecommons.org/ns#Notice"/>
				<cc:requires rdf:resource="http://creativecommons.org/ns#Attribution"/>
				<cc:prohibits rdf:resource="http://creativecommons.org/ns#CommercialUse"/>
				<cc:permits rdf:resource="http://creativecommons.org/ns#DerivativeWorks"/>
				<cc:requires rdf:resource="http://creativecommons.org/ns#ShareAlike"/>
			</cc:License>
		</rdf:RDF>
	</metadata>
	<g id="22-22-konv_message" transform="translate(27 -1)">
		<rect id="rect2995" style="opacity:.375;fill:none" height="22" width="22" y="1" x="-27"/>
		<path id="path3765" d="m-16 1c-6.0751 0-11 4.9249-11 11s4.9249 11 11 11h11v-11c0-6.0751-4.9249-11-11-11zm-4 4h8c.554 0 1 .446 1 1s-.446 1-1 1h-8c-.554 0-1-.446-1-1s.446-1 1-1zm-3 4h14c.554 0 1 .446 1 1s-.446 1-1 1h-14c-.554 0-1-.446-1-1s.446-1 1-1zm0 4h14c.554 0 1 .446 1 1s-.446 1-1 1h-14c-.554 0-1-.446-1-1s.446-1 1-1zm2 4h10c.554 0 1 .446 1 1s-.446 1-1 1h-10c-.554 0-1-.446-1-1s.446-1 1-1z" style="opacity:.875;fill:currentColor" class="ColorScheme-Text"/>
	</g>
	<g id="konv_message">
		<rect id="rect3345" style="opacity:.875;fill:none" height="32" width="32" y="-34" x="0"/>
		<path id="path4149" class="ColorScheme-Text" style="opacity:.875;fill-rule:evenodd;fill:currentColor" d="m16-33a15 15 0 0 0 -15 15 15 15 0 0 0 15 15h15v-15a15 15 0 0 0 -15 -15zm-6 6h12c.554 0 1 .446 1 1s-.446 1-1 1h-12c-.554 0-1-.446-1-1s.446-1 1-1zm-4 5h20c.554 0 1 .446 1 1s-.446 1-1 1h-20c-.554 0-1-.446-1-1s.446-1 1-1zm0 5h20c.554 0 1 .446 1 1s-.446 1-1 1h-20c-.554 0-1-.446-1-1s.446-1 1-1zm4 5h12c.554 0 1 .446 1 1s-.446 1-1 1h-12c-.554 0-1-.446-1-1s.446-1 1-1z"/>
	</g>
</svg>
