<?xml version="1.0" encoding="UTF-8" standalone="no"?>
<svg id="svg3846" xmlns:rdf="http://www.w3.org/1999/02/22-rdf-syntax-ns#" xmlns="http://www.w3.org/2000/svg" height="22" width="22" version="1.1" xmlns:cc="http://creativecommons.org/ns#" xmlns:dc="http://purl.org/dc/elements/1.1/">
    <defs id="defs3615">
        <style id="current-color-scheme" type="text/css">
            .ColorScheme-Text {
            color:#0000FF;
            }
            .ColorScheme-Background{
            color:#E9E8E8;
            }
            .ColorScheme-ViewText {
            color:#31363b;
            }
            .ColorScheme-ViewBackground{
            color:#ffffff;
            }
            .ColorScheme-ViewHover {
            
            }
            .ColorScheme-ViewFocus{
            color:#5a5a5a;
            }
            .ColorScheme-ButtonText {
            color:#31363b;
            }
            .ColorScheme-ButtonBackground{
            color:#E9E8E8;
            }
            .ColorScheme-ButtonHover {
            color:#1489ff;
            }
            .ColorScheme-ButtonFocus{
            color:#2B74C7;
            }
        </style>
    </defs>
	<metadata id="metadata3851">
		<rdf:RDF>
			<cc:Work rdf:about="">
				<dc:format>image/svg+xml</dc:format>
				<dc:type rdf:resource="http://purl.org/dc/dcmitype/StillImage"/>
				<dc:title/>
				<dc:creator>
					<cc:Agent>
						<dc:title>obnosim</dc:title>
					</cc:Agent>
				</dc:creator>
				<cc:license rdf:resource="http://creativecommons.org/licenses/by-nc-sa/3.0/"/>
			</cc:Work>
			<cc:License rdf:about="http://creativecommons.org/licenses/by-nc-sa/3.0/">
				<cc:permits rdf:resource="http://creativecommons.org/ns#Reproduction"/>
				<cc:permits rdf:resource="http://creativecommons.org/ns#Distribution"/>
				<cc:requires rdf:resource="http://creativecommons.org/ns#Notice"/>
				<cc:requires rdf:resource="http://creativecommons.org/ns#Attribution"/>
				<cc:prohibits rdf:resource="http://creativecommons.org/ns#CommercialUse"/>
				<cc:permits rdf:resource="http://creativecommons.org/ns#DerivativeWorks"/>
				<cc:requires rdf:resource="http://creativecommons.org/ns#ShareAlike"/>
			</cc:License>
		</rdf:RDF>
	</metadata>
	<g id="korgac" transform="translate(-1)">
		<rect id="rect3842" style="fill:none" height="22" width="22" y="0" x="1"/>
		<path id="path3008" d="m12 5c-4.4183 0-8 3.5817-8 8s3.5817 8 8 8 8-3.5817 8-8-3.5817-8-8-8zm0 2c3.3137 0 6 2.6863 6 6s-2.6863 6-6 6-6-2.686-6-6c0-3.3137 2.6863-6 6-6z" style="fill:currentColor;opacity:.875" class="ColorScheme-Text"/>
		<path id="path3013" d="m13 13c0 .55228-.44772 1-1 1s-1-.44772-1-1 1-5 1-5 1 4.4477 1 5z" style="fill:currentColor;opacity:.875" class="ColorScheme-Text"/>
		<path id="path3016" style="fill:currentColor;opacity:.875" class="ColorScheme-Text" d="m11.293 13.707c-.39052-.39052-.39052-1.0237 0-1.4142.39052-.39052 1.0237-.39052 1.4142 0 .39052.39052 2.8284 4.2426 2.8284 4.2426s-3.8521-2.4379-4.2426-2.8284z"/>
		<path id="path3786" style="fill:currentColor;opacity:.875" d="m5.125 18.781-1.125 2.219 2.2188-1.125c-.3959-.333-.7606-.698-1.0938-1.094zm13.75 0c-.33324.39588-.69787.76050-1.0938 1.0938l2.219 1.125-1.125-2.219z" class="ColorScheme-Text"/>
		<path id="path3799" style="stroke-linejoin:round;stroke:currentColor;opacity:.875;stroke-linecap:round;stroke-width:3;fill:none" d="m6.4688 3.5c-.80342.46774-1.5617 1.0304-2.25 1.7188-.37281.37281-.69190.77797-1 1.1875" class="ColorScheme-Text"/>
		<path id="path3812" style="stroke-linejoin:round;stroke:currentColor;opacity:.875;stroke-linecap:round;stroke-width:3;fill:none" d="m17.531 3.5c.80342.46774 1.5617 1.0304 2.25 1.7188.37281.37281.69190.77797 1 1.1875" class="ColorScheme-Text"/>
		<path id="path3814" style="stroke:currentColor;opacity:.875;fill:none" d="m5 5 2.6165 2.6165" class="ColorScheme-Text"/>
		<path id="path3816" style="stroke:currentColor;opacity:.875;fill:none" d="m19 5-2.617 2.6165" class="ColorScheme-Text"/>
		<path id="path3820" d="m11 6c2 0 2-3 2-4" style="stroke-linejoin:round;stroke-dashoffset:2.6;stroke:currentColor;opacity:.875;stroke-linecap:round;fill:none" class="ColorScheme-Text"/>
		<circle id="path3818" r="1" style="fill:currentColor;opacity:.875" class="ColorScheme-Text" cx="13" cy="2"/>
	</g>
</svg>
