<?xml version="1.0" encoding="UTF-8" standalone="no"?>
<!-- Created with Inkscape (http://www.inkscape.org/) -->

<svg
   xmlns:dc="http://purl.org/dc/elements/1.1/"
   xmlns:cc="http://creativecommons.org/ns#"
   xmlns:rdf="http://www.w3.org/1999/02/22-rdf-syntax-ns#"
   xmlns:svg="http://www.w3.org/2000/svg"
   xmlns="http://www.w3.org/2000/svg"
   xmlns:sodipodi="http://sodipodi.sourceforge.net/DTD/sodipodi-0.dtd"
   xmlns:inkscape="http://www.inkscape.org/namespaces/inkscape"
   version="1.1"
   width="24"
   height="24"
   id="svg3846"
   inkscape:version="0.91 r13725"
   sodipodi:docname="korgac.svg">
  <sodipodi:namedview
     pagecolor="#323232"
     bordercolor="#666666"
     borderopacity="1"
     objecttolerance="10"
     gridtolerance="10"
     guidetolerance="10"
     inkscape:pageopacity="1"
     inkscape:pageshadow="2"
     inkscape:window-width="1920"
     inkscape:window-height="1056"
     id="namedview29"
     showgrid="false"
     inkscape:showpageshadow="false"
     showborder="false"
     showguides="false"
     inkscape:zoom="5.6568542"
     inkscape:cx="29.186893"
     inkscape:cy="11.081129"
     inkscape:window-x="0"
     inkscape:window-y="-3"
     inkscape:window-maximized="1"
     inkscape:current-layer="svg3846">
    <inkscape:grid
       type="xygrid"
       id="grid3006"
       empspacing="5"
       visible="true"
       enabled="true"
       snapvisiblegridlinesonly="true" />
  </sodipodi:namedview>
  <defs
     id="defs3848" />
  <metadata
     id="metadata3851">
    <rdf:RDF>
      <cc:Work
         rdf:about="">
        <dc:format>image/svg+xml</dc:format>
        <dc:type
           rdf:resource="http://purl.org/dc/dcmitype/StillImage" />
        <dc:title />
        <dc:creator>
          <cc:Agent>
            <dc:title>obnosim</dc:title>
          </cc:Agent>
        </dc:creator>
        <cc:license
           rdf:resource="http://creativecommons.org/licenses/by-nc-sa/3.0/" />
      </cc:Work>
      <cc:License
         rdf:about="http://creativecommons.org/licenses/by-nc-sa/3.0/">
        <cc:permits
           rdf:resource="http://creativecommons.org/ns#Reproduction" />
        <cc:permits
           rdf:resource="http://creativecommons.org/ns#Distribution" />
        <cc:requires
           rdf:resource="http://creativecommons.org/ns#Notice" />
        <cc:requires
           rdf:resource="http://creativecommons.org/ns#Attribution" />
        <cc:prohibits
           rdf:resource="http://creativecommons.org/ns#CommercialUse" />
        <cc:permits
           rdf:resource="http://creativecommons.org/ns#DerivativeWorks" />
        <cc:requires
           rdf:resource="http://creativecommons.org/ns#ShareAlike" />
      </cc:License>
    </rdf:RDF>
  </metadata>
  <g
     id="korgac">
    <rect
       y="0"
       x="0"
       height="24"
       width="24"
       id="rect3842"
       style="fill:none;stroke:none" />
    <path
       style="color:#000000;fill:none;fill-opacity:1;fill-rule:nonzero;stroke:#000000;stroke-width:2;marker:none;visibility:visible;display:inline;overflow:visible;enable-background:accumulate;opacity:0.37500000000000000;stroke-opacity:1;stroke-miterlimit:4;stroke-dasharray:none"
       d="M 13 1 C 12.447715 1 12 1.4477153 12 2 C 12 2.3500149 12.196448 2.6338328 12.46875 2.8125 C 12.448872 3.2781743 12.415986 3.7784134 12.28125 4.25 C 12.19379 4.5561088 12.057659 4.8022751 11.90625 5 C 10.172955 5.0202361 8.5823886 5.6069381 7.28125 6.5625 L 6.1875 5.5 C 6.520518 5.2393486 6.8531979 4.99407 7.21875 4.78125 A 1.50015 1.50015 0 0 0 6.21875 2 A 1.50015 1.50015 0 0 0 5.71875 2.21875 C 4.8179356 2.7431934 3.9450282 3.3674718 3.15625 4.15625 C 2.7018104 4.6106896 2.3527285 5.0726926 2.03125 5.5 A 1.50015 1.50015 0 1 0 4.40625 7.3125 C 4.7009751 6.920753 4.9900672 6.5724328 5.28125 6.28125 C 5.3334718 6.2290282 5.3843938 6.17585 5.4375 6.125 L 6.5 7.1875 C 4.960252 8.6456013 4 10.712028 4 13 C 4 17.418278 7.581722 21 12 21 C 16.418278 21 20 17.418278 20 13 C 20 10.712028 19.039748 8.6456013 17.5 7.1875 L 18.5625 6.125 C 18.615606 6.17585 18.666528 6.2290282 18.71875 6.28125 C 19.009933 6.572433 19.299025 6.9207528 19.59375 7.3125 A 1.50015 1.50015 0 1 0 21.96875 5.5 C 21.647271 5.0726928 21.298189 4.6106894 20.84375 4.15625 C 20.054972 3.3674719 19.182065 2.7431935 18.28125 2.21875 A 1.50015 1.50015 0 0 0 17.28125 2 A 1.50015 1.50015 0 0 0 16.78125 4.78125 C 17.146802 4.99407 17.479482 5.2393486 17.8125 5.5 L 16.71875 6.5625 C 15.656079 5.7820696 14.402617 5.239463 13.03125 5.0625 C 13.10744 4.8753902 13.164673 4.6892714 13.21875 4.5 C 13.386129 3.9141741 13.441309 3.3425221 13.46875 2.84375 C 13.773673 2.672456 14 2.374639 14 2 C 14 1.4477153 13.552285 1 13 1 z M 12 7 C 15.313708 7 18 9.6862915 18 13 C 18 16.313708 15.313708 19 12 19 C 8.6862915 19 6 16.313708 6 13 C 6 9.6862915 8.6862915 7 12 7 z M 12 8 C 12 8 11 12.447715 11 13 C 11 13.255922 11.085988 13.523487 11.28125 13.71875 C 11.671775 14.109274 15.53125 16.53125 15.53125 16.53125 C 15.53125 16.53125 13.600649 13.472239 12.9375 12.59375 C 12.773586 11.464135 12 8 12 8 z M 5.125 18.78125 L 4 21 L 6.21875 19.875 C 5.8228702 19.541755 5.458245 19.17713 5.125 18.78125 z M 18.875 18.78125 C 18.541755 19.17713 18.17713 19.541755 17.78125 19.875 L 20 21 L 18.875 18.78125 z "
       id="path2994" />
    <path
       inkscape:connector-curvature="0"
       id="path3008"
       d="m 12,5 c -4.418278,0 -8,3.581722 -8,8 0,4.418278 3.581722,8 8,8 4.418278,0 8,-3.581722 8,-8 0,-4.418278 -3.581722,-8 -8,-8 z m 0,2 c 3.313708,0 6,2.6862915 6,6 0,3.313708 -2.686292,6 -6,6 C 8.6862915,19 6,16.313708 6,13 6,9.6862915 8.6862915,7 12,7 z"
       style="color:#000000;fill:#e0e0e0;fill-opacity:1;fill-rule:nonzero;stroke:none;stroke-width:1px;marker:none;visibility:visible;display:inline;overflow:visible;enable-background:accumulate" />
    <path
       sodipodi:nodetypes="ssscs"
       inkscape:connector-curvature="0"
       id="path3013"
       d="m 13,13 c 0,0.552285 -0.447715,1 -1,1 -0.552285,0 -1,-0.447715 -1,-1 0,-0.552285 1,-5 1,-5 0,0 1,4.447715 1,5 z"
       style="color:#000000;fill:#e0e0e0;fill-opacity:1;fill-rule:nonzero;stroke:none;stroke-width:1px;marker:none;visibility:visible;display:inline;overflow:visible;enable-background:accumulate" />
    <path
       inkscape:transform-center-x="-1.267767"
       inkscape:transform-center-y="1.267767"
       style="color:#000000;fill:#e0e0e0;fill-opacity:1;fill-rule:nonzero;stroke:none;stroke-width:1px;marker:none;visibility:visible;display:inline;overflow:visible;enable-background:accumulate"
       d="m 11.292893,13.707107 c -0.390524,-0.390525 -0.390524,-1.023689 0,-1.414214 0.390525,-0.390524 1.023689,-0.390524 1.414214,0 0.390524,0.390525 2.828427,4.242641 2.828427,4.242641 0,0 -3.852116,-2.437903 -4.242641,-2.828427 z"
       id="path3016"
       inkscape:connector-curvature="0"
       sodipodi:nodetypes="ssscs" />
    <path
       id="path3786"
       d="M 5.125,18.78125 4,21 6.21875,19.875 C 5.8228702,19.541755 5.458245,19.17713 5.125,18.78125 z m 13.75,0 c -0.333245,0.39588 -0.69787,0.760505 -1.09375,1.09375 L 20,21 18.875,18.78125 z"
       style="fill:#e0e0e0;fill-opacity:1;fill-rule:nonzero;stroke:none"
       inkscape:connector-curvature="0" />
    <path
       inkscape:transform-center-x="7.15625"
       sodipodi:nodetypes="csc"
       inkscape:connector-curvature="0"
       id="path3799"
       d="m 6.46875,3.5 c -0.8034158,0.4677391 -1.561677,1.030427 -2.25,1.71875 -0.3728112,0.3728112 -0.6918982,0.7779728 -1,1.1875"
       style="color:#000000;fill:none;stroke:#e0e0e0;stroke-width:3;stroke-linecap:round;stroke-linejoin:round;stroke-miterlimit:4;stroke-opacity:1;stroke-dasharray:none;marker:none;visibility:visible;display:inline;overflow:visible;enable-background:accumulate" />
    <path
       inkscape:transform-center-y="-8.046875"
       style="color:#000000;fill:none;stroke:#e0e0e0;stroke-width:3;stroke-linecap:round;stroke-linejoin:round;stroke-miterlimit:4;stroke-opacity:1;stroke-dasharray:none;marker:none;visibility:visible;display:inline;overflow:visible;enable-background:accumulate"
       d="m 17.53125,3.5 c 0.803416,0.4677391 1.561677,1.030427 2.25,1.71875 0.372811,0.3728112 0.691898,0.7779728 1,1.1875"
       id="path3812"
       inkscape:connector-curvature="0"
       sodipodi:nodetypes="csc"
       inkscape:transform-center-x="-7.15625" />
    <path
       inkscape:transform-center-y="0.3082719"
       inkscape:transform-center-x="5.6917281"
       inkscape:connector-curvature="0"
       id="path3814"
       d="M 5,5 7.6165438,7.6165438"
       style="fill:none;stroke:#e0e0e0;stroke-opacity:1" />
    <path
       style="fill:none;stroke:#e0e0e0;stroke-opacity:1"
       d="M 19,5 16.383456,7.6165438"
       id="path3816"
       inkscape:connector-curvature="0"
       inkscape:transform-center-x="-5.691728"
       inkscape:transform-center-y="0.3082719" />
    <path
       sodipodi:nodetypes="cc"
       inkscape:connector-curvature="0"
       id="path3820"
       d="m 11,6 c 2,0 2,-3 2,-4"
       style="fill:none;stroke:#e0e0e0;stroke-width:1;stroke-linecap:round;stroke-linejoin:round;stroke-miterlimit:4;stroke-opacity:1;stroke-dasharray:none;stroke-dashoffset:2.6" />
    <path
       d="m 14,2 a 1,1 0 1 1 -2,0 1,1 0 1 1 2,0 z"
       sodipodi:ry="1"
       sodipodi:rx="1"
       sodipodi:cy="2"
       sodipodi:cx="13"
       id="path3818"
       style="color:#000000;fill:#e0e0e0;fill-opacity:1;fill-rule:nonzero;stroke:none;stroke-width:1px;marker:none;visibility:visible;display:inline;overflow:visible;enable-background:accumulate"
       sodipodi:type="arc" />
  </g>
</svg>
