<?xml version="1.0" encoding="UTF-8" standalone="no"?>
<svg id="svg3815" xmlns:rdf="http://www.w3.org/1999/02/22-rdf-syntax-ns#" xmlns="http://www.w3.org/2000/svg" height="22.008" width="22.004" version="1.1" xmlns:cc="http://creativecommons.org/ns#" xmlns:dc="http://purl.org/dc/elements/1.1/">
	<defs id="defs3615">
		<style id="current-color-scheme" type="text/css">
			.ColorScheme-Text { color:#0000FF; }
		</style>
    </defs>
	<metadata id="metadata3820">
		<rdf:RDF>
			<cc:Work rdf:about="">
				<dc:format>image/svg+xml</dc:format>
				<dc:type rdf:resource="http://purl.org/dc/dcmitype/StillImage"/>
				<dc:title/>
				<dc:creator>
					<cc:Agent>
						<dc:title>obnosim</dc:title>
					</cc:Agent>
				</dc:creator>
				<cc:license rdf:resource="http://creativecommons.org/licenses/by-nc-sa/3.0/"/>
			</cc:Work>
			<cc:License rdf:about="http://creativecommons.org/licenses/by-nc-sa/3.0/">
				<cc:permits rdf:resource="http://creativecommons.org/ns#Reproduction"/>
				<cc:permits rdf:resource="http://creativecommons.org/ns#Distribution"/>
				<cc:requires rdf:resource="http://creativecommons.org/ns#Notice"/>
				<cc:requires rdf:resource="http://creativecommons.org/ns#Attribution"/>
				<cc:prohibits rdf:resource="http://creativecommons.org/ns#CommercialUse"/>
				<cc:permits rdf:resource="http://creativecommons.org/ns#DerivativeWorks"/>
				<cc:requires rdf:resource="http://creativecommons.org/ns#ShareAlike"/>
			</cc:License>
		</rdf:RDF>
	</metadata>
	<g id="kpackagekit-updates" transform="translate(-.99767 27.008)">
		<rect id="rect2994" style="opacity:.125;fill:none" height="22" width="22" y="-27" x="1"/>
		<path id="path3814" d="m11.625-27c-.81703.03032-1.6435.15389-2.4688.375-5.8681 1.5724-9.3536 7.6006-7.7812 13.469.76738 2.8639 2.6145 5.145 4.9688 6.5625.40297.23669.68359.19084.84375-.0625.1380-.2394.1101-.5028-.1876-.6878-4.1772-2.8762-5.5464-8.8002-2.5625-13.031 1.1078-1.5706 2.7029-2.6898 4.4688-3.2188 2.2704-.68007 4.7978-.39584 6.8438 1.0938 3.0032 2.1865 3.9704 6.5824 1.6562 9.625-.33067.43476-.72816.80299-1.1562 1.125l-3.25-3.25v10h10l-3.2188-3.2188c2.679-2.6881 3.8967-6.6954 2.8438-10.625-1.2775-4.7679-5.5019-7.9699-10.188-8.1562-.27033-.01075-.54016-.01011-.8125 0z" style="fill:currentColor;opacity:.875" class="ColorScheme-Text"/>
	</g>
	<g id="kpackagekit-security" transform="translate(25.002 27.008)">
		<rect id="rect3878" style="opacity:.125;fill:none" height="22" width="22" y="-27" x="1"/>
		<path id="path3882" style="color:#000000;fill:#65ff21" d="m11.625-27c-.81703.03032-1.6435.15389-2.4688.375-5.8681 1.5724-9.3536 7.6006-7.7812 13.469.76738 2.8639 2.6145 5.145 4.9688 6.5625.40297.23669.68359.19084.84375-.0625.1380-.2394.1101-.5028-.1876-.6878-4.1772-2.8762-5.5464-8.8002-2.5625-13.031 1.1078-1.5706 2.7029-2.6898 4.4688-3.2188 2.2704-.68007 4.7978-.39584 6.8438 1.0938 3.0032 2.1865 3.9704 6.5824 1.6562 9.625-.33067.43476-.72816.80299-1.1562 1.125l-3.25-3.25v10h10l-3.2188-3.2188c2.679-2.6881 3.8967-6.6954 2.8438-10.625-1.2775-4.7679-5.5019-7.9699-10.188-8.1562-.27033-.01075-.54016-.01011-.8125 0z"/>
	</g>
	<g id="kpackagekit-important" transform="translate(51.002 27.008)">
		<rect id="rect3886" style="opacity:.125;fill:none" height="22" width="22" y="-27" x="1"/>
		<path id="path3890" d="m11.625-27c-.81703.03032-1.6435.15389-2.4688.375-5.8681 1.5724-9.3536 7.6006-7.7812 13.469.76738 2.8639 2.6145 5.145 4.9688 6.5625.40297.23669.68359.19084.84375-.0625.1380-.2394.1101-.5028-.1876-.6878-4.1772-2.8762-5.5464-8.8002-2.5625-13.031 1.1078-1.5706 2.7029-2.6898 4.4688-3.2188 2.2704-.68007 4.7978-.39584 6.8438 1.0938 3.0032 2.1865 3.9704 6.5824 1.6562 9.625-.33067.43476-.72816.80299-1.1562 1.125l-3.25-3.25v10h10l-3.2188-3.2188c2.679-2.6881 3.8967-6.6954 2.8438-10.625-1.2775-4.7679-5.5019-7.9699-10.188-8.1562-.27033-.01075-.54016-.01011-.8125 0z" style="color:#000000;fill:#ff2121"/>
	</g>
	<g id="kpackagekit-inactive" style="opacity:.5" transform="translate(77.002 27.008)">
		<rect id="rect3894" style="opacity:.125;fill:none" height="22" width="22" y="-27" x="1"/>
		<path id="path3898" style="fill:currentColor;opacity:.875" class="ColorScheme-Text" d="m11.625-27c-.81703.03032-1.6435.15389-2.4688.375-5.8681 1.5724-9.3536 7.6006-7.7812 13.469.76738 2.8639 2.6145 5.145 4.9688 6.5625.40297.23669.68359.19084.84375-.0625.1380-.2394.1101-.5028-.1876-.6878-4.1772-2.8762-5.5464-8.8002-2.5625-13.031 1.1078-1.5706 2.7029-2.6898 4.4688-3.2188 2.2704-.68007 4.7978-.39584 6.8438 1.0938 3.0032 2.1865 3.9704 6.5824 1.6562 9.625-.33067.43476-.72816.80299-1.1562 1.125l-3.25-3.25v10h10l-3.2188-3.2188c2.679-2.6881 3.8967-6.6954 2.8438-10.625-1.2775-4.7679-5.5019-7.9699-10.188-8.1562-.27033-.01075-.54016-.01011-.8125 0z"/>
	</g>
</svg>
