<?xml version="1.0" encoding="UTF-8" standalone="no"?>
<svg id="svg" xmlns:rdf="http://www.w3.org/1999/02/22-rdf-syntax-ns#" xmlns="http://www.w3.org/2000/svg" height="100%" viewBox="0 0 22 22" width="100%" version="1.1" xmlns:cc="http://creativecommons.org/ns#" xmlns:dc="http://purl.org/dc/elements/1.1/">
	<defs id="defs81">
		<style id="current-color-scheme" type="text/css">.ColorScheme-Text {
			color:#0000FF;
			}
			.ColorScheme-Background{
			color:#E9E8E8;
			}
			.ColorScheme-ViewText {
			color:#31363b;
			}
			.ColorScheme-ViewBackground{
			color:#ffffff;
			}
			.ColorScheme-ViewHover {
			color:#000000;
			}
			.ColorScheme-ViewFocus{
			color:#5a5a5a;
			}
			.ColorScheme-ButtonText {
			color:#31363b;
			}
			.ColorScheme-ButtonBackground{
			color:#E9E8E8;
			}
			.ColorScheme-ButtonHover {
			color:#1489ff;
			}
			.ColorScheme-ButtonFocus{
			color:#2B74C7;
			}</style>
	</defs>
	<metadata id="metadata34">
		<rdf:RDF>
			<cc:Work rdf:about="">
				<dc:format>image/svg+xml</dc:format>
				<dc:type rdf:resource="http://purl.org/dc/dcmitype/StillImage"/>
				<dc:title/>
			</cc:Work>
		</rdf:RDF>
	</metadata>
	<g id="list-add" transform="matrix(1.3333 0 0 1.3333 -6.6667 -32.667)">
		<rect id="rect3342" style="opacity:.875;fill:none" height="24" width="24" y="-1" x="-1"/>
		<path id="path3344" style="opacity:.875;stroke:currentColor;stroke-linecap:round;stroke-width:1.5;fill:none" d="m17.75 11h-13.5m6.75-6.75v13.5" class="ColorScheme-Text"/>
	</g>
	<g id="22-22-list-add">
		<rect id="rect4149" style="opacity:.875;fill:none" height="22" width="22" y="0" x="0"/>
		<path id="path3346" d="m18 11h-14m7-7v14" style="opacity:.875;stroke:currentColor;stroke-linecap:round;stroke-width:2;fill:none" class="ColorScheme-Text"/>
	</g>
	<g id="16-16-list-add" transform="matrix(.72727 0 0 .72727 8 22)">
		<rect id="rect4156" style="opacity:.875;fill:none" height="22" width="22" y="0" x="0"/>
		<path id="path4158" style="opacity:.875;stroke:currentColor;stroke-linecap:round;stroke-width:2.75;fill:none" d="m17.875 11h-13.75m6.875-6.875v13.75" class="ColorScheme-Text"/>
	</g>
	<g id="list-remove" transform="matrix(1.3333 0 0 1.3333 -8 -32.667)">
		<rect id="rect3348" style="opacity:.875;fill:none" height="24" width="24" y="-1" x="24"/>
		<path id="path3350" style="opacity:.875;stroke:currentColor;stroke-linecap:round;stroke-width:1.5;fill:none" d="m42.75 11h-13.5" class="ColorScheme-Text"/>
	</g>
	<g id="22-22-list-remove">
		<rect id="rect4151" style="opacity:.875;fill:none" height="22" width="22" y="0" x="25"/>
		<path id="path4153" d="m43 11h-14" style="opacity:.875;stroke:currentColor;stroke-linecap:round;stroke-width:2;fill:none" class="ColorScheme-Text"/>
	</g>
	<g id="16-16-list-remove" transform="matrix(.72727 0 0 .72727 6 22)">
		<rect id="rect4162" style="opacity:.875;fill:none" height="22" width="22" y="0" x="25"/>
		<path id="path4164" style="opacity:.875;stroke:currentColor;stroke-linecap:round;stroke-width:2.75;fill:none" d="m42.625 11h-13.75" class="ColorScheme-Text"/>
	</g>
</svg>
