<?xml version="1.0" encoding="UTF-8" standalone="no"?>
<svg id="svg3055" xmlns:rdf="http://www.w3.org/1999/02/22-rdf-syntax-ns#" xmlns="http://www.w3.org/2000/svg" height="22" width="22" version="1.1" xmlns:cc="http://creativecommons.org/ns#" xmlns:dc="http://purl.org/dc/elements/1.1/">
    <defs id="defs3615">
        <style id="current-color-scheme" type="text/css">
            .ColorScheme-Text {
            color:#0000FF;
            }
            .ColorScheme-Background{
            color:#E9E8E8;
            }
            .ColorScheme-ViewText {
            color:#31363b;
            }
            .ColorScheme-ViewBackground{
            color:#ffffff;
            }
            .ColorScheme-ViewHover {
            color:#000000;
            }
            .ColorScheme-ViewFocus{
            color:#5a5a5a;
            }
            .ColorScheme-ButtonText {
            color:#31363b;
            }
            .ColorScheme-ButtonBackground{
            color:#E9E8E8;
            }
            .ColorScheme-ButtonHover {
            color:#1489ff;
            }
            .ColorScheme-ButtonFocus{
            color:#2B74C7;
            }
        </style>
    </defs>
	<metadata id="metadata3060">
		<rdf:RDF>
			<cc:Work rdf:about="">
				<dc:format>image/svg+xml</dc:format>
				<dc:type rdf:resource="http://purl.org/dc/dcmitype/StillImage"/>
				<dc:title/>
				<dc:creator>
					<cc:Agent>
						<dc:title>obnosim</dc:title>
					</cc:Agent>
				</dc:creator>
				<cc:license rdf:resource="http://creativecommons.org/licenses/by-nc-sa/3.0/"/>
			</cc:Work>
			<cc:License rdf:about="http://creativecommons.org/licenses/by-nc-sa/3.0/">
				<cc:permits rdf:resource="http://creativecommons.org/ns#Reproduction"/>
				<cc:permits rdf:resource="http://creativecommons.org/ns#Distribution"/>
				<cc:requires rdf:resource="http://creativecommons.org/ns#Notice"/>
				<cc:requires rdf:resource="http://creativecommons.org/ns#Attribution"/>
				<cc:prohibits rdf:resource="http://creativecommons.org/ns#CommercialUse"/>
				<cc:permits rdf:resource="http://creativecommons.org/ns#DerivativeWorks"/>
				<cc:requires rdf:resource="http://creativecommons.org/ns#ShareAlike"/>
			</cc:License>
		</rdf:RDF>
	</metadata>
	<g id="location" transform="translate(-1,-1)">
		<rect id="rect3031" style="opacity:.375;fill:none" height="22" width="22" y="1" x="1"/>
		<path id="path3025" style="fill:currentColor;opacity:.875" class="ColorScheme-Text" d="m12 1c-3.866 0-7 3.134-7 7s7 15 7 15 7-11.134 7-15-3.134-7-7-7zm0 2c2.7614 0 5 2.2386 5 5s-2.2386 5-5 5-5-2.239-5-5c0-2.7614 2.2386-5 5-5z"/>
	</g>
	<g id="location-changed" transform="translate(-1,-1)">
		<rect id="rect3801" style="opacity:.375;fill:none" height="22" width="22" y="1" x="29"/>
		<path id="path3803" style="fill:currentColor;opacity:.875" class="ColorScheme-Text" d="m40 1c-3.866 0-7 3.134-7 7s7 15 7 15 7-11.134 7-15-3.134-7-7-7zm0 2c2.7614 0 5 2.2386 5 5s-2.2386 5-5 5-5-2.2386-5-5 2.2386-5 5-5zm0 3c-1.1046 0-2 .89543-2 2s.89543 2 2 2 2-.89543 2-2-.89543-2-2-2z"/>
	</g>
	<g id="location-unknown" transform="translate(-1,-1)">
		<rect id="rect3808" style="opacity:.375;fill:none" height="22" width="22" y="1" x="57"/>
		<path id="path3810" style="fill:currentColor;opacity:.875" class="ColorScheme-Text" d="m68 1c-3.866 0-7 3.134-7 7s7 15 7 15 7-11.134 7-15-3.134-7-7-7zm0 2c2.7614 0 5 2.2386 5 5s-2.2386 5-5 5-5-2.2386-5-5 2.2386-5 5-5zm-3 4c-.554 0-1 .446-1 1s.446 1 1 1h6c.554 0 1-.446 1-1s-.446-1-1-1h-6z"/>
	</g>
</svg>
