<?xml version="1.0" encoding="UTF-8" standalone="no"?>
<!-- Created with Inkscape (http://www.inkscape.org/) -->

<svg
   xmlns:dc="http://purl.org/dc/elements/1.1/"
   xmlns:cc="http://creativecommons.org/ns#"
   xmlns:rdf="http://www.w3.org/1999/02/22-rdf-syntax-ns#"
   xmlns:svg="http://www.w3.org/2000/svg"
   xmlns="http://www.w3.org/2000/svg"
   xmlns:sodipodi="http://sodipodi.sourceforge.net/DTD/sodipodi-0.dtd"
   xmlns:inkscape="http://www.inkscape.org/namespaces/inkscape"
   version="1.0"
   width="24"
   height="24"
   id="svg3727"
   inkscape:version="0.91 r13725"
   sodipodi:docname="mail.svg">
  <sodipodi:namedview
     pagecolor="#323232"
     bordercolor="#666666"
     borderopacity="1"
     objecttolerance="10"
     gridtolerance="10"
     guidetolerance="10"
     inkscape:pageopacity="1"
     inkscape:pageshadow="2"
     inkscape:window-width="1920"
     inkscape:window-height="1056"
     id="namedview63"
     showgrid="false"
     inkscape:showpageshadow="false"
     showborder="false"
     borderlayer="false"
     fit-margin-top="0"
     fit-margin-left="0"
     fit-margin-right="0"
     fit-margin-bottom="0"
     inkscape:zoom="5.6568542"
     inkscape:cx="79.2345"
     inkscape:cy="11.009495"
     inkscape:window-x="0"
     inkscape:window-y="-3"
     inkscape:window-maximized="1"
     inkscape:current-layer="svg3727">
    <inkscape:grid
       type="xygrid"
       id="grid3040"
       empspacing="4"
       visible="true"
       enabled="true"
       snapvisiblegridlinesonly="true"
       originx="0px"
       originy="-4px" />
  </sodipodi:namedview>
  <metadata
     id="metadata244">
    <rdf:RDF>
      <cc:Work
         rdf:about="">
        <dc:format>image/svg+xml</dc:format>
        <dc:type
           rdf:resource="http://purl.org/dc/dcmitype/StillImage" />
        <dc:title />
        <dc:creator>
          <cc:Agent>
            <dc:title>obnosim</dc:title>
          </cc:Agent>
        </dc:creator>
        <cc:license
           rdf:resource="http://creativecommons.org/licenses/by-nc-sa/3.0/" />
      </cc:Work>
      <cc:License
         rdf:about="http://creativecommons.org/licenses/by-nc-sa/3.0/">
        <cc:permits
           rdf:resource="http://creativecommons.org/ns#Reproduction" />
        <cc:permits
           rdf:resource="http://creativecommons.org/ns#Distribution" />
        <cc:requires
           rdf:resource="http://creativecommons.org/ns#Notice" />
        <cc:requires
           rdf:resource="http://creativecommons.org/ns#Attribution" />
        <cc:prohibits
           rdf:resource="http://creativecommons.org/ns#CommercialUse" />
        <cc:permits
           rdf:resource="http://creativecommons.org/ns#DerivativeWorks" />
        <cc:requires
           rdf:resource="http://creativecommons.org/ns#ShareAlike" />
      </cc:License>
    </rdf:RDF>
  </metadata>
  <defs
     id="defs3729" />
  <g
     id="kmail"
     transform="translate(0,4)">
    <rect
       y="-4"
       x="0"
       height="24"
       width="24"
       id="rect3946"
       style="fill:none;stroke:none" />
    <rect
       ry="2"
       y="0"
       x="0"
       height="16"
       width="24"
       id="rect3987"
       style="opacity:0.375;fill:#000000;fill-opacity:1;stroke:none" />
    <path
       id="rect3948"
       d="M 2,1 C 1.446,1 1,1.446 1,2 l 0,12 c 0,0.554 0.446,1 1,1 l 20,0 c 0.554,0 1,-0.446 1,-1 L 23,2 C 23,1.446 22.554,1 22,1 L 2,1 z m 19.03125,1.40625 a 0.50005,0.50005 0 0 1 0.3125,0.9375 L 16.6875,8 l 4.65625,4.65625 a 0.50005,0.50005 0 1 1 -0.6875,0.6875 L 16,8.6875 12.34375,12.34375 12,12.71875 11.65625,12.34375 8,8.6875 3.34375,13.34375 a 0.50005,0.50005 0 1 1 -0.6875,-0.6875 L 7.3125,8 2.65625,3.34375 A 0.50005,0.50005 0 0 1 2.90625,2.5 0.50005,0.50005 0 0 1 3.34375,2.65625 l 4.84375,4.875 A 0.50005,0.50005 0 0 1 8.21875,7.5625 l 0.125,0.0625 a 0.50005,0.50005 0 0 1 0.125,0.1875 l 3.53125,3.5 3.53125,-3.5 0.03125,-0.03125 A 0.50005,0.50005 0 0 1 15.6875,7.625 l 0.125,-0.09375 4.84375,-4.875 a 0.50005,0.50005 0 0 1 0.375,-0.25 z"
       style="fill:#e0e0e0;fill-opacity:1;fill-rule:nonzero;stroke:none"
       inkscape:connector-curvature="0" />
  </g>
</svg>
