<?xml version="1.0" encoding="UTF-8" standalone="no"?>
<svg id="svg3727" xmlns:rdf="http://www.w3.org/1999/02/22-rdf-syntax-ns#" xmlns="http://www.w3.org/2000/svg" height="22" width="22" version="1.0" xmlns:cc="http://creativecommons.org/ns#" xmlns:dc="http://purl.org/dc/elements/1.1/">
	<defs id="defs3615">
		<style id="current-color-scheme" type="text/css">.ColorScheme-Text {
            color:#0000FF;
            }
            .ColorScheme-Background{
            color:#E9E8E8;
            }
            .ColorScheme-ViewText {
            color:#31363b;
            }
            .ColorScheme-ViewBackground{
            color:#ffffff;
            }
            .ColorScheme-ViewHover {
            color:#000000;
            }
            .ColorScheme-ViewFocus{
            color:#5a5a5a;
            }
            .ColorScheme-ButtonText {
            color:#31363b;
            }
            .ColorScheme-ButtonBackground{
            color:#E9E8E8;
            }
            .ColorScheme-ButtonHover {
            color:#1489ff;
            }
            .ColorScheme-ButtonFocus{
            color:#2B74C7;
            }</style>
	</defs>
	<metadata id="metadata244">
		<rdf:RDF>
			<cc:Work rdf:about="">
				<dc:format>image/svg+xml</dc:format>
				<dc:type rdf:resource="http://purl.org/dc/dcmitype/StillImage"/>
				<dc:title/>
				<dc:creator>
					<cc:Agent>
						<dc:title>obnosim</dc:title>
					</cc:Agent>
				</dc:creator>
				<cc:license rdf:resource="http://creativecommons.org/licenses/by-nc-sa/3.0/"/>
			</cc:Work>
			<cc:License rdf:about="http://creativecommons.org/licenses/by-nc-sa/3.0/">
				<cc:permits rdf:resource="http://creativecommons.org/ns#Reproduction"/>
				<cc:permits rdf:resource="http://creativecommons.org/ns#Distribution"/>
				<cc:requires rdf:resource="http://creativecommons.org/ns#Notice"/>
				<cc:requires rdf:resource="http://creativecommons.org/ns#Attribution"/>
				<cc:prohibits rdf:resource="http://creativecommons.org/ns#CommercialUse"/>
				<cc:permits rdf:resource="http://creativecommons.org/ns#DerivativeWorks"/>
				<cc:requires rdf:resource="http://creativecommons.org/ns#ShareAlike"/>
			</cc:License>
		</rdf:RDF>
	</metadata>
	<g id="22-22-kmail" transform="translate(-1,3)">
		<rect id="rect3946" style="fill:none" height="22" width="22" y="-3" x="1"/>
		<path id="rect3948" d="m1 4c-.554 0-1 .446-1 1v12c0 .554.446 1 1 1h20c.554 0 1-.446 1-1v-12c0-.554-.446-1-1-1h-20zm18.996 1.4922a.50005 .50005 0 0 1 .358 .8613l-4.647 4.6465 4.647 4.646a.50005 .50005 0 1 1 -.708 .708l-4.646-4.647-4 4-4-4-4.6465 4.647a.50005 .50005 0 1 1 -.7070 -.708l4.6465-4.646-4.6465-4.6465a.50005 .50005 0 0 1 .3476 -.8594 .50005 .50005 0 0 1 .3594 .1524l4.9434 4.9435a.50005 .50005 0 0 1 .1152 .115 .50005 .50005 0 0 1 .0059 .008l3.582 3.58 3.59-3.59a.50005 .50005 0 0 1 .115 -.115l.008-.006 4.933-4.9355a.50005 .50005 0 0 1 .350 -.1543z" style="opacity:.875;fill:currentColor" transform="translate(1,-3)" class="ColorScheme-Text"/>
	</g>
	<g id="kmail" transform="matrix(1.3333 0 0 1.3333 -5 -28.667)">
		<rect id="rect3341" style="fill:none" height="24" width="24" y="-4" x="0"/>
		<path id="rect3345" style="opacity:.875;fill-rule:evenodd;fill:currentColor" d="m2-27c-0.554 0-1 .446-1 1v16c0 0.554 0.446 1 1 1h28c.554 0 1-0.446 1-1v-16c0-.554-.446-1-1-1h-28zm.99414 1.4941a.50005 .50005 0 0 1 .35938 .15234l6.9492 6.9473a.50005 .50005 0 0 1 .01172 .0098 .50005 .50005 0 0 1 .0918 .09375l5.5938 5.5938 5.5938-5.5938a.50005 .50005 0 0 1 .0098 -.01172 .50005 .50005 0 0 1 .09375 -.0918l6.9492-6.9473a.50087 .50087 0 1 1 .70703 .70703l-6.646 6.647 6.6445 6.6465a.50087 .50087 0 1 1 -.70703 .70703l-6.647-6.644-6 6-6-6-6.6465 6.6445a.50087 .50087 0 1 1 -.7075 -.708l6.6445-6.646-6.6445-6.646a.50005 .50005 0 0 1 .34766 -.85938z" transform="matrix(0.75 0 0 0.75 0 21.5)" class="ColorScheme-Text"/>
	</g>
</svg>
