<?xml version="1.0" encoding="UTF-8" standalone="no"?>
<svg id="svg7229" xmlns:rdf="http://www.w3.org/1999/02/22-rdf-syntax-ns#" xmlns="http://www.w3.org/2000/svg" height="24" width="232" version="1.0" xmlns:cc="http://creativecommons.org/ns#" xmlns:dc="http://purl.org/dc/elements/1.1/">
	<defs id="defs3615">
		<style id="current-color-scheme" type="text/css">
			.ColorScheme-Text { color:#0000FF; }
			.ColorScheme-Highlight { color:#FF00FF; }
		</style>
	</defs>
	<metadata id="metadata7">
		<rdf:RDF>
			<cc:Work rdf:about="">
				<dc:format>image/svg+xml</dc:format>
				<dc:type rdf:resource="http://purl.org/dc/dcmitype/StillImage"/>
				<dc:title/>
				<dc:creator>
					<cc:Agent>
						<dc:title>obnosim</dc:title>
					</cc:Agent>
				</dc:creator>
				<cc:license rdf:resource="http://creativecommons.org/licenses/by-sa/3.0/"/>
			</cc:Work>
			<cc:License rdf:about="http://creativecommons.org/licenses/by-sa/3.0/">
				<cc:permits rdf:resource="http://creativecommons.org/ns#Reproduction"/>
				<cc:permits rdf:resource="http://creativecommons.org/ns#Distribution"/>
				<cc:requires rdf:resource="http://creativecommons.org/ns#Notice"/>
				<cc:requires rdf:resource="http://creativecommons.org/ns#Attribution"/>
				<cc:permits rdf:resource="http://creativecommons.org/ns#DerivativeWorks"/>
				<cc:requires rdf:resource="http://creativecommons.org/ns#ShareAlike"/>
			</cc:License>
		</rdf:RDF>
	</metadata>
	<g id="16-16-media-playback-start" class="ColorScheme-Text" transform="translate(-214.6,-349.48)">
		<rect style="fill:none" height="16" width="16" y="307.48" x="286.6"/>
		<path style="opacity:.875;fill:currentColor" d="m299.6 315.48-10 6v-12z"/>
	</g>
	<g id="16-16-media-playback-stop" class="ColorScheme-Text" transform="translate(-214.6,-349.48)">
		<rect style="fill:none" height="16" width="16" y="307.48" x="268.6"/>
		<rect style="opacity:.875;fill:currentColor" transform="translate(214.6,381.48)" height="12" width="12" y="-72" x="56"/>
	</g>
	<g id="16-16-media-playback-pause" class="ColorScheme-Text" transform="translate(-214.6,-349.48)">
		<rect style="fill:none" height="16" width="16" y="307.48" x="304.6"/>
		<path d="m91.906-72v12h5v-12h-5zm7.094 0v12h5v-12h-5z" style="opacity:.875;fill:currentColor" transform="translate(214.6,381.48)"/>
	</g>
	<g id="16-16-media-skip-forward" class="ColorScheme-Text" transform="translate(-214.6,-349.48)">
		<rect style="fill:none" height="16" width="16" y="307.48" x="322.6"/>
		<path style="opacity:.875;fill:currentColor" d="m333.6 309.48h3v12h-3zm-.00006 6-9 6v-12z"/>
	</g>
	<g id="16-16-media-skip-backward" class="ColorScheme-Text" transform="translate(-214.6,-349.48)">
		<rect style="fill:none" height="16" width="16" y="307.48" x="250.6"/>
		<path style="opacity:.875;fill:currentColor" d="m255.6 309.48h-3v12h3zm.00006 6 9 6v-12z"/>
	</g>
	<g id="16-16-media-seek-forward" class="ColorScheme-Text" transform="translate(-214.6,-349.48)">
		<rect style="fill:none" height="16" width="16" y="307.48" x="340.6"/>
		<path style="opacity:.875;fill:currentColor" d="m348.6 309.48v12l6-6zm-6 0v12l6-6z"/>
	</g>
	<g id="16-16-media-seek-backward" class="ColorScheme-Text" transform="translate(-214.6,-349.48)">
		<rect style="fill:none" height="16" width="16" y="307.48" x="232.6"/>
		<path style="opacity:.875;fill:currentColor" d="m240.6 309.48v12l-6-6zm6 0v12l-6-6z"/>
	</g>
	<g id="16-16-media-eject" class="ColorScheme-Text" transform="translate(-214.6,-349.48)">
		<rect style="fill:none" height="16" width="16" y="307.48" x="358.6"/>
		<path d="m152-72-7 7h14l-7-7zm-7 9v3h14v-3h-14z" style="opacity:.875;fill:currentColor" transform="translate(214.6,381.48)"/>
	</g>
	<g id="16-16-media-record" class="ColorScheme-Highlight" transform="translate(-214.6,-349.48)">
		<rect style="fill:none" transform="translate(214.6,381.48)" height="16" width="16" y="-74" x="0"/>
		<path d="m14-66a6 6 0 1 1 -12 0 6 6 0 1 1 12 0z" style="fill:currentColor" transform="translate(214.6,381.48)"/>
	</g>
	<g id="22-22-media-playback-start" class="ColorScheme-Text" transform="translate(162 53)">
		<rect style="fill:none" height="22" width="22" y="-77" x="-66"/>
		<path style="opacity:.875;fill:currentColor" d="m-47-66-14-8v16z"/>
	</g>
	<g id="22-22-media-playback-pause" class="ColorScheme-Text" transform="translate(153 53)">
		<rect style="fill:none" height="22" width="22" y="-77" x="-33"/>
		<path style="opacity:.875;fill:currentColor" d="m-20-74h6v16h-6zm-10 0h6v16h-6z"/>
	</g>
	<g id="22-22-media-playback-stop" class="ColorScheme-Text" transform="translate(72 53)">
		<rect style="fill:none" height="22" width="22" y="-77" x="0"/>
		<rect style="opacity:.875;fill:currentColor" height="16" width="16" y="-74" x="3"/>
	</g>
	<g id="22-22-media-skip-forward" class="ColorScheme-Text" transform="translate(210 20)">
		<rect style="fill:none" height="22" width="22" y="-44" x="-66"/>
		<path style="opacity:.875;fill:currentColor" d="m-50-41h3v16h-3zm-13 16v-16l13 8z"/>
	</g>
	<g id="22-22-media-seek-forward" class="ColorScheme-Text" transform="translate(201 20)">
		<rect style="fill:none" height="22" width="22" y="-44" x="-33"/>
		<path style="opacity:.875;fill:currentColor" d="m-22-25v-16l8 8zm-8 0v-16l8 8z"/>
	</g>
	<g id="22-22-media-eject" class="ColorScheme-Text" transform="translate(192 20)">
		<rect style="fill:none" height="22" width="22" y="-44" x="0"/>
		<path style="opacity:.875;fill:currentColor" d="m3-30h16v3h-16zm0-2 8-8 8 8z"/>
	</g>
	<g id="22-22-media-skip-backward" class="ColorScheme-Text" transform="translate(48 86)">
		<rect style="fill:none" height="22" width="22" y="-110" x="0"/>
		<path d="m-6-107h3v16h-3zm-13 16v-16l13 8z" style="opacity:.875;fill:currentColor" transform="scale(-1,1)"/>
	</g>
	<g id="22-22-media-seek-backward" class="ColorScheme-Text" transform="translate(57 86)">
		<rect style="fill:none" height="22" width="22" y="-110" x="-33"/>
		<path style="opacity:.875;fill:currentColor" d="m-22-91v-16l-8 8zm8 0v-16l-8 8z"/>
	</g>
	<g id="22-22-media-record" class="ColorScheme-Highlight" transform="translate(66 86)">
		<rect style="fill:none" height="22" width="22" y="-110" x="-66"/>
		<circle style="fill:currentColor" cx="-55" cy="-99" r="7"/>
	</g>
	<g id="24-24-media-playback-start" class="ColorScheme-Text" transform="matrix(1.0909 0 0 1.0909 176 84)">
		<rect style="fill:none" height="22" width="22" y="-77" x="-66"/>
		<path style="opacity:.875;fill:currentColor" d="m-46.75-66-14.667-8.25v16.5z"/>
	</g>
	<g id="24-24-media-playback-pause" class="ColorScheme-Text" transform="matrix(1.0909 0 0 1.0909 166 84)">
		<rect style="fill:none" height="22" width="22" y="-77" x="-33"/>
		<path style="opacity:.875;fill:currentColor" d="m-20.167-74.25h6.4167v16.5h-6.4167zm-10.083 0h6.4167v16.5h-6.4167z"/>
	</g>
	<g id="24-24-media-playback-stop" class="ColorScheme-Text" transform="matrix(1.0909 0 0 1.0909 78 84)">
		<rect style="fill:none" height="22" width="22" y="-77" x="0"/>
		<rect style="opacity:.875;fill:currentColor" height="16.5" width="16.5" y="-74.25" x="2.75"/>
	</g>
	<g id="24-24-media-skip-forward" class="ColorScheme-Text" transform="matrix(1.0909 0 0 1.0909 228 48)">
		<rect style="fill:none" height="22" width="22" y="-44" x="-66"/>
		<path style="opacity:.875;fill:currentColor" d="m-49.5-41.25h2.5v16.5h-2.5zm-13.75 16.5v-16.5l13.75 8.25z"/>
	</g>
	<g id="24-24-media-seek-forward" class="ColorScheme-Text" transform="matrix(1.0909 0 0 1.0909 218 48)">
		<rect style="fill:none" height="22" width="22" y="-44" x="-33"/>
		<path style="opacity:.875;fill:currentColor" d="m-22-24.75v-16.5l8.25 8.25zm-8.25 0v-16.5l8.25 8.25z"/>
	</g>
	<g id="24-24-media-eject" class="ColorScheme-Text" transform="matrix(1.0909 0 0 1.0909 208 48)">
		<rect style="fill:none" height="22" width="22" y="-44" x="0"/>
		<path style="opacity:.875;fill:currentColor" d="m3-30.25h16v3.6667h-16zm0-1.75 8-8.333 8 8.333z"/>
	</g>
	<g id="24-24-media-skip-backward" class="ColorScheme-Text" transform="matrix(1.0909 0 0 1.0909 52 120)">
		<rect style="fill:none" height="22" width="22" y="-110" x="0"/>
		<path d="m-5.5-107.25h2.75v16.5h-2.75zm-13.75 16.5v-16.5l13.75 8.25z" style="opacity:.875;fill:currentColor" transform="scale(-1,1)"/>
	</g>
	<g id="24-24-media-seek-backward" class="ColorScheme-Text" transform="matrix(1.0909 0 0 1.0909 62 120)">
		<rect style="fill:none" height="22" width="22" y="-110" x="-33"/>
		<path style="opacity:.875;fill:currentColor" d="m-22-90.75v-16.5l-8.25 8.25zm8.25 0v-16.5l-8.25 8.25z"/>
	</g>
	<g id="24-24-media-record" class="ColorScheme-Highlight" transform="matrix(1.0909 0 0 1.0909 72 120)">
		<rect style="fill:none" height="22" width="22" y="-110" x="-66"/>
		<circle style="fill:currentColor" cx="-55" cy="-99" r="7.3333"/>
	</g>
	<g id="32-32-media-playback-start" class="ColorScheme-Text" transform="matrix(2,0,0,2,-437.2,-588.96)">
		<rect style="fill:none" height="16" width="16" y="307.48" x="286.6"/>
		<path style="opacity:.875;fill:currentColor" d="m299.6 315.48-10 6v-12z"/>
	</g>
	<g id="32-32-media-playback-stop" class="ColorScheme-Text" transform="matrix(2,0,0,2,-435.2,-588.96)">
		<rect style="fill:none" height="16" width="16" y="307.48" x="268.6"/>
		<rect style="opacity:.875;fill:currentColor" transform="translate(214.6,381.48)" height="12" width="12" y="-72" x="56"/>
	</g>
	<g id="32-32-media-playback-pause" class="ColorScheme-Text" transform="matrix(2,0,0,2,-439.2,-588.96)">
		<rect style="fill:none" height="16" width="16" y="307.48" x="304.6"/>
		<path style="opacity:.875;fill:currentColor" d="m91.906-72v12h5v-12h-5zm7.094 0v12h5v-12h-5z" transform="translate(214.6,381.48)"/>
	</g>
	<g id="32-32-media-skip-forward" class="ColorScheme-Text" transform="matrix(2,0,0,2,-441.2,-588.96)">
		<rect style="fill:none" height="16" width="16" y="307.48" x="322.6"/>
		<path style="opacity:.875;fill:currentColor" d="m334.1 309.48h2.5v12h-2.5zm-.00006 6-9.5 6v-12z"/>
	</g>
	<g id="32-32-media-skip-backward" class="ColorScheme-Text" transform="matrix(2,0,0,2,-433.2,-588.96)">
		<rect style="fill:none" height="16" width="16" y="307.48" x="250.6"/>
		<path style="opacity:.875;fill:currentColor" d="m255.1 309.48h-2.5v12h2.5zm.00006 6 9.5 6v-12z"/>
	</g>
	<g id="32-32-media-seek-forward" class="ColorScheme-Text" transform="matrix(2,0,0,2,-443.2,-588.96)">
		<rect style="fill:none" height="16" width="16" y="307.48" x="340.6"/>
		<path style="opacity:.875;fill:currentColor" d="m348.6 309.48v12l6-6zm-6 0v12l6-6z"/>
	</g>
	<g id="32-32-media-seek-backward" class="ColorScheme-Text" transform="matrix(2,0,0,2,-431.2,-588.96)">
		<rect style="fill:none" height="16" width="16" y="307.48" x="232.6"/>
		<path style="opacity:.875;fill:currentColor" d="m240.6 309.48v12l-6-6zm6 0v12l-6-6z"/>
	</g>
	<g id="32-32-media-eject" class="ColorScheme-Text" transform="matrix(2,0,0,2,-445.2,-588.96)">
		<rect style="fill:none" height="16" width="16" y="307.48" x="358.6"/>
		<path style="opacity:.875;fill:currentColor" d="m152-72-7 7h14l-7-7zm-7 9v3h14v-3h-14z" transform="translate(214.6,381.48)"/>
	</g>
	<g id="32-32-media-record" class="ColorScheme-Highlight" transform="matrix(2,0,0,2,-429.2,-588.96)">
		<rect style="fill:none" transform="translate(214.6,381.48)" height="16" width="16" y="-74" x="0"/>
		<path style="fill:currentColor" d="m14-66a6 6 0 1 1 -12 0 6 6 0 1 1 12 0z" transform="translate(214.6,381.48)"/>
	</g>
	<g id="media-playback-start" class="ColorScheme-Text" transform="matrix(2.1818,0,0,2.1818,294,228)">
		<rect style="fill:none" height="22" width="22" y="-77" x="-66"/>
		<path style="opacity:.875;fill:currentColor" d="m-47.208-66-13.75-7.7917v15.583z"/>
	</g>
	<g id="media-playback-pause" class="ColorScheme-Text" transform="matrix(2.1818,0,0,2.1818,272,228)">
		<rect style="fill:none" height="22" width="22" y="-77" x="-33"/>
		<path style="opacity:.875;fill:currentColor" d="m-20.167-73.792h5.9583v15.583h-5.9583zm-9.625 0h5.9583v15.583h-5.9583z"/>
	</g>
	<g id="media-playback-stop" class="ColorScheme-Text" transform="matrix(2.1818,0,0,2.1818,250,228)">
		<rect style="fill:none" height="22" width="22" y="-77" x="0"/>
		<rect style="opacity:.875;fill:currentColor" height="15.583" width="15.583" y="-73.792" x="3.2083"/>
	</g>
	<g id="media-skip-forward" class="ColorScheme-Text" transform="matrix(2.1818,0,0,2.1818,444,156)">
		<rect style="fill:none" height="22" width="22" y="-44" x="-66"/>
		<path style="opacity:.875;fill:currentColor" d="m-49.958-40.792h2.75v15.583h-2.75zm-12.833 15.583v-15.583l12.833 7.792z"/>
	</g>
	<g id="media-seek-forward" class="ColorScheme-Text" transform="matrix(2.1818,0,0,2.1818,422,156)">
		<rect style="fill:none" height="22" width="22" y="-44" x="-33"/>
		<path style="opacity:.875;fill:currentColor" d="m-22-25.208v-15.584l7.792 7.792zm-7.7917 0v-15.583l7.792 7.791z"/>
	</g>
	<g id="media-eject" class="ColorScheme-Text" transform="matrix(2.1818,0,0,2.1818,400,156)">
		<rect style="fill:none" height="22" width="22" y="-44" x="0"/>
		<path style="opacity:.875;fill:currentColor" d="m3.2083-29.792h15.583v2.7917h-15.583zm0-2.2917 7.7917-7.791 7.7917 7.7917z"/>
	</g>
	<g id="media-skip-backward" class="ColorScheme-Text" transform="matrix(2.1818,0,0,2.1818,100,300)">
		<rect style="fill:none" height="22" width="22" y="-110" x="0"/>
		<path d="m-5.9583-106.79h2.75v15.583h-2.75zm-12.833 15.583v-15.583l12.833 7.79z" style="opacity:.875;fill:currentColor" transform="scale(-1,1)"/>
	</g>
	<g id="media-seek-backward" class="ColorScheme-Text" transform="matrix(2.1818,0,0,2.1818,122,300)">
		<rect style="fill:none" height="22" width="22" y="-110" x="-33"/>
		<path style="opacity:.875;fill:currentColor" d="m-22-91.208v-15.582l-7.792 7.79zm7.7917 0v-15.583l-7.792 7.79z"/>
	</g>
	<g id="media-record" class="ColorScheme-Highlight" transform="matrix(2.1818,0,0,2.1818,144,300)">
		<rect style="fill:none" height="22" width="22" y="-110" x="-66"/>
		<circle style="fill:currentColor" cx="-55" cy="-99" r="6.875"/>
	</g>
</svg>
