<?xml version="1.0" encoding="UTF-8" standalone="no"?>
<svg
   xmlns:dc="http://purl.org/dc/elements/1.1/"
   xmlns:cc="http://creativecommons.org/ns#"
   xmlns:rdf="http://www.w3.org/1999/02/22-rdf-syntax-ns#"
   xmlns:svg="http://www.w3.org/2000/svg"
   xmlns="http://www.w3.org/2000/svg"
   xmlns:sodipodi="http://sodipodi.sourceforge.net/DTD/sodipodi-0.dtd"
   xmlns:inkscape="http://www.inkscape.org/namespaces/inkscape"
   id="svg7229"
   height="24"
   width="232"
   version="1.0"
   inkscape:version="0.91 r13725"
   sodipodi:docname="media.svg">
  <sodipodi:namedview
     pagecolor="#ffffff"
     bordercolor="#666666"
     borderopacity="1"
     objecttolerance="10"
     gridtolerance="10"
     guidetolerance="10"
     inkscape:pageopacity="0"
     inkscape:pageshadow="2"
     inkscape:window-width="640"
     inkscape:window-height="480"
     id="namedview144"
     showgrid="false"
     inkscape:zoom="3.8965517"
     inkscape:cx="72.262016"
     inkscape:cy="28.491451"
     inkscape:current-layer="svg7229" />
  <defs
     id="defs3615">
    <style
       id="current-color-scheme"
       type="text/css">.ColorScheme-Text { color:#0000FF; }</style>
    <style
       id="local"
       type="text/css">.record { color:#ff2121; }</style>
  </defs>
  <metadata
     id="metadata7234">
    <rdf:RDF>
      <cc:Work
         rdf:about="">
        <dc:format>image/svg+xml</dc:format>
        <dc:type
           rdf:resource="http://purl.org/dc/dcmitype/StillImage" />
        <dc:title />
        <dc:creator>
          <cc:Agent>
            <dc:title>obnosim</dc:title>
          </cc:Agent>
        </dc:creator>
        <dc:description />
        <cc:license
           rdf:resource="http://creativecommons.org/licenses/by-nc-sa/3.0/" />
      </cc:Work>
      <cc:License
         rdf:about="http://creativecommons.org/licenses/by-nc-sa/3.0/">
        <cc:permits
           rdf:resource="http://creativecommons.org/ns#Reproduction" />
        <cc:permits
           rdf:resource="http://creativecommons.org/ns#Distribution" />
        <cc:requires
           rdf:resource="http://creativecommons.org/ns#Notice" />
        <cc:requires
           rdf:resource="http://creativecommons.org/ns#Attribution" />
        <cc:prohibits
           rdf:resource="http://creativecommons.org/ns#CommercialUse" />
        <cc:permits
           rdf:resource="http://creativecommons.org/ns#DerivativeWorks" />
        <cc:requires
           rdf:resource="http://creativecommons.org/ns#ShareAlike" />
      </cc:License>
    </rdf:RDF>
  </metadata>
  <g
     id="16-16-media-playback-start"
     transform="translate(-214.6,-349.48)">
    <rect
       id="rect3847"
       style="opacity:.1;fill:none"
       height="16"
       width="16"
       y="307.48"
       x="286.6" />
    <path
       id="path3861"
       d="m299.6 315.48-10 6v-12z"
       style="opacity:.875;fill:currentColor"
       class="ColorScheme-Text" />
  </g>
  <g
     id="16-16-media-playback-stop"
     transform="translate(-214.6,-349.48)">
    <rect
       id="rect3845"
       style="opacity:.1;fill:none"
       height="16"
       width="16"
       y="307.48"
       x="268.6" />
    <rect
       id="rect3863"
       style="opacity:.875;fill:currentColor"
       class="ColorScheme-Text"
       transform="translate(214.6,381.48)"
       height="12"
       width="12"
       y="-72"
       x="56" />
  </g>
  <g
     id="16-16-media-playback-pause"
     transform="translate(-214.6,-349.48)">
    <rect
       id="rect3849"
       style="opacity:.1;fill:none"
       height="16"
       width="16"
       y="307.48"
       x="304.6" />
    <path
       id="rect3865"
       style="opacity:.875;fill:currentColor"
       d="m91.906-72v12h5v-12h-5zm7.094 0v12h5v-12h-5z"
       transform="translate(214.6,381.48)"
       class="ColorScheme-Text" />
  </g>
  <g
     id="16-16-media-skip-forward"
     transform="translate(-214.6,-349.48)">
    <rect
       id="rect3851"
       style="opacity:.1;fill:none"
       height="16"
       width="16"
       y="307.48"
       x="322.6" />
    <path
       id="rect3871"
       d="m333.6 309.48h3v12h-3zm-.00006 6-9 6v-12z"
       style="opacity:.875;fill:currentColor"
       class="ColorScheme-Text" />
  </g>
  <g
     id="16-16-media-skip-backward"
     transform="translate(-214.6,-349.48)">
    <rect
       id="rect3843"
       style="opacity:.1;fill:none"
       height="16"
       width="16"
       y="307.48"
       x="250.6" />
    <path
       id="path3880"
       d="m255.6 309.48h-3v12h3zm.00006 6 9 6v-12z"
       style="opacity:.875;fill:currentColor"
       class="ColorScheme-Text" />
  </g>
  <g
     id="16-16-media-seek-forward"
     transform="translate(-214.6,-349.48)">
    <rect
       id="rect3853"
       style="opacity:.1;fill:none"
       height="16"
       width="16"
       y="307.48"
       x="340.6" />
    <path
       id="path3885"
       d="m348.6 309.48v12l6-6zm-6 0v12l6-6z"
       style="opacity:.875;fill:currentColor"
       class="ColorScheme-Text" />
  </g>
  <g
     id="16-16-media-seek-backward"
     transform="translate(-214.6,-349.48)">
    <rect
       id="rect3841"
       style="opacity:.1;fill:none"
       height="16"
       width="16"
       y="307.48"
       x="232.6" />
    <path
       id="path3888"
       d="m240.6 309.48v12l-6-6zm6 0v12l-6-6z"
       style="opacity:.875;fill:currentColor"
       class="ColorScheme-Text" />
  </g>
  <g
     id="16-16-media-eject"
     transform="translate(-214.6,-349.48)">
    <g
       id="g3954">
      <rect
         id="rect3855"
         style="opacity:.1;fill:none"
         height="16"
         width="16"
         y="307.48"
         x="358.6" />
      <path
         id="path3890"
         style="opacity:.875;fill:currentColor"
         d="m152-72-7 7h14l-7-7zm-7 9v3h14v-3h-14z"
         transform="translate(214.6,381.48)"
         class="ColorScheme-Text" />
    </g>
  </g>
  <g
     id="16-16-media-record"
     transform="translate(-214.6,-349.48)">
    <rect
       id="rect3071"
       style="opacity:.1;fill:none"
       transform="translate(214.6,381.48)"
       height="16"
       width="16"
       y="-74"
       x="0" />
    <path
       id="path3894"
       style="fill:currentColor"
       d="m14-66a6 6 0 1 1 -12 0 6 6 0 1 1 12 0z"
       transform="translate(214.6,381.48)"
       class="record" />
  </g>
  <g
     id="22-22-media-playback-start"
     transform="translate(162 53)">
    <rect
       id="rect3387"
       style="opacity:.25;fill:none"
       height="22"
       width="22"
       y="-77"
       x="-66" />
    <path
       id="path3395"
       d="m-47-66-14-8v16z"
       style="opacity:.875;fill:currentColor"
       class="ColorScheme-Text" />
  </g>
  <g
     id="22-22-media-playback-pause"
     transform="translate(153 53)">
    <rect
       id="rect3385"
       style="opacity:.25;fill:none"
       height="22"
       width="22"
       y="-77"
       x="-33" />
    <path
       id="rect4199"
       d="m-20-74h6v16h-6zm-10 0h6v16h-6z"
       style="opacity:.875;fill:currentColor"
       class="ColorScheme-Text" />
  </g>
  <g
     id="22-22-media-playback-stop"
     transform="translate(72 53)">
    <rect
       id="rect3383"
       style="opacity:.25;fill:none"
       height="22"
       width="22"
       y="-77"
       x="0" />
    <rect
       id="rect4201"
       style="opacity:.875;fill:currentColor"
       class="ColorScheme-Text"
       width="16"
       y="-74"
       x="3"
       height="16" />
  </g>
  <g
     id="22-22-media-skip-forward"
     transform="translate(210 20)">
    <rect
       id="rect3381"
       style="opacity:.25;fill:none"
       height="22"
       width="22"
       y="-44"
       x="-66" />
    <path
       id="rect4207"
       d="m-50-41h3v16h-3zm-13 16v-16l13 8z"
       style="opacity:.875;fill:currentColor"
       class="ColorScheme-Text" />
  </g>
  <g
     id="22-22-media-seek-forward"
     transform="translate(201 20)">
    <rect
       id="rect3379"
       style="opacity:.25;fill:none"
       height="22"
       width="22"
       y="-44"
       x="-33" />
    <path
       id="path4211"
       d="m-22-25v-16l8 8zm-8 0v-16l8 8z"
       style="opacity:.875;fill:currentColor"
       class="ColorScheme-Text" />
  </g>
  <g
     id="22-22-media-eject"
     transform="translate(192 20)">
    <rect
       id="rect3377"
       style="opacity:.25;fill:none"
       height="22"
       width="22"
       y="-44"
       x="0" />
    <path
       id="rect4215"
       d="m3-30h16v3h-16zm0-2 8-8 8 8z"
       style="opacity:.875;fill:currentColor"
       class="ColorScheme-Text" />
  </g>
  <g
     id="22-22-media-skip-backward"
     transform="translate(48 86)">
    <rect
       id="rect3389"
       style="opacity:.25;fill:none"
       height="22"
       width="22"
       y="-110"
       x="0" />
    <path
       id="rect4219"
       style="opacity:.875;fill:currentColor"
       d="m-6-107h3v16h-3zm-13 16v-16l13 8z"
       transform="scale(-1,1)"
       class="ColorScheme-Text" />
  </g>
  <g
     id="22-22-media-seek-backward"
     transform="translate(57 86)">
    <rect
       id="rect3391"
       style="opacity:.25;fill:none"
       height="22"
       width="22"
       y="-110"
       x="-33" />
    <path
       id="path4223"
       d="m-22-91v-16l-8 8zm8 0v-16l-8 8z"
       style="opacity:.875;fill:currentColor"
       class="ColorScheme-Text" />
  </g>
  <g
     id="22-22-media-record"
     transform="translate(66 86)">
    <rect
       id="rect3393"
       style="opacity:.25;fill:none"
       height="22"
       width="22"
       y="-110"
       x="-66" />
    <circle
       id="path4225"
       style="fill:currentColor"
       cx="-55"
       class="record"
       cy="-99"
       r="7" />
  </g>
  <g
     id="media-playback-start-2"
     transform="matrix(2,0,0,2,-437.2,-588.96)">
    <rect
       id="rect4037"
       style="opacity:.1;fill:none"
       height="16"
       width="16"
       y="307.48"
       x="286.6" />
    <path
       id="path4039"
       d="m299.6 315.48-10 6v-12z"
       style="opacity:.875;fill:currentColor"
       class="ColorScheme-Text" />
  </g>
  <g
     id="media-playback-stop-2"
     transform="matrix(2,0,0,2,-435.2,-588.96)">
    <rect
       id="rect4045"
       style="opacity:.1;fill:none"
       height="16"
       width="16"
       y="307.48"
       x="268.6" />
    <rect
       id="rect4047"
       style="opacity:.875;fill:currentColor"
       class="ColorScheme-Text"
       transform="translate(214.6,381.48)"
       height="12"
       width="12"
       y="-72"
       x="56" />
  </g>
  <g
     id="media-playback-pause-2"
     transform="matrix(2,0,0,2,-439.2,-588.96)">
    <rect
       id="rect4053"
       style="opacity:.1;fill:none"
       height="16"
       width="16"
       y="307.48"
       x="304.6" />
    <path
       id="path4055"
       style="opacity:.875;fill:currentColor"
       d="m91.906-72v12h5v-12h-5zm7.094 0v12h5v-12h-5z"
       transform="translate(214.6,381.48)"
       class="ColorScheme-Text" />
  </g>
  <g
     id="media-skip-forward-9"
     transform="matrix(2,0,0,2,-441.2,-588.96)">
    <rect
       id="rect4061"
       style="opacity:.1;fill:none"
       height="16"
       width="16"
       y="307.48"
       x="322.6" />
    <path
       id="path4063"
       style="opacity:.875;fill:currentColor"
       d="m334.1 309.48h2.5v12h-2.5zm-.00006 6-9.5 6v-12z"
       class="ColorScheme-Text" />
  </g>
  <g
     id="media-skip-backward-8"
     transform="matrix(2,0,0,2,-433.2,-588.96)">
    <rect
       id="rect4069"
       style="opacity:.1;fill:none"
       height="16"
       width="16"
       y="307.48"
       x="250.6" />
    <path
       id="path4071"
       style="opacity:.875;fill:currentColor"
       d="m255.1 309.48h-2.5v12h2.5zm.00006 6 9.5 6v-12z"
       class="ColorScheme-Text" />
  </g>
  <g
     id="media-seek-forward-9"
     transform="matrix(2,0,0,2,-443.2,-588.96)">
    <rect
       id="rect4077"
       style="opacity:.1;fill:none"
       height="16"
       width="16"
       y="307.48"
       x="340.6" />
    <path
       id="path4079"
       d="m348.6 309.48v12l6-6zm-6 0v12l6-6z"
       style="opacity:.875;fill:currentColor"
       class="ColorScheme-Text" />
  </g>
  <g
     id="media-seek-backward-2"
     transform="matrix(2,0,0,2,-431.2,-588.96)">
    <rect
       id="rect4085"
       style="opacity:.1;fill:none"
       height="16"
       width="16"
       y="307.48"
       x="232.6" />
    <path
       id="path4087"
       d="m240.6 309.48v12l-6-6zm6 0v12l-6-6z"
       style="opacity:.875;fill:currentColor"
       class="ColorScheme-Text" />
  </g>
  <g
     id="media-eject-8"
     transform="matrix(2,0,0,2,-445.2,-588.96)">
    <g
       id="g4091">
      <rect
         id="rect4095"
         style="opacity:.1;fill:none"
         height="16"
         width="16"
         y="307.48"
         x="358.6" />
      <path
         id="path4097"
         style="opacity:.875;fill:currentColor"
         d="m152-72-7 7h14l-7-7zm-7 9v3h14v-3h-14z"
         transform="translate(214.6,381.48)"
         class="ColorScheme-Text" />
    </g>
  </g>
  <g
     id="media-record-5"
     transform="matrix(2,0,0,2,-429.2,-588.96)">
    <rect
       id="rect4103"
       style="opacity:.1;fill:none"
       transform="translate(214.6,381.48)"
       height="16"
       width="16"
       y="-74"
       x="0" />
    <path
       id="path4105"
       style="fill:currentColor"
       d="m14-66a6 6 0 1 1 -12 0 6 6 0 1 1 12 0z"
       transform="translate(214.6,381.48)"
       class="record" />
  </g>
  <g
     id="media-playback-start"
     transform="matrix(2.1818,0,0,2.1818,294,228)">
    <rect
       id="rect3394"
       style="opacity:.25;fill:none"
       height="22"
       width="22"
       y="-77"
       x="-66" />
    <path
       id="path3396"
       d="m-47.208-66-13.75-7.7917v15.583z"
       style="opacity:.875;fill:currentColor"
       class="ColorScheme-Text" />
  </g>
  <g
     id="media-playback-pause"
     transform="matrix(2.1818,0,0,2.1818,272,228)">
    <rect
       id="rect3400"
       style="opacity:.25;fill:none"
       height="22"
       width="22"
       y="-77"
       x="-33" />
    <path
       id="path3402"
       d="m-20.167-73.792h5.9583v15.583h-5.9583zm-9.625 0h5.9583v15.583h-5.9583z"
       style="opacity:.875;fill:currentColor"
       class="ColorScheme-Text" />
  </g>
  <g
     id="media-playback-stop"
     transform="matrix(2.1818,0,0,2.1818,250,228)">
    <rect
       id="rect3406"
       style="opacity:.25;fill:none"
       height="22"
       width="22"
       y="-77"
       x="0" />
    <rect
       id="rect3408"
       style="opacity:.875;fill:currentColor"
       class="ColorScheme-Text"
       height="15.583"
       width="15.583"
       y="-73.792"
       x="3.2083" />
  </g>
  <g
     id="media-skip-forward"
     transform="matrix(2.1818,0,0,2.1818,444,156)">
    <rect
       id="rect3412"
       style="opacity:.25;fill:none"
       height="22"
       width="22"
       y="-44"
       x="-66" />
    <path
       id="path3414"
       d="m-49.958-40.792h2.75v15.583h-2.75zm-12.833 15.583v-15.583l12.833 7.792z"
       style="opacity:.875;fill:currentColor"
       class="ColorScheme-Text" />
  </g>
  <g
     id="media-seek-forward"
     transform="matrix(2.1818,0,0,2.1818,422,156)">
    <rect
       id="rect3418"
       style="opacity:.25;fill:none"
       height="22"
       width="22"
       y="-44"
       x="-33" />
    <path
       id="path3420"
       d="m-22-25.208v-15.584l7.792 7.792zm-7.7917 0v-15.583l7.792 7.791z"
       style="opacity:.875;fill:currentColor"
       class="ColorScheme-Text" />
  </g>
  <g
     id="media-eject"
     transform="matrix(2.1818,0,0,2.1818,400,156)">
    <rect
       id="rect3424"
       style="opacity:.25;fill:none"
       height="22"
       width="22"
       y="-44"
       x="0" />
    <path
       id="path3426"
       d="m3.2083-29.792h15.583v2.7917h-15.583zm0-2.2917 7.7917-7.791 7.7917 7.7917z"
       style="opacity:.875;fill:currentColor"
       class="ColorScheme-Text" />
  </g>
  <g
     id="media-skip-backward"
     transform="matrix(2.1818,0,0,2.1818,100,300)">
    <rect
       id="rect3430"
       style="opacity:.25;fill:none"
       height="22"
       width="22"
       y="-110"
       x="0" />
    <path
       id="path3432"
       style="opacity:.875;fill:currentColor"
       d="m-5.9583-106.79h2.75v15.583h-2.75zm-12.833 15.583v-15.583l12.833 7.79z"
       transform="scale(-1,1)"
       class="ColorScheme-Text" />
  </g>
  <g
     id="media-seek-backward"
     transform="matrix(2.1818,0,0,2.1818,122,300)">
    <rect
       id="rect3436"
       style="opacity:.25;fill:none"
       height="22"
       width="22"
       y="-110"
       x="-33" />
    <path
       id="path3438"
       d="m-22-91.208v-15.582l-7.792 7.79zm7.7917 0v-15.583l-7.792 7.79z"
       style="opacity:.875;fill:currentColor"
       class="ColorScheme-Text" />
  </g>
  <g
     id="media-record"
     transform="matrix(2.1818,0,0,2.1818,144,300)">
    <rect
       id="rect3442"
       style="opacity:.25;fill:none"
       height="22"
       width="22"
       y="-110"
       x="-66" />
    <circle
       id="circle3444"
       style="fill:currentColor"
       cx="-55"
       class="record"
       cy="-99"
       r="6.875" />
  </g>
  <g
     id="24-24-media-playback-start"
     transform="matrix(1.0909 0 0 1.0909 176 84)">
    <rect
       id="rect4264"
       style="opacity:.25;fill:none"
       height="22"
       width="22"
       y="-77"
       x="-66" />
    <path
       id="path4266"
       style="opacity:.875;fill:currentColor"
       d="m-46.75-66-14.667-8.25v16.5z"
       class="ColorScheme-Text" />
  </g>
  <g
     id="24-24-media-playback-pause"
     transform="matrix(1.0909 0 0 1.0909 166 84)">
    <rect
       id="rect4270"
       style="opacity:.25;fill:none"
       height="22"
       width="22"
       y="-77"
       x="-33" />
    <path
       id="path4272"
       style="opacity:.875;fill:currentColor"
       d="m-20.167-74.25h6.4167v16.5h-6.4167zm-10.083 0h6.4167v16.5h-6.4167z"
       class="ColorScheme-Text" />
  </g>
  <g
     id="24-24-media-playback-stop"
     transform="matrix(1.0909 0 0 1.0909 78 84)">
    <rect
       id="rect4276"
       style="opacity:.25;fill:none"
       height="22"
       width="22"
       y="-77"
       x="0" />
    <rect
       id="rect4278"
       style="opacity:.875;fill:currentColor"
       height="16.5"
       width="16.5"
       y="-74.25"
       x="2.75"
       class="ColorScheme-Text" />
  </g>
  <g
     id="24-24-media-skip-forward"
     transform="matrix(1.0909 0 0 1.0909 228 48)">
    <rect
       id="rect4282"
       style="opacity:.25;fill:none"
       height="22"
       width="22"
       y="-44"
       x="-66" />
    <path
       id="path4284"
       style="opacity:.875;fill:currentColor"
       d="m-49.5-41.25h2.5v16.5h-2.5zm-13.75 16.5v-16.5l13.75 8.25z"
       class="ColorScheme-Text" />
  </g>
  <g
     id="24-24-media-seek-forward"
     transform="matrix(1.0909 0 0 1.0909 218 48)">
    <rect
       id="rect4288"
       style="opacity:.25;fill:none"
       height="22"
       width="22"
       y="-44"
       x="-33" />
    <path
       id="path4290"
       style="opacity:.875;fill:currentColor"
       d="m-22-24.75v-16.5l8.25 8.25zm-8.25 0v-16.5l8.25 8.25z"
       class="ColorScheme-Text" />
  </g>
  <g
     id="24-24-media-eject"
     transform="matrix(1.0909 0 0 1.0909 208 48)">
    <rect
       id="rect4294"
       style="opacity:.25;fill:none"
       height="22"
       width="22"
       y="-44"
       x="0" />
    <path
       id="path4296"
       style="opacity:.875;fill:currentColor"
       d="m3-30.25h16v3.6667h-16zm0-1.75 8-8.333 8 8.333z"
       class="ColorScheme-Text" />
  </g>
  <g
     id="24-24-media-skip-backward"
     transform="matrix(1.0909 0 0 1.0909 52 120)">
    <rect
       id="rect4300"
       style="opacity:.25;fill:none"
       height="22"
       width="22"
       y="-110"
       x="0" />
    <path
       id="path4302"
       style="opacity:.875;fill:currentColor"
       d="m-5.5-107.25h2.75v16.5h-2.75zm-13.75 16.5v-16.5l13.75 8.25z"
       class="ColorScheme-Text"
       transform="scale(-1,1)" />
  </g>
  <g
     id="24-24-media-seek-backward"
     transform="matrix(1.0909 0 0 1.0909 62 120)">
    <rect
       id="rect4306"
       style="opacity:.25;fill:none"
       height="22"
       width="22"
       y="-110"
       x="-33" />
    <path
       id="path4308"
       style="opacity:.875;fill:currentColor"
       d="m-22-90.75v-16.5l-8.25 8.25zm8.25 0v-16.5l-8.25 8.25z"
       class="ColorScheme-Text" />
  </g>
  <g
     id="24-24-media-record"
     transform="matrix(1.0909 0 0 1.0909 72 120)">
    <rect
       id="rect4312"
       style="opacity:.25;fill:none"
       height="22"
       width="22"
       y="-110"
       x="-66" />
    <circle
       id="circle4314"
       style="fill:currentColor"
       cy="-99"
       cx="-55"
       r="7.3333"
       class="record" />
  </g>
</svg>
