<?xml version="1.0" encoding="UTF-8" standalone="no"?>
<svg id="svg7229" xmlns:rdf="http://www.w3.org/1999/02/22-rdf-syntax-ns#" xmlns="http://www.w3.org/2000/svg" height="22" width="22" version="1.0" xmlns:cc="http://creativecommons.org/ns#" xmlns:dc="http://purl.org/dc/elements/1.1/">
	<defs id="defs3615">
		<style id="current-color-scheme" type="text/css">
			.ColorScheme-Text { color:#0000FF; }
			.ColorScheme-Highlight { color:#FF00FF }</style>
	</defs>
	<metadata id="metadata7">
		<rdf:RDF>
			<cc:Work rdf:about="">
				<dc:format>image/svg+xml</dc:format>
				<dc:type rdf:resource="http://purl.org/dc/dcmitype/StillImage"/>
				<dc:title/>
				<dc:creator>
					<cc:Agent>
						<dc:title>obnosim</dc:title>
					</cc:Agent>
				</dc:creator>
				<cc:license rdf:resource="http://creativecommons.org/licenses/by-sa/3.0/"/>
			</cc:Work>
			<cc:License rdf:about="http://creativecommons.org/licenses/by-sa/3.0/">
				<cc:permits rdf:resource="http://creativecommons.org/ns#Reproduction"/>
				<cc:permits rdf:resource="http://creativecommons.org/ns#Distribution"/>
				<cc:requires rdf:resource="http://creativecommons.org/ns#Notice"/>
				<cc:requires rdf:resource="http://creativecommons.org/ns#Attribution"/>
				<cc:permits rdf:resource="http://creativecommons.org/ns#DerivativeWorks"/>
				<cc:requires rdf:resource="http://creativecommons.org/ns#ShareAlike"/>
			</cc:License>
		</rdf:RDF>
	</metadata>
	<g id="32-32-media-playback-start" transform="matrix(2,0,0,2,-533.2,-559.96)" class="ColorScheme-Text">
		<rect id="rect99" style="opacity:.1;fill:none" height="16" width="16" y="307.48" x="286.6"/>
		<path id="path101" style="opacity:.875;fill:currentColor" d="m299.6 315.48-10 6v-12z"/>
	</g>
	<g id="32-32-media-playback-stop" transform="matrix(2,0,0,2,-531.2,-559.96)" class="ColorScheme-Text">
		<rect id="rect104" style="opacity:.1;fill:none" height="16" width="16" y="307.48" x="268.6"/>
		<rect id="rect106" style="opacity:.875;fill:currentColor" transform="translate(214.6,381.48)" height="12" width="12" y="-72" x="56"/>
	</g>
	<g id="32-32-media-playback-pause" transform="matrix(2,0,0,2,-535.2,-559.96)" class="ColorScheme-Text">
		<rect id="rect109" style="opacity:.1;fill:none" height="16" width="16" y="307.48" x="304.6"/>
		<path id="path111" style="opacity:.875;fill:currentColor" transform="translate(214.6,381.48)" d="m91.906-72v12h5v-12h-5zm7.094 0v12h5v-12h-5z"/>
	</g>
	<g id="32-32-media-skip-forward" transform="matrix(2,0,0,2,-537.2,-559.96)" class="ColorScheme-Text">
		<rect id="rect114" style="opacity:.1;fill:none" height="16" width="16" y="307.48" x="322.6"/>
		<path id="path116" style="opacity:.875;fill:currentColor" d="m334.1 309.48h2.5v12h-2.5zm-.00006 6-9.5 6v-12z"/>
	</g>
	<g id="32-32-media-skip-backward" transform="matrix(2,0,0,2,-529.2,-559.96)" class="ColorScheme-Text">
		<rect id="rect119" style="opacity:.1;fill:none" height="16" width="16" y="307.48" x="250.6"/>
		<path id="path121" style="opacity:.875;fill:currentColor" d="m255.1 309.48h-2.5v12h2.5zm.00006 6 9.5 6v-12z"/>
	</g>
	<g id="32-32-media-seek-forward" transform="matrix(2,0,0,2,-539.2,-559.96)" class="ColorScheme-Text">
		<rect id="rect124" style="opacity:.1;fill:none" height="16" width="16" y="307.48" x="340.6"/>
		<path id="path126" style="opacity:.875;fill:currentColor" d="m348.6 309.48v12l6-6zm-6 0v12l6-6z"/>
	</g>
	<g id="32-32-media-seek-backward" transform="matrix(2,0,0,2,-527.2,-559.96)" class="ColorScheme-Text">
		<rect id="rect129" style="opacity:.1;fill:none" height="16" width="16" y="307.48" x="232.6"/>
		<path id="path131" style="opacity:.875;fill:currentColor" d="m240.6 309.48v12l-6-6zm6 0v12l-6-6z"/>
	</g>
	<g id="32-32-media-eject" transform="matrix(2,0,0,2,-541.2,-559.96)" class="ColorScheme-Text">
		<g id="g4091">
			<rect id="rect135" style="opacity:.1;fill:none" height="16" width="16" y="307.48" x="358.6"/>
			<path id="path137" style="opacity:.875;fill:currentColor" transform="translate(214.6,381.48)" d="m152-72-7 7h14l-7-7zm-7 9v3h14v-3h-14z"/>
		</g>
	</g>
	<g id="32-32-media-record" transform="matrix(2,0,0,2,-525.2,-559.96)">
		<rect id="rect140" style="opacity:.1;fill:none" transform="translate(214.6,381.48)" height="16" width="16" y="-74" x="0"/>
		<path id="path142" style="fill:currentColor" d="m14-66a6 6 0 1 1 -12 0 6 6 0 1 1 12 0z" transform="translate(214.6,381.48)" class="ColorScheme-Highlight"/>
	</g>
	<g id="media-playback-start" transform="matrix(2.1818,0,0,2.1818,198,257)" class="ColorScheme-Text">
		<rect id="rect145" style="fill:none" height="22" width="22" y="-77" x="-66"/>
		<path id="path147" style="opacity:.875;fill:currentColor" d="m-47.208-66-13.75-7.7917v15.583z"/>
	</g>
	<g id="media-playback-pause" transform="matrix(2.1818,0,0,2.1818,176,257)" class="ColorScheme-Text">
		<rect id="rect150" style="fill:none" height="22" width="22" y="-77" x="-33"/>
		<path id="path152" style="opacity:.875;fill:currentColor" d="m-20.167-73.792h5.9583v15.583h-5.9583zm-9.625 0h5.9583v15.583h-5.9583z"/>
	</g>
	<g id="media-playback-stop" transform="matrix(2.1818,0,0,2.1818,154,257)" class="ColorScheme-Text">
		<rect id="rect155" style="fill:none" height="22" width="22" y="-77" x="0"/>
		<rect id="rect157" style="opacity:.875;fill:currentColor" height="15.583" width="15.583" y="-73.792" x="3.2083"/>
	</g>
	<g id="media-skip-forward" transform="matrix(2.1818,0,0,2.1818,348,185)" class="ColorScheme-Text">
		<rect id="rect160" style="fill:none" height="22" width="22" y="-44" x="-66"/>
		<path id="path162" style="opacity:.875;fill:currentColor" d="m-49.958-40.792h2.75v15.583h-2.75zm-12.833 15.583v-15.583l12.833 7.792z"/>
	</g>
	<g id="media-seek-forward" transform="matrix(2.1818,0,0,2.1818,326,185)" class="ColorScheme-Text">
		<rect id="rect165" style="fill:none" height="22" width="22" y="-44" x="-33"/>
		<path id="path167" style="opacity:.875;fill:currentColor" d="m-22-25.208v-15.584l7.792 7.792zm-7.7917 0v-15.583l7.792 7.791z"/>
	</g>
	<g id="media-eject" transform="matrix(2.1818,0,0,2.1818,304,185)" class="ColorScheme-Text">
		<rect id="rect170" style="fill:none" height="22" width="22" y="-44" x="0"/>
		<path id="path172" style="opacity:.875;fill:currentColor" d="m3.2083-29.792h15.583v2.7917h-15.583zm0-2.2917 7.7917-7.791 7.7917 7.7917z"/>
	</g>
	<g id="media-skip-backward" transform="matrix(2.1818,0,0,2.1818,4,329)" class="ColorScheme-Text">
		<rect id="rect175" style="fill:none" height="22" width="22" y="-110" x="0"/>
		<path id="path177" style="opacity:.875;fill:currentColor" transform="scale(-1,1)" d="m-5.9583-106.79h2.75v15.583h-2.75zm-12.833 15.583v-15.583l12.833 7.79z"/>
	</g>
	<g id="media-seek-backward" transform="matrix(2.1818,0,0,2.1818,26,329)" class="ColorScheme-Text">
		<rect id="rect180" style="fill:none" height="22" width="22" y="-110" x="-33"/>
		<path id="path182" style="opacity:.875;fill:currentColor" d="m-22-91.208v-15.582l-7.792 7.79zm7.7917 0v-15.583l-7.792 7.79z"/>
	</g>
	<g id="media-record" transform="matrix(2.1818 0 0 2.1818 47.999 329)">
		<rect id="rect185" style="fill:none" height="22" width="22" y="-110" x="-66"/>
		<circle id="circle3444" style="fill:currentColor" cx="-55" class="ColorScheme-Highlight" cy="-99" r="6.875"/>
	</g>
	<g id="24-24-media-playback-start" transform="matrix(1.0909,0,0,1.0909,80,113)" class="ColorScheme-Text">
		<rect id="rect189" style="fill:none" height="22" width="22" y="-77" x="-66"/>
		<path id="path191" style="opacity:.875;fill:currentColor" d="m-46.75-66-14.667-8.25v16.5z"/>
	</g>
	<g id="24-24-media-playback-pause" transform="matrix(1.0909,0,0,1.0909,70,113)">
		<rect id="rect194" style="fill:none" height="22" width="22" y="-77" x="-33"/>
		<path id="path196" d="m-20.167-74.25h6.4167v16.5h-6.4167zm-10.083 0h6.4167v16.5h-6.4167z" style="opacity:.875;fill:currentColor" class="ColorScheme-Text"/>
	</g>
	<g id="24-24-media-playback-stop" transform="matrix(1.0909,0,0,1.0909,-18,113)">
		<rect id="rect199" style="fill:none" height="22" width="22" y="-77" x="0"/>
		<rect id="rect201" style="opacity:.875;fill:currentColor" class="ColorScheme-Text" height="16.5" width="16.5" y="-74.25" x="2.75"/>
	</g>
	<g id="24-24-media-skip-forward" transform="matrix(1.0909,0,0,1.0909,132,77)">
		<rect id="rect204" style="fill:none" height="22" width="22" y="-44" x="-66"/>
		<path id="path206" d="m-49.5-41.25h2.5v16.5h-2.5zm-13.75 16.5v-16.5l13.75 8.25z" style="opacity:.875;fill:currentColor" class="ColorScheme-Text"/>
	</g>
	<g id="24-24-media-seek-forward" transform="matrix(1.0909,0,0,1.0909,122,77)">
		<rect id="rect209" style="fill:none" height="22" width="22" y="-44" x="-33"/>
		<path id="path211" d="m-22-24.75v-16.5l8.25 8.25zm-8.25 0v-16.5l8.25 8.25z" style="opacity:.875;fill:currentColor" class="ColorScheme-Text"/>
	</g>
	<g id="24-24-media-eject" transform="matrix(1.0909,0,0,1.0909,112,77)">
		<rect id="rect214" style="fill:none" height="22" width="22" y="-44" x="0"/>
		<path id="path216" d="m3-30.25h16v3.6667h-16zm0-1.75 8-8.333 8 8.333z" style="opacity:.875;fill:currentColor" class="ColorScheme-Text"/>
	</g>
	<g id="24-24-media-skip-backward" transform="matrix(1.0909,0,0,1.0909,-44,149)">
		<rect id="rect219" style="fill:none" height="22" width="22" y="-110" x="0"/>
		<path id="path221" class="ColorScheme-Text" style="opacity:.875;fill:currentColor" transform="scale(-1,1)" d="m-5.5-107.25h2.75v16.5h-2.75zm-13.75 16.5v-16.5l13.75 8.25z"/>
	</g>
	<g id="24-24-media-seek-backward" transform="matrix(1.0909,0,0,1.0909,-34,149)">
		<rect id="rect224" style="fill:none" height="22" width="22" y="-110" x="-33"/>
		<path id="path226" d="m-22-90.75v-16.5l-8.25 8.25zm8.25 0v-16.5l-8.25 8.25z" style="opacity:.875;fill:currentColor" class="ColorScheme-Text"/>
	</g>
	<g id="24-24-media-record" transform="matrix(1.0909,0,0,1.0909,-24,149)">
		<rect id="rect229" style="fill:none" height="22" width="22" y="-110" x="-66"/>
		<circle id="circle4314" style="fill:currentColor" cx="-55" class="ColorScheme-Highlight" cy="-99" r="7.3333"/>
	</g>
	<path id="16-16-media-playback-stop" d="m-28-33a8 8 0 0 0 -8 8 8 8 0 0 0 8 8 8 8 0 0 0 8 -8 8 8 0 0 0 -8 -8zm-4 4h8v8h-8v-8z" style="opacity:.875;fill:currentColor" class="ColorScheme-Text"/>
	<path id="16-16-media-skip-backward" d="m-48-33a8 8 0 0 0 -8 8 8 8 0 0 0 8 8 8 8 0 0 0 8 -8 8 8 0 0 0 -8 -8zm-4 4h2v4l6-4v8l-6-4v4h-2v-8z" style="opacity:.875;fill:currentColor" class="ColorScheme-Text"/>
	<path id="16-16-media-seek-backward" d="m-68-33c-4.4183 0-8 3.5817-8 8s3.5817 8 8 8 8-3.5817 8-8-3.5817-8-8-8zm-1 4v4l4-4v8l-4-4v4l-4-4z" style="opacity:.875;fill:currentColor" class="ColorScheme-Text"/>
	<path id="16-16-media-playback-start" d="m-8-33a8 8 0 0 0 -8 8 8 8 0 0 0 8 8 8 8 0 0 0 8 -8 8 8 0 0 0 -8 -8zm-3 3 8 5-8 5v-10z" style="opacity:.875;fill:currentColor" class="ColorScheme-Text"/>
	<path id="16-16-media-playback-pause" d="m12-33a8 8 0 0 0 -8 8 8 8 0 0 0 8 8 8 8 0 0 0 8 -8 8 8 0 0 0 -8 -8zm-4 4h3v8h-3v-8zm5 0h3v8h-3v-8z" style="opacity:.875;fill:currentColor" class="ColorScheme-Text"/>
	<path id="16-16-media-eject" d="m72-33c-4.4183 0-8 3.5817-8 8s3.5817 8 8 8 8-3.5817 8-8-3.5817-8-8-8zm0 4 4 5h-8zm-4 6h8v1h-8z" style="opacity:.875;fill:currentColor" class="ColorScheme-Text"/>
	<path id="16-16-media-seek-forward" d="m52-33c4.4183 0 8 3.5817 8 8s-3.5817 8-8 8-8-3.5817-8-8 3.5817-8 8-8zm1 4v4l-4-4v8l4-4v4l4-4z" style="opacity:.875;fill:currentColor" class="ColorScheme-Text"/>
	<path id="16-16-media-skip-forward" d="m32-33a8 8 0 0 1 8 8 8 8 0 0 1 -8 8 8 8 0 0 1 -8 -8 8 8 0 0 1 8 -8zm4 4h-2v4l-6-4v8l6-4v4h2v-8z" style="opacity:.875;fill:currentColor" class="ColorScheme-Text"/>
	<g id="16-16-media-record" transform="translate(-96,49)">
		<circle id="circle4191" style="opacity:.875;fill:currentColor" cy="-74" cx="8" r="8" class="ColorScheme-Text"/>
		<path id="path3616" d="m8-78a4 4 0 0 0 -4 4 4 4 0 0 0 4 4 4 4 0 0 0 4 -4 4 4 0 0 0 -4 -4z" style="fill:currentColor" class="ColorScheme-Highlight"/>
	</g>
	<g id="22-22-media-seek-backward" transform="translate(-94,97)" class="ColorScheme-Text">
		<rect id="rect4601" style="fill:none" height="22" width="22" y="-97" x="22"/>
		<path id="circle4637" style="opacity:.875;fill:currentColor" d="m33-96c-5.5228 0-10 4.4772-10 10s4.4772 10 10 10 10-4.4772 10-10-4.4772-10-10-10zm-1 5v5l5-5v10l-5-5v5l-5-5z"/>
	</g>
	<g id="22-22-media-skip-forward" transform="matrix(-1,0,0,1,114,97)" class="ColorScheme-Text">
		<rect id="rect4595" style="fill:none" height="22" width="22" y="-97" x="44"/>
		<path id="circle4639" style="opacity:.875;fill:currentColor" d="m55-96a10 10 0 0 0 -10 10 10 10 0 0 0 10 10 10 10 0 0 0 10 -10 10 10 0 0 0 -10 -10zm-5 5h2v5l8-5v10l-8-5v5h-2v-10z"/>
	</g>
	<g id="22-22-media-playback-stop" transform="translate(-90,97)" class="ColorScheme-Text">
		<rect id="rect4571" style="fill:none" height="22" width="22" y="-97" x="66"/>
		<path id="circle4641" style="opacity:.875;fill:currentColor" d="m77-96a10 10 0 0 0 -10 10 10 10 0 0 0 10 10 10 10 0 0 0 10 -10 10 10 0 0 0 -10 -10zm-5 5h10v10h-10v-10z"/>
	</g>
	<g id="22-22-media-playback-start" transform="translate(-88,97)" class="ColorScheme-Text">
		<rect id="rect4559" style="fill:none" height="22" width="22" y="-97" x="88"/>
		<path id="circle4643" style="opacity:.875;fill:currentColor" d="m99-96a10 10 0 0 0 -10 10 10 10 0 0 0 10 10 10 10 0 0 0 10 -10 10 10 0 0 0 -10 -10zm-4 4 10 6-10 6v-12z"/>
	</g>
	<g id="22-22-media-playback-pause" transform="translate(-86,97)" class="ColorScheme-Text">
		<rect id="rect4565" style="fill:none" height="22" width="22" y="-97" x="110"/>
		<path id="circle4645" style="opacity:.875;fill:currentColor" d="m121-96a10 10 0 0 0 -10 10 10 10 0 0 0 10 10 10 10 0 0 0 10 -10 10 10 0 0 0 -10 -10zm-5 5h4v10h-4v-10zm6 0h4v10h-4v-10z"/>
	</g>
	<g id="22-22-media-eject" transform="translate(-80,97)" class="ColorScheme-Text">
		<rect id="rect4589" style="fill:none" height="22" width="22" y="-97" x="176"/>
		<path id="circle4651" style="opacity:.875;fill:currentColor" d="m187-96c-5.5228 0-10 4.4772-10 10s4.4772 10 10 10 10-4.4772 10-10-4.4772-10-10-10zm0 5 5 6h-10zm-5 7h10v2h-10z"/>
	</g>
	<g id="22-22-media-record" transform="translate(-96,97)">
		<rect id="rect4607" style="fill:none" height="22" width="22" y="-97" x="0"/>
		<circle id="path4635" style="opacity:.875;fill:currentColor" class="ColorScheme-Text" cy="-86" cx="11" r="10"/>
		<circle id="path4673" style="fill:currentColor" class="ColorScheme-Highlight" cy="-86" cx="11" r="5"/>
	</g>
	<g id="22-22-media-skip-backward" transform="translate(-92,97)" class="ColorScheme-Text">
		<rect id="rect4692" style="fill:none" height="22" width="22" y="-97" x="44"/>
		<path id="path4694" style="opacity:.875;fill:currentColor" d="m55-96a10 10 0 0 0 -10 10 10 10 0 0 0 10 10 10 10 0 0 0 10 -10 10 10 0 0 0 -10 -10zm-5 5h2v5l8-5v10l-8-5v5h-2v-10z"/>
	</g>
	<g id="22-22-media-seek-forward" transform="matrix(-1,0,0,1,116,97)" class="ColorScheme-Text">
		<rect id="rect4713" style="fill:none" height="22" width="22" y="-97" x="22"/>
		<path id="path4715" style="opacity:.875;fill:currentColor" d="m33-96c-5.5228 0-10 4.4772-10 10s4.4772 10 10 10 10-4.4772 10-10-4.4772-10-10-10zm-1 5v5l5-5v10l-5-5v5l-5-5z"/>
	</g>
</svg>
