<?xml version="1.0" encoding="UTF-8" standalone="no"?>
<svg id="svg7229" xmlns:rdf="http://www.w3.org/1999/02/22-rdf-syntax-ns#" xmlns="http://www.w3.org/2000/svg" height="22" width="22" version="1.0" xmlns:cc="http://creativecommons.org/ns#" xmlns:dc="http://purl.org/dc/elements/1.1/">
	<defs id="defs3615">
		<style id="current-color-scheme" type="text/css">.ColorScheme-Text {
            color:#0000FF;
            }
            .ColorScheme-Background{
            color:#E9E8E8;
            }
            .ColorScheme-ViewText {
            color:#31363b;
            }
            .ColorScheme-ViewBackground{
            color:#ffffff;
            }
            .ColorScheme-ViewHover {
            color:#000000;
            }
            .ColorScheme-ViewFocus{
            color:#5a5a5a;
            }
            .ColorScheme-ButtonText {
            color:#31363b;
            }
            .ColorScheme-ButtonBackground{
            color:#E9E8E8;
            }
            .ColorScheme-ButtonHover {
            color:#1489ff;
            }
            .ColorScheme-ButtonFocus{
            color:#2B74C7;
            }</style>
	</defs>
	<metadata id="metadata7234">
		<rdf:RDF>
			<cc:Work rdf:about="">
				<dc:format>image/svg+xml</dc:format>
				<dc:type rdf:resource="http://purl.org/dc/dcmitype/StillImage"/>
				<dc:title/>
				<dc:creator>
					<cc:Agent>
						<dc:title>obnosim</dc:title>
					</cc:Agent>
				</dc:creator>
				<dc:description/>
				<cc:license rdf:resource="http://creativecommons.org/licenses/by-nc-sa/3.0/"/>
			</cc:Work>
			<cc:License rdf:about="http://creativecommons.org/licenses/by-nc-sa/3.0/">
				<cc:permits rdf:resource="http://creativecommons.org/ns#Reproduction"/>
				<cc:permits rdf:resource="http://creativecommons.org/ns#Distribution"/>
				<cc:requires rdf:resource="http://creativecommons.org/ns#Notice"/>
				<cc:requires rdf:resource="http://creativecommons.org/ns#Attribution"/>
				<cc:prohibits rdf:resource="http://creativecommons.org/ns#CommercialUse"/>
				<cc:permits rdf:resource="http://creativecommons.org/ns#DerivativeWorks"/>
				<cc:requires rdf:resource="http://creativecommons.org/ns#ShareAlike"/>
			</cc:License>
		</rdf:RDF>
	</metadata>
	<g id="22-22-media-playback-start" transform="translate(66,44)">
		<rect id="rect3387" style="opacity:.25;fill:none" height="22" width="22" y="-77" x="-66"/>
		<path id="path3395" d="m-47-66-14-8v16z" style="opacity:.875;fill:currentColor" class="ColorScheme-Text"/>
	</g>
	<g id="22-22-media-playback-pause" transform="translate(66,44)">
		<rect id="rect3385" style="opacity:.25;fill:none" height="22" width="22" y="-77" x="-33"/>
		<path id="rect4199" d="m-20-74h6v16h-6zm-10 0h6v16h-6z" style="opacity:.875;fill:currentColor" class="ColorScheme-Text"/>
	</g>
	<g id="22-22-media-playback-stop" transform="translate(66,44)">
		<rect id="rect3383" style="opacity:.25;fill:none" height="22" width="22" y="-77" x="0"/>
		<rect id="rect4201" style="opacity:.875;fill:currentColor" class="ColorScheme-Text" width="16" y="-74" x="3" height="16"/>
	</g>
	<g id="22-22-media-skip-forward" transform="translate(66,44)">
		<rect id="rect3381" style="opacity:.25;fill:none" height="22" width="22" y="-44" x="-66"/>
		<path id="rect4207" d="m-50-41h3v16h-3zm-13 16v-16l13 8z" style="opacity:.875;fill:currentColor" class="ColorScheme-Text"/>
	</g>
	<g id="22-22-media-seek-forward" transform="translate(66,44)">
		<rect id="rect3379" style="opacity:.25;fill:none" height="22" width="22" y="-44" x="-33"/>
		<path id="path4211" d="m-22-25v-16l8 8zm-8 0v-16l8 8z" style="opacity:.875;fill:currentColor" class="ColorScheme-Text"/>
	</g>
	<g id="22-22-media-eject" transform="translate(66,44)">
		<rect id="rect3377" style="opacity:.25;fill:none" height="22" width="22" y="-44" x="0"/>
		<path id="rect4215" d="m3-30h16v3h-16zm0-2 8-8 8 8z" style="opacity:.875;fill:currentColor" class="ColorScheme-Text"/>
	</g>
	<g id="22-22-media-skip-backward" transform="translate(66,44)">
		<rect id="rect3389" style="opacity:.25;fill:none" height="22" width="22" y="-110" x="0"/>
		<path id="rect4219" style="opacity:.875;fill:currentColor" d="m-6-107h3v16h-3zm-13 16v-16l13 8z" transform="scale(-1,1)" class="ColorScheme-Text"/>
	</g>
	<g id="22-22-media-seek-backward" transform="translate(66,44)">
		<rect id="rect3391" style="opacity:.25;fill:none" height="22" width="22" y="-110" x="-33"/>
		<path id="path4223" d="m-22-91v-16l-8 8zm8 0v-16l-8 8z" style="opacity:.875;fill:currentColor" class="ColorScheme-Text"/>
	</g>
	<g id="22-22-media-record" transform="translate(66,44)">
		<rect id="rect3393" style="opacity:.25;fill:none" height="22" width="22" y="-110" x="-66"/>
		<circle id="path4225" style="fill:#ff3721" cx="-55" class="ColorScheme-Text" cy="-99" r="7"/>
	</g>
	<g id="media-playback-start" transform="matrix(2.1818 0 0 2.1818 243 76)">
		<rect id="rect3394" style="opacity:.25;fill:none" height="22" width="22" y="-77" x="-66"/>
		<path id="path3396" style="opacity:.875;fill:currentColor" d="m-47.208-66-13.75-7.7917v15.583z" class="ColorScheme-Text"/>
	</g>
	<g id="media-playback-pause" transform="matrix(2.1818 0 0 2.1818 243 76)">
		<rect id="rect3400" style="opacity:.25;fill:none" height="22" width="22" y="-77" x="-33"/>
		<path id="path3402" style="opacity:.875;fill:currentColor" d="m-20.167-73.792h5.9583v15.583h-5.9583zm-9.625 0h5.9583v15.583h-5.9583z" class="ColorScheme-Text"/>
	</g>
	<g id="media-playback-stop" transform="matrix(2.1818 0 0 2.1818 243 76)">
		<rect id="rect3406" style="opacity:.25;fill:none" height="22" width="22" y="-77" x="0"/>
		<rect id="rect3408" style="opacity:.875;fill:currentColor" height="15.583" width="15.583" y="-73.792" x="3.2083" class="ColorScheme-Text"/>
	</g>
	<g id="media-skip-forward" transform="matrix(2.1818 0 0 2.1818 243 70)">
		<rect id="rect3412" style="opacity:.25;fill:none" height="22" width="22" y="-44" x="-66"/>
		<path id="path3414" style="opacity:.875;fill:currentColor" d="m-49.958-40.792h2.75v15.583h-2.75zm-12.833 15.583v-15.583l12.833 7.792z" class="ColorScheme-Text"/>
	</g>
	<g id="media-seek-forward" transform="matrix(2.1818 0 0 2.1818 243 70)">
		<rect id="rect3418" style="opacity:.25;fill:none" height="22" width="22" y="-44" x="-33"/>
		<path id="path3420" style="opacity:.875;fill:currentColor" d="m-22-25.208v-15.584l7.792 7.792zm-7.7917 0v-15.583l7.792 7.791z" class="ColorScheme-Text"/>
	</g>
	<g id="media-eject" transform="matrix(2.1818 0 0 2.1818 243 70)">
		<rect id="rect3424" style="opacity:.25;fill:none" height="22" width="22" y="-44" x="0"/>
		<path id="path3426" style="opacity:.875;fill:currentColor" d="m3.2083-29.792h15.583v2.7917h-15.583zm0-2.2917l7.7917-7.791 7.7917 7.7917z" class="ColorScheme-Text"/>
	</g>
	<g id="media-skip-backward" transform="matrix(2.1818 0 0 2.1818 243 82)">
		<rect id="rect3430" style="opacity:.25;fill:none" height="22" width="22" y="-110" x="0"/>
		<path id="path3432" style="opacity:.875;fill:currentColor" d="m-5.9583-106.79h2.75v15.583h-2.75zm-12.833 15.583v-15.583l12.833 7.79z" class="ColorScheme-Text" transform="scale(-1,1)"/>
	</g>
	<g id="media-seek-backward" transform="matrix(2.1818 0 0 2.1818 243 82)">
		<rect id="rect3436" style="opacity:.25;fill:none" height="22" width="22" y="-110" x="-33"/>
		<path id="path3438" style="opacity:.875;fill:currentColor" d="m-22-91.208v-15.582l-7.792 7.79zm7.7917 0v-15.583l-7.792 7.79z" class="ColorScheme-Text"/>
	</g>
	<g id="media-record" transform="matrix(2.1818 0 0 2.1818 243 82)">
		<rect id="rect3442" style="opacity:.25;fill:none" height="22" width="22" y="-110" x="-66"/>
		<circle id="circle3444" style="fill:#ff3721" cy="-99" cx="-55" r="6.875" class="ColorScheme-Text"/>
	</g>
</svg>
