<?xml version="1.0" encoding="UTF-8" standalone="no"?>
<!-- Created with Inkscape (http://www.inkscape.org/) -->

<svg
   xmlns:dc="http://purl.org/dc/elements/1.1/"
   xmlns:cc="http://creativecommons.org/ns#"
   xmlns:rdf="http://www.w3.org/1999/02/22-rdf-syntax-ns#"
   xmlns:svg="http://www.w3.org/2000/svg"
   xmlns="http://www.w3.org/2000/svg"
   xmlns:sodipodi="http://sodipodi.sourceforge.net/DTD/sodipodi-0.dtd"
   xmlns:inkscape="http://www.inkscape.org/namespaces/inkscape"
   version="1.0"
   width="32"
   height="32"
   id="svg7229"
   inkscape:version="0.91 r13725"
   sodipodi:docname="media.svg">
  <sodipodi:namedview
     pagecolor="#323232"
     bordercolor="#666666"
     borderopacity="1"
     objecttolerance="10"
     gridtolerance="10"
     guidetolerance="10"
     inkscape:pageopacity="0"
     inkscape:pageshadow="2"
     inkscape:window-width="640"
     inkscape:window-height="480"
     id="namedview124"
     showgrid="false"
     fit-margin-top="0"
     fit-margin-left="0"
     fit-margin-right="0"
     fit-margin-bottom="0"
     inkscape:zoom="1.4531261"
     inkscape:cx="250.39963"
     inkscape:cy="36.22362"
     inkscape:current-layer="svg7229">
    <inkscape:grid
       type="xygrid"
       id="grid3452"
       originx="-143.99989"
       originy="-2.7505372e-06" />
  </sodipodi:namedview>
  <defs
     id="defs7231" />
  <metadata
     id="metadata7234">
    <rdf:RDF>
      <cc:Work
         rdf:about="">
        <dc:format>image/svg+xml</dc:format>
        <dc:type
           rdf:resource="http://purl.org/dc/dcmitype/StillImage" />
        <dc:title />
        <dc:creator>
          <cc:Agent>
            <dc:title>obnosim</dc:title>
          </cc:Agent>
        </dc:creator>
        <dc:description />
        <cc:license
           rdf:resource="http://creativecommons.org/licenses/by-nc-sa/3.0/" />
      </cc:Work>
      <cc:License
         rdf:about="http://creativecommons.org/licenses/by-nc-sa/3.0/">
        <cc:permits
           rdf:resource="http://creativecommons.org/ns#Reproduction" />
        <cc:permits
           rdf:resource="http://creativecommons.org/ns#Distribution" />
        <cc:requires
           rdf:resource="http://creativecommons.org/ns#Notice" />
        <cc:requires
           rdf:resource="http://creativecommons.org/ns#Attribution" />
        <cc:prohibits
           rdf:resource="http://creativecommons.org/ns#CommercialUse" />
        <cc:permits
           rdf:resource="http://creativecommons.org/ns#DerivativeWorks" />
        <cc:requires
           rdf:resource="http://creativecommons.org/ns#ShareAlike" />
      </cc:License>
    </rdf:RDF>
  </metadata>
  <g
     id="media-playback-start"
     transform="matrix(1.9999984,0,0,1.9999984,-573.20627,-614.96793)">
    <path
       inkscape:connector-curvature="0"
       style="opacity:0.375;fill:none;stroke:#000000;stroke-width:1.00000083;stroke-linejoin:round;stroke-miterlimit:4;stroke-dasharray:none;stroke-opacity:1"
       id="path4035"
       d="m 299.60336,315.48421 -10,6 0,-12 z" />
    <rect
       style="opacity:0.1;fill:none;stroke:none"
       id="rect4037"
       y="307.48422"
       x="286.60336"
       height="16"
       width="16" />
    <path
       inkscape:connector-curvature="0"
       style="fill:#e0e0e0;fill-opacity:1;fill-rule:nonzero;stroke:none"
       id="path4039"
       d="m 299.60336,315.48421 -10,6 0,-12 z" />
  </g>
  <g
     id="media-playback-stop"
     transform="matrix(1.9999984,0,0,1.9999984,-573.20627,-614.96793)">
    <rect
       style="opacity:0.375;fill:none;stroke:#000000;stroke-width:1.00000083;stroke-linejoin:round;stroke-miterlimit:4;stroke-dasharray:none;stroke-opacity:1"
       id="rect4043"
       transform="translate(214.60336,381.48421)"
       y="-72"
       x="56"
       height="12"
       width="12" />
    <rect
       style="opacity:0.1;fill:none;stroke:none"
       id="rect4045"
       y="307.48422"
       x="268.60336"
       height="16"
       width="16" />
    <rect
       style="fill:#e0e0e0;fill-opacity:1;fill-rule:nonzero;stroke:none"
       id="rect4047"
       transform="translate(214.60336,381.48421)"
       y="-72"
       x="56"
       height="12"
       width="12" />
  </g>
  <g
     id="media-playback-pause"
     transform="matrix(1.9999984,0,0,1.9999984,-573.20627,-614.96793)">
    <path
       inkscape:connector-curvature="0"
       style="opacity:0.375;fill:none;stroke:#000000;stroke-width:1.00000083;stroke-linejoin:round;stroke-miterlimit:4;stroke-dasharray:none;stroke-opacity:1"
       id="path4051"
       transform="translate(214.60336,381.48421)"
       d="m 91.90625,-72 0,12 5,0 0,-12 -5,0 z M 99,-72 l 0,12 5,0 0,-12 -5,0 z" />
    <rect
       style="opacity:0.1;fill:none;stroke:none"
       id="rect4053"
       y="307.48422"
       x="304.60336"
       height="16"
       width="16" />
    <path
       inkscape:connector-curvature="0"
       style="fill:#e0e0e0;fill-opacity:1;fill-rule:nonzero;stroke:none"
       id="path4055"
       transform="translate(214.60336,381.48421)"
       d="m 91.90625,-72 0,12 5,0 0,-12 -5,0 z M 99,-72 l 0,12 5,0 0,-12 -5,0 z" />
  </g>
  <g
     id="media-skip-forward"
     transform="matrix(1.9999984,0,0,1.9999984,-573.20627,-614.96793)">
    <path
       inkscape:connector-curvature="0"
       style="opacity:0.375;fill:none;stroke:#000000;stroke-width:1.00000083;stroke-linejoin:round;stroke-miterlimit:4;stroke-dasharray:none;stroke-opacity:1"
       id="path4059"
       d="m 333.60342,309.48422 3,0 0,12 -3,0 z m -6e-5,5.99999 -9,6 0,-12 z" />
    <rect
       style="opacity:0.1;fill:none;stroke:none"
       id="rect4061"
       y="307.48422"
       x="322.60336"
       height="16"
       width="16" />
    <path
       inkscape:connector-curvature="0"
       style="fill:#e0e0e0;fill-opacity:1;fill-rule:nonzero;stroke:none"
       id="path4063"
       d="m 333.60342,309.48422 3,0 0,12 -3,0 z m -6e-5,5.99999 -9,6 0,-12 z" />
  </g>
  <g
     id="media-skip-backward"
     transform="matrix(1.9999984,0,0,1.9999984,-573.20627,-614.96793)">
    <path
       inkscape:connector-curvature="0"
       style="opacity:0.375;fill:none;stroke:#000000;stroke-width:1.00000083;stroke-linejoin:round;stroke-miterlimit:4;stroke-dasharray:none;stroke-opacity:1"
       id="path4067"
       d="m 255.60336,309.48422 -3,0 0,12 3,0 z m 6e-5,5.99999 9,6 0,-12 z" />
    <rect
       style="opacity:0.1;fill:none;stroke:none"
       id="rect4069"
       y="307.48422"
       x="250.60336"
       height="16"
       width="16" />
    <path
       inkscape:connector-curvature="0"
       style="fill:#e0e0e0;fill-opacity:1;fill-rule:nonzero;stroke:none"
       id="path4071"
       d="m 255.60336,309.48422 -3,0 0,12 3,0 z m 6e-5,5.99999 9,6 0,-12 z" />
  </g>
  <g
     id="media-seek-forward"
     transform="matrix(1.9999984,0,0,1.9999984,-573.20627,-614.96793)">
    <path
       inkscape:connector-curvature="0"
       style="opacity:0.375;fill:none;stroke:#000000;stroke-width:1.00000083;stroke-linejoin:round;stroke-miterlimit:4;stroke-dasharray:none;stroke-opacity:1"
       id="path4075"
       d="m 348.60336,309.48421 0,12 6,-6 z m -6,0 0,12 6,-6 z" />
    <rect
       style="opacity:0.1;fill:none;stroke:none"
       id="rect4077"
       y="307.48422"
       x="340.60336"
       height="16"
       width="16" />
    <path
       inkscape:connector-curvature="0"
       style="fill:#e0e0e0;fill-opacity:1;fill-rule:nonzero;stroke:none"
       id="path4079"
       d="m 348.60336,309.48421 0,12 6,-6 z m -6,0 0,12 6,-6 z" />
  </g>
  <g
     id="media-seek-backward"
     transform="matrix(1.9999984,0,0,1.9999984,-573.20627,-614.96793)">
    <path
       inkscape:connector-curvature="0"
       style="opacity:0.375;fill:none;stroke:#000000;stroke-width:1.00000083;stroke-linejoin:round;stroke-miterlimit:4;stroke-dasharray:none;stroke-opacity:1"
       id="path4083"
       d="m 240.60336,309.48421 0,12 -6,-6 z m 6,0 0,12 -6,-6 z" />
    <rect
       style="opacity:0.1;fill:none;stroke:none"
       id="rect4085"
       y="307.48422"
       x="232.60336"
       height="16"
       width="16" />
    <path
       inkscape:connector-curvature="0"
       style="fill:#e0e0e0;fill-opacity:1;fill-rule:nonzero;stroke:none"
       id="path4087"
       d="m 240.60336,309.48421 0,12 -6,-6 z m 6,0 0,12 -6,-6 z" />
  </g>
  <g
     id="media-eject"
     transform="matrix(1.9999984,0,0,1.9999984,-573.20627,-614.96793)">
    <g
       id="g4091">
      <path
         inkscape:connector-curvature="0"
         style="opacity:0.375;fill:none;stroke:#000000;stroke-width:1.00000083;stroke-linejoin:round;stroke-miterlimit:4;stroke-dasharray:none;stroke-opacity:1"
         id="path4093"
         transform="translate(214.60336,381.48421)"
         d="m 152,-72 -7,7 14,0 -7,-7 z m -7,9 0,3 14,0 0,-3 -14,0 z" />
      <rect
         style="opacity:0.1;fill:none;stroke:none"
         id="rect4095"
         y="307.48422"
         x="358.60336"
         height="16"
         width="16" />
      <path
         inkscape:connector-curvature="0"
         style="fill:#e0e0e0;fill-opacity:1;fill-rule:nonzero;stroke:none"
         id="path4097"
         transform="translate(214.60336,381.48421)"
         d="m 152,-72 -7,7 14,0 -7,-7 z m -7,9 0,3 14,0 0,-3 -14,0 z" />
    </g>
  </g>
  <g
     id="media-record"
     transform="matrix(1.9999984,0,0,1.9999984,-573.20627,-614.96793)">
    <path
       inkscape:connector-curvature="0"
       style="color:#000000;display:inline;overflow:visible;visibility:visible;opacity:0.375;fill:none;stroke:#000000;stroke-width:1.00000083;stroke-miterlimit:4;stroke-dasharray:none;stroke-opacity:1;marker:none;enable-background:accumulate"
       id="path4101"
       transform="translate(214.60336,381.48421)"
       d="m 14,-66 a 6,6 0 1 1 -12,0 6,6 0 1 1 12,0 z" />
    <rect
       style="opacity:0.1;fill:none;stroke:none"
       id="rect4103"
       transform="translate(214.60336,381.48421)"
       y="-74"
       x="0"
       height="16"
       width="16" />
    <path
       inkscape:connector-curvature="0"
       style="color:#000000;display:inline;overflow:visible;visibility:visible;fill:#ff1111;fill-opacity:1;fill-rule:nonzero;stroke:none;stroke-width:1px;marker:none;enable-background:accumulate"
       id="path4105"
       transform="translate(214.60336,381.48421)"
       d="m 14,-66 a 6,6 0 1 1 -12,0 6,6 0 1 1 12,0 z" />
  </g>
</svg>
