<?xml version="1.0" encoding="UTF-8" standalone="no"?>
<!-- Created with Inkscape (http://www.inkscape.org/) -->

<svg
   xmlns:dc="http://purl.org/dc/elements/1.1/"
   xmlns:cc="http://creativecommons.org/ns#"
   xmlns:rdf="http://www.w3.org/1999/02/22-rdf-syntax-ns#"
   xmlns:svg="http://www.w3.org/2000/svg"
   xmlns="http://www.w3.org/2000/svg"
   xmlns:sodipodi="http://sodipodi.sourceforge.net/DTD/sodipodi-0.dtd"
   xmlns:inkscape="http://www.inkscape.org/namespaces/inkscape"
   version="1.0"
   width="24"
   height="24"
   id="svg3727"
   inkscape:version="0.91 r13725"
   sodipodi:docname="message-indicator.svgz">
  <sodipodi:namedview
     pagecolor="#323232"
     bordercolor="#666666"
     borderopacity="1"
     objecttolerance="10"
     gridtolerance="10"
     guidetolerance="10"
     inkscape:pageopacity="1"
     inkscape:pageshadow="2"
     inkscape:window-width="1920"
     inkscape:window-height="1056"
     id="namedview63"
     showgrid="false"
     inkscape:showpageshadow="false"
     showborder="false"
     borderlayer="false"
     fit-margin-top="0"
     fit-margin-left="0"
     fit-margin-right="0"
     fit-margin-bottom="0"
     inkscape:zoom="11.313708"
     inkscape:cx="25.482636"
     inkscape:cy="12.135637"
     inkscape:window-x="0"
     inkscape:window-y="-3"
     inkscape:window-maximized="1"
     inkscape:current-layer="svg3727">
    <inkscape:grid
       type="xygrid"
       id="grid3040"
       empspacing="4"
       visible="true"
       enabled="true"
       snapvisiblegridlinesonly="true"
       originx="0"
       originy="-4" />
  </sodipodi:namedview>
  <metadata
     id="metadata244">
    <rdf:RDF>
      <cc:Work
         rdf:about="">
        <dc:format>image/svg+xml</dc:format>
        <dc:type
           rdf:resource="http://purl.org/dc/dcmitype/StillImage" />
        <dc:title></dc:title>
        <dc:creator>
          <cc:Agent>
            <dc:title>obnosim</dc:title>
          </cc:Agent>
        </dc:creator>
        <cc:license
           rdf:resource="http://creativecommons.org/licenses/by-nc-sa/3.0/" />
      </cc:Work>
      <cc:License
         rdf:about="http://creativecommons.org/licenses/by-nc-sa/3.0/">
        <cc:permits
           rdf:resource="http://creativecommons.org/ns#Reproduction" />
        <cc:permits
           rdf:resource="http://creativecommons.org/ns#Distribution" />
        <cc:requires
           rdf:resource="http://creativecommons.org/ns#Notice" />
        <cc:requires
           rdf:resource="http://creativecommons.org/ns#Attribution" />
        <cc:prohibits
           rdf:resource="http://creativecommons.org/ns#CommercialUse" />
        <cc:permits
           rdf:resource="http://creativecommons.org/ns#DerivativeWorks" />
        <cc:requires
           rdf:resource="http://creativecommons.org/ns#ShareAlike" />
      </cc:License>
    </rdf:RDF>
  </metadata>
  <defs
     id="defs3729" />
  <g
     id="normal"
     transform="translate(0,4)">
    <rect
       y="-4"
       x="0"
       height="24"
       width="24"
       id="rect3946"
       style="fill:none;stroke:none" />
    <rect
       ry="2"
       y="0"
       x="0"
       height="16"
       width="24"
       id="rect3987"
       style="opacity:0.375;fill:#000000;fill-opacity:1;stroke:none" />
    <path
       id="rect3948"
       d="M 2,1 C 1.446,1 1,1.446 1,2 l 0,12 c 0,0.554 0.446,1 1,1 l 20,0 c 0.554,0 1,-0.446 1,-1 L 23,2 C 23,1.446 22.554,1 22,1 L 2,1 Z m 19.03125,1.40625 a 0.50005,0.50005 0 0 1 0.3125,0.9375 L 16.6875,8 l 4.65625,4.65625 a 0.50005,0.50005 0 1 1 -0.6875,0.6875 L 16,8.6875 12.34375,12.34375 12,12.71875 11.65625,12.34375 8,8.6875 3.34375,13.34375 a 0.50005,0.50005 0 1 1 -0.6875,-0.6875 L 7.3125,8 2.65625,3.34375 A 0.50005,0.50005 0 0 1 2.90625,2.5 0.50005,0.50005 0 0 1 3.34375,2.65625 l 4.84375,4.875 A 0.50005,0.50005 0 0 1 8.21875,7.5625 l 0.125,0.0625 a 0.50005,0.50005 0 0 1 0.125,0.1875 l 3.53125,3.5 3.53125,-3.5 0.03125,-0.03125 A 0.50005,0.50005 0 0 1 15.6875,7.625 l 0.125,-0.09375 4.84375,-4.875 a 0.50005,0.50005 0 0 1 0.375,-0.25 z"
       style="fill:#e0e0e0;fill-opacity:1;fill-rule:nonzero;stroke:none"
       inkscape:connector-curvature="0" />
  </g>
  <g
     id="new"
     transform="translate(0,4)">
    <rect
       style="fill:none;stroke:none"
       id="rect3989"
       width="24"
       height="24"
       x="28"
       y="-4" />
    <path
       inkscape:connector-curvature="0"
       id="rect4082"
       d="m 40,-3.75 c -1.647727,0 -3.23582,0.6685595 -5.03125,1.84375 -0.419244,0.2744144 -0.859964,0.5743 -1.3125,0.90625 L 30,-1 30,1.90625 c -0.545715,0.4451205 -1.015167,0.8135456 -1.625,1.3125 A 1.0001,1.0001 0 0 0 28,4 l 0,13 c 0,1.090703 0.909297,2 2,2 l 20,0 c 1.090703,0 2,-0.909297 2,-2 L 52,4 A 1.0001,1.0001 0 0 0 51.625,3.21875 C 51.015167,2.7197956 50.545715,2.3513705 50,1.90625 L 50,-1 46.34375,-1 C 45.891214,-1.33195 45.450494,-1.6318356 45.03125,-1.90625 43.23582,-3.0814405 41.647727,-3.75 40,-3.75 Z m 0,2 c 0.774415,0 1.583384,0.2432544 2.5625,0.75 l -5.125,0 C 38.416616,-1.5067456 39.225585,-1.75 40,-1.75 Z"
       style="color:#000000;font-style:normal;font-variant:normal;font-weight:normal;font-stretch:normal;font-size:medium;line-height:normal;font-family:Sans;-inkscape-font-specification:Sans;text-indent:0;text-align:start;text-decoration:none;text-decoration-line:none;letter-spacing:normal;word-spacing:normal;text-transform:none;direction:ltr;block-progression:tb;writing-mode:lr-tb;baseline-shift:baseline;text-anchor:start;display:inline;overflow:visible;visibility:visible;opacity:0.375;fill:#000000;fill-opacity:1;stroke:none;stroke-width:2;marker:none;enable-background:accumulate" />
    <path
       inkscape:connector-curvature="0"
       id="rect4011"
       d="m 40,-2.75 c -1.360753,0 -2.777231,0.6142457 -4.5,1.75 l 9,0 C 42.777231,-2.1357543 41.360753,-2.75 40,-2.75 Z M 31,0 31,2.40625 31,5 l 0,0.3125 1.03125,1 C 32.106953,6.1329219 32.29225,6 32.5,6 l 15,0 c 0.20775,0 0.393047,0.1329219 0.46875,0.3125 L 49,5.3125 49,5 49,2.40625 49,0 45.9375,0 34.0625,0 31,0 Z m 1.5,2 5,0 C 37.777,2 38,2.223 38,2.5 38,2.777 37.777,3 37.5,3 l -5,0 C 32.223,3 32,2.777 32,2.5 32,2.223 32.223,2 32.5,2 Z M 30,3.1875 C 29.647316,3.4753308 29.377736,3.6909434 29,4 l 0,13 c 0,0.554 0.446,1 1,1 l 20,0 c 0.554,0 1,-0.446 1,-1 L 51,4 C 50.622264,3.6909434 50.352684,3.4753308 50,3.1875 L 50,5.5 A 0.50005,0.50005 0 0 1 49.84375,5.84375 L 44.6875,11 l 4.65625,4.65625 a 0.50005,0.50005 0 1 1 -0.6875,0.6875 L 43.8125,11.5 l -7.625,0 -4.84375,4.84375 a 0.50005,0.50005 0 1 1 -0.6875,-0.6875 L 35.3125,11 30.15625,5.84375 A 0.50005,0.50005 0 0 1 30,5.5 L 30,3.1875 Z M 35.4375,4 47.5625,4 C 47.808896,4 48,4.1911045 48,4.4375 l 0,0.125 C 48,4.8088955 47.808896,5 47.5625,5 L 35.4375,5 C 35.191104,5 35,4.8088955 35,4.5625 l 0,-0.125 C 35,4.1911045 35.191104,4 35.4375,4 Z m -2.75,3 1,1 12.625,0 1,-1 -14.625,0 z m 2,2 1,1 8.625,0 1,-1 -10.625,0 z"
       style="fill:#e0e0e0;fill-opacity:1;fill-rule:nonzero;stroke:none" />
  </g>
</svg>
