<?xml version="1.0" encoding="UTF-8" standalone="no"?>
<!-- Created with Inkscape (http://www.inkscape.org/) -->

<svg
   xmlns:dc="http://purl.org/dc/elements/1.1/"
   xmlns:cc="http://creativecommons.org/ns#"
   xmlns:rdf="http://www.w3.org/1999/02/22-rdf-syntax-ns#"
   xmlns:svg="http://www.w3.org/2000/svg"
   xmlns="http://www.w3.org/2000/svg"
   xmlns:sodipodi="http://sodipodi.sourceforge.net/DTD/sodipodi-0.dtd"
   xmlns:inkscape="http://www.inkscape.org/namespaces/inkscape"
   version="1.1"
   width="48"
   height="48"
   id="svg2"
   inkscape:version="0.91 r13725"
   sodipodi:docname="notification.svgz">
  <sodipodi:namedview
     pagecolor="#323232"
     bordercolor="#666666"
     borderopacity="1"
     objecttolerance="10"
     gridtolerance="10"
     guidetolerance="10"
     inkscape:pageopacity="1"
     inkscape:pageshadow="2"
     inkscape:window-width="1920"
     inkscape:window-height="1056"
     id="namedview644"
     showgrid="false"
     inkscape:showpageshadow="false"
     inkscape:zoom="1"
     inkscape:cx="65.001646"
     inkscape:cy="15.703331"
     inkscape:window-x="0"
     inkscape:window-y="-3"
     inkscape:window-maximized="1"
     inkscape:current-layer="svg2"
     showborder="false"
     fit-margin-top="0"
     fit-margin-left="0"
     fit-margin-right="0"
     fit-margin-bottom="0">
    <inkscape:grid
       type="xygrid"
       id="grid3621"
       empspacing="5"
       visible="true"
       enabled="true"
       snapvisiblegridlinesonly="true"
       originx="0px"
       originy="24px" />
  </sodipodi:namedview>
  <defs
     id="defs4" />
  <metadata
     id="metadata7">
    <rdf:RDF>
      <cc:Work
         rdf:about="">
        <dc:format>image/svg+xml</dc:format>
        <dc:type
           rdf:resource="http://purl.org/dc/dcmitype/StillImage" />
        <dc:title />
        <dc:creator>
          <cc:Agent>
            <dc:title>obnosim</dc:title>
          </cc:Agent>
        </dc:creator>
        <cc:license
           rdf:resource="http://creativecommons.org/licenses/by-nc-sa/3.0/" />
      </cc:Work>
      <cc:License
         rdf:about="http://creativecommons.org/licenses/by-nc-sa/3.0/">
        <cc:permits
           rdf:resource="http://creativecommons.org/ns#Reproduction" />
        <cc:permits
           rdf:resource="http://creativecommons.org/ns#Distribution" />
        <cc:requires
           rdf:resource="http://creativecommons.org/ns#Notice" />
        <cc:requires
           rdf:resource="http://creativecommons.org/ns#Attribution" />
        <cc:prohibits
           rdf:resource="http://creativecommons.org/ns#CommercialUse" />
        <cc:permits
           rdf:resource="http://creativecommons.org/ns#DerivativeWorks" />
        <cc:requires
           rdf:resource="http://creativecommons.org/ns#ShareAlike" />
      </cc:License>
    </rdf:RDF>
  </metadata>
  <g
     id="notification-inactive">
    <rect
       y="0"
       x="0"
       height="24"
       width="24"
       id="rect4409"
       style="opacity:0.125;fill:none;stroke:none" />
    <path
       inkscape:connector-curvature="0"
       style="fill:none;fill-opacity:1;stroke:#000000;stroke-opacity:1;stroke-width:2;stroke-miterlimit:4;stroke-dasharray:none;opacity:0.37500000000000000;stroke-linejoin:round"
       d="m 5,3.999951 c -1.662,0 -3,1.338 -3,3 l 0,10 c 0,1.662 1.338,3 3,3 l 4,0 3,3 3,-3 4,0 c 1.662,0 3,-1.338 3,-3 l 0,-10 c 0,-1.662 -1.338,-3 -3,-3 l -14,0 z m 0,3 14,0 c 0.554,0 1,0.446 1,1 0,0.554 -0.446,1 -1,1 l -14,0 c -0.554,0 -1,-0.446 -1,-1 0,-0.554 0.446,-1 1,-1 z m 4,4 6,0 c 0.554,0 1,0.446 1,1 0,0.554 -0.446,1 -1,1 l -6,0 c -0.554,0 -1,-0.446 -1,-1 0,-0.554 0.446,-1 1,-1 z m -2,4 10,0 c 0.554,0 1,0.446 1,1 0,0.554 -0.446,1 -1,1 l -10,0 c -0.554,0 -1,-0.446 -1,-1 0,-0.554 0.446,-1 1,-1 z"
       id="path3116" />
    <path
       id="rect3623"
       d="m 5,3.999951 c -1.662,0 -3,1.338 -3,3 l 0,10 c 0,1.662 1.338,3 3,3 l 4,0 3,3 3,-3 4,0 c 1.662,0 3,-1.338 3,-3 l 0,-10 c 0,-1.662 -1.338,-3 -3,-3 l -14,0 z m 0,3 14,0 c 0.554,0 1,0.446 1,1 0,0.554 -0.446,1 -1,1 l -14,0 c -0.554,0 -1,-0.446 -1,-1 0,-0.554 0.446,-1 1,-1 z m 4,4 6,0 c 0.554,0 1,0.446 1,1 0,0.554 -0.446,1 -1,1 l -6,0 c -0.554,0 -1,-0.446 -1,-1 0,-0.554 0.446,-1 1,-1 z m -2,4 10,0 c 0.554,0 1,0.446 1,1 0,0.554 -0.446,1 -1,1 l -10,0 c -0.554,0 -1,-0.446 -1,-1 0,-0.554 0.446,-1 1,-1 z"
       style="fill:#e0e0e0;fill-opacity:1;stroke:none"
       inkscape:connector-curvature="0" />
  </g>
  <g
     id="notification-empty"
     transform="translate(24,0)">
    <rect
       style="opacity:0.125;fill:none;stroke:none"
       id="rect4417"
       width="24"
       height="24"
       x="0"
       y="0" />
    <path
       sodipodi:nodetypes="csscccsscscccsc"
       inkscape:connector-curvature="0"
       id="path3886"
       d="m 2,15.999951 0,1 c 0,1.662 1.338,3 3,3 l 4,0 3,3 3,-3 4,0 c 1.662,0 3,-1.338 3,-3 l 0,-1 c 0,1.662 -1.338,3 -3,3 l -5,0 -2,2 -2,-2 -5,0 c -1.662,0 -3,-1.338 -3,-3 z"
       style="fill:none;fill-opacity:1;stroke:#000000;stroke-opacity:1;stroke-width:2;stroke-miterlimit:4;stroke-dasharray:none;stroke-linecap:round;stroke-linejoin:round;opacity:0.37500000000000000" />
    <path
       style="fill:#e0e0e0;fill-opacity:1;stroke:none"
       d="m 2,15.999951 0,1 c 0,1.662 1.338,3 3,3 l 4,0 3,3 3,-3 4,0 c 1.662,0 3,-1.338 3,-3 l 0,-1 c 0,1.662 -1.338,3 -3,3 l -5,0 -2,2 -2,-2 -5,0 c -1.662,0 -3,-1.338 -3,-3 z"
       id="path4419"
       inkscape:connector-curvature="0"
       sodipodi:nodetypes="csscccsscscccsc" />
  </g>
  <g
     transform="translate(48,0)"
     id="notification-active">
    <rect
       y="0"
       x="0"
       height="24"
       width="24"
       id="rect3893"
       style="opacity:0.125;fill:none;stroke:none" />
    <path
       style="fill:none;fill-opacity:1;stroke:#000000;stroke-opacity:1;stroke-width:2;stroke-miterlimit:4;stroke-dasharray:none;opacity:0.37500000000000000;stroke-linejoin:miter"
       inkscape:connector-curvature="0"
       id="path3889"
       d="m 17.107421,13.404302 -0.708984,0 -0.298828,-6.1406253 1.306641,0 -0.298829,6.1406253 M 16,15.179692 c -10e-7,-0.148436 0.01953,-0.273436 0.05859,-0.375 0.03906,-0.105467 0.0918,-0.189452 0.158203,-0.251953 0.06641,-0.06641 0.144531,-0.11328 0.234375,-0.140625 0.08984,-0.03125 0.187499,-0.04687 0.292969,-0.04687 0.101561,2e-6 0.197264,0.01563 0.28711,0.04687 0.09375,0.02734 0.173826,0.07422 0.240234,0.140625 0.0664,0.0625 0.119138,0.146486 0.158203,0.251953 0.03906,0.101564 0.05859,0.226564 0.05859,0.375 -2e-6,0.144532 -0.01953,0.269532 -0.05859,0.375 -0.03907,0.101563 -0.0918,0.185547 -0.158203,0.251954 -0.06641,0.06641 -0.146486,0.115234 -0.240234,0.146484 C 16.941397,15.98438 16.845698,16 16.744137,16 16.638667,16 16.541011,15.98437 16.451168,15.95313 16.361328,15.92188 16.283199,15.87305 16.216793,15.806646 16.150383,15.740236 16.097652,15.656255 16.05859,15.554692 16.01953,15.449224 16,15.324224 16,15.179692" />
    <path
       d="m 17.107421,13.404302 -0.708984,0 -0.298828,-6.1406253 1.306641,0 -0.298829,6.1406253 M 16,15.179692 c -10e-7,-0.148436 0.01953,-0.273436 0.05859,-0.375 0.03906,-0.105467 0.0918,-0.189452 0.158203,-0.251953 0.06641,-0.06641 0.144531,-0.11328 0.234375,-0.140625 0.08984,-0.03125 0.187499,-0.04687 0.292969,-0.04687 0.101561,2e-6 0.197264,0.01563 0.28711,0.04687 0.09375,0.02734 0.173826,0.07422 0.240234,0.140625 0.0664,0.0625 0.119138,0.146486 0.158203,0.251953 0.03906,0.101564 0.05859,0.226564 0.05859,0.375 -2e-6,0.144532 -0.01953,0.269532 -0.05859,0.375 -0.03907,0.101563 -0.0918,0.185547 -0.158203,0.251954 -0.06641,0.06641 -0.146486,0.115234 -0.240234,0.146484 C 16.941397,15.98438 16.845698,16 16.744137,16 16.638667,16 16.541011,15.98437 16.451168,15.95313 16.361328,15.92188 16.283199,15.87305 16.216793,15.806646 16.150383,15.740236 16.097652,15.656255 16.05859,15.554692 16.01953,15.449224 16,15.324224 16,15.179692"
       id="path3117"
       inkscape:connector-curvature="0"
       style="fill:#e0e0e0;fill-opacity:1" />
  </g>
  <g
     id="notification-progress-inactive"
     transform="translate(0,24)"
     style="opacity:0.375">
    <rect
       style="opacity:0.12500000000000000;fill:none;stroke:none"
       id="rect5527"
       width="24"
       height="24"
       x="0"
       y="0" />
    <path
       inkscape:connector-curvature="0"
       id="path3909"
       d="M 5,4 C 3.3552972,4 2,5.3552972 2,7 l 0,10 c 0,1.644703 1.3552972,3 3,3 l 4,0 2.28125,2.28125 L 12,23 12.71875,22.28125 15,20 l 4,0 c 1.644703,0 3,-1.355297 3,-3 L 22,7 C 22,5.3552972 20.644703,4 19,4 L 5,4 z m 0,2 14,0 c 0.571297,0 1,0.4287028 1,1 l 0,10 c 0,0.571297 -0.428703,1 -1,1 L 14.59375,18 14.1875,18 13.875,18.28125 12,20.15625 10.125,18.28125 9.84375,18 9.40625,18 5,18 C 4.4287028,18 4,17.571297 4,17 L 4,7 C 4,6.4287028 4.4287028,6 5,6 z"
       style="font-size:medium;font-style:normal;font-variant:normal;font-weight:normal;font-stretch:normal;text-indent:0;text-align:start;text-decoration:none;line-height:normal;letter-spacing:normal;word-spacing:normal;text-transform:none;direction:ltr;block-progression:tb;writing-mode:lr-tb;text-anchor:start;baseline-shift:baseline;color:#000000;fill:none;fill-opacity:1;stroke:#000000;stroke-width:2;marker:none;visibility:visible;display:inline;overflow:visible;enable-background:accumulate;font-family:Sans;-inkscape-font-specification:Sans;stroke-opacity:1;opacity:1;stroke-linejoin:round" />
    <path
       style="font-size:medium;font-style:normal;font-variant:normal;font-weight:normal;font-stretch:normal;text-indent:0;text-align:start;text-decoration:none;line-height:normal;letter-spacing:normal;word-spacing:normal;text-transform:none;direction:ltr;block-progression:tb;writing-mode:lr-tb;text-anchor:start;baseline-shift:baseline;color:#000000;fill:#e0e0e0;fill-opacity:1;stroke:none;stroke-width:2;marker:none;visibility:visible;display:inline;overflow:visible;enable-background:accumulate;font-family:Sans;-inkscape-font-specification:Sans"
       d="M 5,4 C 3.3552972,4 2,5.3552972 2,7 l 0,10 c 0,1.644703 1.3552972,3 3,3 l 4,0 2.28125,2.28125 L 12,23 12.71875,22.28125 15,20 l 4,0 c 1.644703,0 3,-1.355297 3,-3 L 22,7 C 22,5.3552972 20.644703,4 19,4 L 5,4 z m 0,2 14,0 c 0.571297,0 1,0.4287028 1,1 l 0,10 c 0,0.571297 -0.428703,1 -1,1 L 14.59375,18 14.1875,18 13.875,18.28125 12,20.15625 10.125,18.28125 9.84375,18 9.40625,18 5,18 C 4.4287028,18 4,17.571297 4,17 L 4,7 C 4,6.4287028 4.4287028,6 5,6 z"
       id="rect5531"
       inkscape:connector-curvature="0" />
  </g>
  <g
     transform="translate(24,24)"
     id="notification-progress-active">
    <rect
       y="0"
       x="0"
       height="24"
       width="24"
       id="rect3132"
       style="opacity:0.125;fill:none;stroke:none" />
    <path
       style="font-size:medium;font-style:normal;font-variant:normal;font-weight:normal;font-stretch:normal;text-indent:0;text-align:start;text-decoration:none;line-height:normal;letter-spacing:normal;word-spacing:normal;text-transform:none;direction:ltr;block-progression:tb;writing-mode:lr-tb;text-anchor:start;baseline-shift:baseline;opacity:0.375;color:#000000;fill:none;stroke:#000000;stroke-width:2;stroke-linejoin:round;stroke-opacity:1;marker:none;visibility:visible;display:inline;overflow:visible;enable-background:accumulate;font-family:Sans;-inkscape-font-specification:Sans"
       d="M 5,4 C 3.3552972,4 2,5.3552972 2,7 l 0,10 c 0,1.644703 1.3552972,3 3,3 l 4,0 2.28125,2.28125 L 12,23 12.71875,22.28125 15,20 l 4,0 c 1.644703,0 3,-1.355297 3,-3 L 22,7 C 22,5.3552972 20.644703,4 19,4 L 5,4 z m 0,2 14,0 c 0.571297,0 1,0.4287028 1,1 l 0,10 c 0,0.571297 -0.428703,1 -1,1 L 14.59375,18 14.1875,18 13.875,18.28125 12,20.15625 10.125,18.28125 9.84375,18 9.40625,18 5,18 C 4.4287028,18 4,17.571297 4,17 L 4,7 C 4,6.4287028 4.4287028,6 5,6 z"
       id="path3134"
       inkscape:connector-curvature="0" />
    <path
       inkscape:connector-curvature="0"
       id="path3136"
       d="M 5,4 C 3.3552972,4 2,5.3552972 2,7 l 0,10 c 0,1.644703 1.3552972,3 3,3 l 4,0 2.28125,2.28125 L 12,23 12.71875,22.28125 15,20 l 4,0 c 1.644703,0 3,-1.355297 3,-3 L 22,7 C 22,5.3552972 20.644703,4 19,4 L 5,4 z m 0,2 14,0 c 0.571297,0 1,0.4287028 1,1 l 0,10 c 0,0.571297 -0.428703,1 -1,1 L 14.59375,18 14.1875,18 13.875,18.28125 12,20.15625 10.125,18.28125 9.84375,18 9.40625,18 5,18 C 4.4287028,18 4,17.571297 4,17 L 4,7 C 4,6.4287028 4.4287028,6 5,6 z"
       style="font-size:medium;font-style:normal;font-variant:normal;font-weight:normal;font-stretch:normal;text-indent:0;text-align:start;text-decoration:none;line-height:normal;letter-spacing:normal;word-spacing:normal;text-transform:none;direction:ltr;block-progression:tb;writing-mode:lr-tb;text-anchor:start;baseline-shift:baseline;color:#000000;fill:#e0e0e0;fill-opacity:1;stroke:none;stroke-width:2;marker:none;visibility:visible;display:inline;overflow:visible;enable-background:accumulate;font-family:Sans;-inkscape-font-specification:Sans" />
  </g>
  <g
     id="notification-disabled"
     transform="translate(48,24)">
    <rect
       style="opacity:0.125;fill:none;stroke:none"
       id="rect3886"
       width="24"
       height="24"
       x="0"
       y="0" />
    <path
       id="path3917"
       d="m 5,3.999951 c -1.662,0 -3,1.338 -3,3 l 0,10 c 0,1.662 1.338,3 3,3 l 4,0 3,3 3,-3 4,0 c 1.662,0 3,-1.338 3,-3 l 0,-10 c 0,-1.662 -1.338,-3 -3,-3 l -14,0 z m 0,3 14,0 c 0.554,0 1,0.446 1,1 0,0.554 -0.446,1 -1,1 l -14,0 c -0.554,0 -1,-0.446 -1,-1 0,-0.554 0.446,-1 1,-1 z m 4,4 6,0 c 0.554,0 1,0.446 1,1 0,0.554 -0.446,1 -1,1 l -6,0 c -0.554,0 -1,-0.446 -1,-1 0,-0.554 0.446,-1 1,-1 z m -2,4 10,0 c 0.554,0 1,0.446 1,1 0,0.554 -0.446,1 -1,1 l -10,0 c -0.554,0 -1,-0.446 -1,-1 0,-0.554 0.446,-1 1,-1 z"
       style="fill:none;fill-opacity:1;stroke:#000000;stroke-opacity:1;stroke-width:2;stroke-miterlimit:4;stroke-dasharray:none;opacity:0.37500000000000000;stroke-linejoin:round"
       inkscape:connector-curvature="0" />
    <path
       inkscape:connector-curvature="0"
       style="fill:#e0e0e0;fill-opacity:1;stroke:none"
       d="m 5,3.999951 c -1.662,0 -3,1.338 -3,3 l 0,10 c 0,1.662 1.338,3 3,3 l 4,0 3,3 3,-3 4,0 c 1.662,0 3,-1.338 3,-3 l 0,-10 c 0,-1.662 -1.338,-3 -3,-3 l -14,0 z m 0,3 14,0 c 0.554,0 1,0.446 1,1 0,0.554 -0.446,1 -1,1 l -14,0 c -0.554,0 -1,-0.446 -1,-1 0,-0.554 0.446,-1 1,-1 z m 4,4 6,0 c 0.554,0 1,0.446 1,1 0,0.554 -0.446,1 -1,1 l -6,0 c -0.554,0 -1,-0.446 -1,-1 0,-0.554 0.446,-1 1,-1 z m -2,4 10,0 c 0.554,0 1,0.446 1,1 0,0.554 -0.446,1 -1,1 l -10,0 c -0.554,0 -1,-0.446 -1,-1 0,-0.554 0.446,-1 1,-1 z"
       id="path3888" />
  </g>
  <g
     id="expander-left"
     transform="translate(2,0)">
    <path
       style="opacity:0.375;fill:none;stroke:#000000;stroke-width:2;stroke-linejoin:round;stroke-miterlimit:4;stroke-opacity:1;stroke-dasharray:none"
       d="m 30,-20 -5,4 5,4 z"
       id="path3931"
       inkscape:connector-curvature="0"
       sodipodi:nodetypes="cccc" />
    <path
       sodipodi:nodetypes="cccc"
       inkscape:connector-curvature="0"
       id="path3959"
       d="m 30,-20 -5,4 5,4 z"
       style="fill:#e0e0e0;fill-opacity:1;fill-rule:nonzero;stroke:none" />
  </g>
  <g
     id="expander-down"
     transform="translate(0,-2)">
    <path
       sodipodi:nodetypes="cccc"
       inkscape:connector-curvature="0"
       id="path3933"
       d="m 20,-22 4,5 4,-5 z"
       style="opacity:0.375;fill:none;stroke:#000000;stroke-width:2;stroke-linejoin:round;stroke-miterlimit:4;stroke-opacity:1;stroke-dasharray:none"
       inkscape:transform-center-y="-3.5" />
    <path
       inkscape:transform-center-y="-3.5"
       style="fill:#e0e0e0;fill-opacity:1;fill-rule:nonzero;stroke:none"
       d="m 20,-22 4,5 4,-5 z"
       id="path3957"
       inkscape:connector-curvature="0"
       sodipodi:nodetypes="cccc" />
  </g>
  <g
     id="expander-right"
     transform="translate(-2,0)">
    <path
       style="opacity:0.375;fill:none;stroke:#000000;stroke-width:2;stroke-linejoin:round;stroke-miterlimit:4;stroke-opacity:1;stroke-dasharray:none"
       d="m 18,-12 5,-4 -5,-4 z"
       id="path3935"
       inkscape:connector-curvature="0"
       sodipodi:nodetypes="cccc"
       inkscape:transform-center-x="3.5" />
    <path
       inkscape:transform-center-x="3.5"
       sodipodi:nodetypes="cccc"
       inkscape:connector-curvature="0"
       id="path3955"
       d="m 18,-12 5,-4 -5,-4 z"
       style="fill:#e0e0e0;fill-opacity:1;fill-rule:nonzero;stroke:none" />
  </g>
  <g
     id="expander-up"
     transform="translate(0,2)">
    <path
       sodipodi:nodetypes="cccc"
       inkscape:connector-curvature="0"
       id="path3937"
       d="m 28,-10 -4,-5 -4,5 z"
       style="opacity:0.375;fill:none;stroke:#000000;stroke-width:2;stroke-linejoin:round;stroke-miterlimit:4;stroke-opacity:1;stroke-dasharray:none"
       inkscape:transform-center-y="3.5" />
    <path
       inkscape:transform-center-y="3.5"
       style="fill:#e0e0e0;fill-opacity:1;fill-rule:nonzero;stroke:none"
       d="m 28,-10 -4,-5 -4,5 z"
       id="path3961"
       inkscape:connector-curvature="0"
       sodipodi:nodetypes="cccc" />
  </g>
</svg>
