<?xml version="1.0" encoding="UTF-8" standalone="no"?>
<svg id="svg2" xmlns:rdf="http://www.w3.org/1999/02/22-rdf-syntax-ns#" xmlns="http://www.w3.org/2000/svg" height="32" width="32" version="1.1" xmlns:cc="http://creativecommons.org/ns#" xmlns:dc="http://purl.org/dc/elements/1.1/">
	<defs id="defs4">
		<style id="current-color-scheme" type="text/css">
			.ColorScheme-Text { color:#0000FF; }
			.ColorScheme-Highlight { color:#FF00FF; }
		</style>
	</defs>
	<metadata id="metadata7">
		<rdf:RDF>
			<cc:Work rdf:about="">
				<dc:format>image/svg+xml</dc:format>
				<dc:type rdf:resource="http://purl.org/dc/dcmitype/StillImage"/>
				<dc:title/>
				<dc:creator>
					<cc:Agent>
						<dc:title>obnosim</dc:title>
					</cc:Agent>
				</dc:creator>
				<cc:license rdf:resource="http://creativecommons.org/licenses/by-sa/3.0/"/>
			</cc:Work>
			<cc:License rdf:about="http://creativecommons.org/licenses/by-sa/3.0/">
				<cc:permits rdf:resource="http://creativecommons.org/ns#Reproduction"/>
				<cc:permits rdf:resource="http://creativecommons.org/ns#Distribution"/>
				<cc:requires rdf:resource="http://creativecommons.org/ns#Notice"/>
				<cc:requires rdf:resource="http://creativecommons.org/ns#Attribution"/>
				<cc:permits rdf:resource="http://creativecommons.org/ns#DerivativeWorks"/>
				<cc:requires rdf:resource="http://creativecommons.org/ns#ShareAlike"/>
			</cc:License>
		</rdf:RDF>
	</metadata>
	<g id="notification-active" transform="translate(87,-55)">
		<rect style="fill:none" height="22" width="22" y="1" x="1"/>
		<path class="ColorScheme-Text" style="opacity:.875;fill:currentColor" d="m17.107 13.404h-.70898l-.29883-6.1406h1.3066l-.29883 6.1406m-1.107 1.776c-.0000010-.14844.01953-.27344.05859-.375.03906-.10547.0918-.18945.1582-.25195.06641-.06641.14453-.11328.23438-.14062.08984-.03125.1875-.04687.29297-.04687.10156.000002.19726.01563.28711.04687.09375.02734.17383.07422.24023.14062.0664.0625.11914.14649.1582.25195.03906.10156.05859.22656.05859.375-.000002.14453-.01953.26953-.05859.375-.03907.10156-.0918.18555-.1582.25195-.06641.06641-.14649.11523-.24023.14648-.09.031-.185.047-.287.047-.105 0-.203-.016-.293-.047s-.168-.08-.234-.146c-.067-.067-.119-.151-.158-.252-.039-.106-.059-.231-.059-.375"/>
	</g>
	<g id="expanders" transform="translate(-32)" class="ColorScheme-Text">
		<g id="expander-left" transform="translate(113,-55)">
			<path style="opacity:.875;fill:currentColor" d="m30-20-5 4 5 4z"/>
		</g>
		<g id="expander-down" transform="translate(111,-57)">
			<path style="opacity:.875;fill:currentColor" d="m20-22 4 5 4-5z"/>
		</g>
		<g id="expander-right" transform="translate(109,-55)">
			<path style="opacity:.875;fill:currentColor" d="m18-12 5-4-5-4z"/>
		</g>
		<g id="expander-up" transform="translate(111,-53)">
			<path style="opacity:.875;fill:currentColor" d="m28-10-4-5-4 5z"/>
		</g>
	</g>
	<g id="22-22-notification-inactive" class="ColorScheme-Text" transform="translate(31,-23)">
		<rect style="fill:none" height="22" width="22" y="-53" x="-35"/>
		<path style="opacity:.875;fill:currentColor" d="m-32-51c-1.108 0-2 .892-2 2v13c0 1.108.892 2 2 2h5l3 3 3-3h5c1.108 0 2-.892 2-2v-13c0-1.108-.892-2-2-2h-16zm1.5 4h13c.277 0 .5.223.5.5s-.223.5-.5.5h-13c-.277 0-.5-.223-.5-.5s.223-.5.5-.5zm0 4h13c.277 0 .5.223.5.5s-.223.5-.5.5h-13c-.277 0-.5-.223-.5-.5s.223-.5.5-.5zm0 4h13c.277 0 .5.223.5.5s-.223.5-.5.5h-13c-.277 0-.5-.223-.5-.5s.223-.5.5-.5z"/>
	</g>
	<g id="22-22-notification-empty" class="ColorScheme-Highlight" transform="translate(75,-23)">
		<rect style="fill:none" height="22" width="22" y="-53" x="-35"/>
		<path style="opacity:.875;fill:currentColor" d="m-32-51c-1.108 0-2 .892-2 2v13c0 1.108.892 2 2 2h5l3 3 3-3h5c1.108 0 2-.892 2-2v-13c0-1.108-.892-2-2-2z"/>
	</g>
	<g id="22-22-notification-progress-active" class="ColorScheme-Highlight" transform="translate(31,-1)">
		<rect style="fill:none" height="22" width="22" y="-53" x="-35"/>
		<path style="opacity:.875;fill:currentColor" d="m-32-51c-1.108 0-2 .892-2 2v13c0 1.108.892 2 2 2h5l3 3 3-3h5c1.108 0 2-.892 2-2v-13c0-1.108-.892-2-2-2zm0 2h16v13h-5c-.53040.000102-1.039.21086-1.4141.58594l-1.586 1.586-1.586-1.586c-.375-.375-.884-.586-1.414-.586h-5z"/>
	</g>
	<g id="22-22-notification-progress-inactive" class="ColorScheme-Text" transform="translate(53,-1)">
		<rect style="fill:none" height="22" width="22" y="-53" x="-35"/>
		<path style="opacity:.875;fill:currentColor" d="m-32-51c-1.108 0-2 .892-2 2v13c0 1.108.892 2 2 2h5l3 3 3-3h5c1.108 0 2-.892 2-2v-13c0-1.108-.892-2-2-2zm0 2h16v13h-5c-.53040.000102-1.039.21086-1.4141.58594l-1.586 1.586-1.586-1.586c-.375-.375-.884-.586-1.414-.586h-5z"/>
	</g>
	<g id="22-22-notification-disabled" class="ColorScheme-Text" transform="translate(53,-23)">
		<rect style="fill:none" height="22" width="22" y="-53" x="-35"/>
		<path style="opacity:.875;fill:currentColor" d="m-32-51c-1.108 0-2 .892-2 2v13c0 1.108.892 2 2 2h5l3 3 3-3h5c1.108 0 2-.892 2-2v-13c0-1.108-.892-2-2-2h-16zm1.5 4h13c.277 0 .5.223.5.5s-.223.5-.5.5h-13c-.277 0-.5-.223-.5-.5s.223-.5.5-.5zm0 4h13c.277 0 .5.223.5.5s-.223.5-.5.5h-13c-.277 0-.5-.223-.5-.5s.223-.5.5-.5zm0 4h13c.277 0 .5.223.5.5s-.223.5-.5.5h-13c-.277 0-.5-.223-.5-.5s.223-.5.5-.5z"/>
	</g>
	<g id="notification-inactive" class="ColorScheme-Text" transform="translate(80,-54)">
		<rect style="fill:none" height="32" width="32" y="54" x="-80"/>
		<path style="opacity:.875;fill:currentColor" d="m4 4c-1.108 0-2 .892-2 2v19c0 1.108.892 2 2 2h8l4 4 4-4h8c1.108 0 2-.892 2-2v-19c0-1.108-.892-2-2-2h-24zm2.5 5h19c.277 0 .5.223.5.5s-.223.5-.5.5h-19c-.277 0-.5-.223-.5-.5s.223-.5.5-.5zm0 4h19c.277 0 .5.223.5.5s-.223.5-.5.5h-19c-.277 0-.5-.223-.5-.5s.223-.5.5-.5zm0 4h19c.277 0 .5.223.5.5s-.223.5-.5.5h-19c-.277 0-.5-.223-.5-.5s.223-.5.5-.5zm0 4h19c.277 0 .5.223.5.5s-.223.5-.5.5h-19c-.277 0-.5-.223-.5-.5s.223-.5.5-.5z" transform="translate(-80,54)"/>
	</g>
	<g id="notification-disabled" class="ColorScheme-Text" transform="translate(112,-54)">
		<rect style="fill:none" height="32" width="32" y="54" x="-80"/>
		<path d="m4 4c-1.108 0-2 .892-2 2v19c0 1.108.892 2 2 2h8l4 4 4-4h8c1.108 0 2-.892 2-2v-19c0-1.108-.892-2-2-2h-24zm2.5 5h19c.277 0 .5.223.5.5s-.223.5-.5.5h-19c-.277 0-.5-.223-.5-.5s.223-.5.5-.5zm0 4h19c.277 0 .5.223.5.5s-.223.5-.5.5h-19c-.277 0-.5-.223-.5-.5s.223-.5.5-.5zm0 4h19c.277 0 .5.223.5.5s-.223.5-.5.5h-19c-.277 0-.5-.223-.5-.5s.223-.5.5-.5zm0 4h19c.277 0 .5.223.5.5s-.223.5-.5.5h-19c-.277 0-.5-.223-.5-.5s.223-.5.5-.5z" style="opacity:.875;fill:currentColor" transform="translate(-80,54)"/>
	</g>
	<g id="notification-empty" class="ColorScheme-Highlight" transform="translate(144,-54)">
		<rect style="fill:none" height="32" width="32" y="54" x="-80"/>
		<path style="opacity:.875;fill:currentColor" d="m4 4c-1.108 0-2 .892-2 2v19c0 1.108.892 2 2 2h8l4 4 4-4h8c1.108 0 2-.892 2-2v-19c0-1.108-.892-2-2-2z" transform="translate(-80,54)"/>
	</g>
	<g id="notification-progress-active" class="ColorScheme-Highlight" transform="translate(80,-22)">
		<rect style="fill:none" height="32" width="32" y="54" x="-80"/>
		<path style="opacity:.875;fill:currentColor" d="m4 72c-1.108 0-2 .892-2 2v19c0 1.108.892 2 2 2h8l4 4 4-4h8c1.108 0 2-.892 2-2v-19c0-1.108-.892-2-2-2h-24zm0 2h24v19h-8a2.0002 2.0002 0 0 0 -1.4141 .58594l-2.586 2.586-2.586-2.586a2.0002 2.0002 0 0 0 -1.414 -.586h-8v-19z" transform="translate(-80,-14)"/>
	</g>
	<g id="notification-progress-inactive" class="ColorScheme-Text" transform="translate(112,-22)">
		<rect style="fill:none" height="32" width="32" y="54" x="-80"/>
		<path d="m4 72c-1.108 0-2 .892-2 2v19c0 1.108.892 2 2 2h8l4 4 4-4h8c1.108 0 2-.892 2-2v-19c0-1.108-.892-2-2-2h-24zm0 2h24v19h-8a2.0002 2.0002 0 0 0 -1.4141 .58594l-2.586 2.586-2.586-2.586a2.0002 2.0002 0 0 0 -1.414 -.586h-8v-19z" style="opacity:.875;fill:currentColor" transform="translate(-80,-14)"/>
	</g>
</svg>
