<?xml version="1.0" encoding="UTF-8" standalone="no"?>
<svg id="svg2" xmlns:rdf="http://www.w3.org/1999/02/22-rdf-syntax-ns#" xmlns="http://www.w3.org/2000/svg" height="22" width="22" version="1.1" xmlns:cc="http://creativecommons.org/ns#" xmlns:dc="http://purl.org/dc/elements/1.1/">
	<defs id="defs3615">
		<style id="current-color-scheme" type="text/css">.ColorScheme-Text {
            color:#0000FF;
            }
            .ColorScheme-Background{
            color:#E9E8E8;
            }
            .ColorScheme-ViewText {
            color:#31363b;
            }
            .ColorScheme-ViewBackground{
            color:#ffffff;
            }
            .ColorScheme-ViewHover {
            }
            .ColorScheme-ViewFocus{
            color:#5a5a5a;
            }
            .ColorScheme-ButtonText {
            color:#31363b;
            }
            .ColorScheme-ButtonBackground{
            color:#E9E8E8;
            }
            .ColorScheme-ButtonHover {
            color:#1489ff;
            }
            .ColorScheme-ButtonFocus{
            color:#2B74C7;
            }</style>
	</defs>
	<metadata id="metadata7">
		<rdf:RDF>
			<cc:Work rdf:about="">
				<dc:format>image/svg+xml</dc:format>
				<dc:type rdf:resource="http://purl.org/dc/dcmitype/StillImage"/>
				<dc:title/>
				<dc:creator>
					<cc:Agent>
						<dc:title>obnosim</dc:title>
					</cc:Agent>
				</dc:creator>
				<cc:license rdf:resource="http://creativecommons.org/licenses/by-nc-sa/3.0/"/>
			</cc:Work>
			<cc:License rdf:about="http://creativecommons.org/licenses/by-nc-sa/3.0/">
				<cc:permits rdf:resource="http://creativecommons.org/ns#Reproduction"/>
				<cc:permits rdf:resource="http://creativecommons.org/ns#Distribution"/>
				<cc:requires rdf:resource="http://creativecommons.org/ns#Notice"/>
				<cc:requires rdf:resource="http://creativecommons.org/ns#Attribution"/>
				<cc:prohibits rdf:resource="http://creativecommons.org/ns#CommercialUse"/>
				<cc:permits rdf:resource="http://creativecommons.org/ns#DerivativeWorks"/>
				<cc:requires rdf:resource="http://creativecommons.org/ns#ShareAlike"/>
			</cc:License>
		</rdf:RDF>
	</metadata>
	<g id="notification-active" transform="translate(47,-1)">
		<rect id="rect3893" style="opacity:.125;fill:none" height="22" width="22" y="1" x="1"/>
		<path id="path3117" class="ColorScheme-Text" style="opacity:.875;fill:currentColor" d="m17.107 13.404h-.70898l-.29883-6.1406h1.3066l-.29883 6.1406m-1.107 1.776c-.0000010-.14844.01953-.27344.05859-.375.03906-.10547.0918-.18945.15820-.25195.06641-.06641.14453-.11328.23438-.14062.08984-.03125.18750-.04687.29297-.04687.10156.000002.19726.01563.28711.04687.09375.02734.17383.07422.24023.14062.0664.0625.11914.14649.15820.25195.03906.10156.05859.22656.05859.375-.000002.14453-.01953.26953-.05859.375-.03907.10156-.0918.18555-.15820.25195-.06641.06641-.14649.11523-.24023.14648-.090.031-.185.047-.287.047-.105 0-.203-.016-.293-.047s-.168-.080-.234-.146c-.067-.067-.119-.151-.158-.252-.039-.106-.059-.231-.059-.375"/>
	</g>
	<g id="expander-left" transform="translate(1,-1)">
		<path id="path3959" class="ColorScheme-Text" style="opacity:.875;fill:currentColor" d="m30-20-5 4 5 4z"/>
	</g>
	<g id="expander-down" transform="translate(-1,-3)">
		<path id="path3957" class="ColorScheme-Text" style="opacity:.875;fill:currentColor" d="m20-22 4 5 4-5z"/>
	</g>
	<g id="expander-right" transform="translate(-3,-1)">
		<path id="path3955" class="ColorScheme-Text" style="opacity:.875;fill:currentColor" d="m18-12 5-4-5-4z"/>
	</g>
	<g id="expander-up" transform="translate(-1,1)">
		<path id="path3961" class="ColorScheme-Text" style="opacity:.875;fill:currentColor" d="m28-10-4-5-4 5z"/>
	</g>
	<g id="notification-inactive">
		<path id="path4249" d="m3 3c-1.108 0-2 .892-2 2v12c0 1.108.892 2 2 2h5l3 3 3-3h5c1.108 0 2-.892 2-2v-12c0-1.108-.892-2-2-2h-16zm.9785 3h14.042c.543 0 .980.4368.980.9785v.042969c0 .5417-.437.9785-.979.9785h-14.042c-.5422 0-.979-.4368-.979-.9785v-.0430c0-.5417.4368-.9785.9785-.9785zm.97461 4h12.094c.528 0 .953.425.953.953v.09375c0 .528-.425.953-.953.953h-12.094c-.5279 0-.953-.425-.953-.953v-.09375c0-.528.4251-.953.9531-.953zm.96875 4h10.156c.511 0 .922.411.922.922v.15625c0 .511-.411.922-.922.922h-10.156c-.5108 0-.922-.411-.922-.922v-.15625c0-.511.4112-.922.9219-.922z" style="opacity:.875;fill:currentColor" class="ColorScheme-Text"/>
		<rect id="rect4217" style="fill:none" height="22" width="22" y="0" x="0"/>
	</g>
	<g id="notification-disabled">
		<path id="path4251" style="opacity:.875;fill:currentColor" d="m29 3c-1.108 0-2 .892-2 2v12c0 1.108.892 2 2 2h5l3 3 3-3h5c1.108 0 2-.892 2-2v-12c0-1.108-.892-2-2-2h-16zm.97852 3h14.043c.541 0 .978.4368.978.9785v.042969c0 .5417-.437.9785-.979.9785h-14.042c-.542 0-.979-.4368-.979-.9785v-.042969c0-.5417.437-.9785.979-.9785zm.97461 4h12.094c.527 0 .952.425.952.953v.09375c0 .528-.425.953-.953.953h-12.094c-.528 0-.953-.425-.953-.953v-.09375c0-.528.425-.953.953-.953zm.96875 4h10.156c.510 0 .921.411.921.922v.15625c0 .511-.411.922-.922.922h-10.156c-.511 0-.922-.411-.922-.922v-.15625c0-.511.411-.922.922-.922z" class="ColorScheme-Text"/>
		<rect id="rect4219" style="fill:none" height="22" width="22" y="0" x="26"/>
	</g>
	<g id="notification-progress-inactive">
		<path id="path4253" style="opacity:.375;fill:currentColor" d="m29 27c-1.108 0-2 .892-2 2v12c0 1.108.892 2 2 2h5l3 3 3-3h5c1.108 0 2-.892 2-2v-12c0-1.108-.892-2-2-2h-16zm0 2h16v12h-5.8281l-2.172 2.172-2.172-2.172h-5.828v-12z" class="ColorScheme-Text"/>
		<rect id="rect4221" style="fill:none" height="22" width="22" y="24" x="26"/>
	</g>
	<g id="notification-progress-active">
		<path id="path4255" d="m3 27c-1.108 0-2 .892-2 2v12c0 1.108.892 2 2 2h5l3 3 3-3h5c1.108 0 2-.892 2-2v-12c0-1.108-.892-2-2-2h-16zm0 2h16v12h-5.8281l-2.172 2.172-2.1719-2.172h-5.8281v-12z" style="opacity:.875;fill:currentColor" class="ColorScheme-Text"/>
		<rect id="rect4223" style="fill:none" height="22" width="22" y="24" x="0"/>
	</g>
	<g id="notification-empty">
		<path id="path4247" d="m-24 16v1c0 1.108.892 2 2 2h5l3 3 3-3h5c1.108 0 2-.892 2-2v-1c0 1.108-.892 2-2 2h-5.828l-2.172 2.172-2.172-2.172h-5.828c-1.108 0-2-.892-2-2z" style="opacity:.875;fill:currentColor" class="ColorScheme-Text"/>
		<rect id="rect4225" style="fill:none" height="22" width="22" y="0" x="-25"/>
	</g>
</svg>
