<?xml version="1.0" encoding="UTF-8" standalone="no"?>
<svg id="svg2" xmlns:rdf="http://www.w3.org/1999/02/22-rdf-syntax-ns#" xmlns="http://www.w3.org/2000/svg" height="22" width="22" version="1.1" xmlns:cc="http://creativecommons.org/ns#" xmlns:dc="http://purl.org/dc/elements/1.1/">
    <defs id="defs3615">
        <style id="current-color-scheme" type="text/css">
            .ColorScheme-Text {
            color:#0000FF;
            }
            .ColorScheme-Background{
            color:#E9E8E8;
            }
            .ColorScheme-ViewText {
            color:#31363b;
            }
            .ColorScheme-ViewBackground{
            color:#ffffff;
            }
            .ColorScheme-ViewHover {
            }
            .ColorScheme-ViewFocus{
            color:#5a5a5a;
            }
            .ColorScheme-ButtonText {
            color:#31363b;
            }
            .ColorScheme-ButtonBackground{
            color:#E9E8E8;
            }
            .ColorScheme-ButtonHover {
            color:#1489ff;
            }
            .ColorScheme-ButtonFocus{
            color:#2B74C7;
            }
        </style>
    </defs>
	<metadata id="metadata7">
		<rdf:RDF>
			<cc:Work rdf:about="">
				<dc:format>image/svg+xml</dc:format>
				<dc:type rdf:resource="http://purl.org/dc/dcmitype/StillImage"/>
				<dc:title/>
				<dc:creator>
					<cc:Agent>
						<dc:title>obnosim</dc:title>
					</cc:Agent>
				</dc:creator>
				<cc:license rdf:resource="http://creativecommons.org/licenses/by-nc-sa/3.0/"/>
			</cc:Work>
			<cc:License rdf:about="http://creativecommons.org/licenses/by-nc-sa/3.0/">
				<cc:permits rdf:resource="http://creativecommons.org/ns#Reproduction"/>
				<cc:permits rdf:resource="http://creativecommons.org/ns#Distribution"/>
				<cc:requires rdf:resource="http://creativecommons.org/ns#Notice"/>
				<cc:requires rdf:resource="http://creativecommons.org/ns#Attribution"/>
				<cc:prohibits rdf:resource="http://creativecommons.org/ns#CommercialUse"/>
				<cc:permits rdf:resource="http://creativecommons.org/ns#DerivativeWorks"/>
				<cc:requires rdf:resource="http://creativecommons.org/ns#ShareAlike"/>
			</cc:License>
		</rdf:RDF>
	</metadata>
	<g id="notification-inactive" transform="translate(-1,-1)">
		<rect id="rect4409" style="opacity:.125;fill:none" height="22" width="22" y="1" x="1"/>
		<path id="rect3623" style="fill:currentColor;opacity:.875" d="m5 4c-1.662 0-3 1.338-3 3v10c0 1.662 1.338 3 3 3h4l3 3 3-3h4c1.662 0 3-1.338 3-3v-10c0-1.662-1.338-3-3-3h-14zm0 3h14c.554 0 1 .446 1 1s-.446 1-1 1h-14c-.554 0-1-.446-1-1s.446-1 1-1zm4 4h6c.554 0 1 .446 1 1s-.446 1-1 1h-6c-.554 0-1-.446-1-1s.446-1 1-1zm-2 4h10c.554 0 1 .446 1 1s-.446 1-1 1h-10c-.554 0-1-.446-1-1s.446-1 1-1z" class="ColorScheme-Text"/>
	</g>
	<g id="notification-empty" transform="translate(23,-1)">
		<rect id="rect4417" style="opacity:.125;fill:none" height="22" width="22" y="1" x="1"/>
		<path id="path4419" style="fill:currentColor;opacity:.875" d="m2 16v1c0 1.662 1.338 3 3 3h4l3 3 3-3h4c1.662 0 3-1.338 3-3v-1c0 1.662-1.338 3-3 3h-5l-2 2-2-2h-5c-1.662 0-3-1.338-3-3z" class="ColorScheme-Text"/>
	</g>
	<g id="notification-active" transform="translate(47,-1)">
		<rect id="rect3893" style="opacity:.125;fill:none" height="22" width="22" y="1" x="1"/>
		<path id="path3117" style="fill:currentColor;opacity:.875" d="m17.107 13.404h-.70898l-.29883-6.1406h1.3066l-.29883 6.1406m-1.107 1.776c-.0000010-.14844.01953-.27344.05859-.375.03906-.10547.0918-.18945.15820-.25195.06641-.06641.14453-.11328.23438-.14062.08984-.03125.18750-.04687.29297-.04687.10156.000002.19726.01563.28711.04687.09375.02734.17383.07422.24023.14062.0664.0625.11914.14649.15820.25195.03906.10156.05859.22656.05859.375-.000002.14453-.01953.26953-.05859.375-.03907.10156-.0918.18555-.15820.25195-.06641.06641-.14649.11523-.24023.14648-.090.031-.185.047-.287.047-.105 0-.203-.016-.293-.047s-.168-.080-.234-.146c-.067-.067-.119-.151-.158-.252-.039-.106-.059-.231-.059-.375" class="ColorScheme-Text"/>
	</g>
	<g id="notification-progress-inactive" style="opacity:.375" transform="translate(-1,23)">
		<rect id="rect5527" style="opacity:.125;fill:none" height="22" width="22" y="1" x="1"/>
		<path id="rect5531" style="text-indent:0;block-progression:tb;text-decoration-line:none;text-transform:none;fill:currentColor" d="m5 4c-1.6447 0-3 1.3553-3 3v10c0 1.6447 1.3553 3 3 3h4l2.2812 2.2812.719.719.719-.719 2.281-2.281h4c1.6447 0 3-1.3553 3-3v-10c0-1.6447-1.355-3-3-3h-14zm0 2h14c.57130 0 1 .42870 1 1v10c0 .57130-.42870 1-1 1h-4.406-.406l-.313.281-1.875 1.875-1.875-1.875-.2812-.281h-.4376-4.4062c-.5713 0-1-.429-1-1v-10c0-.5713.4287-1 1-1z" class="ColorScheme-Text"/>
	</g>
	<g id="notification-progress-active" transform="translate(23,23)">
		<rect id="rect3132" style="opacity:.125;fill:none" height="22" width="22" y="1" x="1"/>
		<path id="path3136" d="m5 4c-1.6447 0-3 1.3553-3 3v10c0 1.6447 1.3553 3 3 3h4l2.2812 2.2812.719.719.719-.719 2.281-2.281h4c1.6447 0 3-1.3553 3-3v-10c0-1.6447-1.355-3-3-3h-14zm0 2h14c.57130 0 1 .42870 1 1v10c0 .57130-.42870 1-1 1h-4.406-.406l-.313.281-1.875 1.875-1.875-1.875-.2812-.281h-.4376-4.4062c-.5713 0-1-.429-1-1v-10c0-.5713.4287-1 1-1z" style="text-indent:0;block-progression:tb;text-decoration-line:none;text-transform:none;fill:currentColor" class="ColorScheme-Text"/>
	</g>
	<g id="notification-disabled" transform="translate(47,23)">
		<rect id="rect3886" style="opacity:.125;fill:none" height="22" width="22" y="1" x="1"/>
		<path id="path3888" style="fill:currentColor;opacity:.875" d="m5 4c-1.662 0-3 1.338-3 3v10c0 1.662 1.338 3 3 3h4l3 3 3-3h4c1.662 0 3-1.338 3-3v-10c0-1.662-1.338-3-3-3h-14zm0 3h14c.554 0 1 .446 1 1s-.446 1-1 1h-14c-.554 0-1-.446-1-1s.446-1 1-1zm4 4h6c.554 0 1 .446 1 1s-.446 1-1 1h-6c-.554 0-1-.446-1-1s.446-1 1-1zm-2 4h10c.554 0 1 .446 1 1s-.446 1-1 1h-10c-.554 0-1-.446-1-1s.446-1 1-1z" class="ColorScheme-Text"/>
	</g>
	<g id="expander-left" transform="translate(1,-1)">
		<path id="path3959" d="m30-20-5 4 5 4z" style="fill:currentColor;opacity:.875" class="ColorScheme-Text"/>
	</g>
	<g id="expander-down" transform="translate(-1,-3)">
		<path id="path3957" style="fill:currentColor;opacity:.875" d="m20-22 4 5 4-5z" class="ColorScheme-Text"/>
	</g>
	<g id="expander-right" transform="translate(-3,-1)">
		<path id="path3955" style="fill:currentColor;opacity:.875" d="m18-12 5-4-5-4z" class="ColorScheme-Text"/>
	</g>
	<g id="expander-up" transform="translate(-1,1)">
		<path id="path3961" style="fill:currentColor;opacity:.875" d="m28-10-4-5-4 5z" class="ColorScheme-Text"/>
	</g>
</svg>
