<?xml version="1.0" encoding="UTF-8" standalone="no"?>
<svg id="svg3727" xmlns:rdf="http://www.w3.org/1999/02/22-rdf-syntax-ns#" xmlns="http://www.w3.org/2000/svg" height="22" width="22" version="1.0" xmlns:cc="http://creativecommons.org/ns#" xmlns:dc="http://purl.org/dc/elements/1.1/">
	<defs id="defs3">
		<style id="current-color-scheme" type="text/css">.ColorScheme-Text { color:#0000FF; }</style>
	</defs>
	<metadata id="metadata244">
		<rdf:RDF>
			<cc:Work rdf:about="">
				<dc:format>image/svg+xml</dc:format>
				<dc:type rdf:resource="http://purl.org/dc/dcmitype/StillImage"/>
				<dc:title/>
				<dc:creator>
					<cc:Agent>
						<dc:title>obnosim</dc:title>
					</cc:Agent>
				</dc:creator>
				<cc:license rdf:resource="http://creativecommons.org/licenses/by-nc-sa/3.0/"/>
			</cc:Work>
			<cc:License rdf:about="http://creativecommons.org/licenses/by-nc-sa/3.0/">
				<cc:permits rdf:resource="http://creativecommons.org/ns#Reproduction"/>
				<cc:permits rdf:resource="http://creativecommons.org/ns#Distribution"/>
				<cc:requires rdf:resource="http://creativecommons.org/ns#Notice"/>
				<cc:requires rdf:resource="http://creativecommons.org/ns#Attribution"/>
				<cc:prohibits rdf:resource="http://creativecommons.org/ns#CommercialUse"/>
				<cc:permits rdf:resource="http://creativecommons.org/ns#DerivativeWorks"/>
				<cc:requires rdf:resource="http://creativecommons.org/ns#ShareAlike"/>
			</cc:License>
		</rdf:RDF>
	</metadata>
	<g id="preferences-desktop-notification" transform="translate(55,-1)">
		<rect id="rect3886" style="opacity:.125;fill:none" height="22" width="22" y="1" x="1"/>
		<path id="path3888" class="ColorScheme-Text" style="opacity:.875;fill:currentColor" d="m4 3c-1.108 0-2 .892-2 2v12c0 1.108.892 2 2 2h5l3 3 3-3h5c1.108 0 2-.892 2-2v-12c0-1.108-.892-2-2-2h-16zm.9785 3h14.042c.543 0 .98.4368.98.9785v.042969c0 .5417-.437.9785-.979.9785h-14.042c-.5422 0-.979-.4368-.979-.9785v-.043c0-.5417.4368-.9785.9785-.9785zm.97461 4h12.094c.528 0 .953.425.953.953v.09375c0 .528-.425.953-.953.953h-12.094c-.5279 0-.953-.425-.953-.953v-.09375c0-.528.4251-.953.9531-.953zm.96875 4h10.156c.511 0 .922.411.922.922v.15625c0 .511-.411.922-.922.922h-10.156c-.5108 0-.922-.411-.922-.922v-.15625c0-.511.4112-.922.9219-.922z"/>
	</g>
	<g id="preferences-system-bluetooth" transform="translate(-57,-2)">
		<rect id="rect4468" style="fill:none" height="22" width="22" y="2" x="57"/>
		<path id="path4470" d="m62 9 12 8-6 6v-20l6 6-12 8" style="opacity:.875;stroke-linejoin:round;stroke:currentColor;stroke-linecap:round;stroke-width:2;fill:none" class="ColorScheme-Text"/>
	</g>
	<g id="preferences-system-bluetooth-inactive" transform="translate(-57,-2)">
		<rect id="rect4481" style="opacity:.375;fill:none" height="22" width="22" y="2" x="85"/>
		<path id="path4485" d="m90 9 12 8-6 6v-20l6 6-12 8" style="opacity:.375;stroke-linejoin:round;stroke:currentColor;stroke-linecap:round;stroke-width:2;fill:none" class="ColorScheme-Text"/>
	</g>
	<g id="preferences-desktop-display-randr" transform="translate(-57,-2)">
		<rect id="rect3074" style="opacity:.125;fill:none" height="22" width="22" y="2" x="1"/>
		<path id="rect4170" class="ColorScheme-Text" style="opacity:.875;fill:currentColor" d="m3 5c-.554 0-1 .446-1 1v11c0 .554.446 1 1 1h7.7812c-.341 1.017-1.0519 2.271-1.781 3h6c-.729-.729-1.44-1.983-1.781-3h7.781c.554 0 1-.446 1-1v-11c0-.554-.446-1-1-1h-18zm1 2h16v9h-16v-9z"/>
	</g>
	<g id="preferences-desktop-text-to-speech" transform="translate(-57,25.991)">
		<rect id="rect3075" style="opacity:.125;fill:none" height="22" width="22" y="-25.991" x="29"/>
		<path id="path3897" class="ColorScheme-Text" style="opacity:.875;fill:currentColor" d="m40-24.991c-4.9706 0-9 4.0294-9 9 0 .17156.02178.3308.03125.5.26501-4.7327 4.1698-8.5 8.9688-8.5s8.7037 3.7673 8.9688 8.5c.0095-.1692.03125-.32844.03125-.5 0-4.9706-4.0294-9-9-9z"/>
		<path id="path3943" style="opacity:.375;fill:none" d="m41.065-6.2724c.08203 9e-7.17317-.00456.27344-.013672.10481-.00911.20507-.020507.30078-.03418.0957-.013671.18229-.029622.25977-.047852.08203-.018228.14355-.034179.18457-.047852v.94336c-.05925.027344-.13444.054687-.22559.082031s-.19141.05013-.30078.068359c-.10938.022786-.22331.038737-.3418.047852-.11849.013672-.2347.020508-.34863.020508-.28256-1e-7-.5446-.036458-.78613-.10938-.24154-.072917-.45117-.19824-.62891-.37598-.17318-.17773-.3099-.41699-.41016-.71777-.10026-.30534-.15039-.68815-.15039-1.1484v-4.3545h-1.0596v-.55371l1.0596-.5332.5332-1.5723h.71777v1.7227h1.8867v.93652h-1.8867v4.3545c-.000003.44206.07063.77474.21191.99805.14583.22331.38281.33496.71094.33496m-1.066-18.728c-4.9646 0-9 4.0354-9 9 0 2.2452.82393 4.2971 2.1875 5.875a.50005 .50005 0 1 0 .75 -.625c-1.212-1.402-1.938-3.248-1.938-5.25 0-4.4242 3.5758-8 8-8s8 3.5758 8 8c0 2.0018-.72624 3.8483-1.9375 5.25a.50005 .50005 0 1 0 .75 .625c1.364-1.578 2.188-3.63 2.188-5.875 0-4.9646-4.0354-9-9-9zm0 6c-1.6509 0-3 1.3491-3 3 0 .22898.02743.42235.0625.59375a.50871 .50871 0 1 0 1 -.1875c-.031-.154-.062-.29-.062-.406 0-1.1105.88951-2 2-2s2 .88951 2 2c0 .11619-.03097.25216-.0625.40625a.50871 .50871 0 1 0 1 .1875c.035-.172.062-.365.062-.594 0-1.6509-1.3491-3-3-3zm0-3c-3.3078 0-6 2.6922-6 6 0 .90868.21032 1.7722.5625 2.5312a.51740 .51740 0 1 0 .938 -.437c-.3-.647-.5-1.351-.5-2.094 0-2.7673 2.2327-5 5-5s5 2.2327 5 5c0 .74313-.19988 1.4469-.5 2.0938a.51728 .51728 0 1 0 .9375 .4375c.352-.76.562-1.623.562-2.532 0-3.3078-2.6922-6-6-6z"/>
		<path id="path3914" class="ColorScheme-Text" style="opacity:.875;fill:currentColor" d="m41.065-6.2724c.08203 9e-7.17317-.00456.27344-.013672.10481-.00911.20507-.020507.30078-.03418.0957-.013671.18229-.029622.25977-.047852.08203-.018228.14355-.034179.18457-.047852v.94336c-.05925.027344-.13444.054687-.22559.082031s-.19141.05013-.30078.068359c-.10938.022786-.22331.038737-.3418.047852-.11849.013672-.2347.020508-.34863.020508-.28256-1e-7-.5446-.036458-.78613-.10938-.24154-.072917-.45117-.19824-.62891-.37598-.17318-.17773-.3099-.41699-.41016-.71777-.10026-.30534-.15039-.68815-.15039-1.1484v-4.3545h-1.0596v-.55371l1.0596-.5332.5332-1.5723h.71777v1.7227h1.8867v.93652h-1.8867v4.3545c-.000003.44206.07063.77474.21191.99805.14583.22331.38281.33496.71094.33496m-1.066-18.728c-4.9646 0-9 4.0354-9 9 0 2.2452.82393 4.2971 2.1875 5.875a.50005 .50005 0 1 0 .75 -.625c-1.212-1.402-1.938-3.248-1.938-5.25 0-4.4242 3.5758-8 8-8s8 3.5758 8 8c0 2.0018-.72624 3.8483-1.9375 5.25a.50005 .50005 0 1 0 .75 .625c1.364-1.578 2.188-3.63 2.188-5.875 0-4.9646-4.0354-9-9-9zm0 6c-1.6509 0-3 1.3491-3 3 0 .22898.02743.42235.0625.59375a.50871 .50871 0 1 0 1 -.1875c-.031-.154-.062-.29-.062-.406 0-1.1105.88951-2 2-2s2 .88951 2 2c0 .11619-.03097.25216-.0625.40625a.50871 .50871 0 1 0 1 .1875c.035-.172.062-.365.062-.594 0-1.6509-1.3491-3-3-3zm0-3c-3.3078 0-6 2.6922-6 6 0 .90868.21032 1.7722.5625 2.5312a.51740 .51740 0 1 0 .938 -.437c-.3-.647-.5-1.351-.5-2.094 0-2.7673 2.2327-5 5-5s5 2.2327 5 5c0 .74313-.19988 1.4469-.5 2.0938a.51728 .51728 0 1 0 .9375 .4375c.352-.76.562-1.623.562-2.532 0-3.3078-2.6922-6-6-6z"/>
	</g>
</svg>
