<?xml version="1.0" encoding="UTF-8" standalone="no"?>
<!-- Created with Inkscape (http://www.inkscape.org/) -->

<svg
   xmlns:dc="http://purl.org/dc/elements/1.1/"
   xmlns:cc="http://creativecommons.org/ns#"
   xmlns:rdf="http://www.w3.org/1999/02/22-rdf-syntax-ns#"
   xmlns:svg="http://www.w3.org/2000/svg"
   xmlns="http://www.w3.org/2000/svg"
   xmlns:sodipodi="http://sodipodi.sourceforge.net/DTD/sodipodi-0.dtd"
   xmlns:inkscape="http://www.inkscape.org/namespaces/inkscape"
   version="1.1"
   width="24"
   height="24"
   id="svg3115"
   inkscape:version="0.91 r13725"
   sodipodi:docname="printer.svgz">
  <sodipodi:namedview
     pagecolor="#323232"
     bordercolor="#666666"
     borderopacity="1"
     objecttolerance="10"
     gridtolerance="10"
     guidetolerance="10"
     inkscape:pageopacity="1"
     inkscape:pageshadow="2"
     inkscape:window-width="1920"
     inkscape:window-height="1056"
     id="namedview15"
     showgrid="false"
     showborder="false"
     inkscape:showpageshadow="false"
     fit-margin-top="0"
     fit-margin-left="0"
     fit-margin-right="0"
     fit-margin-bottom="0"
     inkscape:zoom="22.627417"
     inkscape:cx="21.029607"
     inkscape:cy="11.000415"
     inkscape:window-x="0"
     inkscape:window-y="-3"
     inkscape:window-maximized="1"
     inkscape:current-layer="svg3115">
    <inkscape:grid
       type="xygrid"
       id="grid2992"
       empspacing="4"
       visible="true"
       enabled="true"
       snapvisiblegridlinesonly="true"
       originx="0px"
       originy="-32px" />
  </sodipodi:namedview>
  <defs
     id="defs3117" />
  <metadata
     id="metadata3120">
    <rdf:RDF>
      <cc:Work
         rdf:about="">
        <dc:format>image/svg+xml</dc:format>
        <dc:type
           rdf:resource="http://purl.org/dc/dcmitype/StillImage" />
        <dc:title />
        <dc:creator>
          <cc:Agent>
            <dc:title>obnosim</dc:title>
          </cc:Agent>
        </dc:creator>
        <cc:license
           rdf:resource="http://creativecommons.org/licenses/by-nc-sa/3.0/" />
      </cc:Work>
      <cc:License
         rdf:about="http://creativecommons.org/licenses/by-nc-sa/3.0/">
        <cc:permits
           rdf:resource="http://creativecommons.org/ns#Reproduction" />
        <cc:permits
           rdf:resource="http://creativecommons.org/ns#Distribution" />
        <cc:requires
           rdf:resource="http://creativecommons.org/ns#Notice" />
        <cc:requires
           rdf:resource="http://creativecommons.org/ns#Attribution" />
        <cc:prohibits
           rdf:resource="http://creativecommons.org/ns#CommercialUse" />
        <cc:permits
           rdf:resource="http://creativecommons.org/ns#DerivativeWorks" />
        <cc:requires
           rdf:resource="http://creativecommons.org/ns#ShareAlike" />
      </cc:License>
    </rdf:RDF>
  </metadata>
  <g
     id="printer">
    <rect
       y="0"
       x="0"
       height="24"
       width="24"
       id="rect2994"
       style="opacity:0.125;fill:none;stroke:none" />
    <path
       id="path3831"
       d="M 4,2 4,3 4,5 4,5.5 1.15625,9.75 C 1.0505835,9.9167702 0.99548528,10.115124 1,10.3125 L 1,17 c 0.00409,0.522471 0.4775288,0.995914 1,1 l 1.71875,0 -0.1875,1.28125 -0.375,2.5625 c -0.00304,0.02043 0.00155,0.04206 0,0.0625 L 3,23 4.15625,23 19.84375,23 21,23 20.84375,21.90625 20.46875,19.28125 20.28125,18 22,18 c 0.522471,-0.0041 0.995914,-0.477529 1,-1 l 0,-6.6875 C 23.004515,10.115124 22.949416,9.9167702 22.84375,9.75 L 20,5.5 20,5 20,3 20,2 19,2 4.8125,2 4,2 z"
       style="opacity:0.375;fill:#000000;fill-opacity:1;stroke:#000000;stroke-width:2;stroke-linejoin:round;stroke-miterlimit:4;stroke-opacity:1;stroke-dasharray:none"
       inkscape:connector-curvature="0" />
    <path
       d="M 4,2 20,2 20,8 4,8 z m 0,14 -1,7 18,0 -1,-7 -16,0 z m 1.9375,1 12.125,0 c 0.242375,0 0.4375,0.195125 0.4375,0.4375 l 0,0.125 C 18.5,17.804875 18.304875,18 18.0625,18 L 5.9375,18 C 5.695125,18 5.5,17.804875 5.5,17.5625 l 0,-0.125 C 5.5,17.195125 5.695125,17 5.9375,17 z m -0.21875,2.0625 12.5625,0 c 0.263597,0 0.46875,0.205153 0.46875,0.46875 C 18.75,19.794847 18.544847,20 18.28125,20 L 5.71875,20 C 5.4551533,20 5.25,19.794847 5.25,19.53125 5.25,19.267653 5.4551533,19.0625 5.71875,19.0625 z M 5.46875,21 18.53125,21 C 18.789783,21 19,21.210217 19,21.46875 l 0,0.0625 C 19,21.789783 18.789783,22 18.53125,22 L 5.46875,22 C 5.2102167,22 5,21.789783 5,21.53125 l 0,-0.0625 C 5,21.210217 5.2102167,21 5.46875,21 z M 3,7.0625 1.1875,9.75 A 0.98894352,0.98894352 0 0 0 1.125,9.84375 0.98894352,0.98894352 0 0 0 1.0625,10 l 21.875,0 A 0.98894352,0.98894352 0 0 0 22.875,9.84375 0.98894352,0.98894352 0 0 0 22.8125,9.75 L 21,7.0625 21,9 3,9 3,7.0625 z M 1,11 1,17 A 0.98894352,0.98894352 0 0 0 1,17.09375 0.98894352,0.98894352 0 0 0 1.90625,18 L 2.6875,18 3,15.84375 3.125,15 4,15 20,15 20.875,15 21,15.84375 21.3125,18 22,18 22.09375,18 A 0.98894352,0.98894352 0 0 0 23,17.09375 0.98894352,0.98894352 0 0 0 23,17 l 0,-6 -22,0 z m 1.5,1 C 2.7761424,12 3,12.223858 3,12.5 3,12.776142 2.7761424,13 2.5,13 2.2238576,13 2,12.776142 2,12.5 2,12.223858 2.2238576,12 2.5,12 z m 2,0 3,0 C 7.777,12 8,12.223 8,12.5 8,12.777 7.777,13 7.5,13 l -3,0 C 4.223,13 4,12.777 4,12.5 4,12.223 4.223,12 4.5,12 z"
       style="fill:#e0e0e0;fill-opacity:1;fill-rule:evenodd;stroke:none"
       id="rect3776"
       inkscape:connector-curvature="0" />
  </g>
</svg>
