<?xml version="1.0" encoding="UTF-8" standalone="no"?>
<svg id="svg3115" xmlns:rdf="http://www.w3.org/1999/02/22-rdf-syntax-ns#" xmlns="http://www.w3.org/2000/svg" height="22" width="22" version="1.1" xmlns:cc="http://creativecommons.org/ns#" xmlns:dc="http://purl.org/dc/elements/1.1/">
    <defs id="defs3615">
        <style id="current-color-scheme" type="text/css">
            .ColorScheme-Text {
            color:#0000FF;
            }
            .ColorScheme-Background{
            color:#E9E8E8;
            }
            .ColorScheme-ViewText {
            color:#31363b;
            }
            .ColorScheme-ViewBackground{
            color:#ffffff;
            }
            .ColorScheme-ViewHover {
            }
            .ColorScheme-ViewFocus{
            color:#5a5a5a;
            }
            .ColorScheme-ButtonText {
            color:#31363b;
            }
            .ColorScheme-ButtonBackground{
            color:#E9E8E8;
            }
            .ColorScheme-ButtonHover {
            color:#1489ff;
            }
            .ColorScheme-ButtonFocus{
            color:#2B74C7;
            }
        </style>
    </defs>
	<metadata id="metadata3120">
		<rdf:RDF>
			<cc:Work rdf:about="">
				<dc:format>image/svg+xml</dc:format>
				<dc:type rdf:resource="http://purl.org/dc/dcmitype/StillImage"/>
				<dc:title/>
				<dc:creator>
					<cc:Agent>
						<dc:title>obnosim</dc:title>
					</cc:Agent>
				</dc:creator>
				<cc:license rdf:resource="http://creativecommons.org/licenses/by-nc-sa/3.0/"/>
			</cc:Work>
			<cc:License rdf:about="http://creativecommons.org/licenses/by-nc-sa/3.0/">
				<cc:permits rdf:resource="http://creativecommons.org/ns#Reproduction"/>
				<cc:permits rdf:resource="http://creativecommons.org/ns#Distribution"/>
				<cc:requires rdf:resource="http://creativecommons.org/ns#Notice"/>
				<cc:requires rdf:resource="http://creativecommons.org/ns#Attribution"/>
				<cc:prohibits rdf:resource="http://creativecommons.org/ns#CommercialUse"/>
				<cc:permits rdf:resource="http://creativecommons.org/ns#DerivativeWorks"/>
				<cc:requires rdf:resource="http://creativecommons.org/ns#ShareAlike"/>
			</cc:License>
		</rdf:RDF>
	</metadata>
	<g id="printer" transform="translate(-1 -1)">
		<rect id="rect2994" style="opacity:.125;fill:none" height="22" width="22" y="1" x="1"/>
		<path id="rect3776" style="fill:currentColor;opacity:.875" class="ColorScheme-Text" d="m4.0008 2h15.998v6h-15.998zm0 14-.99990 7h17.998l-.99990-7h-15.998zm1.9373 1h12.124c.24235 0 .43746.19512.43746.4375v.125c0 .24238-.19511.4375-.43746.4375h-12.124c-.2422 0-.4373-.195-.4373-.438v-.125c0-.242.1951-.437.4374-.437zm-.21873 2.0625h12.561c.26357 0 .46870.20515.46870.46875s-.20513.46875-.46870.46875h-12.561c-.2632 0-.4683-.205-.4683-.469 0-.26360.20513-.46875.46870-.46875zm-0.25 1.938h13.062c.25851 0 .46870.21022.46870.46875v.0625c-.001.258-.211.468-.469.468h-13.062c-.2581 0-.4683-.210-.4683-.469v-.0625c0-.258.2102-.468.4687-.468zm-2.4685-13.938-1.8123 2.6875a.98884 .98894 0 0 0 -.0625 .0938 .98884 .98894 0 0 0 -.0625 .1562h21.872a.98884 .98894 0 0 0 -.062 -.1562 .98884 .98894 0 0 0 -.063 -.0938l-1.8123-2.6875v1.9375h-17.998v-1.9375zm-1.9998 3.9375v6a.98884 .98894 0 0 0 0 .09375 .98884 .98894 0 0 0 .9062 .906h.7811l.3125-2.156.1250-.844h.87491 15.998.87491l.12499.84375.313 2.156h.68743.09374a.98884 .98894 0 0 0 .90616 -.90625 .98884 .98894 0 0 0 0 -.09375v-6h-21.998zm1.4998 1c.27611 0 .49995.22386.49995.5s-.22384.5-.49995.5-.49995-.22386-.49995-.5.22384-.5.49995-.5zm1.9998 0h2.9997c.27697 0 .49995.223.49995.5s-.22298.5-.49995.5h-2.9997c-.27697 0-.49995-.223-.49995-.5s.22298-.5.49995-.5z"/>
	</g>
</svg>
