<?xml version="1.0" encoding="UTF-8" standalone="no"?>
<svg id="svg3130" xmlns:rdf="http://www.w3.org/1999/02/22-rdf-syntax-ns#" xmlns="http://www.w3.org/2000/svg" height="22" width="22" version="1.1" xmlns:cc="http://creativecommons.org/ns#" xmlns:dc="http://purl.org/dc/elements/1.1/">
	<defs id="defs3615">
		<style id="current-color-scheme" type="text/css">
			.ColorScheme-Text { color:#0000FF; }
		</style>
    </defs>
	<metadata id="metadata3136">
		<rdf:RDF>
			<cc:Work rdf:about="">
				<dc:format>image/svg+xml</dc:format>
				<dc:type rdf:resource="http://purl.org/dc/dcmitype/StillImage"/>
				<dc:title/>
				<dc:creator>
					<cc:Agent>
						<dc:title>obnosim</dc:title>
					</cc:Agent>
				</dc:creator>
				<cc:license rdf:resource="http://creativecommons.org/licenses/by-nc-sa/3.0/"/>
			</cc:Work>
			<cc:License rdf:about="http://creativecommons.org/licenses/by-nc-sa/3.0/">
				<cc:permits rdf:resource="http://creativecommons.org/ns#Reproduction"/>
				<cc:permits rdf:resource="http://creativecommons.org/ns#Distribution"/>
				<cc:requires rdf:resource="http://creativecommons.org/ns#Notice"/>
				<cc:requires rdf:resource="http://creativecommons.org/ns#Attribution"/>
				<cc:prohibits rdf:resource="http://creativecommons.org/ns#CommercialUse"/>
				<cc:permits rdf:resource="http://creativecommons.org/ns#DerivativeWorks"/>
				<cc:requires rdf:resource="http://creativecommons.org/ns#ShareAlike"/>
			</cc:License>
		</rdf:RDF>
	</metadata>
	<g id="quassel" transform="translate(-1 -1)">
		<rect id="rect3013" style="opacity:.375;fill:none" height="22" width="22" y="1" x="1"/>
		<path id="path3790" d="m16 16c0 2.2091-1.7909 4-4 4s-4-1.7909-4-4 1.7909-4 4-4 4 1.7909 4 4zm3.778-11.778c-4.2958-4.2958-11.261-4.2958-15.556 0-4.2958 4.2958-4.2958 11.261 0 15.556 4.2958 4.2958 11.261 4.2958 15.556 0 4.2958-4.2958 4.2958-11.261 0-15.556zm-2.1213 2.1213c3.1242 3.1242 3.1242 8.1895 0 11.314-3.1242 3.1242-8.1895 3.1242-11.314 0-3.1242-3.1242-3.1242-8.1895 0-11.314 3.1242-3.1242 8.1895-3.1242 11.314 0z" style="fill:currentColor;opacity:.875" class="ColorScheme-Text" transform="matrix(.70711 -.70711 .70711 .70711 -4.9706 12)"/>
	</g>
	<g id="quassel-message" transform="translate(-1 -1)">
		<rect id="rect3792" style="opacity:.375;fill:none" height="22" width="22" y="1" x="29"/>
		<path id="path3801" d="m42 16c0 1.1046-.89543 2-2 2s-2-.89543-2-2 .89543-2 2-2 2 .89543 2 2zm-2-5c-2.7614 0-5 2.2386-5 5 0 2.761 2.239 5 5 5 2.7614.000001 5-2.2386 5-5s-2.2386-5-5-5zm0 1c2.2091 0 4 1.7909 4 4 0 2.209-1.791 4-4 4-2.2091 0-4-1.7909-4-4s1.7909-4 4-4zm7.7782-7.7782c-4.2958-4.2958-11.261-4.2958-15.556 0-4.2958 4.2958-4.2958 11.261 0 15.556 4.2958 4.2958 11.261 4.2958 15.556 0 4.2958-4.2958 4.2958-11.261 0-15.556zm-2.1213 2.1213c3.1242 3.1242 3.1242 8.1895 0 11.314-3.1242 3.1242-8.1895 3.1242-11.314 0-3.1242-3.1242-3.1242-8.1895 0-11.314 3.1242-3.1242 8.1895-3.1242 11.314 0z" style="fill:currentColor;opacity:.875" class="ColorScheme-Text" transform="matrix(.70711 -.70711 .70711 .70711 3.2304 31.799)"/>
	</g>
	<g id="quassel-inactive" transform="translate(-1 -1)">
		<rect id="rect3805" style="opacity:.375;fill:none" height="22" width="22" y="1" x="57"/>
		<path id="path3807" style="fill:currentColor;opacity:.875" class="ColorScheme-Text" d="m68 1c-6.075 0-11 4.9249-11 11 0 6.075 4.925 11 11 11s11-4.925 11-11c0-6.0751-4.925-11-11-11zm0 3c4.4183 0 8 3.5817 8 8s-3.5817 8-8 8-8-3.5817-8-8 3.5817-8 8-8z"/>
	</g>
</svg>
