<?xml version="1.0" encoding="UTF-8" standalone="no"?>
<!-- Created with Inkscape (http://www.inkscape.org/) -->

<svg
     xmlns:dc="http://purl.org/dc/elements/1.1/"
     xmlns:cc="http://creativecommons.org/ns#"
     xmlns:rdf="http://www.w3.org/1999/02/22-rdf-syntax-ns#"
     xmlns:svg="http://www.w3.org/2000/svg"
     xmlns="http://www.w3.org/2000/svg"
     xmlns:sodipodi="http://sodipodi.sourceforge.net/DTD/sodipodi-0.dtd"
     xmlns:inkscape="http://www.inkscape.org/namespaces/inkscape"
     version="1.1"
     width="22"
     height="22"
     id="svg2"
     inkscape:version="0.91 r13725"
     sodipodi:docname="recorditnow.svgz">
    <sodipodi:namedview
         pagecolor="#323232"
         bordercolor="#666666"
         borderopacity="1"
         objecttolerance="10"
         gridtolerance="10"
         guidetolerance="10"
         inkscape:pageopacity="1"
         inkscape:pageshadow="2"
         inkscape:window-width="1920"
         inkscape:window-height="1056"
         id="namedview16"
         showgrid="false"
         inkscape:showpageshadow="false"
         showborder="true"
         fit-margin-top="0"
         fit-margin-left="0"
         fit-margin-right="0"
         fit-margin-bottom="0"
         inkscape:zoom="11.313708"
         inkscape:cx="52.467077"
         inkscape:cy="9.0352716"
         inkscape:window-x="0"
         inkscape:window-y="-3"
         inkscape:window-maximized="1"
         inkscape:current-layer="recorditnow">
        <inkscape:grid
             type="xygrid"
             id="grid2993"
             empspacing="4"
             visible="true"
             enabled="true"
             snapvisiblegridlinesonly="true"
             originx="-2.0810318e-09"
             originy="2.7683716e-07" />
    </sodipodi:namedview>
    <defs
         id="defs4" />
    <metadata
         id="metadata7">
        <rdf:RDF>
            <cc:Work
                 rdf:about="">
                <dc:format>image/svg+xml</dc:format>
                <dc:type
                     rdf:resource="http://purl.org/dc/dcmitype/StillImage" />
                <dc:title></dc:title>
                <dc:creator>
                    <cc:Agent>
                        <dc:title>obnosim</dc:title>
                    </cc:Agent>
                </dc:creator>
                <cc:license
                     rdf:resource="http://creativecommons.org/licenses/by-nc-sa/3.0/" />
            </cc:Work>
            <cc:License
                 rdf:about="http://creativecommons.org/licenses/by-nc-sa/3.0/">
                <cc:permits
                     rdf:resource="http://creativecommons.org/ns#Reproduction" />
                <cc:permits
                     rdf:resource="http://creativecommons.org/ns#Distribution" />
                <cc:requires
                     rdf:resource="http://creativecommons.org/ns#Notice" />
                <cc:requires
                     rdf:resource="http://creativecommons.org/ns#Attribution" />
                <cc:prohibits
                     rdf:resource="http://creativecommons.org/ns#CommercialUse" />
                <cc:permits
                     rdf:resource="http://creativecommons.org/ns#DerivativeWorks" />
                <cc:requires
                     rdf:resource="http://creativecommons.org/ns#ShareAlike" />
            </cc:License>
        </rdf:RDF>
    </metadata>
    <g
         id="recorditnow"
         transform="translate(0.09000312,-2.0000005)">
        <rect
             y="2.0000005"
             x="-0.090003118"
             height="22"
             width="22"
             id="rect2995"
             style="opacity:0.125;fill:none;stroke:none" />
        <path
             id="rect3767"
             d="M 19.787641,2.0317066 0.65999688,5.3125 c -0.75,0.1431874 -0.75,0.317374 -0.75,1.6875 l 0,3 0,4.34375 0,8.65625 c 0,0.554 0.446,1 1,1 L 20.909997,24 c 0.554,0 1,-0.446 1,-1 l 0,-13 c 0,-0.554 -0.446,-1 -1,-1 L 4.9099969,9 4.6287469,8.71875 20.659997,5.9375 c 0.545972,-0.093972 0.906472,-0.6102781 0.8125,-1.15625 L 21.128747,2.8125 C 20.997791,2.0000002 20.282476,1.9547914 19.787641,2.0317066 Z M 20.128747,3 l 0.34375,1.96875 -2.3125,-1.625 z m -3.9375,0.65625 2.3125,1.65625 -2.9375,0.5 -2.3125,-1.625 z m -4.90625,0.875 2.28125,1.625 -2.9375,0.5 -2.3125001,-1.625 z M 6.3474969,5.375 8.6599969,7 l -2.96875,0.5 -2.3125,-1.625 z m -4.9375,0.84375 2.3125,1.625 -2.81250002,0.46875 0,-2 z M 0.90999688,10 l 3.00000002,0 -2,2 2,0 2,-2 3,0 -2,2 2,0 2.0000001,-2 3,0 -2,2 2,0 2,-2 3,0 -2,2 2,0 2,-2 0,2 0,11 -20.00000012,0 0,-11 z m 7.00000002,3.53125 0,6.9375 L 13.909997,17 Z"
             style="fill:#e0e0e0;fill-opacity:1;fill-rule:evenodd;stroke:none"
             inkscape:connector-curvature="0"
             sodipodi:nodetypes="cccccsssssscccccccccccccccccccccccccccccccccccccccccccccccccccccccc" />
    </g>
</svg>
