<?xml version="1.0" encoding="UTF-8" standalone="no"?>
<!-- Created with Inkscape (http://www.inkscape.org/) -->

<svg
   xmlns:dc="http://purl.org/dc/elements/1.1/"
   xmlns:cc="http://creativecommons.org/ns#"
   xmlns:rdf="http://www.w3.org/1999/02/22-rdf-syntax-ns#"
   xmlns:svg="http://www.w3.org/2000/svg"
   xmlns="http://www.w3.org/2000/svg"
   xmlns:sodipodi="http://sodipodi.sourceforge.net/DTD/sodipodi-0.dtd"
   xmlns:inkscape="http://www.inkscape.org/namespaces/inkscape"
   version="1.1"
   width="24.090004"
   height="24.027102"
   id="svg2"
   inkscape:version="0.91 r13725"
   sodipodi:docname="recorditnow.svg">
  <sodipodi:namedview
     pagecolor="#323232"
     bordercolor="#666666"
     borderopacity="1"
     objecttolerance="10"
     gridtolerance="10"
     guidetolerance="10"
     inkscape:pageopacity="1"
     inkscape:pageshadow="2"
     inkscape:window-width="1920"
     inkscape:window-height="1056"
     id="namedview16"
     showgrid="false"
     inkscape:showpageshadow="false"
     showborder="false"
     fit-margin-top="0"
     fit-margin-left="0"
     fit-margin-right="0"
     fit-margin-bottom="0"
     inkscape:zoom="8"
     inkscape:cx="32.064792"
     inkscape:cy="41.586468"
     inkscape:window-x="0"
     inkscape:window-y="-3"
     inkscape:window-maximized="1"
     inkscape:current-layer="svg2">
    <inkscape:grid
       type="xygrid"
       id="grid2993"
       empspacing="4"
       visible="true"
       enabled="true"
       snapvisiblegridlinesonly="true"
       originx="0.09000312px"
       originy="-2.3672363e-07px" />
  </sodipodi:namedview>
  <defs
     id="defs4" />
  <metadata
     id="metadata7">
    <rdf:RDF>
      <cc:Work
         rdf:about="">
        <dc:format>image/svg+xml</dc:format>
        <dc:type
           rdf:resource="http://purl.org/dc/dcmitype/StillImage" />
        <dc:title />
        <dc:creator>
          <cc:Agent>
            <dc:title>obnosim</dc:title>
          </cc:Agent>
        </dc:creator>
        <cc:license
           rdf:resource="http://creativecommons.org/licenses/by-nc-sa/3.0/" />
      </cc:Work>
      <cc:License
         rdf:about="http://creativecommons.org/licenses/by-nc-sa/3.0/">
        <cc:permits
           rdf:resource="http://creativecommons.org/ns#Reproduction" />
        <cc:permits
           rdf:resource="http://creativecommons.org/ns#Distribution" />
        <cc:requires
           rdf:resource="http://creativecommons.org/ns#Notice" />
        <cc:requires
           rdf:resource="http://creativecommons.org/ns#Attribution" />
        <cc:prohibits
           rdf:resource="http://creativecommons.org/ns#CommercialUse" />
        <cc:permits
           rdf:resource="http://creativecommons.org/ns#DerivativeWorks" />
        <cc:requires
           rdf:resource="http://creativecommons.org/ns#ShareAlike" />
      </cc:License>
    </rdf:RDF>
  </metadata>
  <g
     id="recorditnow"
     transform="translate(0.09000312,0.02710128)">
    <rect
       y="0"
       x="0"
       height="24"
       width="24"
       id="rect2995"
       style="opacity:0.125;fill:none;stroke:none" />
    <path
       sodipodi:nodetypes="ccccsccsssssscccccc"
       inkscape:connector-curvature="0"
       style="opacity:0.375;fill:#000000;fill-opacity:1;fill-rule:evenodd;stroke:#000000;stroke-width:2;stroke-linejoin:round;stroke-miterlimit:4;stroke-opacity:1;stroke-dasharray:none"
       d="M 21.0625,1 1.75,4.3125 C 1.2040281,4.4064719 0.8435281,4.9227781 0.9375,5.46875 L 1.03125,5.9375 C 1.0295429,5.9614917 1,5.9755588 1,6 L 1,9 1,13.34375 1,22 c 0,0.554 0.446,1 1,1 l 20,0 c 0.554,0 1,-0.446 1,-1 L 23,9 C 23,8.446 22.554,8 22,8 L 6,8 5.71875,7.71875 21.75,4.9375 C 22.295972,4.843528 22.656472,4.3272219 22.5625,3.78125 L 22.21875,1.8125 C 22.124778,1.2665281 21.608472,0.90602809 21.0625,1 z"
       id="path3831" />
    <path
       id="rect3767"
       d="M 21.0625,1 1.75,4.3125 C 1.2040281,4.4064719 0.84352809,4.9227781 0.9375,5.46875 L 1.03125,5.9375 C 1.0295429,5.9614917 1,5.9755588 1,6 L 1,9 1,13.34375 1,22 c 0,0.554 0.446,1 1,1 l 20,0 c 0.554,0 1,-0.446 1,-1 L 23,9 C 23,8.446 22.554,8 22,8 L 6,8 5.71875,7.71875 21.75,4.9375 C 22.295972,4.843528 22.656472,4.3272219 22.5625,3.78125 L 22.21875,1.8125 C 22.124778,1.2665281 21.608472,0.90602809 21.0625,1 z M 21.21875,2 21.5625,3.96875 19.25,2.34375 21.21875,2 z m -3.9375,0.65625 2.3125,1.65625 -2.9375,0.5 -2.3125,-1.625 2.9375,-0.53125 z m -4.90625,0.875 2.28125,1.625 -2.9375,0.5 -2.3125,-1.625 2.96875,-0.5 z M 7.4375,4.375 9.75,6 6.78125,6.5 4.46875,4.875 7.4375,4.375 z M 2.5,5.21875 4.8125,6.84375 2,7.3125 l 0,-2 0.5,-0.09375 z M 2,9 l 3,0 -2,2 2,0 2,-2 3,0 -2,2 2,0 2,-2 3,0 -2,2 2,0 2,-2 3,0 -2,2 2,0 2,-2 0,2 0,11 L 2,22 2,11 2,9 z m 7,3.53125 0,6.9375 L 15,16 9,12.53125 z"
       style="fill:#e0e0e0;fill-opacity:1;fill-rule:evenodd;stroke:none"
       inkscape:connector-curvature="0" />
  </g>
</svg>
