<?xml version="1.0" encoding="UTF-8" standalone="no"?>
<svg id="svg7538" xmlns:rdf="http://www.w3.org/1999/02/22-rdf-syntax-ns#" xmlns="http://www.w3.org/2000/svg" height="22" width="78" version="1.1" xmlns:cc="http://creativecommons.org/ns#" xmlns:dc="http://purl.org/dc/elements/1.1/">
    <defs id="defs3615">
        <style id="current-color-scheme" type="text/css">
            .ColorScheme-Text {
            color:#0000FF;
            }
            .ColorScheme-Background{
            color:#E9E8E8;
            }
            .ColorScheme-ViewText {
            color:#31363b;
            }
            .ColorScheme-ViewBackground{
            color:#ffffff;
            }
            .ColorScheme-ViewHover {
            }
            .ColorScheme-ViewFocus{
            color:#5a5a5a;
            }
            .ColorScheme-ButtonText {
            color:#31363b;
            }
            .ColorScheme-ButtonBackground{
            color:#E9E8E8;
            }
            .ColorScheme-ButtonHover {
            color:#1489ff;
            }
            .ColorScheme-ButtonFocus{
            color:#2B74C7;
            }
        </style>
    </defs>
	<metadata id="metadata7543">
		<rdf:RDF>
			<cc:Work rdf:about="">
				<dc:format>image/svg+xml</dc:format>
				<dc:type rdf:resource="http://purl.org/dc/dcmitype/StillImage"/>
				<dc:title/>
				<dc:creator>
					<cc:Agent>
						<dc:title>obnosim</dc:title>
					</cc:Agent>
				</dc:creator>
				<cc:license rdf:resource="http://creativecommons.org/licenses/by-nc-sa/3.0/"/>
			</cc:Work>
			<cc:License rdf:about="http://creativecommons.org/licenses/by-nc-sa/3.0/">
				<cc:permits rdf:resource="http://creativecommons.org/ns#Reproduction"/>
				<cc:permits rdf:resource="http://creativecommons.org/ns#Distribution"/>
				<cc:requires rdf:resource="http://creativecommons.org/ns#Notice"/>
				<cc:requires rdf:resource="http://creativecommons.org/ns#Attribution"/>
				<cc:prohibits rdf:resource="http://creativecommons.org/ns#CommercialUse"/>
				<cc:permits rdf:resource="http://creativecommons.org/ns#DerivativeWorks"/>
				<cc:requires rdf:resource="http://creativecommons.org/ns#ShareAlike"/>
			</cc:License>
		</rdf:RDF>
	</metadata>
	<g id="slc-like" transform="translate(35,-11)">
		<rect id="rect3815" style="fill:none" height="22" width="22" y="11" x="-7"/>
		<path id="path3036" style="fill:currentColor;opacity:.875" class="ColorScheme-Text" d="m3.9975 16.951c3.5588-5.9314 10.194-2.0493 9.0946 3.9719-.791 4.331-6.7218 7.891-9.0943 9.077-2.3726-1.186-8.3042-4.746-9.0874-8.989-1.1109-6.0191 5.5284-9.9916 9.0872-4.0602z"/>
	</g>
	<g id="slc-share" transform="translate(-21,-11)">
		<rect id="rect3828" style="fill:none" transform="scale(-1,1)" height="22" width="22" y="11" x="-43"/>
		<path id="path3896" style="text-indent:0;block-progression:tb;text-decoration-line:none;text-transform:none;fill:currentColor;opacity:.875" class="ColorScheme-Text" d="m38 12c-1.6569 0-3 1.3431-3 3 0 .21746.01855.42067.0625.625l-7.125 4.0938c-.523-.445-1.196-.719-1.937-.719-1.6569 0-3 1.3431-3 3s1.3431 3 3 3c.74071 0 1.4142-.27384 1.9375-.71875l7.125 4.0938c-.044.204-.063.408-.063.625 0 1.6569 1.3431 3 3 3s3-1.3431 3-3-1.3431-3-3-3c-.72487 0-1.3877.25953-1.9062.6875l-7.156-4.157c.032-.176.062-.345.062-.531s-.030-.355-.062-.531l7.156-4.157c.518.428 1.181.688 1.906.688 1.6569 0 3-1.3431 3-3s-1.3431-3-3-3z"/>
	</g>
	<g id="slc-connect" transform="translate(7,-11)">
		<rect id="rect3836" style="fill:none" height="22" width="22" y="11" x="49"/>
		<path id="path3913" style="fill:currentColor;opacity:.875" class="ColorScheme-Text" d="m57.5 12c-4.1421 0-7.5 3.3579-7.5 7.5s3.3579 7.5 7.5 7.5c3.7265 0 6.8233-2.7197 7.4062-6.2812-.568-.360-1.235-.582-1.937-.657-.282 2.774-2.621 4.938-5.469 4.938-3.038 0-5.5-2.462-5.5-5.5s2.462-5.5 5.5-5.5c1.724 0 3.2728.78985 4.2812 2.0312.236-.020.478-.031.719-.031.58680 0 1.1654.07427 1.7188.1875-1.226-2.473-3.772-4.188-6.719-4.188zm5 5c-3.7265 0-6.8233 2.7197-7.4062 6.2812.56839.35965 1.2348.58218 1.9375.65625.282-2.773 2.621-4.937 5.469-4.937 3.038 0 5.5 2.462 5.5 5.5s-2.462 5.5-5.5 5.5c-1.724 0-3.273-.790-4.281-2.031-.236.020-.478.031-.719.031-.587 0-1.165-.074-1.719-.188 1.226 2.473 3.772 4.188 6.719 4.188 4.142 0 7.5-3.358 7.5-7.5s-3.358-7.5-7.5-7.5z"/>
	</g>
</svg>
