<?xml version="1.0" encoding="UTF-8" standalone="no"?>
<!-- Created with Inkscape (http://www.inkscape.org/) -->

<svg
   xmlns:dc="http://purl.org/dc/elements/1.1/"
   xmlns:cc="http://creativecommons.org/ns#"
   xmlns:rdf="http://www.w3.org/1999/02/22-rdf-syntax-ns#"
   xmlns:svg="http://www.w3.org/2000/svg"
   xmlns="http://www.w3.org/2000/svg"
   xmlns:sodipodi="http://sodipodi.sourceforge.net/DTD/sodipodi-0.dtd"
   xmlns:inkscape="http://www.inkscape.org/namespaces/inkscape"
   version="1.1"
   width="24"
   height="24.002043"
   id="svg3045"
   inkscape:version="0.91 r13725"
   sodipodi:docname="smartphone.svgz">
  <sodipodi:namedview
     pagecolor="#323232"
     bordercolor="#666666"
     borderopacity="1"
     objecttolerance="10"
     gridtolerance="10"
     guidetolerance="10"
     inkscape:pageopacity="1"
     inkscape:pageshadow="2"
     inkscape:window-width="1920"
     inkscape:window-height="1056"
     id="namedview10"
     showgrid="false"
     inkscape:showpageshadow="false"
     showborder="false"
     fit-margin-top="0"
     fit-margin-left="0"
     fit-margin-right="0"
     fit-margin-bottom="0"
     inkscape:zoom="8"
     inkscape:cx="38.549136"
     inkscape:cy="-10.312185"
     inkscape:window-x="0"
     inkscape:window-y="-3"
     inkscape:window-maximized="1"
     inkscape:current-layer="svg3045">
    <inkscape:grid
       type="xygrid"
       id="grid2987"
       empspacing="4"
       visible="true"
       enabled="true"
       snapvisiblegridlinesonly="true"
       originx="0px"
       originy="6.9598772e-30px" />
  </sodipodi:namedview>
  <defs
     id="defs3047" />
  <metadata
     id="metadata3050">
    <rdf:RDF>
      <cc:Work
         rdf:about="">
        <dc:format>image/svg+xml</dc:format>
        <dc:type
           rdf:resource="http://purl.org/dc/dcmitype/StillImage" />
        <dc:title />
        <dc:creator>
          <cc:Agent>
            <dc:title>obnosim</dc:title>
          </cc:Agent>
        </dc:creator>
        <cc:license
           rdf:resource="http://creativecommons.org/licenses/by-nc-sa/3.0/" />
      </cc:Work>
      <cc:License
         rdf:about="http://creativecommons.org/licenses/by-nc-sa/3.0/">
        <cc:permits
           rdf:resource="http://creativecommons.org/ns#Reproduction" />
        <cc:permits
           rdf:resource="http://creativecommons.org/ns#Distribution" />
        <cc:requires
           rdf:resource="http://creativecommons.org/ns#Notice" />
        <cc:requires
           rdf:resource="http://creativecommons.org/ns#Attribution" />
        <cc:prohibits
           rdf:resource="http://creativecommons.org/ns#CommercialUse" />
        <cc:permits
           rdf:resource="http://creativecommons.org/ns#DerivativeWorks" />
        <cc:requires
           rdf:resource="http://creativecommons.org/ns#ShareAlike" />
      </cc:License>
    </rdf:RDF>
  </metadata>
  <g
     id="smartphone"
     transform="translate(0,0.00204261)">
    <rect
       ry="0.5"
       y="0"
       x="0"
       height="24"
       width="24"
       id="rect3793"
       style="opacity:0.375;fill:none;stroke:none" />
    <path
       inkscape:connector-curvature="0"
       id="path3778"
       d="M 15.84375,1 C 15.581951,1.0409062 15.380969,1.3163256 15.421875,1.578125 15.462781,1.8399243 15.738201,2.0409062 16,2 c 2.767346,0 5,2.232654 5,5 -0.0037,0.2641563 0.235817,0.507121 0.5,0.507121 C 21.764183,7.507121 22.003736,7.2641563 22,7 22,3.6922138 19.307786,1 16,1 15.96884,0.997066 15.93741,0.997066 15.90625,1 15.88544,0.998703 15.86456,0.998703 15.84375,1 Z m 0,2 C 15.581951,3.0409062 15.380969,3.3163256 15.421875,3.578125 15.462781,3.8399243 15.738201,4.0409062 16,4 c 1.662777,0 3,1.337223 3,3 -0.0037,0.2641563 0.235817,0.507121 0.5,0.507121 C 19.764183,7.507121 20.003736,7.2641563 20,7 20,4.7967828 18.203217,3 16,3 15.96884,2.99707 15.93741,2.99707 15.90625,3 15.88544,2.9987 15.86456,2.9987 15.84375,3 Z M 8,5 C 6.892,5 6,5.892 6,7 l 0,14 c 0,1.108 0.892,2 2,2 l 8,0 c 1.108,0 2,-0.892 2,-2 L 18,7 C 18,5.892 17.108,5 16,5 Z m 3.5,16 1,0 c 0.277,0 0.5,0.223 0.5,0.5 0,0.277 -0.223,0.5 -0.5,0.5 l -1,0 C 11.223,22 11,21.777 11,21.5 11,21.223 11.223,21 11.5,21 Z"
       style="opacity:0.375;fill:#000000;fill-opacity:1;stroke:#000000;stroke-width:2;stroke-miterlimit:4;stroke-dasharray:none;stroke-opacity:1"
       sodipodi:nodetypes="csccscccccsccsccccssssssssssssssss" />
    <path
       inkscape:connector-curvature="0"
       id="rect3757"
       d="M 8,5 C 6.892,5 6,5.892 6,7 l 0,14 c 0,1.108 0.892,2 2,2 l 8,0 c 1.108,0 2,-0.892 2,-2 L 18,7 C 18,5.892 17.108,5 16,5 L 8,5 Z M 7,7 17,7 17,20 7,20 7,7 Z m 4.5,14 1,0 c 0.277,0 0.5,0.223 0.5,0.5 0,0.277 -0.223,0.5 -0.5,0.5 l -1,0 C 11.223,22 11,21.777 11,21.5 11,21.223 11.223,21 11.5,21 Z"
       style="fill:#e0e0e0;fill-opacity:1;stroke:none" />
    <path
       inkscape:connector-curvature="0"
       d="m 16,1.5 c 3.037566,0 5.5,2.4624339 5.5,5.5 M 16.000005,3.5000012 c 1.932997,0 3.500001,1.5670039 3.500001,3.500001"
       style="color:#000000;display:inline;overflow:visible;visibility:visible;fill:none;stroke:#e0e0e0;stroke-width:1px;stroke-linecap:round;stroke-linejoin:round;stroke-opacity:1;marker:none;enable-background:accumulate"
       id="path3767" />
  </g>
</svg>
