<?xml version="1.0" encoding="UTF-8" standalone="no"?>
<svg id="svg3815" xmlns:rdf="http://www.w3.org/1999/02/22-rdf-syntax-ns#" xmlns="http://www.w3.org/2000/svg" height="24.009" width="24.026" version="1.1" xmlns:cc="http://creativecommons.org/ns#" xmlns:dc="http://purl.org/dc/elements/1.1/">
	<defs id="defs3615">
		<style id="current-color-scheme" type="text/css">
			.ColorScheme-Text { color:#0000FF; }
		</style>
    </defs>
	<metadata id="metadata3820">
		<rdf:RDF>
			<cc:Work rdf:about="">
				<dc:format>image/svg+xml</dc:format>
				<dc:type rdf:resource="http://purl.org/dc/dcmitype/StillImage"/>
				<dc:title/>
				<dc:creator>
					<cc:Agent>
						<dc:title>obnosim</dc:title>
					</cc:Agent>
				</dc:creator>
				<cc:license rdf:resource="http://creativecommons.org/licenses/by-nc-sa/3.0/"/>
			</cc:Work>
			<cc:License rdf:about="http://creativecommons.org/licenses/by-nc-sa/3.0/">
				<cc:permits rdf:resource="http://creativecommons.org/ns#Reproduction"/>
				<cc:permits rdf:resource="http://creativecommons.org/ns#Distribution"/>
				<cc:requires rdf:resource="http://creativecommons.org/ns#Notice"/>
				<cc:requires rdf:resource="http://creativecommons.org/ns#Attribution"/>
				<cc:prohibits rdf:resource="http://creativecommons.org/ns#CommercialUse"/>
				<cc:permits rdf:resource="http://creativecommons.org/ns#DerivativeWorks"/>
				<cc:requires rdf:resource="http://creativecommons.org/ns#ShareAlike"/>
			</cc:License>
		</rdf:RDF>
	</metadata>
	<g id="software-updates-updates" transform="matrix(.99980 0 0 .99964 .0029665 28.007)">
		<rect id="rect2994" style="opacity:.125;fill:none" height="22" width="22" y="-27" x="1"/>
		<path id="path3814" d="m11.625-27c-.81703.03032-1.6435.15389-2.4688.375-5.8681 1.5724-9.3536 7.6006-7.7812 13.469.76738 2.8639 2.6145 5.145 4.9688 6.5625.40297.23669.68359.19084.84375-.0625.1380-.2394.1101-.5028-.1876-.6878-4.1772-2.8762-5.5464-8.8002-2.5625-13.031 1.1078-1.5706 2.7029-2.6898 4.4688-3.2188 2.2704-.68007 4.7978-.39584 6.8438 1.0938 3.0032 2.1865 3.9704 6.5824 1.6562 9.625-.33067.43476-.72816.80299-1.1562 1.125l-3.25-3.25v10h10l-3.2188-3.2188c2.679-2.6881 3.8967-6.6954 2.8438-10.625-1.2775-4.7679-5.5019-7.9699-10.188-8.1562-.27033-.01075-.54016-.01011-.8125 0z" style="fill:currentColor;opacity:.875" class="ColorScheme-Text"/>
	</g>
	<g id="software-updates-security" transform="translate(26.003 28.009)">
		<rect id="rect3878" style="opacity:.125;fill:none" height="22" width="22" y="-27" x=".99723"/>
		<path id="path3882" style="fill:#65ff21" d="m11.623-26.992c-.81687.03031-1.6432.15383-2.4683.37487-5.867 1.5718-9.3518 7.5979-7.7797 13.464.76723 2.8629 2.614 5.1431 4.9678 6.5602.40289.23660.68346.19077.84359-.062478.1379-.2397.1101-.5030-.1876-.6879-4.1764-2.8751-5.5453-8.7981-2.562-13.027 1.1075-1.57 2.7024-2.6888 4.4679-3.2176 2.2699-.67983 4.7968-.39570 6.8424 1.0934 3.0026 2.1857 3.9696 6.58 1.6559 9.6216-.33060.43460-.72802.80270-1.156 1.1246l-3.2494-3.2488v9.9964h9.998l-3.2181-3.2176c2.6785-2.6871 3.8959-6.693 2.8432-10.621-1.2773-4.7662-5.5008-7.9671-10.186-8.1534-.27027-.01075-.54005-.01011-.81234 0z"/>
	</g>
	<g id="software-updates-important" transform="translate(52.003 28.009)">
		<rect id="rect3886" style="opacity:.125;fill:none" height="22" width="22" y="-27" x=".99723"/>
		<path id="path3890" d="m11.623-26.992c-.81687.03031-1.6432.15383-2.4683.37487-5.867 1.5718-9.3518 7.5979-7.7797 13.464.76723 2.8629 2.614 5.1431 4.9678 6.5602.40289.23660.68346.19077.84359-.062478.1379-.2397.1101-.5030-.1876-.6879-4.1764-2.8751-5.5453-8.7981-2.562-13.027 1.1075-1.57 2.7024-2.6888 4.4679-3.2176 2.2699-.67983 4.7968-.39570 6.8424 1.0934 3.0026 2.1857 3.9696 6.58 1.6559 9.6216-.33060.43460-.72802.80270-1.156 1.1246l-3.2494-3.2488v9.9964h9.998l-3.2181-3.2176c2.6785-2.6871 3.8959-6.693 2.8432-10.621-1.2773-4.7662-5.5008-7.9671-10.186-8.1534-.27027-.01075-.54005-.01011-.81234 0z" style="fill:#ff2121"/>
	</g>
	<g id="software-updates-inactive" style="opacity:.5" transform="translate(104 28.009)">
		<rect id="rect3894" style="opacity:.125;fill:none" height="22" width="22" y="-27" x=".99723"/>
		<path id="path3898" style="fill:currentColor;opacity:.875" class="ColorScheme-Text" d="m11.623-26.992c-.81687.03031-1.6432.15383-2.4683.37487-5.867 1.5718-9.3518 7.5979-7.7797 13.464.76723 2.8629 2.614 5.1431 4.9678 6.5602.40289.23660.68346.19077.84359-.062478.1379-.2397.1101-.5030-.1876-.6879-4.1764-2.8751-5.5453-8.7981-2.562-13.027 1.1075-1.57 2.7024-2.6888 4.4679-3.2176 2.2699-.67983 4.7968-.39570 6.8424 1.0934 3.0026 2.1857 3.9696 6.58 1.6559 9.6216-.33060.43460-.72802.80270-1.156 1.1246l-3.2494-3.2488v9.9964h9.998l-3.2181-3.2176c2.6785-2.6871 3.8959-6.693 2.8432-10.621-1.2773-4.7662-5.5008-7.9671-10.186-8.1534-.27027-.01075-.54005-.01011-.81234 0z"/>
	</g>
	<g id="software-updates-additional" transform="translate(78.003 28.009)">
		<rect id="rect3351" style="opacity:.125;fill:none" height="22" width="22" y="-27" x=".99723"/>
		<path id="path3355" style="fill:#01b4ff" d="m11.623-26.992c-.81687.03031-1.6432.15383-2.4683.37487-5.867 1.5718-9.3518 7.5979-7.7797 13.464.76723 2.8629 2.614 5.1431 4.9678 6.5602.40289.23660.68346.19077.84359-.062478.1379-.2397.1101-.5030-.1876-.6879-4.1764-2.8751-5.5453-8.7981-2.562-13.027 1.1075-1.57 2.7024-2.6888 4.4679-3.2176 2.2699-.67983 4.7968-.39570 6.8424 1.0934 3.0026 2.1857 3.9696 6.58 1.6559 9.6216-.33060.43460-.72802.80270-1.156 1.1246l-3.2494-3.2488v9.9964h9.998l-3.2181-3.2176c2.6785-2.6871 3.8959-6.693 2.8432-10.621-1.2773-4.7662-5.5008-7.9671-10.186-8.1534-.27027-.01075-.54005-.01011-.81234 0z"/>
	</g>
</svg>
