<?xml version="1.0" encoding="UTF-8" standalone="no"?>
<svg id="svg5048" xmlns:rdf="http://www.w3.org/1999/02/22-rdf-syntax-ns#" xmlns="http://www.w3.org/2000/svg" height="32" width="32" version="1.1" xmlns:cc="http://creativecommons.org/ns#" xmlns:dc="http://purl.org/dc/elements/1.1/">
	<defs id="defs5050">
		<style id="current-color-scheme" type="text/css">.ColorScheme-Text {
		  color:#0000FF;
		  }
		  .ColorScheme-Background{
		  color:#E9E8E8;
		  }</style>
	</defs>
	<metadata id="metadata5053">
		<rdf:RDF>
			<cc:Work rdf:about="">
				<dc:format>image/svg+xml</dc:format>
				<dc:type rdf:resource="http://purl.org/dc/dcmitype/StillImage"/>
				<dc:title/>
			</cc:Work>
		</rdf:RDF>
	</metadata>
	<g id="system-log-out" transform="translate(-64,-26)">
		<rect id="rect4157" style="fill:none" height="32" width="32" y="26" x="0"/>
		<path id="path4186" style="opacity:.875;fill:currentColor" d="m8 25c-1.108 0-2 .892-2 2v22c0 1.108.892 2 2 2h16c1.108 0 2-.892 2-2v-22c0-1.108-.892-2-2-2zm0 2h16l-12 3v16l10 2.5342 2 .466h-16zm7.5 10c.828 0 1.5.672 1.5 1.5s-.672 1.5-1.5 1.5-1.5-.672-1.5-1.5.672-1.5 1.5-1.5z" transform="translate(0,4)" class="ColorScheme-Text"/>
	</g>
	<g id="system-reboot" transform="translate(-32,-26)">
		<rect id="rect4208" style="fill:none" height="32" width="32" y="26" x="0"/>
		<path id="path4239" class="ColorScheme-Text" style="opacity:.875;fill:currentColor" d="m16 29 9 9h-5v6h-2a1 1 0 0 1 -1 -1v-2c0-1.6569-1.3431-3-3-3h-7l9-9zm-2 11c.55228 0 1 .44772 1 1v2c0 1.6569 1.3431 3 3 3h7l-9 9-9-9h5v-6h2z"/>
	</g>
	<g id="system-shutdown" transform="translate(0,-26)">
		<rect id="rect4297" style="fill:none" height="32" width="32" y="26" x="0"/>
		<path id="rect4309" class="ColorScheme-Text" style="opacity:.875;color-rendering:auto;text-decoration-color:#000000;block-progression:tb;isolation:auto;mix-blend-mode:normal;shape-rendering:auto;solid-color:#000000;text-decoration-line:none;image-rendering:auto;white-space:normal;text-indent:0;text-transform:none;text-decoration-style:solid;fill:currentColor" d="m16 29c-1.0907 0-2 .9093-2 2v9c0 1.0907.9093 2 2 2s2-.9093 2-2v-9c0-1.0907-.9093-2-2-2z"/>
		<path id="path4314" style="opacity:.875;color-rendering:auto;text-decoration-color:#000000;block-progression:tb;isolation:auto;mix-blend-mode:normal;shape-rendering:auto;solid-color:#000000;text-decoration-line:none;image-rendering:auto;white-space:normal;text-indent:0;text-transform:none;text-decoration-style:solid;fill:currentColor" d="m92 27.764c-4.091 1.605-7 5.584-7 10.236 0 6.0633 4.9367 11 11 11s11-4.9367 11-11c0-4.6516-2.9093-8.6312-7-10.236v2.1777c2.9643 1.4699 5 4.5164 5 8.0586 0 4.9824-4.0176 9-9 9s-9-4.0176-9-9c0-3.5422 2.0357-6.5887 5-8.0586v-2.1777z" transform="translate(-80,4)" class="ColorScheme-Text"/>
	</g>
	<g id="system-switch-user" transform="translate(-72,-22)">
		<rect id="rect3366" style="opacity:.125;fill:none" height="32" width="32" y="22" x="104"/>
		<path id="rect4189" style="opacity:.875;fill:currentColor" d="m120 25-13 5v16l.77734.29883c0-1.7884.37557-3.4199 1.0762-4.5918.74679-1.2492 1.8428-1.9402 3.0996-1.8496 1.3928.10044 2.8768 1.1506 4.0801 3.0254 1.3089 2.0393 2.0957 4.7521 2.0957 7.3984l1.87.719v-26zm-7.5 5.502c.54423.02036 1.0694.30824 1.5.84961.59888.75294.94727 1.9105.94727 3.1934s-.34839 2.525-.94727 3.4219c-.57415.85985-1.3152 1.3067-2.0469 1.2715-.69232-.03328-1.3231-.49718-1.7676-1.2676-.42862-.74286-.66211-1.7326-.66211-2.7734s.23349-2.0877.66211-2.9336c.4445-.87725 1.0753-1.4917 1.7676-1.6914.18292-.05276.36547-.0771.54688-.07031zm15 0c-.54423.02036-1.0694.30824-1.5.84961-.59888.75294-.94727 1.9105-.94727 3.1934s.34839 2.525.94727 3.4219c.57415.85985 1.3152 1.3067 2.0469 1.2715.69233-.03328 1.3231-.49718 1.7676-1.2676.42862-.74286.66211-1.7326.66211-2.7734s-.23349-2.0877-.66211-2.9336c-.4445-.87725-1.0752-1.4917-1.7676-1.6914-.18292-.05276-.36547-.0771-.54688-.07031zm.54688 9.3555c-1.3927.10044-2.8768 1.1506-4.0801 3.0254-1.3089 2.0393-2.0957 4.7521-2.0957 7.3984l10.352-3.9824c0-1.7884-.37557-3.4199-1.0762-4.5918-.74679-1.2492-1.8428-1.9402-3.0996-1.8496z" class="ColorScheme-Text"/>
	</g>
	<g id="system-lock-screen" transform="translate(-8)">
		<rect id="rect3356" style="fill:none" height="32" width="32" y="-32" x="-56"/>
		<path class="ColorScheme-Text" id="rect4158" d="m-40-29c-4.432 0-8 3.568-8 8v16.938c0 .5881.474 1.062 1.062 1.062h13.875c.589 0 1.063-.4739 1.063-1.0625v-16.938c0-4.432-3.568-8-8-8zm0 2c3.324 0 6 2.676 6 6v5h-12v-5c0-3.324 2.676-6 6-6zm0 16c.55228 0 1 .44772 1 1-.000528.36875-.20395.70729-.52930.88086l.529 2.1191h-2l.52930-2.1191c-.325-.1736-.528-.5121-.529-.8809 0-.55228.44772-1 1-1z" style="opacity:.875;fill:currentColor"/>
	</g>
	<g id="system-suspend" transform="translate(24)">
		<rect id="rect4205" style="fill:none" height="32" width="32" y="-32" x="-56"/>
		<circle class="ColorScheme-Text" id="path4209" r="3" style="opacity:.875;fill:currentColor" cx="-48" cy="-16"/>
		<circle class="ColorScheme-Text" id="circle4211" cx="-40" cy="-16" r="3" style="opacity:.875;fill:currentColor"/>
		<circle class="ColorScheme-Text" id="circle4213" r="3" style="opacity:.875;fill:currentColor" cx="-32" cy="-16"/>
	</g>
	<g id="system-suspend-hibernate" transform="translate(56)">
		<rect id="rect4219" style="fill:none" height="32" width="32" y="-32" x="-56"/>
		<path class="ColorScheme-Text" id="path4258" style="opacity:.875;stroke-linejoin:round;stroke-dashoffset:1;stroke:currentColor;stroke-linecap:round;stroke-width:2;fill:none" d="m-46.913-8.9944.00021-2.9996-2.5979-1.4996m16.429-9.4797-.00021 2.9996 2.5979 1.4996m-19.024-.0042 2.5979-1.4996-.00021-2.9996m16.424 9.4882-2.5979 1.4996.00021 2.9996m-9.5085-16.478 2.5977 1.5 2.5977-1.5m-.006 18.968-2.598-1.5-2.598 1.5m-7.402-15.5l20 12m-10 6v-24m10 6-20 12"/>
	</g>
</svg>
