<?xml version="1.0" encoding="UTF-8" standalone="no"?>
<svg id="svg5048" xmlns:rdf="http://www.w3.org/1999/02/22-rdf-syntax-ns#" xmlns="http://www.w3.org/2000/svg" height="32" width="32" version="1.1" xmlns:cc="http://creativecommons.org/ns#" xmlns:dc="http://purl.org/dc/elements/1.1/">
	<defs id="defs5050">
		<style id="current-color-scheme" type="text/css">
			.ColorScheme-Text {
			color:#0000FF;
			}
			.ColorScheme-Background{
			color:#E9E8E8;
			}
			.ColorScheme-ViewText {
			color:#31363b;
			}
			.ColorScheme-ViewBackground{
			color:#ffffff;
			}
			.ColorScheme-ViewHover {
			color:#000000;
			}
			.ColorScheme-ViewFocus{
			color:#5a5a5a;
			}
			.ColorScheme-ButtonText {
			color:#31363b;
			}
			.ColorScheme-ButtonBackground{
			color:#E9E8E8;
			}
			.ColorScheme-ButtonHover {
			color:#1489ff;
			}
			.ColorScheme-ButtonFocus{
			color:#2B74C7;
			}
		</style>
	</defs>
	<metadata id="metadata5053">
		<rdf:RDF>
			<cc:Work rdf:about="">
				<dc:format>image/svg+xml</dc:format>
				<dc:type rdf:resource="http://purl.org/dc/dcmitype/StillImage"/>
				<dc:title/>
			</cc:Work>
		</rdf:RDF>
	</metadata>
	<g id="system-log-out" transform="translate(-64,-26)">
		<rect id="rect4157" style="fill:none" height="32" width="32" y="26" x="0"/>
		<path id="path4186" d="m8 25c-1.108 0-2 .892-2 2v22c0 1.108.892 2 2 2h16c1.108 0 2-.892 2-2v-22c0-1.108-.892-2-2-2zm0 2h16l-12 3v16l10 2.5342 2 .466h-16zm7.5 10c.828 0 1.5.672 1.5 1.5s-.672 1.5-1.5 1.5-1.5-.672-1.5-1.5.672-1.5 1.5-1.5z" style="opacity:.875;fill:currentColor" class="ColorScheme-Text" transform="translate(0,4)"/>
	</g>
	<g id="system-reboot" transform="translate(-32,-26)">
		<rect id="rect4208" style="fill:none" height="32" width="32" y="26" x="0"/>
		<path id="path4239" style="opacity:.875;fill:currentColor" d="m16 29 9 9h-5v6h-2a1 1 0 0 1 -1 -1v-2c0-1.6569-1.3431-3-3-3h-7l9-9zm-2 11c.55228 0 1 .44772 1 1v2c0 1.6569 1.3431 3 3 3h7l-9 9-9-9h5v-6h2z" class="ColorScheme-Text"/>
	</g>
	<g id="system-shutdown" transform="translate(0,-26)">
		<rect id="rect4297" style="fill:none" height="32" width="32" y="26" x="0"/>
		<path id="rect4309" style="opacity:.875;fill:currentColor" d="m16 29c-1.0907 0-2 .9093-2 2v9c0 1.0907.9093 2 2 2s2-.9093 2-2v-9c0-1.0907-.9093-2-2-2z" class="ColorScheme-Text"/>
		<path id="path4314" d="m92 27.764c-4.091 1.605-7 5.584-7 10.236 0 6.0633 4.9367 11 11 11s11-4.9367 11-11c0-4.6516-2.9093-8.6312-7-10.236v2.1777c2.9643 1.4699 5 4.5164 5 8.0586 0 4.9824-4.0176 9-9 9s-9-4.0176-9-9c0-3.5422 2.0357-6.5887 5-8.0586v-2.1777z" style="opacity:.875;fill:currentColor" class="ColorScheme-Text" transform="translate(-80,4)"/>
	</g>
	<g id="system-switch-user" transform="translate(-72,-22)">
		<rect id="rect3366" style="opacity:.125;fill:none" height="32" width="32" y="22" x="104"/>
		<path id="rect4189" style="opacity:.875;fill:currentColor" class="ColorScheme-Text" d="m120 25-13 5v16l.77734.29883c0-1.7884.37557-3.4199 1.0762-4.5918.74679-1.2492 1.8428-1.9402 3.0996-1.8496 1.3928.10044 2.8768 1.1506 4.0801 3.0254 1.3089 2.0393 2.0957 4.7521 2.0957 7.3984l1.87.719v-26zm-7.5 5.502c.54423.02036 1.0694.30824 1.5.84961.59888.75294.94727 1.9105.94727 3.1934s-.34839 2.525-.94727 3.4219c-.57415.85985-1.3152 1.3067-2.0469 1.2715-.69232-.03328-1.3231-.49718-1.7676-1.2676-.42862-.74286-.66211-1.7326-.66211-2.7734s.23349-2.0877.66211-2.9336c.4445-.87725 1.0753-1.4917 1.7676-1.6914.18292-.05276.36547-.0771.54688-.07031zm15 0c-.54423.02036-1.0694.30824-1.5.84961-.59888.75294-.94727 1.9105-.94727 3.1934s.34839 2.525.94727 3.4219c.57415.85985 1.3152 1.3067 2.0469 1.2715.69233-.03328 1.3231-.49718 1.7676-1.2676.42862-.74286.66211-1.7326.66211-2.7734s-.23349-2.0877-.66211-2.9336c-.4445-.87725-1.0752-1.4917-1.7676-1.6914-.18292-.05276-.36547-.0771-.54688-.07031zm.54688 9.3555c-1.3927.10044-2.8768 1.1506-4.0801 3.0254-1.3089 2.0393-2.0957 4.7521-2.0957 7.3984l10.352-3.9824c0-1.7884-.37557-3.4199-1.0762-4.5918-.74679-1.2492-1.8428-1.9402-3.0996-1.8496z"/>
	</g>
	<g id="system-lock-screen" transform="translate(-104,32)">
		<rect id="rect3356" style="fill:none" height="32" width="32" y="-32" x="-56"/>
		<path id="rect4158" class="ColorScheme-Text" style="opacity:.875;fill:currentColor" d="m-40-29c-4.432 0-8 3.568-8 8v16.938c0 .5881.474 1.062 1.062 1.062h13.875c.589 0 1.063-.4739 1.063-1.0625v-16.938c0-4.432-3.568-8-8-8zm0 2c3.324 0 6 2.676 6 6v5h-12v-5c0-3.324 2.676-6 6-6zm0 16c.55228 0 1 .44772 1 1-.000528.36875-.20395.70729-.5293.88086l.529 2.1191h-2l.5293-2.1191c-.325-.1736-.528-.5121-.529-.8809 0-.55228.44772-1 1-1z"/>
	</g>
	<g id="system-suspend" transform="translate(-72,32)">
		<rect id="rect4205" style="fill:none" height="32" width="32" y="-32" x="-56"/>
		<circle id="path4209" style="opacity:.875;fill:currentColor" cy="-16" cx="-48" r="3" class="ColorScheme-Text"/>
		<circle id="circle4211" style="opacity:.875;fill:currentColor" cy="-16" cx="-40" r="3" class="ColorScheme-Text"/>
		<circle id="circle4213" style="opacity:.875;fill:currentColor" cy="-16" cx="-32" r="3" class="ColorScheme-Text"/>
	</g>
	<g id="system-suspend-hibernate" transform="translate(-40,32)">
		<rect id="rect4219" style="fill:none" height="32" width="32" y="-32" x="-56"/>
		<path id="path4258" class="ColorScheme-Text" style="opacity:.875;stroke-linejoin:round;stroke-dashoffset:1;stroke:currentColor;stroke-linecap:round;stroke-width:2;fill:none" d="m-46.913-8.9944.00021-2.9996-2.5979-1.4996m16.429-9.4797-.00021 2.9996 2.5979 1.4996m-19.024-.0042 2.5979-1.4996-.00021-2.9996m16.424 9.4882-2.5979 1.4996.00021 2.9996m-9.5085-16.478 2.5977 1.5 2.5977-1.5m-.006 18.968-2.598-1.5-2.598 1.5m-7.402-15.5 20 12m-10 6v-24m10 6-20 12"/>
	</g>
	<g id="16-16-system-log-out">
		<rect id="rect3360" style="fill:none" height="16" width="16" y="-16" x="-56"/>
		<path id="rect4174" class="ColorScheme-Text" style="opacity:.875;fill:currentColor" d="m-53-16c-.554 0-1 .446-1 1v14c0 .554.446 1 1 1h10c.554 0 1-.446 1-1v-14c0-.554-.446-1-1-1h-10zm0 1h10l-8 2v10l8 2h-10v-14zm4 6a1 1 0 0 1 1 1 1 1 0 0 1 -1 1 1 1 0 0 1 -1 -1 1 1 0 0 1 1 -1z"/>
	</g>
	<g id="16-16-system-suspend">
		<rect id="rect4164" style="fill:none" height="16" width="16" y="-16" x="-120"/>
		<circle id="path4185" class="ColorScheme-Text" r="1" style="opacity:.875;fill:currentColor" cx="-116" cy="-8"/>
		<circle id="circle4187" class="ColorScheme-Text" cx="-112" cy="-8" r="1" style="opacity:.875;fill:currentColor"/>
		<circle id="circle4189" class="ColorScheme-Text" r="1" style="opacity:.875;fill:currentColor" cx="-108" cy="-8"/>
	</g>
	<g id="16-16-system-lock-screen">
		<rect id="rect4166" style="fill:none" height="16" width="16" y="-16" x="-152"/>
		<path id="rect4191" class="ColorScheme-Text" style="opacity:.875;fill:currentColor" d="m-144-16c-3.324 0-6 2.676-6 6v2 2 5c0 .554.446 1 1 1h10c.554 0 1-.446 1-1v-5-2-2c0-3.324-2.676-6-6-6zm0 1c2.7614 0 5 2.2386 5 5v2h-10v-2c0-2.7614 2.2386-5 5-5zm0 9c.55228 0 1 .44772 1 1-.00053.36875-.20395.70729-.5293.88086l.53 2.1191h-2l.5293-2.1191c-.33-.1736-.53-.5121-.53-.8809 0-.55228.44772-1 1-1z"/>
	</g>
	<g id="16-16-system-shutdown">
		<rect id="rect4170" style="fill:none" height="16" width="16" y="-16" x="8"/>
		<rect id="rect4221" class="ColorScheme-Text" style="opacity:.875;fill:currentColor" ry="1" height="7" width="2" y="-16" x="15"/>
		<path id="path4223" class="ColorScheme-Text" style="opacity:.875;fill:currentColor" d="m14-14.705a7 7 0 0 0 -5 6.705 7 7 0 0 0 7 7 7 7 0 0 0 7 -7 7 7 0 0 0 -5 -6.7012v1.0527a6 6 0 0 1 4 5.648 6 6 0 0 1 -6 6 6 6 0 0 1 -6 -6 6 6 0 0 1 4 -5.6504v-1.0547z"/>
	</g>
	<g id="16-16-system-reboot">
		<rect id="rect4172" style="fill:none" height="16" width="16" y="-16" x="-24"/>
		<path id="path4233" class="ColorScheme-Text" style="opacity:.875;fill:currentColor" d="m-16-16-5 5h3a3 3 0 0 1 3 3c0 .554.446 1 1 1h1v-4h2l-5-5z"/>
		<path id="path4252" class="ColorScheme-Text" style="opacity:.875;fill:currentColor" d="m-16 0 5-5h-3a3 3 0 0 1 -3 -3c0-.554-.446-1-1-1h-1v4h-2l5 5z"/>
	</g>
	<g id="16-16-system-suspend-hibernate">
		<rect id="rect4162" style="fill:none" height="16" width="16" y="-16" x="-88"/>
		<path id="path4256" class="ColorScheme-Text" style="fill:currentColor;opacity:.875" d="m-80.016-15.986a1.0001 .99835 0 0 0 -.984 1.012v.93976l-.77734-.38799a.50005 .49918 0 0 0 -.24023 -.05654 .50005 .49918 0 0 0 -.20508 .94951l1.222.610v3.3184l-3.0078-1.5032-.01563-1.3005a.50005 .49918 0 0 0 -.51367 -.50108 .50005 .49918 0 0 0 -.48633 .51277l.0098.78768-.53906-.26906a1.0001 .99837 0 1 0 -.89453 1.7859l.62109 0.31-.75.57516a.50005 .49918 0 1 0 .60938 .79158l1.1348-.86957 2.5957 1.2946-2.5957 1.2946-1.1348-.86957a.50005 .49918 0 0 0 -.32422 -.10723 .50005 .49918 0 0 0 -.28516 .89882l.75.57516-.62109 0.31a1.0001 .99835 0 0 0 -.08594 .050692 1.0001 .99835 0 0 0 -.08203 .058491 1.0001 .99835 0 0 0 -.14062 .14038 1.0001 .99835 0 0 0 -.06055 .079938 1.0001 .99835 0 0 0 -.0957 .17547 1.0001 .99835 0 0 0 -.0332 .093586 1.0001 .99835 0 0 0 -.04297 .29441 1.0001 .99835 0 0 0 .0059 .099435 1.0001 .99835 0 0 0 .01563 .099435 1.0001 .99835 0 0 0 .02539 .097485 1.0001 .99835 0 0 0 .13281 .26711 1.0001 .99835 0 0 0 .12891 .15208 1.0001 .99835 0 0 0 .07617 .06434 1.0001 .99835 0 0 0 .08203 .058491 1.0001 .99835 0 0 0 .27344 .11893 1.0001 .99835 0 0 0 .09766 .021447 1.0001 .99835 0 0 0 .19922 .011698 1.0001 .99835 0 0 0 .29297 -.054592 1.0001 .99835 0 0 0 .09375 -.037044 1.0001 .99835 0 0 0 .01172 -.00585l.53906-.26906-.0098.78768a.50005 .49918 0 1 0 1 .011698l.01563-1.3005 3.007-1.5038v3.3184l-1.2227.61026a.50005 .49918 0 1 0 .44531 .89297l.778-.3881v.93976a1.0001 .99835 0 1 0 2 0v-.93976l.77734.38799a.50005 .49918 0 1 0 .44531 -.89297l-1.222-.6102v-3.3184l3.0078 1.5032.01563 1.3005a.50005 .49918 0 1 0 1 -.011698l-.0098-.78768.53906.26906a1.0001 .99837 0 1 0 .89453 -1.7859l-.62109-0.31.75-.57516a.50005 .49918 0 0 0 -.29883 -.89882 .50005 .49918 0 0 0 -.31055 .10723l-1.1348.86957-2.5957-1.2946 2.5957-1.2946 1.1348.86957a.50005 .49918 0 1 0 .60938 -.79158l-.75-.57516.62109-0.31a1.0001 .99835 0 0 0 .24219 -.17547 1.0001 .99835 0 0 0 .06641 -.07409 1.0001 .99835 0 0 0 .11328 -.16378 1.0001 .99835 0 0 0 .09961 -.28271 1.0001 .99835 0 0 0 .01953 -.19692 1.0001 .99835 0 0 0 -.04687 -.29636 1.0001 .99835 0 0 0 -.08008 -.18132 1.0001 .99835 0 0 0 -.33984 -.36070 1.0001 .99835 0 0 0 -.08594 -.04874 1.0001 .99835 0 0 0 -.0918 -.03899 1.0001 .99835 0 0 0 -.0957 -.0312 1.0001 .99835 0 0 0 -.39648 -.02535 1.0001 .99835 0 0 0 -.19336 .04679 1.0001 .99835 0 0 0 -.09375 .03704 1.0001 .99835 0 0 0 -.01172 .0059l-.53906.26906.0098-.78768a.50005 .49918 0 0 0 -.50195 -.51277 .50005 .49918 0 0 0 -.49805 .50108l-.01563 1.3005-3.007 1.5037v-3.3184l1.2227-.61026a.50005 .49918 0 1 0 -.44531 -.89297l-.778.388v-.93976a1.0001 .99835 0 0 0 -1.0156 -1.0119z"/>
	</g>
	<g id="16-16-system-switch-user">
		<rect id="rect4168" style="fill:none" height="16" width="16" y="-16" x="40"/>
		<path id="rect4284" class="ColorScheme-Text" style="opacity:.875;fill:currentColor" d="m48-16-7 4v8l.48828.27930c-.01445-.18457-.021-.36782-.02148-.54688 0-.84869.16096-1.6167.46484-2.1699.32910-.59909.82198-.93794 1.4023-.89648.66278.047342 1.393.58396 2.0039 1.5664.68469 1.1011 1.1074 2.5757 1.1074 3.9902-.000461.29767-.02172.58449-.06055.85547l1.616.9219v-16zm-4.4258 3.9395c.23936-.01965.47156.08403.66406.31445.27023.32345.42774.85473.42774 1.4609 0 .60621-.15751 1.2033-.42774 1.6426-.256.4167-.584.6420-.904.6420-.29949 0-.56905-.19871-.75781-.53906-.18080-0.326-.27930-.76679-.27930-1.2383 0-.47150.09849-.95589.27930-1.3594.18876-.42125.45832-.73493.75781-.86328.08001-.03429.16045-.054.24024-.06055zm8.8516 0c-.23936-.01965-.47156.08403-.66406.31445-.27022.32345-.42774.85473-.42774 1.4609 0 .60621.15751 1.2033.42774 1.6426.256.4167.584.6420.904.6420.29949 0 .56905-.19871.75781-.53906.18080-0.326.27930-.76679.27930-1.2383 0-.47150-.09849-.95589-.27930-1.3594-.189-.421-.458-.735-.758-.863-.08001-.03429-.16045-.054-.24024-.06055zm.24024 4.7266c-.66278.047342-1.393.58396-2.0039 1.5664-.68469 1.1011-1.1074 2.5757-1.1074 3.9902.000458.29699.02189.58309.06055.85352l4.8965-2.7969c.01445-.18457.02099-.36782.02148-.54688 0-.84869-.16096-1.6167-.46484-2.1699-.32910-.59909-.82198-.93794-1.4023-.89648z"/>
	</g>
</svg>
