<?xml version="1.0" encoding="UTF-8" standalone="no"?>
<svg id="svg3342" xmlns:rdf="http://www.w3.org/1999/02/22-rdf-syntax-ns#" xmlns="http://www.w3.org/2000/svg" height="22" width="22" version="1.1" xmlns:cc="http://creativecommons.org/ns#" xmlns:dc="http://purl.org/dc/elements/1.1/" viewBox="0 0 22 22">
    <defs id="defs3615">
        <style id="current-color-scheme" type="text/css">
            .ColorScheme-Text {
            color:#0000FF;
            }
            .ColorScheme-Background{
            color:#E9E8E8;
            }
            .ColorScheme-ViewText {
            color:#31363b;
            }
            .ColorScheme-ViewBackground{
            color:#ffffff;
            }
            .ColorScheme-ViewHover {
            }
            .ColorScheme-ViewFocus{
            color:#5a5a5a;
            }
            .ColorScheme-ButtonText {
            color:#31363b;
            }
            .ColorScheme-ButtonBackground{
            color:#E9E8E8;
            }
            .ColorScheme-ButtonHover {
            color:#1489ff;
            }
            .ColorScheme-ButtonFocus{
            color:#2B74C7;
            }
        </style>
    </defs>
	<metadata id="metadata3347">
		<rdf:RDF>
			<cc:Work rdf:about="">
				<dc:format>image/svg+xml</dc:format>
				<dc:type rdf:resource="http://purl.org/dc/dcmitype/StillImage"/>
				<dc:title/>
			</cc:Work>
		</rdf:RDF>
	</metadata>
	<g id="touchpad_enabled" transform="translate(-1,27)">
		<rect id="rect3393" style="opacity:.125;fill:none" height="22" width="22" y="-27" x="1"/>
		<path id="path4226" style="fill:currentColor;opacity:.875" class="ColorScheme-Text" d="m3-24c-.554 0-1 .446-1 1v9h20v-9c0-.554-.446-1-1-1h-18zm-1 12v3c0 .554.446 1 1 1h8v-4h-9zm11 0v4h8c.554 0 1-.446 1-1v-3h-9z"/>
	</g>
	<g id="touchpad_disabled" transform="translate(-1,27)">
		<rect id="rect4208" style="opacity:.125;fill:none" height="22" width="22" y="-27" x="24"/>
		<path id="path4224" style="fill:currentColor;opacity:.375" class="ColorScheme-Text" d="m26-24c-.554 0-1 .446-1 1v9h20v-9c0-.554-.446-1-1-1h-18zm-1 12v3c0 .554.446 1 1 1h8v-4h-9zm11 0v4h8c.554 0 1-.446 1-1v-3h-9z"/>
	</g>
</svg>
