<?xml version="1.0" encoding="UTF-8" standalone="no"?>
<svg id="svg4153" xmlns:rdf="http://www.w3.org/1999/02/22-rdf-syntax-ns#" xmlns="http://www.w3.org/2000/svg" height="22" viewBox="0 0 22 22" width="22" version="1.1" xmlns:cc="http://creativecommons.org/ns#" xmlns:dc="http://purl.org/dc/elements/1.1/">
	<metadata id="metadata4159">
		<rdf:RDF>
			<cc:Work rdf:about="">
				<dc:format>image/svg+xml</dc:format>
				<dc:type rdf:resource="http://purl.org/dc/dcmitype/StillImage"/>
				<dc:title/>
			</cc:Work>
		</rdf:RDF>
	</metadata>
	<defs id="defs4157">
		<style id="current-color-scheme" type="text/css">
			.ColorScheme-Text {
			color:#0000FF;
			}
			.ColorScheme-Background{
			color:#E9E8E8;
			}
			.ColorScheme-ViewText {
			
			}
			.ColorScheme-ViewBackground{
			color:#ffffff;
			}
			.ColorScheme-ViewHover {
			color:#000000;
			}
			.ColorScheme-ViewFocus{
			color:#5a5a5a;
			}
			.ColorScheme-ButtonText {
			
			}
			.ColorScheme-ButtonBackground{
			color:#E9E8E8;
			}
			.ColorScheme-ButtonHover {
			color:#1489ff;
			}
			.ColorScheme-ButtonFocus{
			color:#2B74C7;
			}
		</style>
	</defs>
	<g id="user-online" transform="translate(27,33)">
		<rect id="rect3895" style="opacity:.1;fill:none" height="22" width="22" y="-33" x="1"/>
		<path id="path3897" d="m12-33c-6.0751 0-11 4.9249-11 11 0 4 3 6 0 11 5-3 7 0 11 0 6.0751 0 11-4.9249 11-11s-4.9249-11-11-11zm5.9375 6.9688a1.0001 1.0001 0 0 1 .8125 1.6875l-7 8-.625.71875-.75-.59375-5-4a1.0005 1.0005 0 1 1 1.25 -1.5625l4.25 3.4062 6.375-7.2812a1.0001 1.0001 0 0 1 .562 -.343 1.0001 1.0001 0 0 1 .125 -.03125z" class="ColorScheme-Text" style="opacity:.875;fill:currentColor"/>
	</g>
	<g id="user-busy" transform="translate(55,33)">
		<rect id="rect3914" style="opacity:.1;fill:none" height="22" width="22" y="-33" x="1"/>
		<path id="path3918" style="opacity:.875;fill:currentColor" d="m40 59c-6.0751 0-11 4.9249-11 11 0 4 3 6 0 11 5-3 7 0 11 0 6.0751 0 11-4.9249 11-11s-4.9249-11-11-11zm-7 10h14c.554 0 1 .446 1 1s-.446 1-1 1h-14c-.554 0-1-.446-1-1s.446-1 1-1z" transform="translate(-28,-92)" class="ColorScheme-Text"/>
	</g>
	<g id="user-offline" transform="translate(83,33)">
		<rect id="rect3928" style="opacity:.1;fill:none" height="22" width="22" y="-33" x="1"/>
		<path id="path3932" style="opacity:.875;fill:currentColor" d="m68 59c-6.0751 0-11 4.9249-11 11 0 4 3 6 0 11 5-3 7 0 11 0 6.0751 0 11-4.9249 11-11s-4.9249-11-11-11zm4.9062 4.9688a1.0001 1.0001 0 0 1 .75 1.7812l-4.25 4.25 4.25 4.25a1.0001 1.0001 0 1 1 -1.406 1.406l-4.25-4.25-4.25 4.25a1.0001 1.0001 0 1 1 -1.406 -1.406l4.25-4.25-4.25-4.25a1.0001 1.0001 0 0 1 .59375 -1.7188 1.0001 1.0001 0 0 1 .8125 .3125l4.25 4.25 4.25-4.25a1.0001 1.0001 0 0 1 .65625 -.375z" transform="translate(-56,-92)" class="ColorScheme-Text"/>
	</g>
	<g id="user-invisible" transform="translate(111,33)">
		<rect id="rect3944" style="opacity:.1;fill:none" height="22" width="22" y="-33" x="1"/>
		<path id="path3948" style="opacity:.875;fill:currentColor" d="m68 59c-6.0751 0-11 4.9249-11 11 0 4 3 6 0 11 5-3 7 0 11 0 6.0751 0 11-4.9249 11-11s-4.9249-11-11-11z" transform="translate(-56,-92)" class="ColorScheme-Text"/>
	</g>
	<g id="user-away" transform="translate(139,33)">
		<rect id="rect3952" style="opacity:.1;fill:none" height="22" width="22" y="-33" x="1"/>
		<path id="path3956" style="opacity:.875;fill:currentColor" d="m124 59c-6.0751 0-11 4.9249-11 11 0 4 3 6 0 11 5-3 7 0 11 0 6.0751 0 11-4.9249 11-11s-4.9249-11-11-11zm-.0937 2.9688a1.0001 1.0001 0 0 1 1.09 1.031v6h6a1.0001 1.0001 0 1 1 0 2h-8v-8a1.0001 1.0001 0 0 1 .78125 -1 1.0001 1.0001 0 0 1 .125 -.03125z" transform="translate(-112,-92)" class="ColorScheme-Text"/>
	</g>
	<g id="user-away-extended" transform="translate(167,33)">
		<rect id="rect3960" style="opacity:.1;fill:none" height="22" width="22" y="-33" x="1"/>
		<path id="path3964" style="opacity:.875;fill:currentColor" d="m152 59c-6.0751 0-11 4.9249-11 11 0 4 3 6 0 11 5-3 7 0 11 0 6.0751 0 11-4.9249 11-11s-4.9249-11-11-11zm-.0937 2.9688a1.0001 1.0001 0 0 1 1.09 1.031v7.4062l-.28125.3125-4.9688 4.9375a1.0001 1.0001 0 1 1 -1.41 -1.406l4.66-4.688v-6.562a1.0001 1.0001 0 0 1 .78125 -1 1.0001 1.0001 0 0 1 .125 -.03125z" transform="translate(-140,-92)" class="ColorScheme-Text"/>
	</g>
	<g id="user-identity" transform="translate(-1,33)">
		<rect id="rect3437" style="opacity:.1;fill:none" height="22" width="22" y="-33" x="1"/>
		<path id="path3439" style="opacity:.875;fill:currentColor" d="m-17 0c-6.0751 0-11 4.9249-11 11 0 4 3 6 0 11 5-3 7 0 11 0 6.0751 0 11-4.9249 11-11s-4.925-11-11-11zm0 4c2.1973 0 4 1.8027 4 4s-1.8027 4-4 4c3.1621 0 5.8374 2.1068 6.7031 4.9902a9 9 0 0 1 -1.7285 1.502c-.249-2.543-2.358-4.492-4.974-4.492-2.6164 0-4.7257 1.9497-4.9746 4.4941a9 9 0 0 1 -1.7285 -1.5059c.867-2.882 3.543-4.988 6.704-4.988-2.1973 0-4-1.8027-4-4s1.8027-4 4-4zm0 2c-1.1164 0-2 .88359-2 2s.88359 2 2 2 2-.88359 2-2-.88359-2-2-2z" transform="translate(29,-33)" class="ColorScheme-Text"/>
	</g>
</svg>
