<?xml version="1.0" encoding="UTF-8" standalone="no"?>
<svg id="svg4153" xmlns:rdf="http://www.w3.org/1999/02/22-rdf-syntax-ns#" xmlns="http://www.w3.org/2000/svg" height="22" viewBox="0 0 22 22" width="22" version="1.1" xmlns:cc="http://creativecommons.org/ns#" xmlns:dc="http://purl.org/dc/elements/1.1/">
	<metadata id="metadata7">
		<rdf:RDF>
			<cc:Work rdf:about="">
				<dc:format>image/svg+xml</dc:format>
				<dc:type rdf:resource="http://purl.org/dc/dcmitype/StillImage"/>
				<dc:title/>
				<dc:creator>
					<cc:Agent>
						<dc:title>obnosim</dc:title>
					</cc:Agent>
				</dc:creator>
				<cc:license rdf:resource="http://creativecommons.org/licenses/by-sa/3.0/"/>
			</cc:Work>
			<cc:License rdf:about="http://creativecommons.org/licenses/by-sa/3.0/">
				<cc:permits rdf:resource="http://creativecommons.org/ns#Reproduction"/>
				<cc:permits rdf:resource="http://creativecommons.org/ns#Distribution"/>
				<cc:requires rdf:resource="http://creativecommons.org/ns#Notice"/>
				<cc:requires rdf:resource="http://creativecommons.org/ns#Attribution"/>
				<cc:permits rdf:resource="http://creativecommons.org/ns#DerivativeWorks"/>
				<cc:requires rdf:resource="http://creativecommons.org/ns#ShareAlike"/>
			</cc:License>
		</rdf:RDF>
	</metadata>
	<defs id="defs4157">
		<style id="current-color-scheme" type="text/css">.ColorScheme-Text { color:#0000FF; }</style>
	</defs>
	<path id="22-22-user-online" d="m39 0a11 11 0 0 0 -11 11 11 11 0 0 0 11 11 11 11 0 0 0 11 -11 11 11 0 0 0 -11 -11zm6.037 6.9648a1.0001 1.0001 0 0 1 .713 1.6914l-7 7.9998-.625.719-.75-.594-5-4a1.0005 1.0005 0 1 1 1.25 -1.562l4.25 3.406 6.375-7.2812a1.0001 1.0001 0 0 1 .562 -.3438 1.0001 1.0001 0 0 1 .126 -.0312 1.0001 1.0001 0 0 1 .099 -.0040z" style="opacity:.875;fill-rule:evenodd;fill:currentColor" class="ColorScheme-Text"/>
	<path id="22-22-user-busy" d="m67 0a11 11 0 0 0 -11 11 11 11 0 0 0 11 11 11 11 0 0 0 11 -11 11 11 0 0 0 -11 -11zm-7 10h14c.554 0 1 .446 1 1s-.446 1-1 1h-14c-.554 0-1-.446-1-1s.446-1 1-1z" style="opacity:.875;fill-rule:evenodd;fill:currentColor" class="ColorScheme-Text"/>
	<path id="22-22-user-offline" d="m95 0a11 11 0 0 0 -11 11 11 11 0 0 0 11 11 11 11 0 0 0 11 -11 11 11 0 0 0 -11 -11zm5.01 4.9609a1.0001 1.0001 0 0 1 .65 1.7891l-4.254 4.25 4.254 4.25a1.0001 1.0001 0 1 1 -1.41 1.406l-4.25-4.25-4.25 4.25a1.0001 1.0001 0 1 1 -1.406 -1.406l4.25-4.25-4.25-4.25a1.0001 1.0001 0 0 1 .594 -1.7188 1.0001 1.0001 0 0 1 .812 .3126l4.25 4.25 4.25-4.25a1.0001 1.0001 0 0 1 .656 -.375 1.0001 1.0001 0 0 1 .104 -.0079z" style="opacity:.875;fill-rule:evenodd;fill:currentColor" class="ColorScheme-Text"/>
	<circle id="22-22-user-invisible" style="opacity:.875;fill-rule:evenodd;fill:currentColor" cy="11" cx="123" r="11" class="ColorScheme-Text"/>
	<path id="22-22-user-away" d="m151 0a11 11 0 0 0 -11 11 11 11 0 0 0 11 11 11 11 0 0 0 11 -11 11 11 0 0 0 -11 -11zm.01 2.9648a1.0001 1.0001 0 0 1 .99 1.0352v6h6a1.0001 1.0001 0 1 1 0 2h-8v-8a1.0001 1.0001 0 0 1 .78 -1 1.0001 1.0001 0 0 1 .12 -.0312h.01a1.0001 1.0001 0 0 1 .1 -.004z" style="opacity:.875;fill-rule:evenodd;fill:currentColor" class="ColorScheme-Text"/>
	<path id="22-22-user-away-extended" d="m179 0a11 11 0 0 0 -11 11 11 11 0 0 0 11 11 11 11 0 0 0 11 -11 11 11 0 0 0 -11 -11zm.01 2.9648a1.0001 1.0001 0 0 1 .99 1.0352v7.406l-.29.313-4.96 4.937a1.0001 1.0001 0 1 1 -1.41 -1.406l4.66-4.688v-6.562a1.0001 1.0001 0 0 1 .78 -1 1.0001 1.0001 0 0 1 .12 -.0312h.01a1.0001 1.0001 0 0 1 .1 -.004z" style="opacity:.875;fill-rule:evenodd;fill:currentColor" class="ColorScheme-Text"/>
	<path id="22-22-user-identity" d="m11 0a11 11 0 0 0 -11 11 11 11 0 0 0 11 11 11 11 0 0 0 11 -11 11 11 0 0 0 -11 -11zm0 4h.002c2.196.0011 3.998 1.8034 3.998 4 0 2.197-1.802 3.999-3.998 4 3.161.0010 5.836 2.107 6.701 4.99a9 9 0 0 1 -1.728 1.502c-.249-2.543-2.359-4.492-4.975-4.492-2.6164 0-4.7257 1.95-4.9746 4.494a9 9 0 0 1 -1.7285 -1.506c.8668-2.881 3.543-4.987 6.7031-4.988-2.1964-.001-3.998-1.803-3.998-4 0-2.1966 1.8016-3.9989 3.998-4zm0 2c-1.1164 0-2 .8836-2 2s.8836 2 2 2c1.116 0 2-.8836 2-2s-.884-2-2-2z" style="opacity:.875;fill-rule:evenodd;fill:currentColor" class="ColorScheme-Text"/>
	<g id="user-offline">
		<rect style="fill:none" height="32" width="32" y="-34" x="120"/>
		<path class="ColorScheme-Text" style="opacity:.875;fill-rule:evenodd;fill:currentColor" d="m136-32a14 14 0 0 0 -14 14 14 14 0 0 0 14 14 14 14 0 0 0 14 -14 14 14 0 0 0 -14 -14zm5.98 6.986h.01a1.0001 1.0001 0 0 1 .72 1.721l-5.3 5.293 5.29 5.293a1.0001 1.0001 0 1 1 -1.41 1.414l-5.29-5.293-5.3 5.293a1.0001 1.0001 0 1 1 -1.41 -1.414l5.29-5.293-5.29-5.293a1.0001 1.0001 0 0 1 .69 -1.717 1.0001 1.0001 0 0 1 .72 .303l5.29 5.293 5.3-5.293a1.0001 1.0001 0 0 1 .69 -.307z"/>
	</g>
	<g id="user-busy">
		<rect style="fill:none" height="32" width="32" y="-34" x="80"/>
		<path class="ColorScheme-Text" style="opacity:.875;fill-rule:evenodd;fill:currentColor" d="m96-32a14 14 0 0 0 -14 14 14 14 0 0 0 14 14 14 14 0 0 0 14 -14 14 14 0 0 0 -14 -14zm-8.045 13h16.085c.53 0 .96.426.96.955v.090c0 .529-.43.955-.96.955h-16.091c-.524 0-.949-.426-.949-.955v-.090c0-.529.426-.955.955-.955z"/>
	</g>
	<g id="user-invisible">
		<rect style="fill:none" height="32" width="32" y="-34" x="160"/>
		<circle class="ColorScheme-Text" cy="-18" style="opacity:.875;fill-rule:evenodd;fill:currentColor" cx="176" r="14"/>
	</g>
	<g id="user-away-extended">
		<rect style="fill:none" height="32" width="32" y="-34" x="240"/>
		<path class="ColorScheme-Text" style="opacity:.875;fill-rule:evenodd;fill:currentColor" d="m256-32a14 14 0 0 0 -14 14 14 14 0 0 0 14 14 14 14 0 0 0 14 -14 14 14 0 0 0 -14 -14zm-.02 3.986c.57-.011 1.03.448 1.02 1.014v9.414l-6.29 6.293c-.94.979-2.39-.471-1.41-1.414l5.7-5.707v-8.586c-.01-.552.43-1.005.98-1.014z"/>
	</g>
	<g id="user-away">
		<rect style="fill:none" height="32" width="32" y="-34" x="200"/>
		<path class="ColorScheme-Text" style="opacity:.875;fill-rule:evenodd;fill:currentColor" d="m216-32a14 14 0 0 0 -14 14 14 14 0 0 0 14 14 14 14 0 0 0 14 -14 14 14 0 0 0 -14 -14zm-.02 3.986h.01c.56-.009 1.02.450 1.01 1.014v8h8c1.36-.019 1.36 2.019 0 2h-10v-10c0-.550.43-1.003.98-1.014z"/>
	</g>
	<g id="user-online">
		<rect style="fill:none" height="32" width="32" y="-34" x="40"/>
		<path class="ColorScheme-Text" style="opacity:.875;fill-rule:evenodd;fill:currentColor" d="m56-32a14 14 0 0 0 -14 14 14 14 0 0 0 14 14 14 14 0 0 0 14 -14 14 14 0 0 0 -14 -14zm7.027 8.99c.865.015 1.305 1.046.717 1.68l-9.644 10.715-6.741-5.617c-1.071-.850.254-2.437 1.282-1.536l5.259 4.383 8.356-9.285c.194-.221.477-.346.771-.340z"/>
	</g>
	<g id="user-identity">
		<rect style="fill:none" height="32" width="32" y="-34" x="0"/>
		<path class="ColorScheme-Text" style="opacity:.875;fill-rule:evenodd;fill:currentColor" d="m16-32a14 14 0 0 0 -14 14 14 14 0 0 0 14 14 14 14 0 0 0 14 -14 14 14 0 0 0 -14 -14zm0 5a5 5 0 0 1 5 5 5 5 0 0 1 -5 5 9 9 0 0 1 8.475 6.006 11 11 0 0 1 -1.623 1.5995 7 7 0 0 0 -6.852 -5.6055 7 7 0 0 0 -6.8555 5.5879 11 11 0 0 1 -1.6191 -1.5879 9 9 0 0 1 8.4746 -6 5 5 0 0 1 -5 -5 5 5 0 0 1 5 -5zm0 2a3 3 0 0 0 -3 3 3 3 0 0 0 3 3 3 3 0 0 0 3 -3 3 3 0 0 0 -3 -3z"/>
	</g>
	<g id="48-48-user-offline" transform="matrix(1.5,0,0,1.5,-12,-35)">
		<rect style="fill:none" height="32" width="32" y="-34" x="120"/>
		<path class="ColorScheme-Text" style="opacity:.875;fill-rule:evenodd;fill:currentColor" transform="matrix(.66667 0 0 .66667 8 23.333)" d="m192-83c-11.598 0-21 9.402-21 21s9.402 21 21 21 21-9.402 21-21-9.402-21-21-21zm9.0527 10.961a1.0001 1.0001 0 0 1 .65235 1.7441l-8.29 8.295 8.293 8.2949a1.0001 1.0001 0 1 1 -1.4102 1.4102l-8.29-8.293-8.2949 8.293a1.0001 1.0001 0 1 1 -1.4102 -1.4102l8.29-8.295-8.293-8.2949a1.0001 1.0001 0 0 1 .69336 -1.7148 1.0001 1.0001 0 0 1 .7168 .30469l8.2949 8.293 8.2949-8.293a1.0001 1.0001 0 0 1 .75781 -.33398z"/>
	</g>
	<g id="48-48-user-busy" transform="matrix(1.5,0,0,1.5,-8,-35)">
		<rect style="fill:none" height="32" width="32" y="-34" x="80"/>
		<path class="ColorScheme-Text" style="opacity:.875;fill-rule:evenodd;fill:currentColor" transform="matrix(.66667 0 0 .66667 5.3333 23.333)" d="m136-83c-11.598 0-21 9.402-21 21s9.402 21 21 21 21-9.402 21-21-9.402-21-21-21zm-12 20h24c.554 0 1 .446 1 1s-.446 1-1 1h-24c-.554 0-1-.446-1-1s.446-1 1-1z"/>
	</g>
	<g id="48-48-user-invisible" transform="matrix(1.5,0,0,1.5,-16,-35)">
		<rect style="fill:none" height="32" width="32" y="-34" x="160"/>
		<circle id="circle4306" class="ColorScheme-Text" cy="-18" cx="176" r="14" style="opacity:.875;fill-rule:evenodd;fill:currentColor"/>
	</g>
	<g id="48-48-user-away-extended" transform="matrix(1.5,0,0,1.5,-24,-35)">
		<rect style="fill:none" height="32" width="32" y="-34" x="240"/>
		<path class="ColorScheme-Text" style="opacity:.875;fill-rule:evenodd;fill:currentColor" transform="matrix(.66667 0 0 .66667 16 23.333)" d="m360-83c-11.598 0-21 9.402-21 21s9.402 21 21 21 21-9.402 21-21-9.402-21-21-21zm-.0156 5.9844a1.0001 1.0001 0 0 1 1.02 1.016v14.414l-9.2949 9.291a1.0001 1.0001 0 1 1 -1.4102 -1.4102l8.7-8.709v-13.586a1.0001 1.0001 0 0 1 .98438 -1.0156z"/>
	</g>
	<g id="48-48-user-away" transform="matrix(1.5,0,0,1.5,-20,-35)">
		<rect style="fill:none" height="32" width="32" y="-34" x="200"/>
		<path class="ColorScheme-Text" style="opacity:.875;fill-rule:evenodd;fill:currentColor" transform="matrix(.66667 0 0 .66667 13.333 23.333)" d="m304-83c-11.598 0-21 9.402-21 21s9.402 21 21 21 21-9.402 21-21-9.402-21-21-21zm-.0156 5.9844a1.0001 1.0001 0 0 1 1.02 1.016v13h13a1.0001 1.0001 0 1 1 0 2h-15v-15a1.0001 1.0001 0 0 1 .98438 -1.0156z"/>
	</g>
	<g id="48-48-user-online" transform="matrix(1.5,0,0,1.5,-4,-35)">
		<rect style="fill:none" height="32" width="32" y="-34" x="40"/>
		<path class="ColorScheme-Text" style="opacity:.875;fill-rule:evenodd;fill:currentColor" d="m80-83c-11.598 0-21 9.402-21 21s9.402 21 21 21 21-9.402 21-21-9.402-21-21-21zm11.01 13.99a1.0001 1.0001 0 0 1 .748 1.664l-13.625 15.717-9.746-7.582a1.0001 1.0001 0 1 1 1.228 -1.578l8.252 6.418 12.377-14.285a1.0001 1.0001 0 0 1 .766 -.354z" transform="matrix(.66667 0 0 .66667 2.6667 23.333)"/>
	</g>
	<g id="48-48-user-identity" transform="matrix(1.5,0,0,1.5,0,-35)">
		<rect style="fill:none" height="32" width="32" y="-34" x="0"/>
		<path d="m24-83c-11.598 0-21 9.402-21 21s9.402 21 21 21 21-9.402 21-21-9.402-21-21-21zm0 8a7 7 0 0 1 7 7 7 7 0 0 1 -7 7 13 13 0 0 1 12.391 9.1055 16 16 0 0 1 -1.623 1.7051 11 11 0 0 0 -10.768 -8.811 11 11 0 0 0 -10.777 8.799 16 16 0 0 1 -1.61 -1.686 13 13 0 0 1 12.387 -9.113 7 7 0 0 1 -7 -7 7 7 0 0 1 7 -7zm0 2a5 5 0 0 0 -5 5 5 5 0 0 0 5 5 5 5 0 0 0 5 -5 5 5 0 0 0 -5 -5z" style="opacity:.875;fill-rule:evenodd;fill:currentColor" transform="matrix(.66667 0 0 .66667 0 23.333)" class="ColorScheme-Text"/>
	</g>
</svg>
