<?xml version="1.0" encoding="UTF-8" standalone="no"?>
<svg id="svg4153" xmlns:rdf="http://www.w3.org/1999/02/22-rdf-syntax-ns#" xmlns="http://www.w3.org/2000/svg" height="22" viewBox="0 0 22 22" width="22" version="1.1" xmlns:cc="http://creativecommons.org/ns#" xmlns:dc="http://purl.org/dc/elements/1.1/">
	<metadata id="metadata4159">
		<rdf:RDF>
			<cc:Work rdf:about="">
				<dc:format>image/svg+xml</dc:format>
				<dc:type rdf:resource="http://purl.org/dc/dcmitype/StillImage"/>
				<dc:title/>
			</cc:Work>
		</rdf:RDF>
	</metadata>
	<defs id="defs4157">
		<style id="current-color-scheme" type="text/css">.ColorScheme-Text {
			color:#0000FF;
			}
			.ColorScheme-Background{
			color:#E9E8E8;
			}
			.ColorScheme-ViewText {
			}
			.ColorScheme-ViewBackground{
			color:#ffffff;
			}
			.ColorScheme-ViewHover {
			color:#000000;
			}
			.ColorScheme-ViewFocus{
			color:#5a5a5a;
			}
			.ColorScheme-ButtonText {
			}
			.ColorScheme-ButtonBackground{
			color:#E9E8E8;
			}
			.ColorScheme-ButtonHover {
			color:#1489ff;
			}
			.ColorScheme-ButtonFocus{
			color:#2B74C7;
			}</style>
	</defs>
	<g id="22-22-user-online" transform="translate(27,33)">
		<rect id="rect3895" style="fill:none" height="22" width="22" y="-33" x="1"/>
		<path id="path3897" class="ColorScheme-Text" style="opacity:.875;fill:currentColor" d="m12-33c-6.0751 0-11 4.9249-11 11 0 4 3 6 0 11 5-3 7 0 11 0 6.0751 0 11-4.9249 11-11s-4.9249-11-11-11zm5.9375 6.9688a1.0001 1.0001 0 0 1 .8125 1.6875l-7 8-.625.71875-.75-.59375-5-4a1.0005 1.0005 0 1 1 1.25 -1.5625l4.25 3.4062 6.375-7.2812a1.0001 1.0001 0 0 1 .562 -.343 1.0001 1.0001 0 0 1 .125 -.03125z"/>
	</g>
	<g id="22-22-user-busy" transform="translate(55,33)">
		<rect id="rect3914" style="fill:none" height="22" width="22" y="-33" x="1"/>
		<path id="path3918" style="opacity:.875;fill:currentColor" class="ColorScheme-Text" d="m40 59c-6.0751 0-11 4.9249-11 11 0 4 3 6 0 11 5-3 7 0 11 0 6.0751 0 11-4.9249 11-11s-4.9249-11-11-11zm-7 10h14c.554 0 1 .446 1 1s-.446 1-1 1h-14c-.554 0-1-.446-1-1s.446-1 1-1z" transform="translate(-28,-92)"/>
	</g>
	<g id="22-22-user-offline" transform="translate(83,33)">
		<rect id="rect3928" style="fill:none" height="22" width="22" y="-33" x="1"/>
		<path id="path3932" style="opacity:.875;fill:currentColor" class="ColorScheme-Text" d="m68 59c-6.0751 0-11 4.9249-11 11 0 4 3 6 0 11 5-3 7 0 11 0 6.0751 0 11-4.9249 11-11s-4.9249-11-11-11zm4.9062 4.9688a1.0001 1.0001 0 0 1 .75 1.7812l-4.25 4.25 4.25 4.25a1.0001 1.0001 0 1 1 -1.406 1.406l-4.25-4.25-4.25 4.25a1.0001 1.0001 0 1 1 -1.406 -1.406l4.25-4.25-4.25-4.25a1.0001 1.0001 0 0 1 .59375 -1.7188 1.0001 1.0001 0 0 1 .8125 .3125l4.25 4.25 4.25-4.25a1.0001 1.0001 0 0 1 .65625 -.375z" transform="translate(-56,-92)"/>
	</g>
	<g id="22-22-user-invisible" transform="translate(111,33)">
		<rect id="rect3944" style="fill:none" height="22" width="22" y="-33" x="1"/>
		<path id="path3948" style="opacity:.875;fill:currentColor" class="ColorScheme-Text" d="m68 59c-6.0751 0-11 4.9249-11 11 0 4 3 6 0 11 5-3 7 0 11 0 6.0751 0 11-4.9249 11-11s-4.9249-11-11-11z" transform="translate(-56,-92)"/>
	</g>
	<g id="22-22-user-away" transform="translate(139,33)">
		<rect id="rect3952" style="fill:none" height="22" width="22" y="-33" x="1"/>
		<path id="path3956" style="opacity:.875;fill:currentColor" class="ColorScheme-Text" d="m124 59c-6.0751 0-11 4.9249-11 11 0 4 3 6 0 11 5-3 7 0 11 0 6.0751 0 11-4.9249 11-11s-4.9249-11-11-11zm-.0937 2.9688a1.0001 1.0001 0 0 1 1.09 1.031v6h6a1.0001 1.0001 0 1 1 0 2h-8v-8a1.0001 1.0001 0 0 1 .78125 -1 1.0001 1.0001 0 0 1 .125 -.03125z" transform="translate(-112,-92)"/>
	</g>
	<g id="22-22-user-away-extended" transform="translate(167,33)">
		<rect id="rect3960" style="fill:none" height="22" width="22" y="-33" x="1"/>
		<path id="path3964" style="opacity:.875;fill:currentColor" class="ColorScheme-Text" d="m152 59c-6.0751 0-11 4.9249-11 11 0 4 3 6 0 11 5-3 7 0 11 0 6.0751 0 11-4.9249 11-11s-4.9249-11-11-11zm-.0937 2.9688a1.0001 1.0001 0 0 1 1.09 1.031v7.4062l-.28125.3125-4.9688 4.9375a1.0001 1.0001 0 1 1 -1.41 -1.406l4.66-4.688v-6.562a1.0001 1.0001 0 0 1 .78125 -1 1.0001 1.0001 0 0 1 .125 -.03125z" transform="translate(-140,-92)"/>
	</g>
	<g id="22-22-user-identity" transform="translate(-1,33)">
		<rect id="rect3437" style="fill:none" height="22" width="22" y="-33" x="1"/>
		<path id="path3439" style="opacity:.875;fill:currentColor" class="ColorScheme-Text" d="m-17 0c-6.0751 0-11 4.9249-11 11 0 4 3 6 0 11 5-3 7 0 11 0 6.0751 0 11-4.9249 11-11s-4.925-11-11-11zm0 4c2.1973 0 4 1.8027 4 4s-1.8027 4-4 4c3.1621 0 5.8374 2.1068 6.7031 4.9902a9 9 0 0 1 -1.7285 1.502c-.249-2.543-2.358-4.492-4.974-4.492-2.6164 0-4.7257 1.9497-4.9746 4.4941a9 9 0 0 1 -1.7285 -1.5059c.867-2.882 3.543-4.988 6.704-4.988-2.1973 0-4-1.8027-4-4s1.8027-4 4-4zm0 2c-1.1164 0-2 .88359-2 2s.88359 2 2 2 2-.88359 2-2-.88359-2-2-2z" transform="translate(29,-33)"/>
	</g>
	<g id="user-offline">
		<rect id="rect3369" style="fill:none" height="32" width="32" y="-34" x="120"/>
		<path id="path4331" d="m136-32c-7.732 0-14 6.268-14 14 0 3.866 4 10-1 15 5-5 11.134-1 15-1 7.732 0 14-6.268 14-14s-6.268-14-14-14zm5.9902 6.9863a1.0001 1.0001 0 0 1 .7168 1.7207l-5.3 5.293 5.293 5.293a1.0001 1.0001 0 1 1 -1.4141 1.4141l-5.29-5.293-5.293 5.293a1.0001 1.0001 0 1 1 -1.4141 -1.4141l5.29-5.293-5.293-5.293a1.0001 1.0001 0 0 1 .69726 -1.7168 1.0001 1.0001 0 0 1 .7168 .30274l5.293 5.293 5.293-5.293a1.0001 1.0001 0 0 1 .69726 -.30664z" style="opacity:.875;fill:currentColor" class="ColorScheme-Text"/>
	</g>
	<g id="user-busy">
		<rect id="rect3363" style="fill:none" height="32" width="32" y="-34" x="80"/>
		<rect id="rect4232" style="fill:none" height="32" width="32" y="-34" x="80"/>
		<path id="path4329" d="m96-32c-7.732 0-14 6.268-14 14 0 3.866 4 10-1 15 5-5 11.134-1 15-1 7.732 0 14-6.268 14-14s-6.268-14-14-14zm-8.0449 13h16.09c.52952 0 .95508.42556.95508.95508v.08984c0 .529-.43.955-.96.955h-16.09c-.524 0-.950-.426-.950-.955v-.08984c0-.529.426-.955.955-.955z" style="opacity:.875;fill:currentColor" class="ColorScheme-Text"/>
	</g>
	<g id="user-invisible">
		<rect id="rect3375" style="fill:none" height="32" width="32" y="-34" x="160"/>
		<rect id="rect4244" style="fill:none" height="32" width="32" y="-34" x="160"/>
		<path id="path4333" d="m190-18c0 7.732-6.268 14-14 14-3.866 0-10-4-15 1 5-5 1-11.134 1-15 0-7.732 6.268-14 14-14s14 6.268 14 14z" style="opacity:.875;fill:currentColor" class="ColorScheme-Text"/>
	</g>
	<g id="user-away-extended">
		<rect id="rect3387" style="fill:none" height="32" width="32" y="-34" x="240"/>
		<rect id="rect4248" style="fill:none" height="32" width="32" y="-34" x="240"/>
		<path id="path4337" d="m256-32c-7.732 0-14 6.268-14 14 0 3.866 4 10-1 15 5-5 11.134-1 15-1 7.732 0 14-6.268 14-14s-6.268-14-14-14zm-.0156 2.9863a1.0001 1.0001 0 0 1 1.02 1.014v10.414l-7.293 7.293a1.0001 1.0001 0 1 1 -1.4141 -1.4141l6.7-6.707v-9.586a1.0001 1.0001 0 0 1 .98438 -1.0137z" style="opacity:.875;fill:currentColor" class="ColorScheme-Text"/>
	</g>
	<g id="user-away">
		<rect id="rect4240" style="fill:none" height="32" width="32" y="-34" x="200"/>
		<path id="path4335" d="m216-32c-7.732 0-14 6.268-14 14 0 3.866 4 10-1 15 5-5 11.134-1 15-1 7.732 0 14-6.268 14-14s-6.268-14-14-14zm-.0156 2.9863a1.0001 1.0001 0 0 1 1.02 1.014v9h9a1.0001 1.0001 0 1 1 0 2h-11v-11a1.0001 1.0001 0 0 1 .98438 -1.0137z" style="opacity:.875;fill:currentColor" class="ColorScheme-Text"/>
	</g>
	<g id="user-online">
		<rect id="rect4236" style="fill:none" height="32" width="32" y="-34" x="40"/>
		<path id="path4327" d="m56-32c-7.732 0-14 6.268-14 14 0 3.866 4 10-1 15 5-5 11.134-1 15-1 7.732 0 14-6.268 14-14s-6.268-14-14-14zm6.0273 8.9902a1.0001 1.0001 0 0 1 .71680 1.6797l-9.6445 10.715-6.7402-5.6172a1.0001 1.0001 0 1 1 1.2812 -1.5352l5.2598 4.3828 8.3555-9.2852a1.0001 1.0001 0 0 1 .77148 -.33984z" style="opacity:.875;fill:currentColor" class="ColorScheme-Text"/>
	</g>
	<g id="user-identity">
		<rect id="rect3393" style="fill:none" height="32" width="32" y="-34" x="0"/>
		<rect id="rect4259" style="fill:none" height="32" width="32" y="-34" x="0"/>
		<path id="path4325" d="m16-32c-7.732 0-14 6.268-14 14 0 3.866 4 10-1 15 5-5 11.134-1 15-1 7.732 0 14-6.268 14-14s-6.268-14-14-14zm0 5a5 5 0 0 1 5 5 5 5 0 0 1 -5 5 9 9 0 0 1 8.4746 6.0059 11 11 0 0 1 -1.623 1.5996 7 7 0 0 0 -6.852 -5.606 7 7 0 0 0 -6.8555 5.5879 11 11 0 0 1 -1.6191 -1.5879 9 9 0 0 1 8.4746 -6 5 5 0 0 1 -5 -5 5 5 0 0 1 5 -5zm0 2a3 3 0 0 0 -3 3 3 3 0 0 0 3 3 3 3 0 0 0 3 -3 3 3 0 0 0 -3 -3z" style="opacity:.875;fill:currentColor" class="ColorScheme-Text"/>
	</g>
</svg>
