<?xml version="1.0" encoding="UTF-8" standalone="no"?>
<svg id="svg2" xmlns:rdf="http://www.w3.org/1999/02/22-rdf-syntax-ns#" xmlns="http://www.w3.org/2000/svg" height="32" width="32" version="1.1" xmlns:cc="http://creativecommons.org/ns#" xmlns:dc="http://purl.org/dc/elements/1.1/">
	<defs id="defs81">
		<style id="current-color-scheme" type="text/css">.ColorScheme-Text {
			color:#0000FF;
			}
			.ColorScheme-Background{
			color:#E9E8E8;
			}
			.ColorScheme-ViewText {
			color:#31363b;
			}
			.ColorScheme-ViewBackground{
			color:#ffffff;
			}
			.ColorScheme-ViewHover {
			color:#000000;
			}
			.ColorScheme-ViewFocus{
			color:#5a5a5a;
			}
			.ColorScheme-ButtonText {
			color:#31363b;
			}
			.ColorScheme-ButtonBackground{
			color:#E9E8E8;
			}
			.ColorScheme-ButtonHover {
			color:#1489ff;
			}
			.ColorScheme-ButtonFocus{
			color:#2B74C7;
			}</style>
	</defs>
	<metadata id="metadata34">
		<RDF>
			<Work about="">
				<format>image/svg+xml</format>
				<type resource="http://purl.org/dc/dcmitype/StillImage"/>
				<title/>
			</Work>
		</RDF>
		<rdf:RDF>
			<cc:Work rdf:about="">
				<dc:format>image/svg+xml</dc:format>
				<dc:type rdf:resource="http://purl.org/dc/dcmitype/StillImage"/>
				<dc:title/>
			</cc:Work>
		</rdf:RDF>
	</metadata>
	<g id="22-22-video-display-brightness" transform="translate(-73,42)">
		<rect id="rect4197" style="fill:none" height="22" width="22" y="0" x="66"/>
		<path id="path4244" style="opacity:.875;fill:currentColor" d="m11 8c-1.6569 0-3 1.3431-3 3 0 .82843.48541 1.4618.87891 2.1211.95466 1.5995.37814 3.2818 1.418 3.748a2 2 0 0 1 -.264 -.119 1 1 0 0 0 -.033 .25 1 1 0 0 0 1 1 1 1 0 0 0 1 -1 1 1 0 0 0 -.0332 -.25195 2 2 0 0 1 -.24219 .11133c1.0101-.47992.44851-2.15 1.3965-3.7383.393-.659.878-1.293.878-2.121 0-1.6569-1.343-3-3-3zm-.24219 8.9824c.077.008.153.018.242.018a2 2 0 0 1 -.24219 -.01758zm.48047.002a2 2 0 0 1 -.228 .016c.08312-.000297.15546-.0085.22852-.01563z" class="ColorScheme-Text" transform="translate(66)"/>
		<path id="path4267" style="opacity:.875;fill:currentColor" d="m11 5.3438-1.084 1.8066c.353-.0996.717-.1502 1.084-.1504.36737.00132.73274.053237 1.0859.1543l-1.086-1.8105zm-4 1.6562.5117 2.0469c.3618-.6433.8945-1.1739 1.5391-1.5332l-2.0508-.5137zm8 0-2.0469.51172c.64327.36177 1.1739.89441 1.5332 1.5391l.514-2.0508zm-7.8457 2.9141-1.8105 1.0859 1.8066 1.084c-.0994-.353-.1503-.718-.1504-1.084.0012-.367.0533-.733.1543-1.0859zm7.6953.00195c.099.353.15.717.15 1.084-.0012.36735-.05334.73273-.1543 1.0859l1.81-1.086-1.806-1.084zm-7.3363 3.033-.5137 2.051 1.4004-.35c-.0783-.343-.1838-.673-.3652-.986-.1969-.22-.3766-.455-.5215-.715zm6.9746.0039c-.14654.26057-.32668.49709-.52539.7168-.17904.31044-.28538.63816-.36328.97852l1.401.352-.512-2.047z" class="ColorScheme-Text" transform="translate(66)"/>
	</g>
	<g id="video-display-brightness" transform="translate(-40,42)">
		<rect id="rect4293" style="fill:none" height="32" width="32" y="-42" x="40"/>
		<path id="path4301" class="ColorScheme-Text" style="opacity:.875;fill:currentColor" d="m56-32c-2.7614 0-5 2.2386-5 5 0 1.3807.78816 2.4491 1.4648 3.5352 1.535 2.465.535 6.465 3.535 6.465s1.9996-4.0004 3.5352-6.4648c.677-1.086 1.465-2.154 1.465-3.535 0-2.7614-2.2386-5-5-5zm0 15a4 4 0 0 1 -1.936 -.502 2 2 0 0 0 1.936 1.502 2 2 0 0 0 1.936 -1.504 4 4 0 0 1 -1.936 .504z"/>
		<path id="path4303" class="ColorScheme-Text" style="opacity:.875;fill:currentColor" d="m56-37-1.0996 3.0898c.36373-.0589.73154-.089 1.1-.09.36915.0028.7375.0348 1.1016.0957l-1.102-3.096zm-7.0703 2.9297 1.4102 2.9648c.43368-.59704.95903-1.1218 1.5566-1.5547l-2.9668-1.4102zm14.141 0-2.9648 1.4102c.59704.43368 1.1218.95903 1.5547 1.5566l1.4102-2.9668zm-13.975 5.968-3.096 1.102 3.0898 1.0996c-.0589-.36373-.089-.73154-.09-1.1.0028-.36915.0348-.7375.0957-1.1016zm13.814.002c.0589.36373.089.73154.09 1.1-.0028.36915-.0348.7375-.0957 1.1016l3.096-1.102-3.09-1.1zm-12.57 5.2031-1.4102 2.9668 2.9648-1.4102c-.59704-.43368-1.1218-.95903-1.5547-1.5566zm11.32.002c-.43368.59704-.95903 1.1218-1.5566 1.5547l2.9668 1.4102-1.4102-2.9648z"/>
	</g>
</svg>
