<?xml version="1.0" encoding="UTF-8" standalone="no"?>
<svg id="svg" xmlns:rdf="http://www.w3.org/1999/02/22-rdf-syntax-ns#" xmlns="http://www.w3.org/2000/svg" height="100%" viewBox="0 0 22 22" width="100%" version="1.1" xmlns:cc="http://creativecommons.org/ns#" xmlns:dc="http://purl.org/dc/elements/1.1/">
	<defs id="defs81">
		<style id="current-color-scheme" type="text/css">
			.ColorScheme-Text { color:#0000FF; }
		</style>
	</defs>
	<metadata id="metadata34">
		<rdf:RDF>
			<cc:Work rdf:about="">
				<dc:format>image/svg+xml</dc:format>
				<dc:type rdf:resource="http://purl.org/dc/dcmitype/StillImage"/>
				<dc:title/>
			</cc:Work>
		</rdf:RDF>
	</metadata>
	<g id="view-history">
		<rect id="rect4210" style="fill:none" height="22" width="22" y="0" x="0"/>
		<rect id="rect4175" style="opacity:.875;fill:currentColor" class="ColorScheme-Text" ry="1" height="2" width="3" y="4" x="2"/>
		<rect id="rect4179" style="opacity:.875;fill:currentColor" class="ColorScheme-Text" ry="1" height="2" width="3" y="8" x="2"/>
		<rect id="rect4181" style="opacity:.875;fill:currentColor" class="ColorScheme-Text" ry="1" height="2" width="3" y="12" x="2"/>
		<rect id="rect4183" style="opacity:.875;fill:currentColor" class="ColorScheme-Text" ry="1" height="2" width="3" y="16" x="2"/>
		<rect id="rect4191" style="opacity:.875;fill:currentColor" class="ColorScheme-Text" ry="1" height="2" width="13" y="4" x="7"/>
		<rect id="rect4193" style="opacity:.875;fill:currentColor" class="ColorScheme-Text" ry="1" height="2" width="12" y="8" x="7"/>
		<rect id="rect4195" style="opacity:.875;fill:currentColor" class="ColorScheme-Text" ry="1" height="2" width="11" y="12" x="7"/>
		<rect id="rect4197" style="opacity:.875;fill:currentColor" class="ColorScheme-Text" ry="1" height="2" width="10" y="16" x="7"/>
	</g>
	<g id="32-32-view-history" transform="matrix(1.4545 0 0 1.4545 0 22)">
		<rect id="rect4306" style="fill:none" height="22" width="22" y="0" x="0"/>
		<rect id="rect4308" style="opacity:.875;fill:currentColor" class="ColorScheme-Text" ry="1.0312" height="2.0625" width="3.4375" y="3.4375" x="2.0625"/>
		<rect id="rect4310" style="opacity:.875;fill:currentColor" class="ColorScheme-Text" ry="1.0312" height="2.0625" width="3.4375" y="7.5625" x="2.0625"/>
		<rect id="rect4312" style="opacity:.875;fill:currentColor" class="ColorScheme-Text" ry="1.0312" height="2.0625" width="3.4375" y="11.688" x="2.0625"/>
		<rect id="rect4314" style="opacity:.875;fill:currentColor" class="ColorScheme-Text" ry="1.0313" height="2.0625" width="3.4375" y="15.812" x="2.0625"/>
		<rect id="rect4316" style="opacity:.875;fill:currentColor" class="ColorScheme-Text" ry="1.0312" height="2.0625" width="12.375" y="3.4375" x="7.5625"/>
		<rect id="rect4318" style="opacity:.875;fill:currentColor" class="ColorScheme-Text" ry="1.0312" height="2.0625" width="11" y="7.5625" x="7.5625"/>
		<rect id="rect4320" style="opacity:.875;fill:currentColor" class="ColorScheme-Text" ry="1.0312" height="2.0625" width="9.625" y="11.688" x="7.5625"/>
		<rect id="rect4322" style="opacity:.875;fill:currentColor" class="ColorScheme-Text" ry="1.0313" height="2.0625" width="8.25" y="15.812" x="7.5625"/>
	</g>
	<g id="view-refresh" transform="translate(-1 -24.213)">
		<rect id="rect3826" style="fill:none" height="22" width="22" y="1" x="1"/>
		<path id="path3801" d="m12 5.4688c-3.4869.0821-6.373 3.0238-6.2812 6.5312.044193 1.6886.78025 3.2395 1.9375 4.3438.036052.03605.10124.0625.15625.0625.1099 0 .1874-.108.1874-.218 0-.056-.0264-.089-.0625-.126-.9721-1.078-1.5252-2.516-1.4375-4.062.1514-2.6694 2.3189-4.9109 4.969-5.0312.17666-.00802.35081-.011258.53125 0 2.5794.16092 4.7128 2.4121 4.5312 5.0312-.15305 2.2079-2.004 4.0318-4.2188 4.0312-.029-.0059-.06416.0042-.09375 0-.07-.01-.146-.031-.219-.031-.82843 0-1.5.67157-1.5 1.5s.67157 1.5 1.5 1.5c.10355 0 .21485-.01127.3125-.03125 3.602-.24 6.548-3.313 6.469-6.969-.077-3.6195-3.142-6.617-6.781-6.5312z" style="fill:currentColor" class="ColorScheme-Text"/>
	</g>
</svg>
