<?xml version="1.0" encoding="UTF-8" standalone="no"?>
<!-- Created with Inkscape (http://www.inkscape.org/) -->

<svg
   xmlns:dc="http://purl.org/dc/elements/1.1/"
   xmlns:cc="http://creativecommons.org/ns#"
   xmlns:rdf="http://www.w3.org/1999/02/22-rdf-syntax-ns#"
   xmlns:svg="http://www.w3.org/2000/svg"
   xmlns="http://www.w3.org/2000/svg"
   xmlns:sodipodi="http://sodipodi.sourceforge.net/DTD/sodipodi-0.dtd"
   xmlns:inkscape="http://www.inkscape.org/namespaces/inkscape"
   version="1.0"
   width="24"
   height="24"
   id="svg3727"
   inkscape:version="0.91 r13725"
   sodipodi:docname="wallet.svgz">
  <sodipodi:namedview
     pagecolor="#323232"
     bordercolor="#666666"
     borderopacity="1"
     objecttolerance="10"
     gridtolerance="10"
     guidetolerance="10"
     inkscape:pageopacity="1"
     inkscape:pageshadow="2"
     inkscape:window-width="1920"
     inkscape:window-height="1056"
     id="namedview26"
     showgrid="false"
     inkscape:showpageshadow="false"
     showborder="false"
     fit-margin-top="0"
     fit-margin-left="0"
     fit-margin-right="0"
     fit-margin-bottom="0"
     inkscape:zoom="4"
     inkscape:cx="118.58313"
     inkscape:cy="41.135196"
     inkscape:window-x="0"
     inkscape:window-y="-3"
     inkscape:window-maximized="1"
     inkscape:current-layer="svg3727">
    <inkscape:grid
       type="xygrid"
       id="grid3003"
       empspacing="4"
       visible="true"
       enabled="true"
       snapvisiblegridlinesonly="true"
       originx="-28px"
       originy="0px" />
  </sodipodi:namedview>
  <metadata
     id="metadata244">
    <rdf:RDF>
      <cc:Work
         rdf:about="">
        <dc:format>image/svg+xml</dc:format>
        <dc:type
           rdf:resource="http://purl.org/dc/dcmitype/StillImage" />
        <dc:title />
        <dc:creator>
          <cc:Agent>
            <dc:title>obnosim</dc:title>
          </cc:Agent>
        </dc:creator>
        <cc:license
           rdf:resource="http://creativecommons.org/licenses/by-nc-sa/3.0/" />
      </cc:Work>
      <cc:License
         rdf:about="http://creativecommons.org/licenses/by-nc-sa/3.0/">
        <cc:permits
           rdf:resource="http://creativecommons.org/ns#Reproduction" />
        <cc:permits
           rdf:resource="http://creativecommons.org/ns#Distribution" />
        <cc:requires
           rdf:resource="http://creativecommons.org/ns#Notice" />
        <cc:requires
           rdf:resource="http://creativecommons.org/ns#Attribution" />
        <cc:prohibits
           rdf:resource="http://creativecommons.org/ns#CommercialUse" />
        <cc:permits
           rdf:resource="http://creativecommons.org/ns#DerivativeWorks" />
        <cc:requires
           rdf:resource="http://creativecommons.org/ns#ShareAlike" />
      </cc:License>
    </rdf:RDF>
  </metadata>
  <defs
     id="defs3729" />
  <g
     id="wallet-closed"
     transform="translate(-28,0)">
    <rect
       y="0"
       x="0"
       height="24"
       width="24"
       id="rect3005"
       style="opacity:0.125;fill:none;stroke:none" />
    <path
       id="path3814"
       d="M 12,1 C 8.6862915,1 6,3.6862915 6,7 6,7.9269934 6.2183793,8.8100295 6.59375,9.59375 6.3419906,10.040915 6.1875,10.650909 6.1875,11.3125 6.1875,12.267085 6.5280834,13.078834 7,13.5 l 0,3.5 -2,0 0,1 1,0 0,1 -1,0 0,1 2,0 1,0 0,-6.25 c 0.4912833,-0.167552 0.8771893,-0.74866 1.0625,-1.5 0.020776,0.01161 0.041573,0.01988 0.0625,0.03125 C 9.0393433,12.595847 9,12.944527 9,13.3125 c 0,1.095777 0.4113099,2.00611 1,2.34375 L 10,19 l -1,1 0,1 1,-1 0,1 -1,1 0,1 1,-1 1,0 0,-1 0,-2 0,-3.34375 c 0.58869,-0.33764 1,-1.247973 1,-2.34375 0,-0.10812 -0.02326,-0.207998 -0.03125,-0.3125 0.01032,5.2e-5 0.02092,0 0.03125,0 0.01033,0 0.02093,5.2e-5 0.03125,0 C 12.023261,13.104502 12,13.20438 12,13.3125 c 0,1.095777 0.41131,2.00611 1,2.34375 L 13,19 l 0,2 0,1 1,0 1,1 0,-1 -1,-1 0,-1 1,1 0,-1 -1,-1 0,-3.34375 c 0.58869,-0.33764 1,-1.247973 1,-2.34375 0,-0.367973 -0.03934,-0.716653 -0.125,-1.03125 0.02093,-0.01137 0.04172,-0.01964 0.0625,-0.03125 0.185311,0.75134 0.571216,1.332448 1.0625,1.5 l 0,6.25 1,0 2,0 0,-1 -1,0 0,-1 1,0 0,-1 -2,0 0,-3.5 c 0.471917,-0.421166 0.8125,-1.232915 0.8125,-2.1875 0,-0.661591 -0.154491,-1.271585 -0.40625,-1.71875 C 17.781621,8.8100295 18,7.9269934 18,7 18,3.6862915 15.313708,1 12,1 z m 0,1 c 2.761424,0 5,2.2385763 5,5 0,0.6661935 -0.138514,1.2937584 -0.375,1.875 -0.09765,-0.033302 -0.208947,-0.0625 -0.3125,-0.0625 -0.789746,0 -1.441283,1.0213133 -1.5,2.3125 -0.128518,0.08846 -0.269432,0.142389 -0.40625,0.21875 C 14.153444,11.020342 13.843319,10.8125 13.5,10.8125 c -0.540236,0 -1.017167,0.473421 -1.28125,1.1875 -0.0744,0.0033 -0.143536,0 -0.21875,0 -0.07521,0 -0.144347,0.0033 -0.21875,0 -0.264083,-0.714079 -0.741014,-1.1875 -1.28125,-1.1875 -0.343319,0 -0.6534445,0.207842 -0.90625,0.53125 C 9.4569315,11.267389 9.3160181,11.213456 9.1875,11.125 9.1287831,9.8338133 8.4772456,8.8125 7.6875,8.8125 7.5839466,8.8125 7.4726464,8.8416978 7.375,8.875 7.1385135,8.2937584 7,7.6661935 7,7 7,4.2385763 9.2385763,2 12,2 z m -4.75,8.625 c 0.3190022,0.417092 0.6780278,0.804303 1.09375,1.125 -0.073556,0.614219 -0.2922312,1.0625 -0.5625,1.0625 -0.331371,0 -0.59375,-0.671573 -0.59375,-1.5 0,-0.248528 0.020493,-0.481103 0.0625,-0.6875 z m 9.5,0 c 0.04201,0.206397 0.0625,0.438972 0.0625,0.6875 0,0.828427 -0.262379,1.5 -0.59375,1.5 -0.270269,0 -0.488944,-0.448281 -0.5625,-1.0625 0.415722,-0.320697 0.774748,-0.707908 1.09375,-1.125 z m -6.6875,2.03125 c 0.355555,0.121627 0.711625,0.228067 1.09375,0.28125 0.01236,0.121133 0.03125,0.243985 0.03125,0.375 0,0.828427 -0.262379,1.5 -0.59375,1.5 -0.331371,0 -0.59375,-0.671573 -0.59375,-1.5 0,-0.236102 0.02435,-0.457545 0.0625,-0.65625 z m 3.875,0 C 13.975647,12.854955 14,13.076398 14,13.3125 c 0,0.828427 -0.262379,1.5 -0.59375,1.5 -0.331371,0 -0.59375,-0.671573 -0.59375,-1.5 0,-0.131015 0.01889,-0.253867 0.03125,-0.375 0.382125,-0.05318 0.738195,-0.159623 1.09375,-0.28125 z"
       style="opacity:0.375;color:#000000;fill:none;stroke:#000000;stroke-width:2;stroke-linejoin:round;stroke-miterlimit:4;stroke-opacity:1;stroke-dasharray:none;marker:none;visibility:visible;display:inline;overflow:visible;enable-background:accumulate"
       inkscape:connector-curvature="0" />
    <path
       inkscape:connector-curvature="0"
       id="path3775"
       d="M 12,1 C 8.6862915,1 6,3.6862915 6,7 c 0,3.313708 2.6862915,6 6,6 3.313708,0 6,-2.686292 6,-6 0,-3.3137085 -2.686292,-6 -6,-6 z m 0,1 c 2.761424,0 5,2.2385763 5,5 0,2.7614237 -2.238576,5 -5,5 C 9.2385763,12 7,9.7614237 7,7 7,4.2385763 9.2385763,2 12,2 z"
       style="color:#000000;fill:#e0e0e0;fill-opacity:1;fill-rule:nonzero;stroke:none;stroke-width:1px;marker:none;visibility:visible;display:inline;overflow:visible;enable-background:accumulate" />
    <path
       id="path3780"
       d="m 10.5,10.8125 c -0.8284271,0 -1.5,1.119288 -1.5,2.5 0,1.095777 0.4113099,2.00611 1,2.34375 L 10,19 l -1,1 0,1 1,-1 0,1 -1,1 0,1 1,-1 1,0 0,-1 0,-2 0,-3.34375 c 0.58869,-0.33764 1,-1.247973 1,-2.34375 0,-1.380712 -0.671573,-2.5 -1.5,-2.5 z m 0.09375,1 c 0.331371,0 0.59375,0.671573 0.59375,1.5 0,0.828427 -0.262379,1.5 -0.59375,1.5 -0.331371,0 -0.59375,-0.671573 -0.59375,-1.5 0,-0.828427 0.262379,-1.5 0.59375,-1.5 z"
       style="color:#000000;fill:#e0e0e0;fill-opacity:1;fill-rule:nonzero;stroke:none;stroke-width:1px;marker:none;visibility:visible;display:inline;overflow:visible;enable-background:accumulate"
       inkscape:connector-curvature="0" />
    <path
       id="path3785"
       d="m 7.6875,8.8125 c -0.8284271,0 -1.5,1.119288 -1.5,2.5 0,0.954585 0.3405834,1.766334 0.8125,2.1875 l 0,3.5 -2,0 0,1 1,0 0,1 -1,0 0,1 2,0 1,0 0,-6.25 c 0.6835246,-0.233116 1.1875,-1.229377 1.1875,-2.4375 0,-1.380712 -0.671573,-2.5 -1.5,-2.5 z m 0.09375,1 c 0.331371,0 0.59375,0.671573 0.59375,1.5 0,0.828427 -0.262379,1.5 -0.59375,1.5 -0.331371,0 -0.59375,-0.671573 -0.59375,-1.5 0,-0.828427 0.262379,-1.5 0.59375,-1.5 z"
       style="color:#000000;fill:#e0e0e0;fill-opacity:1;fill-rule:nonzero;stroke:none;stroke-width:1px;marker:none;visibility:visible;display:inline;overflow:visible;enable-background:accumulate"
       inkscape:connector-curvature="0" />
    <path
       id="path3787"
       d="m 13.5,10.8125 c -0.828427,0 -1.5,1.119288 -1.5,2.5 0,1.095777 0.41131,2.00611 1,2.34375 L 13,19 l 0,2 0,1 1,0 1,1 0,-1 -1,-1 0,-1 1,1 0,-1 -1,-1 0,-3.34375 c 0.58869,-0.33764 1,-1.247973 1,-2.34375 0,-1.380712 -0.671573,-2.5 -1.5,-2.5 z m -0.09375,1 c 0.331371,0 0.59375,0.671573 0.59375,1.5 0,0.828427 -0.262379,1.5 -0.59375,1.5 -0.331371,0 -0.59375,-0.671573 -0.59375,-1.5 0,-0.828427 0.262379,-1.5 0.59375,-1.5 z"
       style="color:#000000;fill:#e0e0e0;fill-opacity:1;fill-rule:nonzero;stroke:none;stroke-width:1px;marker:none;visibility:visible;display:inline;overflow:visible;enable-background:accumulate"
       inkscape:connector-curvature="0" />
    <path
       id="path3789"
       d="m 16.3125,8.8125 c -0.828427,0 -1.5,1.119288 -1.5,2.5 0,1.208123 0.503975,2.204384 1.1875,2.4375 l 0,6.25 1,0 2,0 0,-1 -1,0 0,-1 1,0 0,-1 -2,0 0,-3.5 c 0.471917,-0.421166 0.8125,-1.232915 0.8125,-2.1875 0,-1.380712 -0.671573,-2.5 -1.5,-2.5 z m -0.09375,1 c 0.331371,0 0.59375,0.671573 0.59375,1.5 0,0.828427 -0.262379,1.5 -0.59375,1.5 -0.331371,0 -0.59375,-0.671573 -0.59375,-1.5 0,-0.828427 0.262379,-1.5 0.59375,-1.5 z"
       style="color:#000000;fill:#e0e0e0;fill-opacity:1;fill-rule:nonzero;stroke:none;stroke-width:1px;marker:none;visibility:visible;display:inline;overflow:visible;enable-background:accumulate"
       inkscape:connector-curvature="0" />
  </g>
  <g
     id="wallet-open"
     transform="translate(-28,0)">
    <rect
       y="0"
       x="28"
       height="24"
       width="24"
       id="rect3834"
       style="opacity:0.375;fill:none;stroke:none" />
    <path
       style="opacity:0.375;fill:none;stroke:#000000;stroke-width:2;stroke-linecap:round;stroke-linejoin:round;stroke-miterlimit:4;stroke-opacity:1;stroke-dasharray:none;stroke-dashoffset:0"
       d="m 34,7 c -2.216,0 -4,1.784 -4,4 l 0,2 c 0,2.216 1.784,4 4,4 2.216,0 4,-1.784 4,-4 l 8,0 0,4 1,-1 0,-1 1,0 0,1 1,0 1,0.6875 L 50,13 50,11 38,11 C 38,8.784 36.216,7 34,7 z m 0,2 c 1.108,0 2,0.892 2,2 l 0,2 c 0,1.108 -0.892,2 -2,2 -1.108,0 -2,-0.892 -2,-2 l 0,-2 c 0,-1.108 0.892,-2 2,-2 z"
       id="path3882"
       inkscape:connector-curvature="0" />
    <path
       id="rect3864"
       d="m 34,7 c -2.216,0 -4,1.784 -4,4 l 0,2 c 0,2.216 1.784,4 4,4 2.216,0 4,-1.784 4,-4 l 8,0 0,4 1,-1 0,-1 1,0 0,1 1,0 1,0.6875 L 50,13 50,11 38,11 C 38,8.784 36.216,7 34,7 z m 0,2 c 1.108,0 2,0.892 2,2 l 0,2 c 0,1.108 -0.892,2 -2,2 -1.108,0 -2,-0.892 -2,-2 l 0,-2 c 0,-1.108 0.892,-2 2,-2 z"
       style="fill:#e0e0e0;fill-opacity:1;fill-rule:evenodd;stroke:none"
       inkscape:connector-curvature="0" />
  </g>
</svg>
