<?xml version="1.0" encoding="UTF-8" standalone="no"?>
<!-- Created with Inkscape (http://www.inkscape.org/) -->

<svg
   xmlns:dc="http://purl.org/dc/elements/1.1/"
   xmlns:cc="http://creativecommons.org/ns#"
   xmlns:rdf="http://www.w3.org/1999/02/22-rdf-syntax-ns#"
   xmlns:svg="http://www.w3.org/2000/svg"
   xmlns="http://www.w3.org/2000/svg"
   xmlns:sodipodi="http://sodipodi.sourceforge.net/DTD/sodipodi-0.dtd"
   xmlns:inkscape="http://www.inkscape.org/namespaces/inkscape"
   version="1.0"
   width="22"
   height="22"
   id="svg3727"
   inkscape:version="0.91 r13725"
   sodipodi:docname="wallet.svg">
  <sodipodi:namedview
     pagecolor="#323232"
     bordercolor="#666666"
     borderopacity="1"
     objecttolerance="10"
     gridtolerance="10"
     guidetolerance="10"
     inkscape:pageopacity="1"
     inkscape:pageshadow="2"
     inkscape:window-width="1920"
     inkscape:window-height="1056"
     id="namedview26"
     showgrid="true"
     inkscape:showpageshadow="false"
     showborder="false"
     fit-margin-top="0"
     fit-margin-left="0"
     fit-margin-right="0"
     fit-margin-bottom="0"
     inkscape:zoom="8"
     inkscape:cx="34.444325"
     inkscape:cy="35.824524"
     inkscape:window-x="0"
     inkscape:window-y="-3"
     inkscape:window-maximized="1"
     inkscape:current-layer="svg3727">
    <inkscape:grid
       type="xygrid"
       id="grid3003"
       empspacing="4"
       visible="true"
       enabled="true"
       snapvisiblegridlinesonly="true"
       originx="-29"
       originy="-1" />
  </sodipodi:namedview>
  <metadata
     id="metadata244">
    <rdf:RDF>
      <cc:Work
         rdf:about="">
        <dc:format>image/svg+xml</dc:format>
        <dc:type
           rdf:resource="http://purl.org/dc/dcmitype/StillImage" />
        <dc:title />
        <dc:creator>
          <cc:Agent>
            <dc:title>obnosim</dc:title>
          </cc:Agent>
        </dc:creator>
        <cc:license
           rdf:resource="http://creativecommons.org/licenses/by-nc-sa/3.0/" />
      </cc:Work>
      <cc:License
         rdf:about="http://creativecommons.org/licenses/by-nc-sa/3.0/">
        <cc:permits
           rdf:resource="http://creativecommons.org/ns#Reproduction" />
        <cc:permits
           rdf:resource="http://creativecommons.org/ns#Distribution" />
        <cc:requires
           rdf:resource="http://creativecommons.org/ns#Notice" />
        <cc:requires
           rdf:resource="http://creativecommons.org/ns#Attribution" />
        <cc:prohibits
           rdf:resource="http://creativecommons.org/ns#CommercialUse" />
        <cc:permits
           rdf:resource="http://creativecommons.org/ns#DerivativeWorks" />
        <cc:requires
           rdf:resource="http://creativecommons.org/ns#ShareAlike" />
      </cc:License>
    </rdf:RDF>
  </metadata>
  <defs
     id="defs3729" />
  <g
     id="wallet-closed"
     transform="translate(-29,-1)">
    <rect
       y="1"
       x="1"
       height="22"
       width="22"
       id="rect3005"
       style="opacity:0.125;fill:none;stroke:none" />
    <path
       inkscape:connector-curvature="0"
       id="path3775"
       d="M 12,1 C 8.6862915,1 6,3.6862915 6,7 c 0,3.313708 2.6862915,6 6,6 3.313708,0 6,-2.686292 6,-6 0,-3.3137085 -2.686292,-6 -6,-6 z m 0,1 c 2.761424,0 5,2.2385763 5,5 0,2.7614237 -2.238576,5 -5,5 C 9.2385763,12 7,9.7614237 7,7 7,4.2385763 9.2385763,2 12,2 Z"
       style="color:#000000;display:inline;overflow:visible;visibility:visible;fill:#e0e0e0;fill-opacity:1;fill-rule:nonzero;stroke:none;stroke-width:1px;marker:none;enable-background:accumulate" />
    <path
       id="path3780"
       d="m 10.5,10.8125 c -0.8284271,0 -1.5,1.119288 -1.5,2.5 0,1.095777 0.4113099,2.00611 1,2.34375 L 10,19 l -1,1 0,1 1,-1 0,1 -1,1 0,1 1,-1 1,0 0,-1 0,-2 0,-3.34375 c 0.58869,-0.33764 1,-1.247973 1,-2.34375 0,-1.380712 -0.671573,-2.5 -1.5,-2.5 z m 0.09375,1 c 0.331371,0 0.59375,0.671573 0.59375,1.5 0,0.828427 -0.262379,1.5 -0.59375,1.5 -0.331371,0 -0.59375,-0.671573 -0.59375,-1.5 0,-0.828427 0.262379,-1.5 0.59375,-1.5 z"
       style="color:#000000;display:inline;overflow:visible;visibility:visible;fill:#e0e0e0;fill-opacity:1;fill-rule:nonzero;stroke:none;stroke-width:1px;marker:none;enable-background:accumulate"
       inkscape:connector-curvature="0" />
    <path
       id="path3785"
       d="m 7.6875,8.8125 c -0.8284271,0 -1.5,1.119288 -1.5,2.5 0,0.954585 0.3405834,1.766334 0.8125,2.1875 l 0,3.5 -2,0 0,1 1,0 0,1 -1,0 0,1 2,0 1,0 0,-6.25 c 0.6835246,-0.233116 1.1875,-1.229377 1.1875,-2.4375 0,-1.380712 -0.671573,-2.5 -1.5,-2.5 z m 0.09375,1 c 0.331371,0 0.59375,0.671573 0.59375,1.5 0,0.828427 -0.262379,1.5 -0.59375,1.5 -0.331371,0 -0.59375,-0.671573 -0.59375,-1.5 0,-0.828427 0.262379,-1.5 0.59375,-1.5 z"
       style="color:#000000;display:inline;overflow:visible;visibility:visible;fill:#e0e0e0;fill-opacity:1;fill-rule:nonzero;stroke:none;stroke-width:1px;marker:none;enable-background:accumulate"
       inkscape:connector-curvature="0" />
    <path
       id="path3787"
       d="m 13.5,10.8125 c -0.828427,0 -1.5,1.119288 -1.5,2.5 0,1.095777 0.41131,2.00611 1,2.34375 L 13,19 l 0,2 0,1 1,0 1,1 0,-1 -1,-1 0,-1 1,1 0,-1 -1,-1 0,-3.34375 c 0.58869,-0.33764 1,-1.247973 1,-2.34375 0,-1.380712 -0.671573,-2.5 -1.5,-2.5 z m -0.09375,1 c 0.331371,0 0.59375,0.671573 0.59375,1.5 0,0.828427 -0.262379,1.5 -0.59375,1.5 -0.331371,0 -0.59375,-0.671573 -0.59375,-1.5 0,-0.828427 0.262379,-1.5 0.59375,-1.5 z"
       style="color:#000000;display:inline;overflow:visible;visibility:visible;fill:#e0e0e0;fill-opacity:1;fill-rule:nonzero;stroke:none;stroke-width:1px;marker:none;enable-background:accumulate"
       inkscape:connector-curvature="0" />
    <path
       id="path3789"
       d="m 16.3125,8.8125 c -0.828427,0 -1.5,1.119288 -1.5,2.5 0,1.208123 0.503975,2.204384 1.1875,2.4375 l 0,6.25 1,0 2,0 0,-1 -1,0 0,-1 1,0 0,-1 -2,0 0,-3.5 c 0.471917,-0.421166 0.8125,-1.232915 0.8125,-2.1875 0,-1.380712 -0.671573,-2.5 -1.5,-2.5 z m -0.09375,1 c 0.331371,0 0.59375,0.671573 0.59375,1.5 0,0.828427 -0.262379,1.5 -0.59375,1.5 -0.331371,0 -0.59375,-0.671573 -0.59375,-1.5 0,-0.828427 0.262379,-1.5 0.59375,-1.5 z"
       style="color:#000000;display:inline;overflow:visible;visibility:visible;fill:#e0e0e0;fill-opacity:1;fill-rule:nonzero;stroke:none;stroke-width:1px;marker:none;enable-background:accumulate"
       inkscape:connector-curvature="0" />
  </g>
  <g
     id="wallet-open"
     transform="translate(-29,-1)">
    <rect
       y="1"
       x="29"
       height="22"
       width="22"
       id="rect3834"
       style="opacity:0.375;fill:none;stroke:none" />
    <path
       id="rect3864"
       d="m 34,7 c -2.216,0 -4,1.784 -4,4 l 0,2 c 0,2.216 1.784,4 4,4 2.216,0 4,-1.784 4,-4 l 8,0 0,4 1,-1 0,-1 1,0 0,1 1,0 1,0.6875 L 50,13 50,11 38,11 C 38,8.784 36.216,7 34,7 Z m 0,2 c 1.108,0 2,0.892 2,2 l 0,2 c 0,1.108 -0.892,2 -2,2 -1.108,0 -2,-0.892 -2,-2 l 0,-2 c 0,-1.108 0.892,-2 2,-2 z"
       style="fill:#e0e0e0;fill-opacity:1;fill-rule:evenodd;stroke:none"
       inkscape:connector-curvature="0" />
  </g>
</svg>
