<?xml version="1.0" encoding="UTF-8" standalone="no"?>
<svg id="svg3727" xmlns:rdf="http://www.w3.org/1999/02/22-rdf-syntax-ns#" xmlns="http://www.w3.org/2000/svg" height="22" width="22" version="1.0" xmlns:cc="http://creativecommons.org/ns#" xmlns:dc="http://purl.org/dc/elements/1.1/">
    <defs id="defs3615">
        <style id="current-color-scheme" type="text/css">
            .ColorScheme-Text {
            color:#0000FF;
            }
            .ColorScheme-Background{
            color:#E9E8E8;
            }
            .ColorScheme-ViewText {
            color:#31363b;
            }
            .ColorScheme-ViewBackground{
            color:#ffffff;
            }
            .ColorScheme-ViewHover {
            }
            .ColorScheme-ViewFocus{
            color:#5a5a5a;
            }
            .ColorScheme-ButtonText {
            color:#31363b;
            }
            .ColorScheme-ButtonBackground{
            color:#E9E8E8;
            }
            .ColorScheme-ButtonHover {
            color:#1489ff;
            }
            .ColorScheme-ButtonFocus{
            color:#2B74C7;
            }
        </style>
    </defs>
	<metadata id="metadata244">
		<rdf:RDF>
			<cc:Work rdf:about="">
				<dc:format>image/svg+xml</dc:format>
				<dc:type rdf:resource="http://purl.org/dc/dcmitype/StillImage"/>
				<dc:title/>
				<dc:creator>
					<cc:Agent>
						<dc:title>obnosim</dc:title>
					</cc:Agent>
				</dc:creator>
				<cc:license rdf:resource="http://creativecommons.org/licenses/by-nc-sa/3.0/"/>
			</cc:Work>
			<cc:License rdf:about="http://creativecommons.org/licenses/by-nc-sa/3.0/">
				<cc:permits rdf:resource="http://creativecommons.org/ns#Reproduction"/>
				<cc:permits rdf:resource="http://creativecommons.org/ns#Distribution"/>
				<cc:requires rdf:resource="http://creativecommons.org/ns#Notice"/>
				<cc:requires rdf:resource="http://creativecommons.org/ns#Attribution"/>
				<cc:prohibits rdf:resource="http://creativecommons.org/ns#CommercialUse"/>
				<cc:permits rdf:resource="http://creativecommons.org/ns#DerivativeWorks"/>
				<cc:requires rdf:resource="http://creativecommons.org/ns#ShareAlike"/>
			</cc:License>
		</rdf:RDF>
	</metadata>
	<g id="wallet-closed" transform="translate(-29,-1)">
		<rect id="rect3005" style="opacity:.125;fill:none" height="22" width="22" y="1" x="1"/>
		<path id="path3775" d="m12 1c-3.3137 0-6 2.6863-6 6s2.6863 6 6 6 6-2.6863 6-6-2.6863-6-6-6zm0 1c2.7614 0 5 2.2386 5 5s-2.2386 5-5 5-5-2.2386-5-5 2.2386-5 5-5z" style="fill:currentColor;opacity:.875" class="ColorScheme-Text"/>
		<path id="path3780" style="fill:currentColor;opacity:.875" class="ColorScheme-Text" d="m10.5 10.812c-.82843 0-1.5 1.1193-1.5 2.5 0 1.0958.41131 2.0061 1 2.3438v3.344l-1 1v1l1-1v1l-1 1v1l1-1h1v-1-2-3.3438c.58869-.33764 1-1.248 1-2.3438 0-1.3807-.67157-2.5-1.5-2.5zm.09375 1c.33137 0 .59375.67157.59375 1.5s-.26238 1.5-.59375 1.5-.59375-.67157-.59375-1.5.26238-1.5.59375-1.5z"/>
		<path id="path3785" style="fill:currentColor;opacity:.875" class="ColorScheme-Text" d="m7.6875 8.8125c-.82843 0-1.5 1.1193-1.5 2.5 0 .95458.34058 1.7663.8125 2.1875v3.5h-2v1h1v1h-1v1h2 1v-6.25c.68352-.23312 1.1875-1.2294 1.1875-2.4375 0-1.3807-.67157-2.5-1.5-2.5zm.09375 1c.33137 0 .59375.67157.59375 1.5s-.26238 1.5-.59375 1.5-.59375-.67157-.59375-1.5.26238-1.5.59375-1.5z"/>
		<path id="path3787" style="fill:currentColor;opacity:.875" class="ColorScheme-Text" d="m13.5 10.812c-.82843 0-1.5 1.1193-1.5 2.5 0 1.0958.41131 2.0061 1 2.3438v3.344 2 1h1l1 1v-1l-1-1v-1l1 1v-1l-1-1v-3.3438c.58869-.33764 1-1.248 1-2.3438 0-1.3807-.67157-2.5-1.5-2.5zm-.09375 1c.33137 0 .59375.67157.59375 1.5s-.26238 1.5-.59375 1.5-.59375-.67157-.59375-1.5.26238-1.5.59375-1.5z"/>
		<path id="path3789" style="fill:currentColor;opacity:.875" class="ColorScheme-Text" d="m16.312 8.8125c-.82843 0-1.5 1.1193-1.5 2.5 0 1.2081.50398 2.2044 1.1875 2.4375v6.25h1 2v-1h-1v-1h1v-1h-2v-3.5c.47192-.42117.8125-1.2329.8125-2.1875 0-1.3807-.67157-2.5-1.5-2.5zm-.09375 1c.33137 0 .59375.67157.59375 1.5s-.26238 1.5-.59375 1.5-.59375-.67157-.59375-1.5.26238-1.5.59375-1.5z"/>
	</g>
	<g id="wallet-open" transform="translate(-29,-1)">
		<rect id="rect3834" style="opacity:.375;fill:none" height="22" width="22" y="1" x="29"/>
		<path id="rect3864" style="fill:currentColor;opacity:.875" class="ColorScheme-Text" d="m34 7c-2.216 0-4 1.784-4 4v2c0 2.216 1.784 4 4 4s4-1.784 4-4h8v4l1-1v-1h1v1h1l1 .6875v-3.688-2h-12c0-2.216-1.784-4-4-4zm0 2c1.108 0 2 .892 2 2v2c0 1.108-.892 2-2 2s-2-.892-2-2v-2c0-1.108.892-2 2-2z"/>
	</g>
</svg>
