<?xml version="1.0" encoding="UTF-8" standalone="no"?>
<!-- Created with Inkscape (http://www.inkscape.org/) -->

<svg
   xmlns:dc="http://purl.org/dc/elements/1.1/"
   xmlns:cc="http://creativecommons.org/ns#"
   xmlns:rdf="http://www.w3.org/1999/02/22-rdf-syntax-ns#"
   xmlns:svg="http://www.w3.org/2000/svg"
   xmlns="http://www.w3.org/2000/svg"
   xmlns:sodipodi="http://sodipodi.sourceforge.net/DTD/sodipodi-0.dtd"
   xmlns:inkscape="http://www.inkscape.org/namespaces/inkscape"
   version="1.1"
   width="22"
   height="21.999996"
   id="svg3439"
   inkscape:version="0.91 r13725"
   sodipodi:docname="weather.svg">
  <sodipodi:namedview
     pagecolor="#323232"
     bordercolor="#666666"
     borderopacity="1"
     objecttolerance="10"
     gridtolerance="10"
     guidetolerance="10"
     inkscape:pageopacity="1"
     inkscape:pageshadow="2"
     inkscape:window-width="1920"
     inkscape:window-height="1056"
     id="namedview252"
     showgrid="false"
     inkscape:zoom="2"
     inkscape:cx="16.514628"
     inkscape:cy="83.928188"
     inkscape:window-x="0"
     inkscape:window-y="-3"
     inkscape:window-maximized="1"
     inkscape:current-layer="svg3439"
     inkscape:showpageshadow="false"
     showborder="false"
     fit-margin-top="0"
     fit-margin-left="0"
     fit-margin-right="0"
     fit-margin-bottom="0"
     showguides="false">
    <inkscape:grid
       type="xygrid"
       id="grid3228"
       empspacing="4"
       visible="true"
       enabled="true"
       snapvisiblegridlinesonly="true"
       originx="187"
       originy="107" />
  </sodipodi:namedview>
  <defs
     id="defs3441" />
  <metadata
     id="metadata3444">
    <rdf:RDF>
      <cc:Work
         rdf:about="">
        <dc:format>image/svg+xml</dc:format>
        <dc:type
           rdf:resource="http://purl.org/dc/dcmitype/StillImage" />
        <dc:title />
        <dc:creator>
          <cc:Agent>
            <dc:title>obnosim</dc:title>
          </cc:Agent>
        </dc:creator>
        <cc:license
           rdf:resource="http://creativecommons.org/licenses/by-nc-sa/3.0/" />
      </cc:Work>
      <cc:License
         rdf:about="http://creativecommons.org/licenses/by-nc-sa/3.0/">
        <cc:permits
           rdf:resource="http://creativecommons.org/ns#Reproduction" />
        <cc:permits
           rdf:resource="http://creativecommons.org/ns#Distribution" />
        <cc:requires
           rdf:resource="http://creativecommons.org/ns#Notice" />
        <cc:requires
           rdf:resource="http://creativecommons.org/ns#Attribution" />
        <cc:prohibits
           rdf:resource="http://creativecommons.org/ns#CommercialUse" />
        <cc:permits
           rdf:resource="http://creativecommons.org/ns#DerivativeWorks" />
        <cc:requires
           rdf:resource="http://creativecommons.org/ns#ShareAlike" />
      </cc:License>
    </rdf:RDF>
  </metadata>
  <g
     id="weather-clear-night-4"
     transform="matrix(0.72083331,0,0,0.72083331,147.10194,-95.36303)" />
  <g
     id="weather-clear-night"
     transform="translate(187,-109)">
    <rect
       y="-3.0000029"
       x="-159"
       height="22"
       width="22"
       id="rect4384"
       style="fill:none;stroke:none" />
    <path
       inkscape:connector-curvature="0"
       id="path4386"
       d="m -148,0 c -4.41828,0 -8,3.581722 -8,8 0,4.418277 3.58172,8 8,8 4.41828,0 8,-3.581723 8,-8 0,-0.3776433 -0.0327,-0.761294 -0.0833,-1.125 C -140.50997,9.7704705 -142.98599,12 -146,12 c -3.31371,0 -6,-2.6862915 -6,-6 0,-3.0140128 2.22953,-5.4900272 5.125,-5.9166667 C -147.23871,0.032714 -147.62236,0 -148,0 Z"
       style="color:#000000;display:inline;overflow:visible;visibility:visible;fill:#e0e0e0;fill-opacity:1;fill-rule:nonzero;stroke:none;stroke-width:1px;marker:none;enable-background:accumulate" />
  </g>
  <g
     id="weather-clear"
     transform="translate(187,-109)">
    <rect
       style="fill:none;stroke:none"
       id="rect4246"
       width="22"
       height="22"
       x="-187"
       y="-3.0000029" />
    <path
       d="m -172.93301,1.6878237 c -0.13554,0.2267693 -0.0493,0.5570838 0.17946,0.6891788 0.22878,0.13209 0.55773,0.041497 0.68656,-0.1891838 l 1.567,-3.7140966 z m 2.74519,2.3791594 c -0.23077,0.1286186 -0.32124,0.4578041 -0.18918,0.6865724 0.13209,0.2287883 0.46226,0.3148101 0.68918,0.1794553 l 3.2141,-2.4330099 z M -169,7.5000074 c -0.26416,-0.004 -0.50712,0.23581 -0.50712,0.5 0,0.26418 0.24293,0.50376 0.50712,0.49999 l 4,-0.49999 z m -0.68782,3.5669796 c -0.22677,-0.13554 -0.55709,-0.0493 -0.68918,0.17945 -0.13209,0.22879 -0.0415,0.55774 0.18918,0.68658 l 3.7141,1.56699 z m -2.37917,2.74519 c -0.12861,-0.23076 -0.45778,-0.32127 -0.68657,-0.18918 -0.22879,0.13209 -0.31477,0.46229 -0.17945,0.68918 l 2.43301,3.2141 z m -3.43302,1.18782 c 0.004,-0.26416 -0.23581,-0.50712 -0.5,-0.50712 -0.26418,0 -0.50376,0.24293 -0.49999,0.50712 l 0.49999,4 z m -3.56698,-0.68782 c 0.13554,-0.22677 0.0493,-0.55709 -0.17945,-0.68918 -0.22879,-0.13209 -0.55774,-0.0415 -0.68658,0.18918 l -1.56699,3.7141 z m -2.74519,-2.37917 c 0.23076,-0.12861 0.32127,-0.45778 0.18918,-0.68657 -0.13209,-0.22879 -0.46229,-0.31477 -0.68918,-0.17945 l -3.2141,2.43301 z M -183,8.4999958 c 0.26416,0.004 0.50712,-0.235817 0.50712,-0.4999987 0,-0.2641815 -0.24293,-0.5037621 -0.50712,-0.499999 l -4,0.4999981 z m 0.68782,-3.5669874 c 0.22677,0.1355443 0.55709,0.049338 0.68918,-0.1794505 0.13209,-0.2287883 0.0415,-0.5577344 -0.18918,-0.6865722 l -3.7141,-1.5669886 z m 2.37917,-2.7451878 c 0.12861,0.2307661 0.45778,0.3212697 0.68657,0.1891797 0.22879,-0.13209 0.31477,-0.4622836 0.17945,-0.6891797 L -181.5,-1.526281 Z M -176.5,1 c -0.004,0.2641563 0.23582,0.507121 0.5,0.507121 0.26418,0 0.50374,-0.2429647 0.5,-0.507121 l -0.5,-4 z m 6.5,7 c 0,3.313708 -2.68629,6 -6,6 -3.31371,0 -6,-2.686292 -6,-6 0,-3.3137085 2.68629,-6 6,-6 3.31371,0 6,2.6862915 6,6 z"
       style="color:#000000;font-style:normal;font-variant:normal;font-weight:normal;font-stretch:normal;font-size:medium;line-height:normal;font-family:Sans;-inkscape-font-specification:Sans;text-indent:0;text-align:start;text-decoration:none;text-decoration-line:none;letter-spacing:normal;word-spacing:normal;text-transform:none;direction:ltr;block-progression:tb;writing-mode:lr-tb;baseline-shift:baseline;text-anchor:start;display:inline;overflow:visible;visibility:visible;fill:#e0e0e0;fill-opacity:1;fill-rule:nonzero;stroke:none;stroke-width:1;marker:none;enable-background:accumulate"
       id="path4465"
       inkscape:connector-curvature="0" />
  </g>
  <g
     id="weather-many-clouds"
     transform="translate(187,-109)">
    <rect
       y="24.999996"
       x="-215"
       height="22"
       width="22"
       id="rect4252"
       style="fill:none;stroke:none" />
    <path
       inkscape:connector-curvature="0"
       id="path4467"
       d="m -205,29 c -1.86319,0 -3.39908,1.275691 -3.84375,3 -0.0518,-0.004 -0.10346,0 -0.15625,0 -1.10457,0 -2,0.895431 -2,2 0,0.05279 -0.004,0.104488 0,0.15625 -1.72431,0.444672 -3,1.980562 -3,3.84375 0,2.209139 1.79086,4 4,4 l 12.5,0 c 1.933,0 3.5,-1.567003 3.5,-3.5 0,-1.786118 -1.33418,-3.255115 -3.0625,-3.46875 C -197.025,34.859145 -197,34.683331 -197,34.5 c 0,-1.380712 -1.11929,-2.5 -2.5,-2.5 -0.5914,0 -1.13444,0.219206 -1.5625,0.5625 C -201.28217,30.561022 -202.94002,29 -205,29 Z"
       style="color:#000000;display:inline;overflow:visible;visibility:visible;fill:#e0e0e0;fill-opacity:1;fill-rule:nonzero;stroke:none;stroke-width:1px;marker:none;enable-background:accumulate" />
  </g>
  <g
     id="weather-clouds"
     transform="translate(187,-109)">
    <rect
       y="24.999996"
       x="-187"
       height="22"
       width="22"
       id="rect4254"
       style="fill:none;stroke:none" />
    <path
       sodipodi:nodetypes="ccsccccscccccccsccscssccccccccccscccccccscsscsssscsscs"
       inkscape:connector-curvature="0"
       d="m -173,25 -0.375,2.90625 c -0.003,0.192114 0.18287,0.375 0.375,0.375 0.19213,0 0.37772,-0.182886 0.375,-0.375 z m -4,1.0625 1.125,2.71875 c 0.0935,0.16783 0.33361,0.221065 0.5,0.125 0.1664,-0.09607 0.25467,-0.334985 0.15625,-0.5 z m 8,0 -1.78125,2.34375 c -0.0986,0.164923 -0.0102,0.403931 0.15625,0.5 0.16639,0.09606 0.40631,0.04277 0.5,-0.125 z m -4,2.5625 c -1.27638,0 -2.42081,0.563938 -3.21875,1.4375 1.78016,0.29616 3.20113,1.586626 3.8125,3.25 C -172.09321,33.21718 -171.84603,33 -171.5,33 c 1.07137,0 2.01948,0.510706 2.65625,1.28125 0.1275,-0.409915 0.21875,-0.829381 0.21875,-1.28125 0,-2.40997 -1.96503,-4.375 -4.375,-4.375 z m -6.9375,0.375 1.59375,1.21875 c 0.29536,-0.08723 0.58881,-0.158745 0.90625,-0.1875 z m 13.875,0 -2.71875,1.125 c -0.16783,0.09354 -0.22104,0.333624 -0.125,0.5 0.0961,0.166392 0.33496,0.25469 0.5,0.15625 z m -1.84375,3.625 c -0.19212,-0.0029 -0.375,0.182862 -0.375,0.375 0,0.192131 0.18286,0.377742 0.375,0.375 L -165,33 Z m -0.3125,2.71875 c 0.096,0.269683 0.12843,0.549406 0.15625,0.84375 l 2,0.8125 z M -177,31 c -1.86319,0 -3.39908,1.275691 -3.84375,3 -0.0518,-0.004 -0.10346,0 -0.15625,0 -1.10457,0 -2,0.895431 -2,2 0,0.05279 -0.004,0.104488 0,0.15625 -1.72431,0.444672 -3,1.980562 -3,3.84375 0,2.209139 1.79086,4 4,4 l 12.5,0 c 1.933,0 3.5,-1.567003 3.5,-3.5 0,-1.786118 -1.33418,-3.255115 -3.0625,-3.46875 C -169.025,36.859145 -169,36.683331 -169,36.5 c 0,-1.380712 -1.11929,-2.5 -2.5,-2.5 -0.5914,0 -1.13444,0.219206 -1.5625,0.5625 C -173.28217,32.561022 -174.94002,31 -177,31 Z"
       style="color:#000000;font-style:normal;font-variant:normal;font-weight:normal;font-stretch:normal;font-size:medium;line-height:normal;font-family:Sans;-inkscape-font-specification:Sans;text-indent:0;text-align:start;text-decoration:none;text-decoration-line:none;letter-spacing:normal;word-spacing:normal;text-transform:none;direction:ltr;block-progression:tb;writing-mode:lr-tb;baseline-shift:baseline;text-anchor:start;display:inline;overflow:visible;visibility:visible;fill:#e0e0e0;fill-opacity:1;fill-rule:nonzero;stroke:none;stroke-width:1;marker:none;enable-background:accumulate"
       id="path4486" />
  </g>
  <g
     id="weather-clouds-night"
     transform="translate(187,-109)">
    <rect
       style="fill:none;stroke:none"
       id="rect4256"
       width="22"
       height="22"
       x="-159"
       y="24.999996" />
    <path
       sodipodi:nodetypes="scsccsccccscscsscsssscsscs"
       inkscape:connector-curvature="0"
       d="m -144,26 c -2.63371,0 -4.8489,1.702361 -5.65625,4.0625 C -149.44171,30.033197 -149.22354,30 -149,30 c 0.71754,0 1.39481,0.155422 2,0.4375 0.0316,-2.231159 1.69291,-4.058079 3.84375,-4.375 C -143.42903,26.024536 -143.71677,26 -144,26 Z m 5.9375,5.15625 c -0.22412,1.521009 -1.21982,2.778217 -2.5625,3.40625 0.34154,0.510051 0.55697,1.102668 0.59375,1.75 0.0447,0.01567 0.081,0.04554 0.125,0.0625 C -138.73637,35.280113 -138,33.728732 -138,32 c 0,-0.283232 -0.0245,-0.57097 -0.0625,-0.84375 z M -149,31 c -1.86319,0 -3.39908,1.275691 -3.84375,3 -0.0518,-0.004 -0.10346,0 -0.15625,0 -1.10457,0 -2,0.895431 -2,2 0,0.05279 -0.004,0.104488 0,0.15625 -1.72431,0.444672 -3,1.980562 -3,3.84375 0,2.209139 1.79086,4 4,4 l 12.5,0 c 1.933,0 3.5,-1.567003 3.5,-3.5 0,-1.786118 -1.33418,-3.255115 -3.0625,-3.46875 C -141.025,36.859145 -141,36.683331 -141,36.5 c 0,-1.380712 -1.11929,-2.5 -2.5,-2.5 -0.5914,0 -1.13444,0.219206 -1.5625,0.5625 C -145.28217,32.561022 -146.94002,31 -149,31 Z"
       style="color:#000000;display:inline;overflow:visible;visibility:visible;fill:#e0e0e0;fill-opacity:1;fill-rule:nonzero;stroke:none;stroke-width:1px;marker:none;enable-background:accumulate"
       id="path4499" />
  </g>
  <g
     id="weather-few-clouds-day"
     transform="translate(187,-109)">
    <rect
       style="fill:none;stroke:none"
       id="rect4262"
       width="22"
       height="22"
       x="-187"
       y="52.999996" />
    <path
       sodipodi:nodetypes="ccsccccscccccccsscscscccssccsccscccccccccscccccsccccscccccccccccccccscsscsssscsscsscsscsssscsscs"
       inkscape:connector-curvature="0"
       d="m -176,53 -0.5,4 c -0.004,0.264156 0.23582,0.5 0.5,0.5 0.26418,0 0.50374,-0.235844 0.5,-0.5 z m -5.5,1.46875 1.5625,3.71875 c 0.12861,0.230766 0.45871,0.31959 0.6875,0.1875 0.22879,-0.13209 0.32282,-0.460604 0.1875,-0.6875 z m 11,0 -2.4375,3.21875 c -0.0796,0.133227 -0.0574,0.293986 0,0.4375 0.35649,-0.627448 0.85523,-1.166285 1.5,-1.4375 z M -176,58 c -3.31371,0 -6,2.686291 -6,6 0,0.176118 0.0164,0.358985 0.0312,0.53125 0.15402,-0.02927 0.30304,-0.03125 0.46875,-0.03125 1.10876,0 1.92409,0.721351 2.4375,1.625 0.11624,-0.01926 0.19018,-0.125 0.3125,-0.125 1.11063,0 1.95236,0.871097 2.125,1.9375 0.80798,0.397908 1.45508,1.075426 1.59375,1.96875 2.53301,-0.408209 4.51657,-2.377523 4.9375,-4.90625 l -4.15625,0 c -1.50694,0 -2.75,-1.243062 -2.75,-2.75 0,-1.075843 0.71238,-1.863061 1.625,-2.3125 0.1156,-0.714049 0.52958,-1.320207 1.125,-1.65625 C -174.80514,58.111692 -175.38936,58 -176,58 Z m -9.53125,0.5 3.21875,2.4375 c 0.22677,0.135545 0.55541,0.04129 0.6875,-0.1875 0.13209,-0.228788 0.0432,-0.558663 -0.1875,-0.6875 z m 19.0625,0 -0.65625,0.28125 c 0.0389,0.04425 0.0903,0.07668 0.125,0.125 z m -16.53125,5 -4,0.5 4,0.5 c 0.26416,0.004 0.5,-0.235818 0.5,-0.5 0,-0.264181 -0.23581,-0.503763 -0.5,-0.5 z m 17.3125,0.40625 c -0.0563,0.0681 -0.12554,0.124573 -0.1875,0.1875 L -165,64 Z M -169.875,67 c -0.19476,-0.0222 -0.40093,0.07844 -0.5,0.25 -0.13209,0.22879 -0.0432,0.55866 0.1875,0.6875 l 3.71875,1.5625 -3.21875,-2.4375 c -0.0567,-0.03388 -0.12258,-0.0551 -0.1875,-0.0625 z m -2.68755,2.5625 c -0.065,0.0065 -0.1303,0.02948 -0.1875,0.0625 -0.22879,0.13209 -0.32282,0.46061 -0.1875,0.6875 l 2.4375,3.21875 -1.5625,-3.71875 c -0.0965,-0.17307 -0.30487,-0.269453 -0.5,-0.25 z m -3.0625,2.40625 c -0.19227,0.236242 -0.42884,0.431206 -0.6875,0.59375 L -176,75 l 0.375,-3.03125 z M -181.28125,73 -181.5,73.53125 -181.09375,73 Z m 10.78129,-15.5 c 0.9316,0 1.69954,0.637845 1.92188,1.5 0.0259,-0.002 0.0517,0 0.0781,0 0.55228,0 1,0.447715 1,1 0,0.0264 0.002,0.05224 0,0.07813 0.86215,0.222336 1.5,0.990281 1.5,1.921875 0,1.10457 -0.89543,2 -2,2 l -6.25,0 c -0.9665,0 -1.75,-0.783501 -1.75,-1.75 0,-0.893059 0.66709,-1.627557 1.53125,-1.734375 -0.0187,-0.08605 -0.0312,-0.173959 -0.0312,-0.265625 0,-0.690356 0.55965,-1.25 1.25,-1.25 0.2957,0 0.56722,0.109603 0.78125,0.28125 0.10981,-1.000744 0.93873,-1.781255 1.96872,-1.781255 z m -11.00004,8 c -0.9316,0 -1.69954,0.637845 -1.92188,1.5 -0.0259,-0.002 -0.0517,0 -0.0781,0 -0.55228,0 -1,0.447715 -1,1 0,0.0264 -0.002,0.05224 0,0.07813 -0.86215,0.222336 -1.5,0.990281 -1.5,1.921875 0,1.10457 0.89543,2 2,2 l 6.25,0 c 0.9665,0 1.75,-0.783501 1.75,-1.75 0,-0.893059 -0.66709,-1.627557 -1.53125,-1.734375 0.0187,-0.08605 0.0312,-0.173959 0.0312,-0.265625 0,-0.690356 -0.55965,-1.25 -1.25,-1.25 -0.2957,0 -0.56722,0.109603 -0.78125,0.28125 C -179.64109,66.280511 -180.47001,65.5 -181.5,65.5 Z"
       style="color:#000000;font-style:normal;font-variant:normal;font-weight:normal;font-stretch:normal;font-size:medium;line-height:normal;font-family:Sans;-inkscape-font-specification:Sans;text-indent:0;text-align:start;text-decoration:none;text-decoration-line:none;letter-spacing:normal;word-spacing:normal;text-transform:none;direction:ltr;block-progression:tb;writing-mode:lr-tb;baseline-shift:baseline;text-anchor:start;display:inline;overflow:visible;visibility:visible;fill:#e0e0e0;fill-opacity:1;fill-rule:nonzero;stroke:none;stroke-width:1;marker:none;enable-background:accumulate"
       id="path4529" />
  </g>
  <g
     id="weather-few-clouds-night"
     transform="translate(187,-109)">
    <rect
       y="52.999996"
       x="-159"
       height="22"
       width="22"
       id="rect4264"
       style="fill:none;stroke:none" />
    <path
       d="m -148,56 c -4.41828,0 -8,3.581722 -8,8 0,0.632697 0.0799,1.253423 0.21875,1.84375 0.51642,-0.773365 1.28444,-1.34375 2.28125,-1.34375 1.10876,0 1.92409,0.721351 2.4375,1.625 0.11624,-0.01926 0.19018,-0.125 0.3125,-0.125 0.10698,0 0.21087,0.01569 0.3125,0.03125 C -151.40594,64.965727 -152,63.553301 -152,62 c 0,-3.014013 2.22953,-5.47961 5.125,-5.90625 C -147.23871,56.043131 -147.62236,56 -148,56 Z m 7.1875,9 c -1.03219,1.794811 -2.96714,3 -5.1875,3 -1.01089,0 -1.97684,-0.245959 -2.8125,-0.6875 0.0896,0.198096 0.15175,0.404147 0.1875,0.625 0.91262,0.449439 1.625,1.236657 1.625,2.3125 0,0.66708 -0.25401,1.271278 -0.65625,1.75 3.92031,-0.167874 7.11406,-3.168386 7.59375,-7 z m -1.68746,-7.5 c 0.9316,0 1.69954,0.637845 1.92188,1.5 0.0259,-0.002 0.0517,0 0.0781,0 0.55228,0 1,0.447715 1,1 0,0.0264 0.002,0.05224 0,0.07813 0.86215,0.222336 1.5,0.990281 1.5,1.921875 0,1.10457 -0.89543,2 -2,2 l -6.25,0 c -0.9665,0 -1.75,-0.783501 -1.75,-1.75 0,-0.893059 0.66709,-1.627557 1.53125,-1.734375 -0.0187,-0.08605 -0.0312,-0.173959 -0.0312,-0.265625 0,-0.690356 0.55965,-1.25 1.25,-1.25 0.2957,0 0.56722,0.109603 0.78125,0.28125 0.10981,-1.000744 0.93873,-1.781255 1.96872,-1.781255 z m -11.00004,8 c -0.9316,0 -1.69954,0.637845 -1.92188,1.5 -0.0259,-0.002 -0.0517,0 -0.0781,0 -0.55228,0 -1,0.447715 -1,1 0,0.0264 -0.002,0.05224 0,0.07813 -0.86215,0.222336 -1.5,0.990281 -1.5,1.921875 0,1.10457 0.89543,2 2,2 l 6.25,0 c 0.9665,0 1.75,-0.783501 1.75,-1.75 0,-0.893059 -0.66709,-1.627557 -1.53125,-1.734375 0.0187,-0.08605 0.0312,-0.173959 0.0312,-0.265625 0,-0.690356 -0.55965,-1.25 -1.25,-1.25 -0.2957,0 -0.56722,0.109603 -0.78125,0.28125 C -151.64109,66.280511 -152.47001,65.5 -153.5,65.5 Z"
       style="color:#000000;display:inline;overflow:visible;visibility:visible;fill:#e0e0e0;fill-opacity:1;fill-rule:nonzero;stroke:none;stroke-width:1px;marker:none;enable-background:accumulate"
       id="path4531"
       inkscape:connector-curvature="0" />
  </g>
  <g
     id="weather-showers-day"
     transform="translate(187,-109)">
    <rect
       y="81"
       x="-187"
       height="21.999996"
       width="22"
       id="rect4270"
       style="fill:none;stroke:none" />
    <path
       sodipodi:nodetypes="ccsccccccccccccsccssccccccccccccscccccccccccccccccccccccccccccccccccccccccccccccccccccccccccccccccccccccccccccccccccccccccccccccccccccccccccccccccccccccccccccccccccccccccccccccccccccccccccccccccccccccccccccccccccccccccccccccccccccccccccccccccccccccccccccccccccccccccccccccccccccccccccccccccsscsssscssccc"
       inkscape:connector-curvature="0"
       d="m -169,81 -0.1875,1.46875 c -0.001,0.09606 0.0914,0.15625 0.1875,0.15625 0.0961,0 0.18886,-0.06019 0.1875,-0.15625 z m -2,0.53125 0.5625,1.34375 c 0.0468,0.08391 0.1668,0.141785 0.25,0.09375 0.0832,-0.04803 0.11176,-0.167492 0.0625,-0.25 z m 4,0 -0.875,1.1875 c -0.0493,0.08246 -0.0207,0.201965 0.0625,0.25 0.0832,0.04803 0.20315,-0.0099 0.25,-0.09375 z m -2,1.28125 c -1.086,0 -1.95771,0.804947 -2.125,1.84375 1.19245,0.31663 2.13471,1.277724 2.34375,2.5 1.1002,-0.111732 1.96875,-1.026581 1.96875,-2.15625 0,-1.204985 -0.98251,-2.1875 -2.1875,-2.1875 z m -3.46875,0.1875 1.1875,0.875 c 0.0825,0.04929 0.20197,0.02069 0.25,-0.0625 0.048,-0.0832 -0.01,-0.20315 -0.0937,-0.25 z m 6.9375,0 -1.34375,0.5625 c -0.0839,0.04677 -0.14176,0.166811 -0.0937,0.25 0.048,0.0832 0.16748,0.111716 0.25,0.0625 L -165.5312,83 Z m -0.9375,1.8125 c -0.096,-0.0015 -0.15625,0.09143 -0.15625,0.1875 0,0.09606 0.0601,0.188871 0.15625,0.1875 L -165,85 Z m -0.375,1.28125 c -0.0463,0.01209 -0.10099,0.05215 -0.125,0.09375 -0.048,0.0832 0.01,0.20315 0.0937,0.25 l 1.34375,0.5625 -1.1875,-0.875 c -0.0412,-0.02465 -0.0787,-0.04334 -0.125,-0.03125 z m -0.96875,0.9375 c -0.0832,0.048 -0.11176,0.16749 -0.0625,0.25 l 0.875,1.1875 -0.5625,-1.34375 c -0.0468,-0.0839 -0.1668,-0.14178 -0.25,-0.09375 z m -3.71875,7.8125 0.96875,0.28125 0.125,-0.5 -0.96875,-0.25 z m -0.28125,0.96875 0.96875,0.28125 0.125,-0.5 -0.9375,-0.25 z m -0.25,0.96875 0.96875,0.25 0.125,-0.46875 -0.96875,-0.25 z m -0.25,0.96875 0.96875,0.25 0.125,-0.46875 -0.96875,-0.25 z m -0.25,0.96875 0.9375,0.25 0.15625,-0.46875 -0.96875,-0.28125 z m -0.28125,0.96875 0.96875,0.25 0.125,-0.46875 -0.96875,-0.28125 z m -0.25,0.96875 0.96875,0.25 0.125,-0.46875 -0.96875,-0.28125 z m -0.43755,-5.8125 0.96875,0.28125 0.125,-0.5 -0.96875,-0.25 z m -0.28125,0.96875 0.96875,0.28125 0.125,-0.5 -0.9375,-0.25 z m -0.25,0.96875 0.96875,0.25 0.125,-0.46875 -0.96875,-0.25 z m -0.25,0.96875 0.96875,0.25 0.125,-0.46875 -0.96875,-0.25 z m -0.25,0.96875 0.9375,0.25 0.15625,-0.46875 -0.96875,-0.28125 z m -0.28125,0.96875 0.96875,0.25 0.125,-0.46875 -0.96875,-0.28125 z m -0.25,0.96875 0.96875,0.25 0.125,-0.46875 -0.96875,-0.28125 z m -0.25,0.96875 0.96875,0.25 0.125,-0.46875 -0.96875,-0.28125 z m -0.18755,-6.78125 0.96875,0.28125 0.125,-0.5 -0.96875,-0.25 z m -0.28125,0.96875 0.96875,0.28125 0.125,-0.5 -0.9375,-0.25 z m -0.25,0.96875 0.96875,0.25 0.125,-0.46875 -0.96875,-0.25 z m -0.25,0.96875 0.96875,0.25 0.125,-0.46875 -0.96875,-0.25 z m -0.25,0.96875 0.9375,0.25 0.15625,-0.46875 -0.96875,-0.28125 z m -0.28125,0.96875 0.96875,0.25 0.125,-0.46875 -0.96875,-0.28125 z m -0.25,0.96875 0.96875,0.25 0.125,-0.46875 -0.96875,-0.28125 z m -0.25,0.96875 0.96875,0.25 0.125,-0.46875 -0.96875,-0.28125 z m -0.21875,0.75 0.96875,0.25 0.0625,-0.28125 -0.9375,-0.25 z m 0.0312,-7.53125 0.96875,0.28125 0.125,-0.5 -0.96875,-0.25 z m -0.28125,0.96875 0.96875,0.28125 0.125,-0.5 -0.9375,-0.25 z m -0.25,0.96875 0.96875,0.25 0.125,-0.46875 -0.96875,-0.25 z m -0.25,0.96875 0.96875,0.25 0.125,-0.46875 -0.96875,-0.25 z m -0.25,0.96875 0.9375,0.25 0.15625,-0.46875 -0.96875,-0.28125 z m -0.28125,0.96875 0.96875,0.25 0.125,-0.46875 -0.96875,-0.28125 z m -0.25,0.96875 0.96875,0.25 0.125,-0.46875 -0.96875,-0.28125 z m -0.25,0.96875 0.96875,0.25 0.125,-0.46875 -0.96875,-0.28125 z m -0.21875,0.75 0.96875,0.25 0.0625,-0.28125 -0.9375,-0.25 z m 0.0312,-7.53125 0.96875,0.28125 0.125,-0.5 -0.96875,-0.25 z m -0.28125,0.96875 0.96875,0.28125 0.125,-0.5 -0.9375,-0.25 z m -0.25,0.96875 0.96875,0.25 0.125,-0.46875 -0.96875,-0.25 z m -0.25,0.96875 0.96875,0.25 0.125,-0.46875 -0.96875,-0.25 z m -0.25,0.96875 0.9375,0.25 0.15625,-0.46875 -0.96875,-0.28125 z m -0.28125,0.96875 0.96875,0.25 0.125,-0.46875 -0.96875,-0.28125 z m -0.25,0.96875 0.96875,0.25 0.125,-0.46875 -0.96875,-0.28125 z m -0.25,0.96875 0.96875,0.25 0.125,-0.46875 -0.96875,-0.28125 z m -0.18755,-6.78125 0.96875,0.28125 0.125,-0.5 -0.96875,-0.25 z m -0.28125,0.96875 0.96875,0.28125 0.125,-0.5 -0.9375,-0.25 z m -0.25,0.96875 0.96875,0.25 0.125,-0.46875 -0.96875,-0.25 z m -0.25,0.96875 0.96875,0.25 0.125,-0.46875 -0.96875,-0.25 z m -0.25,0.96875 0.9375,0.25 0.15625,-0.46875 -0.96875,-0.28125 z m -0.28125,0.96875 0.96875,0.25 0.125,-0.46875 -0.96875,-0.28125 z m -0.25,0.96875 0.96875,0.25 0.125,-0.46875 -0.96875,-0.28125 z M -176.89995,83 c -1.67692,0 -3.05912,1.079431 -3.45933,2.53846 -0.0466,-0.004 -0.0931,0 -0.14067,0 -0.99413,0 -1.8001,0.757671 -1.8001,1.692305 0,0.04465 -0.004,0.08846 0,0.13222 C -183.85181,87.739242 -185,89.038835 -185,90.61538 -185,92.484659 -183.38831,94 -181.4,94 l 11.25014,0 c 1.73969,0 3.14986,-1.325923 3.14986,-2.96154 0,-1.511335 -1.20062,-2.754335 -2.75621,-2.93509 0.0335,-0.145625 0.0558,-0.294399 0.0558,-0.44953 0,-1.168292 -1.00737,-2.11538 -2.25001,-2.11538 -0.53226,0 -1.02094,0.185486 -1.40626,0.47596 C -173.554,84.320862 -175.04613,83 -176.90003,83 Z"
       style="color:#000000;font-style:normal;font-variant:normal;font-weight:normal;font-stretch:normal;font-size:medium;line-height:normal;font-family:Sans;-inkscape-font-specification:Sans;text-indent:0;text-align:start;text-decoration:none;text-decoration-line:none;letter-spacing:normal;word-spacing:normal;text-transform:none;direction:ltr;block-progression:tb;writing-mode:lr-tb;baseline-shift:baseline;text-anchor:start;display:inline;overflow:visible;visibility:visible;fill:#e0e0e0;fill-opacity:1;fill-rule:nonzero;stroke:none;stroke-width:1;marker:none;enable-background:accumulate"
       id="path4573" />
  </g>
  <g
     id="weather-showers-night"
     transform="translate(187,-109)">
    <rect
       style="fill:none;stroke:none"
       id="rect4272"
       width="22"
       height="21.999996"
       x="-159"
       y="81" />
    <path
       sodipodi:nodetypes="sccscscscscccsccccccccccccccccccccccccccccccccccccccccccccccccccccccccccccccccccccccccccccccccccccccccccccccccccccccccccccccccccccccccccccccccccccccccccccccccccccccccccccccccccccccccccccccccccccccccccccccccccccccccccccccccccccccccccccccccccccccccccccccccccccsscsssscssccc"
       inkscape:connector-curvature="0"
       d="m -141,81 c -1.98661,0 -3.62558,1.44544 -3.9375,3.34375 0.0785,0.142612 0.15584,0.286174 0.21875,0.4375 0.26804,-0.07101 0.48883,-0.25 0.78125,-0.25 0.36698,0 0.70154,0.07416 1.03125,0.1875 C -142.96476,84.484903 -143,84.25198 -143,84 c 0,-1.507006 1.11477,-2.755431 2.5625,-2.96875 C -140.61935,81.00594 -140.81118,81 -141,81 Z m 3.96875,3.4375 C -137.24453,85.885235 -138.49299,87 -140,87 c -0.31066,0 -0.59318,-0.0686 -0.875,-0.15625 0.0473,0.169537 0.10715,0.35148 0.125,0.53125 0.66155,0.232633 1.2549,0.602991 1.71875,1.09375 C -137.81745,87.781955 -137,86.494159 -137,85 c 0,-0.188822 -0.006,-0.380647 -0.0312,-0.5625 z m -6.5,10.40625 0.96875,0.28125 0.125,-0.5 -0.96875,-0.25 z m -0.28125,0.96875 0.96875,0.28125 0.125,-0.5 -0.9375,-0.25 z m -0.25,0.96875 0.96875,0.25 0.125,-0.46875 -0.96875,-0.25 z m -0.25,0.96875 0.96875,0.25 0.125,-0.46875 -0.96875,-0.25 z m -0.25,0.96875 0.9375,0.25 0.15625,-0.46875 -0.96875,-0.28125 z m -0.28125,0.96875 0.96875,0.25 0.125,-0.46875 -0.96875,-0.28125 z m -0.25,0.96875 0.96875,0.25 0.125,-0.46875 -0.96875,-0.28125 z m -0.43755,-5.8125 0.96875,0.28125 0.125,-0.5 -0.96875,-0.25 z m -0.28125,0.96875 0.96875,0.28125 0.125,-0.5 -0.9375,-0.25 z m -0.25,0.96875 0.96875,0.25 0.125,-0.46875 -0.96875,-0.25 z m -0.25,0.96875 0.96875,0.25 0.125,-0.46875 -0.96875,-0.25 z m -0.25,0.96875 0.9375,0.25 0.15625,-0.46875 -0.96875,-0.28125 z m -0.28125,0.96875 0.96875,0.25 0.125,-0.46875 -0.96875,-0.28125 z m -0.25,0.96875 0.96875,0.25 0.125,-0.46875 -0.96875,-0.28125 z m -0.25,0.96875 0.96875,0.25 0.125,-0.46875 -0.96875,-0.28125 z m -0.18755,-6.78125 0.96875,0.28125 0.125,-0.5 -0.96875,-0.25 z m -0.28125,0.96875 0.96875,0.28125 0.125,-0.5 -0.9375,-0.25 z m -0.25,0.96875 0.96875,0.25 0.125,-0.46875 -0.96875,-0.25 z m -0.25,0.96875 0.96875,0.25 0.125,-0.46875 -0.96875,-0.25 z m -0.25,0.96875 0.9375,0.25 0.15625,-0.46875 -0.96875,-0.28125 z m -0.28125,0.96875 0.96875,0.25 0.125,-0.46875 -0.96875,-0.28125 z m -0.25,0.96875 0.96875,0.25 0.125,-0.46875 -0.96875,-0.28125 z m -0.25,0.96875 0.96875,0.25 0.125,-0.46875 -0.96875,-0.28125 z m -0.21875,0.75 0.96875,0.25 0.0625,-0.28125 -0.9375,-0.25 z m 0.0312,-7.53125 0.96875,0.28125 0.125,-0.5 -0.96875,-0.25 z m -0.28125,0.96875 0.96875,0.28125 0.125,-0.5 -0.9375,-0.25 z m -0.25,0.96875 0.96875,0.25 0.125,-0.46875 -0.96875,-0.25 z m -0.25,0.96875 0.96875,0.25 0.125,-0.46875 -0.96875,-0.25 z m -0.25,0.96875 0.9375,0.25 0.15625,-0.46875 -0.96875,-0.28125 z m -0.28125,0.96875 0.96875,0.25 0.125,-0.46875 -0.96875,-0.28125 z m -0.25,0.96875 0.96875,0.25 0.125,-0.46875 -0.96875,-0.28125 z m -0.25,0.96875 0.96875,0.25 0.125,-0.46875 -0.96875,-0.28125 z m -0.21875,0.75 0.96875,0.25 0.0625,-0.28125 -0.9375,-0.25 z m 0.0312,-7.53125 0.96875,0.28125 0.125,-0.5 -0.96875,-0.25 z m -0.28125,0.96875 0.96875,0.28125 0.125,-0.5 -0.9375,-0.25 z m -0.25,0.96875 0.96875,0.25 0.125,-0.46875 -0.96875,-0.25 z m -0.25,0.96875 0.96875,0.25 0.125,-0.46875 -0.96875,-0.25 z m -0.25,0.96875 0.9375,0.25 0.15625,-0.46875 -0.96875,-0.28125 z m -0.28125,0.96875 0.96875,0.25 0.125,-0.46875 -0.96875,-0.28125 z m -0.25,0.96875 0.96875,0.25 0.125,-0.46875 -0.96875,-0.28125 z m -0.25,0.96875 0.96875,0.25 0.125,-0.46875 -0.96875,-0.28125 z m -0.18755,-6.78125 0.96875,0.28125 0.125,-0.5 -0.96875,-0.25 z m -0.28125,0.96875 0.96875,0.28125 0.125,-0.5 -0.9375,-0.25 z m -0.25,0.96875 0.96875,0.25 0.125,-0.46875 -0.96875,-0.25 z m -0.25,0.96875 0.96875,0.25 0.125,-0.46875 -0.96875,-0.25 z m -0.25,0.96875 0.9375,0.25 0.15625,-0.46875 -0.96875,-0.28125 z m -0.28125,0.96875 0.96875,0.25 0.125,-0.46875 -0.96875,-0.28125 z m -0.25,0.96875 0.96875,0.25 0.125,-0.46875 -0.96875,-0.28125 z M -148.89995,83 c -1.67692,0 -3.05912,1.079431 -3.45933,2.53846 -0.0466,-0.004 -0.0931,0 -0.14067,0 -0.99413,0 -1.8001,0.757671 -1.8001,1.692305 0,0.04465 -0.004,0.08846 0,0.13222 C -155.85181,87.739242 -157,89.038835 -157,90.61538 -157,92.484659 -155.38831,94 -153.4,94 l 11.25014,0 c 1.73969,0 3.14986,-1.325923 3.14986,-2.96154 0,-1.511335 -1.20062,-2.754335 -2.75621,-2.93509 0.0335,-0.145625 0.0558,-0.294399 0.0558,-0.44953 0,-1.168292 -1.00737,-2.11538 -2.25001,-2.11538 -0.53226,0 -1.02094,0.185486 -1.40626,0.47596 C -145.554,84.320862 -147.04613,83 -148.90003,83 Z"
       style="color:#000000;display:inline;overflow:visible;visibility:visible;fill:#e0e0e0;fill-opacity:1;fill-rule:nonzero;stroke:none;stroke-width:1px;marker:none;enable-background:accumulate"
       id="path4613" />
  </g>
  <g
     id="weather-showers-scattered-day"
     transform="translate(187,-109)">
    <rect
       style="fill:none;stroke:none"
       id="rect4278"
       width="22"
       height="21.999996"
       x="-187"
       y="109" />
    <path
       id="path4641"
       d="m -172,109 -0.28125,2.1875 c -0.001,0.14415 0.13707,0.28125 0.28125,0.28125 0.14415,0 0.28329,-0.13709 0.28125,-0.28125 L -172,109 Z m -3,0.8125 0.84375,2.03125 c 0.0702,0.12585 0.2502,0.16578 0.375,0.0937 0.1248,-0.072 0.16764,-0.25126 0.0937,-0.375 l -1.3125,-1.75 z m 6,0 -1.3125,1.75 c -0.0739,0.12375 -0.0309,0.30295 0.0937,0.375 0.1248,0.072 0.30472,0.0321 0.375,-0.0937 L -169,109.8125 Z m -3,1.90625 c -1.80748,0 -3.28125,1.47377 -3.28125,3.28125 0,1.80747 1.47376,3.28125 3.28125,3.28125 1.80748,0 3.28125,-1.47378 3.28125,-3.28125 0,-1.80748 -1.47376,-3.28125 -3.28125,-3.28125 z m -5.1875,0.28125 1.75,1.3125 c 0.12375,0.0739 0.30295,0.031 0.375,-0.0937 0.072,-0.1248 0.032,-0.30472 -0.0937,-0.375 L -177.1875,112 Z m 10.375,0 -2.03125,0.84375 c -0.12585,0.0702 -0.16576,0.25021 -0.0937,0.375 0.072,0.1248 0.25122,0.16747 0.375,0.0937 l 1.75,-1.3125 z m -9,2.71875 L -178,115 l 2.1875,0.28125 c 0.144,0.002 0.28125,-0.13722 0.28125,-0.28125 0,-0.14415 -0.1371,-0.28331 -0.28125,-0.28125 z m 7.625,0 c -0.144,-0.002 -0.28125,0.13722 -0.28125,0.28125 0,0.14415 0.1371,0.28331 0.28125,0.28125 L -166,115 l -2.1875,-0.28125 z m -7.0625,1.9375 c -0.0695,-0.0181 -0.12562,-0.006 -0.1875,0.0312 l -1.75,1.3125 2.03125,-0.84375 c 0.12585,-0.0702 0.16579,-0.2502 0.0937,-0.375 -0.036,-0.0624 -0.11799,-0.1069 -0.1875,-0.125 z m 6.5,0 c -0.0695,0.0181 -0.15148,0.0627 -0.1875,0.125 -0.072,0.1248 -0.032,0.30473 0.0937,0.375 l 2.03125,0.84375 -1.75,-1.3125 c -0.0619,-0.037 -0.118,-0.0494 -0.1875,-0.0312 z M -180.5,117.5 c -0.9316,0 -1.71516,0.63785 -1.9375,1.5 -0.0259,-0.002 -0.0361,0 -0.0625,0 -0.55228,0 -1,0.44772 -1,1 0,0.0264 -0.002,0.0366 0,0.0625 -0.86215,0.22234 -1.5,1.0059 -1.5,1.9375 0,1.10456 0.89543,2 2,2 l 6.25,0 c 0.9665,0 1.75,-0.78351 1.75,-1.75 0,-0.89306 -0.66709,-1.64318 -1.53125,-1.75 0.0187,-0.0861 0.0312,-0.15834 0.0312,-0.25 0,-0.69036 -0.55965,-1.25 -1.25,-1.25 -0.2957,0 -0.56722,0.1096 -0.78125,0.28125 -0.10971,-1.00072 -0.93871,-1.78125 -1.9687,-1.78125 z m 6.53125,0.53125 c -0.0692,0.0191 -0.15236,0.0621 -0.1875,0.125 L -175,120.1875 l 1.3125,-1.75 c 0.0739,-0.12375 0.0308,-0.30294 -0.0937,-0.375 -0.0624,-0.036 -0.11826,-0.0503 -0.1875,-0.0312 z m 3.9375,0 c -0.0693,-0.0191 -0.1251,-0.005 -0.1875,0.0312 -0.1248,0.072 -0.16764,0.25124 -0.0937,0.375 l 1.3125,1.75 -0.84375,-2.03125 c -0.0351,-0.0629 -0.11825,-0.10593 -0.1875,-0.125 z m -1.96875,0.5 c -0.14415,0 -0.2833,0.13709 -0.28125,0.28125 L -172,121 l 0.28125,-2.1875 c 0.002,-0.14415 -0.13708,-0.28125 -0.28125,-0.28125 z m -10.28125,5.84375 -0.125,0.46875 0.96875,0.28125 0.125,-0.5 -0.96875,-0.25 z m 2,0 -0.125,0.46875 0.96875,0.28125 0.125,-0.5 -0.96875,-0.25 z m 2,0 -0.125,0.46875 0.96875,0.28125 0.125,-0.5 -0.96875,-0.25 z m -4.25,0.96875 -0.125,0.46875 0.9375,0.28125 0.15625,-0.5 -0.96875,-0.25 z m 2,0 -0.125,0.46875 0.9375,0.28125 0.15625,-0.5 -0.96875,-0.25 z m 2,0 -0.125,0.46875 0.9375,0.28125 0.15625,-0.5 -0.96875,-0.25 z m -4.28125,0.96875 -0.125,0.46875 0.96875,0.25 0.125,-0.46875 -0.96875,-0.25 z m 2,0 -0.125,0.46875 0.96875,0.25 0.125,-0.46875 -0.96875,-0.25 z m 2,0 -0.125,0.46875 0.96875,0.25 0.125,-0.46875 -0.96875,-0.25 z m -4.25,0.96875 -0.125,0.46875 0.96875,0.25 0.125,-0.46875 -0.96875,-0.25 z m 2,0 -0.125,0.46875 0.96875,0.25 0.125,-0.46875 -0.96875,-0.25 z m 2,0 -0.125,0.46875 0.96875,0.25 0.125,-0.46875 -0.96875,-0.25 z m -4.25,0.9375 -0.125,0.5 0.96875,0.25 0.125,-0.46875 -0.96875,-0.28125 z m 2,0 -0.125,0.5 0.96875,0.25 0.125,-0.46875 -0.96875,-0.28125 z m -0.25,0.96875 -0.15625,0.5 0.96875,0.25 0.125,-0.46875 -0.9375,-0.28125 z"
       style="color:#000000;font-style:normal;font-variant:normal;font-weight:normal;font-stretch:normal;font-size:medium;line-height:normal;font-family:Sans;-inkscape-font-specification:Sans;text-indent:0;text-align:start;text-decoration:none;text-decoration-line:none;letter-spacing:normal;word-spacing:normal;text-transform:none;direction:ltr;block-progression:tb;writing-mode:lr-tb;baseline-shift:baseline;text-anchor:start;display:inline;overflow:visible;visibility:visible;fill:#e0e0e0;fill-opacity:1;fill-rule:nonzero;stroke:none;stroke-width:1;marker:none;enable-background:accumulate"
       inkscape:connector-curvature="0" />
  </g>
  <g
     id="weather-showers-scattered-night"
     transform="translate(187,-109)">
    <rect
       y="109"
       x="-159"
       height="21.999996"
       width="22"
       id="rect4280"
       style="fill:none;stroke:none" />
    <path
       id="path4673"
       d="m -144,111 c -2.20914,0 -4,1.79086 -4,4 0,2.20914 1.79086,4 4,4 2.20914,0 4,-1.79086 4,-4 0,-0.18882 -0.006,-0.38065 -0.0312,-0.5625 -0.21329,1.44773 -1.46174,2.5625 -2.96875,2.5625 -1.65685,0 -3,-1.34315 -3,-3 0,-1.50701 1.11477,-2.75543 2.5625,-2.96875 C -143.61935,111.00595 -143.81118,111 -144,111 Z m -8.5,6.5 c -0.9316,0 -1.71516,0.63785 -1.9375,1.5 -0.0259,-0.002 -0.0361,0 -0.0625,0 -0.55228,0 -1,0.44772 -1,1 0,0.0264 -0.002,0.0366 0,0.0625 -0.86215,0.22234 -1.5,1.0059 -1.5,1.9375 0,1.10456 0.89543,2 2,2 l 6.25,0 c 0.9665,0 1.75,-0.78351 1.75,-1.75 0,-0.89306 -0.66709,-1.64318 -1.53125,-1.75 0.0187,-0.0861 0.0312,-0.15834 0.0312,-0.25 0,-0.69036 -0.55965,-1.25 -1.25,-1.25 -0.2957,0 -0.56722,0.1096 -0.78125,0.28125 -0.10971,-1.00072 -0.93871,-1.78125 -1.9687,-1.78125 z m -1.78125,6.875 -0.125,0.46875 0.96875,0.28125 0.125,-0.5 -0.96875,-0.25 z m 2,0 -0.125,0.46875 0.96875,0.28125 0.125,-0.5 -0.96875,-0.25 z m 2,0 -0.125,0.46875 0.96875,0.28125 0.125,-0.5 -0.96875,-0.25 z m -4.25,0.96875 -0.125,0.46875 0.9375,0.28125 0.15625,-0.5 -0.96875,-0.25 z m 2,0 -0.125,0.46875 0.9375,0.28125 0.15625,-0.5 -0.96875,-0.25 z m 2,0 -0.125,0.46875 0.9375,0.28125 0.15625,-0.5 -0.96875,-0.25 z m -4.28125,0.96875 -0.125,0.46875 0.96875,0.25 0.125,-0.46875 -0.96875,-0.25 z m 2,0 -0.125,0.46875 0.96875,0.25 0.125,-0.46875 -0.96875,-0.25 z m 2,0 -0.125,0.46875 0.96875,0.25 0.125,-0.46875 -0.96875,-0.25 z m -4.25,0.96875 -0.125,0.46875 0.96875,0.25 0.125,-0.46875 -0.96875,-0.25 z m 2,0 -0.125,0.46875 0.96875,0.25 0.125,-0.46875 -0.96875,-0.25 z m 2,0 -0.125,0.46875 0.96875,0.25 0.125,-0.46875 -0.96875,-0.25 z m -4.25,0.9375 -0.125,0.5 0.96875,0.25 0.125,-0.46875 -0.96875,-0.28125 z m 2,0 -0.125,0.5 0.96875,0.25 0.125,-0.46875 -0.96875,-0.28125 z m -0.25,0.96875 -0.15625,0.5 0.96875,0.25 0.125,-0.46875 -0.9375,-0.28125 z"
       style="color:#000000;font-style:normal;font-variant:normal;font-weight:normal;font-stretch:normal;font-size:medium;line-height:normal;font-family:Sans;-inkscape-font-specification:Sans;text-indent:0;text-align:start;text-decoration:none;text-decoration-line:none;letter-spacing:normal;word-spacing:normal;text-transform:none;direction:ltr;block-progression:tb;writing-mode:lr-tb;baseline-shift:baseline;text-anchor:start;display:inline;overflow:visible;visibility:visible;fill:#e0e0e0;fill-opacity:1;fill-rule:nonzero;stroke:none;stroke-width:1;marker:none;enable-background:accumulate"
       inkscape:connector-curvature="0" />
  </g>
  <g
     id="weather-showers"
     transform="translate(187,-109)">
    <rect
       y="81"
       x="-215"
       height="21.999996"
       width="22"
       id="rect4268"
       style="fill:none;stroke:none" />
    <path
       id="path4698"
       style="color:#000000;display:inline;overflow:visible;visibility:visible;fill:#e0e0e0;fill-opacity:1;fill-rule:nonzero;stroke:none;stroke-width:1px;marker:none;enable-background:accumulate"
       d="m -199.53125,94.84375 0.96875,0.28125 0.125,-0.5 -0.96875,-0.25 z m -0.28125,0.96875 0.96875,0.28125 0.125,-0.5 -0.9375,-0.25 z m -0.25,0.96875 0.96875,0.25 0.125,-0.46875 -0.96875,-0.25 z m -0.25,0.96875 0.96875,0.25 0.125,-0.46875 -0.96875,-0.25 z m -0.25,0.96875 0.9375,0.25 0.15625,-0.46875 -0.96875,-0.28125 z m -0.28125,0.96875 0.96875,0.25 0.125,-0.46875 -0.96875,-0.28125 z m -0.25,0.96875 0.96875,0.25 0.125,-0.46875 -0.96875,-0.28125 z m -0.43755,-5.8125 0.96875,0.28125 0.125,-0.5 -0.96875,-0.25 z m -0.28125,0.96875 0.96875,0.28125 0.125,-0.5 -0.9375,-0.25 z m -0.25,0.96875 0.96875,0.25 0.125,-0.46875 -0.96875,-0.25 z m -0.25,0.96875 0.96875,0.25 0.125,-0.46875 -0.96875,-0.25 z m -0.25,0.96875 0.9375,0.25 0.15625,-0.46875 -0.96875,-0.28125 z m -0.28125,0.96875 0.96875,0.25 0.125,-0.46875 -0.96875,-0.28125 z m -0.25,0.96875 0.96875,0.25 0.125,-0.46875 -0.96875,-0.28125 z m -0.25,0.96875 0.96875,0.25 0.125,-0.46875 -0.96875,-0.28125 z m -0.18755,-6.78125 0.96875,0.28125 0.125,-0.5 -0.96875,-0.25 z m -0.28125,0.96875 0.96875,0.28125 0.125,-0.5 -0.9375,-0.25 z m -0.25,0.96875 0.96875,0.25 0.125,-0.46875 -0.96875,-0.25 z m -0.25,0.96875 0.96875,0.25 0.125,-0.46875 -0.96875,-0.25 z m -0.25,0.96875 0.9375,0.25 0.15625,-0.46875 -0.96875,-0.28125 z m -0.28125,0.96875 0.96875,0.25 0.125,-0.46875 -0.96875,-0.28125 z m -0.25,0.96875 0.96875,0.25 0.125,-0.46875 -0.96875,-0.28125 z m -0.25,0.96875 0.96875,0.25 0.125,-0.46875 -0.96875,-0.28125 z m -0.21875,0.75 0.96875,0.25 0.0625,-0.28125 -0.9375,-0.25 z m 0.0312,-7.53125 0.96875,0.28125 0.125,-0.5 -0.96875,-0.25 z m -0.28125,0.96875 0.96875,0.28125 0.125,-0.5 -0.9375,-0.25 z m -0.25,0.96875 0.96875,0.25 0.125,-0.46875 -0.96875,-0.25 z m -0.25,0.96875 0.96875,0.25 0.125,-0.46875 -0.96875,-0.25 z m -0.25,0.96875 0.9375,0.25 0.15625,-0.46875 -0.96875,-0.28125 z m -0.28125,0.96875 0.96875,0.25 0.125,-0.46875 -0.96875,-0.28125 z m -0.25,0.96875 0.96875,0.25 0.125,-0.46875 -0.96875,-0.28125 z m -0.25,0.96875 0.96875,0.25 0.125,-0.46875 -0.96875,-0.28125 z m -0.21875,0.75 0.96875,0.25 0.0625,-0.28125 -0.9375,-0.25 z m 0.0312,-7.53125 0.96875,0.28125 0.125,-0.5 -0.96875,-0.25 z m -0.28125,0.96875 0.96875,0.28125 0.125,-0.5 -0.9375,-0.25 z m -0.25,0.96875 0.96875,0.25 0.125,-0.46875 -0.96875,-0.25 z m -0.25,0.96875 0.96875,0.25 0.125,-0.46875 -0.96875,-0.25 z m -0.25,0.96875 0.9375,0.25 0.15625,-0.46875 -0.96875,-0.28125 z m -0.28125,0.96875 0.96875,0.25 0.125,-0.46875 -0.96875,-0.28125 z m -0.25,0.96875 0.96875,0.25 0.125,-0.46875 -0.96875,-0.28125 z m -0.25,0.96875 0.96875,0.25 0.125,-0.46875 -0.96875,-0.28125 z m -0.18755,-6.78125 0.96875,0.28125 0.125,-0.5 -0.96875,-0.25 z m -0.28125,0.96875 0.96875,0.28125 0.125,-0.5 -0.9375,-0.25 z m -0.25,0.96875 0.96875,0.25 0.125,-0.46875 -0.96875,-0.25 z m -0.25,0.96875 0.96875,0.25 0.125,-0.46875 -0.96875,-0.25 z m -0.25,0.96875 0.9375,0.25 0.15625,-0.46875 -0.96875,-0.28125 z m -0.28125,0.96875 0.96875,0.25 0.125,-0.46875 -0.96875,-0.28125 z m -0.25,0.96875 0.96875,0.25 0.125,-0.46875 -0.96875,-0.28125 z M -204.89995,83 c -1.67692,0 -3.05912,1.079431 -3.45933,2.53846 -0.0466,-0.004 -0.0931,0 -0.14067,0 -0.99413,0 -1.8001,0.757671 -1.8001,1.692305 0,0.04465 -0.004,0.08846 0,0.13222 C -211.85181,87.739242 -213,89.038835 -213,90.61538 -213,92.484659 -211.38831,94 -209.4,94 l 11.25014,0 c 1.73969,0 3.14986,-1.325923 3.14986,-2.96154 0,-1.511335 -1.20062,-2.754335 -2.75621,-2.93509 0.0335,-0.145625 0.0558,-0.294399 0.0558,-0.44953 0,-1.168292 -1.00737,-2.11538 -2.25001,-2.11538 -0.53226,0 -1.02094,0.185486 -1.40626,0.47596 C -201.554,84.320862 -203.04613,83 -204.90003,83 Z"
       inkscape:connector-curvature="0"
       sodipodi:nodetypes="ccccccccccccccccccccccccccccccccccccccccccccccccccccccccccccccccccccccccccccccccccccccccccccccccccccccccccccccccccccccccccccccccccccccccccccccccccccccccccccccccccccccccccccccccccccccccccccccccccccccccccccccccccccccccccccccccccccccccccccccccccsscsssscssccc" />
  </g>
  <g
     id="weather-showers-scattered"
     transform="translate(187,-109)">
    <rect
       style="fill:none;stroke:none"
       id="rect4260"
       width="22"
       height="21.999996"
       x="-215"
       y="109" />
    <path
       sodipodi:nodetypes="scsscsssscsscsccccccccccccccccccccccccccccccccccccccccccccccccccccccccccccccccccccccccccc"
       inkscape:connector-curvature="0"
       style="color:#000000;font-style:normal;font-variant:normal;font-weight:normal;font-stretch:normal;font-size:medium;line-height:normal;font-family:Sans;-inkscape-font-specification:Sans;text-indent:0;text-align:start;text-decoration:none;text-decoration-line:none;letter-spacing:normal;word-spacing:normal;text-transform:none;direction:ltr;block-progression:tb;writing-mode:lr-tb;baseline-shift:baseline;text-anchor:start;display:inline;overflow:visible;visibility:visible;fill:#e0e0e0;fill-opacity:1;fill-rule:nonzero;stroke:none;stroke-width:1;marker:none;enable-background:accumulate"
       d="m -204.5,115.5 c -0.9316,0 -1.71516,0.63785 -1.9375,1.5 -0.0259,-0.002 -0.0361,0 -0.0625,0 -0.55228,0 -1,0.44772 -1,1 0,0.0264 -0.002,0.0366 0,0.0625 -0.86215,0.22234 -1.5,1.0059 -1.5,1.9375 0,1.10456 0.89543,2 2,2 l 6.25,0 c 0.9665,0 1.75,-0.78351 1.75,-1.75 0,-0.89306 -0.66709,-1.64318 -1.53125,-1.75 0.0187,-0.0861 0.0312,-0.15834 0.0312,-0.25 0,-0.69036 -0.55965,-1.25 -1.25,-1.25 -0.2957,0 -0.56722,0.1096 -0.78125,0.28125 -0.10971,-1.00072 -0.93871,-1.78125 -1.9687,-1.78125 z m -1.78125,6.875 -0.125,0.46875 0.96875,0.28125 0.125,-0.5 z m 2,0 -0.125,0.46875 0.96875,0.28125 0.125,-0.5 z m 2,0 -0.125,0.46875 0.96875,0.28125 0.125,-0.5 z m -4.25,0.96875 -0.125,0.46875 0.9375,0.28125 0.15625,-0.5 z m 2,0 -0.125,0.46875 0.9375,0.28125 0.15625,-0.5 z m 2,0 -0.125,0.46875 0.9375,0.28125 0.15625,-0.5 z m -4.28125,0.96875 -0.125,0.46875 0.96875,0.25 0.125,-0.46875 z m 2,0 -0.125,0.46875 0.96875,0.25 0.125,-0.46875 z m 2,0 -0.125,0.46875 0.96875,0.25 0.125,-0.46875 z m -4.25,0.96875 -0.125,0.46875 0.96875,0.25 0.125,-0.46875 z m 2,0 -0.125,0.46875 0.96875,0.25 0.125,-0.46875 z m 2,0 -0.125,0.46875 0.96875,0.25 0.125,-0.46875 z m -4.25,0.9375 -0.125,0.5 0.96875,0.25 0.125,-0.46875 z m 2,0 -0.125,0.5 0.96875,0.25 0.125,-0.46875 z m -0.25,0.96875 -0.15625,0.5 0.96875,0.25 0.125,-0.46875 z"
       id="path4704" />
  </g>
  <g
     id="weather-snow"
     transform="translate(187,-109)">
    <rect
       style="fill:none;stroke:none"
       id="rect4737"
       width="22"
       height="21.999996"
       x="-215"
       y="137" />
    <path
       style="color:#000000;font-style:normal;font-variant:normal;font-weight:normal;font-stretch:normal;font-size:medium;line-height:normal;font-family:Sans;-inkscape-font-specification:Sans;text-indent:0;text-align:start;text-decoration:none;text-decoration-line:none;letter-spacing:normal;word-spacing:normal;text-transform:none;direction:ltr;block-progression:tb;writing-mode:lr-tb;baseline-shift:baseline;text-anchor:start;display:inline;overflow:visible;visibility:visible;fill:#e0e0e0;fill-opacity:1;fill-rule:nonzero;stroke:none;stroke-width:1;marker:none;enable-background:accumulate"
       d="m -205,137 c -1.86319,0 -3.39908,1.27569 -3.84375,3 -0.0518,-0.004 -0.10346,0 -0.15625,0 -1.10457,0 -2,0.89543 -2,2 0,0.0528 -0.004,0.10449 0,0.15625 -1.72431,0.44467 -3,1.98056 -3,3.84375 0,2.20914 1.79086,4 4,4 l 12.5,0 c 1.933,0 3.5,-1.567 3.5,-3.5 0,-1.78612 -1.33418,-3.25512 -3.0625,-3.46875 0.0375,-0.17211 0.0625,-0.34792 0.0625,-0.53125 0,-1.38071 -1.11929,-2.5 -2.5,-2.5 -0.5914,0 -1.13444,0.21921 -1.5625,0.5625 C -201.28217,138.56102 -202.94002,137 -205,137 Z"
       id="path3464"
       inkscape:connector-curvature="0" />
    <path
       style="color:#000000;font-style:normal;font-variant:normal;font-weight:normal;font-stretch:normal;font-size:medium;line-height:normal;font-family:Sans;-inkscape-font-specification:Sans;text-indent:0;text-align:start;text-decoration:none;text-decoration-line:none;letter-spacing:normal;word-spacing:normal;text-transform:none;direction:ltr;block-progression:tb;writing-mode:lr-tb;baseline-shift:baseline;text-anchor:start;display:inline;overflow:visible;visibility:visible;fill:#e0e0e0;fill-opacity:1;fill-rule:nonzero;stroke:none;stroke-width:1;marker:none;enable-background:accumulate"
       d="M -208.65625,152 A 0.50005,0.50005 0 0 0 -209,152.5 l 0,1.125 -0.96875,-0.5625 a 0.50389111,0.50389111 0 1 0 -0.5,0.875 l 0.96875,0.5625 -0.96875,0.5625 a 0.50389111,0.50389111 0 1 0 0.5,0.875 L -209,155.375 l 0,1.125 a 0.50005,0.50005 0 1 0 1,0 l 0,-1.125 0.96875,0.5625 a 0.50389111,0.50389111 0 1 0 0.5,-0.875 L -207.5,154.5 l 0.96875,-0.5625 a 0.50389111,0.50389111 0 1 0 -0.5,-0.875 L -208,153.625 l 0,-1.125 a 0.50005,0.50005 0 0 0 -0.59375,-0.5 0.50005,0.50005 0 0 0 -0.0625,0 z"
       id="path3462"
       inkscape:connector-curvature="0" />
    <path
       style="color:#000000;font-style:normal;font-variant:normal;font-weight:normal;font-stretch:normal;font-size:medium;line-height:normal;font-family:Sans;-inkscape-font-specification:Sans;text-indent:0;text-align:start;text-decoration:none;text-decoration-line:none;letter-spacing:normal;word-spacing:normal;text-transform:none;direction:ltr;block-progression:tb;writing-mode:lr-tb;baseline-shift:baseline;text-anchor:start;display:inline;overflow:visible;visibility:visible;fill:#e0e0e0;fill-opacity:1;fill-rule:nonzero;stroke:none;stroke-width:1;marker:none;enable-background:accumulate"
       d="M -200.65625,154 A 0.50005,0.50005 0 0 0 -201,154.5 l 0,1.125 -0.96875,-0.5625 a 0.50389111,0.50389111 0 1 0 -0.5,0.875 l 0.96875,0.5625 -0.96875,0.5625 a 0.50389111,0.50389111 0 1 0 0.5,0.875 L -201,157.375 l 0,1.125 a 0.50005,0.50005 0 1 0 1,0 l 0,-1.125 0.96875,0.5625 a 0.50389111,0.50389111 0 1 0 0.5,-0.875 L -199.5,156.5 l 0.96875,-0.5625 a 0.50389111,0.50389111 0 1 0 -0.5,-0.875 L -200,155.625 l 0,-1.125 a 0.50005,0.50005 0 0 0 -0.59375,-0.5 0.50005,0.50005 0 0 0 -0.0625,0 z"
       id="path4743"
       inkscape:connector-curvature="0" />
  </g>
  <g
     id="weather-snow-day"
     transform="translate(187,-109)">
    <rect
       y="137"
       x="-187"
       height="21.999996"
       width="22"
       id="rect4290"
       style="fill:none;stroke:none" />
    <path
       style="color:#000000;font-style:normal;font-variant:normal;font-weight:normal;font-stretch:normal;font-size:medium;line-height:normal;font-family:Sans;-inkscape-font-specification:Sans;text-indent:0;text-align:start;text-decoration:none;text-decoration-line:none;letter-spacing:normal;word-spacing:normal;text-transform:none;direction:ltr;block-progression:tb;writing-mode:lr-tb;baseline-shift:baseline;text-anchor:start;display:inline;overflow:visible;visibility:visible;fill:#e0e0e0;fill-opacity:1;fill-rule:nonzero;stroke:none;stroke-width:1;marker:none;enable-background:accumulate"
       d="m -169,137 -0.1875,1.46875 c -0.001,0.0961 0.0914,0.15625 0.1875,0.15625 0.0961,0 0.18886,-0.0602 0.1875,-0.15625 L -169,137 Z"
       id="path3512"
       inkscape:connector-curvature="0" />
    <path
       style="color:#000000;font-style:normal;font-variant:normal;font-weight:normal;font-stretch:normal;font-size:medium;line-height:normal;font-family:Sans;-inkscape-font-specification:Sans;text-indent:0;text-align:start;text-decoration:none;text-decoration-line:none;letter-spacing:normal;word-spacing:normal;text-transform:none;direction:ltr;block-progression:tb;writing-mode:lr-tb;baseline-shift:baseline;text-anchor:start;display:inline;overflow:visible;visibility:visible;fill:#e0e0e0;fill-opacity:1;fill-rule:nonzero;stroke:none;stroke-width:1;marker:none;enable-background:accumulate"
       d="m -171,137.53125 0.5625,1.34375 c 0.0468,0.0839 0.1668,0.14184 0.25,0.0937 0.0832,-0.048 0.11176,-0.16749 0.0625,-0.25 L -171,137.5312 Z"
       id="path3510"
       inkscape:connector-curvature="0" />
    <path
       style="color:#000000;font-style:normal;font-variant:normal;font-weight:normal;font-stretch:normal;font-size:medium;line-height:normal;font-family:Sans;-inkscape-font-specification:Sans;text-indent:0;text-align:start;text-decoration:none;text-decoration-line:none;letter-spacing:normal;word-spacing:normal;text-transform:none;direction:ltr;block-progression:tb;writing-mode:lr-tb;baseline-shift:baseline;text-anchor:start;display:inline;overflow:visible;visibility:visible;fill:#e0e0e0;fill-opacity:1;fill-rule:nonzero;stroke:none;stroke-width:1;marker:none;enable-background:accumulate"
       d="m -167,137.53125 -0.875,1.1875 c -0.0493,0.0825 -0.0207,0.20197 0.0625,0.25 0.0832,0.048 0.20315,-0.0101 0.25,-0.0937 l 0.5625,-1.3438 z"
       id="path3508"
       inkscape:connector-curvature="0" />
    <path
       style="color:#000000;font-style:normal;font-variant:normal;font-weight:normal;font-stretch:normal;font-size:medium;line-height:normal;font-family:Sans;-inkscape-font-specification:Sans;text-indent:0;text-align:start;text-decoration:none;text-decoration-line:none;letter-spacing:normal;word-spacing:normal;text-transform:none;direction:ltr;block-progression:tb;writing-mode:lr-tb;baseline-shift:baseline;text-anchor:start;display:inline;overflow:visible;visibility:visible;fill:#e0e0e0;fill-opacity:1;fill-rule:nonzero;stroke:none;stroke-width:1;marker:none;enable-background:accumulate"
       d="m -169,138.8125 c -1.086,0 -1.95771,0.80495 -2.125,1.84375 1.19245,0.31663 2.13471,1.27772 2.34375,2.5 1.1002,-0.11173 1.96875,-1.02658 1.96875,-2.15625 0,-1.20498 -0.98251,-2.1875 -2.1875,-2.1875 z"
       id="path3506"
       inkscape:connector-curvature="0" />
    <path
       style="color:#000000;font-style:normal;font-variant:normal;font-weight:normal;font-stretch:normal;font-size:medium;line-height:normal;font-family:Sans;-inkscape-font-specification:Sans;text-indent:0;text-align:start;text-decoration:none;text-decoration-line:none;letter-spacing:normal;word-spacing:normal;text-transform:none;direction:ltr;block-progression:tb;writing-mode:lr-tb;baseline-shift:baseline;text-anchor:start;display:inline;overflow:visible;visibility:visible;fill:#e0e0e0;fill-opacity:1;fill-rule:nonzero;stroke:none;stroke-width:1;marker:none;enable-background:accumulate"
       d="m -176.90625,139 c -1.67692,0 -3.03729,1.07222 -3.4375,2.53125 -0.0466,-0.004 -0.10868,0 -0.15625,0 -0.99413,0 -1.8125,0.75286 -1.8125,1.6875 0,0.0446 -0.004,0.11253 0,0.15625 -1.55176,0.37625 -2.6875,1.67346 -2.6875,3.25 0,1.86928 1.60544,3.375 3.59375,3.375 l 11.25,0 c 1.73969,0 3.15625,-1.33313 3.15625,-2.96875 0,-1.51133 -1.19441,-2.75674 -2.75,-2.9375 0.0335,-0.14562 0.0625,-0.28237 0.0625,-0.4375 0,-1.16829 -1.00736,-2.125 -2.25,-2.125 -0.53226,0 -1.02093,0.17828 -1.40625,0.46875 -0.19732,-1.69356 -1.7086,-3 -3.5625,-3 z"
       id="path3504"
       inkscape:connector-curvature="0" />
    <path
       style="color:#000000;font-style:normal;font-variant:normal;font-weight:normal;font-stretch:normal;font-size:medium;line-height:normal;font-family:Sans;-inkscape-font-specification:Sans;text-indent:0;text-align:start;text-decoration:none;text-decoration-line:none;letter-spacing:normal;word-spacing:normal;text-transform:none;direction:ltr;block-progression:tb;writing-mode:lr-tb;baseline-shift:baseline;text-anchor:start;display:inline;overflow:visible;visibility:visible;fill:#e0e0e0;fill-opacity:1;fill-rule:nonzero;stroke:none;stroke-width:1;marker:none;enable-background:accumulate"
       d="m -172.46875,139 1.1875,0.875 c 0.0825,0.0493 0.20197,0.0207 0.25,-0.0625 0.048,-0.0832 -0.0101,-0.20315 -0.0937,-0.25 L -172.46875,139 Z"
       id="path3502"
       inkscape:connector-curvature="0" />
    <path
       style="color:#000000;font-style:normal;font-variant:normal;font-weight:normal;font-stretch:normal;font-size:medium;line-height:normal;font-family:Sans;-inkscape-font-specification:Sans;text-indent:0;text-align:start;text-decoration:none;text-decoration-line:none;letter-spacing:normal;word-spacing:normal;text-transform:none;direction:ltr;block-progression:tb;writing-mode:lr-tb;baseline-shift:baseline;text-anchor:start;display:inline;overflow:visible;visibility:visible;fill:#e0e0e0;fill-opacity:1;fill-rule:nonzero;stroke:none;stroke-width:1;marker:none;enable-background:accumulate"
       d="m -165.53125,139 -1.34375,0.5625 c -0.0839,0.0468 -0.14181,0.16681 -0.0937,0.25 0.048,0.0832 0.16748,0.11172 0.25,0.0625 l 1.1875,-0.875 z"
       id="path3500"
       inkscape:connector-curvature="0" />
    <path
       style="color:#000000;font-style:normal;font-variant:normal;font-weight:normal;font-stretch:normal;font-size:medium;line-height:normal;font-family:Sans;-inkscape-font-specification:Sans;text-indent:0;text-align:start;text-decoration:none;text-decoration-line:none;letter-spacing:normal;word-spacing:normal;text-transform:none;direction:ltr;block-progression:tb;writing-mode:lr-tb;baseline-shift:baseline;text-anchor:start;display:inline;overflow:visible;visibility:visible;fill:#e0e0e0;fill-opacity:1;fill-rule:nonzero;stroke:none;stroke-width:1;marker:none;enable-background:accumulate"
       d="m -166.46875,140.8125 c -0.096,-0.001 -0.15625,0.0914 -0.15625,0.1875 0,0.0961 0.0601,0.18887 0.15625,0.1875 L -165,141 l -1.46875,-0.1875 z"
       id="path3498"
       inkscape:connector-curvature="0" />
    <path
       style="color:#000000;font-style:normal;font-variant:normal;font-weight:normal;font-stretch:normal;font-size:medium;line-height:normal;font-family:Sans;-inkscape-font-specification:Sans;text-indent:0;text-align:start;text-decoration:none;text-decoration-line:none;letter-spacing:normal;word-spacing:normal;text-transform:none;direction:ltr;block-progression:tb;writing-mode:lr-tb;baseline-shift:baseline;text-anchor:start;display:inline;overflow:visible;visibility:visible;fill:#e0e0e0;fill-opacity:1;fill-rule:nonzero;stroke:none;stroke-width:1;marker:none;enable-background:accumulate"
       d="m -166.84375,142.09375 c -0.0463,0.0121 -0.10099,0.0522 -0.125,0.0937 -0.048,0.0832 0.0101,0.20315 0.0937,0.25 l 1.34375,0.5625 -1.1875,-0.875 c -0.0412,-0.0246 -0.0787,-0.0434 -0.125,-0.0312 z"
       id="path3496"
       inkscape:connector-curvature="0" />
    <path
       style="color:#000000;font-style:normal;font-variant:normal;font-weight:normal;font-stretch:normal;font-size:medium;line-height:normal;font-family:Sans;-inkscape-font-specification:Sans;text-indent:0;text-align:start;text-decoration:none;text-decoration-line:none;letter-spacing:normal;word-spacing:normal;text-transform:none;direction:ltr;block-progression:tb;writing-mode:lr-tb;baseline-shift:baseline;text-anchor:start;display:inline;overflow:visible;visibility:visible;fill:#e0e0e0;fill-opacity:1;fill-rule:nonzero;stroke:none;stroke-width:1;marker:none;enable-background:accumulate"
       d="m -167.8125,143.03125 c -0.0832,0.048 -0.11176,0.16749 -0.0625,0.25 l 0.875,1.1875 -0.5625,-1.34375 c -0.0468,-0.0839 -0.1668,-0.14183 -0.25,-0.0937 z"
       id="path3494"
       inkscape:connector-curvature="0" />
    <path
       style="color:#000000;font-style:normal;font-variant:normal;font-weight:normal;font-stretch:normal;font-size:medium;line-height:normal;font-family:Sans;-inkscape-font-specification:Sans;text-indent:0;text-align:start;text-decoration:none;text-decoration-line:none;letter-spacing:normal;word-spacing:normal;text-transform:none;direction:ltr;block-progression:tb;writing-mode:lr-tb;baseline-shift:baseline;text-anchor:start;display:inline;overflow:visible;visibility:visible;fill:#e0e0e0;fill-opacity:1;fill-rule:nonzero;stroke:none;stroke-width:1;marker:none;enable-background:accumulate"
       d="M -180.65625,152 A 0.50005,0.50005 0 0 0 -181,152.5 l 0,1.125 -0.96875,-0.5625 a 0.50389111,0.50389111 0 1 0 -0.5,0.875 l 0.96875,0.5625 -0.96875,0.5625 a 0.50389111,0.50389111 0 1 0 0.5,0.875 L -181,155.375 l 0,1.125 a 0.50005,0.50005 0 1 0 1,0 l 0,-1.125 0.96875,0.5625 a 0.50389111,0.50389111 0 1 0 0.5,-0.875 L -179.5,154.5 l 0.96875,-0.5625 a 0.50389111,0.50389111 0 1 0 -0.5,-0.875 L -180,153.625 l 0,-1.125 a 0.50005,0.50005 0 0 0 -0.59375,-0.5 0.50005,0.50005 0 0 0 -0.0625,0 z"
       id="path3492"
       inkscape:connector-curvature="0" />
    <path
       style="color:#000000;font-style:normal;font-variant:normal;font-weight:normal;font-stretch:normal;font-size:medium;line-height:normal;font-family:Sans;-inkscape-font-specification:Sans;text-indent:0;text-align:start;text-decoration:none;text-decoration-line:none;letter-spacing:normal;word-spacing:normal;text-transform:none;direction:ltr;block-progression:tb;writing-mode:lr-tb;baseline-shift:baseline;text-anchor:start;display:inline;overflow:visible;visibility:visible;fill:#e0e0e0;fill-opacity:1;fill-rule:nonzero;stroke:none;stroke-width:1;marker:none;enable-background:accumulate"
       d="m -172.65625,153.99288 a 0.50005,0.50005 0 0 0 -0.34375,0.5 l 0,1.125 -0.96875,-0.5625 a 0.50389111,0.50389111 0 1 0 -0.5,0.875 l 0.96875,0.5625 -0.96875,0.5625 a 0.50389111,0.50389111 0 1 0 0.5,0.875 l 0.96875,-0.5625 0,1.125 a 0.50005,0.50005 0 1 0 1,0 l 0,-1.125 0.96875,0.5625 a 0.50389111,0.50389111 0 1 0 0.5,-0.875 l -0.96875,-0.5625 0.96875,-0.5625 a 0.50389111,0.50389111 0 1 0 -0.5,-0.875 l -0.96875,0.5625 0,-1.125 a 0.50005,0.50005 0 0 0 -0.59375,-0.5 0.50005,0.50005 0 0 0 -0.0625,0 z"
       id="path4629"
       inkscape:connector-curvature="0" />
  </g>
  <g
     id="weather-snow-night"
     transform="translate(187,-109)">
    <rect
       style="fill:none;stroke:none"
       id="rect4292"
       width="22"
       height="21.999996"
       x="-159"
       y="137" />
    <path
       style="color:#000000;display:inline;overflow:visible;visibility:visible;fill:#e0e0e0;fill-opacity:1;fill-rule:nonzero;stroke:none;stroke-width:1px;marker:none;enable-background:accumulate"
       d="m -141,137 c -1.98661,0 -3.62558,1.44544 -3.9375,3.34375 0.0785,0.14261 0.15584,0.28617 0.21875,0.4375 0.26804,-0.071 0.48883,-0.25 0.78125,-0.25 0.36698,0 0.70154,0.0742 1.03125,0.1875 C -142.96476,140.4849 -143,140.25198 -143,140 c 0,-1.50701 1.11477,-2.75543 2.5625,-2.96875 C -140.61935,137.00594 -140.81118,137 -141,137 Z"
       id="path3522"
       inkscape:connector-curvature="0" />
    <path
       style="color:#000000;display:inline;overflow:visible;visibility:visible;fill:#e0e0e0;fill-opacity:1;fill-rule:nonzero;stroke:none;stroke-width:1px;marker:none;enable-background:accumulate"
       d="m -148.90625,139 c -1.67692,0 -3.03729,1.07222 -3.4375,2.53125 -0.0466,-0.004 -0.10868,0 -0.15625,0 -0.99413,0 -1.8125,0.75286 -1.8125,1.6875 0,0.0446 -0.004,0.11253 0,0.15625 -1.55176,0.37625 -2.6875,1.67346 -2.6875,3.25 0,1.86928 1.60544,3.375 3.59375,3.375 l 11.25,0 c 1.73969,0 3.15625,-1.33313 3.15625,-2.96875 0,-1.51133 -1.19441,-2.75674 -2.75,-2.9375 0.0335,-0.14562 0.0625,-0.28237 0.0625,-0.4375 0,-1.16829 -1.00736,-2.125 -2.25,-2.125 -0.53226,0 -1.02093,0.17828 -1.40625,0.46875 -0.19732,-1.69356 -1.7086,-3 -3.5625,-3 z"
       id="path3520"
       inkscape:connector-curvature="0" />
    <path
       style="color:#000000;display:inline;overflow:visible;visibility:visible;fill:#e0e0e0;fill-opacity:1;fill-rule:nonzero;stroke:none;stroke-width:1px;marker:none;enable-background:accumulate"
       d="M -137.03125,140.4375 C -137.24453,141.88523 -138.49299,143 -140,143 c -0.31066,0 -0.59318,-0.0686 -0.875,-0.15625 0.0473,0.16954 0.10715,0.35148 0.125,0.53125 0.66155,0.23263 1.2549,0.60299 1.71875,1.09375 1.2138,-0.6868 2.03125,-1.97459 2.03125,-3.46875 0,-0.18882 -0.006,-0.38065 -0.0312,-0.5625 z"
       id="path3518"
       inkscape:connector-curvature="0" />
    <path
       style="color:#000000;display:inline;overflow:visible;visibility:visible;fill:#e0e0e0;fill-opacity:1;fill-rule:nonzero;stroke:none;stroke-width:1px;marker:none;enable-background:accumulate"
       d="M -152.65625,152 A 0.50005,0.50005 0 0 0 -153,152.5 l 0,1.125 -0.96875,-0.5625 a 0.50389111,0.50389111 0 1 0 -0.5,0.875 l 0.96875,0.5625 -0.96875,0.5625 a 0.50389111,0.50389111 0 1 0 0.5,0.875 L -153,155.375 l 0,1.125 a 0.50005,0.50005 0 1 0 1,0 l 0,-1.125 0.96875,0.5625 a 0.50389111,0.50389111 0 1 0 0.5,-0.875 L -151.5,154.5 l 0.96875,-0.5625 a 0.50389111,0.50389111 0 1 0 -0.5,-0.875 L -152,153.625 l 0,-1.125 a 0.50005,0.50005 0 0 0 -0.59375,-0.5 0.50005,0.50005 0 0 0 -0.0625,0 z"
       id="path3516"
       inkscape:connector-curvature="0" />
    <path
       style="color:#000000;display:inline;overflow:visible;visibility:visible;fill:#e0e0e0;fill-opacity:1;fill-rule:nonzero;stroke:none;stroke-width:1px;marker:none;enable-background:accumulate"
       d="m -144.65625,153.99288 a 0.50005,0.50005 0 0 0 -0.34375,0.5 l 0,1.125 -0.96875,-0.5625 a 0.50389111,0.50389111 0 1 0 -0.5,0.875 l 0.96875,0.5625 -0.96875,0.5625 a 0.50389111,0.50389111 0 1 0 0.5,0.875 l 0.96875,-0.5625 0,1.125 a 0.50005,0.50005 0 1 0 1,0 l 0,-1.125 0.96875,0.5625 a 0.50389111,0.50389111 0 1 0 0.5,-0.875 l -0.96875,-0.5625 0.96875,-0.5625 a 0.50389111,0.50389111 0 1 0 -0.5,-0.875 l -0.96875,0.5625 0,-1.125 a 0.50005,0.50005 0 0 0 -0.59375,-0.5 0.50005,0.50005 0 0 0 -0.0625,0 z"
       id="path4631"
       inkscape:connector-curvature="0" />
  </g>
  <g
     id="weather-storm-day"
     transform="translate(187,-81.000003)">
    <rect
       style="fill:none;stroke:none"
       id="rect4294"
       width="22"
       height="22"
       x="-187"
       y="165" />
    <path
       id="path4633"
       d="m -169,165 -0.1875,1.46875 c -0.001,0.0961 0.0914,0.15625 0.1875,0.15625 0.0961,0 0.18886,-0.0602 0.1875,-0.15625 L -169,165 Z m -2,0.53125 0.5625,1.34375 c 0.0468,0.0839 0.1668,0.14184 0.25,0.0937 0.0832,-0.048 0.11176,-0.16749 0.0625,-0.25 L -171,165.5312 Z m 4,0 -0.875,1.1875 c -0.0493,0.0825 -0.0207,0.20197 0.0625,0.25 0.0832,0.048 0.20315,-0.0101 0.25,-0.0937 l 0.5625,-1.3438 z m -2,1.28125 c -1.086,0 -1.95771,0.80495 -2.125,1.84375 1.19245,0.31663 2.13471,1.27772 2.34375,2.5 1.1002,-0.11173 1.96875,-1.02658 1.96875,-2.15625 0,-1.20498 -0.98251,-2.1875 -2.1875,-2.1875 z M -176.90625,167 c -1.67692,0 -3.03729,1.07222 -3.4375,2.53125 -0.0466,-0.004 -0.10868,0 -0.15625,0 -0.99413,0 -1.8125,0.75286 -1.8125,1.6875 0,0.0446 -0.004,0.11253 0,0.15625 -1.55176,0.37625 -2.6875,1.67346 -2.6875,3.25 0,1.86928 1.60544,3.375 3.59375,3.375 l 4.40625,0 -1,4 2,0 -1,5 4,-7 -2,0 1,-2 3.84375,0 c 1.73969,0 3.15625,-1.33313 3.15625,-2.96875 0,-1.51133 -1.19441,-2.75674 -2.75,-2.9375 0.0335,-0.14562 0.0625,-0.28237 0.0625,-0.4375 0,-1.16829 -1.00736,-2.125 -2.25,-2.125 -0.53226,0 -1.02093,0.17828 -1.40625,0.46875 -0.19732,-1.69356 -1.7086,-3 -3.5625,-3 z m 4.4375,0 1.1875,0.875 c 0.0825,0.0493 0.20197,0.0207 0.25,-0.0625 0.048,-0.0832 -0.0101,-0.20315 -0.0937,-0.25 L -172.46875,167 Z m 6.9375,0 -1.34375,0.5625 c -0.0839,0.0468 -0.14181,0.16681 -0.0937,0.25 0.048,0.0832 0.16748,0.11172 0.25,0.0625 l 1.1875,-0.875 z m -0.9375,1.8125 c -0.096,-0.001 -0.15625,0.0914 -0.15625,0.1875 0,0.0961 0.0601,0.18887 0.15625,0.1875 L -165,169 l -1.46875,-0.1875 z m -0.375,1.28125 c -0.0463,0.0121 -0.10099,0.0522 -0.125,0.0937 -0.048,0.0832 0.0101,0.20315 0.0937,0.25 l 1.34375,0.5625 -1.1875,-0.875 c -0.0412,-0.0246 -0.0787,-0.0434 -0.125,-0.0312 z m -0.96875,0.9375 c -0.0832,0.048 -0.11176,0.16749 -0.0625,0.25 l 0.875,1.1875 -0.5625,-1.34375 c -0.0468,-0.0839 -0.1668,-0.14183 -0.25,-0.0937 z"
       style="color:#000000;font-style:normal;font-variant:normal;font-weight:normal;font-stretch:normal;font-size:medium;line-height:normal;font-family:Sans;-inkscape-font-specification:Sans;text-indent:0;text-align:start;text-decoration:none;text-decoration-line:none;letter-spacing:normal;word-spacing:normal;text-transform:none;direction:ltr;block-progression:tb;writing-mode:lr-tb;baseline-shift:baseline;text-anchor:start;display:inline;overflow:visible;visibility:visible;fill:#e0e0e0;fill-opacity:1;fill-rule:nonzero;stroke:none;stroke-width:1;marker:none;enable-background:accumulate"
       inkscape:connector-curvature="0" />
  </g>
  <g
     id="weather-storm-night"
     transform="translate(187,-81.000003)">
    <rect
       y="165"
       x="-159"
       height="22"
       width="22"
       id="rect4296"
       style="fill:none;stroke:none" />
    <path
       id="path4635"
       d="m -141,165 c -1.98661,0 -3.62558,1.44544 -3.9375,3.34375 0.0785,0.14261 0.15584,0.28617 0.21875,0.4375 0.26804,-0.071 0.48883,-0.25 0.78125,-0.25 0.36698,0 0.70154,0.0742 1.03125,0.1875 C -142.96476,168.4849 -143,168.25198 -143,168 c 0,-1.50701 1.11477,-2.75543 2.5625,-2.96875 C -140.61935,165.00594 -140.81118,165 -141,165 Z m -7.90625,2 c -1.67692,0 -3.03729,1.07222 -3.4375,2.53125 -0.0466,-0.004 -0.10868,0 -0.15625,0 -0.99413,0 -1.8125,0.75286 -1.8125,1.6875 0,0.0446 -0.004,0.11253 0,0.15625 -1.55176,0.37625 -2.6875,1.67346 -2.6875,3.25 0,1.86928 1.60544,3.375 3.59375,3.375 l 4.40625,0 -1,4 2,0 -1,5 4,-7 -2,0 1,-2 3.84375,0 c 1.73969,0 3.15625,-1.33313 3.15625,-2.96875 0,-1.51133 -1.19441,-2.75674 -2.75,-2.9375 0.0335,-0.14562 0.0625,-0.28237 0.0625,-0.4375 0,-1.16829 -1.00736,-2.125 -2.25,-2.125 -0.53226,0 -1.02093,0.17828 -1.40625,0.46875 -0.19732,-1.69356 -1.7086,-3 -3.5625,-3 z m 11.875,1.4375 C -137.24453,169.88523 -138.49299,171 -140,171 c -0.31066,0 -0.59318,-0.0686 -0.875,-0.15625 0.0473,0.16954 0.10715,0.35148 0.125,0.53125 0.66155,0.23263 1.2549,0.60299 1.71875,1.09375 1.2138,-0.6868 2.03125,-1.97459 2.03125,-3.46875 0,-0.18882 -0.006,-0.38065 -0.0312,-0.5625 z"
       style="color:#000000;display:inline;overflow:visible;visibility:visible;fill:#e0e0e0;fill-opacity:1;fill-rule:nonzero;stroke:none;stroke-width:1px;marker:none;enable-background:accumulate"
       inkscape:connector-curvature="0" />
  </g>
  <g
     id="weather-storm"
     transform="translate(187,-81.000003)">
    <rect
       style="fill:none;stroke:none"
       id="rect4276"
       width="22"
       height="22"
       x="-215"
       y="165" />
    <path
       sodipodi:nodetypes="scsscsscccccccsscsscs"
       inkscape:connector-curvature="0"
       style="color:#000000;display:inline;overflow:visible;visibility:visible;fill:#e0e0e0;fill-opacity:1;fill-rule:nonzero;stroke:none;stroke-width:1px;marker:none;enable-background:accumulate"
       d="m -204.90625,167 c -1.67692,0 -3.03729,1.07222 -3.4375,2.53125 -0.0466,-0.004 -0.10868,0 -0.15625,0 -0.99413,0 -1.8125,0.75286 -1.8125,1.6875 0,0.0446 -0.004,0.11253 0,0.15625 -1.55176,0.37625 -2.6875,1.67346 -2.6875,3.25 0,1.86928 1.60544,3.375 3.59375,3.375 l 4.40625,0 -1,4 2,0 -1,5 4,-7 -2,0 1,-2 3.84375,0 c 1.73969,0 3.15625,-1.33313 3.15625,-2.96875 0,-1.51133 -1.19441,-2.75674 -2.75,-2.9375 0.0335,-0.14562 0.0625,-0.28237 0.0625,-0.4375 0,-1.16829 -1.00736,-2.125 -2.25,-2.125 -0.53226,0 -1.02093,0.17828 -1.40625,0.46875 -0.19732,-1.69356 -1.7086,-3 -3.5625,-3 z"
       id="path4692" />
  </g>
  <g
     id="weather-snow-scattered"
     transform="translate(187,-109)">
    <rect
       y="165"
       x="-215"
       height="21.999996"
       width="22"
       id="rect3268"
       style="fill:none;stroke:none" />
    <path
       d="m -204.5,171.5 c -0.9316,0 -1.71516,0.63785 -1.9375,1.5 -0.0259,-0.002 -0.0361,0 -0.0625,0 -0.55228,0 -1,0.44772 -1,1 0,0.0264 -0.002,0.0366 0,0.0625 -0.86215,0.22234 -1.5,1.0059 -1.5,1.9375 0,1.10456 0.89543,2 2,2 l 6.25,0 c 0.9665,0 1.75,-0.78351 1.75,-1.75 0,-0.89306 -0.66709,-1.64318 -1.53125,-1.75 0.0187,-0.0861 0.0312,-0.15834 0.0312,-0.25 0,-0.69036 -0.55965,-1.25 -1.25,-1.25 -0.2957,0 -0.56722,0.1096 -0.78125,0.28125 -0.10971,-1.00072 -0.93871,-1.78125 -1.9687,-1.78125 z m -0.15625,8.5 c -0.20652,0.0677 -0.35453,0.28294 -0.34375,0.5 l 0,1.125 -0.96875,-0.5625 c -0.22908,-0.13092 -0.55662,-0.0416 -0.68752,0.18749 -0.13091,0.22908 -0.0416,0.55662 0.18752,0.68751 l 0.96875,0.5625 -0.96875,0.5625 c -0.22909,0.13089 -0.31843,0.45843 -0.18752,0.68751 0.1309,0.22909 0.45844,0.31841 0.68752,0.18749 L -205,183.375 l 0,1.125 c -0.004,0.26416 0.23582,0.50712 0.5,0.50712 0.26418,0 0.50374,-0.24296 0.5,-0.50712 l 0,-1.125 0.96875,0.5625 c 0.22908,0.13092 0.55662,0.0416 0.68752,-0.18749 0.13091,-0.22908 0.0416,-0.55662 -0.18752,-0.68751 L -203.5,182.5 l 0.96875,-0.5625 c 0.22909,-0.13089 0.31843,-0.45843 0.18752,-0.68751 -0.1309,-0.22909 -0.45844,-0.31841 -0.68752,-0.18749 L -204,181.625 l 0,-1.125 c 0.005,-0.29617 -0.30279,-0.55555 -0.59375,-0.5 -0.0208,-0.001 -0.0417,-0.001 -0.0625,0 z"
       style="color:#000000;font-style:normal;font-variant:normal;font-weight:normal;font-stretch:normal;font-size:medium;line-height:normal;font-family:Sans;-inkscape-font-specification:Sans;text-indent:0;text-align:start;text-decoration:none;text-decoration-line:none;letter-spacing:normal;word-spacing:normal;text-transform:none;direction:ltr;block-progression:tb;writing-mode:lr-tb;baseline-shift:baseline;text-anchor:start;display:inline;overflow:visible;visibility:visible;fill:#e0e0e0;fill-opacity:1;fill-rule:nonzero;stroke:none;stroke-width:1;marker:none;enable-background:accumulate"
       id="path3272"
       inkscape:connector-curvature="0" />
  </g>
  <g
     id="weather-snow-scattered-day"
     transform="translate(187,-109)">
    <rect
       y="165"
       x="-187"
       height="21.999996"
       width="22"
       id="rect3252"
       style="fill:none;stroke:none" />
    <path
       d="m -180.65625,181 c -0.20652,0.0677 -0.35453,0.28294 -0.34375,0.5 l 0,1.125 -0.96875,-0.5625 c -0.22908,-0.13092 -0.55662,-0.0416 -0.68752,0.18749 -0.13091,0.22908 -0.0416,0.55662 0.18752,0.68751 l 0.96875,0.5625 -0.96875,0.5625 c -0.22909,0.13089 -0.31843,0.45843 -0.18752,0.68751 0.1309,0.22909 0.45844,0.31841 0.68752,0.18749 L -181,184.375 l 0,1.125 c -0.004,0.26416 0.23582,0.50712 0.5,0.50712 0.26418,0 0.50374,-0.24296 0.5,-0.50712 l 0,-1.125 0.96875,0.5625 c 0.22908,0.13092 0.55662,0.0416 0.68752,-0.18749 0.13091,-0.22908 0.0416,-0.55662 -0.18752,-0.68751 L -179.5,183.5 l 0.96875,-0.5625 c 0.22909,-0.13089 0.31843,-0.45843 0.18752,-0.68751 -0.1309,-0.22909 -0.45844,-0.31841 -0.68752,-0.18749 L -180,182.625 l 0,-1.125 c 0.005,-0.29617 -0.30279,-0.55555 -0.59375,-0.5 -0.0208,-0.001 -0.0417,-0.001 -0.0625,0 z M -172,165 l -0.28125,2.1875 c -0.001,0.14415 0.13707,0.28125 0.28125,0.28125 0.14415,0 0.28329,-0.13709 0.28125,-0.28125 z m -3,0.8125 0.84375,2.03125 c 0.0702,0.12585 0.2502,0.16578 0.375,0.0937 0.1248,-0.072 0.16764,-0.25126 0.0937,-0.375 l -1.3125,-1.75 z m 6,0 -1.3125,1.75 c -0.0739,0.12375 -0.0309,0.30295 0.0937,0.375 0.1248,0.072 0.30472,0.0321 0.375,-0.0937 z m -3,1.90625 c -1.80748,0 -3.28125,1.47377 -3.28125,3.28125 0,1.80747 1.47376,3.28125 3.28125,3.28125 1.80748,0 3.28125,-1.47378 3.28125,-3.28125 0,-1.80748 -1.47376,-3.28125 -3.28125,-3.28125 z m -5.1875,0.28125 1.75,1.3125 c 0.12375,0.0739 0.30295,0.031 0.375,-0.0937 0.072,-0.1248 0.032,-0.30472 -0.0937,-0.375 z m 10.375,0 -2.03125,0.84375 c -0.12585,0.0702 -0.16576,0.25021 -0.0937,0.375 0.072,0.1248 0.25122,0.16747 0.375,0.0937 l 1.75,-1.3125 z m -9,2.71875 L -178,171 l 2.1875,0.28125 c 0.144,0.002 0.28125,-0.13722 0.28125,-0.28125 0,-0.14415 -0.1371,-0.28331 -0.28125,-0.28125 z m 7.625,0 c -0.144,-0.002 -0.28125,0.13722 -0.28125,0.28125 0,0.14415 0.1371,0.28331 0.28125,0.28125 L -166,171 Z m -7.0625,1.9375 c -0.0695,-0.0181 -0.12562,-0.006 -0.1875,0.0312 l -1.75,1.3125 2.03125,-0.84375 c 0.12585,-0.0702 0.16579,-0.2502 0.0937,-0.375 -0.036,-0.0624 -0.11799,-0.1069 -0.1875,-0.125 z m 6.5,0 c -0.0695,0.0181 -0.15148,0.0627 -0.1875,0.125 -0.072,0.1248 -0.032,0.30473 0.0937,0.375 l 2.03125,0.84375 -1.75,-1.3125 c -0.0619,-0.037 -0.118,-0.0494 -0.1875,-0.0312 z M -180.5,173.5 c -0.9316,0 -1.71516,0.63785 -1.9375,1.5 -0.0259,-0.002 -0.0361,0 -0.0625,0 -0.55228,0 -1,0.44772 -1,1 0,0.0264 -0.002,0.0366 0,0.0625 -0.86215,0.22234 -1.5,1.0059 -1.5,1.9375 0,1.10456 0.89543,2 2,2 l 6.25,0 c 0.9665,0 1.75,-0.78351 1.75,-1.75 0,-0.89306 -0.66709,-1.64318 -1.53125,-1.75 0.0187,-0.0861 0.0312,-0.15834 0.0312,-0.25 0,-0.69036 -0.55965,-1.25 -1.25,-1.25 -0.2957,0 -0.56722,0.1096 -0.78125,0.28125 -0.10971,-1.00072 -0.93871,-1.78125 -1.9687,-1.78125 z m 6.53125,0.53125 c -0.0692,0.0191 -0.15236,0.0621 -0.1875,0.125 L -175,176.1875 l 1.3125,-1.75 c 0.0739,-0.12375 0.0308,-0.30294 -0.0937,-0.375 -0.0624,-0.036 -0.11826,-0.0503 -0.1875,-0.0312 z m 3.9375,0 c -0.0693,-0.0191 -0.1251,-0.005 -0.1875,0.0312 -0.1248,0.072 -0.16764,0.25124 -0.0937,0.375 l 1.3125,1.75 -0.84375,-2.03125 c -0.0351,-0.0629 -0.11825,-0.10593 -0.1875,-0.125 z m -1.96875,0.5 c -0.14415,0 -0.2833,0.13709 -0.28125,0.28125 L -172,177 l 0.28125,-2.1875 c 0.002,-0.14415 -0.13708,-0.28125 -0.28125,-0.28125 z"
       style="color:#000000;font-style:normal;font-variant:normal;font-weight:normal;font-stretch:normal;font-size:medium;line-height:normal;font-family:Sans;-inkscape-font-specification:Sans;text-indent:0;text-align:start;text-decoration:none;text-decoration-line:none;letter-spacing:normal;word-spacing:normal;text-transform:none;direction:ltr;block-progression:tb;writing-mode:lr-tb;baseline-shift:baseline;text-anchor:start;display:inline;overflow:visible;visibility:visible;fill:#e0e0e0;fill-opacity:1;fill-rule:nonzero;stroke:none;stroke-width:1;marker:none;enable-background:accumulate"
       id="path3286"
       inkscape:connector-curvature="0" />
  </g>
  <g
     id="weather-snow-scattered-night"
     transform="translate(187,-109)">
    <rect
       style="fill:none;stroke:none"
       id="rect3260"
       width="22"
       height="21.999996"
       x="-159"
       y="165" />
    <path
       d="m -152.65625,181 c -0.20652,0.0677 -0.35453,0.28294 -0.34375,0.5 l 0,1.125 -0.96875,-0.5625 c -0.22908,-0.13092 -0.55662,-0.0416 -0.68752,0.18749 -0.13091,0.22908 -0.0416,0.55662 0.18752,0.68751 l 0.96875,0.5625 -0.96875,0.5625 c -0.22909,0.13089 -0.31843,0.45843 -0.18752,0.68751 0.1309,0.22909 0.45844,0.31841 0.68752,0.18749 L -153,184.375 l 0,1.125 c -0.004,0.26416 0.23582,0.50712 0.5,0.50712 0.26418,0 0.50374,-0.24296 0.5,-0.50712 l 0,-1.125 0.96875,0.5625 c 0.22908,0.13092 0.55662,0.0416 0.68752,-0.18749 0.13091,-0.22908 0.0416,-0.55662 -0.18752,-0.68751 L -151.5,183.5 l 0.96875,-0.5625 c 0.22909,-0.13089 0.31843,-0.45843 0.18752,-0.68751 -0.1309,-0.22909 -0.45844,-0.31841 -0.68752,-0.18749 L -152,182.625 l 0,-1.125 c 0.005,-0.29617 -0.30279,-0.55555 -0.59375,-0.5 -0.0208,-0.001 -0.0417,-0.001 -0.0625,0 z M -144,167 c -2.20914,0 -4,1.79086 -4,4 0,2.20914 1.79086,4 4,4 2.20914,0 4,-1.79086 4,-4 0,-0.18882 -0.006,-0.38065 -0.0312,-0.5625 -0.21329,1.44773 -1.46174,2.5625 -2.96875,2.5625 -1.65685,0 -3,-1.34315 -3,-3 0,-1.50701 1.11477,-2.75543 2.5625,-2.96875 C -143.61935,167.00595 -143.81118,167 -144,167 Z m -8.5,6.5 c -0.9316,0 -1.71516,0.63785 -1.9375,1.5 -0.0259,-0.002 -0.0361,0 -0.0625,0 -0.55228,0 -1,0.44772 -1,1 0,0.0264 -0.002,0.0366 0,0.0625 -0.86215,0.22234 -1.5,1.0059 -1.5,1.9375 0,1.10456 0.89543,2 2,2 l 6.25,0 c 0.9665,0 1.75,-0.78351 1.75,-1.75 0,-0.89306 -0.66709,-1.64318 -1.53125,-1.75 0.0187,-0.0861 0.0312,-0.15834 0.0312,-0.25 0,-0.69036 -0.55965,-1.25 -1.25,-1.25 -0.2957,0 -0.56722,0.1096 -0.78125,0.28125 -0.10971,-1.00072 -0.93871,-1.78125 -1.9687,-1.78125 z"
       style="color:#000000;font-style:normal;font-variant:normal;font-weight:normal;font-stretch:normal;font-size:medium;line-height:normal;font-family:Sans;-inkscape-font-specification:Sans;text-indent:0;text-align:start;text-decoration:none;text-decoration-line:none;letter-spacing:normal;word-spacing:normal;text-transform:none;direction:ltr;block-progression:tb;writing-mode:lr-tb;baseline-shift:baseline;text-anchor:start;display:inline;overflow:visible;visibility:visible;fill:#e0e0e0;fill-opacity:1;fill-rule:nonzero;stroke:none;stroke-width:1;marker:none;enable-background:accumulate"
       id="path3288"
       inkscape:connector-curvature="0" />
  </g>
  <g
     id="weather-few-clouds"
     transform="translate(131,-109)">
    <rect
       style="fill:none;stroke:none"
       id="rect4090"
       width="22"
       height="22"
       x="-159"
       y="52.999996" />
    <path
       inkscape:connector-curvature="0"
       id="path4094"
       style="color:#000000;display:inline;overflow:visible;visibility:visible;fill:#e0e0e0;fill-opacity:1;fill-rule:nonzero;stroke:none;stroke-width:1px;marker:none;enable-background:accumulate"
       d="m -142.49996,57.5 c 0.9316,0 1.69954,0.637845 1.92188,1.5 0.0259,-0.002 0.0517,0 0.0781,0 0.55228,0 1,0.447715 1,1 0,0.0264 0.002,0.05224 0,0.07813 0.86215,0.222336 1.5,0.990281 1.5,1.921875 0,1.10457 -0.89543,2 -2,2 l -6.25,0 c -0.9665,0 -1.75,-0.783501 -1.75,-1.75 0,-0.893059 0.66709,-1.627557 1.53125,-1.734375 -0.0187,-0.08605 -0.0312,-0.173959 -0.0312,-0.265625 0,-0.690356 0.55965,-1.25 1.25,-1.25 0.2957,0 0.56722,0.109603 0.78125,0.28125 0.10981,-1.000744 0.93873,-1.781255 1.96872,-1.781255 z m -11.00004,8 c -0.9316,0 -1.69954,0.637845 -1.92188,1.5 -0.0259,-0.002 -0.0517,0 -0.0781,0 -0.55228,0 -1,0.447715 -1,1 0,0.0264 -0.002,0.05224 0,0.07813 -0.86215,0.222336 -1.5,0.990281 -1.5,1.921875 0,1.10457 0.89543,2 2,2 l 6.25,0 c 0.9665,0 1.75,-0.783501 1.75,-1.75 0,-0.893059 -0.66709,-1.627557 -1.53125,-1.734375 0.0187,-0.08605 0.0312,-0.173959 0.0312,-0.265625 0,-0.690356 -0.55965,-1.25 -1.25,-1.25 -0.2957,0 -0.56722,0.109603 -0.78125,0.28125 C -151.64109,66.280511 -152.47001,65.5 -153.5,65.5 Z"
       sodipodi:nodetypes="scsscsssscsscsscsscsssscsscs" />
  </g>
  <g
     id="weather-hail"
     transform="translate(187,30.999997)">
    <rect
       style="fill:none;stroke:none"
       id="rect4100"
       width="22"
       height="22"
       x="-215"
       y="81" />
    <path
       id="path4126"
       transform="translate(32,4)"
       style="color:#000000;display:inline;overflow:visible;visibility:visible;fill:#e0e0e0;fill-opacity:1;fill-rule:nonzero;stroke:none;stroke-width:1px;marker:none;enable-background:accumulate"
       d="m -234,98.5 c 0,0.276142 -0.22386,0.5 -0.5,0.5 -0.27614,0 -0.5,-0.223858 -0.5,-0.5 0,-0.276142 0.22386,-0.5 0.5,-0.5 0.27614,0 0.5,0.223858 0.5,0.5 z m -6,0 c 0,0.276142 -0.22386,0.5 -0.5,0.5 -0.27614,0 -0.5,-0.223858 -0.5,-0.5 0,-0.276142 0.22386,-0.5 0.5,-0.5 0.27614,0 0.5,0.223858 0.5,0.5 z m 6,-7 c 0,0.276142 -0.22386,0.5 -0.5,0.5 -0.27614,0 -0.5,-0.223858 -0.5,-0.5 0,-0.276142 0.22386,-0.5 0.5,-0.5 0.27614,0 0.5,0.223858 0.5,0.5 z m -3,0 c 0,0.276142 -0.22386,0.5 -0.5,0.5 -0.27614,0 -0.5,-0.223858 -0.5,-0.5 0,-0.276142 0.22386,-0.5 0.5,-0.5 0.27614,0 0.5,0.223858 0.5,0.5 z m -1,3 c 0,0.276142 -0.22386,0.5 -0.5,0.5 -0.27614,0 -0.5,-0.223858 -0.5,-0.5 0,-0.276142 0.22386,-0.5 0.5,-0.5 0.27614,0 0.5,0.223858 0.5,0.5 z m 6,1.5 c 0,0.552285 -0.44772,1 -1,1 -0.55228,0 -1,-0.447715 -1,-1 0,-0.552285 0.44772,-1 1,-1 0.55228,0 1,0.447715 1,1 z m -4,2 c 0,0.552285 -0.44772,1 -1,1 -0.55228,0 -1,-0.447715 -1,-1 0,-0.552285 0.44772,-1 1,-1 0.55228,0 1,0.447715 1,1 z m -4,-2 c 0,0.552285 -0.44772,1 -1,1 -0.55228,0 -1,-0.447715 -1,-1 0,-0.552285 0.44772,-1 1,-1 0.55228,0 1,0.447715 1,1 z m 9,-4 c 0,0.552285 -0.44772,1 -1,1 -0.55228,0 -1,-0.447715 -1,-1 0,-0.552285 0.44772,-1 1,-1 0.55228,0 1,0.447715 1,1 z m -4,2 c 0,0.552285 -0.44772,1 -1,1 -0.55228,0 -1,-0.447715 -1,-1 0,-0.552285 0.44772,-1 1,-1 0.55228,0 1,0.447715 1,1 z m -4,-2 c 0,0.552285 -0.44772,1 -1,1 -0.55228,0 -1,-0.447715 -1,-1 0,-0.552285 0.44772,-1 1,-1 0.55228,0 1,0.447715 1,1 z m 2.10005,-13 c -1.67692,0 -3.05912,1.079431 -3.45933,2.53846 -0.0466,-0.004 -0.0931,0 -0.14067,0 -0.99413,0 -1.8001,0.757671 -1.8001,1.692305 0,0.04465 -0.004,0.08846 0,0.13222 C -243.85181,83.739242 -245,85.038835 -245,86.61538 -245,88.484659 -243.38831,90 -241.4,90 l 11.25014,0 c 1.73969,0 3.14986,-1.325923 3.14986,-2.96154 0,-1.511335 -1.20062,-2.754335 -2.75621,-2.93509 0.0335,-0.145625 0.0558,-0.294399 0.0558,-0.44953 0,-1.168292 -1.00737,-2.11538 -2.25001,-2.11538 -0.53226,0 -1.02094,0.185486 -1.40626,0.47596 C -233.554,80.320862 -235.04613,79 -236.90003,79 Z"
       inkscape:connector-curvature="0" />
  </g>
  <g
     id="weather-freezing-rain"
     transform="translate(299,58.999997)">
    <rect
       style="fill:none;stroke:none"
       id="rect4150"
       width="22"
       height="22"
       x="-271"
       y="53" />
    <path
       inkscape:connector-curvature="0"
       id="path4154"
       d="m -264.65625,67 c -0.20652,0.0677 -0.35453,0.28294 -0.34375,0.5 l 0,1.125 -0.96875,-0.5625 c -0.22908,-0.13092 -0.55662,-0.0416 -0.68752,0.18749 -0.13091,0.22908 -0.0416,0.55662 0.18752,0.68751 L -265.5,69.5 l -0.96875,0.5625 c -0.22909,0.13089 -0.31843,0.45843 -0.18752,0.68751 0.1309,0.22909 0.45844,0.31841 0.68752,0.18749 L -265,70.375 l 0,1.125 c -0.004,0.26416 0.23582,0.50712 0.5,0.50712 0.26418,0 0.50374,-0.24296 0.5,-0.50712 l 0,-1.125 0.96875,0.5625 c 0.22908,0.13092 0.55662,0.0416 0.68752,-0.18749 0.13091,-0.22908 0.0416,-0.55662 -0.18752,-0.68751 L -263.5,69.5 l 0.96875,-0.5625 c 0.22909,-0.13089 0.31843,-0.45843 0.18752,-0.68751 -0.1309,-0.22909 -0.45844,-0.31841 -0.68752,-0.18749 L -264,68.625 -264,67.5 c 0.005,-0.29617 -0.30279,-0.55555 -0.59375,-0.5 -0.0208,-0.001 -0.0417,-0.001 -0.0625,0 z"
       style="color:#000000;font-style:normal;font-variant:normal;font-weight:normal;font-stretch:normal;font-size:medium;line-height:normal;font-family:Sans;-inkscape-font-specification:Sans;text-indent:0;text-align:start;text-decoration:none;text-decoration-line:none;letter-spacing:normal;word-spacing:normal;text-transform:none;direction:ltr;block-progression:tb;writing-mode:lr-tb;baseline-shift:baseline;text-anchor:start;display:inline;overflow:visible;visibility:visible;fill:#e0e0e0;fill-opacity:1;fill-rule:nonzero;stroke:none;stroke-width:1;marker:none;enable-background:accumulate" />
    <path
       style="color:#000000;font-style:normal;font-variant:normal;font-weight:normal;font-stretch:normal;font-size:medium;line-height:normal;font-family:Sans;-inkscape-font-specification:Sans;text-indent:0;text-align:start;text-decoration:none;text-decoration-line:none;letter-spacing:normal;word-spacing:normal;text-transform:none;direction:ltr;block-progression:tb;writing-mode:lr-tb;baseline-shift:baseline;text-anchor:start;display:inline;overflow:visible;visibility:visible;fill:#e0e0e0;fill-opacity:1;fill-rule:nonzero;stroke:none;stroke-width:1;marker:none;enable-background:accumulate"
       d="m -254.65625,61 c -0.20652,0.0677 -0.35453,0.28294 -0.34375,0.5 l 0,1.125 -0.96875,-0.5625 c -0.22908,-0.13092 -0.55662,-0.0416 -0.68752,0.18749 -0.13091,0.22908 -0.0416,0.55662 0.18752,0.68751 L -255.5,63.5 l -0.96875,0.5625 c -0.22909,0.13089 -0.31843,0.45843 -0.18752,0.68751 0.1309,0.22909 0.45844,0.31841 0.68752,0.18749 L -255,64.375 l 0,1.125 c -0.004,0.26416 0.23582,0.50712 0.5,0.50712 0.26418,0 0.50374,-0.24296 0.5,-0.50712 l 0,-1.125 0.96875,0.5625 c 0.22908,0.13092 0.55662,0.0416 0.68752,-0.18749 0.13091,-0.22908 0.0416,-0.55662 -0.18752,-0.68751 L -253.5,63.5 l 0.96875,-0.5625 c 0.22909,-0.13089 0.31843,-0.45843 0.18752,-0.68751 -0.1309,-0.22909 -0.45844,-0.31841 -0.68752,-0.18749 L -254,62.625 -254,61.5 c 0.005,-0.29617 -0.30279,-0.55555 -0.59375,-0.5 -0.0208,-10e-4 -0.0417,-10e-4 -0.0625,0 z"
       id="path4163"
       inkscape:connector-curvature="0" />
    <circle
       transform="translate(-2,0)"
       id="path4165"
       style="color:#000000;display:inline;overflow:visible;visibility:visible;fill:#e0e0e0;fill-opacity:1;fill-rule:nonzero;stroke:none;stroke-width:1px;marker:none;enable-background:accumulate"
       cx="-264"
       cy="64"
       r="1" />
    <circle
       transform="translate(0,6)"
       id="path4167"
       style="color:#000000;display:inline;overflow:visible;visibility:visible;fill:#e0e0e0;fill-opacity:1;fill-rule:nonzero;stroke:none;stroke-width:1px;marker:none;enable-background:accumulate"
       cx="-260"
       cy="60"
       r="1" />
    <circle
       transform="translate(2,0)"
       id="path4169"
       style="color:#000000;display:inline;overflow:visible;visibility:visible;fill:#e0e0e0;fill-opacity:1;fill-rule:nonzero;stroke:none;stroke-width:1px;marker:none;enable-background:accumulate"
       cx="-256"
       cy="57"
       r="1" />
    <circle
       transform="translate(-2,0)"
       id="path4171"
       style="color:#000000;display:inline;overflow:visible;visibility:visible;fill:#e0e0e0;fill-opacity:1;fill-rule:nonzero;stroke:none;stroke-width:1px;marker:none;enable-background:accumulate"
       cx="-264"
       cy="58"
       r="1" />
    <circle
       style="color:#000000;display:inline;overflow:visible;visibility:visible;fill:#e0e0e0;fill-opacity:1;fill-rule:nonzero;stroke:none;stroke-width:1px;marker:none;enable-background:accumulate"
       id="path4177"
       cx="-260"
       cy="60"
       r="1" />
    <circle
       transform="translate(0,-5)"
       id="path4179"
       style="color:#000000;display:inline;overflow:visible;visibility:visible;fill:#e0e0e0;fill-opacity:1;fill-rule:nonzero;stroke:none;stroke-width:1px;marker:none;enable-background:accumulate"
       cx="-260"
       cy="60"
       r="1" />
    <path
       inkscape:connector-curvature="0"
       id="path4201"
       d="m -256.65625,69 c -0.20652,0.0677 -0.35453,0.28294 -0.34375,0.5 l 0,1.125 -0.96875,-0.5625 c -0.22908,-0.13092 -0.55662,-0.0416 -0.68752,0.18749 -0.13091,0.22908 -0.0416,0.55662 0.18752,0.68751 L -257.5,71.5 l -0.96875,0.5625 c -0.22909,0.13089 -0.31843,0.45843 -0.18752,0.68751 0.1309,0.22909 0.45844,0.31841 0.68752,0.18749 L -257,72.375 l 0,1.125 c -0.004,0.26416 0.23582,0.50712 0.5,0.50712 0.26418,0 0.50374,-0.24296 0.5,-0.50712 l 0,-1.125 0.96875,0.5625 c 0.22908,0.13092 0.55662,0.0416 0.68752,-0.18749 0.13091,-0.22908 0.0416,-0.55662 -0.18752,-0.68751 L -255.5,71.5 l 0.96875,-0.5625 c 0.22909,-0.13089 0.31843,-0.45843 0.18752,-0.68751 -0.1309,-0.22909 -0.45844,-0.31841 -0.68752,-0.18749 L -256,70.625 -256,69.5 c 0.005,-0.29617 -0.30279,-0.55555 -0.59375,-0.5 -0.0208,-0.001 -0.0417,-0.001 -0.0625,0 z"
       style="color:#000000;font-style:normal;font-variant:normal;font-weight:normal;font-stretch:normal;font-size:medium;line-height:normal;font-family:Sans;-inkscape-font-specification:Sans;text-indent:0;text-align:start;text-decoration:none;text-decoration-line:none;letter-spacing:normal;word-spacing:normal;text-transform:none;direction:ltr;block-progression:tb;writing-mode:lr-tb;baseline-shift:baseline;text-anchor:start;display:inline;overflow:visible;visibility:visible;fill:#e0e0e0;fill-opacity:1;fill-rule:nonzero;stroke:none;stroke-width:1;marker:none;enable-background:accumulate" />
  </g>
  <g
     id="weather-snow-rain"
     transform="matrix(-1,0,0,-1,-249,187)">
    <rect
       y="53.000004"
       x="-271"
       height="21.999996"
       width="21.999985"
       id="rect4203"
       style="fill:none;stroke:none" />
    <path
       style="color:#000000;font-style:normal;font-variant:normal;font-weight:normal;font-stretch:normal;font-size:medium;line-height:normal;font-family:Sans;-inkscape-font-specification:Sans;text-indent:0;text-align:start;text-decoration:none;text-decoration-line:none;letter-spacing:normal;word-spacing:normal;text-transform:none;direction:ltr;block-progression:tb;writing-mode:lr-tb;baseline-shift:baseline;text-anchor:start;display:inline;overflow:visible;visibility:visible;fill:#e0e0e0;fill-opacity:1;fill-rule:nonzero;stroke:none;stroke-width:1;marker:none;enable-background:accumulate"
       d="m -264.65625,67 c -0.20652,0.0677 -0.35453,0.28294 -0.34375,0.5 l 0,1.125 -0.96875,-0.5625 c -0.22908,-0.13092 -0.55662,-0.0416 -0.68752,0.18749 -0.13091,0.22908 -0.0416,0.55662 0.18752,0.68751 L -265.5,69.5 l -0.96875,0.5625 c -0.22909,0.13089 -0.31843,0.45843 -0.18752,0.68751 0.1309,0.22909 0.45844,0.31841 0.68752,0.18749 L -265,70.375 l 0,1.125 c -0.004,0.26416 0.23582,0.50712 0.5,0.50712 0.26418,0 0.50374,-0.24296 0.5,-0.50712 l 0,-1.125 0.96875,0.5625 c 0.22908,0.13092 0.55662,0.0416 0.68752,-0.18749 0.13091,-0.22908 0.0416,-0.55662 -0.18752,-0.68751 L -263.5,69.5 l 0.96875,-0.5625 c 0.22909,-0.13089 0.31843,-0.45843 0.18752,-0.68751 -0.1309,-0.22909 -0.45844,-0.31841 -0.68752,-0.18749 L -264,68.625 -264,67.5 c 0.005,-0.29617 -0.30279,-0.55555 -0.59375,-0.5 -0.0208,-0.001 -0.0417,-0.001 -0.0625,0 z"
       id="path4205"
       inkscape:connector-curvature="0" />
    <path
       inkscape:connector-curvature="0"
       id="path4207"
       d="m -254.65625,61 c -0.20652,0.0677 -0.35453,0.28294 -0.34375,0.5 l 0,1.125 -0.96875,-0.5625 c -0.22908,-0.13092 -0.55662,-0.0416 -0.68752,0.18749 -0.13091,0.22908 -0.0416,0.55662 0.18752,0.68751 L -255.5,63.5 l -0.96875,0.5625 c -0.22909,0.13089 -0.31843,0.45843 -0.18752,0.68751 0.1309,0.22909 0.45844,0.31841 0.68752,0.18749 L -255,64.375 l 0,1.125 c -0.004,0.26416 0.23582,0.50712 0.5,0.50712 0.26418,0 0.50374,-0.24296 0.5,-0.50712 l 0,-1.125 0.96875,0.5625 c 0.22908,0.13092 0.55662,0.0416 0.68752,-0.18749 0.13091,-0.22908 0.0416,-0.55662 -0.18752,-0.68751 L -253.5,63.5 l 0.96875,-0.5625 c 0.22909,-0.13089 0.31843,-0.45843 0.18752,-0.68751 -0.1309,-0.22909 -0.45844,-0.31841 -0.68752,-0.18749 L -254,62.625 -254,61.5 c 0.005,-0.29617 -0.30279,-0.55555 -0.59375,-0.5 -0.0208,-10e-4 -0.0417,-10e-4 -0.0625,0 z"
       style="color:#000000;font-style:normal;font-variant:normal;font-weight:normal;font-stretch:normal;font-size:medium;line-height:normal;font-family:Sans;-inkscape-font-specification:Sans;text-indent:0;text-align:start;text-decoration:none;text-decoration-line:none;letter-spacing:normal;word-spacing:normal;text-transform:none;direction:ltr;block-progression:tb;writing-mode:lr-tb;baseline-shift:baseline;text-anchor:start;display:inline;overflow:visible;visibility:visible;fill:#e0e0e0;fill-opacity:1;fill-rule:nonzero;stroke:none;stroke-width:1;marker:none;enable-background:accumulate" />
    <circle
       style="color:#000000;display:inline;overflow:visible;visibility:visible;fill:#e0e0e0;fill-opacity:1;fill-rule:nonzero;stroke:none;stroke-width:1px;marker:none;enable-background:accumulate"
       id="path4209"
       transform="translate(-2,0)"
       cx="-264"
       cy="64"
       r="1" />
    <circle
       style="color:#000000;display:inline;overflow:visible;visibility:visible;fill:#e0e0e0;fill-opacity:1;fill-rule:nonzero;stroke:none;stroke-width:1px;marker:none;enable-background:accumulate"
       id="path4211"
       transform="translate(0,6)"
       cx="-260"
       cy="60"
       r="1" />
    <circle
       style="color:#000000;display:inline;overflow:visible;visibility:visible;fill:#e0e0e0;fill-opacity:1;fill-rule:nonzero;stroke:none;stroke-width:1px;marker:none;enable-background:accumulate"
       id="path4213"
       transform="translate(2,0)"
       cx="-256"
       cy="57"
       r="1" />
    <circle
       style="color:#000000;display:inline;overflow:visible;visibility:visible;fill:#e0e0e0;fill-opacity:1;fill-rule:nonzero;stroke:none;stroke-width:1px;marker:none;enable-background:accumulate"
       id="path4215"
       transform="translate(-2,0)"
       cx="-264"
       cy="58"
       r="1" />
    <circle
       id="path4217"
       style="color:#000000;display:inline;overflow:visible;visibility:visible;fill:#e0e0e0;fill-opacity:1;fill-rule:nonzero;stroke:none;stroke-width:1px;marker:none;enable-background:accumulate"
       cx="-260"
       cy="60"
       r="1" />
    <circle
       style="color:#000000;display:inline;overflow:visible;visibility:visible;fill:#e0e0e0;fill-opacity:1;fill-rule:nonzero;stroke:none;stroke-width:1px;marker:none;enable-background:accumulate"
       id="path4219"
       transform="translate(0,-5)"
       cx="-260"
       cy="60"
       r="1" />
    <path
       style="color:#000000;font-style:normal;font-variant:normal;font-weight:normal;font-stretch:normal;font-size:medium;line-height:normal;font-family:Sans;-inkscape-font-specification:Sans;text-indent:0;text-align:start;text-decoration:none;text-decoration-line:none;letter-spacing:normal;word-spacing:normal;text-transform:none;direction:ltr;block-progression:tb;writing-mode:lr-tb;baseline-shift:baseline;text-anchor:start;display:inline;overflow:visible;visibility:visible;fill:#e0e0e0;fill-opacity:1;fill-rule:nonzero;stroke:none;stroke-width:1;marker:none;enable-background:accumulate"
       d="m -256.65625,69 c -0.20652,0.0677 -0.35453,0.28294 -0.34375,0.5 l 0,1.125 -0.96875,-0.5625 c -0.22908,-0.13092 -0.55662,-0.0416 -0.68752,0.18749 -0.13091,0.22908 -0.0416,0.55662 0.18752,0.68751 L -257.5,71.5 l -0.96875,0.5625 c -0.22909,0.13089 -0.31843,0.45843 -0.18752,0.68751 0.1309,0.22909 0.45844,0.31841 0.68752,0.18749 L -257,72.375 l 0,1.125 c -0.004,0.26416 0.23582,0.50712 0.5,0.50712 0.26418,0 0.50374,-0.24296 0.5,-0.50712 l 0,-1.125 0.96875,0.5625 c 0.22908,0.13092 0.55662,0.0416 0.68752,-0.18749 0.13091,-0.22908 0.0416,-0.55662 -0.18752,-0.68751 L -255.5,71.5 l 0.96875,-0.5625 c 0.22909,-0.13089 0.31843,-0.45843 0.18752,-0.68751 -0.1309,-0.22909 -0.45844,-0.31841 -0.68752,-0.18749 L -256,70.625 -256,69.5 c 0.005,-0.29617 -0.30279,-0.55555 -0.59375,-0.5 -0.0208,-0.001 -0.0417,-0.001 -0.0625,0 z"
       id="path4221"
       inkscape:connector-curvature="0" />
  </g>
  <g
     id="weather-mist"
     style="opacity:0.375"
     transform="translate(187,-109)">
    <rect
       style="fill:none;stroke:none"
       id="rect4244"
       width="22"
       height="22"
       x="-215"
       y="-3.0000029" />
    <path
       inkscape:connector-curvature="0"
       d="m -209.5,-2.5 c -0.9316,0 -1.69954,0.637846 -1.92187,1.5 -0.0259,-0.002 -0.0517,0 -0.0781,0 -0.55228,0 -1,0.447716 -1,1 0,0.0264 -0.002,0.05224 0,0.07813 -0.86215,0.222336 -1.5,0.990281 -1.5,1.921875 0,1.104569 0.89543,2 2,2 l 6.25,0 c 0.9665,0 1.75,-0.783502 1.75,-1.75 0,-0.893059 -0.66709,-1.627557 -1.53125,-1.734375 0.0188,-0.08605 0.0312,-0.173959 0.0312,-0.265625 0,-0.690356 -0.55964,-1.25 -1.25,-1.25 -0.2957,0 -0.56722,0.109603 -0.78125,0.28125 C -207.64108,-1.719489 -208.47001,-2.5 -209.5,-2.5 Z m 11,6 c -1.02999,0 -1.85894,0.780506 -1.96875,1.78125 C -200.68278,5.109603 -200.9543,5 -201.25,5 c -0.23012,0 -0.43981,0.079021 -0.625,0.1875 0.65355,0.5670924 1.16306,1.2933131 1.46875,2.125 C -200.09321,7.2171828 -199.84603,7 -199.5,7 c 1.74497,0 3.1866,1.3203936 3.4375,3 L -196,10 c 1.10457,0 2,-0.895431 2,-2 0,-0.931594 -0.63785,-1.683914 -1.5,-1.90625 0.002,-0.02589 0,-0.06735 0,-0.09375 0,-0.552284 -0.44772,-1 -1,-1 -0.0264,0 -0.0366,-0.002 -0.0625,0 -0.22233,-0.862154 -1.0059,-1.5 -1.9375,-1.5 z m -4.5625,3.21875 C -203.61469,7.0122535 -204,7.5802058 -204,8.25 c 0,0.966498 0.7835,1.75 1.75,1.75 l 4.15625,0 c -0.20115,-0.5891956 -0.74104,-1 -1.40625,-1 -0.3443,0 -0.66937,0.1287181 -0.9375,0.34375 a 1.0001,1.0001 0 0 1 -1.625,-0.6875 c -0.0858,-0.7818893 -0.45269,-1.4602462 -1,-1.9375 z M -205,5 c -1.86319,0 -3.39908,1.275691 -3.84375,3 -0.0518,-0.004 -0.10346,0 -0.15625,0 -1.10457,0 -2,0.895431 -2,2 0,0.05279 -0.004,0.104488 0,0.15625 -1.72431,0.444672 -3,1.980562 -3,3.84375 0,2.209139 1.79086,4 4,4 l 12.5,0 c 1.933,0 3.5,-1.567003 3.5,-3.5 0,-1.786118 -1.33418,-3.255115 -3.0625,-3.46875 C -197.025,10.859145 -197,10.683331 -197,10.5 c 0,-1.380712 -1.11929,-2.5 -2.5,-2.5 -0.5914,0 -1.13444,0.219206 -1.5625,0.5625 C -201.28217,6.561022 -202.94002,5 -205,5 Z"
       style="color:#000000;display:inline;overflow:visible;visibility:visible;fill:#e0e0e0;fill-opacity:1;fill-rule:nonzero;stroke:none;stroke-width:1px;marker:none;enable-background:accumulate"
       id="path4347" />
  </g>
</svg>
