<?xml version="1.0" encoding="UTF-8" standalone="no"?>
<svg id="svg" xmlns:rdf="http://www.w3.org/1999/02/22-rdf-syntax-ns#" xmlns="http://www.w3.org/2000/svg" height="100%" viewBox="0 0 22 22" width="100%" version="1.1" xmlns:cc="http://creativecommons.org/ns#" xmlns:dc="http://purl.org/dc/elements/1.1/">
    <defs id="defs3615">
        <style id="current-color-scheme" type="text/css">
            .ColorScheme-Text {
            color:#0000FF;
            }
            .ColorScheme-Background{
            color:#E9E8E8;
            }
            .ColorScheme-ViewText {
            color:#31363b;
            }
            .ColorScheme-ViewBackground{
            color:#ffffff;
            }
            .ColorScheme-ViewHover {
            }
            .ColorScheme-ViewFocus{
            color:#5a5a5a;
            }
            .ColorScheme-ButtonText {
            color:#31363b;
            }
            .ColorScheme-ButtonBackground{
            color:#E9E8E8;
            }
            .ColorScheme-ButtonHover {
            color:#1489ff;
            }
            .ColorScheme-ButtonFocus{
            color:#2B74C7;
            }
        </style>
    </defs>
	<metadata id="metadata34">
		<rdf:RDF>
			<cc:Work rdf:about="">
				<dc:format>image/svg+xml</dc:format>
				<dc:type rdf:resource="http://purl.org/dc/dcmitype/StillImage"/>
				<dc:title/>
				<dc:creator>
					<cc:Agent>
						<dc:title>obnosim</dc:title>
					</cc:Agent>
				</dc:creator>
				<cc:license rdf:resource="http://creativecommons.org/licenses/by-nc-sa/3.0/"/>
			</cc:Work>
			<cc:License rdf:about="http://creativecommons.org/licenses/by-nc-sa/3.0/">
				<cc:permits rdf:resource="http://creativecommons.org/ns#Reproduction"/>
				<cc:permits rdf:resource="http://creativecommons.org/ns#Distribution"/>
				<cc:requires rdf:resource="http://creativecommons.org/ns#Notice"/>
				<cc:requires rdf:resource="http://creativecommons.org/ns#Attribution"/>
				<cc:prohibits rdf:resource="http://creativecommons.org/ns#CommercialUse"/>
				<cc:permits rdf:resource="http://creativecommons.org/ns#DerivativeWorks"/>
				<cc:requires rdf:resource="http://creativecommons.org/ns#ShareAlike"/>
			</cc:License>
		</rdf:RDF>
	</metadata>
	<g id="window-unpin" transform="translate(31,-30)">
		<rect id="rect3022" style="fill-opacity:0" height="8" width="8" y="44" x="-46"/>
		<path id="rect3845" class="ColorScheme-Text" style="fill:currentColor" d="m-41 44c-.38925.38925-.46835 1.0843-.01563 1.8438l-2.125 1.4219c-.26420-.10660-.54780-.18609-.82812-.1875-.364-.002-.719.110-1.031.422l1.5 1.5-2 2-.5 1 1-.5 2-2 1.5 1.5c.55348-.55348.48237-1.2539.23438-1.8594l1.4219-2.125c.760.452 1.455.373 1.844-.016z"/>
	</g>
	<g id="window-pin" transform="translate(31,-30)">
		<path id="path3024" d="m-61 44c-.38925.38925-.46835 1.0843-.01563 1.8438l-2.125 1.4219c-.26420-.10660-.54780-.18609-.82812-.1875-.364-.002-.719.110-1.031.422l1.5 1.5-2 2-.5 1 1-.5 2-2 1.5 1.5c.55348-.55348.48237-1.2539.23438-1.8594l1.4219-2.125c.760.452 1.455.373 1.844-.016z" style="fill:#3daefd" class="ColorScheme-Text"/>
		<rect id="rect3030" style="fill-opacity:0" height="8" width="8" y="44" x="-66"/>
	</g>
	<g id="window-close" transform="translate(-356.91 -384.12)">
		<rect id="rect4948" style="opacity:.375;fill:none" height="22" width="22" y="384.12" x="356.91"/>
		<path id="path4189" style="stroke-linejoin:round;stroke:currentColor;opacity:.875;stroke-linecap:round;stroke-width:2;fill:none" d="m374.91 388.12-14 14m0-14 14 14" class="ColorScheme-Text"/>
	</g>
	<g id="g3349">
		<rect id="rect4193" style="fill:none" height="8" width="8" y="2" x="-36"/>
		<path id="path4199" class="ColorScheme-Text" style="stroke:currentColor;opacity:.875;stroke-linecap:round;fill:none" d="m-35 9 3-3 3 3m-6-3 3-3 3 3"/>
	</g>
	<g id="g3351">
		<rect id="rect4195" style="fill:none" height="8" width="8" y="2" x="-24"/>
		<path id="path4204" d="m-23 9 3-3 3 3m-6-3 3-3 3 3" style="stroke:#000000;stroke-linecap:round;fill:none"/>
	</g>
</svg>
