<?xml version="1.0" encoding="UTF-8" standalone="no"?>
<svg id="svg7229" xmlns:rdf="http://www.w3.org/1999/02/22-rdf-syntax-ns#" xmlns="http://www.w3.org/2000/svg" height="42" width="48" version="1.0" xmlns:cc="http://creativecommons.org/ns#" xmlns:dc="http://purl.org/dc/elements/1.1/">
	<defs id="defs7231">
		<style id="current-color-scheme" type="text/css">
			.ColorScheme-Text { color:#0000FF; }
		</style>
	</defs>
	<metadata id="metadata7">
		<rdf:RDF>
			<cc:Work rdf:about="">
				<dc:format>image/svg+xml</dc:format>
				<dc:type rdf:resource="http://purl.org/dc/dcmitype/StillImage"/>
				<dc:title/>
				<dc:creator>
					<cc:Agent>
						<dc:title>obnosim</dc:title>
					</cc:Agent>
				</dc:creator>
				<cc:license rdf:resource="http://creativecommons.org/licenses/by-sa/3.0/"/>
			</cc:Work>
			<cc:License rdf:about="http://creativecommons.org/licenses/by-sa/3.0/">
				<cc:permits rdf:resource="http://creativecommons.org/ns#Reproduction"/>
				<cc:permits rdf:resource="http://creativecommons.org/ns#Distribution"/>
				<cc:requires rdf:resource="http://creativecommons.org/ns#Notice"/>
				<cc:requires rdf:resource="http://creativecommons.org/ns#Attribution"/>
				<cc:permits rdf:resource="http://creativecommons.org/ns#DerivativeWorks"/>
				<cc:requires rdf:resource="http://creativecommons.org/ns#ShareAlike"/>
			</cc:License>
		</rdf:RDF>
	</metadata>
	<g id="zoom-fit-width" transform="translate(-77,-25)">
		<rect style="opacity:.875;fill:none" height="22" width="22" y="45" x="77"/>
		<g style="opacity:.875">
			<path class="ColorScheme-Text" style="opacity:1;stroke-linejoin:round;stroke:currentColor;stroke-linecap:round;fill:none" d="m98.505 52.5v7m-6.5-8.5 5 5-5 5m-14.505-8.5v7m6.5-8.5l-5 5 5 5"/>
			<rect class="ColorScheme-Text" style="opacity:1;fill:currentColor" ry=".97790" height="2" width="18" y="55" x="79"/>
		</g>
	</g>
	<g id="zoom-fit-height" transform="matrix(0,1,-1,0,93,-57)">
		<rect style="opacity:.875;fill:none" height="22" width="22" y="45" x="77"/>
		<g style="opacity:.875">
			<path class="ColorScheme-Text" style="opacity:1;stroke-linejoin:round;stroke:currentColor;stroke-linecap:round;fill:none" d="m98.505 52.5v7m-6.5-8.5 5 5-5 5m-14.505-8.5v7m6.5-8.5l-5 5 5 5"/>
			<rect class="ColorScheme-Text" style="opacity:1;fill:currentColor" ry=".97790" height="2" width="18" y="55" x="79"/>
		</g>
	</g>
	<g id="16-16-zoom-fit-height" transform="matrix(0,1,-1,0,62,-104)">
		<rect style="fill:none" height="16" width="16" y="20" x="104"/>
		<g style="opacity:.875">
			<path class="ColorScheme-Text" style="opacity:1;fill:currentColor" d="m106.5 28c0 .554.446 1 1 1h9c.554 0 1-.446 1-1s-.446-1-1-1h-9c-.554 0-1 .446-1 1z"/>
			<path class="ColorScheme-Text" style="opacity:1;stroke-linejoin:round;stroke:currentColor;stroke-linecap:round;fill:none" d="m119.5 30.5v-5m-15 5v-5m5-1-3.5 3.5 3.5 3.5m5-7 3.5 3.5-3.5 3.5"/>
		</g>
	</g>
	<g id="16-16-zoom-fit-width" transform="translate(-98,-20)">
		<rect style="fill:none" height="16" width="16" y="20" x="104"/>
		<g style="opacity:.875">
			<path class="ColorScheme-Text" style="opacity:1;fill:currentColor" d="m107.5 27c-.554 0-1 .446-1 1s.446 1 1 1h9c.554 0 1-.446 1-1s-.446-1-1-1h-9z"/>
			<path class="ColorScheme-Text" style="opacity:1;stroke-linejoin:round;stroke:currentColor;stroke-linecap:round;fill:none" d="m119.5 25.5v5m-15-5v5m10-6 3.5 3.5-3.5 3.5m-5-7-3.5 3.5 3.5 3.5"/>
		</g>
	</g>
</svg>
