<?xml version="1.0" encoding="UTF-8" standalone="no"?>
<svg id="svg7229" xmlns:rdf="http://www.w3.org/1999/02/22-rdf-syntax-ns#" xmlns="http://www.w3.org/2000/svg" height="42" width="48" version="1.0" xmlns:cc="http://creativecommons.org/ns#" xmlns:dc="http://purl.org/dc/elements/1.1/">
	<defs id="defs7231">
		<style id="current-color-scheme" type="text/css">
			.ColorScheme-Text {
			color:#0000FF;
			}
			.ColorScheme-Background{
			color:#E9E8E8;
			}
			.ColorScheme-ViewText {
			color:#31363b;
			}
			.ColorScheme-ViewBackground{
			color:#ffffff;
			}
			.ColorScheme-ViewHover {
			color:#000000;
			}
			.ColorScheme-ViewFocus{
			color:#5a5a5a;
			}
			.ColorScheme-ButtonText {
			color:#31363b;
			}
			.ColorScheme-ButtonBackground{
			color:#E9E8E8;
			}
			.ColorScheme-ButtonHover {
			color:#1489ff;
			}
			.ColorScheme-ButtonFocus{
			color:#2B74C7;
			}
		</style>
	</defs>
	<metadata id="metadata7234">
		<rdf:RDF>
			<cc:Work rdf:about="">
				<dc:format>image/svg+xml</dc:format>
				<dc:type rdf:resource="http://purl.org/dc/dcmitype/StillImage"/>
				<dc:title/>
			</cc:Work>
		</rdf:RDF>
	</metadata>
	<g id="zoom-fit-width" transform="translate(-77,-25)">
		<rect id="rect4161" style="opacity:.875;fill:none" height="22" width="22" y="45" x="77"/>
		<g id="g4184" style="opacity:.875">
			<path id="path4180" class="ColorScheme-Text" style="opacity:1;stroke-linejoin:round;stroke:currentColor;stroke-linecap:round;fill:none" d="m98.505 52.5v7m-6.5-8.5 5 5-5 5m-14.505-8.5v7m6.5-8.5l-5 5 5 5"/>
			<rect id="rect4182" class="ColorScheme-Text" style="opacity:1;fill:currentColor" ry=".97790" height="2" width="18" y="55" x="79"/>
		</g>
	</g>
	<g id="zoom-fit-height" transform="matrix(0,1,-1,0,93,-57)">
		<rect id="rect4217" style="opacity:.875;fill:none" height="22" width="22" y="45" x="77"/>
		<g id="g4219" style="opacity:.875">
			<path id="path4223" class="ColorScheme-Text" style="opacity:1;stroke-linejoin:round;stroke:currentColor;stroke-linecap:round;fill:none" d="m98.505 52.5v7m-6.5-8.5 5 5-5 5m-14.505-8.5v7m6.5-8.5l-5 5 5 5"/>
			<rect id="rect4225" class="ColorScheme-Text" style="opacity:1;fill:currentColor" ry=".97790" height="2" width="18" y="55" x="79"/>
		</g>
	</g>
	<g id="16-16-zoom-fit-height" transform="matrix(0,1,-1,0,62,-104)">
		<rect id="rect4229" style="fill:none" height="16" width="16" y="20" x="104"/>
		<g id="g4241" style="opacity:.875">
			<path id="path4306" class="ColorScheme-Text" style="opacity:1;fill:currentColor" d="m106.5 28c0 .554.446 1 1 1h9c.554 0 1-.446 1-1s-.446-1-1-1h-9c-.554 0-1 .446-1 1z"/>
			<path id="path4312" class="ColorScheme-Text" style="opacity:1;stroke-linejoin:round;stroke:currentColor;stroke-linecap:round;fill:none" d="m119.5 30.5v-5m-15 5v-5m5-1-3.5 3.5 3.5 3.5m5-7 3.5 3.5-3.5 3.5"/>
		</g>
	</g>
	<g id="16-16-zoom-fit-width" transform="translate(-98,-20)">
		<rect id="rect4259" style="fill:none" height="16" width="16" y="20" x="104"/>
		<g id="g4261" style="opacity:.875">
			<path id="rect4263" class="ColorScheme-Text" style="opacity:1;fill:currentColor" d="m107.5 27c-.554 0-1 .446-1 1s.446 1 1 1h9c.554 0 1-.446 1-1s-.446-1-1-1h-9z"/>
			<path id="path4301" class="ColorScheme-Text" style="opacity:1;stroke-linejoin:round;stroke:currentColor;stroke-linecap:round;fill:none" d="m119.5 25.5v5m-15-5v5m10-6 3.5 3.5-3.5 3.5m-5-7-3.5 3.5 3.5 3.5"/>
		</g>
	</g>
</svg>
