<?xml version="1.0" encoding="UTF-8" standalone="no"?>
<svg id="svg2" xmlns:rdf="http://www.w3.org/1999/02/22-rdf-syntax-ns#" xmlns="http://www.w3.org/2000/svg" height="36" width="36" version="1.0" xmlns:cc="http://creativecommons.org/ns#" xmlns:xlink="http://www.w3.org/1999/xlink" xmlns:dc="http://purl.org/dc/elements/1.1/">
	<defs id="defs4">
		<linearGradient id="linearGradient4251" gradientUnits="userSpaceOnUse" x2="8" gradientTransform="translate(36,-24)" y1="16" x1="8">
			<stop id="stop4940" style="stop-color:#ffffff;stop-opacity:.75294" offset="0"/>
			<stop id="stop4942" style="stop-color:#ffffff;stop-opacity:.87843" offset="1"/>
		</linearGradient>
		<linearGradient id="linearGradient4263" y2="20" gradientUnits="userSpaceOnUse" x2="38" gradientTransform="translate(-10)" y1="36" x1="38">
			<stop id="stop4961" style="stop-color:#707070" offset="0"/>
			<stop id="stop4963" style="stop-color:#484848" offset="1"/>
		</linearGradient>
	</defs>
	<metadata id="metadata7">
		<rdf:RDF>
			<cc:Work rdf:about="">
				<dc:format>image/svg+xml</dc:format>
				<dc:type rdf:resource="http://purl.org/dc/dcmitype/StillImage"/>
				<dc:title/>
				<dc:creator>
					<cc:Agent>
						<dc:title>obnosim</dc:title>
					</cc:Agent>
				</dc:creator>
				<cc:license rdf:resource="http://creativecommons.org/licenses/by-nc-sa/3.0/"/>
			</cc:Work>
			<cc:License rdf:about="http://creativecommons.org/licenses/by-nc-sa/3.0/">
				<cc:permits rdf:resource="http://creativecommons.org/ns#Reproduction"/>
				<cc:permits rdf:resource="http://creativecommons.org/ns#Distribution"/>
				<cc:requires rdf:resource="http://creativecommons.org/ns#Notice"/>
				<cc:requires rdf:resource="http://creativecommons.org/ns#Attribution"/>
				<cc:prohibits rdf:resource="http://creativecommons.org/ns#CommercialUse"/>
				<cc:permits rdf:resource="http://creativecommons.org/ns#DerivativeWorks"/>
				<cc:requires rdf:resource="http://creativecommons.org/ns#ShareAlike"/>
			</cc:License>
		</rdf:RDF>
	</metadata>
	<g id="pressed" transform="translate(0,-20)">
		<circle id="path4255" r="8" style="opacity:.75;fill-rule:evenodd;fill:url(#linearGradient4263)" cx="28" cy="28"/>
		<path id="path4169" style="opacity:.125;fill-rule:evenodd;fill:#ffffff" d="m35.141 11.596a8.5 8.5 0 0 1 -7.141 3.904 8.5 8.5 0 0 1 -7.066 -3.789 8 8 0 0 0 7.066 4.289 8 8 0 0 0 7.141 -4.404z" transform="translate(0,20)"/>
		<path id="path4292" style="opacity:0.187;fill-rule:evenodd;fill:#000000" d="m35.311 24.766a9 9 0 0 0 -7.311 -3.766 9 9 0 0 0 -7.305 3.762 8 8 0 0 1 7.305 -4.762 8 8 0 0 1 7.311 4.766z"/>
	</g>
	<circle id="normal" r="8" style="fill-rule:evenodd;fill:url(#linearGradient4251)" cx="8" cy="8"/>
	<circle id="focus" r="8" style="opacity:.75;fill-rule:evenodd;fill:#ffffff" cx="8" cy="28"/>
	<circle id="hover" cx="28" cy="28" r="8" style="opacity:.5;fill-rule:evenodd;fill:#ffffff"/>
</svg>
