<?xml version="1.0" encoding="UTF-8" standalone="no"?>
<svg xmlns:rdf="http://www.w3.org/1999/02/22-rdf-syntax-ns#" xmlns="http://www.w3.org/2000/svg" height="72" width="72" version="1.0" xmlns:cc="http://creativecommons.org/ns#" xmlns:xlink="http://www.w3.org/1999/xlink" xmlns:dc="http://purl.org/dc/elements/1.1/">
	<defs>
		<style id="current-color-scheme" type="text/css">.ColorScheme-Highlight { color:#FF00FF; }
			.ColorScheme-Text { color:#0000FF; }</style>
		<g class="ColorScheme-Text">
			<linearGradient id="linearGradient4709">
				<stop style="stop-color:currentColor;stop-opacity:.33" offset="0"/>
				<stop style="stop-color:currentColor;stop-opacity:.21" offset="1"/>
			</linearGradient>
			<linearGradient id="linearGradient4631">
				<stop style="stop-color:currentColor;stop-opacity:.75294" offset="0"/>
				<stop style="stop-color:currentColor;stop-opacity:.87843" offset="1"/>
			</linearGradient>
		</g>
		<linearGradient id="linearGradient4189" y2="16" xlink:href="#linearGradient4631" gradientUnits="userSpaceOnUse" x2="-4" y1="-16" x1="-4"/>
		<linearGradient id="linearGradient4715" x1="44" xlink:href="#linearGradient4631" gradientUnits="userSpaceOnUse" y1="-13" gradientTransform="translate(-4.1864 23.559)" x2="44" y2="-3"/>
		<linearGradient id="linearGradient4465" x1="28" xlink:href="#linearGradient4709" gradientUnits="userSpaceOnUse" x2="28" gradientTransform="translate(0,-56)" y1="20" y2="36"/>
	</defs>
	<metadata>
		<rdf:RDF>
			<cc:Work rdf:about="">
				<dc:format>image/svg+xml</dc:format>
				<dc:type rdf:resource="http://purl.org/dc/dcmitype/StillImage"/>
				<dc:title/>
				<dc:creator>
					<cc:Agent>
						<dc:title>obnosim</dc:title>
					</cc:Agent>
				</dc:creator>
				<cc:license rdf:resource="http://creativecommons.org/licenses/by-sa/3.0/"/>
			</cc:Work>
			<cc:License rdf:about="http://creativecommons.org/licenses/by-sa/3.0/">
				<cc:permits rdf:resource="http://creativecommons.org/ns#Reproduction"/>
				<cc:permits rdf:resource="http://creativecommons.org/ns#Distribution"/>
				<cc:requires rdf:resource="http://creativecommons.org/ns#Notice"/>
				<cc:requires rdf:resource="http://creativecommons.org/ns#Attribution"/>
				<cc:permits rdf:resource="http://creativecommons.org/ns#DerivativeWorks"/>
				<cc:requires rdf:resource="http://creativecommons.org/ns#ShareAlike"/>
			</cc:License>
		</rdf:RDF>
	</metadata>
	<g id="focus" class="ColorScheme-Highlight">
		<circle cy="56" cx="16" r="16" style="opacity:.75;fill:currentColor"/>
	</g>
	<circle id="hover" style="opacity:.5;fill:currentColor" cx="56" class="ColorScheme-Text" cy="56" r="16"/>
	<g id="normal" class="ColorScheme-Text" transform="translate(20,16)">
		<circle style="opacity:.875;fill-rule:evenodd;fill:url(#linearGradient4189)" cx="-4" transform="scale(1,-1)" cy="0" r="16"/>
		<path style="opacity:.5;fill:currentColor;fill-rule:evenodd" d="m10.207-7.192a17 17 0 0 0 -14.282 -7.808 17 17 0 0 0 -14.132 7.578 16 16 0 0 1 14.132 -8.578 16 16 0 0 1 14.282 8.808z"/>
	</g>
	<g id="pressed" class="ColorScheme-Text" transform="matrix(2,0,0,2,0,-40)">
		<circle style="fill:url(#linearGradient4465);fill-rule:evenodd" transform="scale(1,-1)" cy="-28" cx="28" r="8"/>
		<path style="opacity:.187;fill:#000000;fill-rule:evenodd" d="m35.311 24.766a9 9 0 0 0 -7.311 -3.766 9 9 0 0 0 -7.305 3.762 8 8 0 0 1 7.305 -4.762 8 8 0 0 1 7.311 4.766z"/>
		<circle cy="28" cx="28" r="8" style="opacity:.375;fill-rule:evenodd;fill:url(#linearGradient4239)"/>
		<path style="opacity:.125;fill:currentColor;fill-rule:evenodd" d="m35.141 11.596a8.5 8.5 0 0 1 -7.141 3.904 8.5 8.5 0 0 1 -7.066 -3.789 8 8 0 0 0 7.066 4.289 8 8 0 0 0 7.141 -4.404z" transform="translate(0,20)"/>
	</g>
	<g id="22-22-pressed" class="ColorScheme-Text" transform="matrix(1.375,0,0,1.375,81.5,-17.5)">
		<circle style="fill-rule:evenodd;fill:url(#linearGradient4465)" transform="scale(1,-1)" cy="-28" cx="28" r="8"/>
		<circle cy="28" cx="28" r="8" style="opacity:.375;fill:url(#linearGradient4239);fill-rule:evenodd"/>
		<path style="opacity:.187;fill:#000000;fill-rule:evenodd" transform="matrix(.72727 0 0 .72727 -44.727 24.364)" d="m100-6a11 11 0 0 0 -10.24 7.0156 13 13 0 0 1 10.24 -5.0156 13 13 0 0 1 10.25 5.0137 11 11 0 0 0 -10.25 -7.0137z"/>
		<path style="opacity:.125;fill:currentColor;fill-rule:evenodd" transform="matrix(.72727 0 0 .72727 -44.727 24.364)" d="m89.396 7.9238a11 11 0 0 0 10.604 8.0762 11 11 0 0 0 10.56 -7.959 11.5 11.5 0 0 1 -10.56 6.959 11.5 11.5 0 0 1 -10.604 -7.0762z"/>
	</g>
	<circle id="22-22-focus" style="opacity:.75;fill:currentColor" cx="91" class="ColorScheme-Highlight" cy="51" r="11"/>
	<circle id="22-22-hover" style="opacity:.5;fill:currentColor" cx="120" class="ColorScheme-Text" cy="51" r="11"/>
	<g id="22-22-normal" class="ColorScheme-Text" transform="matrix(.6875 0 0 .6875 93.75 21)">
		<circle style="opacity:.875;fill:url(#linearGradient4189);fill-rule:evenodd" cx="-4" transform="scale(1,-1)" cy="0" r="16"/>
		<circle cy="0" cx="-4" r="16" style="fill:url(#linearGradient4187);fill-rule:evenodd"/>
	</g>
	<rect id="pressed-center" style="fill:url(#linearGradient4715)" transform="scale(1,-1)" height="10" width="10" y="10.559" x="34.814"/>
</svg>
