<?xml version="1.0" encoding="UTF-8" standalone="no"?>
<svg id="svg2" xmlns:rdf="http://www.w3.org/1999/02/22-rdf-syntax-ns#" xmlns="http://www.w3.org/2000/svg" height="36" width="36" version="1.0" xmlns:cc="http://creativecommons.org/ns#" xmlns:xlink="http://www.w3.org/1999/xlink" xmlns:dc="http://purl.org/dc/elements/1.1/">
	<defs id="defs4">
		<linearGradient id="linearGradient4054" y2="24" gradientUnits="userSpaceOnUse" y1="40" x2="-28" x1="-28">
			<stop id="stop4940" style="stop-color:#c0c0c0" offset="0"/>
			<stop id="stop4942" style="stop-color:#e0e0e0" offset="1"/>
		</linearGradient>
		<linearGradient id="linearGradient3352" x1="-28" xlink:href="#linearGradient4054" gradientUnits="userSpaceOnUse" y1="40" gradientTransform="matrix(.75 0 0 .75 29 -16)" x2="-28" y2="24"/>
		<radialGradient id="radialGradient4179" gradientUnits="userSpaceOnUse" cy="9" cx="8" gradientTransform="matrix(-1 0 0 -1 16 19)" r="6">
			<stop id="stop4175" style="stop-color:#000000" offset="0"/>
			<stop id="stop4181" style="stop-color:#000000" offset=".66667"/>
			<stop id="stop4177" style="stop-color:#000000;stop-opacity:0" offset="1"/>
		</radialGradient>
		<linearGradient id="linearGradient3359" y2="24" xlink:href="#linearGradient4054" gradientUnits="userSpaceOnUse" x2="-28" y1="40" x1="-28"/>
		<radialGradient id="radialGradient4197" gradientUnits="userSpaceOnUse" cy="8" cx="8" gradientTransform="matrix(-1.1667 1.7402e-8 -1.7402e-8 -1.1667 17.333 37.333)" r="6">
			<stop id="stop4285" style="stop-color:#ffffff;stop-opacity:0" offset="0"/>
			<stop id="stop4178" style="stop-color:#ffffff;stop-opacity:0" offset=".57143"/>
			<stop id="stop4153" style="stop-color:#ffffff" offset=".85714"/>
			<stop id="stop4287" style="stop-color:#ffffff;stop-opacity:0" offset="1"/>
		</radialGradient>
	</defs>
	<metadata id="metadata7">
		<rdf:RDF>
			<cc:Work rdf:about="">
				<dc:format>image/svg+xml</dc:format>
				<dc:type rdf:resource="http://purl.org/dc/dcmitype/StillImage"/>
				<dc:title/>
				<dc:creator>
					<cc:Agent>
						<dc:title>obnosim</dc:title>
					</cc:Agent>
				</dc:creator>
				<cc:license rdf:resource="http://creativecommons.org/licenses/by-nc-sa/3.0/"/>
			</cc:Work>
			<cc:License rdf:about="http://creativecommons.org/licenses/by-nc-sa/3.0/">
				<cc:permits rdf:resource="http://creativecommons.org/ns#Reproduction"/>
				<cc:permits rdf:resource="http://creativecommons.org/ns#Distribution"/>
				<cc:requires rdf:resource="http://creativecommons.org/ns#Notice"/>
				<cc:requires rdf:resource="http://creativecommons.org/ns#Attribution"/>
				<cc:prohibits rdf:resource="http://creativecommons.org/ns#CommercialUse"/>
				<cc:permits rdf:resource="http://creativecommons.org/ns#DerivativeWorks"/>
				<cc:requires rdf:resource="http://creativecommons.org/ns#ShareAlike"/>
			</cc:License>
		</rdf:RDF>
	</metadata>
	<g id="normal">
		<rect id="rect3354" style="fill:none" height="16" width="16" y="0" x="0"/>
		<path id="path4163" style="opacity:.375;fill:url(#radialGradient4179)" d="m2 8v2c0 3.3137 2.6863 6 6 6s6-2.6863 6-6v-2z"/>
		<path id="path3031" style="fill:url(#linearGradient3352)" d="m14 8a6 6 0 0 1 -6 6 6 6 0 0 1 -6 -6 6 6 0 0 1 6 -6 6 6 0 0 1 6 6z"/>
	</g>
	<path id="focus" style="opacity:.875;fill:#ffffff" d="m44 36c-4.4183 0-8 3.5817-8 8s3.5817 8 8 8 8-3.5817 8-8-3.5817-8-8-8zm0 1c3.866 0 7 3.134 7 7s-3.134 7-7 7-7-3.134-7-7 3.134-7 7-7z"/>
	<g id="pressed" style="opacity:.375" transform="translate(52,-8)">
		<path id="path4331" d="m-20 32a8 8 0 0 1 -8 8 8 8 0 0 1 -8 -8 8 8 0 0 1 8 -8 8 8 0 0 1 8 8z" style="fill:url(#linearGradient3359)" transform="matrix(1,0,0,-1,20,64)"/>
		<path id="path4351" style="opacity:0.188;fill:#000000" d="m-8 24c-4.2058 0-7.6468 3.2519-7.9688 7.375.41-3.026 3.827-5.375 7.969-5.375 4.1421 0 7.5591 2.3495 7.9688 5.375-.32198-4.123-3.763-7.375-7.9688-7.375z"/>
	</g>
	<g id="hover" transform="translate(0,20)">
		<rect id="rect4193" style="fill:none" height="16" width="16" y="0" x="0"/>
		<path id="path4195" d="m0 20v16h16v-16h-16z" style="fill:url(#radialGradient4197)" transform="translate(0,-20)"/>
	</g>
</svg>
