<?xml version="1.0" encoding="UTF-8" standalone="no"?>
<!-- Created with Inkscape (http://www.inkscape.org/) -->

<svg
   xmlns:dc="http://purl.org/dc/elements/1.1/"
   xmlns:cc="http://creativecommons.org/ns#"
   xmlns:rdf="http://www.w3.org/1999/02/22-rdf-syntax-ns#"
   xmlns:svg="http://www.w3.org/2000/svg"
   xmlns="http://www.w3.org/2000/svg"
   xmlns:sodipodi="http://sodipodi.sourceforge.net/DTD/sodipodi-0.dtd"
   xmlns:inkscape="http://www.inkscape.org/namespaces/inkscape"
   version="1.1"
   width="70"
   height="70"
   id="svg2"
   inkscape:version="0.91 r13725"
   sodipodi:docname="action-overlays.svg">
  <sodipodi:namedview
     pagecolor="#323232"
     bordercolor="#666666"
     borderopacity="1"
     objecttolerance="10"
     gridtolerance="10"
     guidetolerance="10"
     inkscape:pageopacity="1"
     inkscape:pageshadow="2"
     inkscape:window-width="1920"
     inkscape:window-height="1056"
     id="namedview41"
     showgrid="false"
     inkscape:showpageshadow="false"
     showborder="false"
     inkscape:zoom="4"
     inkscape:cx="163.63494"
     inkscape:cy="27.848083"
     inkscape:window-x="0"
     inkscape:window-y="-3"
     inkscape:window-maximized="1"
     inkscape:current-layer="add-normal"
     fit-margin-top="0"
     fit-margin-left="0"
     fit-margin-right="0"
     fit-margin-bottom="0">
    <inkscape:grid
       type="xygrid"
       id="grid3368"
       empspacing="4"
       originx="15"
       originy="-81" />
  </sodipodi:namedview>
  <metadata
     id="metadata7">
    <rdf:RDF>
      <cc:Work
         rdf:about="">
        <dc:format>image/svg+xml</dc:format>
        <dc:type
           rdf:resource="http://purl.org/dc/dcmitype/StillImage" />
        <dc:title></dc:title>
        <dc:creator>
          <cc:Agent>
            <dc:title>obnosim</dc:title>
          </cc:Agent>
        </dc:creator>
        <cc:license
           rdf:resource="http://creativecommons.org/licenses/by-nc-sa/3.0/" />
      </cc:Work>
      <cc:License
         rdf:about="http://creativecommons.org/licenses/by-nc-sa/3.0/">
        <cc:permits
           rdf:resource="http://creativecommons.org/ns#Reproduction" />
        <cc:permits
           rdf:resource="http://creativecommons.org/ns#Distribution" />
        <cc:requires
           rdf:resource="http://creativecommons.org/ns#Notice" />
        <cc:requires
           rdf:resource="http://creativecommons.org/ns#Attribution" />
        <cc:prohibits
           rdf:resource="http://creativecommons.org/ns#CommercialUse" />
        <cc:permits
           rdf:resource="http://creativecommons.org/ns#DerivativeWorks" />
        <cc:requires
           rdf:resource="http://creativecommons.org/ns#ShareAlike" />
      </cc:License>
    </rdf:RDF>
  </metadata>
  <g
     id="add-pressed"
     style="opacity:0.75"
     transform="translate(15,75.000002)">
    <rect
       y="-27.000002"
       x="-15"
       height="22"
       width="22"
       id="rect4198"
       style="opacity:1;fill:none;fill-opacity:0.25098039;fill-rule:evenodd;stroke:none;stroke-width:2;stroke-linecap:round;stroke-linejoin:round;stroke-miterlimit:4;stroke-dasharray:none;stroke-dashoffset:0;stroke-opacity:1" />
    <path
       style="opacity:1;fill:#E0E0E0;fill-opacity:1;fill-rule:evenodd;stroke:none;stroke-width:2;stroke-linecap:round;stroke-linejoin:round;stroke-miterlimit:4;stroke-dasharray:none;stroke-dashoffset:0;stroke-opacity:1"
       d="m -4,-23 c -0.554,0 -1,0.446 -1,1 l 0,6 -6,0 c -0.554,0 -1,0.446 -1,1 0,0.554 0.446,1 1,1 l 6,0 0,6 c 0,0.554 0.446,1 1,1 0.554,0 1,-0.446 1,-1 l 0,-6 6,0 c 0.554,0 1,-0.446 1,-1 0,-0.554 -0.446,-1 -1,-1 l -6,0 0,-6 c 0,-0.554 -0.446,-1 -1,-1 z"
       id="rect4199"
       inkscape:connector-curvature="0" />
  </g>
  <g
     id="remove-pressed"
     style="opacity:0.75"
     transform="translate(15,75.000002)">
    <rect
       style="opacity:1;fill:none;fill-opacity:0.25098039;fill-rule:evenodd;stroke:none;stroke-width:2;stroke-linecap:round;stroke-linejoin:round;stroke-miterlimit:4;stroke-dasharray:none;stroke-dashoffset:0;stroke-opacity:1"
       id="rect4218"
       width="22"
       height="22"
       x="9"
       y="-27.000002" />
    <rect
       ry="1"
       y="-16"
       x="12"
       height="2"
       width="16"
       id="rect4203"
       style="opacity:1;fill:#E0E0E0;fill-opacity:1;fill-rule:evenodd;stroke:none;stroke-width:2;stroke-linecap:round;stroke-linejoin:round;stroke-miterlimit:4;stroke-dasharray:none;stroke-dashoffset:0;stroke-opacity:1" />
  </g>
  <g
     id="open-pressed"
     style="opacity:0.75"
     transform="translate(15,75.000002)">
    <rect
       y="-27"
       x="33"
       height="22"
       width="22"
       id="rect3370"
       style="opacity:1;fill:none;fill-opacity:0.25098039;fill-rule:evenodd;stroke:none;stroke-width:2;stroke-linecap:round;stroke-linejoin:round;stroke-miterlimit:4;stroke-dasharray:none;stroke-dashoffset:0;stroke-opacity:1" />
    <path
       sodipodi:nodetypes="cccccc"
       inkscape:connector-curvature="0"
       d="m 46,-20 5,5 -5,5 m -9,-12 0,7 13,0"
       style="opacity:1;fill:none;fill-opacity:1;fill-rule:evenodd;stroke:#E0E0E0;stroke-width:2;stroke-linecap:round;stroke-linejoin:round;stroke-miterlimit:4;stroke-dasharray:none;stroke-dashoffset:0;stroke-opacity:1"
       id="path4207" />
  </g>
  <g
     id="add-hover"
     transform="translate(15,51.000002)">
    <rect
       style="opacity:1;fill:none;fill-opacity:0.25098039;fill-rule:evenodd;stroke:none;stroke-width:2;stroke-linecap:round;stroke-linejoin:round;stroke-miterlimit:4;stroke-dasharray:none;stroke-dashoffset:0;stroke-opacity:1"
       id="rect4225"
       width="22"
       height="22"
       x="-15"
       y="-27.000002" />
    <path
       style="opacity:1;fill:#E0E0E0;fill-opacity:1;fill-rule:evenodd;stroke:none;stroke-width:2;stroke-linecap:round;stroke-linejoin:round;stroke-miterlimit:4;stroke-dasharray:none;stroke-dashoffset:0;stroke-opacity:1"
       d="m -4,-48 c -0.554,0 -1,0.446 -1,1 l 0,6 -6,0 c -0.554,0 -1,0.446 -1,1 0,0.554 0.446,1 1,1 l 6,0 0,6 c 0,0.554 0.446,1 1,1 0.554,0 1,-0.446 1,-1 l 0,-6 6,0 c 0.554,0 1,-0.446 1,-1 0,-0.554 -0.446,-1 -1,-1 l -6,0 0,-6 c 0,-0.554 -0.446,-1 -1,-1 z"
       transform="translate(0,24)"
       id="rect4227"
       inkscape:connector-curvature="0" />
  </g>
  <g
     id="remove-hover"
     transform="translate(15,51.000002)">
    <rect
       y="-27.000002"
       x="9"
       height="22"
       width="22"
       id="rect4233"
       style="opacity:1;fill:none;fill-opacity:0.25098039;fill-rule:evenodd;stroke:none;stroke-width:2;stroke-linecap:round;stroke-linejoin:round;stroke-miterlimit:4;stroke-dasharray:none;stroke-dashoffset:0;stroke-opacity:1" />
    <rect
       style="opacity:1;fill:#E0E0E0;fill-opacity:1;fill-rule:evenodd;stroke:none;stroke-width:2;stroke-linecap:round;stroke-linejoin:round;stroke-miterlimit:4;stroke-dasharray:none;stroke-dashoffset:0;stroke-opacity:1"
       id="rect4235"
       width="16"
       height="2"
       x="12"
       y="-17"
       ry="1" />
  </g>
  <g
     id="open-hover"
     transform="translate(15,51.000002)">
    <rect
       style="opacity:1;fill:none;fill-opacity:0.25098039;fill-rule:evenodd;stroke:none;stroke-width:2;stroke-linecap:round;stroke-linejoin:round;stroke-miterlimit:4;stroke-dasharray:none;stroke-dashoffset:0;stroke-opacity:1"
       id="rect4239"
       width="22"
       height="22"
       x="33"
       y="-27" />
    <path
       id="path4241"
       style="opacity:1;fill:none;fill-opacity:1;fill-rule:evenodd;stroke:#E0E0E0;stroke-width:2;stroke-linecap:round;stroke-linejoin:round;stroke-miterlimit:4;stroke-dasharray:none;stroke-dashoffset:0;stroke-opacity:1"
       d="m 46,-21 5,5 -5,5 m -9,-12 0,7 13,0"
       inkscape:connector-curvature="0"
       sodipodi:nodetypes="cccccc" />
  </g>
  <g
     transform="translate(15,27.000002)"
     id="add-normal"
     style="opacity:0.375">
    <rect
       y="-27.000002"
       x="-15"
       height="22"
       width="22"
       id="rect4245"
       style="opacity:1;fill:none;fill-opacity:0.25098039;fill-rule:evenodd;stroke:none;stroke-width:2;stroke-linecap:round;stroke-linejoin:round;stroke-miterlimit:4;stroke-dasharray:none;stroke-dashoffset:0;stroke-opacity:1" />
    <path
       style="opacity:1;fill:#E0E0E0;fill-opacity:1;fill-rule:evenodd;stroke:none;stroke-width:2;stroke-linecap:round;stroke-linejoin:round;stroke-miterlimit:4;stroke-dasharray:none;stroke-dashoffset:0;stroke-opacity:1"
       d="m -4,-72 c -0.554,0 -1,0.446 -1,1 l 0,6 -6,0 c -0.554,0 -1,0.446 -1,1 0,0.554 0.446,1 1,1 l 6,0 0,6 c 0,0.554 0.446,1 1,1 0.554,0 1,-0.446 1,-1 l 0,-6 6,0 c 0.554,0 1,-0.446 1,-1 0,-0.554 -0.446,-1 -1,-1 l -6,0 0,-6 c 0,-0.554 -0.446,-1 -1,-1 z"
       transform="translate(0,48)"
       id="rect4247"
       inkscape:connector-curvature="0" />
  </g>
  <g
     transform="translate(15,27.000002)"
     id="remove-normal"
     style="opacity:0.375">
    <rect
       style="opacity:1;fill:none;fill-opacity:0.25098039;fill-rule:evenodd;stroke:none;stroke-width:2;stroke-linecap:round;stroke-linejoin:round;stroke-miterlimit:4;stroke-dasharray:none;stroke-dashoffset:0;stroke-opacity:1"
       id="rect4253"
       width="22"
       height="22"
       x="9"
       y="-27.000002" />
    <rect
       ry="1"
       y="-17"
       x="12"
       height="2"
       width="16"
       id="rect4255"
       style="opacity:1;fill:#E0E0E0;fill-opacity:1;fill-rule:evenodd;stroke:none;stroke-width:2;stroke-linecap:round;stroke-linejoin:round;stroke-miterlimit:4;stroke-dasharray:none;stroke-dashoffset:0;stroke-opacity:1" />
  </g>
  <g
     transform="translate(15,27.000002)"
     id="open-normal"
     style="opacity:0.375">
    <rect
       y="-27"
       x="33"
       height="22"
       width="22"
       id="rect4259"
       style="opacity:1;fill:none;fill-opacity:0.25098039;fill-rule:evenodd;stroke:none;stroke-width:2;stroke-linecap:round;stroke-linejoin:round;stroke-miterlimit:4;stroke-dasharray:none;stroke-dashoffset:0;stroke-opacity:1" />
    <path
       sodipodi:nodetypes="cccccc"
       inkscape:connector-curvature="0"
       d="m 46,-21 5,5 -5,5 m -9,-12 0,7 13,0"
       style="opacity:1;fill:none;fill-opacity:1;fill-rule:evenodd;stroke:#E0E0E0;stroke-width:2;stroke-linecap:round;stroke-linejoin:round;stroke-miterlimit:4;stroke-dasharray:none;stroke-dashoffset:0;stroke-opacity:1"
       id="path4261" />
  </g>
</svg>
