<?xml version="1.0" encoding="UTF-8" standalone="no"?>
<svg id="svg2" xmlns:rdf="http://www.w3.org/1999/02/22-rdf-syntax-ns#" xmlns="http://www.w3.org/2000/svg" height="36" width="36" version="1.0" xmlns:cc="http://creativecommons.org/ns#" xmlns:xlink="http://www.w3.org/1999/xlink" xmlns:dc="http://purl.org/dc/elements/1.1/">
	<defs id="defs4">
		<linearGradient id="linearGradient4283">
			<stop id="stop4285" style="stop-color:#ffffff" offset="0"/>
			<stop id="stop4287" style="stop-color:#ffffff;stop-opacity:0" offset="1"/>
		</linearGradient>
		<linearGradient id="linearGradient4054" x1="-28" gradientUnits="userSpaceOnUse" x2="-28" y1="40" y2="24">
			<stop id="stop4940" style="stop-color:#c0c0c0" offset="0"/>
			<stop id="stop4942" style="stop-color:#e0e0e0" offset="1"/>
		</linearGradient>
		<radialGradient id="radialGradient4289" xlink:href="#linearGradient4283" gradientUnits="userSpaceOnUse" cy="-1.4211e-14" cx="8" gradientTransform="matrix(-2,0,0,-1,24,0)" r="8"/>
		<radialGradient id="radialGradient4319" xlink:href="#linearGradient4283" gradientUnits="userSpaceOnUse" cy="36" cx="8" gradientTransform="matrix(0,-1,2,0,-64,44)" r="8"/>
	</defs>
	<metadata id="metadata7">
		<rdf:RDF>
			<cc:Work rdf:about="">
				<dc:format>image/svg+xml</dc:format>
				<dc:type rdf:resource="http://purl.org/dc/dcmitype/StillImage"/>
				<dc:title/>
				<dc:creator>
					<cc:Agent>
						<dc:title>obnosim</dc:title>
					</cc:Agent>
				</dc:creator>
				<cc:license rdf:resource="http://creativecommons.org/licenses/by-nc-sa/3.0/"/>
			</cc:Work>
			<cc:License rdf:about="http://creativecommons.org/licenses/by-nc-sa/3.0/">
				<cc:permits rdf:resource="http://creativecommons.org/ns#Reproduction"/>
				<cc:permits rdf:resource="http://creativecommons.org/ns#Distribution"/>
				<cc:requires rdf:resource="http://creativecommons.org/ns#Notice"/>
				<cc:requires rdf:resource="http://creativecommons.org/ns#Attribution"/>
				<cc:prohibits rdf:resource="http://creativecommons.org/ns#CommercialUse"/>
				<cc:permits rdf:resource="http://creativecommons.org/ns#DerivativeWorks"/>
				<cc:requires rdf:resource="http://creativecommons.org/ns#ShareAlike"/>
			</cc:License>
		</rdf:RDF>
	</metadata>
	<g id="normal" style="opacity:.875" transform="translate(36,-24)">
		<path id="path3031" style="fill:url(#linearGradient4054)" d="m-20 32a8 8 0 0 1 -8 8 8 8 0 0 1 -8 -8 8 8 0 0 1 8 -8 8 8 0 0 1 8 8z"/>
		<path id="path4278" style="opacity:1;fill:url(#radialGradient4289)" transform="translate(-36,24)" d="m8 0a8 8 0 0 0 -8 8 8 8 0 0 0 8 8 8 8 0 0 0 8 -8 8 8 0 0 0 -8 -8zm0 1a7 7 0 0 1 7 7 7 7 0 0 1 -7 7 7 7 0 0 1 -7 -7 7 7 0 0 1 7 -7z"/>
	</g>
	<g id="hover">
		<path id="path4333" style="opacity:.875;fill:url(#radialGradient4319)" d="m8 20c-4.4183 0-8 3.5817-8 8s3.5817 8 8 8 8-3.5817 8-8-3.5817-8-8-8zm0 1c3.866 0 7 3.134 7 7s-3.134 7-7 7-7-3.134-7-7 3.134-7 7-7z"/>
		<path id="path4337" style="opacity:.187;fill:url(#radialGradient4319)" d="m8 20c-4.4183 0-8 3.5817-8 8s3.5817 8 8 8 8-3.5817 8-8-3.5817-8-8-8z"/>
	</g>
	<path id="focus" style="opacity:.875;fill:#ffffff" d="m28 20c-4.4183 0-8 3.5817-8 8s3.5817 8 8 8 8-3.5817 8-8-3.5817-8-8-8zm0 1c3.866 0 7 3.134 7 7s-3.134 7-7 7-7-3.134-7-7 3.134-7 7-7z"/>
	<g id="pressed" style="opacity:.375" transform="translate(36,-24)">
		<path id="path4331" style="fill:url(#linearGradient4054)" transform="matrix(1,0,0,-1,20,64)" d="m-20 32a8 8 0 0 1 -8 8 8 8 0 0 1 -8 -8 8 8 0 0 1 8 -8 8 8 0 0 1 8 8z"/>
		<path id="path4351" style="opacity:.188;fill:#000000" d="m-8 24c-4.2058 0-7.6468 3.2519-7.9688 7.375.410-3.026 3.827-5.375 7.969-5.375 4.1421 0 7.5591 2.3495 7.9688 5.375-.32198-4.123-3.763-7.375-7.9688-7.375z"/>
	</g>
</svg>
