<?xml version="1.0" encoding="UTF-8" standalone="no"?>
<svg id="svg2" xmlns:rdf="http://www.w3.org/1999/02/22-rdf-syntax-ns#" xmlns="http://www.w3.org/2000/svg" height="36" width="36" version="1.0" xmlns:cc="http://creativecommons.org/ns#" xmlns:dc="http://purl.org/dc/elements/1.1/">
	<defs id="defs4">
		<style id="local" type="text/css">
			.focus { color:#ff2121; }
		</style>
		<linearGradient id="linearGradient3352" y2="24" gradientUnits="userSpaceOnUse" x2="-28" gradientTransform="translate(36,-24)" y1="40" x1="-28">
			<stop id="stop4940" style="stop-color:#ffffff;stop-opacity:.75294" offset="0"/>
			<stop id="stop4942" style="stop-color:#ffffff;stop-opacity:.87843" offset="1"/>
		</linearGradient>
		<linearGradient id="linearGradient4187" y2="35" gradientUnits="userSpaceOnUse" y1="21" gradientTransform="matrix(1.1429,0,0,1.1429,-4,-4)" x2="28" x1="28">
			<stop id="stop4209" style="stop-color:#c0c0c0" offset="0"/>
			<stop id="stop4211" style="stop-color:#e0e0e0" offset="1"/>
		</linearGradient>
		<linearGradient id="linearGradient4174" y2="36" gradientUnits="userSpaceOnUse" y1="20" x2="28" x1="28">
			<stop id="stop4170" style="stop-color:#ffffff;stop-opacity:.87843" offset="0"/>
			<stop id="stop4172" style="stop-color:#ffffff;stop-opacity:.37647" offset="1"/>
		</linearGradient>
	</defs>
	<metadata id="metadata7">
		<rdf:RDF>
			<cc:Work rdf:about="">
				<dc:format>image/svg+xml</dc:format>
				<dc:type rdf:resource="http://purl.org/dc/dcmitype/StillImage"/>
				<dc:title/>
				<dc:creator>
					<cc:Agent>
						<dc:title>obnosim</dc:title>
					</cc:Agent>
				</dc:creator>
				<cc:license rdf:resource="http://creativecommons.org/licenses/by-nc-sa/3.0/"/>
			</cc:Work>
			<cc:License rdf:about="http://creativecommons.org/licenses/by-nc-sa/3.0/">
				<cc:permits rdf:resource="http://creativecommons.org/ns#Reproduction"/>
				<cc:permits rdf:resource="http://creativecommons.org/ns#Distribution"/>
				<cc:requires rdf:resource="http://creativecommons.org/ns#Notice"/>
				<cc:requires rdf:resource="http://creativecommons.org/ns#Attribution"/>
				<cc:prohibits rdf:resource="http://creativecommons.org/ns#CommercialUse"/>
				<cc:permits rdf:resource="http://creativecommons.org/ns#DerivativeWorks"/>
				<cc:requires rdf:resource="http://creativecommons.org/ns#ShareAlike"/>
			</cc:License>
		</rdf:RDF>
	</metadata>
	<path id="normal" style="fill:url(#linearGradient3352)" d="m16 8a8 8 0 0 1 -8 8 8 8 0 0 1 -8 -8 8 8 0 0 1 8 -8 8 8 0 0 1 8 8z"/>
	<g id="pressed" style="opacity:.375" transform="translate(0,-20)">
		<path id="path4179" style="opacity:.875;fill-rule:evenodd;fill:url(#linearGradient4187)" d="m28 20c-4.4183 0-8 3.5817-8 8s3.5817 8 8 8 8-3.5817 8-8-3.5817-8-8-8z"/>
		<path id="path4166" style="opacity:0.187;fill-rule:evenodd;fill:#000000" transform="translate(0,20)" d="m28 0c-4.418 0-8 3.5817-8 8a8 6 0 0 1 8 -6 8 6 0 0 1 7.979 5.5605c-.230-4.2127-3.709-7.5605-7.979-7.5605z"/>
	</g>
	<path id="focus" class="focus" style="fill:currentColor" d="m16 28a8 8 0 0 1 -8 8 8 8 0 0 1 -8 -8 8 8 0 0 1 8 -8 8 8 0 0 1 8 8z"/>
	<path id="hover" style="fill:url(#linearGradient4174)" d="m36 28a8 8 0 0 1 -8 8 8 8 0 0 1 -8 -8 8 8 0 0 1 8 -8 8 8 0 0 1 8 8z"/>
</svg>
