<?xml version="1.0" encoding="UTF-8" standalone="no"?>
<!-- Created with Inkscape (http://www.inkscape.org/) -->

<svg
   xmlns:osb="http://www.openswatchbook.org/uri/2009/osb"
   xmlns:dc="http://purl.org/dc/elements/1.1/"
   xmlns:cc="http://creativecommons.org/ns#"
   xmlns:rdf="http://www.w3.org/1999/02/22-rdf-syntax-ns#"
   xmlns:svg="http://www.w3.org/2000/svg"
   xmlns="http://www.w3.org/2000/svg"
   xmlns:xlink="http://www.w3.org/1999/xlink"
   xmlns:sodipodi="http://sodipodi.sourceforge.net/DTD/sodipodi-0.dtd"
   xmlns:inkscape="http://www.inkscape.org/namespaces/inkscape"
   width="36"
   height="36"
   id="svg2"
   sodipodi:version="0.32"
   inkscape:version="0.91 r13725"
   version="1.0"
   sodipodi:docname="actionbutton.svg"
   inkscape:output_extension="org.inkscape.output.svgz.inkscape"
   inkscape:export-filename="arrow-up.png"
   inkscape:export-xdpi="11.25"
   inkscape:export-ydpi="11.25">
  <sodipodi:namedview
     id="base"
     pagecolor="#323232"
     bordercolor="#ffffff"
     borderopacity="1"
     gridtolerance="10000"
     guidetolerance="10"
     objecttolerance="10"
     inkscape:pageopacity="1"
     inkscape:pageshadow="2"
     inkscape:zoom="2.8284271"
     inkscape:cx="116.99994"
     inkscape:cy="30.891277"
     inkscape:document-units="px"
     inkscape:current-layer="svg2"
     width="128px"
     height="128px"
     showgrid="false"
     inkscape:window-width="1110"
     inkscape:window-height="711"
     inkscape:window-x="103"
     inkscape:window-y="118"
     inkscape:snap-nodes="true"
     inkscape:snap-global="true"
     inkscape:window-maximized="0"
     inkscape:showpageshadow="false"
     fit-margin-top="0"
     fit-margin-left="0"
     fit-margin-right="0"
     fit-margin-bottom="0">
    <inkscape:grid
       enabled="true"
       visible="true"
       empspacing="4"
       empopacity="0.4"
       opacity="0.2"
       empcolor="#0000ff"
       color="#0000ff"
       spacingy="1px"
       spacingx="1px"
       originy="-68px"
       originx="36px"
       type="xygrid"
       id="GridFromPre046Settings"
       snapvisiblegridlinesonly="true" />
  </sodipodi:namedview>
  <defs
     id="defs4">
    <linearGradient
       osb:paint="solid"
       id="linearGradient6476">
      <stop
         id="stop6478"
         offset="0"
         style="stop-color:#ffffff;stop-opacity:1;" />
    </linearGradient>
    <linearGradient
       id="linearGradient4938">
      <stop
         offset="0"
         style="stop-color:#e0e0e0;stop-opacity:0.75294119"
         id="stop4940" />
      <stop
         offset="1"
         style="stop-color:#e0e0e0;stop-opacity:1"
         id="stop4942" />
    </linearGradient>
    <linearGradient
       inkscape:collect="always"
       xlink:href="#linearGradient4938"
       id="linearGradient4054"
       x1="-28"
       y1="40"
       x2="-28"
       y2="24"
       gradientUnits="userSpaceOnUse" />
    <linearGradient
       inkscape:collect="always"
       xlink:href="#linearGradient4938"
       id="linearGradient4349"
       gradientUnits="userSpaceOnUse"
       x1="-28"
       y1="40"
       x2="-28"
       y2="24" />
  </defs>
  <metadata
     id="metadata7">
    <rdf:RDF>
      <cc:Work
         rdf:about="">
        <dc:format>image/svg+xml</dc:format>
        <dc:type
           rdf:resource="http://purl.org/dc/dcmitype/StillImage" />
        <dc:title />
        <dc:creator>
          <cc:Agent>
            <dc:title>obnosim</dc:title>
          </cc:Agent>
        </dc:creator>
        <cc:license
           rdf:resource="http://creativecommons.org/licenses/by-nc-sa/3.0/" />
      </cc:Work>
      <cc:License
         rdf:about="http://creativecommons.org/licenses/by-nc-sa/3.0/">
        <cc:permits
           rdf:resource="http://creativecommons.org/ns#Reproduction" />
        <cc:permits
           rdf:resource="http://creativecommons.org/ns#Distribution" />
        <cc:requires
           rdf:resource="http://creativecommons.org/ns#Notice" />
        <cc:requires
           rdf:resource="http://creativecommons.org/ns#Attribution" />
        <cc:prohibits
           rdf:resource="http://creativecommons.org/ns#CommercialUse" />
        <cc:permits
           rdf:resource="http://creativecommons.org/ns#DerivativeWorks" />
        <cc:requires
           rdf:resource="http://creativecommons.org/ns#ShareAlike" />
      </cc:License>
    </rdf:RDF>
  </metadata>
  <g
     style="opacity:0.875"
     id="normal"
     transform="translate(36,-24)">
    <path
       sodipodi:type="arc"
       style="fill:url(#linearGradient4054);fill-opacity:1;stroke:none"
       id="path3031"
       sodipodi:cx="-28"
       sodipodi:cy="32"
       sodipodi:rx="8"
       sodipodi:ry="8"
       d="m -20,32 c 0,4.418278 -3.581722,8 -8,8 -4.418278,0 -8,-3.581722 -8,-8 0,-4.418278 3.581722,-8 8,-8 4.418278,0 8,3.581722 8,8 z" />
    <path
       inkscape:connector-curvature="0"
       style="opacity:0.5;fill:#ffffff;fill-opacity:1;stroke:none"
       d="m -28,24 c -3.914738,0 -7.151,2.816518 -7.84375,6.53125 C -35.077108,27.362755 -31.84908,25 -28,25 c 3.84908,0 7.077108,2.362755 7.84375,5.53125 C -20.849,26.816518 -24.085262,24 -28,24 z"
       id="path4056" />
    <path
       id="path4064"
       d="m -28,40 c -3.914738,0 -7.151,-2.816518 -7.84375,-6.53125 C -35.077108,36.637245 -31.84908,39 -28,39 c 3.84908,0 7.077108,-2.362755 7.84375,-5.53125 C -20.849,37.183482 -24.085262,40 -28,40 z"
       style="opacity:0.18800001;fill:#000000;fill-opacity:1;stroke:none"
       inkscape:connector-curvature="0"
       inkscape:transform-center-y="4.734375" />
  </g>
  <path
     inkscape:connector-curvature="0"
     id="hover"
     d="m 8,20 c -4.418278,0 -8,3.581722 -8,8 0,4.418278 3.581722,8 8,8 4.418278,0 8,-3.581722 8,-8 0,-4.418278 -3.581722,-8 -8,-8 z m 0,1 c 3.865993,0 7,3.134007 7,7 0,3.865993 -3.134007,7 -7,7 -3.865993,0 -7,-3.134007 -7,-7 0,-3.865993 3.134007,-7 7,-7 z"
     style="opacity:0.875;fill:#ffffff;fill-opacity:1;stroke:none" />
  <path
     style="opacity:0.875;fill:#ffffff;fill-opacity:1;stroke:none"
     d="m 28,20 c -4.418278,0 -8,3.581722 -8,8 0,4.418278 3.581722,8 8,8 4.418278,0 8,-3.581722 8,-8 0,-4.418278 -3.581722,-8 -8,-8 z m 0,1 c 3.865993,0 7,3.134007 7,7 0,3.865993 -3.134007,7 -7,7 -3.865993,0 -7,-3.134007 -7,-7 0,-3.865993 3.134007,-7 7,-7 z"
     id="focus"
     inkscape:connector-curvature="0" />
  <g
     style="opacity:0.375"
     id="pressed"
     transform="translate(36,-24)">
    <path
       d="m -20,32 c 0,4.418278 -3.581722,8 -8,8 -4.418278,0 -8,-3.581722 -8,-8 0,-4.418278 3.581722,-8 8,-8 4.418278,0 8,3.581722 8,8 z"
       sodipodi:ry="8"
       sodipodi:rx="8"
       sodipodi:cy="32"
       sodipodi:cx="-28"
       id="path4331"
       style="fill:url(#linearGradient4349);fill-opacity:1;stroke:none"
       sodipodi:type="arc"
       transform="matrix(1,0,0,-1,20,64)" />
    <path
       id="path4333"
       d="m -8,40 c -3.914738,0 -7.151,-2.816518 -7.84375,-6.53125 C -15.077108,36.637245 -11.84908,39 -8,39 -4.15092,39 -0.922892,36.637245 -0.15625,33.46875 -0.849,37.183482 -4.085262,40 -8,40 z"
       style="opacity:0.5;fill:#ffffff;fill-opacity:1;stroke:none"
       inkscape:connector-curvature="0" />
    <path
       sodipodi:nodetypes="scscs"
       inkscape:connector-curvature="0"
       id="path4351"
       d="m -8,24 c -4.205767,0 -7.646819,3.251882 -7.96875,7.375 C -15.55907,28.349464 -12.142136,26 -8,26 c 4.1421356,0 7.55907005,2.349464 7.96875,5.375 C -0.35318145,27.251882 -3.7942333,24 -8,24 z"
       style="opacity:0.18800001;fill:#000000;fill-opacity:1;stroke:none" />
  </g>
</svg>
