<?xml version="1.0" encoding="UTF-8" standalone="no"?>
<svg id="svg2" xmlns:rdf="http://www.w3.org/1999/02/22-rdf-syntax-ns#" xmlns="http://www.w3.org/2000/svg" height="70" width="70" version="1.1" xmlns:cc="http://creativecommons.org/ns#" xmlns:dc="http://purl.org/dc/elements/1.1/">
	<metadata id="metadata7">
		<rdf:RDF>
			<cc:Work rdf:about="">
				<dc:format>image/svg+xml</dc:format>
				<dc:type rdf:resource="http://purl.org/dc/dcmitype/StillImage"/>
				<dc:title/>
				<dc:creator>
					<cc:Agent>
						<dc:title>obnosim</dc:title>
					</cc:Agent>
				</dc:creator>
				<cc:license rdf:resource="http://creativecommons.org/licenses/by-nc-sa/3.0/"/>
			</cc:Work>
			<cc:License rdf:about="http://creativecommons.org/licenses/by-nc-sa/3.0/">
				<cc:permits rdf:resource="http://creativecommons.org/ns#Reproduction"/>
				<cc:permits rdf:resource="http://creativecommons.org/ns#Distribution"/>
				<cc:requires rdf:resource="http://creativecommons.org/ns#Notice"/>
				<cc:requires rdf:resource="http://creativecommons.org/ns#Attribution"/>
				<cc:prohibits rdf:resource="http://creativecommons.org/ns#CommercialUse"/>
				<cc:permits rdf:resource="http://creativecommons.org/ns#DerivativeWorks"/>
				<cc:requires rdf:resource="http://creativecommons.org/ns#ShareAlike"/>
			</cc:License>
		</rdf:RDF>
	</metadata>
	<defs id="defs3615">
		<style id="current-color-scheme" type="text/css">.ColorScheme-Text {
        color:#0000FF;
      }
      .ColorScheme-Background{
        color:#E9E8E8;
      }
      .ColorScheme-ViewText {
        color:#31363b;
      }
      .ColorScheme-ViewBackground{
        color:#ffffff;
      }
      .ColorScheme-ViewHover {
        color:#000000;
      }
      .ColorScheme-ViewFocus{
        color:#5a5a5a;
      }
      .ColorScheme-ButtonText {
        color:#31363b;
      }
      .ColorScheme-ButtonBackground{
        color:#E9E8E8;
      }
      .ColorScheme-ButtonHover {
        color:#1489ff;
      }
      .ColorScheme-ButtonFocus{
        color:#2B74C7;
      }</style>
	</defs>
	<g id="add-pressed" style="opacity:.75" transform="translate(15 75)">
		<rect id="rect4198" style="opacity:1;fill:none" height="22" width="22" y="-27" x="-15"/>
		<path id="rect4199" style="opacity:1;fill-rule:evenodd;fill:currentColor" class="ColorScheme-Text" d="m-4-23c-.554 0-1 .446-1 1v6h-6c-.554 0-1 .446-1 1s.446 1 1 1h6v6c0 .554.446 1 1 1s1-.446 1-1v-6h6c.554 0 1-.446 1-1s-.446-1-1-1h-6v-6c0-.554-.446-1-1-1z"/>
	</g>
	<g id="remove-pressed" style="opacity:.75" transform="translate(15 75)">
		<rect id="rect4218" style="opacity:1;fill:none" height="22" width="22" y="-27" x="9"/>
		<rect id="rect4203" style="opacity:1;fill-rule:evenodd;fill:currentColor" ry="1" height="2" width="16" y="-16" x="12" class="ColorScheme-Text"/>
	</g>
	<g id="open-pressed" style="opacity:.75" transform="translate(15 75)">
		<rect id="rect3370" style="opacity:1;fill:none" height="22" width="22" y="-27" x="33"/>
		<path id="path4207" style="opacity:1;stroke-linejoin:round;stroke:currentColor;stroke-linecap:round;stroke-width:2;fill:none" d="m46-20 5 5-5 5m-9-12v7h13" class="ColorScheme-Text"/>
	</g>
	<g id="add-hover" transform="translate(15 51)">
		<rect id="rect4225" style="fill:none" height="22" width="22" y="-27" x="-15"/>
		<path id="rect4227" style="fill-rule:evenodd;fill:currentColor" d="m-4-48c-.554 0-1 .446-1 1v6h-6c-.554 0-1 .446-1 1s.446 1 1 1h6v6c0 .554.446 1 1 1s1-.446 1-1v-6h6c.554 0 1-.446 1-1s-.446-1-1-1h-6v-6c0-.554-.446-1-1-1z" class="ColorScheme-Text" transform="translate(0,24)"/>
	</g>
	<g id="remove-hover" transform="translate(15 51)">
		<rect id="rect4233" style="fill:none" height="22" width="22" y="-27" x="9"/>
		<rect id="rect4235" style="fill-rule:evenodd;fill:currentColor" y="-17" ry="1" height="2" width="16" x="12" class="ColorScheme-Text"/>
	</g>
	<g id="open-hover" transform="translate(15 51)">
		<rect id="rect4239" style="fill:none" height="22" width="22" y="-27" x="33"/>
		<path id="path4241" style="stroke-linejoin:round;stroke:currentColor;stroke-linecap:round;stroke-width:2;fill:none" d="m46-21 5 5-5 5m-9-12v7h13" class="ColorScheme-Text"/>
	</g>
	<g id="add-normal" style="opacity:.875" transform="translate(15 27)">
		<rect id="rect4245" style="opacity:1;fill:none" height="22" width="22" y="-27" x="-15"/>
		<path id="rect4247" style="opacity:1;fill-rule:evenodd;fill:currentColor" d="m-4-72c-.554 0-1 .446-1 1v6h-6c-.554 0-1 .446-1 1s.446 1 1 1h6v6c0 .554.446 1 1 1s1-.446 1-1v-6h6c.554 0 1-.446 1-1s-.446-1-1-1h-6v-6c0-.554-.446-1-1-1z" class="ColorScheme-Text" transform="translate(0,48)"/>
	</g>
	<g id="remove-normal" style="opacity:.875" transform="translate(15 27)">
		<rect id="rect4253" style="opacity:1;fill:none" height="22" width="22" y="-27" x="9"/>
		<rect id="rect4255" style="opacity:1;fill-rule:evenodd;fill:currentColor" ry="1" height="2" width="16" y="-17" x="12" class="ColorScheme-Text"/>
	</g>
	<g id="open-normal" style="opacity:.875" transform="translate(15 27)">
		<rect id="rect4259" style="opacity:1;fill:none" height="22" width="22" y="-27" x="33"/>
		<path id="path4261" style="opacity:1;stroke-linejoin:round;stroke:currentColor;stroke-linecap:round;stroke-width:2;fill:none" d="m46-21 5 5-5 5m-9-12v7h13" class="ColorScheme-Text"/>
	</g>
</svg>
