<?xml version="1.0" encoding="UTF-8" standalone="no"?>
<svg id="svg2" xmlns:rdf="http://www.w3.org/1999/02/22-rdf-syntax-ns#" xmlns="http://www.w3.org/2000/svg" height="32" width="32" version="1.1" xmlns:cc="http://creativecommons.org/ns#" xmlns:dc="http://purl.org/dc/elements/1.1/">
	<metadata id="metadata7">
		<rdf:RDF>
			<cc:Work rdf:about="">
				<dc:format>image/svg+xml</dc:format>
				<dc:type rdf:resource="http://purl.org/dc/dcmitype/StillImage"/>
				<dc:title/>
			</cc:Work>
		</rdf:RDF>
	</metadata>
	<g id="layer1" transform="translate(0 -1020.4)">
		<path id="path3781" style="opacity:.375;fill:#000000" d="m20 16a4 4 0 0 1 -4 4 4 4 0 0 1 -4 -4 4 4 0 0 1 4 -4 4 4 0 0 1 4 4z" transform="translate(0 1021.4)"/>
		<path id="path3783" style="opacity:.375;fill:#000000" d="m20 16a4 4 0 0 1 -4 4 4 4 0 0 1 -4 -4 4 4 0 0 1 4 -4 4 4 0 0 1 4 4z" transform="translate(-11 1021.4)"/>
		<path id="path3785" style="opacity:.375;fill:#000000" d="m20 16a4 4 0 0 1 -4 4 4 4 0 0 1 -4 -4 4 4 0 0 1 4 -4 4 4 0 0 1 4 4z" transform="translate(11 1021.4)"/>
		<path id="path2995" style="fill:#0184ff" d="m20 16a4 4 0 0 1 -4 4 4 4 0 0 1 -4 -4 4 4 0 0 1 4 -4 4 4 0 0 1 4 4z" transform="translate(0 1020.4)"/>
		<path id="path2997" style="fill:#ff1a02" d="m20 16a4 4 0 0 1 -4 4 4 4 0 0 1 -4 -4 4 4 0 0 1 4 -4 4 4 0 0 1 4 4z" transform="translate(-11 1020.4)"/>
		<path id="path2999" style="fill:#37ff01" d="m20 16a4 4 0 0 1 -4 4 4 4 0 0 1 -4 -4 4 4 0 0 1 4 -4 4 4 0 0 1 4 4z" transform="translate(11 1020.4)"/>
	</g>
</svg>
