<?xml version="1.0" encoding="UTF-8" standalone="no"?>
<!-- Created with Inkscape (http://www.inkscape.org/) -->

<svg
   xmlns:dc="http://purl.org/dc/elements/1.1/"
   xmlns:cc="http://creativecommons.org/ns#"
   xmlns:rdf="http://www.w3.org/1999/02/22-rdf-syntax-ns#"
   xmlns:svg="http://www.w3.org/2000/svg"
   xmlns="http://www.w3.org/2000/svg"
   xmlns:sodipodi="http://sodipodi.sourceforge.net/DTD/sodipodi-0.dtd"
   xmlns:inkscape="http://www.inkscape.org/namespaces/inkscape"
   width="32"
   height="32"
   id="svg2"
   version="1.1"
   inkscape:version="0.91 r13725"
   sodipodi:docname="activities.svgz">
  <defs
     id="defs4" />
  <sodipodi:namedview
     id="base"
     pagecolor="#323232"
     bordercolor="#ffffff"
     borderopacity="1"
     inkscape:pageopacity="1"
     inkscape:pageshadow="2"
     inkscape:zoom="1"
     inkscape:cx="18.232822"
     inkscape:cy="17.758548"
     inkscape:document-units="px"
     inkscape:current-layer="layer1"
     showgrid="false"
     inkscape:showpageshadow="false">
    <inkscape:grid
       type="xygrid"
       id="grid2985"
       empspacing="4"
       visible="true"
       enabled="true"
       snapvisiblegridlinesonly="true" />
  </sodipodi:namedview>
  <metadata
     id="metadata7">
    <rdf:RDF>
      <cc:Work
         rdf:about="">
        <dc:format>image/svg+xml</dc:format>
        <dc:type
           rdf:resource="http://purl.org/dc/dcmitype/StillImage" />
        <dc:title />
      </cc:Work>
    </rdf:RDF>
  </metadata>
  <g
     inkscape:label="Calque 1"
     inkscape:groupmode="layer"
     id="layer1"
     transform="translate(0,-1020.3622)">
    <path
       transform="translate(0,1021.3622)"
       d="m 20,16 a 4,4 0 1 1 -8,0 4,4 0 1 1 8,0 z"
       sodipodi:ry="4"
       sodipodi:rx="4"
       sodipodi:cy="16"
       sodipodi:cx="16"
       id="path3781"
       style="fill:#000000;fill-opacity:1;stroke:none;opacity:0.375"
       sodipodi:type="arc" />
    <path
       sodipodi:type="arc"
       style="fill:#000000;fill-opacity:1;stroke:none;opacity:0.375"
       id="path3783"
       sodipodi:cx="16"
       sodipodi:cy="16"
       sodipodi:rx="4"
       sodipodi:ry="4"
       d="m 20,16 a 4,4 0 1 1 -8,0 4,4 0 1 1 8,0 z"
       transform="translate(-11,1021.3622)" />
    <path
       transform="translate(11,1021.3622)"
       d="m 20,16 a 4,4 0 1 1 -8,0 4,4 0 1 1 8,0 z"
       sodipodi:ry="4"
       sodipodi:rx="4"
       sodipodi:cy="16"
       sodipodi:cx="16"
       id="path3785"
       style="fill:#000000;fill-opacity:1;stroke:none;opacity:0.375"
       sodipodi:type="arc" />
    <path
       sodipodi:type="arc"
       style="opacity:1;fill:#0184ff;fill-opacity:1;stroke:none"
       id="path2995"
       sodipodi:cx="16"
       sodipodi:cy="16"
       sodipodi:rx="4"
       sodipodi:ry="4"
       d="m 20,16 a 4,4 0 1 1 -8,0 4,4 0 1 1 8,0 z"
       transform="translate(0,1020.3622)" />
    <path
       transform="translate(-11,1020.3622)"
       d="m 20,16 a 4,4 0 1 1 -8,0 4,4 0 1 1 8,0 z"
       sodipodi:ry="4"
       sodipodi:rx="4"
       sodipodi:cy="16"
       sodipodi:cx="16"
       id="path2997"
       style="opacity:1;fill:#ff1a02;fill-opacity:1;stroke:none"
       sodipodi:type="arc" />
    <path
       sodipodi:type="arc"
       style="opacity:1;fill:#37ff01;fill-opacity:1;stroke:none"
       id="path2999"
       sodipodi:cx="16"
       sodipodi:cy="16"
       sodipodi:rx="4"
       sodipodi:ry="4"
       d="m 20,16 a 4,4 0 1 1 -8,0 4,4 0 1 1 8,0 z"
       transform="translate(11,1020.3622)" />
  </g>
</svg>
