<?xml version="1.0" encoding="UTF-8" standalone="no"?>
<svg id="svg2318" xmlns:rdf="http://www.w3.org/1999/02/22-rdf-syntax-ns#" xmlns="http://www.w3.org/2000/svg" height="50" width="50" version="1.0" xmlns:cc="http://creativecommons.org/ns#" xmlns:xlink="http://www.w3.org/1999/xlink" xmlns:dc="http://purl.org/dc/elements/1.1/">
	<defs id="defs2320">
		<radialGradient id="radialGradient3812" gradientUnits="userSpaceOnUse" cy="58.267" cx="21.5" gradientTransform="matrix(1 0 0 .77125 3.594 -2.5542)" r="23.094">
			<stop id="stop6878" style="stop-color:#ffffff" offset="0"/>
			<stop id="stop6880" style="stop-color:#ffffff;stop-opacity:0" offset="1"/>
		</radialGradient>
		<radialGradient id="radialGradient3815" gradientUnits="userSpaceOnUse" cy="30.906" cx="39.715" gradientTransform="matrix(2.4388e-8 -1.135 2.2548 -1.7753e-8 -26.978 69.772)" r="18.312">
			<stop id="stop3020" style="stop-color:#da301b" offset="0"/>
			<stop id="stop3022" style="stop-color:#e63913;stop-opacity:0" offset="1"/>
		</radialGradient>
		<radialGradient id="radialGradient3821" gradientUnits="userSpaceOnUse" cy="-37.834" cx="21.5" gradientTransform="matrix(1.4425 6.5178e-8 -5.7658e-8 1.2566 -5.9196 95.749)" r="23.094">
			<stop id="stop6197" style="stop-color:#ffffff;stop-opacity:.042373" offset="0"/>
			<stop id="stop6199" style="stop-color:#ffffff;stop-opacity:0" offset="1"/>
		</radialGradient>
		<radialGradient id="radialGradient3989" gradientUnits="userSpaceOnUse" cy="34.316" cx="25" gradientTransform="matrix(2.489e-8 -1 1 2.489e-8 -9.3159 50)" r="23">
			<stop id="stop3985" style="stop-color:#ffffff" offset="0"/>
			<stop id="stop3987" style="stop-color:#ffffff;stop-opacity:0" offset="1"/>
		</radialGradient>
	</defs>
	<metadata id="metadata2323">
		<rdf:RDF>
			<cc:Work rdf:about="">
				<dc:format>image/svg+xml</dc:format>
				<dc:type rdf:resource="http://purl.org/dc/dcmitype/StillImage"/>
				<dc:title/>
				<dc:creator>
					<cc:Agent>
						<dc:title>obnosim</dc:title>
					</cc:Agent>
				</dc:creator>
				<cc:license rdf:resource="http://creativecommons.org/licenses/by-nc-sa/3.0/"/>
			</cc:Work>
			<cc:License rdf:about="http://creativecommons.org/licenses/by-nc-sa/3.0/">
				<cc:permits rdf:resource="http://creativecommons.org/ns#Reproduction"/>
				<cc:permits rdf:resource="http://creativecommons.org/ns#Distribution"/>
				<cc:requires rdf:resource="http://creativecommons.org/ns#Notice"/>
				<cc:requires rdf:resource="http://creativecommons.org/ns#Attribution"/>
				<cc:prohibits rdf:resource="http://creativecommons.org/ns#CommercialUse"/>
				<cc:permits rdf:resource="http://creativecommons.org/ns#DerivativeWorks"/>
				<cc:requires rdf:resource="http://creativecommons.org/ns#ShareAlike"/>
			</cc:License>
		</rdf:RDF>
	</metadata>
	<g id="g4133" transform="translate(58)">
		<path id="path3616" style="fill:url(#radialGradient3821)" d="m23.906 4.0386c-12.192.6140-21.906 10.682-21.906 22.917 0 4.5315 1.3435 8.7658 3.625 12.312.38822.60250 1.0606.96539 1.7812.96136h35.375c.72063.0041 1.393-.35886 1.7812-.96136 2.2815-3.5458 3.625-7.7801 3.625-12.312.001-12.631-10.365-22.917-23.093-22.917-.29204 0-.68505-.025293-1.1875 0zm.1875 4.1865c.21315-.010729.56764 0 1 0 10.456-.0000178 18.906 8.355 18.906 18.731 0 3.3314-1.0173 6.3724-2.5625 9.0864h-32.687c-1.5452-2.714-2.5625-5.755-2.5625-9.0864-.0008-10.053 7.9165-18.228 17.906-18.731z"/>
		<path id="path3050" style="stroke-linejoin:round;stroke-opacity:.22791;stroke-dashoffset:1.0878;stroke:#000000;stroke-linecap:round;stroke-width:0.996;fill:#f2f2f2" d="m24 6.1292c-11.09.5585-19.906 9.6958-19.906 20.84 0 4.1193 1.2314 7.9298 3.3125 11.164h35.375c2.0811-3.2343 3.3125-7.0448 3.3125-11.164 0-11.504-9.4081-20.84-21-20.84-.3622 0-.736-.018012-1.0938 0z"/>
		<path id="path3046" style="fill:url(#radialGradient3815)" d="m26.541 8.5556c-9.346-.8783-17.868 5.3884-19.833 14.468 2.4706-7.355 9.954-12.139 17.953-10.979 1.359.19710 2.6424.56248 3.8584 1.0576.2432.08796.4716.19421.7091.29649.0504.02339.1096.02694.1596.05082.0451.02011.0837.05335.1286.07396.4422.20317.8739.43488 1.2929.68546.8616.51540 1.6935 1.0975 2.4399 1.7924.0345.03055.0633.06629.0972.09708.0329.03114.0648.06565.0972.09709.1546.14906.3141.29828.4628.45441 2.767 2.7538 4.523 6.4675 4.7836 10.487l4.6423-.10128c.078-9.045-6.566-16.997-15.836-18.342-.316-.0457-.640-.1088-.955-.1384z"/>
		<path id="path3647" style="opacity:0.001;fill:url(#radialGradient3812)" d="m2.0003 26.646c-.00138.10294-9e-7.20686 0 .31011 0 4.5315 1.3435 8.7658 3.625 12.312.38822.60250 1.0606.96539 1.7812.96136h35.375c.72063.0041 1.393-.35886 1.7812-.96136 2.2815-3.5458 3.625-7.7801 3.625-12.312 0-.10380.0014-.20663 0-.31011h-.5c.0021.10323 0 .20742 0 .31011 0 4.4341-1.299 8.5632-3.5312 12.032-.29616.45961-.82527.74735-1.375.74428h-35.375c-.54973.0031-1.0788-.28466-1.375-.74428-2.2323-3.4692-3.5312-7.5983-3.5312-12.032-9e-7-.10213-.00208-.20698 0-.31011h-.5z"/>
		<path id="path3805" style="fill:#636363" d="m7 28a1 1 0 1 1 -2 0 1 1 0 1 1 2 0z"/>
		<path id="path3807" style="fill:#636363" d="m7 28a1 1 0 1 1 -2 0 1 1 0 1 1 2 0z" transform="translate(38)"/>
		<path id="path3809" style="fill:#636363" d="m7 28a1 1 0 1 1 -2 0 1 1 0 1 1 2 0z" transform="translate(19,-20)"/>
	</g>
	<rect id="rect4139" style="fill-rule:evenodd;fill:#0000ff;fill-opacity:.50196" height="8" width="43" y="40" x="62"/>
	<rect id="rotateminmax" style="fill-rule:evenodd;fill:#278000" height="90" width="270" y="-102.76" x="-.70711"/>
	<rect id="rect4137" style="fill-rule:evenodd;fill:#0000ff;fill-opacity:.50196" height="6.7906" width="30.466" y="31.534" x="67.861"/>
	<path id="path4135" style="fill-rule:evenodd;stroke:#ad0c0c;stroke-width:.16982;fill:#d40000" d="m83.955 30.283-.43532 18.427c-.03816.73636-.13923 1.3332-.53427 1.3332-.33907 0-.44665-.60966-.44957-1.2648l-.54852-18.358 1.0789-.61687.88875.48012z"/>
	<g id="background">
		<rect id="rect4124" style="fill:none" height="27" width="50" y="0" x="0"/>
		<path id="path4118" style="opacity:.25;color:#000000;fill:#000000" d="m25 2c-12.703 0-23 10.297-23 23l18.281 1.5938c-.171-.505-.281-1.031-.281-1.594 0-2.7614 2.2386-5 5-5s5 2.2386 5 5c0 .56264-.10990 1.089-.28125 1.5938l18.281-1.594c0-12.703-10.297-23-23-23z"/>
		<path id="path3185" style="opacity:.25;color:#000000;fill:url(#radialGradient3989)" d="m25 2c-12.703 0-23 10.297-23 23l18.281 1.5938c-.171-.505-.281-1.031-.281-1.594 0-2.7614 2.2386-5 5-5s5 2.2386 5 5c0 .56264-.10990 1.089-.28125 1.5938l18.281-1.594c0-12.703-10.297-23-23-23z"/>
		<path id="path4053" style="opacity:.125;color:#000000;fill:#ffffff" d="m25 2c12.703 0 23 10.297 23 23l-7.8125.6875c.049-.232.118-.453.156-.688 1.517-9.535-6.103-17.98-15.344-19.156-11.629-1.4809-21.798 7.827-23 19.156 0-12.703 10.297-23 23-23z"/>
		<path id="path4081" style="opacity:.125;color:#000000;fill:#ffffff" d="m25 2c-12.703 0-23 10.297-23 23l1 .09375c-.0001-.032 0-.062 0-.094 0-12.15 9.85-22 22-22s22 9.8497 22 22c0 .03162.000133.06216 0 .09375l1-.094c0-12.703-10.297-23-23-23z"/>
		<rect id="rect3042" style="opacity:.5;fill:#ffffff" ry="3" height="8" width="40" y="30" x="5"/>
	</g>
	<rect id="label0" style="fill:#278000" height="8" width="40" y="40" x="5"/>
	<rect id="label1" style="fill:#278000" height="8" width="40" y="30" x="5"/>
	<g id="pointer" transform="matrix(0,-1,1,0,0,50)">
		<path id="path3961" style="fill:#ff0101" d="m20.281 23.406-18.281 1.594 18.281 1.594c-.171-.505-.281-1.031-.281-1.594 0-.56264.10990-1.089.28125-1.5938z"/>
		<rect id="rect3977" style="fill:none" height="2" width="6" y="24" x="19"/>
	</g>
	<rect id="rotatecenter" style="fill:#278000" height="2" width="2" y="24" x="24"/>
	<path id="path4122" style="fill-rule:evenodd;fill:#0000ff" d="m84.094 29.28a1 1 0 0 1 -2 0 1 1 0 1 1 2 0z"/>
</svg>
