<?xml version="1.0" encoding="UTF-8" standalone="no"?>
<svg id="svg2318" xmlns:rdf="http://www.w3.org/1999/02/22-rdf-syntax-ns#" xmlns="http://www.w3.org/2000/svg" height="50" width="50" version="1.0" xmlns:cc="http://creativecommons.org/ns#" xmlns:dc="http://purl.org/dc/elements/1.1/">
	<defs id="defs2320">
		<style id="current-color-scheme" type="text/css">
			.ColorScheme-Highlight { color:#FF00FF; }
		</style>
		<radialGradient id="radialGradient4179" gradientUnits="userSpaceOnUse" cy="9" cx="8" gradientTransform="matrix(-.83336 0 0 -.83336 31.666 33.5)" r="6">
			<stop id="stop4175" style="stop-color:#000000" offset="0"/>
			<stop id="stop4181" style="stop-color:#000000" offset=".66667"/>
			<stop id="stop4177" style="stop-color:#000000;stop-opacity:0" offset="1"/>
		</radialGradient>
		<linearGradient id="linearGradient3469" x1="-28" gradientUnits="userSpaceOnUse" x2="-28" gradientTransform="matrix(.625 0 0 .625 42.5 5)" y1="40" y2="24">
			<stop id="stop4940" style="stop-color:#c0c0c0" offset="0"/>
			<stop id="stop4942" style="stop-color:#e0e0e0" offset="1"/>
		</linearGradient>
		<radialGradient id="radialGradient4426" gradientUnits="userSpaceOnUse" cy="34.316" cx="25" gradientTransform="translate(0 -9.3158)" r="23">
			<stop id="stop4422" style="stop-color:#ffffff;stop-opacity:0" offset="0"/>
			<stop id="stop4428" style="stop-color:#ffffff;stop-opacity:0" offset=".21739"/>
			<stop id="stop4424" style="stop-color:#ffffff;stop-opacity:.12549" offset="1"/>
		</radialGradient>
	</defs>
	<metadata id="metadata2323">
		<rdf:RDF>
			<cc:Work rdf:about="">
				<dc:format>image/svg+xml</dc:format>
				<dc:type rdf:resource="http://purl.org/dc/dcmitype/StillImage"/>
				<dc:title/>
				<dc:creator>
					<cc:Agent>
						<dc:title>obnosim</dc:title>
					</cc:Agent>
				</dc:creator>
				<cc:license rdf:resource="http://creativecommons.org/licenses/by-nc-sa/3.0/"/>
			</cc:Work>
			<cc:License rdf:about="http://creativecommons.org/licenses/by-nc-sa/3.0/">
				<cc:permits rdf:resource="http://creativecommons.org/ns#Reproduction"/>
				<cc:permits rdf:resource="http://creativecommons.org/ns#Distribution"/>
				<cc:requires rdf:resource="http://creativecommons.org/ns#Notice"/>
				<cc:requires rdf:resource="http://creativecommons.org/ns#Attribution"/>
				<cc:prohibits rdf:resource="http://creativecommons.org/ns#CommercialUse"/>
				<cc:permits rdf:resource="http://creativecommons.org/ns#DerivativeWorks"/>
				<cc:requires rdf:resource="http://creativecommons.org/ns#ShareAlike"/>
			</cc:License>
		</rdf:RDF>
	</metadata>
	<rect id="label0" style="fill:#278000" height="8" width="40" y="40" x="5"/>
	<rect id="label1" style="fill:#278000" height="8" width="40" y="30" x="5"/>
	<rect id="rotateminmax" style="fill-rule:evenodd;fill:#278000" height="90" width="270" y="-102.76" x="-.70711"/>
	<rect id="rotatecenter" style="fill:none" height="2" width="2" y="24" x="24"/>
	<g id="background">
		<rect id="rect4124" style="fill:none" height="27" width="50" y="0" x="0"/>
		<path id="path3185" style="color:#000000;opacity:.875;fill:url(#radialGradient4426)" d="m25 2c-12.703 0-23 10.297-23 23l18.281 1.5938c-.171-.505-.281-1.031-.281-1.594 0-2.7614 2.2386-5 5-5s5 2.2386 5 5c0 .56264-.1099 1.089-.28125 1.5938l18.281-1.594c0-12.703-10.297-23-23-23z"/>
		<rect id="rect3042" style="opacity:.5;fill:#ffffff" height="8" width="40" y="30" x="5"/>
		<path id="path4163" style="opacity:.375;fill:url(#radialGradient4179)" d="m20 24.333v1.667c0 2.7614 2.2386 5 5 5s5-2.2386 5-5v-1.6666z"/>
		<path id="path72" style="fill:url(#linearGradient3469)" d="m30 25a5 5 0 0 1 -5 5 5 5 0 0 1 -5 -5 5 5 0 0 1 5 -5 5 5 0 0 1 5 5z"/>
	</g>
	<g id="pointer" transform="matrix(0,-1,1,0,0,50)">
		<rect id="rect3977" style="fill:none" height="50" width="50" y="0" x="0"/>
		<path id="path3961" class="ColorScheme-Highlight" style="fill:currentColor" d="m20.281 23.406-18.281 1.594 18.281 1.594c-.171-.505-.281-1.031-.281-1.594 0-.56264.10990-1.089.28125-1.5938z"/>
	</g>
</svg>
