<?xml version="1.0" encoding="UTF-8" standalone="no"?>
<svg id="svg2" xmlns:rdf="http://www.w3.org/1999/02/22-rdf-syntax-ns#" xmlns="http://www.w3.org/2000/svg" height="36" width="36" version="1.0" xmlns:cc="http://creativecommons.org/ns#" xmlns:dc="http://purl.org/dc/elements/1.1/">
	<defs id="defs3615">
		<style id="current-color-scheme" type="text/css">.ColorScheme-Text {
			color:#0000FF;
			}
			.ColorScheme-Background{
			color:#E9E8E8;
			}
			.ColorScheme-ViewText {
			color:#31363b;
			}
			.ColorScheme-ViewBackground{
			color:#ffffff;
			}
			.ColorScheme-ViewHover {
			color:#000000;
			}
			.ColorScheme-ViewFocus{
			color:#5a5a5a;
			}
			.ColorScheme-ButtonText {
			color:#31363b;
			}
			.ColorScheme-ButtonBackground{
			color:#E9E8E8;
			}
			.ColorScheme-ButtonHover {
			color:#1489ff;
			}
			.ColorScheme-ButtonFocus{
			color:#2B74C7;
			}</style>
	</defs>
	<metadata id="metadata7">
		<rdf:RDF>
			<cc:Work rdf:about="">
				<dc:format>image/svg+xml</dc:format>
				<dc:type rdf:resource="http://purl.org/dc/dcmitype/StillImage"/>
				<dc:title/>
				<dc:creator>
					<cc:Agent>
						<dc:title>obnosim</dc:title>
					</cc:Agent>
				</dc:creator>
				<cc:license rdf:resource="http://creativecommons.org/licenses/by-nc-sa/3.0/"/>
			</cc:Work>
			<cc:License rdf:about="http://creativecommons.org/licenses/by-nc-sa/3.0/">
				<cc:permits rdf:resource="http://creativecommons.org/ns#Reproduction"/>
				<cc:permits rdf:resource="http://creativecommons.org/ns#Distribution"/>
				<cc:requires rdf:resource="http://creativecommons.org/ns#Notice"/>
				<cc:requires rdf:resource="http://creativecommons.org/ns#Attribution"/>
				<cc:prohibits rdf:resource="http://creativecommons.org/ns#CommercialUse"/>
				<cc:permits rdf:resource="http://creativecommons.org/ns#DerivativeWorks"/>
				<cc:requires rdf:resource="http://creativecommons.org/ns#ShareAlike"/>
			</cc:License>
		</rdf:RDF>
	</metadata>
	<g id="right-arrow" transform="translate(7,11)">
		<rect id="rect2995" style="opacity:.125;fill:none" height="22" width="22" y="-4" x="-13"/>
		<path id="path3793" d="m-4 12 5-5-5-5" style="opacity:.875;stroke:currentColor;stroke-width:2;stroke-linecap:round;fill:none" class="ColorScheme-Text"/>
	</g>
	<g id="down-arrow" transform="matrix(0,1,-1,0,25,7)">
		<rect id="rect3777" style="opacity:.125;fill:none" height="22" width="22" y="-4" x="-13"/>
		<path id="path3779" d="m-4 12 5-5-5-5" style="opacity:.875;stroke:currentColor;stroke-width:2;stroke-linecap:round;fill:none" class="ColorScheme-Text"/>
	</g>
	<g id="left-arrow" transform="matrix(-1,0,0,-1,29,25)">
		<rect id="rect3783" style="opacity:.125;fill:none" height="22" width="22" y="-4" x="-13"/>
		<path id="path3785" d="m-4 12 5-5-5-5" style="opacity:.875;stroke:currentColor;stroke-width:2;stroke-linecap:round;fill:none" class="ColorScheme-Text"/>
	</g>
	<g id="up-arrow" transform="matrix(0,-1,1,0,11,29)">
		<rect id="rect3789" style="opacity:.125;fill:none" height="22" width="22" y="-4" x="-13"/>
		<path id="path3791" d="m-4 12 5-5-5-5" style="opacity:.875;stroke:currentColor;stroke-width:2;stroke-linecap:round;fill:none" class="ColorScheme-Text"/>
	</g>
	<g id="16-16-down-arrow" transform="matrix(0,1,-1,0,25,-15)">
		<rect id="rect3350" style="opacity:.125;fill:none" height="16" width="16" y="-1" x="-10"/>
		<path id="path3352" style="opacity:.875;stroke:currentColor;stroke-linecap:round;stroke-width:2;fill:none" d="m-4 11 4-4-4-4" class="ColorScheme-Text"/>
	</g>
	<g id="16-16-right-arrow" transform="translate(-15,11)">
		<rect id="rect3356" style="opacity:.125;fill:none" height="16" width="16" y="-1" x="-10"/>
		<path id="path3358" style="opacity:.875;stroke:currentColor;stroke-linecap:round;stroke-width:2;fill:none" d="m-4 11 4-4-4-4" class="ColorScheme-Text"/>
	</g>
	<g id="16-16-left-arrow" transform="matrix(-1,0,0,-1,51,25)">
		<rect id="rect3362" style="opacity:.125;fill:none" height="16" width="16" y="-1" x="-10"/>
		<path id="path3364" style="opacity:.875;stroke:currentColor;stroke-linecap:round;stroke-width:2;fill:none" d="m-4 11 4-4-4-4" class="ColorScheme-Text"/>
	</g>
	<g id="16-16-up-arrow" transform="matrix(0,-1,1,0,11,51)">
		<rect id="rect3368" style="opacity:.125;fill:none" height="16" width="16" y="-1" x="-10"/>
		<path id="path3370" style="opacity:.875;stroke:currentColor;stroke-linecap:round;stroke-width:2;fill:none" d="m-4 11 4-4-4-4" class="ColorScheme-Text"/>
	</g>
</svg>
