<?xml version="1.0" encoding="UTF-8" standalone="no"?>
<svg id="svg7500" xmlns:rdf="http://www.w3.org/1999/02/22-rdf-syntax-ns#" style="shape-rendering:crispEdges" xmlns="http://www.w3.org/2000/svg" height="12" width="36" version="1.1" xmlns:cc="http://creativecommons.org/ns#" xmlns:xlink="http://www.w3.org/1999/xlink" xmlns:dc="http://purl.org/dc/elements/1.1/">
	<defs id="defs3">
		<style id="current-color-scheme" type="text/css">
			.ColorScheme-Highlight { color:#FF00FF; }
		</style>
		<linearGradient id="linearGradient4251" x1="1.5" xlink:href="#linearGradient4207" gradientUnits="userSpaceOnUse" y1="5" gradientTransform="translate(0,2)" x2="1.5" y2="11"/>
		<linearGradient id="linearGradient4207">
			<stop id="stop4209" style="stop-color:#000000;stop-opacity:0" offset="0"/>
			<stop id="stop4211" style="stop-color:#000000;stop-opacity:.37647" offset="1"/>
		</linearGradient>
		<linearGradient id="linearGradient4249" x1="1.5" xlink:href="#linearGradient4207" gradientUnits="userSpaceOnUse" y1="5" gradientTransform="translate(0,-2)" x2="1.5" y2="11"/>
		<linearGradient id="linearGradient4213" x1="10" xlink:href="#linearGradient4207" gradientUnits="userSpaceOnUse" x2="10" y1="5" y2="11"/>
	</defs>
	<metadata id="metadata4">
		<rdf:RDF>
			<cc:Work rdf:about="">
				<dc:format>image/svg+xml</dc:format>
				<dc:type rdf:resource="http://purl.org/dc/dcmitype/StillImage"/>
				<dc:title/>
				<dc:creator>
					<cc:Agent>
						<dc:title>obnosim</dc:title>
					</cc:Agent>
				</dc:creator>
				<cc:license rdf:resource="http://creativecommons.org/licenses/by-nc-sa/3.0/"/>
			</cc:Work>
			<cc:License rdf:about="http://creativecommons.org/licenses/by-nc-sa/3.0/">
				<cc:permits rdf:resource="http://creativecommons.org/ns#Reproduction"/>
				<cc:permits rdf:resource="http://creativecommons.org/ns#Distribution"/>
				<cc:requires rdf:resource="http://creativecommons.org/ns#Notice"/>
				<cc:requires rdf:resource="http://creativecommons.org/ns#Attribution"/>
				<cc:prohibits rdf:resource="http://creativecommons.org/ns#CommercialUse"/>
				<cc:permits rdf:resource="http://creativecommons.org/ns#DerivativeWorks"/>
				<cc:requires rdf:resource="http://creativecommons.org/ns#ShareAlike"/>
			</cc:License>
		</rdf:RDF>
	</metadata>
	<rect id="hint-bar-size" style="fill:#278000" height="7" width="7" y="28" x="0"/>
	<rect id="bar-inactive-center" style="opacity:.5;fill:#000000" height="4" width="30" y="14" x="3"/>
	<rect id="bar-inactive-right" style="opacity:.5;fill:#000000" height="4" width="3" y="14" x="33"/>
	<g id="bar-inactive-top" transform="matrix(6,0,0,1,573,-11)">
		<rect id="rect4706" style="opacity:.5;fill:#000000" height="3" width="5" y="14" x="-95"/>
		<path id="rect4727" d="m-95 14v1h5v-1h-5z" style="opacity:.5;fill:#000000"/>
	</g>
	<g id="bar-inactive-topleft" transform="translate(98,-11)">
		<path id="rect4716" d="m-95 14c-1.662 0-3 1.338-3 3h3v-3z" style="opacity:.5;fill:#000000"/>
		<path id="path4729" d="m-95 14c-1.662 0-3 1.338-3 3 0-1.108 1.338-2 3-2v-1z" style="opacity:.5;fill:#000000"/>
	</g>
	<g id="bar-inactive-topright" transform="translate(123,-11)">
		<path id="path4721" d="m-90 14c1.662 0 3 1.338 3 3h-3v-3z" style="opacity:.5;fill:#000000"/>
		<path id="path4731" d="m-90 14v1c1.662 0 3 .892 3 2 0-1.662-1.338-3-3-3z" style="opacity:.5;fill:#000000"/>
	</g>
	<g id="bar-inactive-bottom" transform="matrix(6,0,0,1,573,-44)">
		<rect id="rect4708" style="opacity:.5;fill:#000000" height="3" width="5" y="50" x="-95"/>
		<path id="path4742" d="m-95 53v-1h5v1h-5z" style="opacity:0.188;fill:#ffffff"/>
	</g>
	<g id="bar-inactive-bottomleft" transform="translate(98,-44)">
		<path id="path4723" d="m-95 53c-1.662 0-3-1.338-3-3h3v3z" style="opacity:.5;fill:#000000"/>
		<path id="path4744" d="m-95 53c-1.662 0-3-1.338-3-3 0 1.108 1.338 2 3 2v1z" style="opacity:0.188;fill:#ffffff"/>
	</g>
	<g id="bar-inactive-bottomright" transform="translate(123,-44)">
		<path id="path4725" d="m-90 53c1.662 0 3-1.338 3-3h-3v3z" style="opacity:.5;fill:#000000"/>
		<path id="path4746" d="m-90 53v-1c1.662 0 3-.892 3-2 0 1.662-1.338 3-3 3z" style="opacity:0.188;fill:#ffffff"/>
	</g>
	<g id="bar-active-top" transform="translate(4.9e-7 -2)">
		<rect id="rect3403" style="fill-rule:evenodd;fill:currentColor" class="ColorScheme-Highlight" height="3" width="15" y="5" x="3"/>
		<rect id="rect4205" style="fill:url(#linearGradient4213);fill-rule:evenodd" height="3" width="15" y="5" x="3"/>
	</g>
	<g id="bar-active-bottom" transform="translate(4.9e-7 -2)">
		<rect id="rect4219" style="fill-rule:evenodd;fill:currentColor" class="ColorScheme-Highlight" height="3" width="15" y="8" x="3"/>
		<rect id="rect4215" style="fill-rule:evenodd;fill:url(#linearGradient4213)" height="3" width="15" y="8" x="3"/>
	</g>
	<g id="bar-active-topleft">
		<path id="path4229" d="m3 3a3 3 0 0 0 -3 3h3v-3z" class="ColorScheme-Highlight" style="fill-rule:evenodd;fill:currentColor"/>
		<path id="path4239" d="m3 3a3 3 0 0 0 -3 3h3v-3z" style="fill:url(#linearGradient4249);fill-rule:evenodd"/>
	</g>
	<g id="bar-active-bottomleft" transform="translate(4.9e-7 -4)">
		<path id="circle4233" d="m0 10a3 3 0 0 0 3 3v-3h-3z" class="ColorScheme-Highlight" style="fill-rule:evenodd;fill:currentColor"/>
		<path id="path4241" d="m0 10a3 3 0 0 0 3 3v-3h-3z" style="fill:url(#linearGradient4251);fill-rule:evenodd"/>
	</g>
	<g id="bar-active-topright" transform="matrix(-1,0,0,1,21,0)">
		<path id="path4285" d="m3 3a3 3 0 0 0 -3 3h3v-3z" class="ColorScheme-Highlight" style="fill-rule:evenodd;fill:currentColor"/>
		<path id="path4287" d="m3 3a3 3 0 0 0 -3 3h3v-3z" style="fill-rule:evenodd;fill:url(#linearGradient4249)"/>
	</g>
	<g id="bar-active-bottomright" transform="matrix(-1,0,0,1,21,-4)">
		<path id="path4291" d="m0 10a3 3 0 0 0 3 3v-3h-3z" class="ColorScheme-Highlight" style="fill-rule:evenodd;fill:currentColor"/>
		<path id="path4293" d="m0 10a3 3 0 0 0 3 3v-3h-3z" style="fill-rule:evenodd;fill:url(#linearGradient4251)"/>
	</g>
	<g id="bar-active-center" transform="translate(0,3)">
		<rect id="rect4332" style="fill:currentColor" class="ColorScheme-Highlight" height="4" width="15" y="16" x="3"/>
		<rect id="rect4311" style="fill-opacity:.18824;fill:#000000" height="4" width="15" y="16" x="3"/>
	</g>
	<rect id="bar-inactive-left" style="opacity:.5;fill:#000000" height="4" width="3" y="14" x="4.9526e-7"/>
	<g id="bar-active-left" transform="translate(0,1)">
		<rect id="rect4341" style="fill:currentColor" class="ColorScheme-Highlight" height="4" width="3" y="18" x="0"/>
		<rect id="rect4313" style="fill-opacity:.18824;fill:#000000" height="4" width="3" y="18" x="0"/>
	</g>
	<g id="bar-active-right" transform="translate(0,3)">
		<rect id="rect4330" style="fill:currentColor" class="ColorScheme-Highlight" height="4" width="3" y="16" x="18"/>
		<rect id="rect4315" style="fill-opacity:.18824;fill:#000000" height="4" width="3" y="16" x="18"/>
	</g>
	<rect id="rect3521" style="opacity:0.51;fill:none" height="12" width="36" y="0" x="0"/>
</svg>
