<?xml version="1.0" encoding="UTF-8" standalone="no"?>
<!-- Created with Inkscape (http://www.inkscape.org/) -->

<svg
   xmlns:dc="http://purl.org/dc/elements/1.1/"
   xmlns:cc="http://creativecommons.org/ns#"
   xmlns:rdf="http://www.w3.org/1999/02/22-rdf-syntax-ns#"
   xmlns:svg="http://www.w3.org/2000/svg"
   xmlns="http://www.w3.org/2000/svg"
   xmlns:sodipodi="http://sodipodi.sourceforge.net/DTD/sodipodi-0.dtd"
   xmlns:inkscape="http://www.inkscape.org/namespaces/inkscape"
   version="1.1"
   width="69.232231"
   height="15.00006"
   id="svg2"
   inkscape:version="0.91 r13725"
   sodipodi:docname="branding.svgz">
  <sodipodi:namedview
     pagecolor="#ffffff"
     bordercolor="#666666"
     borderopacity="1"
     objecttolerance="10"
     gridtolerance="10"
     guidetolerance="10"
     inkscape:pageopacity="0"
     inkscape:pageshadow="2"
     inkscape:window-width="640"
     inkscape:window-height="480"
     id="namedview563" />
  <defs
     id="defs4" />
  <metadata
     id="metadata7">
    <rdf:RDF>
      <cc:Work
         rdf:about="">
        <dc:format>image/svg+xml</dc:format>
        <dc:type
           rdf:resource="http://purl.org/dc/dcmitype/StillImage" />
        <dc:title />
        <dc:creator>
          <cc:Agent>
            <dc:title>obnosim</dc:title>
          </cc:Agent>
        </dc:creator>
        <cc:license
           rdf:resource="http://creativecommons.org/licenses/by-nc-sa/3.0/" />
      </cc:Work>
      <cc:License
         rdf:about="http://creativecommons.org/licenses/by-nc-sa/3.0/">
        <cc:permits
           rdf:resource="http://creativecommons.org/ns#Reproduction" />
        <cc:permits
           rdf:resource="http://creativecommons.org/ns#Distribution" />
        <cc:requires
           rdf:resource="http://creativecommons.org/ns#Notice" />
        <cc:requires
           rdf:resource="http://creativecommons.org/ns#Attribution" />
        <cc:prohibits
           rdf:resource="http://creativecommons.org/ns#CommercialUse" />
        <cc:permits
           rdf:resource="http://creativecommons.org/ns#DerivativeWorks" />
        <cc:requires
           rdf:resource="http://creativecommons.org/ns#ShareAlike" />
      </cc:License>
    </rdf:RDF>
  </metadata>
  <g
     transform="translate(-148.1156,-580.69929)"
     id="layer1">
    <g
       id="brilliant"
       style="font-size:19.49238586px;font-style:normal;font-weight:normal;text-align:center;line-height:125%;letter-spacing:0px;word-spacing:0px;text-anchor:middle;fill:#e0e0e0;fill-opacity:1;stroke:none;font-family:Sans">
      <path
         d="m 153.95951,595.50897 -4.20685,-12.06853 c -0.0698,-0.20303 -0.14594,-0.37118 -0.22843,-0.50444 -0.0825,-0.13323 -0.17766,-0.23793 -0.28553,-0.31408 -0.10787,-0.0761 -0.2316,-0.13007 -0.37119,-0.16181 -0.1396,-0.0317 -0.30457,-0.0476 -0.49493,-0.0476 l -0.25698,0 0,-0.81853 5.35851,0 0,0.81853 -0.44734,0 c -0.39341,10e-6 -0.68846,0.0762 -0.88515,0.22842 -0.19036,0.14595 -0.28554,0.38072 -0.28554,0.70432 0,0.10788 0.0127,0.21892 0.0381,0.33312 0.0317,0.11422 0.073,0.2443 0.12373,0.39023 l 2.14149,6.32931 c 0.1967,0.57742 0.36485,1.13896 0.50445,1.68465 0.13958,0.53934 0.26331,1.04378 0.37119,1.51332 0.10151,-0.46954 0.22207,-0.96764 0.36167,-1.49429 0.13959,-0.52664 0.31726,-1.09454 0.533,-1.70368 l 2.15101,-6.19606 c 0.0508,-0.15862 0.092,-0.31091 0.12374,-0.45686 0.0317,-0.14592 0.0476,-0.27283 0.0476,-0.38071 -1e-5,-0.33628 -0.10787,-0.5774 -0.3236,-0.72335 -0.2094,-0.15227 -0.52983,-0.22841 -0.96129,-0.22842 l -0.44734,0 0,-0.81853 4.74937,0 0,0.81853 -0.3712,0 c -0.19036,10e-6 -0.35534,0.019 -0.49492,0.0571 -0.13326,0.0381 -0.25699,0.11423 -0.37119,0.22843 -0.10788,0.10788 -0.20941,0.26016 -0.30457,0.45685 -0.0952,0.19671 -0.19671,0.45369 -0.30457,0.77094 l -4.03553,11.58312 -1.42767,0"
         id="path2990"
         style="font-variant:normal;font-stretch:normal;fill:#e0e0e0;fill-opacity:1;font-family:Droid Serif;-inkscape-font-specification:Droid Serif" />
      <path
         d="m 165.46649,585.91506 c -0.72335,10e-6 -1.28173,0.29506 -1.67513,0.88516 -0.38706,0.58376 -0.61548,1.44036 -0.68528,2.56979 l 4.48287,0 c 0,-0.51395 -0.0381,-0.98349 -0.11421,-1.40863 -0.0761,-0.42512 -0.19671,-0.78996 -0.36168,-1.09454 -0.16498,-0.30456 -0.38389,-0.53933 -0.65672,-0.70431 -0.2665,-0.16497 -0.59645,-0.24746 -0.98985,-0.24747 m 0.23795,9.78427 c -0.70432,0 -1.33884,-0.11739 -1.90356,-0.35216 -0.55838,-0.24112 -1.03109,-0.5901 -1.41815,-1.04695 -0.38705,-0.45686 -0.68528,-1.01523 -0.89467,-1.67513 -0.20304,-0.66624 -0.30457,-1.42132 -0.30456,-2.26523 -1e-5,-1.82106 0.37436,-3.19162 1.12309,-4.11167 0.74873,-0.92005 1.81472,-1.38007 3.19797,-1.38008 0.62817,10e-6 1.19289,0.0984 1.69416,0.29505 0.50127,0.19671 0.92639,0.49176 1.27539,0.88515 0.34897,0.38707 0.61547,0.87247 0.79949,1.45622 0.19034,0.57742 0.28552,1.25001 0.28553,2.01777 l 0,0.89467 -6.49112,0 c 0.0127,0.71066 0.0825,1.32297 0.20939,1.83693 0.13325,0.50761 0.32043,0.92639 0.56155,1.25634 0.24746,0.32995 0.54886,0.57424 0.90419,0.73287 0.35533,0.15228 0.76459,0.22843 1.22779,0.22843 0.33629,0 0.6472,-0.0381 0.93274,-0.11422 0.29187,-0.0761 0.5552,-0.17766 0.78998,-0.30457 0.23476,-0.1269 0.44098,-0.26966 0.61865,-0.4283 0.184,-0.16497 0.33312,-0.33629 0.44734,-0.51395 0.0888,0.0381 0.17131,0.11738 0.24746,0.23794 0.0825,0.12056 0.12372,0.26333 0.12373,0.4283 -1e-5,0.1967 -0.0698,0.40926 -0.20939,0.63769 -0.1396,0.22208 -0.35217,0.4283 -0.63769,0.61865 -0.28554,0.19036 -0.64404,0.34899 -1.07551,0.47589 -0.42513,0.12691 -0.9264,0.19036 -1.5038,0.19036"
         id="path2992"
         style="font-variant:normal;font-stretch:normal;fill:#e0e0e0;fill-opacity:1;font-family:Droid Serif;-inkscape-font-specification:Droid Serif" />
      <path
         d="m 171.0439,594.69044 c 0.22208,1e-5 0.4283,-0.0159 0.61866,-0.0476 0.1967,-0.0317 0.36484,-0.0952 0.50444,-0.19036 0.14594,-0.10152 0.26015,-0.24429 0.34264,-0.4283 0.0888,-0.18401 0.13325,-0.4283 0.13325,-0.73287 l 0,-10.45051 c 0,-0.28552 -0.0444,-0.51394 -0.13325,-0.68527 -0.0825,-0.17766 -0.1967,-0.31408 -0.34264,-0.40927 -0.14594,-0.0952 -0.31726,-0.15544 -0.51396,-0.18084 -0.19036,-0.0317 -0.3934,-0.0476 -0.60914,-0.0476 l -0.24746,0 0,-0.81853 3.68338,0 0,12.592 c -1e-5,0.30457 0.0412,0.54886 0.12373,0.73287 0.0825,0.18401 0.19669,0.32678 0.34264,0.4283 0.14593,0.0952 0.31408,0.15863 0.50444,0.19036 0.19669,0.0317 0.40608,0.0476 0.62817,0.0476 l 0.24746,0 0,0.81853 -5.52982,0 0,-0.81853 0.24746,0"
         id="path2994"
         style="font-variant:normal;font-stretch:normal;fill:#e0e0e0;fill-opacity:1;font-family:Droid Serif;-inkscape-font-specification:Droid Serif" />
      <path
         d="m 186.76725,590.26468 c -1e-5,1.83376 -0.39024,3.19797 -1.17068,4.09264 -0.77412,0.89467 -1.90991,1.34201 -3.40736,1.34201 -0.70432,0 -1.33567,-0.11104 -1.89404,-0.33312 -0.55838,-0.22209 -1.03427,-0.55838 -1.42766,-1.00889 -0.38706,-0.4505 -0.68528,-1.01522 -0.89467,-1.69416 -0.20305,-0.68528 -0.30457,-1.48477 -0.30457,-2.39848 0,-1.82106 0.38388,-3.17575 1.15165,-4.06408 0.77411,-0.88832 1.91624,-1.33248 3.42639,-1.33249 0.70431,10e-6 1.33566,0.11105 1.89404,0.33312 0.55837,0.21575 1.03108,0.54887 1.41815,0.99937 0.39339,0.44417 0.69161,1.00572 0.89467,1.68464 0.20938,0.6726 0.31407,1.46574 0.31408,2.37944 m -7.21446,0 c -10e-6,0.72336 0.0476,1.36105 0.14276,1.91307 0.0952,0.55204 0.24746,1.01523 0.45685,1.3896 0.21574,0.36802 0.49175,0.64721 0.82805,0.83756 0.34264,0.19036 0.75824,0.28554 1.24683,0.28553 0.48857,1e-5 0.90101,-0.0952 1.23731,-0.28553 0.33628,-0.19035 0.60913,-0.46954 0.81853,-0.83756 0.20938,-0.37437 0.35849,-0.83756 0.44733,-1.3896 0.0952,-0.55202 0.14276,-1.18971 0.14277,-1.91307 -1e-5,-0.72334 -0.0476,-1.35786 -0.14277,-1.90355 -0.0952,-0.54568 -0.24747,-0.99936 -0.45685,-1.36104 -0.2094,-0.36801 -0.48542,-0.64403 -0.82805,-0.82805 -0.3363,-0.184 -0.74874,-0.276 -1.23731,-0.27601 -0.48858,10e-6 -0.90102,0.092 -1.23731,0.27601 -0.3363,0.18402 -0.60914,0.46004 -0.81853,0.82805 -0.20939,0.36168 -0.36167,0.81536 -0.45685,1.36104 -0.0952,0.54569 -0.14277,1.18021 -0.14276,1.90355"
         id="path2996"
         style="font-variant:normal;font-stretch:normal;fill:#e0e0e0;fill-opacity:1;font-family:Droid Serif;-inkscape-font-specification:Droid Serif" />
      <path
         d="m 198.13147,593.38651 c -1e-5,0.28554 0.0412,0.51713 0.12373,0.6948 0.0888,0.17132 0.2062,0.30139 0.35215,0.39023 0.14593,0.0888 0.31408,0.14911 0.50445,0.18083 0.19668,0.0254 0.4029,0.0381 0.61865,0.0381 l 0.0571,0 0,0.81853 -3.09328,0 -0.25698,-1.57995 -0.0952,0 c -0.19671,0.36802 -0.41562,0.66625 -0.65673,0.89467 -0.23478,0.22843 -0.48541,0.40927 -0.7519,0.54252 -0.26651,0.1269 -0.5457,0.21256 -0.83757,0.25698 -0.29188,0.0508 -0.59645,0.0761 -0.9137,0.0761 -0.51397,0 -0.97082,-0.073 -1.37056,-0.21891 -0.39975,-0.14594 -0.73605,-0.37437 -1.00888,-0.68528 -0.27285,-0.31091 -0.48224,-0.70749 -0.62818,-1.18972 -0.13959,-0.48223 -0.20939,-1.05647 -0.20939,-1.72272 l 0,-4.67322 c 0,-0.28552 -0.0444,-0.51395 -0.13325,-0.68528 -0.0825,-0.17766 -0.1967,-0.31408 -0.34264,-0.40926 -0.14594,-0.0952 -0.31726,-0.15862 -0.51396,-0.19036 -0.19035,-0.0317 -0.3934,-0.0476 -0.60913,-0.0476 l -0.0571,0 0,-0.81853 3.49302,0 0,6.72907 c 0,0.42513 0.0317,0.80266 0.0952,1.13261 0.0698,0.32995 0.18083,0.60914 0.33312,0.83756 0.15863,0.22843 0.36802,0.40292 0.62817,0.52348 0.2665,0.11421 0.59644,0.17132 0.98985,0.17132 0.43147,0 0.79949,-0.0761 1.10406,-0.22843 0.31091,-0.15228 0.56471,-0.36484 0.76142,-0.63769 0.20304,-0.27918 0.35215,-0.6123 0.44734,-0.99936 0.0952,-0.38705 0.14276,-0.81535 0.14276,-1.2849 l 0,-4.0165 c 0,-0.30456 -0.0444,-0.54885 -0.13324,-0.73287 -0.0825,-0.19034 -0.19671,-0.33311 -0.34264,-0.4283 -0.13961,-0.10151 -0.30775,-0.16813 -0.50445,-0.19987 -0.19036,-0.0317 -0.39658,-0.0476 -0.61865,-0.0476 l -0.0571,0 0,-0.81853 3.48351,0 0,8.32805"
         id="path2998"
         style="font-variant:normal;font-stretch:normal;fill:#e0e0e0;fill-opacity:1;font-family:Droid Serif;-inkscape-font-specification:Droid Serif" />
      <path
         d="m 206.5071,595.50897 -5.625,0 0,-0.81853 0.0571,0 c 0.22208,1e-5 0.4283,-0.0159 0.61865,-0.0476 0.1967,-0.0317 0.36485,-0.0952 0.50444,-0.19036 0.14594,-0.10152 0.26015,-0.24429 0.34264,-0.4283 0.0888,-0.18401 0.13325,-0.4283 0.13325,-0.73287 l 0,-6.08185 c 0,-0.28552 -0.0444,-0.51395 -0.13325,-0.68528 -0.0825,-0.17766 -0.1967,-0.31408 -0.34264,-0.40926 -0.14594,-0.0952 -0.31726,-0.15862 -0.51396,-0.19036 -0.19035,-0.0317 -0.3934,-0.0476 -0.60913,-0.0476 l -0.0571,0 0,-0.81853 2.9981,0 0.37119,1.93211 0.0952,0 c 0.1269,-0.29187 0.25697,-0.56471 0.39023,-0.81853 0.13324,-0.26014 0.29504,-0.48539 0.4854,-0.67576 0.1967,-0.19669 0.43781,-0.34897 0.72335,-0.45685 0.28553,-0.1142 0.64403,-0.17131 1.07551,-0.17132 0.71065,1e-5 1.2373,0.12374 1.57995,0.37119 0.34897,0.24747 0.52347,0.59646 0.52348,1.04696 -10e-6,0.20305 -0.0349,0.39023 -0.1047,0.56154 -0.0635,0.17133 -0.16816,0.32044 -0.31409,0.44734 -0.14594,0.12057 -0.33313,0.21574 -0.56154,0.28553 -0.22844,0.0635 -0.50763,0.0952 -0.83757,0.0952 0,-0.53933 -0.0762,-0.92639 -0.22842,-1.16117 -0.15229,-0.2411 -0.41879,-0.36166 -0.7995,-0.36167 -0.24112,10e-6 -0.45685,0.0698 -0.6472,0.20939 -0.19036,0.13326 -0.35851,0.31409 -0.50445,0.54251 -0.13959,0.22209 -0.26015,0.47907 -0.36167,0.77094 -0.0952,0.29189 -0.1745,0.59328 -0.23795,0.90419 -0.0571,0.30457 -0.0984,0.60914 -0.12373,0.9137 -0.0254,0.30458 -0.0381,0.58059 -0.0381,0.82805 l 0,3.06472 c 0,0.28554 0.0412,0.51713 0.12373,0.6948 0.0888,0.17132 0.20622,0.30139 0.35216,0.39023 0.14594,0.0888 0.31408,0.14911 0.50444,0.18083 0.1967,0.0254 0.40292,0.0381 0.61866,0.0381 l 0.54251,0 0,0.81853"
         id="path3000"
         style="font-variant:normal;font-stretch:normal;fill:#e0e0e0;fill-opacity:1;font-family:Droid Serif;-inkscape-font-specification:Droid Serif" />
      <path
         d="m 213.50266,595.69933 c -0.48859,0 -0.93275,-0.0444 -1.33249,-0.13325 -0.3934,-0.0825 -0.7297,-0.20939 -1.00888,-0.38071 -0.27919,-0.17767 -0.49493,-0.3934 -0.64721,-0.64721 -0.15229,-0.26015 -0.22843,-0.56155 -0.22843,-0.90419 0,-0.26015 0.0412,-0.47588 0.12373,-0.64721 0.0888,-0.17766 0.19353,-0.31725 0.31409,-0.41878 0.1269,-0.10152 0.26015,-0.17131 0.39975,-0.20939 0.14593,-0.0444 0.27601,-0.0666 0.39022,-0.0666 0,0.34264 0.0349,0.66307 0.1047,0.96129 0.0698,0.29823 0.18718,0.56155 0.35216,0.78998 0.16497,0.22208 0.3807,0.39974 0.6472,0.53299 0.27284,0.12691 0.60597,0.19036 0.99937,0.19036 0.34898,0 0.65672,-0.0412 0.92322,-0.12373 0.2665,-0.0888 0.48858,-0.20939 0.66625,-0.36168 0.184,-0.15863 0.32359,-0.34581 0.41878,-0.56155 0.0952,-0.22208 0.14276,-0.46319 0.14277,-0.72335 -1e-5,-0.24111 -0.0381,-0.44733 -0.11422,-0.61865 -0.0698,-0.17766 -0.1967,-0.34264 -0.38071,-0.49493 -0.17767,-0.15228 -0.42196,-0.30773 -0.73287,-0.46637 -0.31092,-0.15862 -0.70114,-0.33946 -1.17068,-0.54251 -0.50127,-0.22208 -0.93909,-0.43464 -1.31345,-0.63769 -0.36803,-0.20939 -0.67259,-0.43464 -0.91371,-0.67576 -0.24112,-0.24111 -0.42196,-0.51395 -0.54251,-0.81853 -0.12056,-0.31091 -0.18084,-0.67893 -0.18084,-1.10406 0,-0.44415 0.0857,-0.83756 0.25698,-1.1802 0.17766,-0.34263 0.4283,-0.62817 0.7519,-0.8566 0.32361,-0.23476 0.71066,-0.41243 1.16117,-0.533 0.45051,-0.12055 0.95177,-0.18082 1.50381,-0.18084 0.46319,2e-5 0.87245,0.0476 1.22779,0.14277 0.35532,0.0952 0.65355,0.22527 0.89467,0.39023 0.24111,0.15864 0.42195,0.34899 0.54251,0.57107 0.12055,0.21574 0.18083,0.44417 0.18084,0.68527 -1e-5,0.35534 -0.12374,0.64088 -0.37119,0.8566 -0.24113,0.2094 -0.58694,0.3141 -1.03744,0.31409 -1e-5,-0.65354 -0.13643,-1.16116 -0.40926,-1.52284 -0.26651,-0.36167 -0.68846,-0.54251 -1.26587,-0.54252 -0.32995,10e-6 -0.61231,0.0381 -0.84708,0.11422 -0.23477,0.0761 -0.4283,0.18402 -0.58058,0.3236 -0.14594,0.13961 -0.25381,0.30458 -0.32361,0.49493 -0.0698,0.19036 -0.10469,0.39975 -0.10469,0.62817 0,0.24747 0.0444,0.4632 0.13325,0.64721 0.0888,0.17767 0.22842,0.34264 0.41878,0.49492 0.1967,0.15229 0.44733,0.3014 0.7519,0.44734 0.31091,0.1396 0.68211,0.29823 1.11358,0.47588 0.51396,0.21575 0.95495,0.42831 1.32297,0.63769 0.36802,0.2094 0.66941,0.43783 0.90419,0.68528 0.24111,0.24747 0.41877,0.52666 0.53299,0.83757 0.11421,0.31091 0.17132,0.66942 0.17132,1.0755 0,0.50762 -0.092,0.95178 -0.27601,1.33249 -0.18402,0.38071 -0.44417,0.70114 -0.78046,0.9613 -0.3363,0.2538 -0.74239,0.44416 -1.21827,0.57106 -0.46955,0.12691 -0.99303,0.19036 -1.57043,0.19036"
         id="path3002"
         style="font-variant:normal;font-stretch:normal;fill:#e0e0e0;fill-opacity:1;font-family:Droid Serif;-inkscape-font-specification:Droid Serif" />
    </g>
  </g>
</svg>
