<?xml version="1.0" encoding="UTF-8" standalone="no"?>
<svg id="svg2" xmlns:rdf="http://www.w3.org/1999/02/22-rdf-syntax-ns#" xmlns="http://www.w3.org/2000/svg" height="22" width="22" version="1.0" xmlns:cc="http://creativecommons.org/ns#" xmlns:dc="http://purl.org/dc/elements/1.1/">
	<defs id="defs3615">
		<style id="current-color-scheme" type="text/css">
			.ColorScheme-Text {	color:#0000FF; }
			.ColorScheme-Background { color:#FF0000; }
			}</style>
	</defs>
	<metadata id="metadata7">
		<rdf:RDF>
			<cc:Work rdf:about="">
				<dc:format>image/svg+xml</dc:format>
				<dc:type rdf:resource="http://purl.org/dc/dcmitype/StillImage"/>
				<dc:title/>
			</cc:Work>
		</rdf:RDF>
	</metadata>
	<rect id="hint-rotation-angle" style="fill:#60a500" height="5" width="12.5" y="-3.4229" x="112.06"/>
	<g id="busywidget" transform="translate(-1,-1)">
		<rect id="rect3826" style="opacity:.375;fill:none" height="22" width="22" y="1" x="1"/>
		<path id="path4144" style="stroke:currentColor;opacity:.875;stroke-width:2;fill:none" d="m12 5.4688c-3.4869.0821-6.373 3.0238-6.2812 6.5312.044193 1.6886.78025 3.2395 1.9375 4.3438.036052.03605.10124.0625.15625.0625.1099 0 .1874-.108.1874-.218 0-.056-.0264-.089-.0625-.126-.9721-1.078-1.5252-2.516-1.4375-4.062.1514-2.6694 2.3189-4.9109 4.969-5.0312.17666-.00802.35081-.011258.53125 0 2.5794.16092 4.7128 2.4121 4.5312 5.0312-.15305 2.2079-2.004 4.0318-4.2188 4.0312-.029-.0059-.06416.0042-.09375 0-.07-.01-.146-.031-.219-.031-.82843 0-1.5.67157-1.5 1.5s.67157 1.5 1.5 1.5c.10355 0 .21485-.01127.3125-.03125 3.602-.24 6.548-3.313 6.469-6.969-.077-3.6195-3.142-6.617-6.781-6.5312z" class="ColorScheme-Background"/>
		<path id="path3801" d="m12 5.4688c-3.4869.0821-6.373 3.0238-6.2812 6.5312.044193 1.6886.78025 3.2395 1.9375 4.3438.036052.03605.10124.0625.15625.0625.1099 0 .1874-.108.1874-.218 0-.056-.0264-.089-.0625-.126-.9721-1.078-1.5252-2.516-1.4375-4.062.1514-2.6694 2.3189-4.9109 4.969-5.0312.17666-.00802.35081-.011258.53125 0 2.5794.16092 4.7128 2.4121 4.5312 5.0312-.15305 2.2079-2.004 4.0318-4.2188 4.0312-.029-.0059-.06416.0042-.09375 0-.07-.01-.146-.031-.219-.031-.82843 0-1.5.67157-1.5 1.5s.67157 1.5 1.5 1.5c.10355 0 .21485-.01127.3125-.03125 3.602-.24 6.548-3.313 6.469-6.969-.077-3.6195-3.142-6.617-6.781-6.5312z" style="fill:currentColor" class="ColorScheme-Text"/>
	</g>
	<g id="pause" transform="translate(56,77)">
		<rect id="rect3385" style="opacity:.25;fill:none" height="22" width="22" y="-77" x="-33"/>
		<path id="rect4199" d="m-20-74h6v16h-6zm-10 0h6v16h-6z" class="ColorScheme-Text" style="opacity:.875;fill:currentColor"/>
	</g>
</svg>
