<?xml version="1.0" encoding="UTF-8" standalone="no"?>
<svg id="svg2" xmlns:rdf="http://www.w3.org/1999/02/22-rdf-syntax-ns#" xmlns="http://www.w3.org/2000/svg" height="22" width="22" version="1.0" xmlns:cc="http://creativecommons.org/ns#" xmlns:xlink="http://www.w3.org/1999/xlink" xmlns:dc="http://purl.org/dc/elements/1.1/">
	<defs id="defs3615">
		<linearGradient id="linearGradient4189">
			<stop id="stop4191" style="stop-color:#ffffff" offset="0"/>
			<stop id="stop4193" style="stop-color:#ffffff;stop-opacity:0" offset="1"/>
		</linearGradient>
		<style id="current-color-scheme" type="text/css">
			.ColorScheme-Text {	color:#0000FF; }
			.ColorScheme-Background { color:#FF0000; }
		</style>
		<radialGradient id="radialGradient4195" xlink:href="#linearGradient4189" gradientUnits="userSpaceOnUse" cy="-10.312" cx="-20" gradientTransform="matrix(3.0423e-8 -.54130 .54130 3.0423e-8 -14.418 -20.826)" r="9.237"/>
		<radialGradient id="radialGradient4322" xlink:href="#linearGradient4189" gradientUnits="userSpaceOnUse" cy="-50.212" cx="-24" gradientTransform="matrix(2.0816e-8 -.39907 .39907 2.0816e-8 -3.9621 -59.578)" r="17.541"/>
	</defs>
	<metadata id="metadata7">
		<rdf:RDF>
			<cc:Work rdf:about="">
				<dc:format>image/svg+xml</dc:format>
				<dc:type rdf:resource="http://purl.org/dc/dcmitype/StillImage"/>
				<dc:title/>
				<dc:creator>
					<cc:Agent>
						<dc:title>obnosim</dc:title>
					</cc:Agent>
				</dc:creator>
				<cc:license rdf:resource="http://creativecommons.org/licenses/by-sa/3.0/"/>
			</cc:Work>
			<cc:License rdf:about="http://creativecommons.org/licenses/by-sa/3.0/">
				<cc:permits rdf:resource="http://creativecommons.org/ns#Reproduction"/>
				<cc:permits rdf:resource="http://creativecommons.org/ns#Distribution"/>
				<cc:requires rdf:resource="http://creativecommons.org/ns#Notice"/>
				<cc:requires rdf:resource="http://creativecommons.org/ns#Attribution"/>
				<cc:permits rdf:resource="http://creativecommons.org/ns#DerivativeWorks"/>
				<cc:requires rdf:resource="http://creativecommons.org/ns#ShareAlike"/>
			</cc:License>
		</rdf:RDF>
	</metadata>
	<rect id="hint-rotation-angle" style="fill:#60a500" height="5" width="11.25" y="-3.4229" x="112.06"/>
	<g id="22-22-busywidget" transform="translate(-1,-1)">
		<rect style="opacity:.375;fill:none" height="22" width="22" y="1" x="1"/>
		<path d="m12 5.4688c-3.4869.0821-6.373 3.0238-6.2812 6.5312.044193 1.6886.78025 3.2395 1.9375 4.3438.036052.03605.10124.0625.15625.0625.1099 0 .1874-.108.1874-.218 0-.056-.0264-.089-.0625-.126-.9721-1.078-1.5252-2.516-1.4375-4.062.1514-2.6694 2.3189-4.9109 4.969-5.0312.17666-.00802.35081-.011258.53125 0 2.5794.16092 4.7128 2.4121 4.5312 5.0312-.15305 2.2079-2.004 4.0318-4.2188 4.0312-.029-.0059-.06416.0042-.09375 0-.07-.01-.146-.031-.219-.031-.82843 0-1.5.67157-1.5 1.5s.67157 1.5 1.5 1.5c.10355 0 .21485-.01127.3125-.03125 3.602-.24 6.548-3.313 6.469-6.969-.077-3.6195-3.142-6.617-6.781-6.5312z" style="opacity:.875;stroke:currentColor;stroke-width:2;fill:none" class="ColorScheme-Background"/>
		<path d="m12 5.4688c-3.4869.0821-6.373 3.0238-6.2812 6.5312.044193 1.6886.78025 3.2395 1.9375 4.3438.036052.03605.10124.0625.15625.0625.1099 0 .1874-.108.1874-.218 0-.056-.0264-.089-.0625-.126-.9721-1.078-1.5252-2.516-1.4375-4.062.1514-2.6694 2.3189-4.9109 4.969-5.0312.17666-.00802.35081-.011258.53125 0 2.5794.16092 4.7128 2.4121 4.5312 5.0312-.15305 2.2079-2.004 4.0318-4.2188 4.0312-.029-.0059-.06416.0042-.09375 0-.07-.01-.146-.031-.219-.031-.82843 0-1.5.67157-1.5 1.5s.67157 1.5 1.5 1.5c.10355 0 .21485-.01127.3125-.03125 3.602-.24 6.548-3.313 6.469-6.969-.077-3.6195-3.142-6.617-6.781-6.5312z" style="fill:currentColor" class="ColorScheme-Text"/>
	</g>
	<g id="pause" transform="translate(56,77)">
		<rect style="opacity:.25;fill:none" height="22" width="22" y="-77" x="-33"/>
		<path d="m-20-74h6v16h-6zm-10 0h6v16h-6z" style="opacity:.875;fill:currentColor" class="ColorScheme-Text"/>
	</g>
	<g id="g4199" transform="matrix(1.4545 0 0 1.4545 -6.4545 -33.455)">
		<rect style="opacity:.375;fill:none" height="22" width="22" y="1" x="1"/>
		<path d="m12 5.4688c-3.4869.0821-6.373 3.0238-6.2812 6.5312.044193 1.6886.78025 3.2395 1.9375 4.3438.036052.03605.10124.0625.15625.0625.1099 0 .1874-.108.1874-.218 0-.056-.0264-.089-.0625-.126-.9721-1.078-1.5252-2.516-1.4375-4.062.1514-2.6694 2.3189-4.9109 4.969-5.0312.17666-.00802.35081-.011258.53125 0 2.5794.16092 4.7128 2.4121 4.5312 5.0312-.15305 2.2079-2.004 4.0318-4.2188 4.0312-.029-.0059-.06416.0042-.09375 0-.07-.01-.146-.031-.219-.031-.82843 0-1.5.67157-1.5 1.5s.67157 1.5 1.5 1.5c.10355 0 .21485-.01127.3125-.03125 3.602-.24 6.548-3.313 6.469-6.969-.077-3.6195-3.142-6.617-6.781-6.5312z" style="opacity:.875;stroke:currentColor;stroke-width:1.375;fill:none" class="ColorScheme-Background"/>
		<path d="m12 5.4688c-3.4869.0821-6.373 3.0238-6.2812 6.5312.044193 1.6886.78025 3.2395 1.9375 4.3438.036052.03605.10124.0625.15625.0625.1099 0 .1874-.108.1874-.218 0-.056-.0264-.089-.0625-.126-.9721-1.078-1.5252-2.516-1.4375-4.062.1514-2.6694 2.3189-4.9109 4.969-5.0312.17666-.00802.35081-.011258.53125 0 2.5794.16092 4.7128 2.4121 4.5312 5.0312-.15305 2.2079-2.004 4.0318-4.2188 4.0312-.029-.0059-.06416.0042-.09375 0-.07-.01-.146-.031-.219-.031-.82843 0-1.5.67157-1.5 1.5s.67157 1.5 1.5 1.5c.10355 0 .21485-.01127.3125-.03125 3.602-.24 6.548-3.313 6.469-6.969-.077-3.6195-3.142-6.617-6.781-6.5312z" style="fill:currentColor" class="ColorScheme-Text"/>
	</g>
	<g id="16-16-busywidget" transform="matrix(.72727 0 0 .72727 2.2727 21.273)">
		<rect style="opacity:.375;fill:none" height="22" width="22" y="1" x="1"/>
		<path d="m12 5.4688c-3.4869.0821-6.373 3.0238-6.2812 6.5312.044193 1.6886.78025 3.2395 1.9375 4.3438.036052.03605.10124.0625.15625.0625.1099 0 .1874-.108.1874-.218 0-.056-.0264-.089-.0625-.126-.9721-1.078-1.5252-2.516-1.4375-4.062.1514-2.6694 2.3189-4.9109 4.969-5.0312.17666-.00802.35081-.011258.53125 0 2.5794.16092 4.7128 2.4121 4.5312 5.0312-.15305 2.2079-2.004 4.0318-4.2188 4.0312-.029-.0059-.06416.0042-.09375 0-.07-.01-.146-.031-.219-.031-.82843 0-1.5.67157-1.5 1.5s.67157 1.5 1.5 1.5c.10355 0 .21485-.01127.3125-.03125 3.602-.24 6.548-3.313 6.469-6.969-.077-3.6195-3.142-6.617-6.781-6.5312z" style="opacity:.875;stroke:currentColor;stroke-width:2.75;fill:none" class="ColorScheme-Background"/>
		<path d="m12 5.4688c-3.4869.0821-6.373 3.0238-6.2812 6.5312.044193 1.6886.78025 3.2395 1.9375 4.3438.036052.03605.10124.0625.15625.0625.1099 0 .1874-.108.1874-.218 0-.056-.0264-.089-.0625-.126-.9721-1.078-1.5252-2.516-1.4375-4.062.1514-2.6694 2.3189-4.9109 4.969-5.0312.17666-.00802.35081-.011258.53125 0 2.5794.16092 4.7128 2.4121 4.5312 5.0312-.15305 2.2079-2.004 4.0318-4.2188 4.0312-.029-.0059-.06416.0042-.09375 0-.07-.01-.146-.031-.219-.031-.82843 0-1.5.67157-1.5 1.5s.67157 1.5 1.5 1.5c.10355 0 .21485-.01127.3125-.03125 3.602-.24 6.548-3.313 6.469-6.969-.077-3.6195-3.142-6.617-6.781-6.5312z" style="fill:currentColor" class="ColorScheme-Text"/>
	</g>
	<g id="g3360" transform="matrix(.72727 0 0 .72727 -28.727 19.273)">
		<rect style="opacity:.375;fill:none" height="22" width="22" y="1" x="1"/>
		<path style="opacity:.875;stroke:currentColor;stroke-width:2.75;fill:none" d="m12 5.4688c-3.4869.0821-6.373 3.0238-6.2812 6.5312.044193 1.6886.78025 3.2395 1.9375 4.3438.036052.03605.10124.0625.15625.0625.1099 0 .1874-.108.1874-.218 0-.056-.0264-.089-.0625-.126-.9721-1.078-1.5252-2.516-1.4375-4.062.1514-2.6694 2.3189-4.9109 4.969-5.0312.17666-.00802.35081-.011258.53125 0 2.5794.16092 4.7128 2.4121 4.5312 5.0312-.15305 2.2079-2.004 4.0318-4.2188 4.0312-.029-.0059-.06416.0042-.09375 0-.07-.01-.146-.031-.219-.031-.82843 0-1.5.67157-1.5 1.5s.67157 1.5 1.5 1.5c.10355 0 .21485-.01127.3125-.03125 3.602-.24 6.548-3.313 6.469-6.969-.077-3.6195-3.142-6.617-6.781-6.5312z" class="ColorScheme-Background"/>
		<path style="fill:#ff0909" d="m12 5.4688c-3.4869.0821-6.373 3.0238-6.2812 6.5312.044193 1.6886.78025 3.2395 1.9375 4.3438.036052.03605.10124.0625.15625.0625.1099 0 .1874-.108.1874-.218 0-.056-.0264-.089-.0625-.126-.9721-1.078-1.5252-2.516-1.4375-4.062.1514-2.6694 2.3189-4.9109 4.969-5.0312.17666-.00802.35081-.011258.53125 0 2.5794.16092 4.7128 2.4121 4.5312 5.0312-.15305 2.2079-2.004 4.0318-4.2188 4.0312-.029-.0059-.06416.0042-.09375 0-.07-.01-.146-.031-.219-.031-.82843 0-1.5.67157-1.5 1.5s.67157 1.5 1.5 1.5c.10355 0 .21485-.01127.3125-.03125 3.602-.24 6.548-3.313 6.469-6.969-.077-3.6195-3.142-6.617-6.781-6.5312z" class="ColorScheme-Text"/>
	</g>
	<g id="32-32-busywidget" transform="matrix(1.4545 0 0 1.4545 -37.455 -35.455)">
		<rect style="opacity:.375;fill:none" height="22" width="22" y="1" x="1"/>
		<path d="m12.283 5.6326c1.2311.015194 2.4671.37852 3.5342 1.1132 2.9795 2.0513 3.6854 6.2598 1.6355 9.2155-1.1948 1.7227-3.1695 2.7936-5.257 2.8977-.06488.01004-.13040.01543-.19604.01611-.75939 0-1.375-.61561-1.375-1.375s.61561-1.375 1.375-1.375c.08516.00018.17012.0083.25378.02417 2.3321.05653 4.2837-1.8743 4.4271-4.1868.168-2.7092-2.055-5.0058-4.723-5.1421-2.9695-.1517-5.478 2.2929-5.6044 5.2251-.0773 1.794.7328 3.541 2.1122 4.681-2.6992-1.869-3.3365-5.683-1.4972-8.382 1.2242-1.7961 3.2624-2.7377 5.3144-2.7124zm-3.8172 11.094z" style="opacity:.375;stroke-linejoin:round;stroke-dashoffset:1;stroke:#000000;stroke-linecap:round;stroke-width:.6875;fill:none"/>
		<path style="opacity:0.187;stroke-linejoin:round;stroke-dashoffset:1;stroke:#000000;stroke-linecap:round;stroke-width:1.375;fill:none" d="m12.283 5.6326c1.2311.015194 2.4671.37852 3.5342 1.1132 2.9795 2.0513 3.6854 6.2598 1.6355 9.2155-1.1948 1.7227-3.1695 2.7936-5.257 2.8977-.06488.01004-.13040.01543-.19604.01611-.75939 0-1.375-.61561-1.375-1.375s.61561-1.375 1.375-1.375c.08516.00018.17012.0083.25378.02417 2.3321.05653 4.2837-1.8743 4.4271-4.1868.168-2.7092-2.055-5.0058-4.723-5.1421-2.9695-.1517-5.478 2.2929-5.6044 5.2251-.0773 1.794.7328 3.541 2.1122 4.681-2.6992-1.869-3.3365-5.683-1.4972-8.382 1.2242-1.7961 3.2624-2.7377 5.3144-2.7124zm-3.8172 11.094z"/>
		<path style="fill-rule:evenodd;fill:#e0e0e0" d="m-20.412-27.262c-1.7907.0221-3.5886.55057-5.1406 1.6191-4.3338 2.9838-5.3605 9.1052-2.3789 13.404 1.7379 2.5058 4.6102 4.0634 7.6465 4.2148.09437.01461.18967.022443.28516.023437 1.1046-1e-7 2-.89543 2-2s-.89543-2-2-2c-.12387.000262-.24745.01203-.36914.03516-3.3921.08223-6.2308-2.7262-6.4395-6.0898-.24443-3.9398 2.9882-7.2802 6.8691-7.4785 4.3199-.22071 7.9685 3.3351 8.1523 7.5996.11247 2.6096-1.0659 5.1517-3.0723 6.8086 3.9261-2.7174 4.8531-8.2662 2.1777-12.191-1.7807-2.6125-4.7459-3.9821-7.7305-3.9453zm5.5527 16.137z" transform="matrix(-.68750 0 0 .68750 -1.75 24.375)"/>
		<path style="fill-rule:evenodd;fill:url(#radialGradient4195)" d="m-20.412-27.262c-1.7907.0221-3.5886.55057-5.1406 1.6191-4.3338 2.9838-5.3605 9.1052-2.3789 13.404 1.7379 2.5058 4.6102 4.0634 7.6465 4.2148.09437.01461.18967.022443.28516.023437 1.1046-1e-7 2-.89543 2-2s-.89543-2-2-2c-.12387.000262-.24745.01203-.36914.03516-3.3921.08223-6.2308-2.7262-6.4395-6.0898-.24443-3.9398 2.9882-7.2802 6.8691-7.4785 4.3199-.22071 7.9685 3.3351 8.1523 7.5996.11247 2.6096-1.0659 5.1517-3.0723 6.8086 3.9261-2.7174 4.8531-8.2662 2.1777-12.191-1.7807-2.6125-4.7459-3.9821-7.7305-3.9453zm5.5527 16.137z" transform="matrix(-.68750 0 0 .68750 -1.75 24.375)"/>
	</g>
	<g id="busywidget">
		<path style="opacity:0.187;stroke-linejoin:round;stroke-dashoffset:1;stroke:#000000;stroke-linecap:round;stroke-width:2;fill:none" d="m-23.314-83.553c-5.6698-.14440-11.347 2.3928-14.83 7.2754-5.4846 7.689-3.6966 18.727 4.0215 24.209l.122.069c-4.2968-3.2503-6.8641-8.4716-6.748-13.865.19097-8.8744 7.6775-16.302 16.619-16.068 8.4035.21968 15.434 7.3343 15.158 15.812-.25571 7.8741-6.9521 14.455-14.91 14.127a2 2 0 0 0 -.0059 0 2 2 0 0 0 -.113 -.006 2 2 0 0 0 -2 2 2 2 0 0 0 2 2 2 2 0 0 0 .14062 -.0059c5.645-.07878 11.046-2.882 14.338-7.4746 5.6459-7.8758 3.8222-19.196-4.0723-24.844-2.9211-2.0896-6.3188-3.1419-9.7207-3.2285z"/>
		<path style="opacity:.375;stroke-linejoin:round;stroke-dashoffset:1;stroke:#000000;stroke-linecap:round;fill:none" d="m-23.314-83.553c-5.6698-.14440-11.347 2.3928-14.83 7.2754-5.4846 7.689-3.6966 18.727 4.0215 24.209l.122.069c-4.2968-3.2503-6.8641-8.4716-6.748-13.865.19097-8.8744 7.6775-16.302 16.619-16.068 8.4035.21968 15.434 7.3343 15.158 15.812-.25571 7.8741-6.9521 14.455-14.91 14.127a2 2 0 0 0 -.0059 0 2 2 0 0 0 -.113 -.006 2 2 0 0 0 -2 2 2 2 0 0 0 2 2 2 2 0 0 0 .14062 -.0059c5.645-.07878 11.046-2.882 14.338-7.4746 5.6459-7.8758 3.8222-19.196-4.0723-24.844-2.9211-2.0896-6.3188-3.1419-9.7207-3.2285z"/>
		<rect style="opacity:.375;fill:none" height="64" width="64" y="-98" x="-56"/>
		<path style="fill-rule:evenodd;fill:#e0e0e0" d="m-23.314-83.553c-5.6698-.14440-11.347 2.3928-14.83 7.2754-5.4846 7.689-3.6966 18.727 4.0215 24.209l.122.069c-4.2968-3.2503-6.8641-8.4716-6.748-13.865.19097-8.8744 7.6775-16.302 16.619-16.068 8.4035.21968 15.434 7.3343 15.158 15.812-.25571 7.8741-6.9521 14.455-14.91 14.127a2 2 0 0 0 -.0059 0 2 2 0 0 0 -.113 -.006 2 2 0 0 0 -2 2 2 2 0 0 0 2 2 2 2 0 0 0 .14062 -.0059c5.645-.07878 11.046-2.882 14.338-7.4746 5.6459-7.8758 3.8222-19.196-4.0723-24.844-2.9211-2.0896-6.3188-3.1419-9.7207-3.2285z"/>
		<path style="fill-rule:evenodd;fill:url(#radialGradient4322)" d="m-23.314-83.553c-5.6698-.14440-11.347 2.3928-14.83 7.2754-5.4846 7.689-3.6966 18.727 4.0215 24.209l.122.069c-4.2968-3.2503-6.8641-8.4716-6.748-13.865.19097-8.8744 7.6775-16.302 16.619-16.068 8.4035.21968 15.434 7.3343 15.158 15.812-.25571 7.8741-6.9521 14.455-14.91 14.127a2 2 0 0 0 -.0059 0 2 2 0 0 0 -.113 -.006 2 2 0 0 0 -2 2 2 2 0 0 0 2 2 2 2 0 0 0 .14062 -.0059c5.645-.07878 11.046-2.882 14.338-7.4746 5.6459-7.8758 3.8222-19.196-4.0723-24.844-2.9211-2.0896-6.3188-3.1419-9.7207-3.2285z"/>
	</g>
</svg>
