<?xml version="1.0" encoding="UTF-8" standalone="no"?>
<svg id="svg2" xmlns:rdf="http://www.w3.org/1999/02/22-rdf-syntax-ns#" xmlns="http://www.w3.org/2000/svg" height="24" width="24" version="1.0" xmlns:cc="http://creativecommons.org/ns#" xmlns:dc="http://purl.org/dc/elements/1.1/">
	<defs id="defs3615">
		<style id="current-color-scheme" type="text/css">.ColorScheme-Text {
			color:#0000FF;
			}
			.ColorScheme-Background{
			color:#500000;
			}
			.ColorScheme-ViewText {
			color:#31363b;
			}
			.ColorScheme-ViewBackground{
			color:#ffffff;
			}
			.ColorScheme-ViewHover {
			color:#000000;
			}
			.ColorScheme-ViewFocus{
			color:#5a5a5a;
			}
			.ColorScheme-ButtonText {
			color:#31363b;
			}
			.ColorScheme-ButtonBackground{
			color:#E9E8E8;
			}
			.ColorScheme-ButtonHover {
			color:#1489ff;
			}
			.ColorScheme-ButtonFocus{
			color:#2B74C7;
			}</style>
	</defs>
	<metadata id="metadata7">
		<rdf:RDF>
			<cc:Work rdf:about="">
				<dc:format>image/svg+xml</dc:format>
				<dc:type rdf:resource="http://purl.org/dc/dcmitype/StillImage"/>
				<dc:title/>
			</cc:Work>
		</rdf:RDF>
	</metadata>
	<rect id="hint-rotation-angle" style="fill:#60a500" height="5" width="12.5" y="-2.4229" x="113.06"/>
	<g id="busywidget">
		<rect id="rect3826" style="opacity:.375;fill:none" height="22" width="22" y="1" x="1"/>
		<path id="path3788" d="m12 4c-4.4183 0-8 3.5817-8 8s3.5817 8 8 8 8-3.5817 8-8-3.5817-8-8-8zm0 5c1.6569 0 3 1.3431 3 3s-1.3431 3-3 3-3-1.3431-3-3 1.3431-3 3-3z" style="opacity:.375;fill:currentColor" class="ColorScheme-Background"/>
		<path id="path3801" class="ColorScheme-Text" style="fill:currentColor" d="m12 5.4688c-3.4869.0821-6.373 3.0238-6.2812 6.5312.044193 1.6886.78025 3.2395 1.9375 4.3438.036052.03605.10124.0625.15625.0625.1099 0 .1874-.108.1874-.218 0-.056-.0264-.089-.0625-.126-.9721-1.078-1.5252-2.516-1.4375-4.062.1514-2.6694 2.3189-4.9109 4.969-5.0312.17666-.00802.35081-.011258.53125 0 2.5794.16092 4.7128 2.4121 4.5312 5.0312-.15305 2.2079-2.004 4.0318-4.2188 4.0312-.029-.0059-.06416.0042-.09375 0-.070-.010-.146-.031-.219-.031-.82843 0-1.5.67157-1.5 1.5s.67157 1.5 1.5 1.5c.10355 0 .21485-.01127.3125-.03125 3.602-.240 6.548-3.313 6.469-6.969-.077-3.6195-3.142-6.617-6.781-6.5312z"/>
	</g>
	<g id="pause">
		<rect id="rect3837" style="fill:none" height="22" width="22" y="1" x="29"/>
		<path id="rect3853" d="m40 4c-4.4183 0-8 3.5817-8 8s3.5817 8 8 8 8-3.5817 8-8-3.5817-8-8-8zm0 1c3.866 0 7 3.134 7 7s-3.134 7-7 7-7-3.134-7-7 3.134-7 7-7zm-2 4c-.554 0-1 .446-1 1v4c0 .554.446 1 1 1s1-.446 1-1v-4c0-.554-.446-1-1-1zm4 0c-.554 0-1 .446-1 1v4c0 .554.446 1 1 1s1-.446 1-1v-4c0-.554-.446-1-1-1z" style="fill:currentColor" class="ColorScheme-Text"/>
	</g>
</svg>
