<?xml version="1.0" encoding="UTF-8" standalone="no"?>
<!-- Created with Inkscape (http://www.inkscape.org/) -->

<svg
   xmlns:dc="http://purl.org/dc/elements/1.1/"
   xmlns:cc="http://creativecommons.org/ns#"
   xmlns:rdf="http://www.w3.org/1999/02/22-rdf-syntax-ns#"
   xmlns:svg="http://www.w3.org/2000/svg"
   xmlns="http://www.w3.org/2000/svg"
   xmlns:sodipodi="http://sodipodi.sourceforge.net/DTD/sodipodi-0.dtd"
   xmlns:inkscape="http://www.inkscape.org/namespaces/inkscape"
   version="1.0"
   width="24"
   height="24"
   id="svg2"
   inkscape:version="0.91 r13725"
   sodipodi:docname="busywidget.svgz">
  <sodipodi:namedview
     pagecolor="#323232"
     bordercolor="#666666"
     borderopacity="1"
     objecttolerance="10"
     gridtolerance="10"
     guidetolerance="10"
     inkscape:pageopacity="1"
     inkscape:pageshadow="2"
     inkscape:window-width="1920"
     inkscape:window-height="1056"
     id="namedview39"
     showgrid="true"
     inkscape:showpageshadow="false"
     showborder="false"
     inkscape:zoom="11.313708"
     inkscape:cx="45.801837"
     inkscape:cy="10.613708"
     inkscape:window-x="0"
     inkscape:window-y="-3"
     inkscape:window-maximized="1"
     inkscape:current-layer="svg2">
    <inkscape:grid
       type="xygrid"
       id="grid3025"
       empspacing="4"
       visible="true"
       enabled="true"
       snapvisiblegridlinesonly="true" />
  </sodipodi:namedview>
  <defs
     id="defs4" />
  <metadata
     id="metadata7">
    <rdf:RDF>
      <cc:Work
         rdf:about="">
        <dc:format>image/svg+xml</dc:format>
        <dc:type
           rdf:resource="http://purl.org/dc/dcmitype/StillImage" />
        <dc:title />
      </cc:Work>
    </rdf:RDF>
  </metadata>
  <rect
     style="fill:#60a500;fill-opacity:1;fill-rule:nonzero;stroke:none"
     id="hint-rotation-angle"
     y="-2.422946"
     x="113.06152"
     height="5"
     width="12.5" />
  <g
     id="busywidget">
    <path
       style="opacity:0.375;fill:#000000;fill-opacity:1;stroke:none"
       d="m 12,4 c -4.418278,0 -8,3.581722 -8,8 0,4.418278 3.581722,8 8,8 4.418278,0 8,-3.581722 8,-8 0,-4.418278 -3.581722,-8 -8,-8 z m 0,5 c 1.656854,0 3,1.343146 3,3 0,1.656854 -1.343146,3 -3,3 -1.656854,0 -3,-1.343146 -3,-3 0,-1.656854 1.343146,-3 3,-3 z"
       id="path3788"
       inkscape:connector-curvature="0" />
    <rect
       y="0"
       x="0"
       height="24"
       width="24"
       id="rect3826"
       style="opacity:0.375;fill:none;stroke:none" />
    <path
       id="path3801"
       d="M 12,5.46875 C 8.5130709,5.5508834 5.6269547,8.4925933 5.71875,12 c 0.044193,1.688553 0.7802494,3.239488 1.9375,4.34375 0.036052,0.03605 0.1012373,0.0625 0.15625,0.0625 C 7.9225255,16.40625 8,16.297525 8,16.1875 8,16.132487 7.9735515,16.098552 7.9375,16.0625 6.9653732,14.984093 6.4123078,13.546151 6.5,12 6.6513976,9.3306229 8.8189057,7.0890578 11.46875,6.96875 c 0.176656,-0.00802 0.350808,-0.011258 0.53125,0 2.579408,0.1609245 4.712809,2.4121196 4.53125,5.03125 -0.153051,2.20788 -2.003996,4.031777 -4.21875,4.03125 -0.029,-0.0059 -0.06416,0.0042 -0.09375,0 C 12.148727,16.021228 12.072795,16 12,16 c -0.828427,0 -1.5,0.671573 -1.5,1.5 0,0.828427 0.671573,1.5 1.5,1.5 0.103553,0 0.214854,-0.01127 0.3125,-0.03125 C 15.913719,18.728555 18.859526,15.655503 18.78125,12 18.703744,8.3804717 15.63875,5.3830405 12,5.46875 z"
       style="fill:#e0e0e0;fill-opacity:1;stroke:none"
       inkscape:connector-curvature="0" />
  </g>
  <g
     id="pause">
    <path
       style="opacity:0.375;fill:none;stroke:#000000;stroke-opacity:1"
       d="m 40,4 c -4.418278,0 -8,3.581722 -8,8 0,4.418278 3.581722,8 8,8 4.418278,0 8,-3.581722 8,-8 0,-4.418278 -3.581722,-8 -8,-8 z m 0,1 c 3.865993,0 7,3.1340068 7,7 0,3.865993 -3.134007,7 -7,7 -3.865993,0 -7,-3.134007 -7,-7 0,-3.8659932 3.134007,-7 7,-7 z m -2,4 c -0.554,0 -1,0.446 -1,1 l 0,4 c 0,0.554 0.446,1 1,1 0.554,0 1,-0.446 1,-1 l 0,-4 C 39,9.446 38.554,9 38,9 z m 4,0 c -0.554,0 -1,0.446 -1,1 l 0,4 c 0,0.554 0.446,1 1,1 0.554,0 1,-0.446 1,-1 l 0,-4 C 43,9.446 42.554,9 42,9 z"
       id="path3861"
       inkscape:connector-curvature="0" />
    <rect
       style="opacity:0.375;fill:none;stroke:none"
       id="rect3837"
       width="24"
       height="24"
       x="28"
       y="0" />
    <path
       id="rect3853"
       d="m 40,4 c -4.418278,0 -8,3.581722 -8,8 0,4.418278 3.581722,8 8,8 4.418278,0 8,-3.581722 8,-8 0,-4.418278 -3.581722,-8 -8,-8 z m 0,1 c 3.865993,0 7,3.1340068 7,7 0,3.865993 -3.134007,7 -7,7 -3.865993,0 -7,-3.134007 -7,-7 0,-3.8659932 3.134007,-7 7,-7 z m -2,4 c -0.554,0 -1,0.446 -1,1 l 0,4 c 0,0.554 0.446,1 1,1 0.554,0 1,-0.446 1,-1 l 0,-4 C 39,9.446 38.554,9 38,9 z m 4,0 c -0.554,0 -1,0.446 -1,1 l 0,4 c 0,0.554 0.446,1 1,1 0.554,0 1,-0.446 1,-1 l 0,-4 C 43,9.446 42.554,9 42,9 z"
       style="fill:#e0e0e0;fill-opacity:1;stroke:none"
       inkscape:connector-curvature="0" />
  </g>
</svg>
