<?xml version="1.0" encoding="UTF-8" standalone="no"?>
<svg id="svg2" xmlns:rdf="http://www.w3.org/1999/02/22-rdf-syntax-ns#" xmlns="http://www.w3.org/2000/svg" height="44" width="50" version="1.1" xmlns:cc="http://creativecommons.org/ns#" xmlns:xlink="http://www.w3.org/1999/xlink" xmlns:dc="http://purl.org/dc/elements/1.1/">
	<defs id="defs4">
		<linearGradient id="linearGradient4938">
			<stop id="stop4940" style="stop-color:#e0e0e0;stop-opacity:.75294" offset="0"/>
			<stop id="stop4942" style="stop-color:#e0e0e0" offset="1"/>
		</linearGradient>
		<linearGradient id="linearGradient3218" y2="3" xlink:href="#linearGradient4938" gradientUnits="userSpaceOnUse" x2="25" gradientTransform="matrix(.068182 0 0 1 46.795 -44)" y1="17" x1="25"/>
		<linearGradient id="linearGradient3222" y2="3" xlink:href="#linearGradient4938" gradientUnits="userSpaceOnUse" x2="25" gradientTransform="translate(-2.1186e-8 -44)" y1="17" x1="25"/>
		<linearGradient id="linearGradient3224" y2="3" xlink:href="#linearGradient4938" gradientUnits="userSpaceOnUse" x2="25" gradientTransform="matrix(.068182 0 0 1 46.795 -.0000041507)" y1="17" x1="25"/>
		<linearGradient id="linearGradient3226" y2="3" xlink:href="#linearGradient4938" gradientUnits="userSpaceOnUse" x2="25" gradientTransform="matrix(.068182 0 0 1 -.20455 -.0000041507)" y1="17" x1="25"/>
		<linearGradient id="linearGradient3228" y2="3" xlink:href="#linearGradient4938" gradientUnits="userSpaceOnUse" x2="25" gradientTransform="translate(-2.1186e-8 -.00000412)" y1="17" x1="25"/>
		<linearGradient id="linearGradient3949" y2="3" xlink:href="#linearGradient4938" gradientUnits="userSpaceOnUse" x2="25" gradientTransform="matrix(.068182 0 0 1 -.20455 -44)" y1="17" x1="25"/>
	</defs>
	<metadata id="metadata7">
		<rdf:RDF>
			<cc:Work rdf:about="">
				<dc:format>image/svg+xml</dc:format>
				<dc:type rdf:resource="http://purl.org/dc/dcmitype/StillImage"/>
				<dc:title/>
				<dc:creator>
					<cc:Agent>
						<dc:title>obnosim</dc:title>
					</cc:Agent>
				</dc:creator>
				<cc:license rdf:resource="http://creativecommons.org/licenses/by-nc-sa/3.0/"/>
			</cc:Work>
			<cc:License rdf:about="http://creativecommons.org/licenses/by-nc-sa/3.0/">
				<cc:permits rdf:resource="http://creativecommons.org/ns#Reproduction"/>
				<cc:permits rdf:resource="http://creativecommons.org/ns#Distribution"/>
				<cc:requires rdf:resource="http://creativecommons.org/ns#Notice"/>
				<cc:requires rdf:resource="http://creativecommons.org/ns#Attribution"/>
				<cc:prohibits rdf:resource="http://creativecommons.org/ns#CommercialUse"/>
				<cc:permits rdf:resource="http://creativecommons.org/ns#DerivativeWorks"/>
				<cc:requires rdf:resource="http://creativecommons.org/ns#ShareAlike"/>
			</cc:License>
		</rdf:RDF>
	</metadata>
	<rect id="hint-stretch-borders" style="fill:#008000" ry="0" height="5" width="5" y="-13" x="-16"/>
	<rect id="pressed-center" style="opacity:.375;fill:url(#linearGradient3222)" transform="scale(1,-1)" height="14" width="44" y="-41" x="3"/>
	<g id="normal-topleft" style="opacity:.875">
		<path id="path4948" style="fill:#e0e0e0" d="m3 0c-1.662 0-3 1.338-3 3h3v-3z"/>
		<path id="path4960" style="opacity:.5;fill:#ffffff" d="m3 0c-1.662 0-3 1.338-3 3 0-1.108 1.338-2 3-2v-1z"/>
	</g>
	<rect id="normal-center" style="opacity:.875;fill:url(#linearGradient3228)" height="14" width="44" y="3" x="3"/>
	<g id="normal-topright" style="opacity:.875">
		<path id="path4950" style="fill:#e0e0e0" d="m47 0c1.662 0 3 1.338 3 3h-3v-3z"/>
		<path id="path4962" style="opacity:.5;fill:#ffffff" d="m47 0v1c1.662 0 3 .892 3 2 0-1.662-1.338-3-3-3z"/>
	</g>
	<g id="normal-bottomleft" style="opacity:.875">
		<path id="path4954" style="fill-opacity:.75294;fill:#e0e0e0" d="m3 20c-1.662 0-3-1.338-3-3h3v3z"/>
		<path id="path4983" style="opacity:.16450;fill:#000000" d="m3 20c-1.662 0-3-1.338-3-3 0 1.108 1.338 2 3 2v1z"/>
	</g>
	<g id="normal-bottomright" style="opacity:.875">
		<path id="path4956" style="fill-opacity:.75294;fill:#e0e0e0" d="m47 20c1.662 0 3-1.338 3-3h-3v3z"/>
		<path id="path4985" style="opacity:.16450;fill:#000000" d="m47 20v-1c1.662 0 3-.892 3-2 0 1.662-1.338 3-3 3z"/>
	</g>
	<g id="normal-top" style="opacity:.875">
		<rect id="rect4952" style="fill:#e0e0e0" transform="rotate(90)" height="44" width="3" y="-47" x="0"/>
		<path id="rect4964" style="opacity:.5;fill:#ffffff" d="m3 0v1h44v-1h-44z"/>
	</g>
	<g id="normal-left">
		<rect id="rect3862" style="opacity:.875;fill:url(#linearGradient3226)" height="14" width="3" y="3" x="-1.7881e-7"/>
	</g>
	<g id="normal-bottom" style="opacity:.875">
		<rect id="rect4958" style="fill:#e0e0e0;fill-opacity:.75294" transform="matrix(0,-1,-1,0,0,0)" height="44" width="3" y="-47" x="-20"/>
		<path id="path4987" style="opacity:0.165;fill:#000000" d="m3 20v-1h44v1h-44z"/>
	</g>
	<g id="normal-right">
		<rect id="rect3892" style="opacity:.875;fill:url(#linearGradient3224)" height="14" width="3" y="3" x="47"/>
	</g>
	<g id="pressed-topleft">
		<path id="path5099" style="opacity:.375;fill-opacity:.75294;fill:#e0e0e0" d="m3 24c-1.662 0-3 1.338-3 3h3v-3z"/>
		<path id="path3898" style="opacity:0.188;color:#000000;fill-opacity:.75294;fill:#000000" d="m5 23c-1.6569 0-3 1.343-3 3 0-.552 1.3431-1 3-1v-2z" transform="translate(-2 1)"/>
	</g>
	<g id="pressed-topright">
		<path id="path5105" style="opacity:.375;fill-opacity:.75294;fill:#e0e0e0" d="m47 24c1.662 0 3 1.338 3 3h-3v-3z"/>
		<path id="path3911" style="opacity:0.188;color:#000000;fill-opacity:.75294;fill:#000000" d="m49 23v2c1.6569 0 3 .44772 3 1 0-1.6569-1.3431-3-3-3z" transform="translate(-2 1)"/>
	</g>
	<g id="pressed-bottomleft" style="opacity:.375" transform="matrix(1 0 0 -1 1.7881e-7 44)">
		<path id="path5081" style="fill:#e0e0e0" d="m3 0c-1.662 0-3 1.338-3 3h3v-3z"/>
		<path id="path5083" style="opacity:.5;fill:#ffffff" d="m3 0c-1.662 0-3 1.338-3 3 0-1.108 1.338-2 3-2v-1z"/>
	</g>
	<g id="pressed-bottomright" style="opacity:.375" transform="matrix(1 0 0 -1 1.7881e-7 44)">
		<path id="path5087" style="fill:#e0e0e0" d="m47 0c1.662 0 3 1.338 3 3h-3v-3z"/>
		<path id="path5089" style="opacity:.5;fill:#ffffff" d="m47 0v1c1.662 0 3 .892 3 2 0-1.662-1.338-3-3-3z"/>
	</g>
	<g id="pressed-top">
		<rect id="rect5111" style="opacity:.375;fill:#e0e0e0;fill-opacity:.75294" transform="rotate(90)" height="44" width="3" y="-47" x="24"/>
		<path id="rect5129" style="opacity:0.188;fill:#000000;fill-opacity:.75294" d="m3 24v2h44v-2h-44z"/>
	</g>
	<g id="pressed-left">
		<rect id="rect3963" style="opacity:.375;fill:url(#linearGradient3949)" transform="scale(1,-1)" height="14" width="3" y="-41" x="-1.7881e-7"/>
	</g>
	<g id="pressed-bottom" style="opacity:.375" transform="matrix(1 0 0 -1 1.7881e-7 44)">
		<rect id="rect5093" style="fill:#e0e0e0" transform="rotate(90)" height="44" width="3" y="-47" x="0"/>
		<path id="path5095" style="opacity:.5;fill:#ffffff" d="m3 0v1h44v-1h-44z"/>
	</g>
	<g id="pressed-right">
		<rect id="rect3971" style="opacity:.375;fill:url(#linearGradient3218)" transform="scale(1,-1)" height="14" width="3" y="-41" x="47"/>
	</g>
</svg>
