<?xml version="1.0" encoding="UTF-8" standalone="no"?>
<svg id="svg2" xmlns:rdf="http://www.w3.org/1999/02/22-rdf-syntax-ns#" xmlns="http://www.w3.org/2000/svg" height="36" width="36" version="1.1" xmlns:cc="http://creativecommons.org/ns#" xmlns:xlink="http://www.w3.org/1999/xlink" xmlns:dc="http://purl.org/dc/elements/1.1/">
	<defs id="defs4">
		<style id="current-color-scheme" type="text/css">
			.ColorScheme-Highlight { color:#FF00FF; }
			.ColorScheme-Text { color:#0000FF; }
		</style>
		<g class="ColorScheme-Text">
			<linearGradient id="linearGradient4709">
				<stop id="stop4961" style="stop-color:currentColor;stop-opacity:.33" offset="0"/>
				<stop id="stop4963" style="stop-color:currentColor;stop-opacity:.21" offset="1"/>
			</linearGradient>
			<linearGradient id="linearGradient4631">
				<stop id="stop4940" style="stop-color:currentColor;stop-opacity:.75294" offset="0"/>
				<stop id="stop4942" style="stop-color:currentColor;stop-opacity:.87843" offset="1"/>
			</linearGradient>
			<linearGradient id="linearGradient3224" y2="3" xlink:href="#linearGradient4631" gradientUnits="userSpaceOnUse" x2="25" gradientTransform="matrix(0.068182,0,0,1,46.795,-4.1507e-6)" y1="17" x1="25"/>
			<linearGradient id="linearGradient3226" y2="3" xlink:href="#linearGradient4631" gradientUnits="userSpaceOnUse" x2="25" gradientTransform="matrix(0.068182,0,0,1,-0.20455,-4.1507e-6)" y1="17" x1="25"/>
			<linearGradient id="linearGradient3228" y2="3" xlink:href="#linearGradient4631" gradientUnits="userSpaceOnUse" x2="25" gradientTransform="matrix(.22727 0 0 .71429 2.3182 .85714)" y1="17" x1="25"/>
			<linearGradient id="linearGradient4723" y2="-2.9998" xlink:href="#linearGradient4709" gradientUnits="userSpaceOnUse" x2="50.5" gradientTransform="translate(-16)" y1="-13" x1="50.5"/>
			<linearGradient id="linearGradient4731" y2="-2.9998" xlink:href="#linearGradient4709" gradientUnits="userSpaceOnUse" x2="37.5" gradientTransform="translate(-16)" y1="-13" x1="37.5"/>
			<linearGradient id="linearGradient4715" y2="-3" xlink:href="#linearGradient4709" gradientUnits="userSpaceOnUse" x2="44" gradientTransform="translate(-16)" y1="-13" x1="44"/>
			<radialGradient id="radialGradient5028" gradientUnits="userSpaceOnUse" cy="-8" cx="20" gradientTransform="matrix(2 -.0000010402 .0000017336 3.3333 -20 18.667)" r="1.5">
				<stop id="stop5024" style="stop-color:currentColor" offset="0"/>
				<stop id="stop5026" style="stop-color:currentColor" offset="1"/>
			</radialGradient>
		</g>
	</defs>
	<metadata id="metadata7">
		<rdf:RDF>
			<cc:Work rdf:about="">
				<dc:format>image/svg+xml</dc:format>
				<dc:type rdf:resource="http://purl.org/dc/dcmitype/StillImage"/>
				<dc:title/>
				<dc:creator>
					<cc:Agent>
						<dc:title>obnosim</dc:title>
					</cc:Agent>
				</dc:creator>
				<cc:license rdf:resource="http://creativecommons.org/licenses/by-sa/3.0/"/>
			</cc:Work>
			<cc:License rdf:about="http://creativecommons.org/licenses/by-sa/3.0/">
				<cc:permits rdf:resource="http://creativecommons.org/ns#Reproduction"/>
				<cc:permits rdf:resource="http://creativecommons.org/ns#Distribution"/>
				<cc:requires rdf:resource="http://creativecommons.org/ns#Notice"/>
				<cc:requires rdf:resource="http://creativecommons.org/ns#Attribution"/>
				<cc:permits rdf:resource="http://creativecommons.org/ns#DerivativeWorks"/>
				<cc:requires rdf:resource="http://creativecommons.org/ns#ShareAlike"/>
			</cc:License>
		</rdf:RDF>
	</metadata>
	<rect id="hint-stretch-borders" style="fill:#008000" ry="0" height="5" width="5" y="-13" x="-16"/>
	<g id="normal" class="ColorScheme-Text">
		<g id="normal-topleft" style="opacity:.875">
			<path style="fill-opacity:.87843;fill:currentColor" d="m3 0c-1.662 0-3 1.338-3 3h3v-3z"/>
			<path style="opacity:.5;fill:currentColor" d="m3 0c-1.662 0-3 1.338-3 3 0-1.108 1.338-2 3-2v-1z"/>
		</g>
		<rect id="normal-center" style="opacity:.875;fill:url(#linearGradient3228)" height="10" width="10" y="3" x="3"/>
		<g id="normal-topright" style="opacity:.875" transform="translate(-34)">
			<path style="fill-opacity:.87843;fill:currentColor" d="m47 0c1.662 0 3 1.338 3 3h-3v-3z"/>
			<path style="opacity:.5;fill:currentColor" d="m47 0v1c1.662 0 3 .892 3 2 0-1.662-1.338-3-3-3z"/>
		</g>
		<g id="normal-bottomleft" style="opacity:.875" transform="translate(1.7881e-7,-4)">
			<path style="fill-opacity:.75294;fill:currentColor" d="m3 20c-1.662 0-3-1.338-3-3h3v3z"/>
			<path style="opacity:.16450;fill:#000000" d="m3 20c-1.662 0-3-1.338-3-3 0 1.108 1.338 2 3 2v1z"/>
		</g>
		<g id="normal-bottomright" style="opacity:.875" transform="translate(-34,-4)">
			<path style="fill-opacity:.75294;fill:currentColor" d="m47 20c1.662 0 3-1.338 3-3h-3v3z"/>
			<path style="opacity:.16450;fill:#000000" d="m47 20v-1c1.662 0 3-.892 3-2 0 1.662-1.338 3-3 3z"/>
		</g>
		<g id="normal-top" style="opacity:.875" transform="matrix(.22727 0 0 1 2.3182 0)">
			<rect style="fill-opacity:.87843;fill:currentColor" transform="rotate(90)" height="44" width="3" y="-47" x="0"/>
			<path style="opacity:.5;fill:currentColor" d="m3 0v1h44v-1h-44z"/>
		</g>
		<g id="normal-left" transform="matrix(1 0 0 .71429 1.7881e-7 .85714)">
			<rect style="opacity:.875;fill:url(#linearGradient3226)" height="14" width="3" y="3" x="-1.7881e-7"/>
		</g>
		<g id="normal-bottom" style="opacity:.875" transform="matrix(.22727 0 0 1 2.3182 -4)">
			<rect style="fill-opacity:.75294;fill:currentColor" transform="matrix(0,-1,-1,0,0,0)" height="44" width="3" y="-47" x="-20"/>
			<path style="opacity:0.165;fill:#000000" d="m3 20v-1h44v1h-44z"/>
		</g>
		<g id="normal-right" transform="matrix(1 0 0 .71429 -34 .85714)">
			<rect style="opacity:.875;fill:url(#linearGradient3224)" height="14" width="3" y="3" x="47"/>
		</g>
	</g>
	<g id="focus" class="ColorScheme-Highlight">
		<rect id="focus-hint-top-margin" style="fill:#4e9a06" height=".001" width="2" y="18.999" x="7"/>
		<rect id="focus-hint-bottom-margin" style="fill:#4e9a06" height=".001" width="2" y="36.999" x="7"/>
		<rect id="focus-hint-left-margin" style="fill:#4e9a06" height="2" width=".001" y="27" x="-1"/>
		<rect id="focus-hint-right-margin" style="fill:#4e9a06" height="2" width=".001" y="27" x="17"/>
		<path id="focus-topleft" style="opacity:.75;fill:currentColor" d="m3 20c-1.662 0-3 1.338-3 3h3v-3z"/>
		<rect id="focus-center" style="opacity:.75;fill:currentColor" height="10" width="10" y="23" x="3"/>
		<path id="focus-topright" style="opacity:.75;fill:currentColor" d="m13 20c1.662 0 3 1.338 3 3h-3v-3z"/>
		<path id="focus-bottomleft" style="opacity:.75;fill:currentColor" d="m3 36c-1.662 0-3-1.338-3-3h3v3z"/>
		<path id="focus-bottomright" style="opacity:.75;fill:currentColor" d="m13 36c1.662 0 3-1.338 3-3h-3v3z"/>
		<rect id="focus-top" style="opacity:.75;fill:currentColor" transform="rotate(90)" height="9.9999" width="3" y="-13" x="20"/>
		<rect id="focus-left" style="opacity:.75;fill:currentColor" height="10" width="3" y="23" x="0"/>
		<rect id="focus-bottom" style="opacity:.75;fill:currentColor" transform="matrix(0,-1,-1,0,0,0)" height="9.9999" width="3" y="-13" x="-36"/>
		<rect id="focus-right" style="opacity:.75;fill:currentColor" height="10" width="3" y="23" x="13"/>
	</g>
	<g id="hover" class="ColorScheme-Text">
		<rect id="hover-hint-top-margin" style="fill:#4e9a06" height=".001" width="2" y="18.999" x="27"/>
		<rect id="hover-hint-bottom-margin" style="fill:#4e9a06" height=".001" width="2" y="36.999" x="27"/>
		<rect id="hover-hint-left-margin" style="fill:#4e9a06" height="2" width=".001" y="27" x="19"/>
		<rect id="hover-hint-right-margin" style="fill:#4e9a06" height="2" width=".001" y="27" x="37"/>
		<path id="hover-topleft" style="opacity:.5;fill:currentColor" d="m23 20c-1.662 0-3 1.338-3 3h3v-3z"/>
		<rect id="hover-center" style="opacity:.5;fill:currentColor" height="10" width="10" y="23" x="23"/>
		<path id="hover-topright" style="opacity:.5;fill:currentColor" d="m33 20c1.662 0 3 1.338 3 3h-3v-3z"/>
		<path id="hover-bottomleft" style="opacity:.5;fill:currentColor" d="m23 36c-1.662 0-3-1.338-3-3h3v3z"/>
		<path id="hover-bottomright" style="opacity:.5;fill:currentColor" d="m33 36c1.662 0 3-1.338 3-3h-3v3z"/>
		<rect id="hover-top" style="opacity:.5;fill:currentColor" transform="rotate(90)" height="9.9999" width="3" y="-33" x="20"/>
		<rect id="hover-left" style="opacity:.5;fill:currentColor" height="10" width="3" y="23" x="20"/>
		<rect id="hover-bottom" style="opacity:.5;fill:currentColor" transform="matrix(0,-1,-1,0,0,0)" height="9.9999" width="3" y="-33" x="-36"/>
		<rect id="hover-right" style="opacity:.5;fill:currentColor" height="10" width="3" y="23" x="33"/>
	</g>
	<g id="pressed" class="ColorScheme-Text">
		<rect id="pressed-center" style="fill:url(#linearGradient4715)" transform="scale(1,-1)" height="10" width="10" y="-13" x="23"/>
		<g id="pressed-topleft" transform="translate(-16)">
			<path style="fill:currentColor;opacity:.21" d="m39 0c-1.662 0-3 1.338-3 3h3v-3z"/>
			<path style="color:#000000;opacity:.375;fill-opacity:.75294;fill:#000000" d="m39 0c-1.657 0-3 1.343-3 3 0-.552 1.343-1 3-1v-2z"/>
		</g>
		<g id="pressed-topright" transform="translate(-16)">
			<path style="fill:currentColor;opacity:.21" d="m49 0c1.662 0 3 1.338 3 3h-3v-3z"/>
			<path style="color:#000000;opacity:.375;fill-opacity:.75294;fill:#000000" d="m49 0v2c1.6569 0 3 .44772 3 1 0-1.6569-1.3431-3-3-3z"/>
		</g>
		<g id="pressed-bottomleft" transform="translate(-20)">
			<path style="opacity:.33;fill:currentColor" d="m43 16c-1.662 0-3-1.338-3-3h3v3z"/>
			<path id="path5083-7" d="m43 16c-1.662 0-3-1.338-3-3 0 1.108 1.338 2 3 2v1z" style="opacity:.1875;fill:currentColor"/>
		</g>
		<g id="pressed-bottomright" transform="translate(-20)">
			<path style="opacity:.33;fill:currentColor" d="m53 16c1.662 0 3-1.338 3-3h-3v3z"/>
			<path id="path5089-4" d="m53 16v-1c1.662 0 3-.892 3-2 0 1.662-1.338 3-3 3z" style="opacity:.1875;fill:currentColor"/>
		</g>
		<g id="pressed-top" transform="translate(-16)">
			<rect style="fill:currentColor;opacity:.21" transform="rotate(90)" height="9.9999" width="3" y="-49" x="0"/>
			<path style="opacity:.375;fill-opacity:.75294;fill:#000000" d="m39 0v2h9.9999v-2h-9.9999z"/>
		</g>
		<rect id="pressed-left" style="fill:url(#linearGradient4731)" transform="scale(1,-1)" height="10" width="3" y="-13" x="20"/>
		<g id="pressed-bottom" transform="translate(-20)">
			<rect style="opacity:.33;fill:currentColor" transform="matrix(0,-1,-1,0,0,0)" height="9.9999" width="3" y="-53" x="-16"/>
			<path id="path5095-2" d="m43 16v-1h9.9999v1h-9.9999z" style="opacity:.1875;fill:currentColor"/>
		</g>
		<rect id="pressed-right" style="fill:url(#linearGradient4723)" transform="scale(1,-1)" height="10" width="3" y="-13" x="33"/>
	</g>
</svg>
