<?xml version="1.0" encoding="UTF-8" standalone="no"?>
<svg id="svg2" xmlns:rdf="http://www.w3.org/1999/02/22-rdf-syntax-ns#" xmlns="http://www.w3.org/2000/svg" height="36" width="36" version="1.1" xmlns:cc="http://creativecommons.org/ns#" xmlns:xlink="http://www.w3.org/1999/xlink" xmlns:dc="http://purl.org/dc/elements/1.1/">
	<defs id="defs4">
		<style id="local" type="text/css">.focus { color:#ff2121; }</style>
		<linearGradient id="linearGradient4735">
			<stop id="stop4737" style="stop-color:#ffffff;stop-opacity:.87843" offset="0"/>
			<stop id="stop4739" style="stop-color:#ffffff;stop-opacity:.376" offset="1"/>
		</linearGradient>
		<linearGradient id="linearGradient4938">
			<stop id="stop4940" style="stop-color:#ffffff;stop-opacity:.75294" offset="0"/>
			<stop id="stop4942" style="stop-color:#ffffff;stop-opacity:.87843" offset="1"/>
		</linearGradient>
		<linearGradient id="linearGradient3218" y2="3" xlink:href="#linearGradient4938" gradientUnits="userSpaceOnUse" x2="25" gradientTransform="matrix(.068182 0 0 1 46.795 -44)" y1="17" x1="25"/>
		<linearGradient id="linearGradient3222" y2="3" xlink:href="#linearGradient4938" gradientUnits="userSpaceOnUse" x2="25" gradientTransform="matrix(.22727 0 0 .71429 22.318 -15.143)" y1="17" x1="25"/>
		<linearGradient id="linearGradient3224" y2="3" xlink:href="#linearGradient4938" gradientUnits="userSpaceOnUse" x2="25" gradientTransform="matrix(0.068182,0,0,1,46.795,-4.1507e-6)" y1="17" x1="25"/>
		<linearGradient id="linearGradient3226" y2="3" xlink:href="#linearGradient4938" gradientUnits="userSpaceOnUse" x2="25" gradientTransform="matrix(0.068182,0,0,1,-0.20455,-4.1507e-6)" y1="17" x1="25"/>
		<linearGradient id="linearGradient3228" y2="3" xlink:href="#linearGradient4938" gradientUnits="userSpaceOnUse" x2="25" gradientTransform="matrix(.22727 0 0 .71429 2.3182 .85714)" y1="17" x1="25"/>
		<linearGradient id="linearGradient3949" y2="3" xlink:href="#linearGradient4938" gradientUnits="userSpaceOnUse" x2="25" gradientTransform="matrix(.068182 0 0 1 -.20455 -44)" y1="17" x1="25"/>
		<linearGradient id="linearGradient4741" y2="-7" xlink:href="#linearGradient4735" gradientUnits="userSpaceOnUse" y1="-21" gradientTransform="matrix(1 0 0 .71429 -14 38)" x2="48.5" x1="48.5"/>
		<linearGradient id="linearGradient4743" y2="-7" xlink:href="#linearGradient4735" gradientUnits="userSpaceOnUse" y1="-21" gradientTransform="matrix(.22727 0 0 .71429 22.318 38)" x2="25" x1="25"/>
		<linearGradient id="linearGradient4745" y2="-7" xlink:href="#linearGradient4735" gradientUnits="userSpaceOnUse" y1="-21" gradientTransform="matrix(1 0 0 .71429 20 38)" x2="1.5" x1="1.5"/>
	</defs>
	<metadata id="metadata7">
		<rdf:RDF>
			<cc:Work rdf:about="">
				<dc:format>image/svg+xml</dc:format>
				<dc:type rdf:resource="http://purl.org/dc/dcmitype/StillImage"/>
				<dc:title/>
				<dc:creator>
					<cc:Agent>
						<dc:title>obnosim</dc:title>
					</cc:Agent>
				</dc:creator>
				<cc:license rdf:resource="http://creativecommons.org/licenses/by-nc-sa/3.0/"/>
			</cc:Work>
			<cc:License rdf:about="http://creativecommons.org/licenses/by-nc-sa/3.0/">
				<cc:permits rdf:resource="http://creativecommons.org/ns#Reproduction"/>
				<cc:permits rdf:resource="http://creativecommons.org/ns#Distribution"/>
				<cc:requires rdf:resource="http://creativecommons.org/ns#Notice"/>
				<cc:requires rdf:resource="http://creativecommons.org/ns#Attribution"/>
				<cc:prohibits rdf:resource="http://creativecommons.org/ns#CommercialUse"/>
				<cc:permits rdf:resource="http://creativecommons.org/ns#DerivativeWorks"/>
				<cc:requires rdf:resource="http://creativecommons.org/ns#ShareAlike"/>
			</cc:License>
		</rdf:RDF>
	</metadata>
	<rect id="hint-stretch-borders" style="fill:#008000" ry="0" height="5" width="5" y="-13" x="-16"/>
	<rect id="pressed-center" style="opacity:.375;fill:url(#linearGradient3222)" transform="scale(1,-1)" height="10" width="10" y="-13" x="23"/>
	<g id="normal-topleft" style="opacity:.875">
		<path id="path4948" style="fill:#ffffff;fill-opacity:.87843" d="m3 0c-1.662 0-3 1.338-3 3h3v-3z"/>
		<path id="path4960" style="opacity:.5;fill:#ffffff" d="m3 0c-1.662 0-3 1.338-3 3 0-1.108 1.338-2 3-2v-1z"/>
	</g>
	<rect id="normal-center" style="opacity:.875;fill:url(#linearGradient3228)" height="10" width="10" y="3" x="3"/>
	<g id="normal-topright" style="opacity:.875" transform="translate(-34)">
		<path id="path4950" style="fill:#ffffff;fill-opacity:.87843" d="m47 0c1.662 0 3 1.338 3 3h-3v-3z"/>
		<path id="path4962" style="opacity:.5;fill:#ffffff" d="m47 0v1c1.662 0 3 .892 3 2 0-1.662-1.338-3-3-3z"/>
	</g>
	<g id="normal-bottomleft" style="opacity:.875" transform="translate(1.7881e-7,-4)">
		<path id="path4954" style="fill:#ffffff;fill-opacity:.75294" d="m3 20c-1.662 0-3-1.338-3-3h3v3z"/>
		<path id="path4983" style="opacity:.1645;fill:#000000" d="m3 20c-1.662 0-3-1.338-3-3 0 1.108 1.338 2 3 2v1z"/>
	</g>
	<g id="normal-bottomright" style="opacity:.875" transform="translate(-34,-4)">
		<path id="path4956" style="fill:#ffffff;fill-opacity:.75294" d="m47 20c1.662 0 3-1.338 3-3h-3v3z"/>
		<path id="path4985" style="opacity:.1645;fill:#000000" d="m47 20v-1c1.662 0 3-.892 3-2 0 1.662-1.338 3-3 3z"/>
	</g>
	<g id="normal-top" style="opacity:.875" transform="matrix(.22727 0 0 1 2.3182 0)">
		<rect id="rect4952" style="fill:#ffffff;fill-opacity:.87843" transform="rotate(90)" height="44" width="3" y="-47" x="0"/>
		<path id="rect4964" style="opacity:.5;fill:#ffffff" d="m3 0v1h44v-1h-44z"/>
	</g>
	<g id="normal-left" transform="matrix(1 0 0 .71429 1.7881e-7 .85714)">
		<rect id="rect3862" style="opacity:.875;fill:url(#linearGradient3226)" height="14" width="3" y="3" x="-1.7881e-7"/>
	</g>
	<g id="normal-bottom" style="opacity:.875" transform="matrix(.22727 0 0 1 2.3182 -4)">
		<rect id="rect4958" style="fill:#ffffff;fill-opacity:.75294" transform="matrix(0,-1,-1,0,0,0)" height="44" width="3" y="-47" x="-20"/>
		<path id="path4987" style="opacity:.165;fill:#000000" d="m3 20v-1h44v1h-44z"/>
	</g>
	<g id="normal-right" transform="matrix(1 0 0 .71429 -34 .85714)">
		<rect id="rect3892" style="opacity:.875;fill:url(#linearGradient3224)" height="14" width="3" y="3" x="47"/>
	</g>
	<g id="pressed-topleft" transform="translate(20,-24)">
		<path id="path5099" style="opacity:.375;fill:#c0c0c0" d="m3 24c-1.662 0-3 1.338-3 3h3v-3z"/>
		<path id="path3898" d="m5 23c-1.6569 0-3 1.343-3 3 0-.552 1.3431-1 3-1v-2z" style="color:#000000;opacity:.188;fill:#000000;fill-opacity:.75294" transform="translate(-2,1)"/>
	</g>
	<g id="pressed-topright" transform="translate(-14,-24)">
		<path id="path5105" style="opacity:.375;fill:#c0c0c0" d="m47 24c1.662 0 3 1.338 3 3h-3v-3z"/>
		<path id="path3911" d="m49 23v2c1.6569 0 3 .44772 3 1 0-1.6569-1.3431-3-3-3z" style="color:#000000;opacity:.188;fill:#000000;fill-opacity:.75294" transform="translate(-2,1)"/>
	</g>
	<g id="pressed-bottomleft" style="opacity:.375" transform="matrix(1,0,0,-1,20,16)">
		<path id="path5081" style="fill:#e0e0e0" d="m3 0c-1.662 0-3 1.338-3 3h3v-3z"/>
		<path id="path5083" style="opacity:.5;fill:#ffffff" d="m3 0c-1.662 0-3 1.338-3 3 0-1.108 1.338-2 3-2v-1z"/>
	</g>
	<g id="pressed-bottomright" style="opacity:.375" transform="matrix(1,0,0,-1,-14,16)">
		<path id="path5087" style="fill:#e0e0e0" d="m47 0c1.662 0 3 1.338 3 3h-3v-3z"/>
		<path id="path5089" style="opacity:.5;fill:#ffffff" d="m47 0v1c1.662 0 3 .892 3 2 0-1.662-1.338-3-3-3z"/>
	</g>
	<g id="pressed-top" transform="matrix(.22727 0 0 1 22.318 -24)">
		<rect id="rect5111" style="opacity:.375;fill:#c0c0c0" transform="rotate(90)" height="44" width="3" y="-47" x="24"/>
		<path id="rect5129" style="opacity:.188;fill:#000000;fill-opacity:.75294" d="m3 24v2h44v-2h-44z"/>
	</g>
	<g id="pressed-left" transform="matrix(1 0 0 .71429 20 -16.286)">
		<rect id="rect3963" style="opacity:.375;fill:url(#linearGradient3949)" transform="scale(1,-1)" height="14" width="3" y="-41" x="-1.7881e-7"/>
	</g>
	<g id="pressed-bottom" style="opacity:.375" transform="matrix(.22727 0 0 -1 22.318 16)">
		<rect id="rect5093" style="fill:#e0e0e0" transform="rotate(90)" height="44" width="3" y="-47" x="0"/>
		<path id="path5095" style="opacity:.5;fill:#ffffff" d="m3 0v1h44v-1h-44z"/>
	</g>
	<g id="pressed-right" transform="matrix(1 0 0 .71429 -14 -16.286)">
		<rect id="rect3971" style="opacity:.375;fill:url(#linearGradient3218)" transform="scale(1,-1)" height="14" width="3" y="-41" x="47"/>
	</g>
	<path id="hover-topleft" style="opacity:.875;fill:#ffffff" d="m23 20c-1.662 0-3 1.338-3 3h3v-3z"/>
	<rect id="hover-center" style="fill:url(#linearGradient4743)" height="10" width="10" y="23" x="23"/>
	<path id="hover-topright" style="opacity:.875;fill:#ffffff" d="m33 20c1.662 0 3 1.338 3 3h-3v-3z"/>
	<path id="hover-bottomleft" style="opacity:.375;fill:#ffffff" d="m23 36c-1.662 0-3-1.338-3-3h3v3z"/>
	<path id="hover-bottomright" style="opacity:.375;fill:#ffffff" d="m33 36c1.662 0 3-1.338 3-3h-3v3z"/>
	<rect id="hover-top" style="opacity:.875;fill:#ffffff" transform="rotate(90)" height="10" width="3" y="-33" x="20"/>
	<rect id="hover-left" style="fill:url(#linearGradient4745)" height="10" width="3" y="23" x="20"/>
	<rect id="hover-bottom" style="opacity:.375;fill:#ffffff" transform="matrix(0,-1,-1,0,0,0)" height="10" width="3" y="-33" x="-36"/>
	<rect id="hover-right" style="fill:url(#linearGradient4741)" height="10" width="3" y="23" x="33"/>
	<path id="focus-topright" class="focus" style="opacity:.875;fill:currentColor" d="m13 20c1.662 0 3 1.338 3 3h-3v-3z"/>
	<rect id="focus-top" style="opacity:.875;fill:currentColor" class="focus" transform="rotate(90)" height="10" width="3" y="-13" x="20"/>
	<path id="focus-topleft" class="focus" style="opacity:.875;fill:currentColor" d="m3 20c-1.662 0-3 1.338-3 3h3v-3z"/>
	<rect id="focus-right" style="opacity:.875;fill:currentColor" class="focus" height="10" width="3" y="23" x="13"/>
	<rect id="focus-center" style="opacity:.875;fill:currentColor" class="focus" height="10" width="10" y="23" x="3"/>
	<rect id="focus-left" style="opacity:.875;fill:currentColor" class="focus" height="10" width="3" y="23" x="1.7881e-7"/>
	<path id="focus-bottomright" class="focus" style="opacity:.875;fill:currentColor" d="m13 36c1.662 0 3-1.338 3-3h-3v3z"/>
	<rect id="focus-bottom" style="opacity:.875;fill:currentColor" class="focus" transform="matrix(0,-1,-1,0,0,0)" height="10" width="3" y="-13" x="-36"/>
	<path id="focus-bottomleft" d="m3 36c-1.662 0-3-1.338-3-3h3v3z" style="opacity:.875;fill:currentColor" class="focus"/>
	<rect id="focus-hint-top-margin" style="fill:#4e9a06" height=".001" width="2" y="39.624" x="-130.35"/>
	<rect id="focus-hint-bottom-margin" style="fill:#4e9a06" height=".001" width="2" y="64.624" x="-130.35"/>
	<rect id="focus-hint-left-margin" style="fill:#4e9a06" height="2" width=".001" y="50.625" x="-142.35"/>
	<rect id="focus-hint-right-margin" style="fill:#4e9a06" height="2" width=".001" y="49.625" x="-117.35"/>
	<rect id="rect3166" style="fill:#4e9a06" height="0.01" width="2" y="-11.375" x="-130.35"/>
	<rect id="rect3164" style="fill:#4e9a06" height="0.01" width="2" y="14.615" x="-130.35"/>
	<rect id="rect3170" style="fill:#4e9a06" height="2" width="0.01" y=".62508" x="-142.35"/>
	<rect id="rect3168" style="fill:#4e9a06" height="2" width="0.01" y=".62508" x="-116.36"/>
	<rect id="hover-hint-top-margin" style="fill:#4e9a06" height=".001" width="2" y="-9.3759" x="-123.35"/>
	<rect id="hover-hint-bottom-margin" style="fill:#4e9a06" height=".001" width="2" y="15.624" x="-123.35"/>
	<rect id="hover-hint-left-margin" style="fill:#4e9a06" height="2" width=".001" y="1.625" x="-135.35"/>
	<rect id="hover-hint-right-margin" style="fill:#4e9a06" height="2" width=".001" y=".62507" x="-110.35"/>
	<path id="path5054" style="fill:currentColor" d="m79.531-36.557a1 1 0 0 1 -1 1v-1z" transform="scale(-1,1)" class="ColorScheme-ButtonBackground"/>
</svg>
