<?xml version="1.0" encoding="UTF-8" standalone="no"?>
<!-- Created with Inkscape (http://www.inkscape.org/) -->

<svg
   xmlns:dc="http://purl.org/dc/elements/1.1/"
   xmlns:cc="http://creativecommons.org/ns#"
   xmlns:rdf="http://www.w3.org/1999/02/22-rdf-syntax-ns#"
   xmlns:svg="http://www.w3.org/2000/svg"
   xmlns="http://www.w3.org/2000/svg"
   xmlns:sodipodi="http://sodipodi.sourceforge.net/DTD/sodipodi-0.dtd"
   xmlns:inkscape="http://www.inkscape.org/namespaces/inkscape"
   width="36"
   height="16"
   id="svg2"
   sodipodi:version="0.32"
   inkscape:version="0.91 r13725"
   sodipodi:docname="checkmarks.svgz"
   inkscape:output_extension="org.inkscape.output.svgz.inkscape"
   version="1.0">
  <defs
     id="defs4" />
  <sodipodi:namedview
     id="base"
     pagecolor="#323232"
     bordercolor="#d5d5d5"
     borderopacity="1"
     gridtolerance="10000"
     guidetolerance="10"
     objecttolerance="10"
     inkscape:pageopacity="1"
     inkscape:pageshadow="2"
     inkscape:zoom="22.627416"
     inkscape:cx="29.303323"
     inkscape:cy="-0.79281437"
     inkscape:document-units="px"
     inkscape:current-layer="svg2"
     showgrid="true"
     inkscape:window-width="1680"
     inkscape:window-height="999"
     inkscape:window-x="-4"
     inkscape:window-y="-3"
     inkscape:window-maximized="1"
     inkscape:showpageshadow="false"
     showborder="false"
     fit-margin-top="0"
     fit-margin-left="0"
     fit-margin-right="0"
     fit-margin-bottom="0">
    <inkscape:grid
       type="xygrid"
       id="grid3774"
       empspacing="4"
       visible="true"
       enabled="true"
       snapvisiblegridlinesonly="true"
       originx="4px"
       originy="-28px" />
  </sodipodi:namedview>
  <metadata
     id="metadata7">
    <rdf:RDF>
      <cc:Work
         rdf:about="">
        <dc:format>image/svg+xml</dc:format>
        <dc:type
           rdf:resource="http://purl.org/dc/dcmitype/StillImage" />
      </cc:Work>
    </rdf:RDF>
  </metadata>
  <g
     id="checkbox"
     transform="translate(4,-36)">
    <rect
       style="fill:none;stroke:none"
       id="rect3769"
       width="16"
       height="16"
       x="16"
       y="36" />
    <path
       style="font-size:medium;font-style:normal;font-variant:normal;font-weight:normal;font-stretch:normal;text-indent:0;text-align:start;text-decoration:none;line-height:normal;letter-spacing:normal;word-spacing:normal;text-transform:none;direction:ltr;block-progression:tb;writing-mode:lr-tb;text-anchor:start;baseline-shift:baseline;opacity:0.375;color:#000000;fill:#ffffff;fill-opacity:1;stroke:none;stroke-width:2;marker:none;visibility:visible;display:inline;overflow:visible;enable-background:accumulate;font-family:Sans;-inkscape-font-specification:Sans"
       d="m 29,41.3125 a 1.0001,1.0001 0 0 1 -0.28125,0.40625 l -6,6 -0.71875,0.6875 -0.71875,-0.6875 -3,-3 A 1.016466,1.016466 0 0 1 18,44.25 l 0,0.59375 c -0.0014,0.03123 -0.0014,0.06252 0,0.09375 L 18,45 c -0.0043,0.263857 0.09899,0.527911 0.28125,0.71875 l 3,3 0.71875,0.6875 0.71875,-0.6875 6,-6 C 28.985019,42.470425 29,42 29,41.71875 l 0,-0.40625 z"
       id="path3773"
       inkscape:connector-curvature="0" />
    <path
       style="opacity:0.875;fill:none;stroke:#000000;stroke-width:2;stroke-linecap:round;stroke-miterlimit:4;stroke-opacity:1;stroke-dasharray:none"
       d="m 19,44 3,3 6,-6"
       id="path2999"
       inkscape:connector-curvature="0"
       sodipodi:nodetypes="ccc" />
  </g>
  <g
     transform="translate(-16,-36)"
     id="radiobutton">
    <rect
       y="36"
       x="16"
       height="16"
       width="16"
       id="rect3875"
       style="fill:none;stroke:none" />
    <path
       transform="translate(20,64)"
       d="m 7,-20 c 0,1.656854 -1.3431458,3 -3,3 -1.6568542,0 -3,-1.343146 -3,-3 0,-1.656854 1.3431458,-3 3,-3 1.6568542,0 3,1.343146 3,3 z"
       sodipodi:ry="3"
       sodipodi:rx="3"
       sodipodi:cy="-20"
       sodipodi:cx="4"
       id="path3881"
       style="opacity:0.875;fill:#000000;fill-opacity:1;stroke:none"
       sodipodi:type="arc" />
    <path
       inkscape:connector-curvature="0"
       id="path3883"
       transform="translate(20,64)"
       d="m 1,-20 0,1 c 0,1.656854 1.3431458,3 3,3 1.6568542,0 3,-1.343146 3,-3 l 0,-1 c 0,1.656854 -1.3431458,3 -3,3 -1.6568542,0 -3,-1.343146 -3,-3 z"
       style="opacity:0.375;fill:#ffffff;fill-opacity:1;stroke:none" />
  </g>
</svg>
