<?xml version="1.0" encoding="UTF-8" standalone="no"?>
<svg id="svg2" xmlns:rdf="http://www.w3.org/1999/02/22-rdf-syntax-ns#" xmlns="http://www.w3.org/2000/svg" height="16" width="36" version="1.0" xmlns:cc="http://creativecommons.org/ns#" xmlns:dc="http://purl.org/dc/elements/1.1/">
	<metadata id="metadata7">
		<rdf:RDF>
			<cc:Work rdf:about="">
				<dc:format>image/svg+xml</dc:format>
				<dc:type rdf:resource="http://purl.org/dc/dcmitype/StillImage"/>
				<dc:title/>
			</cc:Work>
		</rdf:RDF>
	</metadata>
	<g id="checkbox" transform="translate(4,-36)">
		<rect id="rect3769" style="fill:none" height="16" width="16" y="36" x="16"/>
		<path id="path3773" style="opacity:.375;block-progression:tb;text-indent:0;color:#000000;text-transform:none;fill:#ffffff" d="m29 41.312a1.0001 1.0001 0 0 1 -.28125 .40625l-6 6-.71875.6875-.71875-.6875-3-3a1.0165 1.0165 0 0 1 -.281 -.468v.59375c-.0014.03123-.0014.06252 0 .09375v.062c-.0043.26386.09899.52791.28125.71875l3 3 .71875.6875.71875-.6875 6-6c.266-.249.281-.719.281-1v-.40625z"/>
		<path id="path2999" style="opacity:.875;stroke:#000000;stroke-linecap:round;stroke-width:2;fill:none" d="m19 44 3 3 6-6"/>
	</g>
	<g id="radiobutton" transform="translate(-16,-36)">
		<rect id="rect3875" style="fill:none" height="16" width="16" y="36" x="16"/>
		<path id="path3881" style="opacity:.875;fill:#000000" d="m7-20a3 3 0 0 1 -3 3 3 3 0 0 1 -3 -3 3 3 0 0 1 3 -3 3 3 0 0 1 3 3z" transform="translate(20,64)"/>
		<path id="path3883" d="m1-20v1c0 1.6569 1.3431 3 3 3s3-1.3431 3-3v-1c0 1.6569-1.3431 3-3 3s-3-1.3431-3-3z" style="opacity:.375;fill:#ffffff" transform="translate(20,64)"/>
	</g>
</svg>
