<?xml version="1.0" encoding="UTF-8" standalone="no"?>
<!-- Created with Inkscape (http://www.inkscape.org/) -->

<svg
   xmlns:dc="http://purl.org/dc/elements/1.1/"
   xmlns:cc="http://creativecommons.org/ns#"
   xmlns:rdf="http://www.w3.org/1999/02/22-rdf-syntax-ns#"
   xmlns:svg="http://www.w3.org/2000/svg"
   xmlns="http://www.w3.org/2000/svg"
   xmlns:xlink="http://www.w3.org/1999/xlink"
   xmlns:sodipodi="http://sodipodi.sourceforge.net/DTD/sodipodi-0.dtd"
   xmlns:inkscape="http://www.inkscape.org/namespaces/inkscape"
   version="1.0"
   width="206"
   height="206"
   id="svg2"
   inkscape:version="0.91 r13725"
   sodipodi:docname="clock.svgz">
  <sodipodi:namedview
     pagecolor="#323232"
     bordercolor="#808080"
     borderopacity="1"
     objecttolerance="10"
     gridtolerance="10"
     guidetolerance="10"
     inkscape:pageopacity="1"
     inkscape:pageshadow="2"
     inkscape:window-width="1441"
     inkscape:window-height="1049"
     id="namedview135"
     showgrid="false"
     fit-margin-top="0"
     fit-margin-left="0"
     fit-margin-right="0"
     fit-margin-bottom="0"
     inkscape:zoom="1"
     inkscape:cx="186.10002"
     inkscape:cy="116.01829"
     inkscape:window-x="0"
     inkscape:window-y="0"
     inkscape:window-maximized="0"
     inkscape:current-layer="ClockFace"
     showguides="false"
     showborder="false"
     inkscape:guide-bbox="true">
    <inkscape:grid
       type="xygrid"
       id="grid3720"
       empspacing="5"
       visible="true"
       enabled="true"
       snapvisiblegridlinesonly="true"
       originx="3px"
       originy="4px" />
    <sodipodi:guide
       orientation="1,0"
       position="103,224"
       id="guide3909" />
    <sodipodi:guide
       orientation="0,1"
       position="-87,104"
       id="guide3913" />
  </sodipodi:namedview>
  <metadata
     id="metadata7">
    <rdf:RDF>
      <cc:Work
         rdf:about="">
        <dc:format>image/svg+xml</dc:format>
        <dc:type
           rdf:resource="http://purl.org/dc/dcmitype/StillImage" />
        <dc:title />
        <dc:creator>
          <cc:Agent>
            <dc:title>obnosim</dc:title>
          </cc:Agent>
        </dc:creator>
        <dc:description>Based on Anton Petersson original design.</dc:description>
        <cc:license
           rdf:resource="http://creativecommons.org/licenses/by-nc-sa/3.0/" />
      </cc:Work>
      <cc:License
         rdf:about="http://creativecommons.org/licenses/by-nc-sa/3.0/">
        <cc:permits
           rdf:resource="http://creativecommons.org/ns#Reproduction" />
        <cc:permits
           rdf:resource="http://creativecommons.org/ns#Distribution" />
        <cc:requires
           rdf:resource="http://creativecommons.org/ns#Notice" />
        <cc:requires
           rdf:resource="http://creativecommons.org/ns#Attribution" />
        <cc:prohibits
           rdf:resource="http://creativecommons.org/ns#CommercialUse" />
        <cc:permits
           rdf:resource="http://creativecommons.org/ns#DerivativeWorks" />
        <cc:requires
           rdf:resource="http://creativecommons.org/ns#ShareAlike" />
      </cc:License>
    </rdf:RDF>
  </metadata>
  <defs
     id="defs5">
    <linearGradient
       id="linearGradient4589">
      <stop
         id="stop4591"
         style="stop-color:#000000;stop-opacity:0"
         offset="0" />
      <stop
         id="stop4593"
         style="stop-color:#000000;stop-opacity:1"
         offset="1" />
    </linearGradient>
    <linearGradient
       id="linearGradient3779">
      <stop
         style="stop-color:#000000;stop-opacity:1;"
         offset="0"
         id="stop3781" />
      <stop
         id="stop3799"
         offset="0.55555558"
         style="stop-color:#000000;stop-opacity:1;" />
      <stop
         style="stop-color:#000000;stop-opacity:0;"
         offset="1"
         id="stop3783" />
    </linearGradient>
    <linearGradient
       id="linearGradient3801">
      <stop
         id="stop3803"
         offset="0"
         style="stop-color:#000000;stop-opacity:1;" />
      <stop
         style="stop-color:#000000;stop-opacity:1;"
         offset="0.71428573"
         id="stop3805" />
      <stop
         id="stop3807"
         offset="1"
         style="stop-color:#000000;stop-opacity:0;" />
    </linearGradient>
    <radialGradient
       inkscape:collect="always"
       xlink:href="#linearGradient3801"
       id="radialGradient4092"
       gradientUnits="userSpaceOnUse"
       gradientTransform="matrix(0,-1.75,2,0,4,-76.25)"
       cx="5"
       cy="0.5"
       fx="5"
       fy="2"
       r="4" />
    <linearGradient
       inkscape:collect="always"
       xlink:href="#linearGradient4589"
       id="linearGradient4094"
       gradientUnits="userSpaceOnUse"
       gradientTransform="matrix(1,0,0,6.3333413,3.00002,-1795.002)"
       x1="0"
       y1="150"
       x2="-3"
       y2="150" />
    <linearGradient
       inkscape:collect="always"
       xlink:href="#linearGradient4589"
       id="linearGradient4096"
       gradientUnits="userSpaceOnUse"
       gradientTransform="matrix(6.3333333,0,0,1,-26.66654,-418.99998)"
       x1="25"
       y1="305"
       x2="25"
       y2="309" />
    <linearGradient
       inkscape:collect="always"
       xlink:href="#linearGradient4589"
       id="linearGradient4098"
       gradientUnits="userSpaceOnUse"
       gradientTransform="matrix(6.3333333,0,0,1,-26.66654,96.99999)"
       x1="10"
       y1="-5"
       x2="10"
       y2="-7" />
    <radialGradient
       inkscape:collect="always"
       xlink:href="#linearGradient3779"
       id="radialGradient4100"
       gradientUnits="userSpaceOnUse"
       gradientTransform="matrix(-2,0,0,-2.25,15,781.12499)"
       cx="5"
       cy="300.5"
       fx="5.5"
       fy="300.5"
       r="4" />
    <radialGradient
       inkscape:collect="always"
       xlink:href="#linearGradient3801"
       id="radialGradient4102"
       gradientUnits="userSpaceOnUse"
       gradientTransform="matrix(0,-1.75,-2,0,196,-76.25)"
       cx="5"
       cy="0.5"
       fx="5"
       fy="2"
       r="4" />
    <linearGradient
       inkscape:collect="always"
       xlink:href="#linearGradient4589"
       id="linearGradient4104"
       gradientUnits="userSpaceOnUse"
       gradientTransform="matrix(1,0,0,6.3333414,202.99998,-1795.002)"
       x1="0"
       y1="150"
       x2="-3"
       y2="150" />
    <radialGradient
       inkscape:collect="always"
       xlink:href="#linearGradient3779"
       id="radialGradient4106"
       gradientUnits="userSpaceOnUse"
       gradientTransform="matrix(2,0,0,-2.25,185,781.12499)"
       cx="5"
       cy="300.5"
       fx="5.5"
       fy="300.5"
       r="4" />
  </defs>
  <g
     id="ClockFace"
     transform="translate(3,92)">
    <rect
       ry="5"
       y="-90"
       x="0"
       height="200"
       width="200"
       id="rect3722"
       style="opacity:0.875;fill:#000000;fill-opacity:1;fill-rule:evenodd;stroke:none" />
    <path
       inkscape:connector-curvature="0"
       id="rect4524"
       d="m 5,-90 c -2.77,0 -5,2.23 -5,5 l 0,190 c 0,2.77 2.23,5 5,5 l 190,0 c 2.77,0 5,-2.23 5,-5 l 0,-190 c 0,-2.77 -2.23,-5 -5,-5 L 5,-90 z m -0.25586,2 190.51172,0 c 1.51989,0 2.74414,1.22425 2.74414,2.74414 l 0,190.51172 C 198,106.77575 196.77575,108 195.25586,108 L 4.74414,108 C 3.22425,108 2,106.77575 2,105.25586 L 2,-85.25586 C 2,-86.77575 3.22425,-88 4.74414,-88 z"
       style="opacity:0.875;fill:#000000;fill-opacity:1;fill-rule:evenodd;stroke:none" />
    <path
       inkscape:connector-curvature="0"
       style="opacity:0.375;color:#000000;fill:url(#radialGradient4092);fill-opacity:1;fill-rule:nonzero;stroke:none;stroke-width:1px;marker:none;visibility:visible;display:inline;overflow:visible;enable-background:accumulate"
       d="m 5,-92 c -4.41828,0 -8,3.13401 -8,7 l 3,0 c 0,-2.76999 2.23,-4.99999 5,-4.99999 L 5,-92 z"
       id="shadow-topleft" />
    <rect
       transform="scale(-1,1)"
       style="opacity:0.375;fill:url(#linearGradient4094);fill-opacity:1;fill-rule:evenodd;stroke:none"
       id="shadow-left"
       width="2.9999995"
       height="190"
       x="0"
       y="-85" />
    <rect
       transform="scale(1,-1)"
       style="opacity:0.375;fill:url(#linearGradient4096);fill-opacity:1;fill-rule:evenodd;stroke:none"
       id="shadow-bottom"
       width="190"
       height="4"
       x="5"
       y="-114" />
    <rect
       transform="scale(1,-1)"
       style="opacity:0.375;fill:url(#linearGradient4098);fill-opacity:1;fill-rule:evenodd;stroke:none"
       id="shadow-top"
       width="190"
       height="2.0000005"
       x="5"
       y="90" />
    <path
       inkscape:connector-curvature="0"
       style="opacity:0.375;color:#000000;fill:url(#radialGradient4100);fill-opacity:1;fill-rule:nonzero;stroke:none;stroke-width:1px;marker:none;visibility:visible;display:inline;overflow:visible;enable-background:accumulate"
       d="m -3,105 c 0,4.97056 3.58172,9 8,9 l 0,-4 c -2.77,0 -5,-2.23 -5,-5 l -3,0 z"
       id="shadow-bottomleft" />
    <path
       id="shadow-topright"
       d="m 195,-92 c 4.41828,0 8,3.13401 8,7 l -3,0 c 0,-2.76999 -2.23,-4.99999 -5,-4.99999 L 195,-92 z"
       style="opacity:0.375;color:#000000;fill:url(#radialGradient4102);fill-opacity:1;fill-rule:nonzero;stroke:none;stroke-width:1px;marker:none;visibility:visible;display:inline;overflow:visible;enable-background:accumulate"
       inkscape:connector-curvature="0"
       inkscape:transform-center-x="-19"
       inkscape:transform-center-y="-18.5" />
    <rect
       y="-85"
       x="200"
       height="190"
       width="2.9999995"
       id="shadow-right"
       style="opacity:0.375;fill:url(#linearGradient4104);fill-opacity:1;fill-rule:evenodd;stroke:none"
       inkscape:transform-center-x="21.5"
       inkscape:transform-center-y="-0.00012842829" />
    <path
       id="shadow-bottomright"
       d="m 203,105 c 0,4.97056 -3.58172,9 -8,9 l 0,-4 c 2.77,0 5,-2.23 5,-5 l 3,0 z"
       style="opacity:0.375;color:#000000;fill:url(#radialGradient4106);fill-opacity:1;fill-rule:nonzero;stroke:none;stroke-width:1px;marker:none;visibility:visible;display:inline;overflow:visible;enable-background:accumulate"
       inkscape:connector-curvature="0"
       inkscape:transform-center-x="-19"
       inkscape:transform-center-y="19.5" />
    <path
       id="path3913"
       style="opacity:0.25000000000000000;fill:none;stroke:#ffffff;stroke-width:4;stroke-linecap:round;stroke-linejoin:miter;stroke-miterlimit:4;stroke-opacity:1;stroke-dasharray:none"
       d="m 56.999999,-64.478188 1,1.732051 M 25.521819,-33 27.25387,-32 M 14,9.999998 l 2,0 m 9.521818,42.999996 1.73205,-1 M 57,84.478183 58,82.746132 m 42,13.253861 0,-2 m 43,-9.521811 -1,-1.732051 m 32.47818,-29.746134 -1.73205,-1 M 186,9.999998 l -2,0 M 174.47818,-33 l -1.73205,1 M 143,-64.478185 l -1,1.732051 M 100,-76 l 0,2"
       inkscape:connector-curvature="0" />
  </g>
  <path
     sodipodi:type="arc"
     style="color:#000000;fill:#e0e0e0;fill-opacity:1;fill-rule:nonzero;stroke:none;stroke-width:1px;marker:none;visibility:visible;display:inline;overflow:visible;enable-background:accumulate"
     id="HandCenterScrew"
     sodipodi:cx="100"
     sodipodi:cy="10"
     sodipodi:rx="2"
     sodipodi:ry="2"
     d="m 102,10 a 2,2 0 1 1 -4,0 2,2 0 1 1 4,0 z"
     transform="translate(3,92)" />
  <g
     id="MinuteHand"
     transform="translate(-6,0)">
    <path
       id="rect3079"
       d="M 102,105.84375 102,172 c 0,0.554 0.446,1 1,1 0.554,0 1,-0.446 1,-1 l 0,-66.15625 c -0.32016,0.0826 -0.65405,0.15625 -1,0.15625 -0.34595,0 -0.67984,-0.0737 -1,-0.15625 z"
       style="fill:#e0e0e0;fill-opacity:1;stroke:none"
       inkscape:connector-curvature="0" />
  </g>
  <g
     id="HourHand"
     transform="translate(6,0)">
    <path
       inkscape:connector-curvature="0"
       style="fill:#e0e0e0;fill-opacity:1;stroke:none"
       d="M 102,105.84375 102,137 c 0,0.554 0.446,1 1,1 0.554,0 1,-0.446 1,-1 l 0,-31.15625 c -0.32016,0.0826 -0.65405,0.15625 -1,0.15625 -0.34595,0 -0.67984,-0.0737 -1,-0.15625 z"
       id="path3864"
       sodipodi:nodetypes="cssscsc" />
  </g>
  <g
     id="SecondHand"
     style="fill:#ff1901;fill-opacity:1">
    <path
       inkscape:connector-curvature="0"
       style="fill:#ff1901;fill-opacity:1;stroke:none"
       d="M 102,105.84375 102,155 c 0,0.554 0.446,1 1,1 0.554,0 1,-0.446 1,-1 l 0,-49.15625 c -0.32016,0.0826 -0.65405,0.15625 -1,0.15625 -0.34595,0 -0.67984,-0.0737 -1,-0.15625 z"
       id="path3872"
       sodipodi:nodetypes="cssscsc" />
  </g>
</svg>
