<?xml version="1.0" encoding="UTF-8" standalone="no"?>
<svg id="svg2" xmlns:rdf="http://www.w3.org/1999/02/22-rdf-syntax-ns#" xmlns="http://www.w3.org/2000/svg" height="206" width="206" version="1.0" xmlns:cc="http://creativecommons.org/ns#" xmlns:xlink="http://www.w3.org/1999/xlink" xmlns:dc="http://purl.org/dc/elements/1.1/">
	<metadata id="metadata7">
		<rdf:RDF>
			<cc:Work rdf:about="">
				<dc:format>image/svg+xml</dc:format>
				<dc:type rdf:resource="http://purl.org/dc/dcmitype/StillImage"/>
				<dc:title/>
				<dc:creator>
					<cc:Agent>
						<dc:title>obnosim</dc:title>
					</cc:Agent>
				</dc:creator>
				<dc:description>Based on Anton Petersson original design.</dc:description>
				<cc:license rdf:resource="http://creativecommons.org/licenses/by-nc-sa/3.0/"/>
			</cc:Work>
			<cc:License rdf:about="http://creativecommons.org/licenses/by-nc-sa/3.0/">
				<cc:permits rdf:resource="http://creativecommons.org/ns#Reproduction"/>
				<cc:permits rdf:resource="http://creativecommons.org/ns#Distribution"/>
				<cc:requires rdf:resource="http://creativecommons.org/ns#Notice"/>
				<cc:requires rdf:resource="http://creativecommons.org/ns#Attribution"/>
				<cc:prohibits rdf:resource="http://creativecommons.org/ns#CommercialUse"/>
				<cc:permits rdf:resource="http://creativecommons.org/ns#DerivativeWorks"/>
				<cc:requires rdf:resource="http://creativecommons.org/ns#ShareAlike"/>
			</cc:License>
		</rdf:RDF>
	</metadata>
	<defs id="defs5">
		<linearGradient id="linearGradient4589">
			<stop id="stop4591" style="stop-color:#000000;stop-opacity:0" offset="0"/>
			<stop id="stop4593" style="stop-color:#000000" offset="1"/>
		</linearGradient>
		<linearGradient id="linearGradient3779">
			<stop id="stop3781" style="stop-color:#000000" offset="0"/>
			<stop id="stop3799" style="stop-color:#000000" offset=".55556"/>
			<stop id="stop3783" style="stop-color:#000000;stop-opacity:0" offset="1"/>
		</linearGradient>
		<linearGradient id="linearGradient3801">
			<stop id="stop3803" style="stop-color:#000000" offset="0"/>
			<stop id="stop3805" style="stop-color:#000000" offset=".71429"/>
			<stop id="stop3807" style="stop-color:#000000;stop-opacity:0" offset="1"/>
		</linearGradient>
		<radialGradient id="radialGradient4092" fy="2" xlink:href="#linearGradient3801" gradientUnits="userSpaceOnUse" cx="5" gradientTransform="matrix(0,-1.75,2,0,4,-76.25)" r="4"/>
		<linearGradient id="linearGradient4094" y2="150" xlink:href="#linearGradient4589" gradientUnits="userSpaceOnUse" x2="-3" gradientTransform="matrix(1 0 0 6.3333 3 -1795)" y1="150"/>
		<linearGradient id="linearGradient4096" y2="309" xlink:href="#linearGradient4589" gradientUnits="userSpaceOnUse" x2="25" gradientTransform="matrix(6.3333 0 0 1 -26.667 -419)" y1="305" x1="25"/>
		<linearGradient id="linearGradient4098" y2="-7" xlink:href="#linearGradient4589" gradientUnits="userSpaceOnUse" x2="10" gradientTransform="matrix(6.3333 0 0 1 -26.667 97)" y1="-5" x1="10"/>
		<radialGradient id="radialGradient4100" fx="5.5" xlink:href="#linearGradient3779" gradientUnits="userSpaceOnUse" cy="300.5" cx="5" gradientTransform="matrix(-2 0 0 -2.25 15 781.12)" r="4"/>
		<radialGradient id="radialGradient4102" fy="2" xlink:href="#linearGradient3801" gradientUnits="userSpaceOnUse" cx="5" gradientTransform="matrix(0,-1.75,-2,0,196,-76.25)" r="4"/>
		<linearGradient id="linearGradient4104" y2="150" xlink:href="#linearGradient4589" gradientUnits="userSpaceOnUse" x2="-3" gradientTransform="matrix(1 0 0 6.3333 203 -1795)" y1="150"/>
		<radialGradient id="radialGradient4106" fx="5.5" xlink:href="#linearGradient3779" gradientUnits="userSpaceOnUse" cy="300.5" cx="5" gradientTransform="matrix(2 0 0 -2.25 185 781.12)" r="4"/>
	</defs>
	<g id="ClockFace" transform="translate(3,92)">
		<rect id="rect3722" style="opacity:.875;fill-rule:evenodd;fill:#000000" ry="5" height="200" width="200" y="-90" x="0"/>
		<path id="rect4524" d="m5-90c-2.77 0-5 2.23-5 5v190c0 2.77 2.23 5 5 5h190c2.77 0 5-2.23 5-5v-190c0-2.77-2.23-5-5-5h-190zm-.25586 2h190.51c1.5199 0 2.7441 1.2242 2.7441 2.7441v190.51c.01 1.53-1.21 2.75-2.73 2.75h-190.52c-1.5158 0-2.74-1.22-2.74-2.74v-190.52c0-1.516 1.2242-2.74 2.7441-2.74z" style="opacity:.875;fill-rule:evenodd;fill:#000000"/>
		<path id="shadow-topleft" style="opacity:.375;color:#000000;fill:url(#radialGradient4092)" d="m5-92c-4.4183 0-8 3.134-8 7h3c0-2.77 2.23-5 5-5v-2z"/>
		<rect id="shadow-left" style="opacity:.375;fill-rule:evenodd;fill:url(#linearGradient4094)" transform="scale(-1,1)" height="190" width="3" y="-85" x="0"/>
		<rect id="shadow-bottom" style="opacity:.375;fill-rule:evenodd;fill:url(#linearGradient4096)" transform="scale(1,-1)" height="4" width="190" y="-114" x="5"/>
		<rect id="shadow-top" style="opacity:.375;fill-rule:evenodd;fill:url(#linearGradient4098)" transform="scale(1,-1)" height="2" width="190" y="90" x="5"/>
		<path id="shadow-bottomleft" style="opacity:.375;color:#000000;fill:url(#radialGradient4100)" d="m-3 105c0 4.9706 3.5817 9 8 9v-4c-2.77 0-5-2.23-5-5h-3z"/>
		<path id="shadow-topright" style="opacity:.375;color:#000000;fill:url(#radialGradient4102)" d="m195-92c4.4183 0 8 3.134 8 7h-3c0-2.77-2.23-5-5-5v-2z"/>
		<rect id="shadow-right" style="opacity:.375;fill-rule:evenodd;fill:url(#linearGradient4104)" height="190" width="3" y="-85" x="200"/>
		<path id="shadow-bottomright" style="opacity:.375;color:#000000;fill:url(#radialGradient4106)" d="m203 105c0 4.9706-3.5817 9-8 9v-4c2.77 0 5-2.23 5-5h3z"/>
		<path id="path3913" style="opacity:.25;stroke:#ffffff;stroke-linecap:round;stroke-width:4;fill:none" d="m57-64.478 1 1.7321m-32.478 29.746 1.732 1m-13.254 42h2m9.5218 43 1.732-1m29.746 32.478 1-1.732m42 13.254v-2m43-9.5218-1-1.7321m32.478-29.746-1.732-1m13.25-42h-2m-9.52-43l-1.732 1m-29.75-32.478l-1 1.7321m-42-13.254v2"/>
	</g>
	<path id="HandCenterScrew" style="color:#000000;fill:#e0e0e0" d="m102 10a2 2 0 1 1 -4 0 2 2 0 1 1 4 0z" transform="translate(3,92)"/>
	<g id="MinuteHand" transform="translate(-6)">
		<path id="rect3079" style="fill:#e0e0e0" d="m102 105.84v66.16c0 .554.446 1 1 1s1-.446 1-1v-66.156c-.32016.0826-.65405.15625-1 .15625s-.67984-.0737-1-.15625z"/>
	</g>
	<g id="HourHand" transform="translate(6)">
		<path id="path3864" style="fill:#e0e0e0" d="m102 105.84v31.16c0 .554.446 1 1 1s1-.446 1-1v-31.156c-.32016.0826-.65405.15625-1 .15625s-.67984-.0737-1-.15625z"/>
	</g>
	<g id="SecondHand" style="fill:#ff1901">
		<path id="path3872" style="fill:#ff1901" d="m102 105.84v49.16c0 .554.446 1 1 1s1-.446 1-1v-49.156c-.32016.0826-.65405.15625-1 .15625s-.67984-.0737-1-.15625z"/>
	</g>
</svg>
