<?xml version="1.0" encoding="UTF-8" standalone="no"?>
<svg
   xmlns:dc="http://purl.org/dc/elements/1.1/"
   xmlns:cc="http://creativecommons.org/ns#"
   xmlns:rdf="http://www.w3.org/1999/02/22-rdf-syntax-ns#"
   xmlns:svg="http://www.w3.org/2000/svg"
   xmlns="http://www.w3.org/2000/svg"
   xmlns:xlink="http://www.w3.org/1999/xlink"
   xmlns:sodipodi="http://sodipodi.sourceforge.net/DTD/sodipodi-0.dtd"
   xmlns:inkscape="http://www.inkscape.org/namespaces/inkscape"
   id="svg2"
   height="44.039"
   width="38.028"
   version="1.0"
   inkscape:version="0.91 r13725"
   sodipodi:docname="containment-controls.svg">
  <sodipodi:namedview
     pagecolor="#323232"
     bordercolor="#666666"
     borderopacity="1"
     objecttolerance="10"
     gridtolerance="10"
     guidetolerance="10"
     inkscape:pageopacity="0"
     inkscape:pageshadow="2"
     inkscape:window-width="640"
     inkscape:window-height="480"
     id="namedview62"
     showgrid="false"
     inkscape:zoom="2.6794431"
     inkscape:cx="-22.419224"
     inkscape:cy="25.423591"
     inkscape:current-layer="svg2" />
  <defs
     id="defs4">
    <linearGradient
       id="linearGradient5934">
      <stop
         id="stop5936"
         style="stop-color:#e0e0e0"
         offset="0" />
      <stop
         id="stop5938"
         style="stop-color:#e0e0e0;stop-opacity:0"
         offset="1" />
    </linearGradient>
    <linearGradient
       id="linearGradient5912">
      <stop
         id="stop5914"
         style="stop-color:#e0e0e0;stop-opacity:0"
         offset="0" />
      <stop
         id="stop5920"
         style="stop-color:#e0e0e0;stop-opacity:0"
         offset=".052632" />
      <stop
         id="stop5916"
         style="stop-color:#e0e0e0;stop-opacity:0"
         offset="1" />
    </linearGradient>
    <linearGradient
       id="linearGradient5918"
       y2="52"
       xlink:href="#linearGradient5912"
       gradientUnits="userSpaceOnUse"
       x2="5"
       y1="52"
       x1="24" />
    <linearGradient
       id="linearGradient5952"
       y2="86"
       xlink:href="#linearGradient5934"
       gradientUnits="userSpaceOnUse"
       x2="43"
       gradientTransform="translate(-48,-24)"
       y1="86"
       x1="24" />
    <linearGradient
       id="linearGradient5956"
       y2="86"
       xlink:href="#linearGradient5934"
       gradientUnits="userSpaceOnUse"
       x2="43"
       gradientTransform="translate(-.0000076294 -24)"
       y1="86"
       x1="24" />
  </defs>
  <metadata
     id="metadata7">
    <rdf:RDF>
      <cc:Work
         rdf:about="">
        <dc:format>image/svg+xml</dc:format>
        <dc:type
           rdf:resource="http://purl.org/dc/dcmitype/StillImage" />
        <dc:title></dc:title>
        <dc:creator>
          <cc:Agent>
            <dc:title>obnosim</dc:title>
          </cc:Agent>
        </dc:creator>
        <cc:license
           rdf:resource="http://creativecommons.org/licenses/by-nc-sa/3.0/" />
      </cc:Work>
      <cc:License
         rdf:about="http://creativecommons.org/licenses/by-nc-sa/3.0/">
        <cc:permits
           rdf:resource="http://creativecommons.org/ns#Reproduction" />
        <cc:permits
           rdf:resource="http://creativecommons.org/ns#Distribution" />
        <cc:requires
           rdf:resource="http://creativecommons.org/ns#Notice" />
        <cc:requires
           rdf:resource="http://creativecommons.org/ns#Attribution" />
        <cc:prohibits
           rdf:resource="http://creativecommons.org/ns#CommercialUse" />
        <cc:permits
           rdf:resource="http://creativecommons.org/ns#DerivativeWorks" />
        <cc:requires
           rdf:resource="http://creativecommons.org/ns#ShareAlike" />
      </cc:License>
    </rdf:RDF>
  </metadata>
  <rect
     id="hint-stretch-borders"
     style="fill:#008000"
     height="5"
     width="5"
     y="-118.43"
     x="-83.405" />
  <g
     id="south-minslider"
     transform="translate(-5 -51.961)">
    <rect
       id="rect5880"
       style="fill:none"
       ry="1"
       height="20"
       width="38"
       y="52"
       x="5" />
    <rect
       id="rect5945"
       style="opacity:.25;fill:url(#linearGradient5952)"
       transform="scale(-1,1)"
       height="20"
       width="19"
       y="52"
       x="-24" />
    <path
       id="path5894"
       style="stroke-dashoffset:2.6;stroke:#e0e0e0;stroke-linecap:round;stroke-width:2;fill:none"
       d="m24 53v18m-18-9h15m-5-5 5 5-5 5" />
  </g>
  <g
     id="south-maxslider"
     transform="matrix(-1 0 0 1 43 -27.961)">
    <rect
       id="rect5888"
       style="fill:url(#linearGradient5918)"
       ry="1"
       height="20"
       width="38"
       y="52"
       x="5" />
    <rect
       id="rect5924"
       style="opacity:.25;fill:url(#linearGradient5956)"
       height="20"
       width="19"
       y="52"
       x="24" />
    <path
       id="path5890"
       style="stroke-dashoffset:2.6;stroke:#e0e0e0;stroke-linecap:round;stroke-width:2;fill:none"
       d="m24 53v18m-18-9h15m-5-5 5 5-5 5" />
  </g>
  <g
     id="east-minslider"
     transform="matrix(0 1 1 0 -5 -47.961)">
    <rect
       id="rect5960"
       style="fill:none"
       ry="1"
       height="20"
       width="38"
       y="52"
       x="5" />
    <rect
       id="rect5962"
       style="opacity:.25;fill:url(#linearGradient5952)"
       transform="scale(-1,1)"
       height="20"
       width="19"
       y="52"
       x="-24" />
    <path
       id="path5964"
       style="stroke-dashoffset:2.6;stroke:#e0e0e0;stroke-linecap:round;stroke-width:2;fill:none"
       d="m24 53v18m-18-9h15m-5-5 5 5-5 5" />
  </g>
  <g
     id="east-maxslider"
     transform="matrix(0 -1 1 0 19 .038501)">
    <rect
       id="rect5968"
       style="fill:url(#linearGradient5918)"
       ry="1"
       height="20"
       width="38"
       y="52"
       x="5" />
    <rect
       id="rect5970"
       style="opacity:.25;fill:url(#linearGradient5956)"
       height="20"
       width="19"
       y="52"
       x="24" />
    <path
       id="path5972"
       style="stroke-dashoffset:2.6;stroke:#e0e0e0;stroke-linecap:round;stroke-width:2;fill:none"
       d="m24 53v18m-18-9h15m-5-5 5 5-5 5" />
  </g>
  <g
     id="north-minslider"
     transform="translate(-5 -149.96)">
    <rect
       id="rect5988"
       style="fill:none"
       ry="1"
       height="20"
       width="38"
       y="52"
       x="5" />
    <rect
       id="rect5990"
       style="opacity:.25;fill:url(#linearGradient5952)"
       transform="scale(-1,1)"
       height="20"
       width="19"
       y="52"
       x="-24" />
    <path
       id="path5992"
       style="stroke-dashoffset:2.6;stroke:#e0e0e0;stroke-linecap:round;stroke-width:2;fill:none"
       d="m24 53v18m-18-9h15m-5-5 5 5-5 5" />
  </g>
  <g
     id="north-maxslider"
     transform="matrix(-1 0 0 1 43 -125.96)">
    <rect
       id="rect5996"
       style="fill:url(#linearGradient5918)"
       ry="1"
       height="20"
       width="38"
       y="52"
       x="5" />
    <rect
       id="rect5998"
       style="opacity:.25;fill:url(#linearGradient5956)"
       height="20"
       width="19"
       y="52"
       x="24" />
    <path
       id="path6000"
       style="stroke-dashoffset:2.6;stroke:#e0e0e0;stroke-linecap:round;stroke-width:2;fill:none"
       d="m24 53v18m-18-9h15m-5-5 5 5-5 5" />
  </g>
  <g
     id="west-minslider"
     transform="matrix(0 1 1 0 -121 -47.961)">
    <rect
       id="rect6016"
       style="fill:none"
       ry="1"
       height="20"
       width="38"
       y="52"
       x="5" />
    <rect
       id="rect6018"
       style="opacity:.25;fill:url(#linearGradient5952)"
       transform="scale(-1,1)"
       height="20"
       width="19"
       y="52"
       x="-24" />
    <path
       id="path6020"
       style="stroke-dashoffset:2.6;stroke:#e0e0e0;stroke-linecap:round;stroke-width:2;fill:none"
       d="m24 53v18m-18-9h15m-5-5 5 5-5 5" />
  </g>
  <g
     id="west-maxslider"
     transform="matrix(0 -1 1 0 -97 .038501)">
    <rect
       id="rect6024"
       style="fill:url(#linearGradient5918)"
       ry="1"
       height="20"
       width="38"
       y="52"
       x="5" />
    <rect
       id="rect6026"
       style="opacity:.25;fill:url(#linearGradient5956)"
       height="20"
       width="19"
       y="52"
       x="24" />
    <path
       id="path6028"
       style="stroke-dashoffset:2.6;stroke:#e0e0e0;stroke-linecap:round;stroke-width:2;fill:none"
       d="m24 53v18m-18-9h15m-5-5 5 5-5 5" />
  </g>
  <g
     id="west-offsetslider"
     transform="translate(-5 -221.96)">
    <rect
       id="rect6044"
       style="fill:none"
       height="20"
       width="20"
       y="185"
       x="-90" />
    <path
       id="path6040"
       style="stroke-linejoin:round;stroke:#e0e0e0;stroke-linecap:round;stroke-width:2;fill:none"
       d="m-89 195h18" />
  </g>
  <g
     id="east-offsetslider"
     transform="translate(115 -221.96)">
    <rect
       id="rect6054"
       style="fill:none"
       height="20"
       width="20"
       y="185"
       x="-90" />
    <path
       id="path6056"
       style="stroke-linejoin:round;stroke:#e0e0e0;stroke-linecap:round;stroke-width:2;fill:none"
       d="m-89 195h18" />
  </g>
  <g
     id="south-offsetslider"
     transform="matrix(0 1 -1 0 205 66.039)">
    <rect
       id="rect6062"
       style="fill:none"
       height="20"
       width="20"
       y="185"
       x="-90" />
    <path
       id="path6064"
       style="stroke-linejoin:round;stroke:#e0e0e0;stroke-linecap:round;stroke-width:2;fill:none"
       d="m-89 195h18" />
  </g>
  <g
     id="north-offsetslider"
     transform="matrix(0 1 -1 0 205 -31.962)">
    <rect
       id="rect6070"
       style="fill:none"
       height="20"
       width="20"
       y="185"
       x="-90" />
    <path
       id="path6072"
       style="stroke-linejoin:round;stroke:#e0e0e0;stroke-linecap:round;stroke-width:2;fill:none"
       d="m-89 195h18" />
  </g>
  <path
     id="vertical-centerindicator"
     style="opacity:.25;stroke:#e0e0e0;stroke-linecap:round;stroke-width:2;fill:none"
     d="m-43.986 25.024h-18" />
  <path
     id="horizontal-centerindicator"
     style="opacity:.25;stroke:#e0e0e0;stroke-linecap:round;stroke-width:2;fill:none"
     d="m-70.986 34.024v-18" />
</svg>
