<?xml version="1.0" encoding="UTF-8" standalone="no"?>
<svg id="svg2" xmlns:rdf="http://www.w3.org/1999/02/22-rdf-syntax-ns#" xmlns="http://www.w3.org/2000/svg" height="20" width="70" version="1.0" xmlns:cc="http://creativecommons.org/ns#" xmlns:xlink="http://www.w3.org/1999/xlink" xmlns:dc="http://purl.org/dc/elements/1.1/">
	<metadata id="metadata7">
		<rdf:RDF>
			<cc:Work rdf:about="">
				<dc:format>image/svg+xml</dc:format>
				<dc:type rdf:resource="http://purl.org/dc/dcmitype/StillImage"/>
				<dc:title/>
				<dc:creator>
					<cc:Agent>
						<dc:title>obnosim</dc:title>
					</cc:Agent>
				</dc:creator>
				<cc:license rdf:resource="http://creativecommons.org/licenses/by-sa/3.0/"/>
			</cc:Work>
			<cc:License rdf:about="http://creativecommons.org/licenses/by-sa/3.0/">
				<cc:permits rdf:resource="http://creativecommons.org/ns#Reproduction"/>
				<cc:permits rdf:resource="http://creativecommons.org/ns#Distribution"/>
				<cc:requires rdf:resource="http://creativecommons.org/ns#Notice"/>
				<cc:requires rdf:resource="http://creativecommons.org/ns#Attribution"/>
				<cc:permits rdf:resource="http://creativecommons.org/ns#DerivativeWorks"/>
				<cc:requires rdf:resource="http://creativecommons.org/ns#ShareAlike"/>
			</cc:License>
		</rdf:RDF>
	</metadata>
	<defs id="defs5">
		<style id="current-color-scheme" type="text/css">
			.ColorScheme-Text { color:#0000FF; }
		</style>
		<g class="ColorScheme-Text">
			<linearGradient id="linearGradient4860">
				<stop id="stop4862" style="stop-color:currentColor" offset="0"/>
				<stop id="stop4864" style="stop-color:currentColor;stop-opacity:0" offset="1"/>
			</linearGradient>
			<linearGradient id="linearGradient4866" y2="18" xlink:href="#linearGradient4860" gradientUnits="userSpaceOnUse" x2="44.5" y1="4" x1="44.5"/>
			<linearGradient id="linearGradient4868" y2="18" xlink:href="#linearGradient4860" gradientUnits="userSpaceOnUse" x2="43.5" y1="4" x1="43.5"/>
			<linearGradient id="linearGradient4870" y2="18" xlink:href="#linearGradient4860" gradientUnits="userSpaceOnUse" x2="35" gradientTransform="translate(0,-1)" y1="4" x1="35"/>
			<linearGradient id="linearGradient4872" y2="18" xlink:href="#linearGradient4860" gradientUnits="userSpaceOnUse" x2="26.5" y1="4" x1="26.5"/>
			<linearGradient id="linearGradient4874" y2="18" xlink:href="#linearGradient4860" gradientUnits="userSpaceOnUse" x2="25.5" y1="4" x1="25.5"/>
			<linearGradient id="linearGradient4723" x1="50.5" xlink:href="#linearGradient4709" gradientUnits="userSpaceOnUse" y1="-13" gradientTransform="matrix(1,0,0,1.4,-32,1.2)" x2="50.5" y2="-2.9998"/>
			<linearGradient id="linearGradient4709">
				<stop id="stop4961" style="stop-color:currentColor;stop-opacity:.33" offset="0"/>
				<stop id="stop4963" style="stop-color:currentColor;stop-opacity:.21" offset="1"/>
			</linearGradient>
			<linearGradient id="linearGradient4731" x1="37.5" xlink:href="#linearGradient4709" gradientUnits="userSpaceOnUse" y1="-13" gradientTransform="matrix(1 0 0 1.4 -36 1.2)" x2="37.5" y2="-2.9998"/>
			<linearGradient id="linearGradient4715" x1="44" xlink:href="#linearGradient4709" gradientUnits="userSpaceOnUse" y1="-13" gradientTransform="matrix(1.4,0,0,1.4,-51.6,1.2)" x2="44" y2="-3"/>
		</g>
	</defs>
	<rect id="hint-stretch-borders" style="fill:#278000" height="3" width="3" y="-7" x="-6"/>
	<rect id="plain-center" style="opacity:.0625;fill-rule:evenodd;fill:url(#linearGradient4870)" height="14" width="14" y="3" x="28"/>
	<g id="plain-topleft" class="ColorScheme-Text" transform="translate(0,-1)">
		<path d="m28 1a3 3 0 0 0 -3 3h3v-3z" style="opacity:.0625;fill-rule:evenodd;fill:currentColor" class="ColorScheme-Text"/>
		<path style="opacity:.0625;fill-rule:evenodd;fill:currentColor" d="m28 1a3 3 0 0 0 -3 3h1c0-1.108.892-2 2-2v-1z"/>
	</g>
	<g id="plain-top" class="ColorScheme-Text" transform="translate(0,-1)">
		<rect style="opacity:.0625;fill-rule:evenodd;fill:currentColor" class="ColorScheme-Text" height="3" width="14" y="1" x="28"/>
		<path style="opacity:.0625;fill-rule:evenodd;fill:currentColor" d="m28 1v1h14v-1h-14z"/>
	</g>
	<g id="plain-topright" class="ColorScheme-Text" transform="translate(0,-1)">
		<path d="m42 1a3 3 0 0 1 3 3h-3v-3z" style="opacity:.0625;fill-rule:evenodd;fill:currentColor" class="ColorScheme-Text"/>
		<path style="opacity:.0625;fill-rule:evenodd;fill:currentColor" d="m42 1v1c1.108 0 2 .892 2 2h1a3 3 0 0 0 -3 -3z"/>
	</g>
	<g id="plain-right" transform="translate(0,-1)">
		<rect style="opacity:.0625;fill-rule:evenodd;fill:url(#linearGradient4868)" class="ColorScheme-Text" height="14" width="3" y="4" x="42"/>
		<path style="opacity:.0625;fill-rule:evenodd;fill:url(#linearGradient4866)" d="m44 4v14h1v-14h-1z"/>
	</g>
	<g id="plain-bottomright" style="fill:none" transform="translate(0,-1)">
		<path class="ColorScheme-Text" style="opacity:.0625;fill:none" d="m45 18a3 3 0 0 1 -3 3v-3h3z"/>
		<path style="opacity:.0625;fill:none" d="m44 18c0 1.108-.892 2-2 2v1a3 3 0 0 0 3 -3h-1z"/>
	</g>
	<g id="plain-bottom" style="fill:none" transform="translate(0,-1)">
		<rect style="opacity:.0625;fill:none" class="ColorScheme-Text" height="3" width="14" y="18" x="28"/>
		<path style="opacity:.0625;fill:none" d="m28 20v1h14v-1h-14z"/>
	</g>
	<g id="plain-bottomleft" style="fill:none" transform="translate(0,-1)">
		<path class="ColorScheme-Text" style="opacity:.0625;fill:none" d="m25 18a3 3 0 0 0 3 3v-3h-3z"/>
		<path style="opacity:.0625;fill:none" d="m25 18a3 3 0 0 0 3 3v-1c-1.108 0-2-.892-2-2h-1z"/>
	</g>
	<g id="plain-left" transform="translate(0,-1)">
		<rect style="opacity:.0625;fill-rule:evenodd;fill:url(#linearGradient4872)" class="ColorScheme-Text" height="14" width="3" y="4" x="25"/>
		<path style="opacity:.0625;fill-rule:evenodd;fill:url(#linearGradient4874)" d="m25 4v14h1v-14h-1z"/>
	</g>
	<rect id="raised-center" class="ColorScheme-Text" style="opacity:.0625;fill-rule:evenodd;fill:currentColor" height="14" width="14" y="3" x="53"/>
	<g id="raised-topleft" class="ColorScheme-Text" transform="translate(25,-1)">
		<path class="ColorScheme-Text" style="opacity:.0625;fill-rule:evenodd;fill:currentColor" d="m28 1a3 3 0 0 0 -3 3h3v-3z"/>
		<path style="opacity:.0625;fill-rule:evenodd;fill:currentColor" d="m28 1a3 3 0 0 0 -3 3h1c0-1.108.892-2 2-2v-1z"/>
	</g>
	<g id="raised-top" class="ColorScheme-Text" transform="translate(25,-1)">
		<rect style="opacity:.0625;fill-rule:evenodd;fill:currentColor" class="ColorScheme-Text" height="3" width="14" y="1" x="28"/>
		<path style="opacity:.0625;fill-rule:evenodd;fill:currentColor" d="m28 1v1h14v-1h-14z"/>
	</g>
	<g id="raised-topright" class="ColorScheme-Text" transform="translate(25,-1)">
		<path class="ColorScheme-Text" style="opacity:.0625;fill-rule:evenodd;fill:currentColor" d="m42 1a3 3 0 0 1 3 3h-3v-3z"/>
		<path style="opacity:.0625;fill-rule:evenodd;fill:currentColor" d="m42 1v1c1.108 0 2 .892 2 2h1a3 3 0 0 0 -3 -3z"/>
	</g>
	<g id="raised-right" class="ColorScheme-Text" style="fill:currentColor" transform="translate(25,-1)">
		<rect style="opacity:.0625;fill-rule:evenodd;fill:currentColor" class="ColorScheme-Text" height="14" width="3" y="4" x="42"/>
		<path style="opacity:.0625;fill-rule:evenodd;fill:currentColor" d="m44 4v14h1v-14h-1z"/>
	</g>
	<g id="raised-bottomright" class="ColorScheme-Text" style="fill:currentColor" transform="translate(25,-1)">
		<path d="m45 18a3 3 0 0 1 -3 3v-3h3z" style="opacity:.0625;fill-rule:evenodd;fill:currentColor" class="ColorScheme-Text"/>
		<path style="opacity:.0625;fill-rule:evenodd;fill:currentColor" d="m44 18c0 1.108-.892 2-2 2v1a3 3 0 0 0 3 -3h-1z"/>
	</g>
	<g id="raised-bottom" class="ColorScheme-Text" style="fill:currentColor" transform="translate(25,-1)">
		<rect style="opacity:.0625;fill-rule:evenodd;fill:currentColor" class="ColorScheme-Text" height="3" width="14" y="18" x="28"/>
		<path style="opacity:.0625;fill-rule:evenodd;fill:currentColor" d="m28 20v1h14v-1h-14z"/>
	</g>
	<g id="raised-bottomleft" class="ColorScheme-Text" style="fill:currentColor" transform="translate(25,-1)">
		<path d="m25 18a3 3 0 0 0 3 3v-3h-3z" style="opacity:.0625;fill-rule:evenodd;fill:currentColor" class="ColorScheme-Text"/>
		<path style="opacity:.0625;fill-rule:evenodd;fill:currentColor" d="m25 18a3 3 0 0 0 3 3v-1c-1.108 0-2-.892-2-2h-1z"/>
	</g>
	<g id="raised-left" class="ColorScheme-Text" style="fill:currentColor" transform="translate(25,-1)">
		<rect style="opacity:.0625;fill-rule:evenodd;fill:currentColor" class="ColorScheme-Text" height="14" width="3" y="4" x="25"/>
		<path style="opacity:.0625;fill-rule:evenodd;fill:currentColor" d="m25 4v14h1v-14h-1z"/>
	</g>
	<rect id="sunken-center" style="fill:url(#linearGradient4715)" transform="scale(1,-1)" height="14" width="14" y="-17" x="3"/>
	<g id="sunken-topleft" class="ColorScheme-Text" transform="translate(-36)">
		<path d="m39 0c-1.662 0-3 1.338-3 3h3v-3z" style="fill:currentColor;opacity:.21"/>
		<path d="m39 0c-1.657 0-3 1.343-3 3 0-.552 1.343-1 3-1v-2z" style="opacity:.375;fill:#000000"/>
	</g>
	<g id="sunken-topright" class="ColorScheme-Text" transform="translate(-32)">
		<path d="m49 0c1.662 0 3 1.338 3 3h-3v-3z" style="fill:currentColor;opacity:.21"/>
		<path d="m49 0v2c1.6569 0 3 .44772 3 1 0-1.6569-1.3431-3-3-3z" style="opacity:.375;fill:#000000"/>
	</g>
	<g id="sunken-bottomleft" class="ColorScheme-Text" transform="translate(-40,4)">
		<path id="path4926-5" d="m43 16c-1.662 0-3-1.338-3-3h3v3z" style="opacity:.33;fill:currentColor"/>
		<path id="path5083-7" d="m43 16c-1.662 0-3-1.338-3-3 0 1.108 1.338 2 3 2v1z" style="opacity:.1875;fill:currentColor"/>
	</g>
	<g id="sunken-bottomright" class="ColorScheme-Text" transform="translate(-36,4)">
		<path d="m53 16c1.662 0 3-1.338 3-3h-3v3z" style="opacity:.33;fill:currentColor"/>
		<path id="path5089-4" d="m53 16v-1c1.662 0 3-.892 3-2 0 1.662-1.338 3-3 3z" style="opacity:.1875;fill:currentColor"/>
	</g>
	<g id="sunken-top" class="ColorScheme-Text" transform="matrix(1.4,0,0,1,-51.6,0)">
		<rect style="fill:currentColor;opacity:.21" transform="rotate(90)" height="9.9999" width="3" y="-49" x="0"/>
		<path id="path4678-3" d="m39 0v2h9.9999v-2h-10z" style="opacity:.375;fill:#000000"/>
	</g>
	<rect id="sunken-left" style="fill:url(#linearGradient4731)" transform="scale(1,-1)" height="14" width="3" y="-17" x="0"/>
	<g id="sunken-bottom" class="ColorScheme-Text" transform="matrix(1.4,0,0,1,-57.2,4)">
		<rect style="opacity:.33;fill:currentColor" transform="matrix(0,-1,-1,0,0,0)" height="9.9999" width="3" y="-53" x="-16"/>
		<path id="path5095-2" d="m43 16v-1h9.9999v1h-10z" style="opacity:.1875;fill:currentColor"/>
	</g>
	<rect id="sunken-right" style="fill:url(#linearGradient4723)" transform="scale(1,-1)" height="14" width="3" y="-17" x="17"/>
</svg>
