<?xml version="1.0" encoding="UTF-8" standalone="no"?>
<svg id="svg2" xmlns:rdf="http://www.w3.org/1999/02/22-rdf-syntax-ns#" xmlns="http://www.w3.org/2000/svg" height="21" width="71" version="1.0" xmlns:cc="http://creativecommons.org/ns#" xmlns:xlink="http://www.w3.org/1999/xlink" xmlns:dc="http://purl.org/dc/elements/1.1/">
	<metadata id="metadata7">
		<rdf:RDF>
			<cc:Work rdf:about="">
				<dc:format>image/svg+xml</dc:format>
				<dc:type rdf:resource="http://purl.org/dc/dcmitype/StillImage"/>
				<dc:title/>
				<cc:license rdf:resource="http://creativecommons.org/licenses/by-nc-sa/3.0/"/>
				<dc:creator>
					<cc:Agent>
						<dc:title>obnosim</dc:title>
					</cc:Agent>
				</dc:creator>
			</cc:Work>
			<cc:Work rdf:about="">
				<dc:format>image/svg+xml</dc:format>
				<dc:type rdf:resource="http://purl.org/dc/dcmitype/StillImage"/>
			</cc:Work>
			<cc:License rdf:about="http://creativecommons.org/licenses/by-nc-sa/3.0/">
				<cc:permits rdf:resource="http://creativecommons.org/ns#Reproduction"/>
				<cc:permits rdf:resource="http://creativecommons.org/ns#Distribution"/>
				<cc:requires rdf:resource="http://creativecommons.org/ns#Notice"/>
				<cc:requires rdf:resource="http://creativecommons.org/ns#Attribution"/>
				<cc:prohibits rdf:resource="http://creativecommons.org/ns#CommercialUse"/>
				<cc:permits rdf:resource="http://creativecommons.org/ns#DerivativeWorks"/>
				<cc:requires rdf:resource="http://creativecommons.org/ns#ShareAlike"/>
			</cc:License>
		</rdf:RDF>
	</metadata>
	<defs id="defs5">
		<linearGradient id="linearGradient4129">
			<stop id="stop4131" style="stop-color:#ffffff" offset="0"/>
			<stop id="stop4133" style="stop-color:#ffffff;stop-opacity:.50196" offset="1"/>
		</linearGradient>
		<linearGradient id="linearGradient4135" y2="12" xlink:href="#linearGradient4129" gradientUnits="userSpaceOnUse" x2="55" y1="7" x1="55"/>
		<linearGradient id="linearGradient4137" y2="12" xlink:href="#linearGradient4129" gradientUnits="userSpaceOnUse" x2="60" gradientTransform="translate(-27 1)" y1="7" x1="60"/>
		<linearGradient id="linearGradient4139" y2="12" xlink:href="#linearGradient4129" gradientUnits="userSpaceOnUse" x2="65" y1="7" x1="65"/>
		<linearGradient id="linearGradient4201" y2="12" xlink:href="#linearGradient4129" gradientUnits="userSpaceOnUse" x2="70" y1="7" x1="70"/>
		<linearGradient id="linearGradient4203" y2="12" xlink:href="#linearGradient4129" gradientUnits="userSpaceOnUse" x2="56" y1="7" x1="56"/>
		<linearGradient id="linearGradient4269" y2="12" xlink:href="#linearGradient4129" gradientUnits="userSpaceOnUse" x2="60" gradientTransform="translate(-2 1)" y1="7" x1="60"/>
	</defs>
	<rect id="sunken-center" style="opacity:.5;fill:#000000" height="5" width="5" y="8" x="8"/>
	<g id="sunken-top" transform="translate(-27 1)">
		<path id="rect3103" style="opacity:.5;fill:#000000" d="m8 4v4h5v-4h-5z" transform="translate(27 -1)"/>
		<path id="rect3895" style="opacity:.375;fill:#000000" d="m35 3v2h5v-2h-5z"/>
		<path id="rect3933" style="opacity:.125;fill:#ffffff" d="m35 2v1h5v-1h-5z"/>
	</g>
	<g id="sunken-topright" transform="translate(-27 1)">
		<path id="path3093" style="opacity:.5;fill:#000000" d="m13 4v4h4c0-2.216-1.784-4-4-4z" transform="translate(27 -1)"/>
		<path id="rect3893" style="opacity:.375;fill:#000000" d="m40 3v2c1.662 0 3 1 3 2h1c0-2.216-1.784-4-4-4z"/>
		<path id="rect3935" style="opacity:.125;fill:#ffffff" d="m40 2v1c2.216 0 4 1.784 4 4h1c0-2.77-2.23-5-5-5z"/>
	</g>
	<g id="sunken-right" transform="translate(-27 1)">
		<path id="rect3101" style="opacity:.5;fill:#000000" d="m13 8v5h4v-5h-4z" transform="translate(27 -1)"/>
		<path id="rect3899" style="opacity:.375;fill:#000000" d="m43 7v5h1v-5h-1z"/>
		<path id="rect3937" style="opacity:.125;fill:#ffffff" d="m44 7v5h1v-5h-1z"/>
	</g>
	<g id="sunken-bottomright" transform="translate(-27 1)">
		<path id="path3097" style="opacity:.5;fill:#000000" d="m13 13v4c2.216 0 4-1.784 4-4h-4z" transform="translate(27 -1)"/>
		<path id="rect3905" style="opacity:.375;fill:#000000" d="m43 12c0 1.662-1.338 3-3 3v1c2.216 0 4-1.784 4-4h-1z"/>
		<path id="rect3939" style="opacity:.125;fill:#ffffff" d="m44 12c0 2.216-1.784 4-4 4v1c2.77 0 5-2.23 5-5h-1z"/>
	</g>
	<g id="sunken-bottom" transform="translate(-27 1)">
		<path id="rect3107" style="opacity:.5;fill:#000000" d="m8 13v4h5v-4h-5z" transform="translate(27 -1)"/>
		<path id="rect3903" style="opacity:.375;fill:#000000" d="m35 15v1h5v-1h-5z"/>
		<path id="rect3941" style="opacity:.125;fill:#ffffff" d="m35 16v1h5v-1h-5z"/>
	</g>
	<g id="sunken-bottomleft" transform="translate(-27 1)">
		<path id="path3095" style="opacity:.5;fill:#000000" d="m4 13c0 2.216 1.784 4 4 4v-4h-4z" transform="translate(27 -1)"/>
		<path id="rect3907" style="opacity:.375;fill:#000000" d="m31 12c0 2.216 1.784 4 4 4v-1c-1.662 0-3-1.338-3-3h-1z"/>
		<path id="rect3943" style="opacity:.125;fill:#ffffff" d="m30 12c0 2.77 2.23 5 5 5v-1c-2.216 0-4-1.784-4-4h-1z"/>
	</g>
	<g id="sunken-left" transform="translate(-27 1)">
		<path id="rect3099" style="opacity:.5;fill:#000000" d="m4 8v5h4v-5h-4z" transform="translate(27 -1)"/>
		<path id="rect3897" style="opacity:.375;fill:#000000" d="m31 7v5h1v-5h-1z"/>
		<path id="rect3945" style="opacity:.125;fill:#ffffff" d="m30 7v5h1v-5h-1z"/>
	</g>
	<g id="sunken-topleft" transform="translate(-27 1)">
		<path id="rect3086" style="opacity:.5;fill:#000000" d="m8 4c-2.216 0-4 1.784-4 4h4v-4z" transform="translate(27 -1)"/>
		<path id="rect3891" style="opacity:.375;fill:#000000" d="m35 3c-2.216 0-4 1.784-4 4h1c0-1 1.338-2 3-2v-2z"/>
		<path id="rect3947" style="opacity:.125;fill:#ffffff" d="m35 2c-2.77 0-5 2.23-5 5h1c0-2.216 1.784-4 4-4v-1z"/>
	</g>
	<rect id="sunken-hint-left-margin" style="fill:#278000" height="3" width="3" y="9" x="0"/>
	<rect id="sunken-hint-top-margin" style="fill:#278000" height="3" width="3" y="0" x="9"/>
	<rect id="sunken-hint-bottom-margin" style="fill:#278000" height="3" width="3" y="18" x="9"/>
	<rect id="sunken-hint-right-margin" style="fill:#278000" height="3" width="3" y="9" x="18"/>
	<rect id="plain-center" style="opacity:.062;fill:url(#linearGradient4137)" height="5" width="5" y="8" x="33"/>
	<g id="plain-top" style="opacity:.5" transform="translate(-27 1)">
		<rect id="rect4035" style="opacity:.125;fill:#ffffff" height="5" width="5" y="2" x="60"/>
		<path id="path4039" style="opacity:.125;fill:#ffffff" d="m60 2v1h5v-1h-5z"/>
	</g>
	<g id="plain-topright" style="opacity:.5" transform="translate(-27 1)">
		<path id="path4043" style="opacity:.125;fill:#ffffff" d="m65 2c2.77 0 5 2.23 5 5h-5v-5z"/>
		<path id="path4047" style="opacity:.125;fill:#ffffff" d="m65 2v1c2.216 0 4 1.784 4 4h1c0-2.77-2.23-5-5-5z"/>
	</g>
	<g id="plain-right" style="opacity:.5" transform="translate(-27 1)">
		<rect id="rect4051" style="opacity:.125;fill:url(#linearGradient4139)" height="5" width="5" y="7" x="65"/>
		<path id="path4055" style="opacity:.125;fill:url(#linearGradient4201)" d="m69 7v5h1v-5h-1z"/>
	</g>
	<g id="plain-bottomright" style="opacity:.5" transform="translate(-27 1)">
		<path id="path4059" style="opacity:0.062;fill:#ffffff" d="m65 17c2.77 0 5-2.23 5-5h-5v5z"/>
		<path id="path4063" style="opacity:.125;fill:#ffffff;fill-opacity:.50196" d="m69 12c0 2.216-1.784 4-4 4v1c2.77 0 5-2.23 5-5h-1z"/>
	</g>
	<g id="plain-bottom" style="opacity:.5" transform="translate(-27 1)">
		<rect id="rect4067" style="opacity:0.062;fill:#ffffff" height="5" width="5" y="12" x="60"/>
		<path id="path4071" style="opacity:.125;fill:#ffffff;fill-opacity:.50196" d="m60 16v1h5v-1h-5z"/>
	</g>
	<g id="plain-bottomleft" style="opacity:.5" transform="translate(-27 1)">
		<path id="path4075" style="opacity:0.062;fill:#ffffff" d="m60 17c-2.77 0-5-2.23-5-5h5v5z"/>
		<path id="path4079" style="opacity:.125;fill:#ffffff;fill-opacity:.50196" d="m55 12c0 2.77 2.23 5 5 5v-1c-2.216 0-4-1.784-4-4h-1z"/>
	</g>
	<g id="plain-left" style="opacity:.5" transform="translate(-27 1)">
		<rect id="rect4083" style="opacity:.125;fill:url(#linearGradient4135)" height="5" width="5" y="7" x="55"/>
		<path id="path4087" style="opacity:.125;fill:url(#linearGradient4203)" d="m55 7v5h1v-5h-1z"/>
	</g>
	<g id="plain-topleft" style="opacity:.5" transform="translate(-27 1)">
		<path id="path4091" style="opacity:.125;fill:#ffffff" d="m60 2c-2.77 0-5 2.23-5 5h5v-5z"/>
		<path id="path4095" style="opacity:.125;fill:#ffffff" d="m60 2c-2.77 0-5 2.23-5 5h1c0-2.216 1.784-4 4-4v-1z"/>
	</g>
	<rect id="plain-hint-left-margin" style="fill:#278000" height="3" width="3" y="9" x="25"/>
	<rect id="plain-hint-top-margin" style="fill:#278000" height="3" width="3" y="0" x="34"/>
	<rect id="plain-hint-bottom-margin" style="fill:#278000" height="3" width="3" y="18" x="34"/>
	<rect id="plain-hint-right-margin" style="fill:#278000" height="3" width="3" y="9" x="43"/>
	<rect id="hint-stretch-borders" style="fill:#278000" height="3" width="3" y="-6" x="-6"/>
	<rect id="raised-center" style="opacity:.125;fill:url(#linearGradient4269)" height="5" width="5" y="8" x="58"/>
	<g id="raised-top" style="opacity:.5" transform="translate(-2 1)">
		<rect id="rect4215" style="opacity:.25;fill:#ffffff" height="5" width="5" y="2" x="60"/>
		<path id="path4217" style="opacity:.25;fill:#ffffff" d="m60 2v1h5v-1h-5z"/>
	</g>
	<g id="raised-topright" style="opacity:.5" transform="translate(-2 1)">
		<path id="path4221" style="opacity:.25;fill:#ffffff" d="m65 2c2.77 0 5 2.23 5 5h-5v-5z"/>
		<path id="path4223" style="opacity:.25;fill:#ffffff" d="m65 2v1c2.216 0 4 1.784 4 4h1c0-2.77-2.23-5-5-5z"/>
	</g>
	<g id="raised-right" style="opacity:.5" transform="translate(-2 1)">
		<rect id="rect4227" style="opacity:.25;fill:url(#linearGradient4139)" height="5" width="5" y="7" x="65"/>
		<path id="path4229" style="opacity:.25;fill:url(#linearGradient4201)" d="m69 7v5h1v-5h-1z"/>
	</g>
	<g id="raised-bottomright" style="opacity:.5" transform="translate(-2 1)">
		<path id="path4233" style="opacity:.125;fill:#ffffff" d="m65 17c2.77 0 5-2.23 5-5h-5v5z"/>
		<path id="path4235" style="opacity:.25;fill:#ffffff;fill-opacity:.50196" d="m69 12c0 2.216-1.784 4-4 4v1c2.77 0 5-2.23 5-5h-1z"/>
	</g>
	<g id="raised-bottom" style="opacity:.5" transform="translate(-2 1)">
		<rect id="rect4239" style="opacity:.125;fill:#ffffff" height="5" width="5" y="12" x="60"/>
		<path id="path4241" style="opacity:.25;fill:#ffffff;fill-opacity:.50196" d="m60 16v1h5v-1h-5z"/>
	</g>
	<g id="raised-bottomleft" style="opacity:.5" transform="translate(-2 1)">
		<path id="path4245" style="opacity:.125;fill:#ffffff" d="m60 17c-2.77 0-5-2.23-5-5h5v5z"/>
		<path id="path4247" style="opacity:.25;fill:#ffffff;fill-opacity:.50196" d="m55 12c0 2.77 2.23 5 5 5v-1c-2.216 0-4-1.784-4-4h-1z"/>
	</g>
	<g id="raised-left" style="opacity:.5" transform="translate(-2 1)">
		<rect id="rect4251" style="opacity:.25;fill:url(#linearGradient4135)" height="5" width="5" y="7" x="55"/>
		<path id="path4253" style="opacity:.25;fill:url(#linearGradient4203)" d="m55 7v5h1v-5h-1z"/>
	</g>
	<g id="raised-topleft" style="opacity:.5" transform="translate(-2 1)">
		<path id="path4257" style="opacity:.25;fill:#ffffff" d="m60 2c-2.77 0-5 2.23-5 5h5v-5z"/>
		<path id="path4259" style="opacity:.25;fill:#ffffff" d="m60 2c-2.77 0-5 2.23-5 5h1c0-2.216 1.784-4 4-4v-1z"/>
	</g>
	<rect id="raised-hint-left-margin" style="fill:#278000" height="3" width="3" y="9" x="50"/>
	<rect id="raised-hint-top-margin" style="fill:#278000" height="3" width="3" y="0" x="59"/>
	<rect id="raised-hint-bottom-margin" style="fill:#278000" height="3" width="3" y="18" x="59"/>
	<rect id="raised-hint-right-margin" style="fill:#278000" height="3" width="3" y="9" x="68"/>
</svg>
