<?xml version="1.0" encoding="UTF-8" standalone="no"?>
<svg id="svg6774" xmlns:rdf="http://www.w3.org/1999/02/22-rdf-syntax-ns#" xmlns="http://www.w3.org/2000/svg" height="32" width="32" version="1.1" xmlns:cc="http://creativecommons.org/ns#" xmlns:dc="http://purl.org/dc/elements/1.1/">
	<defs id="defs6776">
		<linearGradient id="linearGradient3820" y2="260" gradientUnits="userSpaceOnUse" y1="156" x2="-116" x1="-116">
			<stop id="stop3814" style="stop-color:#e02020" offset="0"/>
			<stop id="stop3816" style="stop-color:#a21616" offset="1"/>
		</linearGradient>
		<radialGradient id="radialGradient3824" gradientUnits="userSpaceOnUse" cy="208" cx="-116" gradientTransform="matrix(.30769 0 0 .30769 51.692 -48)" r="52">
			<stop id="stop3828" style="stop-color:#e02020;stop-opacity:0" offset="0"/>
			<stop id="stop3832" style="stop-color:#e03220;stop-opacity:.49804" offset=".75"/>
			<stop id="stop3830" style="stop-color:#e02020" offset="1"/>
		</radialGradient>
	</defs>
	<metadata id="metadata7">
		<rdf:RDF>
			<cc:Work rdf:about="">
				<dc:format>image/svg+xml</dc:format>
				<dc:type rdf:resource="http://purl.org/dc/dcmitype/StillImage"/>
				<dc:title/>
				<dc:creator>
					<cc:Agent>
						<dc:title>obnosim</dc:title>
					</cc:Agent>
				</dc:creator>
				<cc:license rdf:resource="http://creativecommons.org/licenses/by-sa/3.0/"/>
			</cc:Work>
			<cc:License rdf:about="http://creativecommons.org/licenses/by-sa/3.0/">
				<cc:permits rdf:resource="http://creativecommons.org/ns#Reproduction"/>
				<cc:permits rdf:resource="http://creativecommons.org/ns#Distribution"/>
				<cc:requires rdf:resource="http://creativecommons.org/ns#Notice"/>
				<cc:requires rdf:resource="http://creativecommons.org/ns#Attribution"/>
				<cc:permits rdf:resource="http://creativecommons.org/ns#DerivativeWorks"/>
				<cc:requires rdf:resource="http://creativecommons.org/ns#ShareAlike"/>
			</cc:License>
		</rdf:RDF>
	</metadata>
	<path id="content" style="fill:#808080" transform="matrix(.30769 0 0 .30769 87.692 -48)" d="m-64 208a52 52 0 1 1 -104 0 52 52 0 1 1 104 0z"/>
	<g id="background">
		<path id="path3838" style="fill:url(#linearGradient3820)" transform="matrix(.30769 0 0 .30769 51.692 -48)" d="m-64 208a52 52 0 1 1 -104 0 52 52 0 1 1 104 0z"/>
		<path id="path3822" style="opacity:.5;fill:url(#radialGradient3824)" d="m32 16a16 16 0 0 1 -32 0 16 16 0 1 1 32 0z"/>
	</g>
</svg>
