<?xml version="1.0" encoding="UTF-8" standalone="no"?>
<svg id="svg2" xmlns:rdf="http://www.w3.org/1999/02/22-rdf-syntax-ns#" xmlns="http://www.w3.org/2000/svg" height="20" width="20" version="1.0" xmlns:cc="http://creativecommons.org/ns#" xmlns:xlink="http://www.w3.org/1999/xlink" xmlns:dc="http://purl.org/dc/elements/1.1/">
	<metadata id="metadata7">
		<rdf:RDF>
			<cc:Work rdf:about="">
				<dc:format>image/svg+xml</dc:format>
				<dc:type rdf:resource="http://purl.org/dc/dcmitype/StillImage"/>
				<dc:title/>
				<cc:license rdf:resource="http://creativecommons.org/licenses/by-nc-sa/3.0/"/>
				<dc:creator>
					<cc:Agent>
						<dc:title>obnosim</dc:title>
					</cc:Agent>
				</dc:creator>
			</cc:Work>
			<cc:Work rdf:about="">
				<dc:format>image/svg+xml</dc:format>
				<dc:type rdf:resource="http://purl.org/dc/dcmitype/StillImage"/>
			</cc:Work>
			<cc:License rdf:about="http://creativecommons.org/licenses/by-nc-sa/3.0/">
				<cc:permits rdf:resource="http://creativecommons.org/ns#Reproduction"/>
				<cc:permits rdf:resource="http://creativecommons.org/ns#Distribution"/>
				<cc:requires rdf:resource="http://creativecommons.org/ns#Notice"/>
				<cc:requires rdf:resource="http://creativecommons.org/ns#Attribution"/>
				<cc:prohibits rdf:resource="http://creativecommons.org/ns#CommercialUse"/>
				<cc:permits rdf:resource="http://creativecommons.org/ns#DerivativeWorks"/>
				<cc:requires rdf:resource="http://creativecommons.org/ns#ShareAlike"/>
			</cc:License>
		</rdf:RDF>
	</metadata>
	<defs id="defs5">
		<linearGradient id="linearGradient4059-7" xlink:href="#linearGradient3887-2" gradientUnits="userSpaceOnUse" x2="0" y1="20"/>
		<linearGradient id="linearGradient3887-2">
			<stop id="stop3889-7" style="stop-color:#f8f8f8" offset="0"/>
			<stop id="stop3891-7" style="stop-color:#f0f0f0" offset="1"/>
		</linearGradient>
		<linearGradient id="linearGradient4061-6" xlink:href="#linearGradient3887-2" gradientUnits="userSpaceOnUse" x2="10" y1="20" x1="10"/>
	</defs>
	<rect id="base-hint-stretch-borders" style="fill:#008000" rx="0" ry="4" height="4" width="4" y="-5" x="20"/>
	<g id="base-topleft">
		<path id="rect3922" style="fill:url(#linearGradient4059-7)" d="m3 0c-1.662 0-3 1.338-3 3h3v-3z"/>
		<path id="path3914" style="opacity:0.062;fill:#000000" d="m3 0c-1.662 0-3 1.338-3 3 0-.554 1.338-1 3-1v-2z"/>
	</g>
	<g id="base-topright">
		<path id="rect3934" style="fill:url(#linearGradient4061-6)" d="m17 0v3h3c0-1.662-1.338-3-3-3z"/>
		<path id="path4028" style="opacity:0.062;fill:#000000" d="m17 0v2c1.662 0 3 .446 3 1 0-1.662-1.338-3-3-3z"/>
	</g>
	<g id="base-top">
		<g id="g4012">
			<path id="rect3936" style="fill:url(#linearGradient4061-6)" d="m3 0v3h14v-3h-14z"/>
		</g>
		<path id="rect3879" style="opacity:0.062;fill:#000000" d="m3 0v2h14v-2h-14z"/>
	</g>
	<path id="base-center" style="fill:url(#linearGradient4061-6)" d="m3 3v14h14v-14h-14z"/>
	<path id="base-left" style="fill:url(#linearGradient4061-6)" d="m0 3v14h3v-14h-3z"/>
	<path id="base-right" style="fill:url(#linearGradient4061-6)" d="m17 3v14h3v-14h-3z"/>
	<g id="base-bottomright">
		<path id="rect3932" style="fill:url(#linearGradient4061-6)" d="m17 17v3c1.662 0 3-1.338 3-3h-3z"/>
		<path id="rect3895" style="fill:#ffffff" d="m20 17c0 1.108-1.338 2-3 2v1c1.662 0 3-1.338 3-3z"/>
	</g>
	<g id="base-bottomleft">
		<path id="rect3926" style="fill:url(#linearGradient4061-6)" d="m0 17c0 1.662 1.338 3 3 3v-3h-3z"/>
		<path id="path3916" style="fill:#ffffff" d="m0 17c0 1.662 1.338 3 3 3v-1c-1.662 0-3-.892-3-2z"/>
	</g>
	<g id="base-bottom">
		<path id="rect3928" style="fill:url(#linearGradient4061-6)" d="m3 17v3h14v-3h-14z"/>
		<path id="path3918" style="opacity:.875;fill:#ffffff" d="m3 19v1h14v-1h-14z"/>
	</g>
</svg>
