<?xml version="1.0" encoding="UTF-8" standalone="no"?>
<svg id="svg11324" xmlns:rdf="http://www.w3.org/1999/02/22-rdf-syntax-ns#" xmlns="http://www.w3.org/2000/svg" height="23" width="15.344" version="1.0" xmlns:cc="http://creativecommons.org/ns#" xmlns:dc="http://purl.org/dc/elements/1.1/">
	<metadata id="metadata11329">
		<rdf:RDF>
			<cc:Work rdf:about="">
				<dc:format>image/svg+xml</dc:format>
				<dc:type rdf:resource="http://purl.org/dc/dcmitype/StillImage"/>
				<dc:title/>
				<dc:creator>
					<cc:Agent>
						<dc:title>obnosim</dc:title>
					</cc:Agent>
				</dc:creator>
				<cc:license rdf:resource="http://creativecommons.org/licenses/by-nc-sa/3.0/"/>
			</cc:Work>
			<cc:Work rdf:about="">
				<dc:format>image/svg+xml</dc:format>
				<dc:type rdf:resource="http://purl.org/dc/dcmitype/StillImage"/>
			</cc:Work>
			<cc:Work rdf:about="">
				<dc:format>image/svg+xml</dc:format>
				<dc:type rdf:resource="http://purl.org/dc/dcmitype/StillImage"/>
			</cc:Work>
			<cc:License rdf:about="http://creativecommons.org/licenses/by-nc-sa/3.0/">
				<cc:permits rdf:resource="http://creativecommons.org/ns#Reproduction"/>
				<cc:permits rdf:resource="http://creativecommons.org/ns#Distribution"/>
				<cc:requires rdf:resource="http://creativecommons.org/ns#Notice"/>
				<cc:requires rdf:resource="http://creativecommons.org/ns#Attribution"/>
				<cc:prohibits rdf:resource="http://creativecommons.org/ns#CommercialUse"/>
				<cc:permits rdf:resource="http://creativecommons.org/ns#DerivativeWorks"/>
				<cc:requires rdf:resource="http://creativecommons.org/ns#ShareAlike"/>
			</cc:License>
		</rdf:RDF>
	</metadata>
	<path id="normal-left" style="opacity:0.062;fill:#ffffff" d="m.0000095 1v5h1v-5h-1z"/>
	<path id="normal-right" style="opacity:0.062;fill:#ffffff" d="m13 1v5h-1v-5h1z"/>
	<rect id="normal-bottom" style="opacity:0.062;fill:#ffffff" height="1" width="11" y="6" x="1"/>
	<path id="normal-top" style="opacity:0.062;fill:#ffffff" d="m1 0v1h11v-1h-11z"/>
	<path id="hover-left" style="opacity:.25;fill:#ffffff" d="m.0000095 9v5h1v-5h-1z"/>
	<path id="hover-right" style="opacity:.25;fill:#ffffff" d="m13 9v5h-1v-5h1z"/>
	<path id="hover-top" style="opacity:.25;fill:#ffffff" d="m1 8v.99875h11v-.99875h-11z"/>
	<path id="active-left" style="opacity:.125;fill:#ffffff" d="m0 17v5h1v-5h-1z"/>
	<path id="active-right" style="opacity:.125;fill:#ffffff" d="m13 17v5h-1v-5h1z"/>
	<rect id="active-bottom" style="opacity:.125;fill:#ffffff" height="1.0012" width="11" y="21.999" x="1"/>
	<path id="active-top" style="opacity:.125;fill:#ffffff" d="m1 16v1h11v-1h-11z"/>
	<rect id="normal-center" style="opacity:0.062;fill:#ffffff" transform="scale(1,-1)" height="5" width="11" y="-6" x="1"/>
	<rect id="active-center" style="opacity:.125;fill:#ffffff" transform="scale(1,-1)" height="5" width="11" y="-22" x="1"/>
	<rect id="hover-center" style="opacity:.125;fill:#ffffff" transform="scale(1,-1)" height="5" width="11" y="-14" x="1"/>
	<g id="hover-bottom" transform="matrix(2.2 0 0 .99875 -1.2 -2.4469)">
		<rect id="rect3076" style="opacity:.25;fill:#ffffff" height="1.0012" width="5" y="16.467" x="1"/>
	</g>
	<path id="hover-bottomleft" style="opacity:.25;color:#000000;fill:#ffffff" d="m.0000095 14c0 .55228.44772 1 1 1v-1h-1z"/>
	<path id="hover-topleft" style="opacity:.25;color:#000000;fill:#ffffff" d="m.0000095 9c0-.55228.44772-1 1-1v1h-1z"/>
	<path id="hover-topright" style="opacity:.25;color:#000000;fill:#ffffff" d="m13 9c0-.55228-.44772-1-1-1v1h1z"/>
	<path id="hover-bottomright" style="opacity:.25;color:#000000;fill:#ffffff" d="m13 14c0 .55228-.44772 1-1 1v-1h1z"/>
	<path id="normal-bottomleft" style="opacity:0.062;color:#000000;fill:#ffffff" d="m.0000095 6c0 .55228.44772 1 1 1v-1h-1z"/>
	<path id="normal-topleft" style="opacity:0.062;color:#000000;fill:#ffffff" d="m.0000095 1c0-.55228.44772-1 1-1v1h-1z"/>
	<path id="normal-topright" style="opacity:0.062;color:#000000;fill:#ffffff" d="m13 1c0-.55228-.44772-1-1-1v1h1z"/>
	<path id="normal-bottomright" style="opacity:0.062;color:#000000;fill:#ffffff" d="m13 6c0 .55228-.44772 1-1 1v-1h1z"/>
	<path id="active-bottomleft" style="opacity:.125;color:#000000;fill:#ffffff" d="m.0000095 22c0 .55228.44772 1 1 1v-1h-1z"/>
	<path id="active-topleft" style="opacity:.125;color:#000000;fill:#ffffff" d="m.0000095 17c0-.55228.44772-1 1-1v1h-1z"/>
	<path id="active-topright" style="opacity:.125;color:#000000;fill:#ffffff" d="m13 17c0-.55228-.44772-1-1-1v1h1z"/>
	<path id="active-bottomright" style="opacity:.125;color:#000000;fill:#ffffff" d="m13 22c0 .55228-.44772 1-1 1v-1h1z"/>
</svg>
