<?xml version="1.0" encoding="UTF-8" standalone="no"?>
<!-- Created with Inkscape (http://www.inkscape.org/) -->

<svg
   xmlns:dc="http://purl.org/dc/elements/1.1/"
   xmlns:cc="http://creativecommons.org/ns#"
   xmlns:rdf="http://www.w3.org/1999/02/22-rdf-syntax-ns#"
   xmlns:svg="http://www.w3.org/2000/svg"
   xmlns="http://www.w3.org/2000/svg"
   xmlns:sodipodi="http://sodipodi.sourceforge.net/DTD/sodipodi-0.dtd"
   xmlns:inkscape="http://www.inkscape.org/namespaces/inkscape"
   version="1.0"
   width="15.34375"
   height="23"
   id="svg11324"
   inkscape:version="0.91 r13725"
   sodipodi:docname="pager.svgz">
  <sodipodi:namedview
     pagecolor="#ffffff"
     bordercolor="#666666"
     borderopacity="1"
     objecttolerance="10"
     gridtolerance="10"
     guidetolerance="10"
     inkscape:pageopacity="0"
     inkscape:pageshadow="2"
     inkscape:window-width="640"
     inkscape:window-height="480"
     id="namedview1814" />
  <metadata
     id="metadata11329">
    <rdf:RDF>
      <cc:Work
         rdf:about="">
        <dc:format>image/svg+xml</dc:format>
        <dc:type
           rdf:resource="http://purl.org/dc/dcmitype/StillImage" />
        <dc:title />
        <dc:creator>
          <cc:Agent>
            <dc:title>obnosim</dc:title>
          </cc:Agent>
        </dc:creator>
        <cc:license
           rdf:resource="http://creativecommons.org/licenses/by-nc-sa/3.0/" />
      </cc:Work>
      <cc:Work
         rdf:about="">
        <dc:format>image/svg+xml</dc:format>
        <dc:type
           rdf:resource="http://purl.org/dc/dcmitype/StillImage" />
      </cc:Work>
      <cc:Work
         rdf:about="">
        <dc:format>image/svg+xml</dc:format>
        <dc:type
           rdf:resource="http://purl.org/dc/dcmitype/StillImage" />
      </cc:Work>
      <cc:License
         rdf:about="http://creativecommons.org/licenses/by-nc-sa/3.0/">
        <cc:permits
           rdf:resource="http://creativecommons.org/ns#Reproduction" />
        <cc:permits
           rdf:resource="http://creativecommons.org/ns#Distribution" />
        <cc:requires
           rdf:resource="http://creativecommons.org/ns#Notice" />
        <cc:requires
           rdf:resource="http://creativecommons.org/ns#Attribution" />
        <cc:prohibits
           rdf:resource="http://creativecommons.org/ns#CommercialUse" />
        <cc:permits
           rdf:resource="http://creativecommons.org/ns#DerivativeWorks" />
        <cc:requires
           rdf:resource="http://creativecommons.org/ns#ShareAlike" />
      </cc:License>
    </rdf:RDF>
  </metadata>
  <defs
     id="defs11327" />
  <path
     d="m 9.5e-6,1 0,4.999999 1,0 0,-4.999999 -1,0 z"
     id="normal-left"
     style="opacity:0.06199999;fill:#ffffff;fill-opacity:1;stroke:none" />
  <path
     d="m 13.000009,1 0,4.999999 -1,0 0,-4.999999 1,0 z"
     id="normal-right"
     style="opacity:0.06199999;fill:#ffffff;fill-opacity:1;stroke:none" />
  <rect
     width="10.999968"
     height="1"
     x="1.0000094"
     y="6.0000033"
     id="normal-bottom"
     style="opacity:0.06199999;fill:#ffffff;fill-opacity:1;stroke:none" />
  <path
     d="m 1.0000095,0 0,1 10.9999735,0 0,-1 -10.9999735,0 z"
     id="normal-top"
     style="opacity:0.06199999;fill:#ffffff;fill-opacity:1;stroke:none" />
  <path
     d="m 9.5e-6,9.000001 0,4.999999 1,0 0,-4.999999 -1,0 z"
     id="hover-left"
     style="opacity:0.25;fill:#ffffff;fill-opacity:1;stroke:none" />
  <path
     d="m 13.000009,9.000001 0,4.999999 -1,0 0,-4.999999 1,0 z"
     id="hover-right"
     style="opacity:0.25;fill:#ffffff;fill-opacity:1;stroke:none" />
  <path
     d="m 1.0000095,8 0,0.998752 10.9999785,0 0,-0.998752 -10.9999785,0 z"
     id="hover-top"
     style="opacity:0.25;fill:#ffffff;fill-opacity:1;stroke:none" />
  <path
     d="m 0,17 0,4.999999 1,0 L 1,17 0,17 z"
     id="active-left"
     style="opacity:0.125;fill:#ffffff;fill-opacity:1;stroke:none" />
  <path
     d="m 12.999999,17 0,4.999999 -1,0 0,-4.999999 1,0 z"
     id="active-right"
     style="opacity:0.125;fill:#ffffff;fill-opacity:1;stroke:none" />
  <rect
     width="11.000004"
     height="1.00125"
     x="0.99999923"
     y="21.998749"
     id="active-bottom"
     style="opacity:0.125;fill:#ffffff;fill-opacity:1;stroke:none" />
  <path
     d="m 1,16 0,1 10.999977,0 0,-1 L 1,16 z"
     id="active-top"
     style="opacity:0.125;fill:#ffffff;fill-opacity:1;stroke:none" />
  <rect
     width="11.000002"
     height="5"
     x="1.0000094"
     y="-5.9999995"
     transform="scale(1,-1)"
     id="normal-center"
     style="opacity:0.06199999;fill:#ffffff;fill-opacity:1;stroke:none" />
  <rect
     width="10.999998"
     height="5"
     x="1.0000056"
     y="-22"
     transform="scale(1,-1)"
     id="active-center"
     style="opacity:0.125;fill:#ffffff;fill-opacity:1;stroke:none" />
  <rect
     width="11"
     height="5.000001"
     x="1.0000094"
     y="-14"
     transform="scale(1,-1)"
     id="hover-center"
     style="opacity:0.125;fill:#ffffff;fill-opacity:1;stroke:none" />
  <g
     transform="matrix(2.1999957,0,0,0.99875155,-1.1999862,-2.446941)"
     id="hover-bottom">
    <rect
       width="5"
       height="1.00125"
       x="1"
       y="16.467499"
       id="rect3076"
       style="opacity:0.25;fill:#ffffff;fill-opacity:1;stroke:none" />
  </g>
  <path
     d="m 9.5e-6,14 c 0,0.552285 0.4477153,1 1,1 l 0,-1 -1,0 z"
     id="hover-bottomleft"
     style="opacity:0.25;color:#000000;fill:#ffffff;fill-opacity:1;fill-rule:nonzero;stroke:none;stroke-width:1px;marker:none;visibility:visible;display:inline;overflow:visible;enable-background:accumulate" />
  <path
     d="m 9.5e-6,9 c 0,-0.552285 0.4477153,-1 1,-1 l 0,1 -1,0 z"
     id="hover-topleft"
     style="opacity:0.25;color:#000000;fill:#ffffff;fill-opacity:1;fill-rule:nonzero;stroke:none;stroke-width:1px;marker:none;visibility:visible;display:inline;overflow:visible;enable-background:accumulate" />
  <path
     d="m 13.000009,9 c 0,-0.552285 -0.447715,-1 -1,-1 l 0,1 1,0 z"
     id="hover-topright"
     style="opacity:0.25;color:#000000;fill:#ffffff;fill-opacity:1;fill-rule:nonzero;stroke:none;stroke-width:1px;marker:none;visibility:visible;display:inline;overflow:visible;enable-background:accumulate" />
  <path
     d="m 13.000009,14 c 0,0.552285 -0.447715,1 -1,1 l 0,-1 1,0 z"
     id="hover-bottomright"
     style="opacity:0.25;color:#000000;fill:#ffffff;fill-opacity:1;fill-rule:nonzero;stroke:none;stroke-width:1px;marker:none;visibility:visible;display:inline;overflow:visible;enable-background:accumulate" />
  <path
     d="m 9.5e-6,6 c 0,0.552285 0.4477153,1 1,1 l 0,-1 -1,0 z"
     id="normal-bottomleft"
     style="opacity:0.06199999;color:#000000;fill:#ffffff;fill-opacity:1;fill-rule:nonzero;stroke:none;stroke-width:1px;marker:none;visibility:visible;display:inline;overflow:visible;enable-background:accumulate" />
  <path
     d="m 9.5e-6,1 c 0,-0.552285 0.4477153,-1 1,-1 l 0,1 -1,0 z"
     id="normal-topleft"
     style="opacity:0.06199999;color:#000000;fill:#ffffff;fill-opacity:1;fill-rule:nonzero;stroke:none;stroke-width:1px;marker:none;visibility:visible;display:inline;overflow:visible;enable-background:accumulate" />
  <path
     d="m 13.000009,1 c 0,-0.552285 -0.447715,-1 -1,-1 l 0,1 1,0 z"
     id="normal-topright"
     style="opacity:0.06199999;color:#000000;fill:#ffffff;fill-opacity:1;fill-rule:nonzero;stroke:none;stroke-width:1px;marker:none;visibility:visible;display:inline;overflow:visible;enable-background:accumulate" />
  <path
     d="m 13.000009,6 c 0,0.552285 -0.447715,1 -1,1 l 0,-1 1,0 z"
     id="normal-bottomright"
     style="opacity:0.06199999;color:#000000;fill:#ffffff;fill-opacity:1;fill-rule:nonzero;stroke:none;stroke-width:1px;marker:none;visibility:visible;display:inline;overflow:visible;enable-background:accumulate" />
  <path
     d="m 9.5e-6,22 c 0,0.552285 0.4477153,1 1,1 l 0,-1 -1,0 z"
     id="active-bottomleft"
     style="opacity:0.125;color:#000000;fill:#ffffff;fill-opacity:1;fill-rule:nonzero;stroke:none;stroke-width:1px;marker:none;visibility:visible;display:inline;overflow:visible;enable-background:accumulate" />
  <path
     d="m 9.5e-6,17 c 0,-0.552285 0.4477153,-1 1,-1 l 0,1 -1,0 z"
     id="active-topleft"
     style="opacity:0.125;color:#000000;fill:#ffffff;fill-opacity:1;fill-rule:nonzero;stroke:none;stroke-width:1px;marker:none;visibility:visible;display:inline;overflow:visible;enable-background:accumulate" />
  <path
     d="m 13.000009,17 c 0,-0.552285 -0.447715,-1 -1,-1 l 0,1 1,0 z"
     id="active-topright"
     style="opacity:0.125;color:#000000;fill:#ffffff;fill-opacity:1;fill-rule:nonzero;stroke:none;stroke-width:1px;marker:none;visibility:visible;display:inline;overflow:visible;enable-background:accumulate" />
  <path
     d="m 13.000009,22 c 0,0.552285 -0.447715,1 -1,1 l 0,-1 1,0 z"
     id="active-bottomright"
     style="opacity:0.125;color:#000000;fill:#ffffff;fill-opacity:1;fill-rule:nonzero;stroke:none;stroke-width:1px;marker:none;visibility:visible;display:inline;overflow:visible;enable-background:accumulate" />
</svg>
