<?xml version="1.0" encoding="UTF-8" standalone="no"?>
<svg id="svg2396" xmlns:rdf="http://www.w3.org/1999/02/22-rdf-syntax-ns#" xmlns="http://www.w3.org/2000/svg" height="106" width="106" version="1.0" xmlns:cc="http://creativecommons.org/ns#" xmlns:xlink="http://www.w3.org/1999/xlink" xmlns:dc="http://purl.org/dc/elements/1.1/">
	<defs id="defs2398">
		<linearGradient id="linearGradient3836">
			<stop id="stop3838" style="stop-color:#000000" offset="0"/>
			<stop id="stop3840" style="stop-color:#000000;stop-opacity:0" offset="1"/>
		</linearGradient>
		<radialGradient id="radialGradient3842" xlink:href="#linearGradient3836" gradientUnits="userSpaceOnUse" cy="-76" cx="-50" gradientTransform="matrix(-1 0 0 -.08 -100 -34.08)" r="50"/>
	</defs>
	<metadata id="metadata2401">
		<rdf:RDF>
			<cc:Work rdf:about="">
				<dc:format>image/svg+xml</dc:format>
				<dc:type rdf:resource="http://purl.org/dc/dcmitype/StillImage"/>
				<dc:title/>
				<dc:creator>
					<cc:Agent>
						<dc:title>obnosim</dc:title>
					</cc:Agent>
				</dc:creator>
				<cc:license rdf:resource="http://creativecommons.org/licenses/by-nc-sa/3.0/"/>
			</cc:Work>
			<cc:License rdf:about="http://creativecommons.org/licenses/by-nc-sa/3.0/">
				<cc:permits rdf:resource="http://creativecommons.org/ns#Reproduction"/>
				<cc:permits rdf:resource="http://creativecommons.org/ns#Distribution"/>
				<cc:requires rdf:resource="http://creativecommons.org/ns#Notice"/>
				<cc:requires rdf:resource="http://creativecommons.org/ns#Attribution"/>
				<cc:prohibits rdf:resource="http://creativecommons.org/ns#CommercialUse"/>
				<cc:permits rdf:resource="http://creativecommons.org/ns#DerivativeWorks"/>
				<cc:requires rdf:resource="http://creativecommons.org/ns#ShareAlike"/>
			</cc:License>
		</rdf:RDF>
	</metadata>
	<g id="border-top" transform="translate(105,29)">
		<path id="path3827" style="opacity:.25;color:#000000;fill:#ffffff" d="m0-28c0-.55228-22.386-1-50-1s-50 .44772-50 1h100z"/>
		<rect id="rect3834" style="opacity:.25;fill:url(#radialGradient3842)" height="4" width="100" y="-28" x="-100"/>
		<path id="path3844" style="opacity:.125;color:#000000;fill:#000000" d="m0-28c0 .55228-22.386 1-50 1s-50-.44772-50-1h100z"/>
	</g>
	<g id="border-left" transform="matrix(0,-1,1,0,29,5)">
		<path id="path3853" style="opacity:.25;color:#000000;fill:#ffffff" d="m0-28c0-.55228-22.386-1-50-1s-50 .44772-50 1h100z"/>
		<rect id="rect3855" style="opacity:.25;fill:url(#radialGradient3842)" height="4" width="100" y="-28" x="-100"/>
		<path id="path3857" style="opacity:.125;color:#000000;fill:#000000" d="m0-28c0 .55228-22.386 1-50 1s-50-.44772-50-1h100z"/>
	</g>
	<g id="border-bottom" transform="matrix(-1,0,0,-1,1,77)">
		<path id="path3863" style="opacity:.25;color:#000000;fill:#ffffff" d="m0-28c0-.55228-22.386-1-50-1s-50 .44772-50 1h100z"/>
		<rect id="rect3865" style="opacity:.25;fill:url(#radialGradient3842)" height="4" width="100" y="-28" x="-100"/>
		<path id="path3867" style="opacity:.125;color:#000000;fill:#000000" d="m0-28c0 .55228-22.386 1-50 1s-50-.44772-50-1h100z"/>
	</g>
	<g id="border-right" transform="matrix(0,1,-1,0,77,101)">
		<path id="path3871" style="opacity:.25;color:#000000;fill:#ffffff" d="m0-28c0-.55228-22.386-1-50-1s-50 .44772-50 1h100z"/>
		<rect id="rect3873" style="opacity:.25;fill:url(#radialGradient3842)" height="4" width="100" y="-28" x="-100"/>
		<path id="path3875" style="opacity:.125;color:#000000;fill:#000000" d="m0-28c0 .55228-22.386 1-50 1s-50-.44772-50-1h100z"/>
	</g>
</svg>
