<?xml version="1.0" encoding="UTF-8" standalone="no"?>
<!-- Created with Inkscape (http://www.inkscape.org/) -->

<svg
   xmlns:dc="http://purl.org/dc/elements/1.1/"
   xmlns:cc="http://creativecommons.org/ns#"
   xmlns:rdf="http://www.w3.org/1999/02/22-rdf-syntax-ns#"
   xmlns:svg="http://www.w3.org/2000/svg"
   xmlns="http://www.w3.org/2000/svg"
   xmlns:sodipodi="http://sodipodi.sourceforge.net/DTD/sodipodi-0.dtd"
   xmlns:inkscape="http://www.inkscape.org/namespaces/inkscape"
   version="1.1"
   width="39.000015"
   height="11"
   id="svg4342"
   inkscape:version="0.91 r13725"
   sodipodi:docname="scrollbar.svgz">
  <sodipodi:namedview
     pagecolor="#ffffff"
     bordercolor="#666666"
     borderopacity="1"
     objecttolerance="10"
     gridtolerance="10"
     guidetolerance="10"
     inkscape:pageopacity="0"
     inkscape:pageshadow="2"
     inkscape:window-width="640"
     inkscape:window-height="480"
     id="namedview2222" />
  <metadata
     id="metadata204">
    <rdf:RDF>
      <cc:Work
         rdf:about="">
        <dc:format>image/svg+xml</dc:format>
        <dc:type
           rdf:resource="http://purl.org/dc/dcmitype/StillImage" />
        <dc:title />
        <dc:creator>
          <cc:Agent>
            <dc:title>obnosim</dc:title>
          </cc:Agent>
        </dc:creator>
        <cc:license
           rdf:resource="http://creativecommons.org/licenses/by-nc-sa/3.0/" />
      </cc:Work>
      <cc:License
         rdf:about="http://creativecommons.org/licenses/by-nc-sa/3.0/">
        <cc:permits
           rdf:resource="http://creativecommons.org/ns#Reproduction" />
        <cc:permits
           rdf:resource="http://creativecommons.org/ns#Distribution" />
        <cc:requires
           rdf:resource="http://creativecommons.org/ns#Notice" />
        <cc:requires
           rdf:resource="http://creativecommons.org/ns#Attribution" />
        <cc:prohibits
           rdf:resource="http://creativecommons.org/ns#CommercialUse" />
        <cc:permits
           rdf:resource="http://creativecommons.org/ns#DerivativeWorks" />
        <cc:requires
           rdf:resource="http://creativecommons.org/ns#ShareAlike" />
      </cc:License>
    </rdf:RDF>
  </metadata>
  <defs
     id="defs4344" />
  <rect
     width="7"
     height="7"
     x="-40.875"
     y="-8.625"
     id="hint-scrollbar-size"
     style="fill:#278000;fill-opacity:1;fill-rule:nonzero;stroke:none" />
  <rect
     width="3"
     height="5"
     x="9.0734864e-07"
     y="3"
     id="slider-left"
     style="opacity:0.375;fill:#ffffff;fill-opacity:1;fill-rule:nonzero;stroke:none" />
  <rect
     width="3"
     height="5"
     x="7.9999971"
     y="3"
     id="slider-right"
     style="opacity:0.375;fill:#ffffff;fill-opacity:1;fill-rule:nonzero;stroke:none" />
  <rect
     width="5"
     height="5"
     x="3.000001"
     y="3"
     id="slider-center"
     style="opacity:0.375;fill:#ffffff;fill-opacity:1;fill-rule:nonzero;stroke:none" />
  <path
     d="M 3,0 C 1.338,0 0,1.338 0,3 L 3,3 3,0 z"
     id="slider-topleft"
     style="opacity:0.375;fill:#ffffff;fill-opacity:1;fill-rule:nonzero;stroke:none" />
  <path
     d="m 8,0 c 1.662,0 3,1.338 3,3 L 8,3 8,0 z"
     id="slider-topright"
     style="opacity:0.375;fill:#ffffff;fill-opacity:1;fill-rule:nonzero;stroke:none" />
  <rect
     width="5"
     height="3"
     x="3.000001"
     y="0"
     id="slider-top"
     style="opacity:0.375;fill:#ffffff;fill-opacity:1;fill-rule:nonzero;stroke:none" />
  <path
     d="M 3,11 C 1.338,11 0,9.662 0,8 l 3,0 0,3 z"
     id="slider-bottomleft"
     style="opacity:0.375;fill:#ffffff;fill-opacity:1;fill-rule:nonzero;stroke:none" />
  <path
     d="m 8,11 c 1.662,0 3,-1.338 3,-3 l -3,0 0,3 z"
     id="slider-bottomright"
     style="opacity:0.375;fill:#ffffff;fill-opacity:1;fill-rule:nonzero;stroke:none" />
  <rect
     width="5"
     height="3"
     x="3.000001"
     y="8"
     id="slider-bottom"
     style="opacity:0.375;fill:#ffffff;fill-opacity:1;fill-rule:nonzero;stroke:none" />
  <rect
     width="5"
     height="5"
     x="17"
     y="3"
     id="mouseover-slider-center"
     style="opacity:0.5;fill:#ffffff;fill-opacity:1;fill-rule:nonzero;stroke:none" />
  <rect
     width="5"
     height="3"
     x="17"
     y="0"
     id="mouseover-slider-top"
     style="opacity:0.5;fill:#ffffff;fill-opacity:1;fill-rule:nonzero;stroke:none" />
  <rect
     width="5"
     height="3"
     x="17"
     y="8"
     id="mouseover-slider-bottom"
     style="opacity:0.5;fill:#ffffff;fill-opacity:1;fill-rule:nonzero;stroke:none" />
  <rect
     width="3"
     height="5"
     x="14.000001"
     y="3"
     id="mouseover-slider-left"
     style="opacity:0.5;fill:#ffffff;fill-opacity:1;fill-rule:nonzero;stroke:none" />
  <rect
     width="3"
     height="5"
     x="22"
     y="3"
     id="mouseover-slider-right"
     style="opacity:0.5;fill:#ffffff;fill-opacity:1;fill-rule:nonzero;stroke:none" />
  <path
     d="m 16.999999,0 c -1.662,0 -3,1.338 -3,3 l 3,0 0,-3 z"
     id="mouseover-slider-topleft"
     style="opacity:0.5;fill:#ffffff;fill-opacity:1;fill-rule:nonzero;stroke:none" />
  <path
     d="m 21.999999,0 c 1.662,0 3,1.338 3,3 l -3,0 0,-3 z"
     id="mouseover-slider-topright"
     style="opacity:0.5;fill:#ffffff;fill-opacity:1;fill-rule:nonzero;stroke:none" />
  <path
     d="m 16.999999,11 c -1.662,0 -3,-1.338 -3,-3 l 3,0 0,3 z"
     id="mouseover-slider-bottomleft"
     style="opacity:0.5;fill:#ffffff;fill-opacity:1;fill-rule:nonzero;stroke:none" />
  <path
     d="m 21.999999,11 c 1.662,0 3,-1.338 3,-3 l -3,0 0,3 z"
     id="mouseover-slider-bottomright"
     style="opacity:0.5;fill:#ffffff;fill-opacity:1;fill-rule:nonzero;stroke:none" />
  <rect
     width="3"
     height="5"
     x="27.999994"
     y="3"
     id="sunken-slider-left"
     style="opacity:0.25;fill:#ffffff;fill-opacity:1;fill-rule:nonzero;stroke:none" />
  <rect
     width="3"
     height="5"
     x="36.000015"
     y="3"
     id="sunken-slider-right"
     style="opacity:0.25;fill:#ffffff;fill-opacity:1;fill-rule:nonzero;stroke:none" />
  <rect
     width="5"
     height="5"
     x="31.000013"
     y="3"
     id="sunken-slider-center"
     style="opacity:0.25;fill:#ffffff;fill-opacity:1;fill-rule:nonzero;stroke:none" />
  <path
     d="m 31,0 c -1.662,0 -3,1.338 -3,3 l 3,0 0,-3 z"
     id="sunken-slider-topleft"
     style="opacity:0.25;fill:#ffffff;fill-opacity:1;fill-rule:nonzero;stroke:none" />
  <path
     d="m 36,0 c 1.662,0 3,1.338 3,3 l -3,0 0,-3 z"
     id="sunken-slider-topright"
     style="opacity:0.25;fill:#ffffff;fill-opacity:1;fill-rule:nonzero;stroke:none" />
  <rect
     width="5"
     height="3"
     x="31.000013"
     y="0"
     id="sunken-slider-top"
     style="opacity:0.25;fill:#ffffff;fill-opacity:1;fill-rule:nonzero;stroke:none" />
  <path
     d="M 31,11 C 29.338,11 28,9.662 28,8 l 3,0 0,3 z"
     id="sunken-slider-bottomleft"
     style="opacity:0.25;fill:#ffffff;fill-opacity:1;fill-rule:nonzero;stroke:none" />
  <path
     d="m 36,11 c 1.662,0 3,-1.338 3,-3 l -3,0 0,3 z"
     id="sunken-slider-bottomright"
     style="opacity:0.25;fill:#ffffff;fill-opacity:1;fill-rule:nonzero;stroke:none" />
  <rect
     width="5"
     height="3"
     x="31.000013"
     y="8"
     id="sunken-slider-bottom"
     style="opacity:0.25;fill:#ffffff;fill-opacity:1;fill-rule:nonzero;stroke:none" />
</svg>
