<?xml version="1.0" encoding="UTF-8" standalone="no"?>
<svg id="svg4342" xmlns:rdf="http://www.w3.org/1999/02/22-rdf-syntax-ns#" xmlns="http://www.w3.org/2000/svg" height="11" width="39" version="1.1" xmlns:cc="http://creativecommons.org/ns#" xmlns:dc="http://purl.org/dc/elements/1.1/">
	<metadata id="metadata204">
		<rdf:RDF>
			<cc:Work rdf:about="">
				<dc:format>image/svg+xml</dc:format>
				<dc:type rdf:resource="http://purl.org/dc/dcmitype/StillImage"/>
				<dc:title/>
				<dc:creator>
					<cc:Agent>
						<dc:title>obnosim</dc:title>
					</cc:Agent>
				</dc:creator>
				<cc:license rdf:resource="http://creativecommons.org/licenses/by-nc-sa/3.0/"/>
			</cc:Work>
			<cc:License rdf:about="http://creativecommons.org/licenses/by-nc-sa/3.0/">
				<cc:permits rdf:resource="http://creativecommons.org/ns#Reproduction"/>
				<cc:permits rdf:resource="http://creativecommons.org/ns#Distribution"/>
				<cc:requires rdf:resource="http://creativecommons.org/ns#Notice"/>
				<cc:requires rdf:resource="http://creativecommons.org/ns#Attribution"/>
				<cc:prohibits rdf:resource="http://creativecommons.org/ns#CommercialUse"/>
				<cc:permits rdf:resource="http://creativecommons.org/ns#DerivativeWorks"/>
				<cc:requires rdf:resource="http://creativecommons.org/ns#ShareAlike"/>
			</cc:License>
		</rdf:RDF>
	</metadata>
	<rect id="hint-scrollbar-size" style="fill:#278000" height="7" width="7" y="-8.625" x="-40.875"/>
	<rect id="slider-left" style="opacity:.375;fill:#ffffff" height="5" width="3" y="3" x="9.0735e-7"/>
	<rect id="slider-right" style="opacity:.375;fill:#ffffff" height="5" width="3" y="3" x="8"/>
	<rect id="slider-center" style="opacity:.375;fill:#ffffff" height="5" width="5" y="3" x="3"/>
	<path id="slider-topleft" style="opacity:.375;fill:#ffffff" d="m3 0c-1.662 0-3 1.338-3 3h3v-3z"/>
	<path id="slider-topright" style="opacity:.375;fill:#ffffff" d="m8 0c1.662 0 3 1.338 3 3h-3v-3z"/>
	<rect id="slider-top" style="opacity:.375;fill:#ffffff" height="3" width="5" y="0" x="3"/>
	<path id="slider-bottomleft" style="opacity:.375;fill:#ffffff" d="m3 11c-1.662 0-3-1.338-3-3h3v3z"/>
	<path id="slider-bottomright" style="opacity:.375;fill:#ffffff" d="m8 11c1.662 0 3-1.338 3-3h-3v3z"/>
	<rect id="slider-bottom" style="opacity:.375;fill:#ffffff" height="3" width="5" y="8" x="3"/>
	<rect id="mouseover-slider-center" style="opacity:.5;fill:#ffffff" height="5" width="5" y="3" x="17"/>
	<rect id="mouseover-slider-top" style="opacity:.5;fill:#ffffff" height="3" width="5" y="0" x="17"/>
	<rect id="mouseover-slider-bottom" style="opacity:.5;fill:#ffffff" height="3" width="5" y="8" x="17"/>
	<rect id="mouseover-slider-left" style="opacity:.5;fill:#ffffff" height="5" width="3" y="3" x="14"/>
	<rect id="mouseover-slider-right" style="opacity:.5;fill:#ffffff" height="5" width="3" y="3" x="22"/>
	<path id="mouseover-slider-topleft" style="opacity:.5;fill:#ffffff" d="m17 0c-1.662 0-3 1.338-3 3h3v-3z"/>
	<path id="mouseover-slider-topright" style="opacity:.5;fill:#ffffff" d="m22 0c1.662 0 3 1.338 3 3h-3v-3z"/>
	<path id="mouseover-slider-bottomleft" style="opacity:.5;fill:#ffffff" d="m17 11c-1.662 0-3-1.338-3-3h3v3z"/>
	<path id="mouseover-slider-bottomright" style="opacity:.5;fill:#ffffff" d="m22 11c1.662 0 3-1.338 3-3h-3v3z"/>
	<rect id="sunken-slider-left" style="opacity:.25;fill:#ffffff" height="5" width="3" y="3" x="28"/>
	<rect id="sunken-slider-right" style="opacity:.25;fill:#ffffff" height="5" width="3" y="3" x="36"/>
	<rect id="sunken-slider-center" style="opacity:.25;fill:#ffffff" height="5" width="5" y="3" x="31"/>
	<path id="sunken-slider-topleft" style="opacity:.25;fill:#ffffff" d="m31 0c-1.662 0-3 1.338-3 3h3v-3z"/>
	<path id="sunken-slider-topright" style="opacity:.25;fill:#ffffff" d="m36 0c1.662 0 3 1.338 3 3h-3v-3z"/>
	<rect id="sunken-slider-top" style="opacity:.25;fill:#ffffff" height="3" width="5" y="0" x="31"/>
	<path id="sunken-slider-bottomleft" style="opacity:.25;fill:#ffffff" d="m31 11c-1.662 0-3-1.338-3-3h3v3z"/>
	<path id="sunken-slider-bottomright" style="opacity:.25;fill:#ffffff" d="m36 11c1.662 0 3-1.338 3-3h-3v3z"/>
	<rect id="sunken-slider-bottom" style="opacity:.25;fill:#ffffff" height="3" width="5" y="8" x="31"/>
</svg>
