<?xml version="1.0" encoding="UTF-8" standalone="no"?>
<svg id="svg2396" xmlns:rdf="http://www.w3.org/1999/02/22-rdf-syntax-ns#" xmlns="http://www.w3.org/2000/svg" height="40" width="40" version="1.0" xmlns:cc="http://creativecommons.org/ns#" xmlns:xlink="http://www.w3.org/1999/xlink" xmlns:dc="http://purl.org/dc/elements/1.1/">
	<defs id="defs2398">
		<linearGradient id="linearGradient3836">
			<stop id="stop3838" style="stop-color:#000000" offset="0"/>
			<stop id="stop3840" style="stop-color:#000000;stop-opacity:0" offset="1"/>
		</linearGradient>
		<radialGradient id="radialGradient4263" xlink:href="#linearGradient3836" gradientUnits="userSpaceOnUse" cy="-118" cx="35" gradientTransform="matrix(1 0 0 .6 0 -47.2)" r="15"/>
	</defs>
	<metadata id="metadata2401">
		<rdf:RDF>
			<cc:Work rdf:about="">
				<dc:format>image/svg+xml</dc:format>
				<dc:type rdf:resource="http://purl.org/dc/dcmitype/StillImage"/>
				<dc:title/>
				<dc:creator>
					<cc:Agent>
						<dc:title>obnosim</dc:title>
					</cc:Agent>
				</dc:creator>
				<cc:license rdf:resource="http://creativecommons.org/licenses/by-nc-sa/3.0/"/>
			</cc:Work>
			<cc:License rdf:about="http://creativecommons.org/licenses/by-nc-sa/3.0/">
				<cc:permits rdf:resource="http://creativecommons.org/ns#Reproduction"/>
				<cc:permits rdf:resource="http://creativecommons.org/ns#Distribution"/>
				<cc:requires rdf:resource="http://creativecommons.org/ns#Notice"/>
				<cc:requires rdf:resource="http://creativecommons.org/ns#Attribution"/>
				<cc:prohibits rdf:resource="http://creativecommons.org/ns#CommercialUse"/>
				<cc:permits rdf:resource="http://creativecommons.org/ns#DerivativeWorks"/>
				<cc:requires rdf:resource="http://creativecommons.org/ns#ShareAlike"/>
			</cc:License>
		</rdf:RDF>
	</metadata>
	<g id="border-top" transform="matrix(1 0 0 .5 -15 59.5)">
		<rect id="rect4243" style="opacity:0.187;fill:none" height="10" width="30" y="-119" x="20"/>
		<path id="path4255" style="opacity:.375;fill-rule:evenodd;fill:url(#radialGradient4263)" d="m20-118a15 9 0 0 0 15 9 15 9 0 0 0 15 -9 15 1 0 0 1 -15 1 15 1 0 0 1 -15 -1z"/>
		<ellipse id="path4245" style="opacity:0.187;fill-rule:evenodd;fill:#FFFFFF" rx="15" ry="1" cy="-118" cx="35"/>
		<path id="path4247" style="opacity:0.187;fill-rule:evenodd;fill:#000000" d="m20-118a15 3 0 0 0 15 3 15 3 0 0 0 15 -3 15 1 0 0 1 -15 1 15 1 0 0 1 -15 -1z"/>
	</g>
	<g id="border-left" transform="matrix(0 -1 .5 0 59.5 55)">
		<rect id="rect4300" style="opacity:0.187;fill:none" height="10" width="30" y="-119" x="20"/>
		<path id="path4302" style="opacity:.375;fill:url(#radialGradient4263);fill-rule:evenodd" d="m20-118a15 9 0 0 0 15 9 15 9 0 0 0 15 -9 15 1 0 0 1 -15 1 15 1 0 0 1 -15 -1z"/>
		<ellipse id="ellipse4304" style="opacity:0.187;fill-rule:evenodd;fill:#FFFFFF" rx="15" ry="1" cy="-118" cx="35"/>
		<path id="path4306" style="opacity:0.187;fill-rule:evenodd;fill:#000000" d="m20-118a15 3 0 0 0 15 3 15 3 0 0 0 15 -3 15 1 0 0 1 -15 1 15 1 0 0 1 -15 -1z"/>
	</g>
	<g id="border-right" transform="matrix(0 -1 -.5 0 -19.5 55)">
		<rect id="rect4312" style="opacity:0.187;fill:none" height="10" width="30" y="-119" x="20"/>
		<path id="path4314" style="opacity:.375;fill:url(#radialGradient4263);fill-rule:evenodd" d="m20-118a15 9 0 0 0 15 9 15 9 0 0 0 15 -9 15 1 0 0 1 -15 1 15 1 0 0 1 -15 -1z"/>
		<ellipse id="ellipse4316" style="opacity:0.187;fill-rule:evenodd;fill:#FFFFFF" rx="15" ry="1" cy="-118" cx="35"/>
		<path id="path4318" style="opacity:0.187;fill-rule:evenodd;fill:#000000" d="m20-118a15 3 0 0 0 15 3 15 3 0 0 0 15 -3 15 1 0 0 1 -15 1 15 1 0 0 1 -15 -1z"/>
	</g>
	<g id="border-bottom" transform="matrix(1 0 0 -.5 -15 -19.5)">
		<rect id="rect4324" style="opacity:0.187;fill:none" height="10" width="30" y="-119" x="20"/>
		<path id="path4326" style="opacity:.375;fill:url(#radialGradient4263);fill-rule:evenodd" d="m20-118a15 9 0 0 0 15 9 15 9 0 0 0 15 -9 15 1 0 0 1 -15 1 15 1 0 0 1 -15 -1z"/>
		<ellipse id="ellipse4328" style="opacity:0.187;fill-rule:evenodd;fill:#FFFFFF" rx="15" ry="1" cy="-118" cx="35"/>
		<path id="path4330" style="opacity:0.187;fill-rule:evenodd;fill:#000000" d="m20-118a15 3 0 0 0 15 3 15 3 0 0 0 15 -3 15 1 0 0 1 -15 1 15 1 0 0 1 -15 -1z"/>
	</g>
</svg>
