<?xml version="1.0" encoding="UTF-8" standalone="no"?>
<svg
   xmlns:dc="http://purl.org/dc/elements/1.1/"
   xmlns:cc="http://creativecommons.org/ns#"
   xmlns:rdf="http://www.w3.org/1999/02/22-rdf-syntax-ns#"
   xmlns:svg="http://www.w3.org/2000/svg"
   xmlns="http://www.w3.org/2000/svg"
   xmlns:xlink="http://www.w3.org/1999/xlink"
   xmlns:sodipodi="http://sodipodi.sourceforge.net/DTD/sodipodi-0.dtd"
   xmlns:inkscape="http://www.inkscape.org/namespaces/inkscape"
   id="svg2"
   height="39"
   width="11"
   version="1.1"
   inkscape:version="0.91 r13725"
   sodipodi:docname="slider.svg">
  <sodipodi:namedview
     pagecolor="#323232"
     bordercolor="#666666"
     borderopacity="1"
     objecttolerance="10"
     gridtolerance="10"
     guidetolerance="10"
     inkscape:pageopacity="0"
     inkscape:pageshadow="2"
     inkscape:window-width="640"
     inkscape:window-height="480"
     id="namedview39"
     showgrid="false"
     showborder="false"
     inkscape:zoom="5.6568542"
     inkscape:cx="87.689153"
     inkscape:cy="5.2808006"
     inkscape:current-layer="horizontal-slider-handle">
    <inkscape:grid
       type="xygrid"
       id="grid4167" />
  </sodipodi:namedview>
  <defs
     id="defs4">
    <linearGradient
       inkscape:collect="always"
       id="linearGradient4256">
      <stop
         style="stop-color:#e0e0e0;stop-opacity:1;"
         offset="0"
         id="stop4258" />
      <stop
         style="stop-color:#c0c0c0;stop-opacity:1"
         offset="1"
         id="stop4260" />
    </linearGradient>
    <linearGradient
       inkscape:collect="always"
       id="linearGradient4248">
      <stop
         style="stop-color:#ffffff;stop-opacity:1"
         offset="0"
         id="stop4250" />
      <stop
         style="stop-color:#e0e0e0;stop-opacity:1"
         offset="1"
         id="stop4252" />
    </linearGradient>
    <linearGradient
       inkscape:collect="always"
       id="linearGradient4179">
      <stop
         style="stop-color:#000000;stop-opacity:1;"
         offset="0"
         id="stop4181" />
      <stop
         id="stop4187"
         offset="0.5"
         style="stop-color:#000000;stop-opacity:1" />
      <stop
         style="stop-color:#000000;stop-opacity:0;"
         offset="1"
         id="stop4183" />
    </linearGradient>
    <linearGradient
       id="linearGradient4748">
      <stop
         id="stop4750"
         style="stop-color:#000000"
         offset="0" />
      <stop
         id="stop4752"
         style="stop-color:#000000;stop-opacity:.50196"
         offset="1" />
    </linearGradient>
    <linearGradient
       id="linearGradient4754"
       y2="50"
       xlink:href="#linearGradient4748"
       gradientUnits="userSpaceOnUse"
       x2="-93"
       gradientTransform="translate(98 -14)"
       y1="17"
       x1="-93" />
    <linearGradient
       id="linearGradient4762"
       y2="50"
       xlink:href="#linearGradient4748"
       gradientUnits="userSpaceOnUse"
       x2="-96"
       gradientTransform="translate(98 -14)"
       y1="17"
       x1="-96" />
    <linearGradient
       id="linearGradient4770"
       y2="50"
       xlink:href="#linearGradient4748"
       gradientUnits="userSpaceOnUse"
       x2="-89"
       gradientTransform="translate(98 -14)"
       y1="17"
       x1="-89" />
    <radialGradient
       inkscape:collect="always"
       xlink:href="#linearGradient4179"
       id="radialGradient4185"
       cx="5.5"
       cy="22.5"
       fx="5.5"
       fy="21.5"
       r="5.5"
       gradientUnits="userSpaceOnUse" />
    <radialGradient
       inkscape:collect="always"
       xlink:href="#linearGradient4179"
       id="radialGradient4202"
       gradientUnits="userSpaceOnUse"
       cx="5.5"
       cy="22.5"
       fx="5.5"
       fy="21.5"
       r="5.5" />
    <radialGradient
       inkscape:collect="always"
       xlink:href="#linearGradient4179"
       id="radialGradient4210"
       gradientUnits="userSpaceOnUse"
       cx="5.5"
       cy="22.5"
       fx="5.5"
       fy="21.5"
       r="5.5" />
    <radialGradient
       inkscape:collect="always"
       xlink:href="#linearGradient4179"
       id="radialGradient4218"
       gradientUnits="userSpaceOnUse"
       cx="5.5"
       cy="22.5"
       fx="5.5"
       fy="21.5"
       r="5.5" />
    <radialGradient
       inkscape:collect="always"
       xlink:href="#linearGradient4179"
       id="radialGradient4226"
       gradientUnits="userSpaceOnUse"
       cx="5.5"
       cy="22.5"
       fx="5.5"
       fy="21.5"
       r="5.5" />
    <radialGradient
       inkscape:collect="always"
       xlink:href="#linearGradient4179"
       id="radialGradient4234"
       gradientUnits="userSpaceOnUse"
       cx="5.5"
       cy="22.5"
       fx="5.5"
       fy="21.5"
       r="5.5" />
    <linearGradient
       inkscape:collect="always"
       xlink:href="#linearGradient4248"
       id="linearGradient4254"
       x1="-92.5"
       y1="21"
       x2="-92.5"
       y2="32"
       gradientUnits="userSpaceOnUse" />
    <linearGradient
       inkscape:collect="always"
       xlink:href="#linearGradient4256"
       id="linearGradient4262"
       x1="-92.5"
       y1="21"
       x2="-92.5"
       y2="32"
       gradientUnits="userSpaceOnUse" />
    <linearGradient
       inkscape:collect="always"
       xlink:href="#linearGradient4248"
       id="linearGradient4270"
       x1="-92.5"
       y1="21"
       x2="-92.5"
       y2="32"
       gradientUnits="userSpaceOnUse" />
    <linearGradient
       inkscape:collect="always"
       xlink:href="#linearGradient4256"
       id="linearGradient4278"
       x1="-92.5"
       y1="21"
       x2="-92.5"
       y2="32"
       gradientUnits="userSpaceOnUse" />
  </defs>
  <metadata
     id="metadata7">
    <rdf:RDF>
      <cc:Work
         rdf:about="">
        <dc:format>image/svg+xml</dc:format>
        <dc:type
           rdf:resource="http://purl.org/dc/dcmitype/StillImage" />
        <dc:title></dc:title>
        <dc:creator>
          <cc:Agent>
            <dc:title>obnosim</dc:title>
          </cc:Agent>
        </dc:creator>
        <cc:license
           rdf:resource="http://creativecommons.org/licenses/by-nc-sa/3.0/" />
      </cc:Work>
      <cc:License
         rdf:about="http://creativecommons.org/licenses/by-nc-sa/3.0/">
        <cc:permits
           rdf:resource="http://creativecommons.org/ns#Reproduction" />
        <cc:permits
           rdf:resource="http://creativecommons.org/ns#Distribution" />
        <cc:requires
           rdf:resource="http://creativecommons.org/ns#Notice" />
        <cc:requires
           rdf:resource="http://creativecommons.org/ns#Attribution" />
        <cc:prohibits
           rdf:resource="http://creativecommons.org/ns#CommercialUse" />
        <cc:permits
           rdf:resource="http://creativecommons.org/ns#DerivativeWorks" />
        <cc:requires
           rdf:resource="http://creativecommons.org/ns#ShareAlike" />
      </cc:License>
    </rdf:RDF>
  </metadata>
  <rect
     id="hint-stretch-borders"
     style="opacity:.8;fill:#008000"
     ry="0"
     height="5"
     width="5"
     y="-68"
     x="33" />
  <rect
     id="groove-center"
     style="opacity:0.5;fill:#000000;fill-opacity:1"
     height="33"
     width="5"
     y="3"
     x="3" />
  <rect
     id="groove-left"
     style="opacity:0.5;fill:#000000;fill-opacity:1"
     height="33"
     width="3"
     y="3"
     x="0" />
  <rect
     id="groove-right"
     style="opacity:0.5;fill:#000000;fill-opacity:1"
     height="33"
     width="3"
     y="3"
     x="8" />
  <g
     id="groove-top"
     transform="translate(98 -14)">
    <rect
       id="rect4706"
       style="opacity:.5;fill:#000000"
       height="3"
       width="5"
       y="14"
       x="-95" />
    <path
       id="rect4727"
       style="opacity:.5;fill:#000000"
       d="m-95 14v1h5v-1h-5z" />
  </g>
  <g
     id="groove-topleft"
     transform="translate(98 -14)">
    <path
       id="rect4716"
       style="opacity:.5;fill:#000000"
       d="m-95 14c-1.662 0-3 1.338-3 3h3v-3z" />
    <path
       id="path4729"
       style="opacity:.5;fill:#000000"
       d="m-95 14c-1.662 0-3 1.338-3 3 0-1.108 1.338-2 3-2v-1z" />
  </g>
  <g
     id="groove-topright"
     transform="translate(98 -14)">
    <path
       id="path4721"
       style="opacity:.5;fill:#000000"
       d="m-90 14c1.662 0 3 1.338 3 3h-3v-3z" />
    <path
       id="path4731"
       style="opacity:.5;fill:#000000"
       d="m-90 14v1c1.662 0 3 0.892 3 2 0-1.662-1.338-3-3-3z" />
  </g>
  <g
     id="groove-bottom"
     transform="translate(98 -14)">
    <rect
       id="rect4708"
       style="opacity:0.5;fill:#000000;fill-opacity:1"
       height="3"
       width="5"
       y="50"
       x="-95" />
    <path
       id="path4742"
       style="opacity:0.188;fill:#ffffff"
       d="m-95 53v-1h5v1h-5z" />
  </g>
  <g
     id="groove-bottomleft"
     transform="translate(98 -14)">
    <path
       id="path4723"
       style="opacity:0.5;fill:#000000;fill-opacity:1"
       d="m-95 53c-1.662 0-3-1.338-3-3h3v3z" />
    <path
       id="path4744"
       style="opacity:0.188;fill:#ffffff"
       d="m-95 53c-1.662 0-3-1.338-3-3 0 1.108 1.338 2 3 2v1z" />
  </g>
  <g
     id="groove-bottomright"
     transform="translate(98 -14)">
    <path
       id="path4725"
       style="opacity:0.5;fill:#000000;fill-opacity:1"
       d="m-90 53c1.662 0 3-1.338 3-3h-3v3z" />
    <path
       id="path4746"
       style="opacity:0.188;fill:#ffffff"
       d="m-90 53v-1c1.662 0 3-0.892 3-2 0 1.662-1.338 3-3 3z" />
  </g>
  <g
     id="vertical-slider-hover">
    <path
       inkscape:connector-curvature="0"
       id="path4169"
       d="m 0,11 0,11.5 a 5.5,5.5 0 0 0 11,0 L 11,11 0,11 Z"
       style="color:#000000;opacity:0.375;fill:url(#radialGradient4185);fill-opacity:1" />
    <path
       transform="translate(98,-7)"
       d="m -87,26.5 a 5.5,5.5 0 1 1 -11,0 5.5,5.5 0 1 1 11,0 z"
       style="color:#000000;opacity:1;fill:url(#linearGradient4254);fill-opacity:1"
       id="path4236"
       inkscape:connector-curvature="0" />
  </g>
  <g
     id="vertical-slider-handle"
     transform="translate(-13,0)">
    <path
       style="color:#000000;opacity:0.375;fill:url(#radialGradient4202);fill-opacity:1"
       d="m 0,11 0,11.5 a 5.5,5.5 0 0 0 11,0 L 11,11 0,11 Z"
       id="path4198"
       inkscape:connector-curvature="0" />
    <path
       id="path4200"
       style="color:#000000;opacity:1;fill:url(#linearGradient4262)"
       d="m -87,26.5 a 5.5,5.5 0 1 1 -11,0 5.5,5.5 0 1 1 11,0 z"
       transform="translate(98,-7)"
       inkscape:connector-curvature="0" />
  </g>
  <g
     transform="translate(-26,0)"
     id="vertical-slider-focus">
    <path
       inkscape:connector-curvature="0"
       id="path4206"
       d="m 0,11 0,11.5 a 5.5,5.5 0 0 0 11,0 L 11,11 0,11 Z"
       style="color:#000000;opacity:0.375;fill:url(#radialGradient4210);fill-opacity:1" />
    <path
       inkscape:connector-curvature="0"
       transform="translate(98,-7)"
       d="m -87,26.5 a 5.5,5.5 0 1 1 -11,0 5.5,5.5 0 1 1 11,0 z"
       style="color:#000000;opacity:1;fill:#ffffff;fill-opacity:1"
       id="path4208" />
  </g>
  <g
     transform="translate(13,-13)"
     id="horizontal-slider-handle">
    <path
       inkscape:connector-curvature="0"
       id="path4222"
       d="m 0,11 0,11.5 a 5.5,5.5 0 0 0 11,0 L 11,11 0,11 Z"
       style="color:#000000;opacity:0.375;fill:url(#radialGradient4226);fill-opacity:1" />
    <path
       inkscape:connector-curvature="0"
       transform="translate(98,-7)"
       d="m -87,26.5 a 5.5,5.5 0 1 1 -11,0 5.5,5.5 0 1 1 11,0 z"
       style="color:#000000;opacity:1;fill:url(#linearGradient4278);fill-opacity:1.0"
       id="path4224" />
  </g>
  <g
     id="horizontal-slider-hover"
     transform="translate(13,0)">
    <path
       style="color:#000000;opacity:0.375;fill:url(#radialGradient4218);fill-opacity:1"
       d="m 0,11 0,11.5 a 5.5,5.5 0 0 0 11,0 L 11,11 0,11 Z"
       id="path4214"
       inkscape:connector-curvature="0" />
    <path
       id="path4216"
       style="color:#000000;opacity:1;fill:url(#linearGradient4270);fill-opacity:1.0"
       d="m -87,26.5 a 5.5,5.5 0 1 1 -11,0 5.5,5.5 0 1 1 11,0 z"
       transform="translate(98,-7)"
       inkscape:connector-curvature="0" />
  </g>
  <g
     id="horizontal-slider-focus"
     transform="translate(13,13)">
    <path
       style="color:#000000;opacity:0.375;fill:url(#radialGradient4234);fill-opacity:1"
       d="m 0,11 0,11.5 a 5.5,5.5 0 0 0 11,0 L 11,11 0,11 Z"
       id="path4230"
       inkscape:connector-curvature="0" />
    <path
       id="path4232"
       style="color:#000000;opacity:1;fill:#ffffff;fill-opacity:1"
       d="m -87,26.5 a 5.5,5.5 0 1 1 -11,0 5.5,5.5 0 1 1 11,0 z"
       transform="translate(98,-7)"
       inkscape:connector-curvature="0" />
  </g>
</svg>
