<?xml version="1.0" encoding="UTF-8" standalone="no"?>
<svg id="svg2" xmlns:rdf="http://www.w3.org/1999/02/22-rdf-syntax-ns#" xmlns="http://www.w3.org/2000/svg" height="16" width="36" version="1.1" xmlns:cc="http://creativecommons.org/ns#" xmlns:xlink="http://www.w3.org/1999/xlink" xmlns:dc="http://purl.org/dc/elements/1.1/">
	<defs id="defs4">
		<linearGradient id="linearGradient4256">
			<stop id="stop4258" style="stop-color:#e0e0e0" offset="0"/>
			<stop id="stop4260" style="stop-color:#c0c0c0" offset="1"/>
		</linearGradient>
		<linearGradient id="linearGradient4239">
			<stop id="stop4241" style="stop-color:#c01400" offset="0"/>
			<stop id="stop4243" style="stop-color:#ff3521" offset="1"/>
		</linearGradient>
		<linearGradient id="linearGradient4394" x1="-92" xlink:href="#linearGradient4239" gradientUnits="userSpaceOnUse" y1="20" gradientTransform="matrix(3 0 0 1 288 -9)" x2="-92" y2="14"/>
		<linearGradient id="linearGradient4396" x1="-89" xlink:href="#linearGradient4239" gradientUnits="userSpaceOnUse" y1="20" gradientTransform="translate(108,-9)" x2="-89" y2="14"/>
		<linearGradient id="linearGradient4406" x1="-95" xlink:href="#linearGradient4239" gradientUnits="userSpaceOnUse" y1="20" gradientTransform="translate(98,-9)" x2="-95" y2="14"/>
		<linearGradient id="linearGradient4411" x1="-92" xlink:href="#linearGradient4239" gradientUnits="userSpaceOnUse" y1="53" gradientTransform="matrix(3 0 0 1 288 -42)" x2="-92" y2="47"/>
		<linearGradient id="linearGradient4416" x1="-96" xlink:href="#linearGradient4239" gradientUnits="userSpaceOnUse" y1="53" gradientTransform="translate(98,-42)" x2="-96" y2="47"/>
		<linearGradient id="linearGradient4421" x1="-89" xlink:href="#linearGradient4239" gradientUnits="userSpaceOnUse" y1="53" gradientTransform="translate(108,-42)" x2="-89" y2="47"/>
		<linearGradient id="linearGradient4229" x1="6" xlink:href="#linearGradient4256" gradientUnits="userSpaceOnUse" y1="16" gradientTransform="translate(-1)" x2="6" y2="26"/>
		<linearGradient id="linearGradient4250" x1="6" xlink:href="#linearGradient4256" gradientUnits="userSpaceOnUse" y1="15" gradientTransform="translate(-1)" x2="6" y2="25"/>
		<linearGradient id="linearGradient4413" x1="7" xlink:href="#linearGradient4239" gradientUnits="userSpaceOnUse" x2="7" y1="26" y2="15"/>
		<radialGradient id="radialGradient4469" cx="5" gradientUnits="userSpaceOnUse" cy="20" r="5">
			<stop id="stop4465" style="stop-color:#ffffff" offset="0"/>
			<stop id="stop4471" style="stop-color:#ffffff" offset=".83333"/>
			<stop id="stop4467" style="stop-color:#ffffff;stop-opacity:0" offset="1"/>
		</radialGradient>
	</defs>
	<metadata id="metadata7">
		<rdf:RDF>
			<cc:Work rdf:about="">
				<dc:format>image/svg+xml</dc:format>
				<dc:type rdf:resource="http://purl.org/dc/dcmitype/StillImage"/>
				<dc:title/>
				<dc:creator>
					<cc:Agent>
						<dc:title>obnosim</dc:title>
					</cc:Agent>
				</dc:creator>
				<cc:license rdf:resource="http://creativecommons.org/licenses/by-nc-sa/3.0/"/>
			</cc:Work>
			<cc:License rdf:about="http://creativecommons.org/licenses/by-nc-sa/3.0/">
				<cc:permits rdf:resource="http://creativecommons.org/ns#Reproduction"/>
				<cc:permits rdf:resource="http://creativecommons.org/ns#Distribution"/>
				<cc:requires rdf:resource="http://creativecommons.org/ns#Notice"/>
				<cc:requires rdf:resource="http://creativecommons.org/ns#Attribution"/>
				<cc:prohibits rdf:resource="http://creativecommons.org/ns#CommercialUse"/>
				<cc:permits rdf:resource="http://creativecommons.org/ns#DerivativeWorks"/>
				<cc:requires rdf:resource="http://creativecommons.org/ns#ShareAlike"/>
			</cc:License>
		</rdf:RDF>
	</metadata>
	<rect id="hint-tile-center" style="opacity:.8;fill:#008000" ry="0" height="5" width="5" y="-9" x="30"/>
	<rect id="groove-center" style="opacity:.5;fill:#000000" height="4" width="30" y="16" x="3"/>
	<rect id="groove-left" style="opacity:.5;fill:#000000" height="4" width="3" y="16" x="0"/>
	<rect id="groove-right" style="opacity:.5;fill:#000000" height="4" width="3" y="16" x="33"/>
	<g id="groove-top" transform="matrix(6,0,0,1,573,-9)">
		<rect id="rect4706" style="opacity:.5;fill:#000000" height="3" width="5" y="14" x="-95"/>
		<path id="rect4727" style="opacity:.5;fill:#000000" d="m-95 14v1h5v-1h-5z"/>
	</g>
	<g id="groove-topleft" transform="translate(98,-9)">
		<path id="rect4716" style="opacity:.5;fill:#000000" d="m-95 14c-1.662 0-3 1.338-3 3h3v-3z"/>
		<path id="path4729" style="opacity:.5;fill:#000000" d="m-95 14c-1.662 0-3 1.338-3 3 0-1.108 1.338-2 3-2v-1z"/>
	</g>
	<g id="groove-topright" transform="translate(123,-9)">
		<path id="path4721" style="opacity:.5;fill:#000000" d="m-90 14c1.662 0 3 1.338 3 3h-3v-3z"/>
		<path id="path4731" style="opacity:.5;fill:#000000" d="m-90 14v1c1.662 0 3 .892 3 2 0-1.662-1.338-3-3-3z"/>
	</g>
	<g id="groove-bottom" transform="matrix(6,0,0,1,573,-42)">
		<rect id="rect4708" style="opacity:.5;fill:#000000" height="3" width="5" y="50" x="-95"/>
		<path id="path4742" style="opacity:.188;fill:#ffffff" d="m-95 53v-1h5v1h-5z"/>
	</g>
	<g id="groove-bottomleft" transform="translate(98,-42)">
		<path id="path4723" style="opacity:.5;fill:#000000" d="m-95 53c-1.662 0-3-1.338-3-3h3v3z"/>
		<path id="path4744" style="opacity:.188;fill:#ffffff" d="m-95 53c-1.662 0-3-1.338-3-3 0 1.108 1.338 2 3 2v1z"/>
	</g>
	<g id="groove-bottomright" transform="translate(123,-42)">
		<path id="path4725" style="opacity:.5;fill:#000000" d="m-90 53c1.662 0 3-1.338 3-3h-3v3z"/>
		<path id="path4746" style="opacity:.188;fill:#ffffff" d="m-90 53v-1c1.662 0 3-.892 3-2 0 1.662-1.338 3-3 3z"/>
	</g>
	<g id="vertical-slider-handle" transform="translate(13,-28)">
		<rect id="rect4382" style="fill:none" height="16" width="12" y="12" x="-1"/>
		<circle id="path4242" cx="5" style="fill:url(#linearGradient4250);fill-rule:evenodd" r="5" cy="20"/>
	</g>
	<g id="horizontal-slider-focus" transform="translate(-15,-1)">
		<rect id="rect4376" style="fill:none" height="16" width="12" y="12" x="-1"/>
		<circle id="path3409" cx="5" style="fill:url(#linearGradient4413);fill-rule:evenodd" r="6" cy="20"/>
	</g>
	<rect id="groove-highlight-center" style="fill:#df2410" height="4" width="15" y="16" x="3"/>
	<rect id="groove-highlight-left" style="fill:#df2410" height="4" width="3" y="16" x="0"/>
	<rect id="groove-highlight-right" style="fill:#df2410" height="4" width="3" y="16" x="18"/>
	<rect id="groove-highlight-top" style="fill:url(#linearGradient4394)" height="3" width="15" y="5" x="3"/>
	<path id="groove-highlight-topleft" style="fill:url(#linearGradient4406)" d="m3 5c-1.662 0-3 1.338-3 3h3v-3z"/>
	<path id="groove-highlight-topright" style="fill:url(#linearGradient4396)" d="m18 5c1.662 0 3 1.338 3 3h-3v-3z"/>
	<rect id="groove-highlight-bottom" style="fill:url(#linearGradient4411)" height="3" width="15" y="8" x="3"/>
	<path id="groove-highlight-bottomleft" style="fill:url(#linearGradient4416)" d="m3 11c-1.662 0-3-1.338-3-3h3v3z"/>
	<path id="groove-highlight-bottomright" style="fill:url(#linearGradient4421)" d="m18 11c1.662 0 3-1.338 3-3h-3v3z"/>
	<g id="horizontal-slider-handle" transform="translate(13,-13)">
		<rect id="rect4380" style="fill:none" height="16" width="12" y="13" x="-1"/>
		<circle id="path4221" cx="5" style="fill:url(#linearGradient4229);fill-rule:evenodd" r="5" cy="21"/>
	</g>
	<g id="vertical-slider-hover" transform="matrix(1.2,0,0,1.2,-30,-21)">
		<rect id="rect4443" style="fill:none" height="13.333" width="10" y="13.333" x="0"/>
		<circle id="circle4445" cy="20" cx="5" r="5" style="fill:url(#radialGradient4469);fill-rule:evenodd"/>
	</g>
	<g id="horizontal-slider-hover" transform="matrix(1.2,0,0,1.2,-30,-5)">
		<rect id="rect4475" style="fill:none" height="13.333" width="10" y="13.333" x="0"/>
		<circle id="circle4477" cx="5" style="fill-rule:evenodd;fill:url(#radialGradient4469)" r="5" cy="20"/>
	</g>
	<g id="vertical-slider-focus" transform="translate(-15,-17)">
		<rect id="rect4487" style="fill:none" height="16" width="12" y="12" x="-1"/>
		<circle id="circle4489" cy="20" cx="5" r="6" style="fill-rule:evenodd;fill:url(#linearGradient4413)"/>
	</g>
</svg>
