<?xml version="1.0" encoding="UTF-8" standalone="no"?>
<svg id="svg2" xmlns:rdf="http://www.w3.org/1999/02/22-rdf-syntax-ns#" xmlns="http://www.w3.org/2000/svg" height="48" width="48" version="1.1" xmlns:cc="http://creativecommons.org/ns#" xmlns:xlink="http://www.w3.org/1999/xlink" xmlns:dc="http://purl.org/dc/elements/1.1/">
	<defs id="defs4">
		<style id="current-color-scheme" type="text/css">.ColorScheme-Text {
        color:#31363b;
      }
      .ColorScheme-Background{
        color:#eff0f1;
      }
      .ColorScheme-ViewText {
        color:#31363b;
      }
      .ColorScheme-ViewBackground{
        color:#fcfcfc;
      }
      .ColorScheme-ViewHover {
        color:#3daee9;
      }
      .ColorScheme-ViewFocus{
        color:#3daee9;
      }
      .ColorScheme-ButtonText {
        color:#31363b;
      }
      .ColorScheme-ButtonBackground{
        color:#eff0f1;
      }
      .ColorScheme-ButtonHover {
        color:#3daee9;
      }
      .ColorScheme-ButtonFocus{
        color:#3daee9;
      }</style>
		<linearGradient id="linearGradient4938">
			<stop id="stop4940" style="stop-color:#c0c0c0" offset="0"/>
			<stop id="stop4942" style="stop-color:#e0e0e0" offset="1"/>
		</linearGradient>
		<linearGradient id="linearGradient4309" x1="-50.6" xlink:href="#linearGradient4938" gradientUnits="userSpaceOnUse" y1="61" gradientTransform="matrix(.29412 0 0 1 39.88 -48)" x2="-50.6" y2="51"/>
		<linearGradient id="linearGradient4312" x1="-36" xlink:href="#linearGradient4938" gradientUnits="userSpaceOnUse" y1="61" gradientTransform="translate(66,-48)" x2="-36" y2="51"/>
		<linearGradient id="linearGradient4315" x1="-72" xlink:href="#linearGradient4938" gradientUnits="userSpaceOnUse" y1="61" gradientTransform="translate(90,-48)" x2="-72" y2="51"/>
		<linearGradient id="linearGradient4611" x1="-177" xlink:href="#linearGradient4938" gradientUnits="userSpaceOnUse" x2="-177" y1="54" y2="44"/>
		<linearGradient id="linearGradient4619" x1="-213" xlink:href="#linearGradient4938" gradientUnits="userSpaceOnUse" x2="-213" y1="54" y2="44"/>
		<linearGradient id="linearGradient4627" x1="-191.6" xlink:href="#linearGradient4938" gradientUnits="userSpaceOnUse" x2="-191.6" y1="-54" y2="-44"/>
		<linearGradient id="linearGradient4635" x1="-191.6" xlink:href="#linearGradient4938" gradientUnits="userSpaceOnUse" x2="-191.6" y1="-44" y2="-56"/>
		<linearGradient id="linearGradient4643" x1="-178" xlink:href="#linearGradient4938" gradientUnits="userSpaceOnUse" x2="-178" y1="44" y2="56"/>
		<linearGradient id="linearGradient4659" x1="-214" xlink:href="#linearGradient4938" gradientUnits="userSpaceOnUse" x2="-214" y1="44" y2="55"/>
	</defs>
	<metadata id="metadata7">
		<rdf:RDF>
			<cc:Work rdf:about="">
				<dc:format>image/svg+xml</dc:format>
				<dc:type rdf:resource="http://purl.org/dc/dcmitype/StillImage"/>
				<dc:title/>
			</cc:Work>
		</rdf:RDF>
	</metadata>
	<rect id="hint-stretch-borders" style="opacity:.875;fill:#008000" height="10" width="10" y="-4.8828e-7" x="0"/>
	<rect id="north-active-tab-left" style="opacity:.875;fill:url(#linearGradient4315)" height="10" width="3" y="3" x="16"/>
	<rect id="north-active-tab-right" style="opacity:.875;fill:url(#linearGradient4312)" height="10" width="3" y="3" x="29"/>
	<rect id="north-active-tab-center" style="opacity:.875;fill:url(#linearGradient4309)" height="10" width="10" y="3" x="19"/>
	<g id="north-active-tab-top" style="opacity:.875" transform="matrix(.29412 0 0 1 81.35 -41)">
		<rect id="rect3067" style="opacity:1;fill:url(#linearGradient4627)" transform="scale(1,-1)" height="3" width="34" y="-44" x="-212"/>
		<rect id="rect3069" style="opacity:.5;fill:#ffffff" transform="translate(-141,-7)" height="1" width="34" y="48" x="-71"/>
	</g>
	<g id="north-active-tab-topleft" style="opacity:.875" transform="translate(231,-41)">
		<path id="path3073" style="opacity:1;fill:url(#linearGradient4619)" d="m-215 44c0-1.662 1.338-3 3-3v3h-3z"/>
		<path id="path3075" style="opacity:.5;fill:#ffffff" d="m-212 41c-1.662 0-3 1.338-3 3 0-1.108 1.338-2 3-2v-1z"/>
	</g>
	<g id="north-active-tab-topright" style="opacity:.875" transform="translate(207,-41)">
		<path id="path3079" style="opacity:1;fill:url(#linearGradient4611)" d="m-175 44c0-1.662-1.338-3-3-3v3h3z"/>
		<path id="path3081" style="opacity:.5;fill:#ffffff" d="m-178 41c1.662 0 3 1.338 3 3 0-1.108-1.338-2-3-2v-1z"/>
	</g>
	<g id="north-active-tab-bottom" style="opacity:.875" transform="matrix(.29412 0 0 -1 81.35 56.998)">
		<rect id="rect3085" style="opacity:1;fill:url(#linearGradient4635)" transform="scale(1,-1)" height="3" width="34" y="-44" x="-212"/>
		<rect id="rect3087" style="opacity:0.165;fill:#000000" transform="translate(-141,-7)" height="1" width="34" y="48" x="-71"/>
	</g>
	<g id="north-active-tab-bottomleft" style="opacity:.875" transform="matrix(1,0,0,-1,231,56.998)">
		<path id="path3091" style="opacity:1;fill:url(#linearGradient4659)" d="m-215 44c0-1.662 1.338-3 3-3v3h-3z"/>
		<path id="path3093" style="opacity:0.165;fill:#000000" d="m-212 41c-1.662 0-3 1.338-3 3 0-1.108 1.338-2 3-2v-1z"/>
	</g>
	<g id="north-active-tab-bottomright" style="opacity:.875" transform="matrix(1,0,0,-1,207,56.998)">
		<path id="path3097" style="opacity:1;fill:url(#linearGradient4643)" d="m-175 44c0-1.662-1.338-3-3-3v3h3z"/>
		<path id="path3099" style="opacity:0.165;fill:#000000" d="m-178 41c1.662 0 3 1.338 3 3 0-1.108-1.338-2-3-2v-1z"/>
	</g>
	<rect id="east-active-tab-left" style="opacity:0" height="10" width="3" y="19" x="32"/>
	<rect id="east-active-tab-right" style="opacity:0" height="10" width="3" y="19" x="45"/>
	<rect id="east-active-tab-center" style="opacity:0" height="10" width="10" y="19" x="35"/>
	<g id="east-active-tab-top" style="opacity:0" transform="matrix(.29412 0 0 1 97.35 -25)">
		<rect id="rect3467" style="opacity:.125;fill:#ffffff" transform="scale(1,-1)" height="3" width="34" y="-44" x="-212"/>
		<rect id="rect3469" style="opacity:0.062;fill:#ffffff" transform="translate(-141,-7)" height="1" width="34" y="48" x="-71"/>
	</g>
	<g id="east-active-tab-topleft" style="opacity:0" transform="translate(247,-25)">
		<path id="path3473" style="opacity:.125;fill:#ffffff" d="m-215 44c0-1.662 1.338-3 3-3v3h-3z"/>
		<path id="path3475" style="opacity:0.062;fill:#ffffff" d="m-212 41c-1.662 0-3 1.338-3 3 0-1.108 1.338-2 3-2v-1z"/>
	</g>
	<g id="east-active-tab-topright" style="opacity:0" transform="translate(223,-25)">
		<path id="path3479" style="opacity:.125;fill:#ffffff" d="m-175 44c0-1.662-1.338-3-3-3v3h3z"/>
		<path id="path3481" style="opacity:0.062;fill:#ffffff" d="m-178 41c1.662 0 3 1.338 3 3 0-1.108-1.338-2-3-2v-1z"/>
	</g>
	<g id="east-active-tab-bottom" style="opacity:0" transform="matrix(.29412 0 0 -1 97.35 72.998)">
		<rect id="rect3485" style="opacity:.125;fill-opacity:.75294;fill:#ffffff" transform="scale(1,-1)" height="3" width="34" y="-44" x="-212"/>
		<rect id="rect3487" style="opacity:0.062;fill:#000000" transform="translate(-141,-7)" height="1" width="34" y="48" x="-71"/>
	</g>
	<g id="east-active-tab-bottomleft" style="opacity:0" transform="matrix(1,0,0,-1,247,72.998)">
		<path id="path3491" style="opacity:.125;fill-opacity:.75294;fill:#ffffff" d="m-215 44c0-1.662 1.338-3 3-3v3h-3z"/>
		<path id="path3493" style="opacity:0.062;fill:#000000" d="m-212 41c-1.662 0-3 1.338-3 3 0-1.108 1.338-2 3-2v-1z"/>
	</g>
	<g id="east-active-tab-bottomright" style="opacity:0" transform="matrix(1,0,0,-1,223,72.998)">
		<path id="path3497" style="opacity:.125;fill-opacity:.75294;fill:#ffffff" d="m-175 44c0-1.662-1.338-3-3-3v3h3z"/>
		<path id="path3499" style="opacity:0.062;fill:#000000" d="m-178 41c1.662 0 3 1.338 3 3 0-1.108-1.338-2-3-2v-1z"/>
	</g>
	<rect id="west-active-tab-left" style="opacity:0" height="10" width="3" y="19" x="0"/>
	<rect id="west-active-tab-right" style="opacity:0" height="10" width="3" y="19" x="13"/>
	<rect id="west-active-tab-center" style="opacity:0" height="10" width="10" y="19" x="3"/>
	<g id="west-active-tab-top" style="opacity:0" transform="matrix(.29412 0 0 1 65.35 -25)">
		<rect id="rect3515" style="opacity:.125;fill:#ffffff" transform="scale(1,-1)" height="3" width="34" y="-44" x="-212"/>
		<rect id="rect3517" style="opacity:0.062;fill:#ffffff" transform="translate(-141,-7)" height="1" width="34" y="48" x="-71"/>
	</g>
	<g id="west-active-tab-topleft" style="opacity:0" transform="translate(215,-25)">
		<path id="path3521" style="opacity:.125;fill:#ffffff" d="m-215 44c0-1.662 1.338-3 3-3v3h-3z"/>
		<path id="path3523" style="opacity:0.062;fill:#ffffff" d="m-212 41c-1.662 0-3 1.338-3 3 0-1.108 1.338-2 3-2v-1z"/>
	</g>
	<g id="west-active-tab-topright" style="opacity:0" transform="translate(191,-25)">
		<path id="path3527" style="opacity:.125;fill:#ffffff" d="m-175 44c0-1.662-1.338-3-3-3v3h3z"/>
		<path id="path3529" style="opacity:0.062;fill:#ffffff" d="m-178 41c1.662 0 3 1.338 3 3 0-1.108-1.338-2-3-2v-1z"/>
	</g>
	<g id="west-active-tab-bottom" style="opacity:0" transform="matrix(.29412 0 0 -1 65.35 72.998)">
		<rect id="rect3533" style="opacity:.125;fill-opacity:.75294;fill:#ffffff" transform="scale(1,-1)" height="3" width="34" y="-44" x="-212"/>
		<rect id="rect3535" style="opacity:0.062;fill:#000000" transform="translate(-141,-7)" height="1" width="34" y="48" x="-71"/>
	</g>
	<g id="west-active-tab-bottomleft" style="opacity:0" transform="matrix(1,0,0,-1,215,72.998)">
		<path id="path3539" style="opacity:.125;fill-opacity:.75294;fill:#ffffff" d="m-215 44c0-1.662 1.338-3 3-3v3h-3z"/>
		<path id="path3541" style="opacity:0.062;fill:#000000" d="m-212 41c-1.662 0-3 1.338-3 3 0-1.108 1.338-2 3-2v-1z"/>
	</g>
	<g id="west-active-tab-bottomright" style="opacity:0" transform="matrix(1,0,0,-1,191,72.998)">
		<path id="path3545" style="opacity:.125;fill-opacity:.75294;fill:#ffffff" d="m-175 44c0-1.662-1.338-3-3-3v3h3z"/>
		<path id="path3547" style="opacity:0.062;fill:#000000" d="m-178 41c1.662 0 3 1.338 3 3 0-1.108-1.338-2-3-2v-1z"/>
	</g>
	<rect id="south-active-tab-left" style="opacity:0" height="10" width="3" y="34.998" x="16"/>
	<rect id="south-active-tab-right" style="opacity:0" height="10" width="3" y="34.998" x="29"/>
	<rect id="south-active-tab-center" style="opacity:0" height="10" width="10" y="34.998" x="19"/>
	<g id="south-active-tab-top" style="opacity:0" transform="matrix(.29412 0 0 1 81.35 -9)">
		<rect id="rect3563" style="opacity:.125;fill:#ffffff" transform="scale(1,-1)" height="3" width="34" y="-44" x="-212"/>
		<rect id="rect3565" style="opacity:0.062;fill:#ffffff" transform="translate(-141,-7)" height="1" width="34" y="48" x="-71"/>
	</g>
	<g id="south-active-tab-topleft" style="opacity:0" transform="translate(231,-9)">
		<path id="path3569" style="opacity:.125;fill:#ffffff" d="m-215 44c0-1.662 1.338-3 3-3v3h-3z"/>
		<path id="path3571" style="opacity:0.062;fill:#ffffff" d="m-212 41c-1.662 0-3 1.338-3 3 0-1.108 1.338-2 3-2v-1z"/>
	</g>
	<g id="south-active-tab-topright" style="opacity:0" transform="translate(207,-9)">
		<path id="path3575" style="opacity:.125;fill:#ffffff" d="m-175 44c0-1.662-1.338-3-3-3v3h3z"/>
		<path id="path3577" style="opacity:0.062;fill:#ffffff" d="m-178 41c1.662 0 3 1.338 3 3 0-1.108-1.338-2-3-2v-1z"/>
	</g>
	<g id="south-active-tab-bottom" style="opacity:0" transform="matrix(.29412 0 0 -1 81.35 88.998)">
		<rect id="rect3581" style="opacity:.125;fill-opacity:.75294;fill:#ffffff" transform="scale(1,-1)" height="3" width="34" y="-44" x="-212"/>
		<rect id="rect3583" style="opacity:0.062;fill:#000000" transform="translate(-141,-7)" height="1" width="34" y="48" x="-71"/>
	</g>
	<g id="south-active-tab-bottomleft" style="opacity:0" transform="matrix(1,0,0,-1,231,88.998)">
		<path id="path3587" style="opacity:.125;fill-opacity:.75294;fill:#ffffff" d="m-215 44c0-1.662 1.338-3 3-3v3h-3z"/>
		<path id="path3589" style="opacity:0.062;fill:#000000" d="m-212 41c-1.662 0-3 1.338-3 3 0-1.108 1.338-2 3-2v-1z"/>
	</g>
	<g id="south-active-tab-bottomright" style="opacity:0" transform="matrix(1,0,0,-1,207,88.998)">
		<path id="path3593" style="opacity:.125;fill-opacity:.75294;fill:#ffffff" d="m-175 44c0-1.662-1.338-3-3-3v3h3z"/>
		<path id="path3595" style="opacity:0.062;fill:#000000" d="m-178 41c1.662 0 3 1.338 3 3 0-1.108-1.338-2-3-2v-1z"/>
	</g>
</svg>
