<?xml version="1.0" encoding="UTF-8" standalone="no"?>
<svg id="svg2" xmlns:rdf="http://www.w3.org/1999/02/22-rdf-syntax-ns#" xmlns="http://www.w3.org/2000/svg" height="48" width="48" version="1.1" xmlns:cc="http://creativecommons.org/ns#" xmlns:xlink="http://www.w3.org/1999/xlink" xmlns:dc="http://purl.org/dc/elements/1.1/">
	<defs id="defs4">
		<style id="current-color-scheme" type="text/css">
			.ColorScheme-Text { color:#0000FF; }
		</style>
		<g class="ColorScheme-Text">
			<linearGradient id="linearGradient3224" x1="25" xlink:href="#linearGradient4631" gradientUnits="userSpaceOnUse" y1="17" gradientTransform="matrix(0.068182,0,0,1,46.795,-4.1507e-6)" x2="25" y2="3"/>
			<linearGradient id="linearGradient4631">
				<stop id="stop4940-9" style="stop-color:currentColor;stop-opacity:.75" offset="0"/>
				<stop id="stop4942-4" style="stop-color:currentColor;stop-opacity:.875" offset="1"/>
			</linearGradient>
			<linearGradient id="linearGradient3226" x1="25" xlink:href="#linearGradient4631" gradientUnits="userSpaceOnUse" y1="17" gradientTransform="matrix(0.068182,0,0,1,-0.20455,-4.1507e-6)" x2="25" y2="3"/>
			<linearGradient id="linearGradient3228" x1="25" xlink:href="#linearGradient4631" gradientUnits="userSpaceOnUse" y1="17" gradientTransform="matrix(.22727 0 0 .71429 18.318 .85714)" x2="25" y2="3"/>
		</g>
	</defs>
	<metadata id="metadata7">
		<rdf:RDF>
			<cc:Work rdf:about="">
				<dc:format>image/svg+xml</dc:format>
				<dc:type rdf:resource="http://purl.org/dc/dcmitype/StillImage"/>
				<dc:title/>
				<dc:creator>
					<cc:Agent>
						<dc:title>obnosim</dc:title>
					</cc:Agent>
				</dc:creator>
				<cc:license rdf:resource="http://creativecommons.org/licenses/by-sa/3.0/"/>
			</cc:Work>
			<cc:License rdf:about="http://creativecommons.org/licenses/by-sa/3.0/">
				<cc:permits rdf:resource="http://creativecommons.org/ns#Reproduction"/>
				<cc:permits rdf:resource="http://creativecommons.org/ns#Distribution"/>
				<cc:requires rdf:resource="http://creativecommons.org/ns#Notice"/>
				<cc:requires rdf:resource="http://creativecommons.org/ns#Attribution"/>
				<cc:permits rdf:resource="http://creativecommons.org/ns#DerivativeWorks"/>
				<cc:requires rdf:resource="http://creativecommons.org/ns#ShareAlike"/>
			</cc:License>
		</rdf:RDF>
	</metadata>
	<rect id="hint-stretch-borders" style="opacity:.875;fill:#008000" height="10" width="10" y="-4.8828e-7" x="0"/>
	<g id="north-active" class="ColorScheme-Text">
		<g id="north-active-tab-topleft" style="opacity:.875" transform="translate(16)">
			<path style="fill-opacity:.87843;fill:currentColor" d="m3 0c-1.662 0-3 1.338-3 3h3v-3z"/>
			<path style="opacity:.5;fill:currentColor" d="m3 0c-1.662 0-3 1.338-3 3 0-1.108 1.338-2 3-2v-1z"/>
		</g>
		<rect id="north-active-tab-center" style="opacity:.875;fill:url(#linearGradient3228)" height="10" width="10" y="3" x="19"/>
		<g id="north-active-tab-topright" style="opacity:.875" transform="translate(-18)">
			<path style="fill-opacity:.875;fill:currentColor" d="m47 0c1.662 0 3 1.338 3 3h-3v-3z"/>
			<path style="opacity:.5;fill:currentColor" d="m47 0v1c1.662 0 3 .892 3 2 0-1.662-1.338-3-3-3z"/>
		</g>
		<g id="north-active-tab-bottomleft" style="opacity:.875" transform="translate(16,-4)">
			<path style="fill-opacity:.75;fill:currentColor" d="m3 20c-1.662 0-3-1.338-3-3h3v3z"/>
			<path style="opacity:.16450;fill:#000000" d="m3 20c-1.662 0-3-1.338-3-3 0 1.108 1.338 2 3 2v1z"/>
		</g>
		<g id="north-active-tab-bottomright" style="opacity:.875" transform="translate(-18,-4)">
			<path style="fill-opacity:.75;fill:currentColor" d="m47 20c1.662 0 3-1.338 3-3h-3v3z"/>
			<path style="opacity:.16450;fill:#000000" d="m47 20v-1c1.662 0 3-.892 3-2 0 1.662-1.338 3-3 3z"/>
		</g>
		<g id="north-active-tab-top" style="opacity:.875" transform="matrix(.22727 0 0 1 18.318 0)">
			<rect style="fill-opacity:.875;fill:currentColor" transform="rotate(90)" height="44" width="3" y="-47" x="0"/>
			<path style="opacity:.5;fill:currentColor" d="m3 0v1h44v-1h-44z"/>
		</g>
		<g id="north-active-tab-left" transform="matrix(1 0 0 .71429 16 .85714)">
			<rect style="opacity:.875;fill:url(#linearGradient3226)" height="14" width="3" y="3" x="-1.7881e-7"/>
		</g>
		<g id="north-active-tab-bottom" style="opacity:.875" transform="matrix(.22727 0 0 1 18.318 -4)">
			<rect style="fill-opacity:.75;fill:currentColor" transform="matrix(0,-1,-1,0,0,0)" height="44" width="3" y="-47" x="-20"/>
			<path style="opacity:0.165;fill:#000000" d="m3 20v-1h44v1h-44z"/>
		</g>
		<g id="north-active-tab-right" transform="matrix(1 0 0 .71429 -18 .85714)">
			<rect style="opacity:.875;fill:url(#linearGradient3224)" height="14" width="3" y="3" x="47"/>
		</g>
	</g>
	<g id="west-active" style="opacity:0" transform="translate(-16,16)" class="ColorScheme-Text">
		<g id="west-active-tab-topleft" style="opacity:.875" transform="translate(16)">
			<path style="fill-opacity:.875;fill:currentColor" d="m3 0c-1.662 0-3 1.338-3 3h3v-3z"/>
			<path style="opacity:.5;fill:currentColor" d="m3 0c-1.662 0-3 1.338-3 3 0-1.108 1.338-2 3-2v-1z"/>
		</g>
		<rect id="west-active-tab-center" style="opacity:.875;fill:url(#linearGradient3228)" height="10" width="10" y="3" x="19"/>
		<g id="west-active-tab-topright" style="opacity:.875" transform="translate(-18)">
			<path style="fill-opacity:.87843;fill:currentColor" d="m47 0c1.662 0 3 1.338 3 3h-3v-3z"/>
			<path style="opacity:.5;fill:currentColor" d="m47 0v1c1.662 0 3 .892 3 2 0-1.662-1.338-3-3-3z"/>
		</g>
		<g id="west-active-tab-bottomleft" style="opacity:.875" transform="translate(16,-4)">
			<path style="fill-opacity:.75;fill:currentColor" d="m3 20c-1.662 0-3-1.338-3-3h3v3z"/>
			<path style="opacity:.16450;fill:#000000" d="m3 20c-1.662 0-3-1.338-3-3 0 1.108 1.338 2 3 2v1z"/>
		</g>
		<g id="west-active-tab-bottomright" style="opacity:.875" transform="translate(-18,-4)" class="ColorScheme-Text">
			<path style="fill-opacity:.75;fill:currentColor" d="m47 20c1.662 0 3-1.338 3-3h-3v3z"/>
			<path style="opacity:.16450;fill:#000000" d="m47 20v-1c1.662 0 3-.892 3-2 0 1.662-1.338 3-3 3z"/>
		</g>
		<g id="west-active-tab-top" style="opacity:.875" transform="matrix(.22727 0 0 1 18.318 0)" class="ColorScheme-Text">
			<rect style="fill-opacity:.87843;fill:currentColor" transform="rotate(90)" height="44" width="3" y="-47" x="0"/>
			<path style="opacity:.5;fill:currentColor" d="m3 0v1h44v-1h-44z"/>
		</g>
		<g id="west-active-tab-left" transform="matrix(1 0 0 .71429 16 .85714)">
			<rect style="opacity:.875;fill:url(#linearGradient3226)" height="14" width="3" y="3" x="-1.7881e-7"/>
		</g>
		<g id="west-active-tab-bottom" style="opacity:.875" transform="matrix(.22727 0 0 1 18.318 -4)" class="ColorScheme-Text">
			<rect style="fill-opacity:.75;fill:currentColor" transform="matrix(0,-1,-1,0,0,0)" height="44" width="3" y="-47" x="-20"/>
			<path style="opacity:0.165;fill:#000000" d="m3 20v-1h44v1h-44z"/>
		</g>
		<g id="west-active-tab-right" transform="matrix(1 0 0 .71429 -18 .85714)">
			<rect style="opacity:.875;fill:url(#linearGradient3224)" height="14" width="3" y="3" x="47"/>
		</g>
	</g>
	<g id="east-active" style="opacity:0" transform="translate(16,16)" class="ColorScheme-Text">
		<g id="east-active-tab-topleft" style="opacity:.875" transform="translate(16)" class="ColorScheme-Text">
			<path style="fill-opacity:.875;fill:currentColor" d="m3 0c-1.662 0-3 1.338-3 3h3v-3z"/>
			<path style="opacity:.5;fill:currentColor" d="m3 0c-1.662 0-3 1.338-3 3 0-1.108 1.338-2 3-2v-1z"/>
		</g>
		<rect id="east-active-tab-center" style="opacity:.875;fill:url(#linearGradient3228)" height="10" width="10" y="3" x="19"/>
		<g id="east-active-tab-topright" style="opacity:.875" transform="translate(-18)" class="ColorScheme-Text">
			<path style="fill-opacity:.875;fill:currentColor" d="m47 0c1.662 0 3 1.338 3 3h-3v-3z"/>
			<path style="opacity:.5;fill:currentColor" d="m47 0v1c1.662 0 3 .892 3 2 0-1.662-1.338-3-3-3z"/>
		</g>
		<g id="east-active-tab-bottomleft" style="opacity:.875" transform="translate(16,-4)" class="ColorScheme-Text">
			<path style="fill-opacity:.75;fill:currentColor" d="m3 20c-1.662 0-3-1.338-3-3h3v3z"/>
			<path style="opacity:.16450;fill:#000000" d="m3 20c-1.662 0-3-1.338-3-3 0 1.108 1.338 2 3 2v1z"/>
		</g>
		<g id="east-active-tab-bottomright" style="opacity:.875" transform="translate(-18,-4)" class="ColorScheme-Text">
			<path style="fill-opacity:.75;fill:currentColor" d="m47 20c1.662 0 3-1.338 3-3h-3v3z"/>
			<path style="opacity:.16450;fill:#000000" d="m47 20v-1c1.662 0 3-.892 3-2 0 1.662-1.338 3-3 3z"/>
		</g>
		<g id="east-active-tab-top" style="opacity:.875" transform="matrix(.22727 0 0 1 18.318 0)" class="ColorScheme-Text">
			<rect style="fill-opacity:.875;fill:currentColor" transform="rotate(90)" height="44" width="3" y="-47" x="0"/>
			<path style="opacity:.5;fill:currentColor" d="m3 0v1h44v-1h-44z"/>
		</g>
		<g id="east-active-tab-left" transform="matrix(1 0 0 .71429 16 .85714)">
			<rect style="opacity:.875;fill:url(#linearGradient3226)" height="14" width="3" y="3" x="-1.7881e-7"/>
		</g>
		<g id="east-active-tab-bottom" style="opacity:.875" transform="matrix(.22727 0 0 1 18.318 -4)" class="ColorScheme-Text">
			<rect style="fill-opacity:.75;fill:currentColor" transform="matrix(0,-1,-1,0,0,0)" height="44" width="3" y="-47" x="-20"/>
			<path style="opacity:0.165;fill:#000000" d="m3 20v-1h44v1h-44z"/>
		</g>
		<g id="east-active-tab-right" transform="matrix(1 0 0 .71429 -18 .85714)">
			<rect style="opacity:.875;fill:url(#linearGradient3224)" height="14" width="3" y="3" x="47"/>
		</g>
	</g>
	<g id="south-active" style="opacity:0" transform="translate(1.7881e-7,32)" class="ColorScheme-Text">
		<g id="south-active-tab-topleft" style="opacity:.875" transform="translate(16)">
			<path style="fill-opacity:.875;fill:currentColor" d="m3 0c-1.662 0-3 1.338-3 3h3v-3z"/>
			<path style="opacity:.5;fill:currentColor" d="m3 0c-1.662 0-3 1.338-3 3 0-1.108 1.338-2 3-2v-1z"/>
		</g>
		<rect id="south-active-tab-center" style="opacity:.875;fill:url(#linearGradient3228)" height="10" width="10" y="3" x="19"/>
		<g id="south-active-tab-topright" style="opacity:.875" transform="translate(-18)">
			<path style="fill-opacity:.875;fill:currentColor" d="m47 0c1.662 0 3 1.338 3 3h-3v-3z"/>
			<path style="opacity:.5;fill:currentColor" d="m47 0v1c1.662 0 3 .892 3 2 0-1.662-1.338-3-3-3z"/>
		</g>
		<g id="south-active-tab-bottomleft" style="opacity:.875" transform="translate(16,-4)">
			<path style="fill-opacity:.75;fill:currentColor" d="m3 20c-1.662 0-3-1.338-3-3h3v3z"/>
			<path style="opacity:.16450;fill:#000000" d="m3 20c-1.662 0-3-1.338-3-3 0 1.108 1.338 2 3 2v1z"/>
		</g>
		<g id="south-active-tab-bottomright" style="opacity:.875" transform="translate(-18,-4)">
			<path style="fill-opacity:.75;fill:currentColor" d="m47 20c1.662 0 3-1.338 3-3h-3v3z"/>
			<path style="opacity:.16450;fill:#000000" d="m47 20v-1c1.662 0 3-.892 3-2 0 1.662-1.338 3-3 3z"/>
		</g>
		<g id="south-active-tab-top" style="opacity:.875" transform="matrix(.22727 0 0 1 18.318 0)">
			<rect style="fill-opacity:.875;fill:currentColor" transform="rotate(90)" height="44" width="3" y="-47" x="0"/>
			<path style="opacity:.5;fill:currentColor" d="m3 0v1h44v-1h-44z"/>
		</g>
		<g id="south-active-tab-left" transform="matrix(1 0 0 .71429 16 .85714)">
			<rect style="opacity:.875;fill:url(#linearGradient3226)" height="14" width="3" y="3" x="-1.7881e-7"/>
		</g>
		<g id="south-active-tab-bottom" style="opacity:.875" transform="matrix(0.22727273,0,0,1,18.318182,-4)">
			<rect style="fill-opacity:.75;fill:currentColor" transform="matrix(0,-1,-1,0,0,0)" height="44" width="3" y="-47" x="-20"/>
			<path style="opacity:0.165;fill:#000000" d="m3 20v-1h44v1h-44z"/>
		</g>
		<g id="south-active-tab-right" transform="matrix(1 0 0 .71429 -18 .85714)">
			<rect style="opacity:.875;fill:url(#linearGradient3224)" height="14" width="3" y="3" x="47"/>
		</g>
	</g>
</svg>
