<?xml version="1.0" encoding="UTF-8" standalone="no"?>
<!-- Created with Inkscape (http://www.inkscape.org/) -->

<svg
   xmlns:dc="http://purl.org/dc/elements/1.1/"
   xmlns:cc="http://creativecommons.org/ns#"
   xmlns:rdf="http://www.w3.org/1999/02/22-rdf-syntax-ns#"
   xmlns:svg="http://www.w3.org/2000/svg"
   xmlns="http://www.w3.org/2000/svg"
   xmlns:sodipodi="http://sodipodi.sourceforge.net/DTD/sodipodi-0.dtd"
   xmlns:inkscape="http://www.inkscape.org/namespaces/inkscape"
   version="1.1"
   width="103.508"
   height="11"
   id="svg2"
   inkscape:version="0.91 r13725"
   sodipodi:docname="timer.svg">
  <sodipodi:namedview
     pagecolor="#ffffff"
     bordercolor="#666666"
     borderopacity="1"
     objecttolerance="10"
     gridtolerance="10"
     guidetolerance="10"
     inkscape:pageopacity="0"
     inkscape:pageshadow="2"
     inkscape:window-width="640"
     inkscape:window-height="480"
     id="namedview2546" />
  <defs
     id="defs4" />
  <metadata
     id="metadata7">
    <rdf:RDF>
      <cc:Work
         rdf:about="">
        <dc:format>image/svg+xml</dc:format>
        <dc:type
           rdf:resource="http://purl.org/dc/dcmitype/StillImage" />
        <dc:title />
        <dc:creator>
          <cc:Agent>
            <dc:title>obnosim</dc:title>
          </cc:Agent>
        </dc:creator>
        <cc:license
           rdf:resource="http://creativecommons.org/licenses/by-nc-sa/3.0/" />
      </cc:Work>
      <cc:License
         rdf:about="http://creativecommons.org/licenses/by-nc-sa/3.0/">
        <cc:permits
           rdf:resource="http://creativecommons.org/ns#Reproduction" />
        <cc:permits
           rdf:resource="http://creativecommons.org/ns#Distribution" />
        <cc:requires
           rdf:resource="http://creativecommons.org/ns#Notice" />
        <cc:requires
           rdf:resource="http://creativecommons.org/ns#Attribution" />
        <cc:prohibits
           rdf:resource="http://creativecommons.org/ns#CommercialUse" />
        <cc:permits
           rdf:resource="http://creativecommons.org/ns#DerivativeWorks" />
        <cc:requires
           rdf:resource="http://creativecommons.org/ns#ShareAlike" />
      </cc:License>
    </rdf:RDF>
  </metadata>
  <rect
     width="7.5079999"
     height="11"
     x="80"
     y="0"
     id="separatorC"
     style="fill:none;stroke:none" />
  <g
     transform="translate(1685.8734,1647.0782)"
     id="0">
    <rect
       width="7.5079999"
       height="11"
       x="-1685.8734"
       y="-1647.0782"
       id="rect3976"
       style="fill:none;stroke:none" />
    <path
       d="m -1679.3831,-1641.5812 c 0,0.6914 -0.051,1.3106 -0.1523,1.8574 -0.098,0.5469 -0.2578,1.0098 -0.4805,1.3887 -0.2187,0.3789 -0.5019,0.668 -0.8496,0.8672 -0.3476,0.1992 -0.7695,0.2988 -1.2656,0.2988 -0.4609,0 -0.8633,-0.1 -1.207,-0.2988 -0.3399,-0.1992 -0.6231,-0.4883 -0.8496,-0.8672 -0.2227,-0.3789 -0.3907,-0.8418 -0.504,-1.3887 -0.1093,-0.5468 -0.164,-1.166 -0.164,-1.8574 0,-0.6914 0.049,-1.3105 0.1465,-1.8574 0.1015,-0.5469 0.2597,-1.0078 0.4746,-1.3828 0.2187,-0.3789 0.5,-0.668 0.8437,-0.8672 0.3477,-0.1992 0.7676,-0.2988 1.2598,-0.2988 0.4648,0 0.8691,0.1 1.2129,0.2988 0.3437,0.1953 0.6289,0.4824 0.8555,0.8613 0.2265,0.375 0.3964,0.836 0.5097,1.3828 0.1133,0.5469 0.1699,1.168 0.1699,1.8633 m -4.3886,0 c 0,0.586 0.029,1.0977 0.088,1.5352 0.059,0.4375 0.1523,0.8027 0.2812,1.0957 0.1289,0.289 0.2969,0.5078 0.5039,0.6562 0.211,0.1446 0.4668,0.2168 0.7676,0.2168 0.3008,0 0.5566,-0.072 0.7676,-0.2168 0.2109,-0.1445 0.3828,-0.3613 0.5156,-0.6504 0.1367,-0.289 0.2344,-0.6523 0.293,-1.0898 0.062,-0.4414 0.094,-0.957 0.094,-1.5469 0,-0.5859 -0.031,-1.0976 -0.094,-1.5351 -0.059,-0.4375 -0.1563,-0.8008 -0.293,-1.0899 -0.1328,-0.289 -0.3047,-0.5058 -0.5156,-0.6504 -0.211,-0.1445 -0.4668,-0.2168 -0.7676,-0.2168 -0.3008,0 -0.5566,0.072 -0.7676,0.2168 -0.207,0.1446 -0.375,0.3614 -0.5039,0.6504 -0.1289,0.2891 -0.2226,0.6524 -0.2812,1.0899 -0.059,0.4375 -0.088,0.9492 -0.088,1.5351"
       id="path4060"
       style="font-size:12px;font-style:normal;font-variant:normal;font-weight:normal;font-stretch:normal;text-align:center;line-height:125%;letter-spacing:0px;word-spacing:0px;text-anchor:middle;fill:#e0e0e0;fill-opacity:1;stroke:none;font-family:Droid Sans;-inkscape-font-specification:Droid Sans" />
  </g>
  <g
     transform="translate(1685.8734,1647.0782)"
     id="1">
    <rect
       width="7.5079999"
       height="11"
       x="-1677.8734"
       y="-1647.0782"
       id="rect3985"
       style="fill:none;stroke:none" />
    <path
       d="m -1672.559,-1637.295 -1.0313,0 0,-5.3496 c 0,-0.1679 0,-0.3476 0,-0.539 0,-0.1914 0.01,-0.3809 0.012,-0.5684 0.01,-0.1914 0.014,-0.373 0.018,-0.5449 0.01,-0.1758 0.014,-0.3301 0.018,-0.4629 -0.066,0.07 -0.125,0.1309 -0.1758,0.1816 -0.051,0.051 -0.1035,0.1 -0.1582,0.1465 -0.051,0.047 -0.1055,0.098 -0.1641,0.1524 -0.059,0.051 -0.1289,0.1113 -0.2109,0.1816 l -0.8672,0.709 -0.5625,-0.7207 2.2442,-1.752 0.8789,0 0,8.5664"
       id="path4062"
       style="font-size:12px;font-style:normal;font-variant:normal;font-weight:normal;font-stretch:normal;text-align:center;line-height:125%;letter-spacing:0px;word-spacing:0px;text-anchor:middle;fill:#e0e0e0;fill-opacity:1;stroke:none;font-family:Droid Sans;-inkscape-font-specification:Droid Sans" />
  </g>
  <g
     transform="translate(1685.8734,1647.0782)"
     id="2">
    <rect
       width="7.5079999"
       height="11"
       x="-1669.8734"
       y="-1647.0782"
       id="rect3987"
       style="fill:none;stroke:none" />
    <path
       d="m -1663.4475,-1637.2334 -5.3438,0 0,-0.914 2.0508,-2.2324 c 0.293,-0.3164 0.5547,-0.6055 0.7852,-0.8672 0.2304,-0.2617 0.4257,-0.5176 0.5859,-0.7676 0.1641,-0.25 0.2891,-0.5 0.375,-0.75 0.086,-0.2539 0.1289,-0.5293 0.1289,-0.8262 0,-0.2304 -0.033,-0.4336 -0.1,-0.6094 -0.066,-0.1757 -0.1621,-0.3242 -0.2871,-0.4453 -0.1211,-0.125 -0.2656,-0.2187 -0.4336,-0.2812 -0.168,-0.062 -0.3555,-0.094 -0.5625,-0.094 -0.3711,0 -0.707,0.076 -1.0078,0.2286 -0.2969,0.1484 -0.5801,0.3398 -0.8496,0.5742 l -0.5977,-0.6973 c 0.1563,-0.1406 0.3242,-0.2715 0.5039,-0.3926 0.1797,-0.125 0.3731,-0.2324 0.5801,-0.3222 0.207,-0.09 0.4258,-0.1602 0.6562,-0.211 0.2305,-0.055 0.4727,-0.082 0.7266,-0.082 0.375,0 0.7129,0.053 1.0137,0.1582 0.3047,0.1055 0.5625,0.2578 0.7734,0.457 0.2109,0.1953 0.3731,0.4356 0.4863,0.7207 0.1172,0.2813 0.1758,0.5996 0.1758,0.9551 0,0.332 -0.053,0.6485 -0.1582,0.9492 -0.1015,0.3008 -0.2441,0.5977 -0.4277,0.8907 -0.1797,0.289 -0.3965,0.58 -0.6504,0.873 -0.25,0.293 -0.5215,0.5977 -0.8145,0.9141 l -1.6464,1.7519 0,0.047 4.0371,0 0,0.9726"
       id="path4064"
       style="font-size:12px;font-style:normal;font-variant:normal;font-weight:normal;font-stretch:normal;text-align:center;line-height:125%;letter-spacing:0px;word-spacing:0px;text-anchor:middle;fill:#e0e0e0;fill-opacity:1;stroke:none;font-family:Droid Sans;-inkscape-font-specification:Droid Sans" />
  </g>
  <g
     transform="translate(1685.8734,1647.0782)"
     id="3">
    <rect
       width="7.5079999"
       height="11"
       x="-1661.8734"
       y="-1647.0782"
       id="rect3989"
       style="fill:none;stroke:none" />
    <path
       d="m -1655.676,-1643.8543 c -10e-5,0.2852 -0.045,0.545 -0.1348,0.7793 -0.09,0.2344 -0.2168,0.4375 -0.3809,0.6094 -0.1601,0.1719 -0.3535,0.3145 -0.5801,0.4278 -0.2265,0.1093 -0.4785,0.1875 -0.7558,0.2343 l 0,0.035 c 0.6914,0.086 1.2168,0.3066 1.5762,0.6621 0.3593,0.3516 0.539,0.8105 0.539,1.3769 0,0.375 -0.064,0.7188 -0.1933,1.0313 -0.125,0.3125 -0.3164,0.582 -0.5743,0.8086 -0.2578,0.2266 -0.5839,0.4023 -0.9785,0.5273 -0.3945,0.125 -0.8613,0.1875 -1.4004,0.1875 -0.4257,0 -0.8281,-0.033 -1.207,-0.1 -0.375,-0.066 -0.7285,-0.1875 -1.0605,-0.3633 l 0,-0.9961 c 0.3398,0.1797 0.707,0.3184 1.1015,0.4161 0.3985,0.098 0.7793,0.1464 1.1426,0.1464 0.3594,0 0.6699,-0.039 0.9316,-0.1171 0.2618,-0.078 0.4766,-0.1895 0.6446,-0.334 0.1718,-0.1446 0.2968,-0.3223 0.375,-0.5332 0.082,-0.211 0.123,-0.4473 0.123,-0.709 0,-0.2656 -0.053,-0.4922 -0.1582,-0.6797 -0.1015,-0.1914 -0.248,-0.3477 -0.4394,-0.4687 -0.1914,-0.125 -0.4258,-0.2168 -0.7032,-0.2754 -0.2734,-0.059 -0.5839,-0.088 -0.9316,-0.088 l -0.7793,0 0,-0.8848 0.7793,0 c 0.3164,0 0.5977,-0.039 0.8437,-0.1172 0.2461,-0.078 0.4512,-0.1894 0.6153,-0.334 0.1679,-0.1445 0.2949,-0.3164 0.3808,-0.5156 0.086,-0.1992 0.1289,-0.418 0.1289,-0.6562 0,-0.2032 -0.035,-0.3848 -0.1054,-0.545 -0.07,-0.1601 -0.1699,-0.2949 -0.2988,-0.4043 -0.129,-0.1132 -0.2833,-0.1992 -0.4629,-0.2578 -0.1797,-0.059 -0.3789,-0.088 -0.5977,-0.088 -0.418,0 -0.7871,0.066 -1.1074,0.1993 -0.3164,0.1289 -0.6192,0.2988 -0.9082,0.5097 l -0.5391,-0.7324 c 0.1485,-0.1211 0.3125,-0.2344 0.4922,-0.3398 0.1836,-0.1055 0.3828,-0.1973 0.5977,-0.2754 0.2148,-0.082 0.4433,-0.1465 0.6855,-0.1934 0.2461,-0.047 0.5059,-0.07 0.7793,-0.07 0.4219,0 0.791,0.053 1.1074,0.1582 0.3203,0.1055 0.5879,0.2539 0.8028,0.4453 0.2148,0.1875 0.3769,0.4121 0.4863,0.6738 0.1094,0.2579 0.164,0.5411 0.1641,0.8496"
       id="path4066"
       style="font-size:12px;font-style:normal;font-variant:normal;font-weight:normal;font-stretch:normal;text-align:center;line-height:125%;letter-spacing:0px;word-spacing:0px;text-anchor:middle;fill:#e0e0e0;fill-opacity:1;stroke:none;font-family:Droid Sans;-inkscape-font-specification:Droid Sans" />
  </g>
  <g
     transform="translate(1685.8734,1647.0782)"
     id="4">
    <rect
       width="7.5079999"
       height="11"
       x="-1653.8734"
       y="-1647.0782"
       id="rect3991"
       style="fill:none;stroke:none" />
    <path
       d="m -1647.0022,-1639.1934 -1.248,0 0,1.9218 -1.0313,0 0,-1.9218 -3.9551,0 0,-0.9317 3.8848,-5.7597 1.1016,0 0,5.7187 1.248,0 0,0.9727 m -2.2793,-0.9727 0,-2.0859 c 0,-0.2188 0,-0.4473 0.01,-0.6856 0.01,-0.2422 0.016,-0.4765 0.023,-0.7031 0.01,-0.2305 0.016,-0.4453 0.023,-0.6445 0.012,-0.1992 0.02,-0.3653 0.024,-0.4981 l -0.053,0 c -0.027,0.078 -0.062,0.166 -0.1054,0.2637 -0.039,0.094 -0.084,0.1895 -0.1348,0.2871 -0.047,0.094 -0.096,0.1856 -0.1465,0.2754 -0.051,0.09 -0.098,0.166 -0.1406,0.2285 l -2.4082,3.5625 2.9121,0"
       id="path4068"
       style="font-size:12px;font-style:normal;font-variant:normal;font-weight:normal;font-stretch:normal;text-align:center;line-height:125%;letter-spacing:0px;word-spacing:0px;text-anchor:middle;fill:#e0e0e0;fill-opacity:1;stroke:none;font-family:Droid Sans;-inkscape-font-specification:Droid Sans" />
  </g>
  <g
     transform="translate(1685.8734,1647.0782)"
     id="5">
    <rect
       width="7.5079999"
       height="11"
       x="-1645.8734"
       y="-1647.0782"
       id="rect3993"
       style="fill:none;stroke:none" />
    <path
       d="m -1642.2805,-1642.6098 c 0.3867,0 0.7461,0.055 1.0781,0.164 0.336,0.1055 0.627,0.2637 0.8731,0.4747 0.25,0.2109 0.4453,0.4726 0.5859,0.7851 0.1406,0.3125 0.2109,0.6738 0.2109,1.084 0,0.4453 -0.066,0.8457 -0.1992,1.2012 -0.1328,0.3554 -0.3301,0.6562 -0.5918,0.9023 -0.2617,0.2461 -0.5859,0.4356 -0.9726,0.5684 -0.3828,0.1289 -0.8242,0.1933 -1.3242,0.1933 -0.1993,0 -0.3965,-0.01 -0.5918,-0.029 -0.1914,-0.02 -0.377,-0.049 -0.5567,-0.088 -0.1758,-0.035 -0.3437,-0.082 -0.5039,-0.1406 -0.1601,-0.059 -0.3047,-0.1269 -0.4336,-0.2051 l 0,-1.0078 c 0.1289,0.09 0.2793,0.17 0.4512,0.2403 0.1758,0.07 0.3594,0.1289 0.5508,0.1757 0.1914,0.047 0.3828,0.084 0.5742,0.1114 0.1953,0.023 0.375,0.035 0.5391,0.035 0.3085,0 0.5839,-0.035 0.8261,-0.1054 0.2422,-0.074 0.4473,-0.1875 0.6153,-0.3399 0.1679,-0.1523 0.2968,-0.3437 0.3867,-0.5742 0.09,-0.2305 0.1347,-0.5039 0.1347,-0.8203 0,-0.5586 -0.1718,-0.9844 -0.5156,-1.2774 -0.3437,-0.2968 -0.8437,-0.4453 -1.5,-0.4453 -0.1054,0 -0.2207,0.01 -0.3457,0.018 -0.1211,0.01 -0.2441,0.02 -0.3691,0.035 -0.1211,0.016 -0.2383,0.033 -0.3516,0.053 -0.1094,0.016 -0.2051,0.031 -0.2871,0.047 l -0.5273,-0.334 0.3222,-4.0313 4.043,0 0,0.9727 -3.1172,0 -0.2285,2.4551 c 0.125,-0.024 0.2891,-0.049 0.4922,-0.076 0.207,-0.027 0.4511,-0.041 0.7324,-0.041"
       id="path4070"
       style="font-size:12px;font-style:normal;font-variant:normal;font-weight:normal;font-stretch:normal;text-align:center;line-height:125%;letter-spacing:0px;word-spacing:0px;text-anchor:middle;fill:#e0e0e0;fill-opacity:1;stroke:none;font-family:Droid Sans;-inkscape-font-specification:Droid Sans" />
  </g>
  <g
     transform="translate(1685.8734,1647.0782)"
     id="6">
    <rect
       width="7.5079999"
       height="11"
       x="-1637.8734"
       y="-1647.0782"
       id="rect3995"
       style="fill:none;stroke:none" />
    <path
       d="m -1636.8178,-1640.9484 c 0,-0.4101 0.02,-0.8183 0.059,-1.2246 0.043,-0.4062 0.1153,-0.7949 0.2168,-1.166 0.1055,-0.375 0.2481,-0.7226 0.4278,-1.043 0.1796,-0.3203 0.4082,-0.5976 0.6855,-0.832 0.2773,-0.2383 0.6094,-0.4238 0.9961,-0.5566 0.3867,-0.1367 0.8398,-0.2051 1.3594,-0.2051 0.074,0 0.1562,0 0.2461,0.01 0.09,0 0.1796,0.012 0.2695,0.023 0.094,0.01 0.1816,0.02 0.2637,0.035 0.086,0.012 0.1621,0.027 0.2285,0.047 l 0,0.9082 c -0.1367,-0.047 -0.291,-0.082 -0.4629,-0.1054 -0.1719,-0.024 -0.3418,-0.035 -0.5098,-0.035 -0.3515,0 -0.6621,0.043 -0.9316,0.1289 -0.2656,0.082 -0.4961,0.1992 -0.6914,0.3516 -0.1953,0.1523 -0.3594,0.334 -0.4922,0.5449 -0.1289,0.2109 -0.2344,0.4453 -0.3164,0.7031 -0.082,0.2539 -0.1426,0.5254 -0.1817,0.8145 -0.039,0.289 -0.064,0.5898 -0.076,0.9023 l 0.07,0 c 0.078,-0.1406 0.1719,-0.2715 0.2812,-0.3926 0.1133,-0.125 0.2442,-0.2304 0.3926,-0.3164 0.1484,-0.09 0.3145,-0.1601 0.4981,-0.2109 0.1875,-0.051 0.3964,-0.076 0.6269,-0.076 0.3711,0 0.707,0.059 1.0078,0.1758 0.3008,0.1133 0.5567,0.2813 0.7676,0.5039 0.2109,0.2227 0.373,0.4961 0.4863,0.8203 0.1172,0.3203 0.1758,0.6875 0.1758,1.1016 0,0.4453 -0.061,0.8457 -0.1816,1.2012 -0.1211,0.3554 -0.295,0.6582 -0.5215,0.9082 -0.2266,0.246 -0.5,0.4355 -0.8203,0.5683 -0.3203,0.1328 -0.6797,0.1992 -1.0782,0.1992 -0.3906,0 -0.7578,-0.076 -1.1015,-0.2285 -0.3399,-0.1523 -0.6348,-0.3847 -0.8848,-0.6972 -0.25,-0.3125 -0.4472,-0.7051 -0.5918,-1.1778 -0.1445,-0.4726 -0.2168,-1.0312 -0.2168,-1.6758 m 2.7832,2.8828 c 0.2344,0 0.4473,-0.039 0.6387,-0.1171 0.1953,-0.082 0.3633,-0.2032 0.5039,-0.3633 0.1406,-0.1641 0.2481,-0.3692 0.3223,-0.6153 0.078,-0.25 0.1172,-0.5449 0.1172,-0.8847 0,-0.2735 -0.033,-0.5176 -0.1,-0.7324 -0.063,-0.2188 -0.1583,-0.4043 -0.2872,-0.5567 -0.1289,-0.1523 -0.291,-0.2695 -0.4863,-0.3515 -0.1914,-0.082 -0.416,-0.1231 -0.6738,-0.1231 -0.2617,0 -0.502,0.047 -0.7207,0.1406 -0.2149,0.09 -0.3985,0.209 -0.5508,0.3575 -0.1523,0.1445 -0.2715,0.3105 -0.3574,0.498 -0.082,0.1875 -0.1231,0.375 -0.1231,0.5625 0,0.2617 0.035,0.5234 0.1055,0.7852 0.074,0.2578 0.1816,0.4902 0.3223,0.6972 0.1445,0.2071 0.3242,0.377 0.539,0.5098 0.2149,0.1289 0.4649,0.1933 0.75,0.1933"
       id="path4072"
       style="font-size:12px;font-style:normal;font-variant:normal;font-weight:normal;font-stretch:normal;text-align:center;line-height:125%;letter-spacing:0px;word-spacing:0px;text-anchor:middle;fill:#e0e0e0;fill-opacity:1;stroke:none;font-family:Droid Sans;-inkscape-font-specification:Droid Sans" />
  </g>
  <g
     transform="translate(1685.8734,1647.0782)"
     id="7">
    <rect
       width="7.5079999"
       height="11"
       x="-1629.8734"
       y="-1647.0782"
       id="rect3997"
       style="fill:none;stroke:none" />
    <path
       d="m -1627.7541,-1637.295 3.2988,-7.5937 -4.418,0 0,-0.9727 5.5078,0 0,0.8496 -3.2519,7.7168 -1.1367,0"
       id="path4074"
       style="font-size:12px;font-style:normal;font-variant:normal;font-weight:normal;font-stretch:normal;text-align:center;line-height:125%;letter-spacing:0px;word-spacing:0px;text-anchor:middle;fill:#e0e0e0;fill-opacity:1;stroke:none;font-family:Droid Sans;-inkscape-font-specification:Droid Sans" />
  </g>
  <g
     transform="translate(1685.8734,1647.0782)"
     id="8">
    <rect
       width="7.5079999"
       height="11"
       x="-1621.8734"
       y="-1647.0782"
       id="rect3999"
       style="fill:none;stroke:none" />
    <path
       d="m -1618.1195,-1645.9874 c 0.3281,0 0.6367,0.043 0.9258,0.1289 0.293,0.086 0.5488,0.2148 0.7676,0.3867 0.2226,0.1719 0.3984,0.3867 0.5273,0.6445 0.1289,0.2578 0.1934,0.5586 0.1934,0.9024 0,0.2617 -0.039,0.498 -0.1172,0.709 -0.078,0.2109 -0.1856,0.4023 -0.3223,0.5742 -0.1367,0.168 -0.2988,0.3203 -0.4863,0.457 -0.1875,0.1328 -0.3906,0.2539 -0.6094,0.3633 0.2266,0.1211 0.4473,0.2559 0.6621,0.4043 0.2188,0.1484 0.4121,0.3164 0.5801,0.5039 0.1719,0.1836 0.3086,0.3906 0.4102,0.6211 0.1054,0.2305 0.1582,0.4883 0.1582,0.7734 0,0.3594 -0.066,0.6856 -0.1993,0.9785 -0.1289,0.2891 -0.3125,0.5352 -0.5507,0.7383 -0.2344,0.2031 -0.5176,0.3594 -0.8496,0.4688 -0.3282,0.1093 -0.6915,0.164 -1.0899,0.164 -0.4297,0 -0.8125,-0.053 -1.1484,-0.1582 -0.3321,-0.1054 -0.6133,-0.2558 -0.8438,-0.4511 -0.2265,-0.1993 -0.4004,-0.4414 -0.5215,-0.7266 -0.1171,-0.2852 -0.1757,-0.6074 -0.1757,-0.9668 0,-0.293 0.043,-0.5566 0.1289,-0.791 0.09,-0.2344 0.209,-0.4453 0.3574,-0.6328 0.1484,-0.1875 0.3242,-0.3535 0.5273,-0.4981 0.2032,-0.1445 0.418,-0.2715 0.6446,-0.3808 -0.1914,-0.1211 -0.3711,-0.252 -0.5391,-0.3926 -0.168,-0.1445 -0.3145,-0.3047 -0.4395,-0.4805 -0.121,-0.1758 -0.2187,-0.3691 -0.2929,-0.5801 -0.07,-0.2148 -0.1055,-0.4511 -0.1055,-0.7089 0,-0.3399 0.064,-0.6368 0.1934,-0.8907 0.1328,-0.2578 0.3105,-0.4726 0.5332,-0.6445 0.2226,-0.1719 0.4785,-0.3008 0.7676,-0.3867 0.2929,-0.086 0.5976,-0.1289 0.914,-0.1289 m -1.6406,6.5273 c 0,0.2071 0.031,0.3985 0.094,0.5742 0.062,0.1719 0.1602,0.3203 0.293,0.4453 0.1328,0.1211 0.3008,0.2168 0.5039,0.2872 0.2031,0.066 0.4453,0.1 0.7266,0.1 0.2734,0 0.5136,-0.033 0.7207,-0.1 0.2109,-0.07 0.3867,-0.168 0.5273,-0.293 0.1406,-0.1289 0.2461,-0.2832 0.3164,-0.4629 0.07,-0.1797 0.1055,-0.3789 0.1055,-0.5977 0,-0.2031 -0.039,-0.3867 -0.1172,-0.5507 -0.074,-0.1641 -0.1836,-0.3164 -0.3281,-0.4571 -0.1406,-0.1406 -0.3106,-0.2734 -0.5098,-0.3984 -0.1992,-0.125 -0.4219,-0.2481 -0.6679,-0.3691 l -0.1758,-0.082 c -0.4922,0.2344 -0.8633,0.5039 -1.1133,0.8086 -0.25,0.3008 -0.375,0.666 -0.375,1.0957 m 1.6289,-5.6367 c -0.4141,0 -0.7441,0.1035 -0.9902,0.3105 -0.2422,0.2071 -0.3633,0.5079 -0.3633,0.9024 0,0.2227 0.033,0.4141 0.1,0.5742 0.07,0.1602 0.166,0.3027 0.2871,0.4277 0.1211,0.125 0.2656,0.2383 0.4336,0.3399 0.1719,0.098 0.3574,0.1934 0.5566,0.2871 0.1875,-0.086 0.3633,-0.1797 0.5274,-0.2813 0.1679,-0.1015 0.3125,-0.2167 0.4336,-0.3457 0.125,-0.1289 0.2226,-0.2753 0.2929,-0.4394 0.07,-0.1641 0.1055,-0.3516 0.1055,-0.5625 0,-0.3945 -0.123,-0.6953 -0.3691,-0.9024 -0.2461,-0.207 -0.584,-0.3105 -1.0137,-0.3105"
       id="path4076"
       style="font-size:12px;font-style:normal;font-variant:normal;font-weight:normal;font-stretch:normal;text-align:center;line-height:125%;letter-spacing:0px;word-spacing:0px;text-anchor:middle;fill:#e0e0e0;fill-opacity:1;stroke:none;font-family:Droid Sans;-inkscape-font-specification:Droid Sans" />
  </g>
  <g
     transform="translate(1685.8734,1647.0782)"
     id="g4048">
    <rect
       width="7.5079999"
       height="11"
       x="-1613.8734"
       y="-1647.0782"
       id="rect4001"
       style="fill:none;stroke:none" />
    <path
       d="m -1607.4188,-1642.1997 c 0,0.4101 -0.022,0.8203 -0.064,1.2305 -0.039,0.4062 -0.1113,0.7949 -0.2168,1.166 -0.1015,0.3711 -0.2422,0.7187 -0.4218,1.0429 -0.1797,0.3204 -0.4083,0.5977 -0.6856,0.8321 -0.2773,0.2343 -0.6094,0.4199 -0.9961,0.5566 -0.3867,0.1328 -0.8398,0.1992 -1.3594,0.1992 -0.074,0 -0.1562,0 -0.2461,-0.01 -0.09,0 -0.1796,-0.012 -0.2695,-0.024 -0.09,-0.01 -0.1777,-0.017 -0.2637,-0.029 -0.086,-0.012 -0.1621,-0.027 -0.2285,-0.047 l 0,-0.9141 c 0.1367,0.051 0.291,0.088 0.4629,0.1113 0.1719,0.024 0.3418,0.035 0.5098,0.035 0.5273,0 0.9609,-0.092 1.3008,-0.2754 0.3398,-0.1836 0.6093,-0.4316 0.8086,-0.7441 0.1992,-0.3164 0.3398,-0.6836 0.4218,-1.1016 0.086,-0.418 0.1387,-0.8594 0.1582,-1.3242 l -0.076,0 c -0.078,0.1406 -0.1719,0.2715 -0.2813,0.3926 -0.1094,0.121 -0.2383,0.2265 -0.3867,0.3164 -0.1484,0.09 -0.3164,0.1601 -0.5039,0.2109 -0.1875,0.051 -0.3965,0.076 -0.627,0.076 -0.3711,0 -0.707,-0.057 -1.0078,-0.17 -0.3008,-0.1171 -0.5566,-0.2871 -0.7676,-0.5097 -0.2109,-0.2227 -0.375,-0.4942 -0.4921,-0.8145 -0.1133,-0.3242 -0.17,-0.6933 -0.17,-1.1074 0,-0.4453 0.061,-0.8457 0.1817,-1.2012 0.125,-0.3593 0.2988,-0.6621 0.5215,-0.9082 0.2265,-0.25 0.5,-0.4414 0.8203,-0.5742 0.3242,-0.1328 0.6855,-0.1992 1.084,-0.1992 0.3945,0 0.7617,0.076 1.1015,0.2285 0.3399,0.1524 0.6348,0.3848 0.8848,0.6973 0.25,0.3125 0.4472,0.707 0.5918,1.1836 0.1445,0.4726 0.2168,1.0293 0.2168,1.6699 m -2.7832,-2.877 c -0.2344,0 -0.4492,0.039 -0.6446,0.1172 -0.1914,0.078 -0.3574,0.1992 -0.498,0.3633 -0.1406,0.1641 -0.25,0.3711 -0.3281,0.6211 -0.074,0.2461 -0.1114,0.5391 -0.1114,0.8789 0,0.2734 0.031,0.5195 0.094,0.7383 0.066,0.2148 0.1641,0.3984 0.293,0.5508 0.1289,0.1523 0.289,0.2695 0.4804,0.3515 0.1953,0.082 0.4219,0.1231 0.6797,0.1231 0.2656,0 0.5059,-0.045 0.7207,-0.1348 0.2149,-0.094 0.3985,-0.2129 0.5508,-0.3574 0.1523,-0.1484 0.2695,-0.3164 0.3516,-0.5039 0.086,-0.1875 0.1289,-0.375 0.1289,-0.5625 0,-0.2617 -0.037,-0.5215 -0.1114,-0.7793 -0.07,-0.2617 -0.1777,-0.4961 -0.3222,-0.7031 -0.1406,-0.211 -0.3184,-0.3809 -0.5332,-0.5098 -0.2149,-0.1289 -0.4649,-0.1934 -0.75,-0.1934"
       id="9"
       style="font-size:12px;font-style:normal;font-variant:normal;font-weight:normal;font-stretch:normal;text-align:center;line-height:125%;letter-spacing:0px;word-spacing:0px;text-anchor:middle;fill:#e0e0e0;fill-opacity:1;stroke:none;font-family:Droid Sans;-inkscape-font-specification:Droid Sans" />
  </g>
  <g
     transform="translate(1685.8734,1647.0782)"
     id="separatorB">
    <rect
       width="7.5079999"
       height="11"
       x="-1597.8734"
       y="-1647.0782"
       id="rect4005"
       style="fill:none;stroke:none" />
    <path
       d="m -1594.864,-1637.9366 c 0,-0.1485 0.02,-0.2735 0.059,-0.375 0.039,-0.1055 0.092,-0.1895 0.1582,-0.252 0.066,-0.066 0.1446,-0.1133 0.2344,-0.1406 0.09,-0.031 0.1875,-0.047 0.293,-0.047 0.1015,0 0.1972,0.016 0.2871,0.047 0.094,0.027 0.1738,0.074 0.2402,0.1406 0.066,0.062 0.1192,0.1465 0.1582,0.252 0.039,0.1015 0.059,0.2265 0.059,0.375 0,0.1445 -0.019,0.2695 -0.059,0.375 -0.039,0.1015 -0.092,0.1855 -0.1582,0.2519 -0.066,0.066 -0.1465,0.1152 -0.2402,0.1465 -0.09,0.031 -0.1856,0.047 -0.2871,0.047 -0.1055,0 -0.2032,-0.016 -0.293,-0.047 -0.09,-0.031 -0.168,-0.08 -0.2344,-0.1465 -0.066,-0.066 -0.1191,-0.1504 -0.1582,-0.2519 -0.039,-0.1055 -0.059,-0.2305 -0.059,-0.375"
       id="path4082"
       style="font-size:12px;font-style:normal;font-variant:normal;font-weight:normal;font-stretch:normal;text-align:center;line-height:125%;letter-spacing:0px;word-spacing:0px;text-anchor:middle;fill:#e0e0e0;fill-opacity:1;stroke:none;font-family:Droid Sans;-inkscape-font-specification:Droid Sans" />
  </g>
  <g
     transform="translate(1685.8734,1647.0782)"
     id="separator">
    <rect
       width="7.5079999"
       height="11"
       x="-1589.8734"
       y="-1647.0782"
       id="rect4007"
       style="fill:none;stroke:none" />
    <path
       d="m -1585.3583,-1639.6807 0.088,0.1348 c -0.055,0.2109 -0.1211,0.4355 -0.1992,0.6738 -0.074,0.2383 -0.1582,0.4785 -0.2519,0.7207 -0.09,0.2422 -0.1856,0.4824 -0.2872,0.7207 -0.098,0.2422 -0.1953,0.4727 -0.2929,0.6914 l -0.8086,0 c 0.059,-0.2383 0.1152,-0.4863 0.1699,-0.7441 0.059,-0.2578 0.1133,-0.5156 0.1641,-0.7735 0.055,-0.2539 0.1035,-0.5019 0.1465,-0.7441 0.043,-0.2461 0.08,-0.4727 0.1113,-0.6797 l 1.1601,0 m -1.2597,-4.3887 c 0,-0.1523 0.02,-0.2792 0.059,-0.3808 0.039,-0.1055 0.092,-0.1895 0.1582,-0.252 0.066,-0.066 0.1445,-0.1132 0.2343,-0.1406 0.09,-0.027 0.1875,-0.041 0.293,-0.041 0.1016,0 0.1973,0.014 0.2871,0.041 0.094,0.027 0.1738,0.074 0.2403,0.1406 0.066,0.062 0.1191,0.1465 0.1582,0.252 0.039,0.1016 0.059,0.2285 0.059,0.3808 0,0.1446 -0.02,0.2676 -0.059,0.3692 -0.039,0.1016 -0.092,0.1855 -0.1582,0.2519 -0.067,0.066 -0.1465,0.1153 -0.2403,0.1465 -0.09,0.031 -0.1855,0.047 -0.2871,0.047 -0.1055,0 -0.2031,-0.016 -0.293,-0.047 -0.09,-0.031 -0.1679,-0.08 -0.2343,-0.1465 -0.066,-0.066 -0.1192,-0.1503 -0.1582,-0.2519 -0.039,-0.1016 -0.059,-0.2246 -0.059,-0.3692"
       id="path3936"
       style="font-size:12px;font-style:normal;font-variant:normal;font-weight:normal;font-stretch:normal;text-align:center;line-height:125%;letter-spacing:0px;word-spacing:0px;text-anchor:middle;fill:#e0e0e0;fill-opacity:1;stroke:none;font-family:Droid Sans;-inkscape-font-specification:Droid Sans" />
  </g>
</svg>
