<?xml version="1.0" encoding="UTF-8" standalone="no"?>
<!-- Created with Inkscape (http://www.inkscape.org/) -->

<svg
   xmlns:dc="http://purl.org/dc/elements/1.1/"
   xmlns:cc="http://creativecommons.org/ns#"
   xmlns:rdf="http://www.w3.org/1999/02/22-rdf-syntax-ns#"
   xmlns:svg="http://www.w3.org/2000/svg"
   xmlns="http://www.w3.org/2000/svg"
   xmlns:sodipodi="http://sodipodi.sourceforge.net/DTD/sodipodi-0.dtd"
   xmlns:inkscape="http://www.inkscape.org/namespaces/inkscape"
   id="svg2"
   sodipodi:version="0.32"
   inkscape:version="0.91 r13725"
   width="15.000373"
   height="15.000005"
   sodipodi:docname="toolbar.svg"
   inkscape:output_extension="org.inkscape.output.svgz.inkscape"
   inkscape:export-filename="/home/pinheiro/Documents/pics/estilo/plasma/wether.png"
   inkscape:export-xdpi="90"
   inkscape:export-ydpi="90"
   version="1.0">
  <sodipodi:namedview
     inkscape:window-height="830"
     inkscape:window-width="1408"
     inkscape:pageshadow="2"
     inkscape:pageopacity="0"
     guidetolerance="10.0"
     gridtolerance="10.0"
     objecttolerance="10.0"
     borderopacity="1.0"
     bordercolor="#666666"
     pagecolor="#323232"
     id="base"
     inkscape:zoom="18.601232"
     inkscape:cx="39.452349"
     inkscape:cy="6.1248977"
     inkscape:window-x="264"
     inkscape:window-y="138"
     inkscape:current-layer="svg2"
     showgrid="true"
     showguides="false"
     inkscape:guide-bbox="true"
     inkscape:snap-guide="false"
     inkscape:snap-bbox="true"
     inkscape:object-paths="true"
     inkscape:bbox-nodes="false"
     inkscape:snap-global="true"
     inkscape:object-nodes="true"
     inkscape:window-maximized="0"
     fit-margin-top="0"
     fit-margin-left="0"
     fit-margin-right="0"
     fit-margin-bottom="0"
     showborder="false">
    <inkscape:grid
       snapvisiblegridlinesonly="true"
       empspacing="4"
       enabled="true"
       visible="true"
       id="grid5592"
       type="xygrid"
       originx="0"
       originy="0" />
  </sodipodi:namedview>
  <metadata
     id="metadata7">
    <rdf:RDF>
      <cc:Work
         rdf:about="">
        <dc:format>image/svg+xml</dc:format>
        <dc:type
           rdf:resource="http://purl.org/dc/dcmitype/StillImage" />
        <dc:title />
        <cc:license
           rdf:resource="http://creativecommons.org/licenses/by-nc-sa/3.0/" />
        <dc:creator>
          <cc:Agent>
            <dc:title>obnosim</dc:title>
          </cc:Agent>
        </dc:creator>
      </cc:Work>
      <cc:Work
         rdf:about="">
        <dc:format>image/svg+xml</dc:format>
        <dc:type
           rdf:resource="http://purl.org/dc/dcmitype/StillImage" />
      </cc:Work>
      <cc:License
         rdf:about="http://creativecommons.org/licenses/by-nc-sa/3.0/">
        <cc:permits
           rdf:resource="http://creativecommons.org/ns#Reproduction" />
        <cc:permits
           rdf:resource="http://creativecommons.org/ns#Distribution" />
        <cc:requires
           rdf:resource="http://creativecommons.org/ns#Notice" />
        <cc:requires
           rdf:resource="http://creativecommons.org/ns#Attribution" />
        <cc:prohibits
           rdf:resource="http://creativecommons.org/ns#CommercialUse" />
        <cc:permits
           rdf:resource="http://creativecommons.org/ns#DerivativeWorks" />
        <cc:requires
           rdf:resource="http://creativecommons.org/ns#ShareAlike" />
      </cc:License>
    </rdf:RDF>
  </metadata>
  <defs
     id="defs5">
    <style
       id="current-color-scheme"
       type="text/css">
      .ColorScheme-Text {
        color:#7B7C7E;
      }
      .ColorScheme-Background{
        color:#EFF0F1;
      }
      .ColorScheme-Highlight{
        color:#3DAEE6;
      }
      .ColorScheme-ViewText {
        color:#7B7C7E;
      }
      .ColorScheme-ViewBackground{
        color:#FCFCFC;
      }
      .ColorScheme-ViewHover {
        color:#3DAEE6;
      }
      .ColorScheme-ViewFocus{
        color:#1E92FF;
      }
      .ColorScheme-ButtonText {
        color:#7B7C7E;
      }
      .ColorScheme-ButtonBackground{
        color:#EFF0F1;
      }
      .ColorScheme-ButtonHover {
        color:#3DAEE6;
      }
      .ColorScheme-ButtonFocus{
        color:#1E92FF;
      }
</style>
  </defs>
  <rect
     style="opacity:1;fill:#4e9a06;fill-opacity:1;fill-rule:nonzero;stroke:none;stroke-width:6;stroke-linecap:round;stroke-linejoin:round;stroke-miterlimit:4;stroke-dasharray:none;stroke-dashoffset:0;stroke-opacity:1"
     id="hint-tile-center"
     width="2.0329318"
     height="2.077126"
     x="-3.7396626"
     y="-5.3402414" />
  <path
     inkscape:connector-curvature="0"
     id="center"
     d="m 2.000076,2.0003448 0,11.0000002 10.999999,0 0,-11.0000002 -10.999999,0 z"
     style="color:#fcfcfc;opacity:0.875;fill:#000000;fill-opacity:1;fill-rule:nonzero;stroke:none"
     class="ColorScheme-ViewBackground"
     inkscape:label="#normal-center-8" />
  <path
     inkscape:connector-curvature="0"
     id="right"
     d="m 13.000076,2.0003448 0,11.0000002 2,0 c 6.68e-4,-0.0183 0,-0.0344 0,-0.0529 l 0,-10.8942302 c 0,-0.0185 6.68e-4,-0.03453 0,-0.05288 l -2,0 z"
     style="color:#fcfcfc;opacity:0.875;fill:#000000;fill-opacity:1;fill-rule:nonzero;stroke:none"
     class="ColorScheme-ViewBackground"
     inkscape:label="#normal-right-4" />
  <path
     sodipodi:nodetypes="ccccsscc"
     inkscape:connector-curvature="0"
     id="top"
     d="m 2.000076,2.9777778e-4 0,2.00004702222 10.999999,0 0,-2.00004702222 c -0.0041,-6.7e-4 0.0042,0 10e-7,0 l -10.98814,0 c -0.004,0 -0.008,-6.7e-4 -0.0119,0 z"
     style="color:#fcfcfc;opacity:0.875;fill:#000000;fill-opacity:1;fill-rule:nonzero;stroke:none"
     inkscape:label="#plain-top"
     class="ColorScheme-ViewBackground" />
  <path
     inkscape:connector-curvature="0"
     id="left"
     d="m 3.76e-4,2.0003448 c -6.7e-4,0.01835 0,0.03439 0,0.05288 l 0,10.8942302 c 0,0.0185 -6.7e-4,0.0345 0,0.0529 l 2,0 0,-11.0000002 -2,0 z"
     style="color:#fcfcfc;opacity:0.875;fill:#000000;fill-opacity:1;fill-rule:nonzero;stroke:none"
     class="ColorScheme-ViewBackground"
     inkscape:label="#normal-left-0" />
  <path
     sodipodi:nodetypes="ccccc"
     inkscape:connector-curvature="0"
     id="bottom"
     d="m 2.000076,13.000005 0,2 11,0 0,-1.99966 z"
     style="color:#fcfcfc;opacity:0.875;fill:#000000;fill-opacity:1;fill-rule:nonzero;stroke:none"
     inkscape:label="#plain-bottom"
     class="ColorScheme-ViewBackground" />
  <path
     style="color:#fcfcfc;opacity:0.875;fill:#000000;fill-opacity:1;fill-rule:nonzero;stroke:none"
     d="m 4.3e-5,2.9777778e-4 0,2.00004702222 1.999771,0 0,-2.00004702222 c -7.46e-4,-6.7e-4 7.63e-4,0 0,0 l -1.997614,0 c -7.28e-4,0 -0.0015,-6.7e-4 -0.0022,0 z"
     id="topleft"
     inkscape:connector-curvature="0"
     sodipodi:nodetypes="ccccsscc"
     inkscape:label="#path3112"
     class="ColorScheme-ViewBackground" />
  <path
     style="color:#fcfcfc;opacity:0.875;fill:#000000;fill-opacity:1;fill-rule:nonzero;stroke:none"
     d="m 13.000083,6.4277778e-4 0,1.99970202222 1.999771,0 0,-1.99970202222 c -7.46e-4,-6.70000002e-4 7.63e-4,0 0,0 l -1.997614,0 c -7.28e-4,0 -0.0015,-6.70000002e-4 -0.0022,0 z"
     id="topright"
     inkscape:connector-curvature="0"
     sodipodi:nodetypes="ccccsscc"
     inkscape:label="#path3118"
     class="ColorScheme-ViewBackground" />
  <path
     sodipodi:nodetypes="ccccsscc"
     inkscape:connector-curvature="0"
     id="bottomright"
     d="m 13.000083,13.000295 0,1.99971 1.999771,0 0,-1.99971 c -7.46e-4,-6.7e-4 7.63e-4,0 0,0 l -1.997614,0 c -7.28e-4,0 -0.0015,-6.7e-4 -0.0022,0 z"
     style="color:#fcfcfc;opacity:0.875;fill:#000000;fill-opacity:1;fill-rule:nonzero;stroke:none"
     inkscape:label="#path3130"
     class="ColorScheme-ViewBackground" />
  <path
     style="color:#fcfcfc;opacity:0.875;fill:#000000;fill-opacity:1;fill-rule:nonzero;stroke:none"
     d="m 8.3e-5,13.000295 0,1.99971 1.999771,0 0,-1.99971 c -7.46e-4,-6.7e-4 7.63e-4,0 0,0 l -1.997614,0 c -7.28e-4,0 -0.0015,-6.7e-4 -0.0022,0 z"
     id="bottomleft"
     inkscape:connector-curvature="0"
     sodipodi:nodetypes="ccccsscc"
     inkscape:label="#path3136"
     class="ColorScheme-ViewBackground" />
</svg>
