<?xml version="1.0" encoding="UTF-8" standalone="no"?>
<!-- Created with Inkscape (http://www.inkscape.org/) -->

<svg
   xmlns:dc="http://purl.org/dc/elements/1.1/"
   xmlns:cc="http://creativecommons.org/ns#"
   xmlns:rdf="http://www.w3.org/1999/02/22-rdf-syntax-ns#"
   xmlns:svg="http://www.w3.org/2000/svg"
   xmlns="http://www.w3.org/2000/svg"
   xmlns:xlink="http://www.w3.org/1999/xlink"
   xmlns:sodipodi="http://sodipodi.sourceforge.net/DTD/sodipodi-0.dtd"
   xmlns:inkscape="http://www.inkscape.org/namespaces/inkscape"
   version="1.1"
   width="84"
   height="36"
   id="svg3155"
   inkscape:version="0.91 r13725"
   sodipodi:docname="viewitem.svgz">
  <sodipodi:namedview
     pagecolor="#323232"
     bordercolor="#666666"
     borderopacity="1"
     objecttolerance="10"
     gridtolerance="10"
     guidetolerance="10"
     inkscape:pageopacity="1"
     inkscape:pageshadow="2"
     inkscape:window-width="640"
     inkscape:window-height="480"
     id="namedview106"
     showgrid="false"
     inkscape:showpageshadow="false"
     showborder="false"
     inkscape:zoom="1"
     inkscape:cx="113.0619"
     inkscape:cy="-0.88207391"
     inkscape:current-layer="svg3155">
    <inkscape:grid
       type="xygrid"
       id="grid4393"
       empspacing="4"
       visible="true"
       enabled="true"
       snapvisiblegridlinesonly="true" />
  </sodipodi:namedview>
  <defs
     id="defs3157">
    <linearGradient
       id="linearGradient4112">
      <stop
         id="stop4114"
         style="stop-color:#ffffff;stop-opacity:1"
         offset="0" />
      <stop
         id="stop4116"
         style="stop-color:#ffffff;stop-opacity:0.75294119;"
         offset="1" />
    </linearGradient>
    <linearGradient
       inkscape:collect="always"
       xlink:href="#linearGradient4112"
       id="linearGradient4282"
       gradientUnits="userSpaceOnUse"
       gradientTransform="translate(118,-48)"
       x1="-54"
       y1="51"
       x2="-54"
       y2="61" />
    <linearGradient
       inkscape:collect="always"
       xlink:href="#linearGradient4112"
       id="linearGradient4285"
       gradientUnits="userSpaceOnUse"
       gradientTransform="translate(118,-48)"
       x1="-37"
       y1="51"
       x2="-37"
       y2="61" />
    <linearGradient
       inkscape:collect="always"
       xlink:href="#linearGradient4112"
       id="linearGradient4288"
       gradientUnits="userSpaceOnUse"
       gradientTransform="translate(118,-48)"
       x1="-73"
       y1="51"
       x2="-73"
       y2="61" />
    <linearGradient
       inkscape:collect="always"
       xlink:href="#linearGradient4112"
       id="linearGradient4309"
       gradientUnits="userSpaceOnUse"
       gradientTransform="translate(74,-28)"
       x1="-54"
       y1="51"
       x2="-54"
       y2="61" />
    <linearGradient
       inkscape:collect="always"
       xlink:href="#linearGradient4112"
       id="linearGradient4312"
       gradientUnits="userSpaceOnUse"
       gradientTransform="translate(74,-28)"
       x1="-37"
       y1="51"
       x2="-37"
       y2="61" />
    <linearGradient
       inkscape:collect="always"
       xlink:href="#linearGradient4112"
       id="linearGradient4315"
       gradientUnits="userSpaceOnUse"
       gradientTransform="translate(74,-28)"
       x1="-73"
       y1="51"
       x2="-73"
       y2="61" />
    <linearGradient
       inkscape:collect="always"
       xlink:href="#linearGradient4112"
       id="linearGradient4336"
       gradientUnits="userSpaceOnUse"
       x1="-54"
       y1="51"
       x2="-54"
       y2="61"
       gradientTransform="translate(74,-48)" />
    <linearGradient
       inkscape:collect="always"
       xlink:href="#linearGradient4112"
       id="linearGradient4339"
       gradientUnits="userSpaceOnUse"
       x1="-37"
       y1="51"
       x2="-37"
       y2="61"
       gradientTransform="translate(74,-48)" />
    <linearGradient
       inkscape:collect="always"
       xlink:href="#linearGradient4112"
       id="linearGradient4342"
       gradientUnits="userSpaceOnUse"
       x1="-73"
       y1="51"
       x2="-73"
       y2="61"
       gradientTransform="translate(74,-48)" />
    <linearGradient
       inkscape:collect="always"
       xlink:href="#linearGradient4112"
       id="linearGradient4391"
       gradientUnits="userSpaceOnUse"
       gradientTransform="translate(118,-28)"
       x1="-54"
       y1="51"
       x2="-54"
       y2="61" />
    <linearGradient
       inkscape:collect="always"
       xlink:href="#linearGradient4112"
       id="linearGradient4476"
       gradientUnits="userSpaceOnUse"
       gradientTransform="translate(118,-8)"
       x1="-37"
       y1="51"
       x2="-37"
       y2="61" />
    <linearGradient
       inkscape:collect="always"
       xlink:href="#linearGradient4112"
       id="linearGradient4478"
       gradientUnits="userSpaceOnUse"
       gradientTransform="translate(118,-8)"
       x1="-73"
       y1="51"
       x2="-73"
       y2="61" />
  </defs>
  <metadata
     id="metadata3160">
    <rdf:RDF>
      <cc:Work
         rdf:about="">
        <dc:format>image/svg+xml</dc:format>
        <dc:type
           rdf:resource="http://purl.org/dc/dcmitype/StillImage" />
        <dc:title />
        <dc:creator>
          <cc:Agent>
            <dc:title>obnosim</dc:title>
          </cc:Agent>
        </dc:creator>
        <cc:license
           rdf:resource="http://creativecommons.org/licenses/by-nc-sa/3.0/" />
      </cc:Work>
      <cc:License
         rdf:about="http://creativecommons.org/licenses/by-nc-sa/3.0/">
        <cc:permits
           rdf:resource="http://creativecommons.org/ns#Reproduction" />
        <cc:permits
           rdf:resource="http://creativecommons.org/ns#Distribution" />
        <cc:requires
           rdf:resource="http://creativecommons.org/ns#Notice" />
        <cc:requires
           rdf:resource="http://creativecommons.org/ns#Attribution" />
        <cc:prohibits
           rdf:resource="http://creativecommons.org/ns#CommercialUse" />
        <cc:permits
           rdf:resource="http://creativecommons.org/ns#DerivativeWorks" />
        <cc:requires
           rdf:resource="http://creativecommons.org/ns#ShareAlike" />
      </cc:License>
    </rdf:RDF>
  </metadata>
  <rect
     style="opacity:0.5;fill:#008000;fill-opacity:1;stroke:none"
     id="hint-stretch-borders"
     y="-5"
     x="-5"
     height="5"
     width="5" />
  <rect
     style="opacity:0.062;fill:url(#linearGradient4342);fill-opacity:1;fill-rule:nonzero;stroke:none"
     id="normal-left"
     y="3"
     x="0"
     height="10"
     width="3" />
  <rect
     style="opacity:0.062;fill:url(#linearGradient4339);fill-opacity:1;fill-rule:nonzero;stroke:none"
     id="normal-right"
     y="3"
     x="37"
     height="10"
     width="3" />
  <rect
     style="opacity:0.062;fill:url(#linearGradient4336);fill-opacity:1;fill-rule:nonzero;stroke:none"
     id="normal-center"
     y="3"
     x="3"
     height="10"
     width="34" />
  <g
     id="normal-top"
     transform="translate(215,-41)"
     style="opacity:0.5">
    <rect
       style="opacity:0.12500000000000000;fill:#ffffff;fill-opacity:1;fill-rule:nonzero;stroke:none"
       id="rect4085"
       transform="scale(1,-1)"
       y="-44"
       x="-212"
       height="3"
       width="34" />
    <rect
       style="opacity:0.06199999000000000;fill:#ffffff;fill-opacity:1;fill-rule:nonzero;stroke:none"
       id="rect4095"
       transform="translate(-141,-7)"
       y="48"
       x="-71"
       height="1"
       width="34" />
  </g>
  <g
     id="normal-topleft"
     transform="translate(215,-41)"
     style="opacity:0.5">
    <path
       inkscape:connector-curvature="0"
       style="opacity:0.12500000000000000;fill:#ffffff;fill-opacity:1;stroke:none"
       id="path4083"
       d="m -215,44 c 0,-1.662 1.338,-3 3,-3 l 0,3 -3,0 z" />
    <path
       inkscape:connector-curvature="0"
       style="opacity:0.06199999000000000;fill:#ffffff;fill-opacity:1;fill-rule:nonzero;stroke:none"
       id="rect4099"
       d="m -212,41 c -1.662,0 -3,1.338 -3,3 0,-1.108 1.338,-2 3,-2 l 0,-1 z" />
  </g>
  <g
     id="normal-topright"
     transform="translate(215,-41)"
     style="opacity:0.5">
    <path
       inkscape:connector-curvature="0"
       style="opacity:0.12500000000000000;fill:#ffffff;fill-opacity:1;stroke:none"
       id="path4087"
       d="m -175,44 c 0,-1.662 -1.338,-3 -3,-3 l 0,3 3,0 z" />
    <path
       inkscape:connector-curvature="0"
       style="opacity:0.06199999000000000;fill:#ffffff;fill-opacity:1;fill-rule:nonzero;stroke:none"
       id="path4110"
       d="m -178,41 c 1.662,0 3,1.338 3,3 0,-1.108 -1.338,-2 -3,-2 l 0,-1 z" />
  </g>
  <g
     id="normal-bottom"
     transform="matrix(1,0,0,-1,215,57)"
     style="opacity:0.5">
    <rect
       style="opacity:0.12500000000000000;fill:#ffffff;fill-opacity:0.75294119;fill-rule:nonzero;stroke:none"
       id="rect4162"
       transform="scale(1,-1)"
       y="-44"
       x="-212"
       height="3"
       width="34" />
    <rect
       style="opacity:0.06199999000000000;fill:#000000;fill-opacity:1;fill-rule:nonzero;stroke:none"
       id="rect4164"
       transform="translate(-141,-7)"
       y="48"
       x="-71"
       height="1"
       width="34" />
  </g>
  <g
     id="normal-bottomleft"
     transform="matrix(1,0,0,-1,215,57)"
     style="opacity:0.5">
    <path
       inkscape:connector-curvature="0"
       style="opacity:0.12500000000000000;fill:#ffffff;fill-opacity:0.75294119;stroke:none"
       id="path4168"
       d="m -215,44 c 0,-1.662 1.338,-3 3,-3 l 0,3 -3,0 z" />
    <path
       inkscape:connector-curvature="0"
       style="opacity:0.06199999000000000;fill:#000000;fill-opacity:1;fill-rule:nonzero;stroke:none"
       id="path4170"
       d="m -212,41 c -1.662,0 -3,1.338 -3,3 0,-1.108 1.338,-2 3,-2 l 0,-1 z" />
  </g>
  <g
     id="normal-bottomright"
     transform="matrix(1,0,0,-1,215,57)"
     style="opacity:0.5">
    <path
       inkscape:connector-curvature="0"
       style="opacity:0.12500000000000000;fill:#ffffff;fill-opacity:0.75294119;stroke:none"
       id="path4174"
       d="m -175,44 c 0,-1.662 -1.338,-3 -3,-3 l 0,3 3,0 z" />
    <path
       inkscape:connector-curvature="0"
       style="opacity:0.06199999000000000;fill:#000000;fill-opacity:1;fill-rule:nonzero;stroke:none"
       id="path4176"
       d="m -178,41 c 1.662,0 3,1.338 3,3 0,-1.108 -1.338,-2 -3,-2 l 0,-1 z" />
  </g>
  <rect
     style="opacity:0.125;fill:url(#linearGradient4315);fill-opacity:1;fill-rule:nonzero;stroke:none"
     id="hover-left"
     y="23"
     x="0"
     height="10"
     width="3" />
  <rect
     style="opacity:0.125;fill:url(#linearGradient4312);fill-opacity:1;fill-rule:nonzero;stroke:none"
     id="hover-right"
     y="23"
     x="37"
     height="10"
     width="3" />
  <rect
     style="opacity:0.125;fill:url(#linearGradient4309);fill-opacity:1;fill-rule:nonzero;stroke:none"
     id="hover-center"
     y="23"
     x="3"
     height="10"
     width="34" />
  <g
     id="hover-top"
     transform="translate(215,-21)">
    <rect
       style="opacity:0.125;fill:#ffffff;fill-opacity:1;fill-rule:nonzero;stroke:none"
       id="rect3067"
       transform="scale(1,-1)"
       y="-44"
       x="-212"
       height="3"
       width="34" />
    <rect
       style="opacity:0.06199999;fill:#ffffff;fill-opacity:1;fill-rule:nonzero;stroke:none"
       id="rect3069"
       transform="translate(-141,-7)"
       y="48"
       x="-71"
       height="1"
       width="34" />
  </g>
  <g
     id="hover-topleft"
     transform="translate(215,-21)">
    <path
       inkscape:connector-curvature="0"
       style="opacity:0.125;fill:#ffffff;fill-opacity:1;stroke:none"
       id="path3073"
       d="m -215,44 c 0,-1.662 1.338,-3 3,-3 l 0,3 -3,0 z" />
    <path
       inkscape:connector-curvature="0"
       style="opacity:0.06199999;fill:#ffffff;fill-opacity:1;fill-rule:nonzero;stroke:none"
       id="path3075"
       d="m -212,41 c -1.662,0 -3,1.338 -3,3 0,-1.108 1.338,-2 3,-2 l 0,-1 z" />
  </g>
  <g
     id="hover-topright"
     transform="translate(215,-21)">
    <path
       inkscape:connector-curvature="0"
       style="opacity:0.125;fill:#ffffff;fill-opacity:1;stroke:none"
       id="path3079"
       d="m -175,44 c 0,-1.662 -1.338,-3 -3,-3 l 0,3 3,0 z" />
    <path
       inkscape:connector-curvature="0"
       style="opacity:0.06199999;fill:#ffffff;fill-opacity:1;fill-rule:nonzero;stroke:none"
       id="path3081"
       d="m -178,41 c 1.662,0 3,1.338 3,3 0,-1.108 -1.338,-2 -3,-2 l 0,-1 z" />
  </g>
  <g
     id="hover-bottom"
     transform="matrix(1,0,0,-1,215,77)">
    <rect
       style="opacity:0.12500000000000000;fill:#ffffff;fill-opacity:0.75294119;fill-rule:nonzero;stroke:none"
       id="rect3085"
       transform="scale(1,-1)"
       y="-44"
       x="-212"
       height="3"
       width="34" />
    <rect
       style="opacity:0.06199999;fill:#000000;fill-opacity:1;fill-rule:nonzero;stroke:none"
       id="rect3087"
       transform="translate(-141,-7)"
       y="48"
       x="-71"
       height="1"
       width="34" />
  </g>
  <g
     id="hover-bottomleft"
     transform="matrix(1,0,0,-1,215,77)">
    <path
       inkscape:connector-curvature="0"
       style="opacity:0.12500000000000000;fill:#ffffff;fill-opacity:0.75294119;stroke:none"
       id="path3091"
       d="m -215,44 c 0,-1.662 1.338,-3 3,-3 l 0,3 -3,0 z" />
    <path
       inkscape:connector-curvature="0"
       style="opacity:0.06199999;fill:#000000;fill-opacity:1;fill-rule:nonzero;stroke:none"
       id="path3093"
       d="m -212,41 c -1.662,0 -3,1.338 -3,3 0,-1.108 1.338,-2 3,-2 l 0,-1 z" />
  </g>
  <g
     id="hover-bottomright"
     transform="matrix(1,0,0,-1,215,77)">
    <path
       inkscape:connector-curvature="0"
       style="opacity:0.12500000000000000;fill:#ffffff;fill-opacity:0.75294119;stroke:none"
       id="path3097"
       d="m -175,44 c 0,-1.662 -1.338,-3 -3,-3 l 0,3 3,0 z" />
    <path
       inkscape:connector-curvature="0"
       style="opacity:0.06199999;fill:#000000;fill-opacity:1;fill-rule:nonzero;stroke:none"
       id="path3099"
       d="m -178,41 c 1.662,0 3,1.338 3,3 0,-1.108 -1.338,-2 -3,-2 l 0,-1 z" />
  </g>
  <rect
     style="opacity:0.125;fill:url(#linearGradient4288);fill-opacity:1;fill-rule:nonzero;stroke:none"
     id="selected-left"
     y="3"
     x="44"
     height="10"
     width="3" />
  <rect
     style="opacity:0.125;fill:url(#linearGradient4285);fill-opacity:1;fill-rule:nonzero;stroke:none"
     id="selected-right"
     y="3"
     x="81"
     height="10"
     width="3" />
  <rect
     style="opacity:0.125;fill:url(#linearGradient4282);fill-opacity:1;fill-rule:nonzero;stroke:none"
     id="selected-center"
     y="3"
     x="47"
     height="10"
     width="34" />
  <g
     id="selected-top"
     transform="translate(259,-41)">
    <rect
       style="opacity:0.125;fill:#ffffff;fill-opacity:1;fill-rule:nonzero;stroke:none"
       id="rect4228"
       transform="scale(1,-1)"
       y="-44"
       x="-212"
       height="3"
       width="34" />
    <rect
       style="opacity:0.06199999;fill:#ffffff;fill-opacity:1;fill-rule:nonzero;stroke:none"
       id="rect4230"
       transform="translate(-141,-7)"
       y="48"
       x="-71"
       height="1"
       width="34" />
  </g>
  <g
     id="selected-topleft"
     transform="translate(259,-41)">
    <path
       inkscape:connector-curvature="0"
       style="opacity:0.125;fill:#ffffff;fill-opacity:1;stroke:none"
       id="path4234"
       d="m -215,44 c 0,-1.662 1.338,-3 3,-3 l 0,3 -3,0 z" />
    <path
       inkscape:connector-curvature="0"
       style="opacity:0.06199999;fill:#ffffff;fill-opacity:1;fill-rule:nonzero;stroke:none"
       id="path4236"
       d="m -212,41 c -1.662,0 -3,1.338 -3,3 0,-1.108 1.338,-2 3,-2 l 0,-1 z" />
  </g>
  <g
     id="selected-topright"
     transform="translate(259,-41)">
    <path
       inkscape:connector-curvature="0"
       style="opacity:0.125;fill:#ffffff;fill-opacity:1;stroke:none"
       id="path4240"
       d="m -175,44 c 0,-1.662 -1.338,-3 -3,-3 l 0,3 3,0 z" />
    <path
       inkscape:connector-curvature="0"
       style="opacity:0.06199999;fill:#ffffff;fill-opacity:1;fill-rule:nonzero;stroke:none"
       id="path4242"
       d="m -178,41 c 1.662,0 3,1.338 3,3 0,-1.108 -1.338,-2 -3,-2 l 0,-1 z" />
  </g>
  <g
     id="selected-bottom"
     transform="translate(215,-41)">
    <rect
       style="opacity:0.12500000000000000;fill:#ffffff;fill-opacity:0.75294119;fill-rule:nonzero;stroke:none"
       id="rect4246"
       y="54"
       x="-168"
       height="3"
       width="34" />
    <rect
       style="opacity:0.06199999;fill:#ffffff;fill-opacity:1;fill-rule:nonzero;stroke:none"
       id="rect4248"
       transform="scale(1,-1)"
       y="-57"
       x="-168"
       height="1"
       width="34" />
  </g>
  <g
     id="selected-bottomleft"
     transform="matrix(1,0,0,-1,259,57)">
    <path
       inkscape:connector-curvature="0"
       style="opacity:0.12500000000000000;fill:#ffffff;fill-opacity:0.75294119;stroke:none"
       id="path4252"
       d="m -215,44 c 0,-1.662 1.338,-3 3,-3 l 0,3 -3,0 z" />
    <path
       inkscape:connector-curvature="0"
       style="opacity:0.06199999;fill:#ffffff;fill-opacity:1;fill-rule:nonzero;stroke:none"
       id="path4254"
       d="m -212,41 c -1.662,0 -3,1.338 -3,3 0,-1.108 1.338,-2 3,-2 l 0,-1 z" />
  </g>
  <g
     id="selected-bottomright"
     transform="matrix(1,0,0,-1,259,57)">
    <path
       inkscape:connector-curvature="0"
       style="opacity:0.12500000000000000;fill:#ffffff;fill-opacity:0.75294119;stroke:none"
       id="path4258"
       d="m -175,44 c 0,-1.662 -1.338,-3 -3,-3 l 0,3 3,0 z" />
    <path
       inkscape:connector-curvature="0"
       style="opacity:0.06199999;fill:#ffffff;fill-opacity:1;fill-rule:nonzero;stroke:none"
       id="path4260"
       d="m -178,41 c 1.662,0 3,1.338 3,3 0,-1.108 -1.338,-2 -3,-2 l 0,-1 z" />
  </g>
  <rect
     width="34"
     height="10"
     x="47"
     y="23"
     id="selected+hover-center"
     style="opacity:0.125;fill:url(#linearGradient4391);fill-opacity:1;fill-rule:nonzero;stroke:none" />
  <g
     id="selected+hover-top"
     transform="translate(0,-20)">
    <rect
       width="34"
       height="3"
       x="47"
       y="-43"
       transform="scale(1,-1)"
       id="rect4353"
       style="opacity:0.125;fill:#ffffff;fill-opacity:1;fill-rule:nonzero;stroke:none" />
    <rect
       width="34"
       height="1"
       x="47"
       y="40"
       id="rect4355"
       style="opacity:0.06199999;fill:#ffffff;fill-opacity:1;fill-rule:nonzero;stroke:none" />
  </g>
  <g
     id="selected+hover-bottom"
     transform="translate(0,-20)">
    <rect
       width="34"
       height="3"
       x="47"
       y="53"
       id="rect4371"
       style="opacity:0.125;fill:#ffffff;fill-opacity:0.75294118;fill-rule:nonzero;stroke:none" />
    <rect
       width="34"
       height="1"
       x="47"
       y="-56"
       transform="scale(1,-1)"
       id="rect4373"
       style="opacity:0.06199999;fill:#ffffff;fill-opacity:1;fill-rule:nonzero;stroke:none" />
  </g>
  <g
     id="selected+hover-topleft"
     transform="translate(0,-20)">
    <path
       d="m 44,43 c 0,-1.662 1.338,-3 3,-3 l 0,3 -3,0 z"
       id="path4359"
       style="opacity:0.125;fill:#ffffff;fill-opacity:1;stroke:none"
       inkscape:connector-curvature="0" />
    <path
       inkscape:transform-center-y="-6.5"
       inkscape:transform-center-x="18.5"
       inkscape:connector-curvature="0"
       id="rect4407"
       d="m 47,40 c -1.662,0 -3,1.338 -3,3 l 1,0 c 0,-1.108 0.892,-2 2,-2 l 0,-1 z"
       style="opacity:0.06199999;fill:#ffffff;fill-opacity:1;stroke:none" />
  </g>
  <g
     id="selected+hover-bottomleft"
     transform="translate(0,-20)">
    <path
       d="m 44,53 c 0,1.662 1.338,3 3,3 l 0,-3 -3,0 z"
       id="path4377"
       style="opacity:0.125;fill:#ffffff;fill-opacity:0.75294118;stroke:none"
       inkscape:connector-curvature="0" />
    <path
       style="opacity:0.06199999;fill:#ffffff;fill-opacity:1;stroke:none"
       d="m 47,56 c -1.662,0 -3,-1.338 -3,-3 l 1,0 c 0,1.108 0.892,2 2,2 l 0,1 z"
       id="path4416"
       inkscape:connector-curvature="0"
       inkscape:transform-center-x="18.5"
       inkscape:transform-center-y="6.5" />
  </g>
  <g
     id="selected+hover-topright"
     transform="translate(0,-20)">
    <path
       d="m 84,43 c 0,-1.662 -1.338,-3 -3,-3 l 0,3 3,0 z"
       id="path4365"
       style="opacity:0.125;fill:#ffffff;fill-opacity:1;stroke:none"
       inkscape:connector-curvature="0" />
    <path
       style="opacity:0.06199999;fill:#ffffff;fill-opacity:1;stroke:none"
       d="m 81,40 c 1.662,0 3,1.338 3,3 l -1,0 c 0,-1.108 -0.892,-2 -2,-2 l 0,-1 z"
       id="path4418"
       inkscape:connector-curvature="0"
       inkscape:transform-center-x="-18.5"
       inkscape:transform-center-y="-6.5" />
  </g>
  <g
     id="selected+hover-bottomright"
     transform="translate(0,-20)">
    <path
       d="m 84,53 c 0,1.662 -1.338,3 -3,3 l 0,-3 3,0 z"
       id="path4383"
       style="opacity:0.125;fill:#ffffff;fill-opacity:0.75294118;stroke:none"
       inkscape:connector-curvature="0" />
    <path
       inkscape:transform-center-y="6.5"
       inkscape:transform-center-x="-18.5"
       inkscape:connector-curvature="0"
       id="path4420"
       d="m 81,56 c 1.662,0 3,-1.338 3,-3 l -1,0 c 0,1.108 -0.892,2 -2,2 l 0,1 z"
       style="opacity:0.06199999;fill:#ffffff;fill-opacity:1;stroke:none" />
  </g>
  <g
     id="selected+hover-left"
     transform="translate(0,-20)">
    <rect
       style="opacity:0.125;fill:url(#linearGradient4478);fill-opacity:1;fill-rule:nonzero;stroke:none"
       id="rect4345"
       y="43"
       x="44"
       height="10"
       width="3" />
    <rect
       y="43"
       x="44"
       height="10"
       width="1"
       id="rect4422"
       style="opacity:0.06199999;fill:#ffffff;fill-opacity:1;stroke:none" />
  </g>
  <g
     id="selected+hover-right"
     transform="translate(0,-20)">
    <rect
       style="opacity:0.125;fill:url(#linearGradient4476);fill-opacity:1;fill-rule:nonzero;stroke:none"
       id="rect4347"
       y="43"
       x="81"
       height="10"
       width="3" />
    <rect
       y="43"
       x="83"
       height="10"
       width="1"
       id="rect4424"
       style="opacity:0.06199999;fill:#ffffff;fill-opacity:1;stroke:none" />
  </g>
</svg>
