<?xml version="1.0" encoding="UTF-8" standalone="no"?>
<svg id="svg7229" xmlns:rdf="http://www.w3.org/1999/02/22-rdf-syntax-ns#" xmlns="http://www.w3.org/2000/svg" height="32" width="32" version="1.0" xmlns:cc="http://creativecommons.org/ns#" xmlns:dc="http://purl.org/dc/elements/1.1/">
	<defs id="defs3615">
		<style id="current-color-scheme" type="text/css">.ColorScheme-Text {
        color:#0000FF;
      }
      .ColorScheme-Background{
        color:#E9E8E8;
      }
      .ColorScheme-ViewText {
        color:#31363b;
      }
      .ColorScheme-ViewBackground{
        color:#ffffff;
      }
      .ColorScheme-ViewHover {
      }
      .ColorScheme-ViewFocus{
        color:#5a5a5a;
      }
      .ColorScheme-ButtonText {
        color:#31363b;
      }
      .ColorScheme-ButtonBackground{
        color:#E9E8E8;
      }
      .ColorScheme-ButtonHover {
        color:#1489ff;
      }
      .ColorScheme-ButtonFocus{
        color:#2B74C7;
      }</style>
	</defs>
	<metadata id="metadata7234">
		<rdf:RDF>
			<cc:Work rdf:about="">
				<dc:format>image/svg+xml</dc:format>
				<dc:type rdf:resource="http://purl.org/dc/dcmitype/StillImage"/>
				<dc:title/>
				<dc:rights>
					<cc:Agent>
						<dc:title/>
					</cc:Agent>
				</dc:rights>
				<dc:creator>
					<cc:Agent>
						<dc:title>obnosim</dc:title>
					</cc:Agent>
				</dc:creator>
				<cc:license rdf:resource="http://creativecommons.org/licenses/by-nc-sa/3.0/"/>
			</cc:Work>
			<cc:License rdf:about="http://creativecommons.org/licenses/by-nc-sa/3.0/">
				<cc:permits rdf:resource="http://creativecommons.org/ns#Reproduction"/>
				<cc:permits rdf:resource="http://creativecommons.org/ns#Distribution"/>
				<cc:requires rdf:resource="http://creativecommons.org/ns#Notice"/>
				<cc:requires rdf:resource="http://creativecommons.org/ns#Attribution"/>
				<cc:prohibits rdf:resource="http://creativecommons.org/ns#CommercialUse"/>
				<cc:permits rdf:resource="http://creativecommons.org/ns#DerivativeWorks"/>
				<cc:requires rdf:resource="http://creativecommons.org/ns#ShareAlike"/>
			</cc:License>
		</rdf:RDF>
	</metadata>
	<g id="16-16-configure" transform="matrix(.66667 0 0 .66667 -113.65 -207.01)">
		<rect id="rect3006" style="fill:none" transform="translate(214.48,326.52)" height="24" width="24" y="8" x="40"/>
		<path id="path3862" class="ColorScheme-Text" style="fill:currentColor;opacity:.875" d="m270.3 336.02c-3.6903 0-6.6818 2.9916-6.6818 6.6818 0 .77101.17735 1.5183.41761 2.2074l-7.2188 7.2188c-1.1135 1.1135-1.1135 2.9433 0 4.0568s2.9433 1.1135 4.0568 0l7.2188-7.2188c.6891.24026 1.4364.41761 2.2074.41761 3.6903 0 6.6818-2.9916 6.6818-6.6818 0-.79077-.16544-1.563-.41761-2.267l-4.2358 4.2955c-1.1218 1.1218-2.935 1.1218-4.0568 0s-1.1218-2.935 0-4.0568l4.2955-4.2358c-.70404-.25217-1.4763-.41761-2.267-.41761z"/>
	</g>
	<g id="22-22-configure" transform="translate(-222.48,-326.52)">
		<rect id="rect3878" style="fill:none" transform="translate(214.48,326.52)" height="24" width="24" y="8" x="40"/>
		<path id="path3880" class="ColorScheme-Text" style="fill:currentColor;opacity:.875" d="m270.3 336.02c-3.6903 0-6.6818 2.9916-6.6818 6.6818 0 .77101.17735 1.5183.41761 2.2074l-7.2188 7.2188c-1.1135 1.1135-1.1135 2.9433 0 4.0568s2.9433 1.1135 4.0568 0l7.2188-7.2188c.6891.24026 1.4364.41761 2.2074.41761 3.6903 0 6.6818-2.9916 6.6818-6.6818 0-.79077-.16544-1.563-.41761-2.267l-4.2358 4.2955c-1.1218 1.1218-2.935 1.1218-4.0568 0s-1.1218-2.935 0-4.0568l4.2955-4.2358c-.70404-.25217-1.4763-.41761-2.267-.41761z"/>
	</g>
	<g id="configure" transform="matrix(1.3333,0,0,1.3333,-339.31,-446.03)">
		<rect id="rect3886" style="fill:none" transform="translate(214.48,326.52)" height="24" width="24" y="8" x="40"/>
		<path id="path3888" class="ColorScheme-Text" style="fill:currentColor;opacity:.875" d="m270.3 336.02c-3.6903 0-6.6818 2.9916-6.6818 6.6818 0 .77101.17735 1.5183.41761 2.2074l-7.2188 7.2188c-1.1135 1.1135-1.1135 2.9433 0 4.0568s2.9433 1.1135 4.0568 0l7.2188-7.2188c.6891.24026 1.4364.41761 2.2074.41761 3.6903 0 6.6818-2.9916 6.6818-6.6818 0-.79077-.16544-1.563-.41761-2.267l-4.2358 4.2955c-1.1218 1.1218-2.935 1.1218-4.0568 0s-1.1218-2.935 0-4.0568l4.2955-4.2358c-.70404-.25217-1.4763-.41761-2.267-.41761z"/>
	</g>
</svg>
