<?xml version="1.0" encoding="UTF-8" standalone="no"?>
<!-- Created with Inkscape (http://www.inkscape.org/) -->

<svg
   xmlns:dc="http://purl.org/dc/elements/1.1/"
   xmlns:cc="http://creativecommons.org/ns#"
   xmlns:rdf="http://www.w3.org/1999/02/22-rdf-syntax-ns#"
   xmlns:svg="http://www.w3.org/2000/svg"
   xmlns="http://www.w3.org/2000/svg"
   xmlns:sodipodi="http://sodipodi.sourceforge.net/DTD/sodipodi-0.dtd"
   xmlns:inkscape="http://www.inkscape.org/namespaces/inkscape"
   version="1.0"
   width="32"
   height="32"
   id="svg7229"
   inkscape:version="0.91 r13725"
   sodipodi:docname="configure.svg">
  <sodipodi:namedview
     pagecolor="#ffffff"
     bordercolor="#666666"
     borderopacity="1"
     objecttolerance="10"
     gridtolerance="10"
     guidetolerance="10"
     inkscape:pageopacity="0"
     inkscape:pageshadow="2"
     inkscape:window-width="640"
     inkscape:window-height="480"
     id="namedview26" />
  <defs
     id="defs7231" />
  <metadata
     id="metadata7234">
    <rdf:RDF>
      <cc:Work
         rdf:about="">
        <dc:format>image/svg+xml</dc:format>
        <dc:type
           rdf:resource="http://purl.org/dc/dcmitype/StillImage" />
        <dc:title />
        <dc:rights>
          <cc:Agent>
            <dc:title />
          </cc:Agent>
        </dc:rights>
        <dc:creator>
          <cc:Agent>
            <dc:title>obnosim</dc:title>
          </cc:Agent>
        </dc:creator>
        <cc:license
           rdf:resource="http://creativecommons.org/licenses/by-nc-sa/3.0/" />
      </cc:Work>
      <cc:License
         rdf:about="http://creativecommons.org/licenses/by-nc-sa/3.0/">
        <cc:permits
           rdf:resource="http://creativecommons.org/ns#Reproduction" />
        <cc:permits
           rdf:resource="http://creativecommons.org/ns#Distribution" />
        <cc:requires
           rdf:resource="http://creativecommons.org/ns#Notice" />
        <cc:requires
           rdf:resource="http://creativecommons.org/ns#Attribution" />
        <cc:prohibits
           rdf:resource="http://creativecommons.org/ns#CommercialUse" />
        <cc:permits
           rdf:resource="http://creativecommons.org/ns#DerivativeWorks" />
        <cc:requires
           rdf:resource="http://creativecommons.org/ns#ShareAlike" />
      </cc:License>
    </rdf:RDF>
  </metadata>
  <g
     transform="translate(-214.4798,-326.52087)"
     id="layer1">
    <g
       transform="matrix(0.66666667,0,0,0.66666667,100.8266,119.50696)"
       id="16-16-configure">
      <path
         d="m 270.29796,336.02087 c -3.69028,0 -6.68184,2.99156 -6.68184,6.68184 0,0.77101 0.17735,1.5183 0.41761,2.2074 l -7.21878,7.21877 c -1.11353,1.11354 -1.11353,2.9433 0,4.05684 1.11354,1.11353 2.9433,1.11353 4.05684,0 l 7.21877,-7.21878 c 0.6891,0.24026 1.43639,0.41761 2.2074,0.41761 3.69028,0 6.68184,-2.99156 6.68184,-6.68184 0,-0.79077 -0.16544,-1.56301 -0.41761,-2.26705 l -4.23581,4.29547 c -1.1218,1.1218 -2.93504,1.1218 -4.05684,0 -1.1218,-1.1218 -1.1218,-2.93504 0,-4.05684 l 4.29547,-4.23581 c -0.70404,-0.25217 -1.47628,-0.41761 -2.26705,-0.41761 z"
         id="path3872"
         style="opacity:0.375;color:#000000;fill:none;stroke:#000000;stroke-width:3;stroke-linecap:round;stroke-linejoin:round;stroke-miterlimit:4;stroke-opacity:1;stroke-dasharray:none;marker:none;visibility:visible;display:inline;overflow:visible;enable-background:accumulate" />
      <rect
         width="24"
         height="24"
         x="40"
         y="8"
         transform="translate(214.4798,326.52087)"
         id="rect3006"
         style="fill:none;stroke:none" />
      <path
         d="m 270.29796,336.02087 c -3.69028,0 -6.68184,2.99156 -6.68184,6.68184 0,0.77101 0.17735,1.5183 0.41761,2.2074 l -7.21878,7.21877 c -1.11353,1.11354 -1.11353,2.9433 0,4.05684 1.11354,1.11353 2.9433,1.11353 4.05684,0 l 7.21877,-7.21878 c 0.6891,0.24026 1.43639,0.41761 2.2074,0.41761 3.69028,0 6.68184,-2.99156 6.68184,-6.68184 0,-0.79077 -0.16544,-1.56301 -0.41761,-2.26705 l -4.23581,4.29547 c -1.1218,1.1218 -2.93504,1.1218 -4.05684,0 -1.1218,-1.1218 -1.1218,-2.93504 0,-4.05684 l 4.29547,-4.23581 c -0.70404,-0.25217 -1.47628,-0.41761 -2.26705,-0.41761 z"
         id="path3862"
         style="color:#000000;fill:#e0e0e0;fill-opacity:1;fill-rule:nonzero;stroke:none;stroke-width:1px;marker:none;visibility:visible;display:inline;overflow:visible;enable-background:accumulate" />
    </g>
    <g
       transform="translate(-7.9999992,4.5284036e-6)"
       id="22-22-configure">
      <path
         d="m 270.29796,336.02087 c -3.69028,0 -6.68184,2.99156 -6.68184,6.68184 0,0.77101 0.17735,1.5183 0.41761,2.2074 l -7.21878,7.21877 c -1.11353,1.11354 -1.11353,2.9433 0,4.05684 1.11354,1.11353 2.9433,1.11353 4.05684,0 l 7.21877,-7.21878 c 0.6891,0.24026 1.43639,0.41761 2.2074,0.41761 3.69028,0 6.68184,-2.99156 6.68184,-6.68184 0,-0.79077 -0.16544,-1.56301 -0.41761,-2.26705 l -4.23581,4.29547 c -1.1218,1.1218 -2.93504,1.1218 -4.05684,0 -1.1218,-1.1218 -1.1218,-2.93504 0,-4.05684 l 4.29547,-4.23581 c -0.70404,-0.25217 -1.47628,-0.41761 -2.26705,-0.41761 z"
         id="path3876"
         style="opacity:0.375;color:#000000;fill:none;stroke:#000000;stroke-width:2;stroke-linecap:round;stroke-linejoin:round;stroke-miterlimit:4;stroke-opacity:1;stroke-dasharray:none;marker:none;visibility:visible;display:inline;overflow:visible;enable-background:accumulate" />
      <rect
         width="24"
         height="24"
         x="40"
         y="8"
         transform="translate(214.4798,326.52087)"
         id="rect3878"
         style="fill:none;stroke:none" />
      <path
         d="m 270.29796,336.02087 c -3.69028,0 -6.68184,2.99156 -6.68184,6.68184 0,0.77101 0.17735,1.5183 0.41761,2.2074 l -7.21878,7.21877 c -1.11353,1.11354 -1.11353,2.9433 0,4.05684 1.11354,1.11353 2.9433,1.11353 4.05684,0 l 7.21877,-7.21878 c 0.6891,0.24026 1.43639,0.41761 2.2074,0.41761 3.69028,0 6.68184,-2.99156 6.68184,-6.68184 0,-0.79077 -0.16544,-1.56301 -0.41761,-2.26705 l -4.23581,4.29547 c -1.1218,1.1218 -2.93504,1.1218 -4.05684,0 -1.1218,-1.1218 -1.1218,-2.93504 0,-4.05684 l 4.29547,-4.23581 c -0.70404,-0.25217 -1.47628,-0.41761 -2.26705,-0.41761 z"
         id="path3880"
         style="color:#000000;fill:#e0e0e0;fill-opacity:1;fill-rule:nonzero;stroke:none;stroke-width:1px;marker:none;visibility:visible;display:inline;overflow:visible;enable-background:accumulate" />
    </g>
    <g
       transform="matrix(1.3333333,0,0,1.3333333,-124.82659,-119.50695)"
       id="configure">
      <path
         d="m 270.29796,336.02087 c -3.69028,0 -6.68184,2.99156 -6.68184,6.68184 0,0.77101 0.17735,1.5183 0.41761,2.2074 l -7.21878,7.21877 c -1.11353,1.11354 -1.11353,2.9433 0,4.05684 1.11354,1.11353 2.9433,1.11353 4.05684,0 l 7.21877,-7.21878 c 0.6891,0.24026 1.43639,0.41761 2.2074,0.41761 3.69028,0 6.68184,-2.99156 6.68184,-6.68184 0,-0.79077 -0.16544,-1.56301 -0.41761,-2.26705 l -4.23581,4.29547 c -1.1218,1.1218 -2.93504,1.1218 -4.05684,0 -1.1218,-1.1218 -1.1218,-2.93504 0,-4.05684 l 4.29547,-4.23581 c -0.70404,-0.25217 -1.47628,-0.41761 -2.26705,-0.41761 z"
         id="path3884"
         style="opacity:0.375;color:#000000;fill:none;stroke:#000000;stroke-width:1.5;stroke-linecap:round;stroke-linejoin:round;stroke-miterlimit:4;stroke-opacity:1;stroke-dasharray:none;marker:none;visibility:visible;display:inline;overflow:visible;enable-background:accumulate" />
      <rect
         width="24"
         height="24"
         x="40"
         y="8"
         transform="translate(214.4798,326.52087)"
         id="rect3886"
         style="fill:none;stroke:none" />
      <path
         d="m 270.29796,336.02087 c -3.69028,0 -6.68184,2.99156 -6.68184,6.68184 0,0.77101 0.17735,1.5183 0.41761,2.2074 l -7.21878,7.21877 c -1.11353,1.11354 -1.11353,2.9433 0,4.05684 1.11354,1.11353 2.9433,1.11353 4.05684,0 l 7.21877,-7.21878 c 0.6891,0.24026 1.43639,0.41761 2.2074,0.41761 3.69028,0 6.68184,-2.99156 6.68184,-6.68184 0,-0.79077 -0.16544,-1.56301 -0.41761,-2.26705 l -4.23581,4.29547 c -1.1218,1.1218 -2.93504,1.1218 -4.05684,0 -1.1218,-1.1218 -1.1218,-2.93504 0,-4.05684 l 4.29547,-4.23581 c -0.70404,-0.25217 -1.47628,-0.41761 -2.26705,-0.41761 z"
         id="path3888"
         style="color:#000000;fill:#e0e0e0;fill-opacity:1;fill-rule:nonzero;stroke:none;stroke-width:1px;marker:none;visibility:visible;display:inline;overflow:visible;enable-background:accumulate" />
    </g>
  </g>
</svg>
