<?xml version="1.0" encoding="UTF-8" standalone="no"?>
<svg id="svg7229" xmlns:rdf="http://www.w3.org/1999/02/22-rdf-syntax-ns#" xmlns="http://www.w3.org/2000/svg" height="32" width="80.04" version="1.0" xmlns:cc="http://creativecommons.org/ns#" xmlns:dc="http://purl.org/dc/elements/1.1/">
	<defs id="defs3615">
		<style id="current-color-scheme" type="text/css">.ColorScheme-Text {
        color:#0000FF;
      }
      .ColorScheme-Background{
        color:#E9E8E8;
      }
      .ColorScheme-ViewText {
        color:#31363b;
      }
      .ColorScheme-ViewBackground{
        color:#ffffff;
      }
      .ColorScheme-ViewHover {
      }
      .ColorScheme-ViewFocus{
        color:#5a5a5a;
      }
      .ColorScheme-ButtonText {
        color:#31363b;
      }
      .ColorScheme-ButtonBackground{
        color:#E9E8E8;
      }
      .ColorScheme-ButtonHover {
        color:#1489ff;
      }
      .ColorScheme-ButtonFocus{
        color:#2B74C7;
      }</style>
	</defs>
	<metadata id="metadata7234">
		<rdf:RDF>
			<cc:Work rdf:about="">
				<dc:format>image/svg+xml</dc:format>
				<dc:type rdf:resource="http://purl.org/dc/dcmitype/StillImage"/>
				<dc:title/>
				<dc:creator>
					<cc:Agent>
						<dc:title>obnosim</dc:title>
					</cc:Agent>
				</dc:creator>
				<dc:description/>
				<cc:license rdf:resource="http://creativecommons.org/licenses/by-nc-sa/3.0/"/>
			</cc:Work>
			<cc:License rdf:about="http://creativecommons.org/licenses/by-nc-sa/3.0/">
				<cc:permits rdf:resource="http://creativecommons.org/ns#Reproduction"/>
				<cc:permits rdf:resource="http://creativecommons.org/ns#Distribution"/>
				<cc:requires rdf:resource="http://creativecommons.org/ns#Notice"/>
				<cc:requires rdf:resource="http://creativecommons.org/ns#Attribution"/>
				<cc:prohibits rdf:resource="http://creativecommons.org/ns#CommercialUse"/>
				<cc:permits rdf:resource="http://creativecommons.org/ns#DerivativeWorks"/>
				<cc:requires rdf:resource="http://creativecommons.org/ns#ShareAlike"/>
			</cc:License>
		</rdf:RDF>
	</metadata>
	<g id="16-16-edit-delete" transform="translate(64.015 16)">
		<rect id="rect3935" style="opacity:.375;fill:none" height="16" width="16" y="2.3842e-7" x=".00046266"/>
		<path id="path3948" style="block-progression:tb;text-indent:0;text-transform:none;fill:currentColor;opacity:.875" class="ColorScheme-Text" d="m1.8125 1a1.0001 1.0001 0 0 0 -.8125 1.1562l2 12a1.0001 1.0001 0 0 0 1 .844h8a1.0001 1.0001 0 0 0 1 -.84375l2-12a1.0121 1.0121 0 1 0 -2 -.3122l-1.875 11.156h-6.25l-1.875-11.156a1.0001 1.0001 0 0 0 -1.1875 -.844z"/>
		<path id="path3959" style="block-progression:tb;text-indent:0;text-transform:none;fill:currentColor;opacity:.875" class="ColorScheme-Text" d="m7.2188 3.9062-.1875.375-.8125 1.4062a.71407 .71407 0 1 0 1.2187 .6876l.5625-1a.71943 .71943 0 1 0 1.1875 -.8125l-.1875-.3125-.2188-.3438h-.40625-.75-.40625zm2.4374 2.3438a.71407 .71407 0 0 0 -.5 1.0938l.5938.9687a.71407 .71407 0 0 0 .15625 1.4062h.34375.4375l.1875-.375.375-.625.219-.3437-.219-.3750-.844-1.4062a.71407 .71407 0 0 0 -.7498 -.3438zm-4.125 1.0938a.71407 .71407 0 0 0 -.5 .375l-.1874.3124-.1876.3438.2188.3750.3750.6250.1875.34375h.40625 1.6562a.71875 .71875 0 0 0 0 -1.4375h-1.1562a.71407 .71407 0 0 0 -.8125 -.9375z"/>
	</g>
	<g id="22-22-edit-delete" transform="matrix(1.375 0 0 1.375 35.999 10)">
		<rect id="rect3014" style="opacity:.375;fill:none" height="16" width="16" y="2.3842e-7" x=".00046266"/>
		<path id="path3792" style="stroke-dashoffset:2.6;stroke:currentColor;opacity:.875;stroke-linecap:round;stroke-width:2.1782;fill:none" transform="matrix(.66779 0 0 .66779 .00046266 21.342)" class="ColorScheme-Text" d="m3-29 3 18h12l3-18"/>
		<path id="path3794" style="stroke-linejoin:bevel;stroke-dashoffset:2.6;stroke:currentColor;opacity:.875;stroke-linecap:round;stroke-width:2.1782;fill:none" transform="matrix(.66779 0 0 .66779 .00046266 21.342)" class="ColorScheme-Text" d="m13.25-24.75-.625-1.125-.625-1.125-.625 1.125-.625 1.125-.625 1.125-.625 1.125m-1.25 2.25-.625 1.125-.625 1.125h1.25 1.25 1.25 1.25m2.5 0h1.25 1.25l-.625-1.125-.625-1.125-.625-1.125-.625-1.125"/>
	</g>
	<g id="edit-delete" transform="matrix(2 0 0 2 -.00092532 -4.7684e-7)">
		<rect id="rect3805" style="opacity:.375;fill:none" height="16" width="16" y="2.3842e-7" x=".00046266"/>
		<path id="path3807" style="stroke-dashoffset:2.6;stroke:currentColor;opacity:.875;stroke-linecap:round;stroke-width:1.4975;fill:none" transform="matrix(.66779 0 0 .66779 .00046266 21.342)" class="ColorScheme-Text" d="m3-29 3 18h12l3-18"/>
		<path id="path3809" style="stroke-linejoin:bevel;stroke-dashoffset:2.6;stroke:currentColor;opacity:.875;stroke-linecap:round;stroke-width:1.4975;fill:none" transform="matrix(.66779 0 0 .66779 .00046266 21.342)" class="ColorScheme-Text" d="m13.25-24.75-.625-1.125-.625-1.125-.625 1.125-.625 1.125-.625 1.125-.625 1.125m-1.25 2.25-.625 1.125-.625 1.125h1.25 1.25 1.25 1.25m2.5 0h1.25 1.25l-.625-1.125-.625-1.125-.625-1.125-.625-1.125"/>
	</g>
</svg>
