<?xml version="1.0" encoding="UTF-8" standalone="no"?>
<!-- Created with Inkscape (http://www.inkscape.org/) -->

<svg
   xmlns:dc="http://purl.org/dc/elements/1.1/"
   xmlns:cc="http://creativecommons.org/ns#"
   xmlns:rdf="http://www.w3.org/1999/02/22-rdf-syntax-ns#"
   xmlns:svg="http://www.w3.org/2000/svg"
   xmlns="http://www.w3.org/2000/svg"
   xmlns:sodipodi="http://sodipodi.sourceforge.net/DTD/sodipodi-0.dtd"
   xmlns:inkscape="http://www.inkscape.org/namespaces/inkscape"
   version="1.0"
   width="80.040466"
   height="32.000088"
   id="svg7229"
   inkscape:version="0.91 r13725"
   sodipodi:docname="edit.svgz">
  <sodipodi:namedview
     pagecolor="#ffffff"
     bordercolor="#666666"
     borderopacity="1"
     objecttolerance="10"
     gridtolerance="10"
     guidetolerance="10"
     inkscape:pageopacity="0"
     inkscape:pageshadow="2"
     inkscape:window-width="640"
     inkscape:window-height="480"
     id="namedview49" />
  <defs
     id="defs7231" />
  <metadata
     id="metadata7234">
    <rdf:RDF>
      <cc:Work
         rdf:about="">
        <dc:format>image/svg+xml</dc:format>
        <dc:type
           rdf:resource="http://purl.org/dc/dcmitype/StillImage" />
        <dc:title />
        <dc:creator>
          <cc:Agent>
            <dc:title>obnosim</dc:title>
          </cc:Agent>
        </dc:creator>
        <dc:description />
        <cc:license
           rdf:resource="http://creativecommons.org/licenses/by-nc-sa/3.0/" />
      </cc:Work>
      <cc:License
         rdf:about="http://creativecommons.org/licenses/by-nc-sa/3.0/">
        <cc:permits
           rdf:resource="http://creativecommons.org/ns#Reproduction" />
        <cc:permits
           rdf:resource="http://creativecommons.org/ns#Distribution" />
        <cc:requires
           rdf:resource="http://creativecommons.org/ns#Notice" />
        <cc:requires
           rdf:resource="http://creativecommons.org/ns#Attribution" />
        <cc:prohibits
           rdf:resource="http://creativecommons.org/ns#CommercialUse" />
        <cc:permits
           rdf:resource="http://creativecommons.org/ns#DerivativeWorks" />
        <cc:requires
           rdf:resource="http://creativecommons.org/ns#ShareAlike" />
      </cc:License>
    </rdf:RDF>
  </metadata>
  <g
     transform="translate(64.014762,15.999926)"
     id="16-16-edit-delete">
    <rect
       width="16"
       height="16"
       x="0.00046266144"
       y="2.3841858e-07"
       id="rect3935"
       style="opacity:0.375;fill:none;stroke:none" />
    <path
       d="m 7.21875,3.90625 -0.1875,0.375 -0.8125,1.40625 A 0.71407139,0.71407139 0 1 0 7.4375,6.375 L 8,5.375 A 0.71942903,0.71942903 0 1 0 9.1875,4.5625 L 9,4.25 8.78125,3.90625 l -0.40625,0 -0.75,0 -0.40625,0 z M 9.65625,6.25 a 0.71407139,0.71407139 0 0 0 -0.5,1.09375 L 9.75,8.3125 a 0.71407139,0.71407139 0 0 0 0.15625,1.40625 l 0.34375,0 0.4375,0 0.1875,-0.375 0.375,-0.625 L 11.46875,8.375 11.25,8 10.40625,6.59375 A 0.71407139,0.71407139 0 0 0 9.65625,6.25 z m -4.125,1.09375 a 0.71407139,0.71407139 0 0 0 -0.5,0.375 L 4.84375,8.03125 4.65625,8.375 4.875,8.75 5.25,9.375 l 0.1875,0.34375 0.40625,0 1.65625,0 a 0.71875,0.71875 0 0 0 0,-1.4375 l -1.15625,0 A 0.71407139,0.71407139 0 0 0 5.53125,7.34375 z M 1.8125,1 A 1.0001,1.0001 0 0 0 1,2.15625 l 2,12 A 1.0001,1.0001 0 0 0 4,15 l 8,0 a 1.0001,1.0001 0 0 0 1,-0.84375 l 2,-12 A 1.0121334,1.0121334 0 1 0 13,1.84375 L 11.125,13 4.875,13 3,1.84375 A 1.0001,1.0001 0 0 0 1.8125,1 z"
       id="path3975"
       style="font-size:medium;font-style:normal;font-variant:normal;font-weight:normal;font-stretch:normal;text-indent:0;text-align:start;text-decoration:none;line-height:normal;letter-spacing:normal;word-spacing:normal;text-transform:none;direction:ltr;block-progression:tb;writing-mode:lr-tb;text-anchor:start;baseline-shift:baseline;opacity:0.375;color:#000000;fill:none;stroke:#000000;stroke-width:2;stroke-miterlimit:4;stroke-opacity:1;stroke-dasharray:none;marker:none;visibility:visible;display:inline;overflow:visible;enable-background:accumulate;font-family:Sans;-inkscape-font-specification:Sans" />
    <path
       d="M 1.8125,1 A 1.0001,1.0001 0 0 0 1,2.15625 l 2,12 A 1.0001,1.0001 0 0 0 4,15 l 8,0 a 1.0001,1.0001 0 0 0 1,-0.84375 l 2,-12 A 1.0121334,1.0121334 0 1 0 13,1.84375 L 11.125,13 4.875,13 3,1.84375 A 1.0001,1.0001 0 0 0 1.8125,1 z"
       id="path3948"
       style="font-size:medium;font-style:normal;font-variant:normal;font-weight:normal;font-stretch:normal;text-indent:0;text-align:start;text-decoration:none;line-height:normal;letter-spacing:normal;word-spacing:normal;text-transform:none;direction:ltr;block-progression:tb;writing-mode:lr-tb;text-anchor:start;baseline-shift:baseline;color:#000000;fill:#e0e0e0;fill-opacity:1;stroke:none;stroke-width:2;marker:none;visibility:visible;display:inline;overflow:visible;enable-background:accumulate;font-family:Sans;-inkscape-font-specification:Sans" />
    <path
       d="m 7.21875,3.90625 -0.1875,0.375 -0.8125,1.40625 A 0.71407139,0.71407139 0 1 0 7.4375,6.375 L 8,5.375 A 0.71942903,0.71942903 0 1 0 9.1875,4.5625 L 9,4.25 8.78125,3.90625 l -0.40625,0 -0.75,0 -0.40625,0 z M 9.65625,6.25 a 0.71407139,0.71407139 0 0 0 -0.5,1.09375 L 9.75,8.3125 a 0.71407139,0.71407139 0 0 0 0.15625,1.40625 l 0.34375,0 0.4375,0 0.1875,-0.375 0.375,-0.625 L 11.46875,8.375 11.25,8 10.40625,6.59375 A 0.71407139,0.71407139 0 0 0 9.65625,6.25 z m -4.125,1.09375 a 0.71407139,0.71407139 0 0 0 -0.5,0.375 L 4.84375,8.03125 4.65625,8.375 4.875,8.75 5.25,9.375 l 0.1875,0.34375 0.40625,0 1.65625,0 a 0.71875,0.71875 0 0 0 0,-1.4375 l -1.15625,0 a 0.71407139,0.71407139 0 0 0 -0.8125,-0.9375 z"
       id="path3959"
       style="font-size:medium;font-style:normal;font-variant:normal;font-weight:normal;font-stretch:normal;text-indent:0;text-align:start;text-decoration:none;line-height:normal;letter-spacing:normal;word-spacing:normal;text-transform:none;direction:ltr;block-progression:tb;writing-mode:lr-tb;text-anchor:start;baseline-shift:baseline;color:#000000;fill:#e0e0e0;fill-opacity:1;stroke:none;stroke-width:1.42799997;marker:none;visibility:visible;display:inline;overflow:visible;enable-background:accumulate;font-family:Sans;-inkscape-font-specification:Sans" />
  </g>
  <g
     transform="matrix(1.375,0,0,1.375,35.999364,9.9999995)"
     id="22-22-edit-delete">
    <path
       d="M 13.25,-24.75 12.625,-25.875 12,-27 11.375,-25.875 10.75,-24.75 10.125,-23.625 9.5,-22.5 M 8.25,-20.25 7.625,-19.125 7,-18 l 1.25,0 1.25,0 1.25,0 1.25,0 m 2.5,0 1.25,0 1.25,0 -0.625,-1.125 L 15.75,-20.25 15.125,-21.375 14.5,-22.5 M 3,-29 l 3,18 12,0 3,-18"
       transform="matrix(0.6677873,0,0,0.6677873,4.6266144e-4,21.342299)"
       id="path3798"
       style="opacity:0.375;fill:none;stroke:#000000;stroke-width:4.35631371;stroke-linecap:round;stroke-linejoin:round;stroke-miterlimit:4;stroke-opacity:1;stroke-dasharray:none;stroke-dashoffset:2.6" />
    <rect
       width="16"
       height="16"
       x="0.00046266144"
       y="2.3841858e-07"
       id="rect3014"
       style="opacity:0.375;fill:none;stroke:none" />
    <path
       d="m 3,-29 3,18 12,0 3,-18"
       transform="matrix(0.6677873,0,0,0.6677873,4.6266144e-4,21.342299)"
       id="path3792"
       style="fill:none;stroke:#e0e0e0;stroke-width:2.17815685;stroke-linecap:round;stroke-linejoin:miter;stroke-miterlimit:4;stroke-opacity:1;stroke-dasharray:none;stroke-dashoffset:2.6" />
    <path
       d="M 13.25,-24.75 12.625,-25.875 12,-27 11.375,-25.875 10.75,-24.75 10.125,-23.625 9.5,-22.5 M 8.25,-20.25 7.625,-19.125 7,-18 l 1.25,0 1.25,0 1.25,0 1.25,0 m 2.5,0 1.25,0 1.25,0 -0.625,-1.125 L 15.75,-20.25 15.125,-21.375 14.5,-22.5"
       transform="matrix(0.6677873,0,0,0.6677873,4.6266144e-4,21.342299)"
       id="path3794"
       style="fill:none;stroke:#e0e0e0;stroke-width:2.17815685;stroke-linecap:round;stroke-linejoin:bevel;stroke-miterlimit:4;stroke-opacity:1;stroke-dasharray:none;stroke-dashoffset:2.6" />
  </g>
  <g
     transform="matrix(2,0,0,2,-9.2532288e-4,-4.7683716e-7)"
     id="edit-delete">
    <path
       d="M 13.25,-24.75 12.625,-25.875 12,-27 11.375,-25.875 10.75,-24.75 10.125,-23.625 9.5,-22.5 M 8.25,-20.25 7.625,-19.125 7,-18 l 1.25,0 1.25,0 1.25,0 1.25,0 m 2.5,0 1.25,0 1.25,0 -0.625,-1.125 L 15.75,-20.25 15.125,-21.375 14.5,-22.5 M 3,-29 l 3,18 12,0 3,-18"
       transform="matrix(0.6677873,0,0,0.6677873,4.6266144e-4,21.342299)"
       id="path3803"
       style="opacity:0.375;fill:none;stroke:#000000;stroke-width:2.99496555;stroke-linecap:round;stroke-linejoin:round;stroke-miterlimit:4;stroke-opacity:1;stroke-dasharray:none;stroke-dashoffset:2.6" />
    <rect
       width="16"
       height="16"
       x="0.00046266144"
       y="2.3841858e-07"
       id="rect3805"
       style="opacity:0.375;fill:none;stroke:none" />
    <path
       d="m 3,-29 3,18 12,0 3,-18"
       transform="matrix(0.6677873,0,0,0.6677873,4.6266144e-4,21.342299)"
       id="path3807"
       style="fill:none;stroke:#e0e0e0;stroke-width:1.49748278;stroke-linecap:round;stroke-linejoin:miter;stroke-miterlimit:4;stroke-opacity:1;stroke-dasharray:none;stroke-dashoffset:2.6" />
    <path
       d="M 13.25,-24.75 12.625,-25.875 12,-27 11.375,-25.875 10.75,-24.75 10.125,-23.625 9.5,-22.5 M 8.25,-20.25 7.625,-19.125 7,-18 l 1.25,0 1.25,0 1.25,0 1.25,0 m 2.5,0 1.25,0 1.25,0 -0.625,-1.125 L 15.75,-20.25 15.125,-21.375 14.5,-22.5"
       transform="matrix(0.6677873,0,0,0.6677873,4.6266144e-4,21.342299)"
       id="path3809"
       style="fill:none;stroke:#e0e0e0;stroke-width:1.49748278;stroke-linecap:round;stroke-linejoin:bevel;stroke-miterlimit:4;stroke-opacity:1;stroke-dasharray:none;stroke-dashoffset:2.6" />
  </g>
</svg>
