<?xml version="1.0" encoding="UTF-8" standalone="no"?>
<svg id="svg7229" xmlns:rdf="http://www.w3.org/1999/02/22-rdf-syntax-ns#" xmlns="http://www.w3.org/2000/svg" height="176" width="80" version="1.0" xmlns:cc="http://creativecommons.org/ns#" xmlns:dc="http://purl.org/dc/elements/1.1/">
	<defs id="defs3615">
		<style id="current-color-scheme" type="text/css">.ColorScheme-Text {
        color:#0000FF;
      }
      .ColorScheme-Background{
        color:#E9E8E8;
      }
      .ColorScheme-ViewText {
        color:#31363b;
      }
      .ColorScheme-ViewBackground{
        color:#ffffff;
      }
      .ColorScheme-ViewHover {
        color:#000000;
      }
      .ColorScheme-ViewFocus{
        color:#5a5a5a;
      }
      .ColorScheme-ButtonText {
        color:#31363b;
      }
      .ColorScheme-ButtonBackground{
        color:#E9E8E8;
      }
      .ColorScheme-ButtonHover {
        color:#1489ff;
      }
      .ColorScheme-ButtonFocus{
        color:#2B74C7;
      }</style>
	</defs>
	<metadata id="metadata7234">
		<rdf:RDF>
			<cc:Work rdf:about="">
				<dc:format>image/svg+xml</dc:format>
				<dc:type rdf:resource="http://purl.org/dc/dcmitype/StillImage"/>
				<dc:title/>
				<dc:description/>
				<dc:creator>
					<cc:Agent>
						<dc:title>obnosim</dc:title>
					</cc:Agent>
				</dc:creator>
				<cc:license rdf:resource="http://creativecommons.org/licenses/by-nc-sa/3.0/"/>
			</cc:Work>
			<cc:License rdf:about="http://creativecommons.org/licenses/by-nc-sa/3.0/">
				<cc:permits rdf:resource="http://creativecommons.org/ns#Reproduction"/>
				<cc:permits rdf:resource="http://creativecommons.org/ns#Distribution"/>
				<cc:requires rdf:resource="http://creativecommons.org/ns#Notice"/>
				<cc:requires rdf:resource="http://creativecommons.org/ns#Attribution"/>
				<cc:prohibits rdf:resource="http://creativecommons.org/ns#CommercialUse"/>
				<cc:permits rdf:resource="http://creativecommons.org/ns#DerivativeWorks"/>
				<cc:requires rdf:resource="http://creativecommons.org/ns#ShareAlike"/>
			</cc:License>
		</rdf:RDF>
	</metadata>
	<g id="16-16-go-home" transform="translate(52,328)">
		<rect id="rect3103" style="opacity:.375;fill:none" height="16" width="16" y="-168" x="-52"/>
		<path id="rect4032" style="fill:currentColor;opacity:.875" class="ColorScheme-Text" d="m-44-166c-3.3137 0-6 2.6863-6 6 0 2.613 1.6688 4.833 4 5.6562v-4.6562h-3l5-5 5 5h-3v4.6562c2.3312-.82325 4-3.0432 4-5.6562 0-3.3137-2.6863-6-6-6z"/>
	</g>
	<g id="24-24-go-home" transform="matrix(1.5,0,0,1.5,98,404)">
		<rect id="rect4051" style="opacity:.375;fill:none" height="16" width="16" y="-168" x="-52"/>
		<path id="path4055" style="fill:currentColor;opacity:.875" class="ColorScheme-Text" d="m-44-166c-3.3137 0-6 2.6863-6 6 0 2.613 1.6688 4.833 4 5.6562v-4.9896h-2.6667l4.667-4.67 4.6667 4.6667h-2.6667v4.9896c2.3312-.82325 4-3.0432 4-5.6562 0-3.3137-2.6863-6-6-6z"/>
	</g>
	<g id="go-home" transform="matrix(2,0,0,2,152,480)">
		<rect id="rect4059" style="opacity:.375;fill:none" height="16" width="16" y="-168" x="-52"/>
		<path id="path4063" style="fill:currentColor;opacity:.875" class="ColorScheme-Text" d="m-44-166c-3.3137 0-6 2.6863-6 6 0 2.613 1.6688 4.833 4 5.6562v-4.6562h-3l5-5 5 5h-3v4.6562c2.3312-.82325 4-3.0432 4-5.6562 0-3.3137-2.6863-6-6-6z"/>
	</g>
	<g id="16-16-go-next" transform="translate(52,320)">
		<rect id="rect3895" style="opacity:.375;fill:none" height="16" width="16" y="-312" x="-52"/>
		<path id="path3901" style="fill:currentColor;opacity:.875" transform="matrix(1 0 0 .96225 -1 -11.476)" class="ColorScheme-Text" d="m-38-304-9 5.1962v-10.392z"/>
	</g>
	<g id="24-24-go-next" transform="translate(52,320)">
		<rect id="rect3897" style="opacity:.375;fill:none" height="24" width="24" y="-316" x="-32"/>
		<path id="path3903" style="fill:currentColor;opacity:.875" transform="matrix(1 0 0 1.0392 -2 11.926)" class="ColorScheme-Text" d="m-10-304-15 8.6602v-17.32z"/>
	</g>
	<g id="go-next" transform="translate(52,320)">
		<rect id="rect3899" style="opacity:.375;fill:none" height="32" width="32" y="-320" x="-4"/>
		<path id="path3905" style="fill:currentColor;opacity:.875" transform="matrix(1 0 0 .98974 -3 -3.118)" class="ColorScheme-Text" d="m26-304-21 12.124v-24.249z"/>
	</g>
	<g id="16-16-go-up" transform="matrix(0,-1,1,0,312,8)">
		<rect id="rect3936" style="opacity:.375;fill:none" height="16" width="16" y="-312" x="-52"/>
		<path id="path3940" style="fill:currentColor;opacity:.875" transform="matrix(1 0 0 .96225 -1 -11.476)" class="ColorScheme-Text" d="m-38-304-9 5.1962v-10.392z"/>
	</g>
	<g id="24-24-go-up" transform="matrix(0,-1,1,0,336,32)">
		<rect id="rect3944" style="opacity:.375;fill:none" height="24" width="24" y="-316" x="-32"/>
		<path id="path3948" style="fill:currentColor;opacity:.875" transform="matrix(1 0 0 1.0392 -2 11.926)" class="ColorScheme-Text" d="m-10-304-15 8.6602v-17.32z"/>
	</g>
	<g id="go-up" transform="matrix(0,-1,1,0,368,64)">
		<rect id="rect3952" style="opacity:.375;fill:none" height="32" width="32" y="-320" x="-4"/>
		<path id="path3956" style="fill:currentColor;opacity:.875" transform="matrix(1 0 0 .98974 -3 -3.118)" class="ColorScheme-Text" d="m26-304-21 12.124v-24.249z"/>
	</g>
	<g id="16-16-go-previous" transform="matrix(-1,0,0,-1,-36,-216)">
		<rect id="rect3960" style="opacity:.375;fill:none" height="16" width="16" y="-312" x="-52"/>
		<path id="path3964" style="fill:currentColor;opacity:.875" transform="matrix(1 0 0 .96225 -1 -11.476)" class="ColorScheme-Text" d="m-38-304-9 5.1962v-10.392z"/>
	</g>
	<g id="24-24-go-previous" transform="matrix(-1,0,0,-1,12,-216)">
		<rect id="rect3968" style="opacity:.375;fill:none" height="24" width="24" y="-316" x="-32"/>
		<path id="path3972" style="fill:currentColor;opacity:.875" transform="matrix(1 0 0 1.0392 -2 11.926)" class="ColorScheme-Text" d="m-10-304-15 8.6602v-17.32z"/>
	</g>
	<g id="go-previous" transform="matrix(-1,0,0,-1,76,-216)">
		<rect id="rect3976" style="opacity:.375;fill:none" height="32" width="32" y="-320" x="-4"/>
		<path id="path3980" style="fill:currentColor;opacity:.875" transform="matrix(1 0 0 .98974 -3 -3.118)" class="ColorScheme-Text" d="m26-304-21 12.124v-24.249z"/>
	</g>
	<g id="16-16-go-down" transform="matrix(0,1,-1,0,-296,168)">
		<rect id="rect3984" style="opacity:.375;fill:none" height="16" width="16" y="-312" x="-52"/>
		<path id="path3988" style="fill:currentColor;opacity:.875" transform="matrix(1 0 0 .96225 -1 -11.476)" class="ColorScheme-Text" d="m-38-304-9 5.1962v-10.392z"/>
	</g>
	<g id="24-24-go-down" transform="matrix(0,1,-1,0,-272,144)">
		<rect id="rect3992" style="opacity:.375;fill:none" height="24" width="24" y="-316" x="-32"/>
		<path id="path3996" style="fill:currentColor;opacity:.875" transform="matrix(1 0 0 1.0392 -2 11.926)" class="ColorScheme-Text" d="m-10-304-15 8.6602v-17.32z"/>
	</g>
	<g id="go-down" transform="matrix(0,1,-1,0,-240,112)">
		<rect id="rect4000" style="opacity:.375;fill:none" height="32" width="32" y="-320" x="-4"/>
		<path id="path4004" style="fill:currentColor;opacity:.875" transform="matrix(1 0 0 .98974 -3 -3.118)" class="ColorScheme-Text" d="m26-304-21 12.124v-24.249z"/>
	</g>
</svg>
