<?xml version="1.0" encoding="UTF-8" standalone="no"?>
<svg id="svg2" xmlns:rdf="http://www.w3.org/1999/02/22-rdf-syntax-ns#" xmlns="http://www.w3.org/2000/svg" height="34" width="102" version="1.0" xmlns:cc="http://creativecommons.org/ns#" xmlns:dc="http://purl.org/dc/elements/1.1/">
	<metadata id="metadata7">
		<rdf:RDF>
			<cc:Work rdf:about="">
				<dc:format>image/svg+xml</dc:format>
				<dc:type rdf:resource="http://purl.org/dc/dcmitype/StillImage"/>
				<dc:title/>
				<dc:creator>
					<cc:Agent>
						<dc:title>obnosim</dc:title>
					</cc:Agent>
				</dc:creator>
				<cc:license rdf:resource="http://creativecommons.org/licenses/by-nc-sa/3.0/"/>
			</cc:Work>
			<cc:License rdf:about="http://creativecommons.org/licenses/by-nc-sa/3.0/">
				<cc:permits rdf:resource="http://creativecommons.org/ns#Reproduction"/>
				<cc:permits rdf:resource="http://creativecommons.org/ns#Distribution"/>
				<cc:requires rdf:resource="http://creativecommons.org/ns#Notice"/>
				<cc:requires rdf:resource="http://creativecommons.org/ns#Attribution"/>
				<cc:prohibits rdf:resource="http://creativecommons.org/ns#CommercialUse"/>
				<cc:permits rdf:resource="http://creativecommons.org/ns#DerivativeWorks"/>
				<cc:requires rdf:resource="http://creativecommons.org/ns#ShareAlike"/>
			</cc:License>
		</rdf:RDF>
	</metadata>
	<g id="up-minimized" transform="translate(20 -50.688)">
		<rect id="rect3944" style="opacity:.375;fill:none" height="10" width="14" y="50.688" x="-10"/>
		<path id="path3936" style="opacity:.375;stroke-linejoin:round;stroke-dashoffset:2.6;stroke:#000000;stroke-linecap:round;stroke-width:3;fill:none" d="m-8 58.188 5-5.5 5 5.5z"/>
		<path id="path3938" style="stroke-linejoin:round;stroke:#e0e0e0;fill:none" d="m-8 58.188 5-5.5 5 5.5z"/>
	</g>
	<g id="right-minimized" transform="matrix(0 1 -1 0 84.688 20)">
		<rect id="rect3999" style="opacity:.375;fill:none" height="10" width="14" y="50.688" x="-10"/>
		<path id="path4001" style="opacity:.375;stroke-linejoin:round;stroke-dashoffset:2.6;stroke:#000000;stroke-linecap:round;stroke-width:3;fill:none" d="m-8 58.188 5-5.5 5 5.5z"/>
		<path id="path4003" style="stroke-linejoin:round;stroke:#e0e0e0;fill:none" d="m-8 58.188 5-5.5 5 5.5z"/>
	</g>
	<g id="down-minimized" transform="matrix(-1 0 0 -1 14 84.688)">
		<rect id="rect4023" style="opacity:.375;fill:none" height="10" width="14" y="50.688" x="-10"/>
		<path id="path4025" style="opacity:.375;stroke-linejoin:round;stroke-dashoffset:2.6;stroke:#000000;stroke-linecap:round;stroke-width:3;fill:none" d="m-8 58.188 5-5.5 5 5.5z"/>
		<path id="path4027" style="stroke-linejoin:round;stroke:#e0e0e0;fill:none" d="m-8 58.188 5-5.5 5 5.5z"/>
	</g>
	<g id="left-minimized" transform="matrix(0 -1 1 0 -50.688 14)">
		<rect id="rect4047" style="opacity:.375;fill:none" height="10" width="14" y="50.688" x="-10"/>
		<path id="path4049" style="opacity:.375;stroke-linejoin:round;stroke-dashoffset:2.6;stroke:#000000;stroke-linecap:round;stroke-width:3;fill:none" d="m-8 58.188 5-5.5 5 5.5z"/>
		<path id="path4051" style="stroke-linejoin:round;stroke:#e0e0e0;fill:none" d="m-8 58.188 5-5.5 5 5.5z"/>
	</g>
	<g id="up" transform="translate(36 -50.688)">
		<rect id="rect3946" style="opacity:.375;fill:none" height="10" width="14" y="50.688" x="8"/>
		<path id="path3932" style="opacity:.375;stroke-linejoin:round;stroke-dashoffset:2.6;stroke:#000000;stroke-linecap:round;stroke-width:2;fill:none" d="m10 58.688 5-6 5 6z"/>
		<path id="path3162" style="fill:#e0e0e0" d="m10 58.688 5-6 5 6z"/>
	</g>
	<g id="right" transform="matrix(0 1 -1 0 118.69 2)">
		<rect id="rect3991" style="opacity:.375;fill:none" height="10" width="14" y="50.688" x="8"/>
		<path id="path3993" style="opacity:.375;stroke-linejoin:round;stroke-dashoffset:2.6;stroke:#000000;stroke-linecap:round;stroke-width:2;fill:none" d="m10 58.688 5-6 5 6z"/>
		<path id="path3995" style="fill:#e0e0e0" d="m10 58.688 5-6 5 6z"/>
	</g>
	<g id="down" transform="matrix(-1 0 0 -1 66 84.688)">
		<rect id="rect4015" style="opacity:.375;fill:none" height="10" width="14" y="50.688" x="8"/>
		<path id="path4017" style="opacity:.375;stroke-linejoin:round;stroke-dashoffset:2.6;stroke:#000000;stroke-linecap:round;stroke-width:2;fill:none" d="m10 58.688 5-6 5 6z"/>
		<path id="path4019" style="fill:#e0e0e0" d="m10 58.688 5-6 5 6z"/>
	</g>
	<g id="left" transform="matrix(0 -1 1 0 -16.688 32)">
		<rect id="rect4039" style="opacity:.375;fill:none" height="10" width="14" y="50.688" x="8"/>
		<path id="path4041" style="opacity:.375;stroke-linejoin:round;stroke-dashoffset:2.6;stroke:#000000;stroke-linecap:round;stroke-width:2;fill:none" d="m10 58.688 5-6 5 6z"/>
		<path id="path4043" style="fill:#e0e0e0" d="m10 58.688 5-6 5 6z"/>
	</g>
	<g id="up-attention" transform="translate(52 -50.688)">
		<rect id="rect3948" style="opacity:.375;fill:none" height="10" width="14" y="50.688" x="26"/>
		<path id="path3940" style="opacity:.375;stroke-linejoin:round;stroke-dashoffset:2.6;stroke:#000000;stroke-linecap:round;stroke-width:2;fill:none" d="m28 58.688 5-6 5 6z"/>
		<path id="path3942" style="fill:#ff0101" d="m28 58.688 5-6 5 6z"/>
	</g>
	<g id="right-attention" transform="matrix(0 1 -1 0 152.69 -16)">
		<rect id="rect4007" style="opacity:.375;fill:none" height="10" width="14" y="50.688" x="26"/>
		<path id="path4009" style="opacity:.375;stroke-linejoin:round;stroke-dashoffset:2.6;stroke:#000000;stroke-linecap:round;stroke-width:2;fill:none" d="m28 58.688 5-6 5 6z"/>
		<path id="path4011" style="fill:#ff0101" d="m28 58.688 5-6 5 6z"/>
	</g>
	<g id="down-attention" transform="matrix(-1 0 0 -1 118 84.688)">
		<rect id="rect4031" style="opacity:.375;fill:none" height="10" width="14" y="50.688" x="26"/>
		<path id="path4033" style="opacity:.375;stroke-linejoin:round;stroke-dashoffset:2.6;stroke:#000000;stroke-linecap:round;stroke-width:2;fill:none" d="m28 58.688 5-6 5 6z"/>
		<path id="path4035" style="fill:#ff0101" d="m28 58.688 5-6 5 6z"/>
	</g>
	<g id="left-attention" transform="matrix(0 -1 1 0 17.312 50)">
		<rect id="rect4055" style="opacity:.375;fill:none" height="10" width="14" y="50.688" x="26"/>
		<path id="path4057" style="opacity:.375;stroke-linejoin:round;stroke-dashoffset:2.6;stroke:#000000;stroke-linecap:round;stroke-width:2;fill:none" d="m28 58.688 5-6 5 6z"/>
		<path id="path4059" style="fill:#ff0101" d="m28 58.688 5-6 5 6z"/>
	</g>
</svg>
