<?xml version="1.0" encoding="UTF-8" standalone="no"?>
<!-- Created with Inkscape (http://www.inkscape.org/) -->

<svg
   xmlns:dc="http://purl.org/dc/elements/1.1/"
   xmlns:cc="http://creativecommons.org/ns#"
   xmlns:rdf="http://www.w3.org/1999/02/22-rdf-syntax-ns#"
   xmlns:svg="http://www.w3.org/2000/svg"
   xmlns="http://www.w3.org/2000/svg"
   xmlns:sodipodi="http://sodipodi.sourceforge.net/DTD/sodipodi-0.dtd"
   xmlns:inkscape="http://www.inkscape.org/namespaces/inkscape"
   version="1.0"
   width="102"
   height="34"
   id="svg2"
   inkscape:version="0.91 r13725"
   sodipodi:docname="indicators.svgz">
  <sodipodi:namedview
     pagecolor="#ffffff"
     bordercolor="#666666"
     borderopacity="1"
     objecttolerance="10"
     gridtolerance="10"
     guidetolerance="10"
     inkscape:pageopacity="0"
     inkscape:pageshadow="2"
     inkscape:window-width="640"
     inkscape:window-height="480"
     id="namedview175" />
  <defs
     id="defs4" />
  <metadata
     id="metadata7">
    <rdf:RDF>
      <cc:Work
         rdf:about="">
        <dc:format>image/svg+xml</dc:format>
        <dc:type
           rdf:resource="http://purl.org/dc/dcmitype/StillImage" />
        <dc:title />
        <dc:creator>
          <cc:Agent>
            <dc:title>obnosim</dc:title>
          </cc:Agent>
        </dc:creator>
        <cc:license
           rdf:resource="http://creativecommons.org/licenses/by-nc-sa/3.0/" />
      </cc:Work>
      <cc:License
         rdf:about="http://creativecommons.org/licenses/by-nc-sa/3.0/">
        <cc:permits
           rdf:resource="http://creativecommons.org/ns#Reproduction" />
        <cc:permits
           rdf:resource="http://creativecommons.org/ns#Distribution" />
        <cc:requires
           rdf:resource="http://creativecommons.org/ns#Notice" />
        <cc:requires
           rdf:resource="http://creativecommons.org/ns#Attribution" />
        <cc:prohibits
           rdf:resource="http://creativecommons.org/ns#CommercialUse" />
        <cc:permits
           rdf:resource="http://creativecommons.org/ns#DerivativeWorks" />
        <cc:requires
           rdf:resource="http://creativecommons.org/ns#ShareAlike" />
      </cc:License>
    </rdf:RDF>
  </metadata>
  <g
     transform="translate(20,-50.6875)"
     id="up-minimized">
    <rect
       width="14"
       height="10"
       x="-10"
       y="50.6875"
       id="rect3944"
       style="opacity:0.375;fill:none;stroke:none" />
    <path
       d="m -8,58.1875 5,-5.5 5,5.5 z"
       id="path3936"
       style="opacity:0.375;fill:none;stroke:#000000;stroke-width:3;stroke-linecap:round;stroke-linejoin:round;stroke-miterlimit:4;stroke-opacity:1;stroke-dasharray:none;stroke-dashoffset:2.6" />
    <path
       d="m -8,58.1875 5,-5.5 5,5.5 z"
       id="path3938"
       style="fill:none;stroke:#e0e0e0;stroke-linejoin:round;stroke-opacity:1" />
  </g>
  <g
     transform="matrix(0,1,-1,0,84.6875,20)"
     id="right-minimized">
    <rect
       width="14"
       height="10"
       x="-10"
       y="50.6875"
       id="rect3999"
       style="opacity:0.375;fill:none;stroke:none" />
    <path
       d="m -8,58.1875 5,-5.5 5,5.5 z"
       id="path4001"
       style="opacity:0.375;fill:none;stroke:#000000;stroke-width:3;stroke-linecap:round;stroke-linejoin:round;stroke-miterlimit:4;stroke-opacity:1;stroke-dasharray:none;stroke-dashoffset:2.6" />
    <path
       d="m -8,58.1875 5,-5.5 5,5.5 z"
       id="path4003"
       style="fill:none;stroke:#e0e0e0;stroke-linejoin:round;stroke-opacity:1" />
  </g>
  <g
     transform="matrix(-1,0,0,-1,14,84.6875)"
     id="down-minimized">
    <rect
       width="14"
       height="10"
       x="-10"
       y="50.6875"
       id="rect4023"
       style="opacity:0.375;fill:none;stroke:none" />
    <path
       d="m -8,58.1875 5,-5.5 5,5.5 z"
       id="path4025"
       style="opacity:0.375;fill:none;stroke:#000000;stroke-width:3;stroke-linecap:round;stroke-linejoin:round;stroke-miterlimit:4;stroke-opacity:1;stroke-dasharray:none;stroke-dashoffset:2.6" />
    <path
       d="m -8,58.1875 5,-5.5 5,5.5 z"
       id="path4027"
       style="fill:none;stroke:#e0e0e0;stroke-linejoin:round;stroke-opacity:1" />
  </g>
  <g
     transform="matrix(0,-1,1,0,-50.6875,14)"
     id="left-minimized">
    <rect
       width="14"
       height="10"
       x="-10"
       y="50.6875"
       id="rect4047"
       style="opacity:0.375;fill:none;stroke:none" />
    <path
       d="m -8,58.1875 5,-5.5 5,5.5 z"
       id="path4049"
       style="opacity:0.375;fill:none;stroke:#000000;stroke-width:3;stroke-linecap:round;stroke-linejoin:round;stroke-miterlimit:4;stroke-opacity:1;stroke-dasharray:none;stroke-dashoffset:2.6" />
    <path
       d="m -8,58.1875 5,-5.5 5,5.5 z"
       id="path4051"
       style="fill:none;stroke:#e0e0e0;stroke-linejoin:round;stroke-opacity:1" />
  </g>
  <g
     transform="translate(36,-50.6875)"
     id="up">
    <rect
       width="14"
       height="10"
       x="8"
       y="50.6875"
       id="rect3946"
       style="opacity:0.375;fill:none;stroke:none" />
    <path
       d="m 10,58.6875 5,-6 5,6 z"
       id="path3932"
       style="opacity:0.375;fill:none;stroke:#000000;stroke-width:2;stroke-linecap:round;stroke-linejoin:round;stroke-miterlimit:4;stroke-opacity:1;stroke-dasharray:none;stroke-dashoffset:2.6" />
    <path
       d="m 10,58.6875 5,-6 5,6 z"
       id="path3162"
       style="fill:#e0e0e0;fill-opacity:1;stroke:none" />
  </g>
  <g
     transform="matrix(0,1,-1,0,118.6875,2)"
     id="right">
    <rect
       width="14"
       height="10"
       x="8"
       y="50.6875"
       id="rect3991"
       style="opacity:0.375;fill:none;stroke:none" />
    <path
       d="m 10,58.6875 5,-6 5,6 z"
       id="path3993"
       style="opacity:0.375;fill:none;stroke:#000000;stroke-width:2;stroke-linecap:round;stroke-linejoin:round;stroke-miterlimit:4;stroke-opacity:1;stroke-dasharray:none;stroke-dashoffset:2.6" />
    <path
       d="m 10,58.6875 5,-6 5,6 z"
       id="path3995"
       style="fill:#e0e0e0;fill-opacity:1;stroke:none" />
  </g>
  <g
     transform="matrix(-1,0,0,-1,66,84.6875)"
     id="down">
    <rect
       width="14"
       height="10"
       x="8"
       y="50.6875"
       id="rect4015"
       style="opacity:0.375;fill:none;stroke:none" />
    <path
       d="m 10,58.6875 5,-6 5,6 z"
       id="path4017"
       style="opacity:0.375;fill:none;stroke:#000000;stroke-width:2;stroke-linecap:round;stroke-linejoin:round;stroke-miterlimit:4;stroke-opacity:1;stroke-dasharray:none;stroke-dashoffset:2.6" />
    <path
       d="m 10,58.6875 5,-6 5,6 z"
       id="path4019"
       style="fill:#e0e0e0;fill-opacity:1;stroke:none" />
  </g>
  <g
     transform="matrix(0,-1,1,0,-16.6875,32)"
     id="left">
    <rect
       width="14"
       height="10"
       x="8"
       y="50.6875"
       id="rect4039"
       style="opacity:0.375;fill:none;stroke:none" />
    <path
       d="m 10,58.6875 5,-6 5,6 z"
       id="path4041"
       style="opacity:0.375;fill:none;stroke:#000000;stroke-width:2;stroke-linecap:round;stroke-linejoin:round;stroke-miterlimit:4;stroke-opacity:1;stroke-dasharray:none;stroke-dashoffset:2.6" />
    <path
       d="m 10,58.6875 5,-6 5,6 z"
       id="path4043"
       style="fill:#e0e0e0;fill-opacity:1;stroke:none" />
  </g>
  <g
     transform="translate(52,-50.6875)"
     id="up-attention">
    <rect
       width="14"
       height="10"
       x="26"
       y="50.6875"
       id="rect3948"
       style="opacity:0.375;fill:none;stroke:none" />
    <path
       d="m 28,58.6875 5,-6 5,6 z"
       id="path3940"
       style="opacity:0.375;fill:none;stroke:#000000;stroke-width:2;stroke-linecap:round;stroke-linejoin:round;stroke-miterlimit:4;stroke-opacity:1;stroke-dasharray:none;stroke-dashoffset:2.6" />
    <path
       d="m 28,58.6875 5,-6 5,6 z"
       id="path3942"
       style="fill:#ff0101;fill-opacity:1;stroke:none" />
  </g>
  <g
     transform="matrix(0,1,-1,0,152.6875,-16)"
     id="right-attention">
    <rect
       width="14"
       height="10"
       x="26"
       y="50.6875"
       id="rect4007"
       style="opacity:0.375;fill:none;stroke:none" />
    <path
       d="m 28,58.6875 5,-6 5,6 z"
       id="path4009"
       style="opacity:0.375;fill:none;stroke:#000000;stroke-width:2;stroke-linecap:round;stroke-linejoin:round;stroke-miterlimit:4;stroke-opacity:1;stroke-dasharray:none;stroke-dashoffset:2.6" />
    <path
       d="m 28,58.6875 5,-6 5,6 z"
       id="path4011"
       style="fill:#ff0101;fill-opacity:1;stroke:none" />
  </g>
  <g
     transform="matrix(-1,0,0,-1,118,84.6875)"
     id="down-attention">
    <rect
       width="14"
       height="10"
       x="26"
       y="50.6875"
       id="rect4031"
       style="opacity:0.375;fill:none;stroke:none" />
    <path
       d="m 28,58.6875 5,-6 5,6 z"
       id="path4033"
       style="opacity:0.375;fill:none;stroke:#000000;stroke-width:2;stroke-linecap:round;stroke-linejoin:round;stroke-miterlimit:4;stroke-opacity:1;stroke-dasharray:none;stroke-dashoffset:2.6" />
    <path
       d="m 28,58.6875 5,-6 5,6 z"
       id="path4035"
       style="fill:#ff0101;fill-opacity:1;stroke:none" />
  </g>
  <g
     transform="matrix(0,-1,1,0,17.3125,50)"
     id="left-attention">
    <rect
       width="14"
       height="10"
       x="26"
       y="50.6875"
       id="rect4055"
       style="opacity:0.375;fill:none;stroke:none" />
    <path
       d="m 28,58.6875 5,-6 5,6 z"
       id="path4057"
       style="opacity:0.375;fill:none;stroke:#000000;stroke-width:2;stroke-linecap:round;stroke-linejoin:round;stroke-miterlimit:4;stroke-opacity:1;stroke-dasharray:none;stroke-dashoffset:2.6" />
    <path
       d="m 28,58.6875 5,-6 5,6 z"
       id="path4059"
       style="fill:#ff0101;fill-opacity:1;stroke:none" />
  </g>
</svg>
