<?xml version="1.0" encoding="UTF-8" standalone="no"?>
<svg id="svg2318" xmlns:rdf="http://www.w3.org/1999/02/22-rdf-syntax-ns#" xmlns="http://www.w3.org/2000/svg" height="52.433" width="68.803" version="1.0" xmlns:cc="http://creativecommons.org/ns#" xmlns:xlink="http://www.w3.org/1999/xlink" xmlns:dc="http://purl.org/dc/elements/1.1/">
	<defs id="defs2320">
		<linearGradient id="linearGradient4938">
			<stop id="stop4940" style="stop-color:#e0e0e0;stop-opacity:.75294" offset="0"/>
			<stop id="stop4942" style="stop-color:#e0e0e0" offset="1"/>
		</linearGradient>
		<linearGradient id="linearGradient4239">
			<stop id="stop4241" style="stop-color:#c01200" offset="0"/>
			<stop id="stop4243" style="stop-color:#ff3621" offset="1"/>
		</linearGradient>
		<linearGradient id="linearGradient3123" y2="3" xlink:href="#linearGradient4239" gradientUnits="userSpaceOnUse" x2="25" gradientTransform="matrix(.068182 0 0 1 65.599 8.4331)" y1="17" x1="25"/>
		<linearGradient id="linearGradient3126" y2="3" xlink:href="#linearGradient4239" gradientUnits="userSpaceOnUse" x2="25" gradientTransform="translate(18.803 8.4331)" y1="17" x1="25"/>
		<linearGradient id="linearGradient3130" y2="3" xlink:href="#linearGradient4239" gradientUnits="userSpaceOnUse" x2="25" gradientTransform="matrix(.068182 0 0 1 18.599 8.4331)" y1="17" x1="25"/>
		<linearGradient id="linearGradient3151" y2="3" xlink:href="#linearGradient4938" gradientUnits="userSpaceOnUse" x2="25" gradientTransform="matrix(.068182 0 0 1 65.599 -52.433)" y1="17" x1="25"/>
		<linearGradient id="linearGradient3154" y2="3" xlink:href="#linearGradient4938" gradientUnits="userSpaceOnUse" x2="25" gradientTransform="translate(18.803 -52.433)" y1="17" x1="25"/>
		<linearGradient id="linearGradient3157" y2="3" xlink:href="#linearGradient4938" gradientUnits="userSpaceOnUse" x2="25" gradientTransform="matrix(.068182 0 0 1 18.599 -52.433)" y1="17" x1="25"/>
	</defs>
	<metadata id="metadata2323">
		<rdf:RDF>
			<cc:Work rdf:about="">
				<dc:format>image/svg+xml</dc:format>
				<dc:type rdf:resource="http://purl.org/dc/dcmitype/StillImage"/>
				<dc:title/>
				<dc:creator>
					<cc:Agent>
						<dc:title>obnosim</dc:title>
					</cc:Agent>
				</dc:creator>
				<cc:license rdf:resource="http://creativecommons.org/licenses/by-nc-sa/3.0/"/>
			</cc:Work>
			<cc:License rdf:about="http://creativecommons.org/licenses/by-nc-sa/3.0/">
				<cc:permits rdf:resource="http://creativecommons.org/ns#Reproduction"/>
				<cc:permits rdf:resource="http://creativecommons.org/ns#Distribution"/>
				<cc:requires rdf:resource="http://creativecommons.org/ns#Notice"/>
				<cc:requires rdf:resource="http://creativecommons.org/ns#Attribution"/>
				<cc:prohibits rdf:resource="http://creativecommons.org/ns#CommercialUse"/>
				<cc:permits rdf:resource="http://creativecommons.org/ns#DerivativeWorks"/>
				<cc:requires rdf:resource="http://creativecommons.org/ns#ShareAlike"/>
			</cc:License>
		</rdf:RDF>
	</metadata>
	<rect id="hint-stretch-borders" style="fill:#008000" height="5" width="5" y="-1.3647e-7" x="3.7891e-7"/>
	<g id="bar-inactive-topright" style="opacity:.5" transform="translate(18.803 8.4331)">
		<g id="g5103" style="opacity:.125" transform="matrix(1,0,0,-1,0,44)">
			<path id="path5105" style="fill-opacity:.75294;fill:#e0e0e0" d="m47 20c1.662 0 3-1.338 3-3h-3v3z"/>
		</g>
		<path id="path5127" style="opacity:0.188;fill-opacity:.75294;fill:#000000" d="m47 24v2c1.662 0 3 .446 3 1 0-1.662-1.338-3-3-3z"/>
	</g>
	<g id="bar-inactive-top" style="opacity:.5" transform="translate(18.803 8.4331)">
		<rect id="rect5111" style="opacity:.125;fill:#e0e0e0;fill-opacity:.75294" transform="rotate(90)" height="44" width="3" y="-47" x="24"/>
		<path id="rect5129" style="opacity:0.188;fill:#000000;fill-opacity:.75294" d="m3 24v2h44v-2h-44z"/>
	</g>
	<g id="bar-inactive-topleft" style="opacity:.5" transform="translate(18.803 8.4331)">
		<path id="path5099" style="opacity:.125;fill-opacity:.75294;fill:#e0e0e0" d="m3 24c-1.662 0-3 1.338-3 3h3v-3z"/>
		<path id="path5123" style="opacity:0.188;fill-opacity:.75294;fill:#000000" d="m3 24c-1.662 0-3 1.338-3 3 0-.554 1.338-1 3-1v-2z"/>
	</g>
	<rect id="bar-inactive-left" style="opacity:0.062;fill:url(#linearGradient3157)" transform="scale(1,-1)" height="14" width="3" y="-49.433" x="18.803"/>
	<rect id="bar-inactive-center" style="opacity:0.062;fill:url(#linearGradient3154)" transform="scale(1,-1)" height="14" width="44" y="-49.433" x="21.803"/>
	<rect id="bar-inactive-right" style="opacity:0.062;fill:url(#linearGradient3151)" transform="scale(1,-1)" height="14" width="3" y="-49.433" x="65.803"/>
	<g id="bar-inactive-bottomright" style="opacity:.25" transform="matrix(1 0 0 -1 18.803 52.433)">
		<path id="path5087" style="opacity:.25;fill:#e0e0e0" d="m47 0c1.662 0 3 1.338 3 3h-3v-3z"/>
		<path id="path5089" style="opacity:.125;fill:#ffffff" d="m47 0v1c1.662 0 3 .892 3 2 0-1.662-1.338-3-3-3z"/>
	</g>
	<g id="bar-inactive-bottom" style="opacity:.25" transform="matrix(1 0 0 -1 18.803 52.433)">
		<rect id="rect5093" style="opacity:.25;fill:#e0e0e0" transform="rotate(90)" height="44" width="3" y="-47" x="0"/>
		<path id="path5095" style="opacity:.125;fill:#ffffff" d="m3 0v1h44v-1h-44z"/>
	</g>
	<g id="bar-inactive-bottomleft" style="opacity:.25" transform="matrix(1 0 0 -1 18.803 52.433)">
		<path id="path5081" style="opacity:.25;fill:#e0e0e0" d="m3 0c-1.662 0-3 1.338-3 3h3v-3z"/>
		<path id="path5083" style="opacity:.125;fill:#ffffff" d="m3 0c-1.662 0-3 1.338-3 3 0-1.108 1.338-2 3-2v-1z"/>
	</g>
	<g id="bar-active-topleft" style="opacity:.875" transform="translate(18.803 8.4331)">
		<path id="path4948" style="fill:#ff3621" d="m3 0c-1.662 0-3 1.338-3 3h3v-3z"/>
		<path id="path4960" style="opacity:0.188;fill:#ffc7c1" d="m3 0c-1.662 0-3 1.338-3 3 0-1.108 1.338-2 3-2v-1z"/>
	</g>
	<g id="bar-active-top" style="opacity:.875" transform="translate(18.803 8.4331)">
		<rect id="rect4952" style="fill:#ff3621" transform="rotate(90)" height="44" width="3" y="-47" x="0"/>
		<path id="rect4964" style="opacity:0.188;fill:#ffc7c1" d="m3 0v1h44v-1h-44z"/>
	</g>
	<g id="bar-active-topright" style="opacity:.875" transform="translate(18.803 8.4331)">
		<path id="path4950" style="fill:#ff3621" d="m47 0c1.662 0 3 1.338 3 3h-3v-3z"/>
		<path id="path4962" style="opacity:0.188;fill:#ffc7c1" d="m47 0v1c1.662 0 3 .892 3 2 0-1.662-1.338-3-3-3z"/>
	</g>
	<rect id="bar-active-left" style="opacity:.875;fill:url(#linearGradient3130)" height="14" width="3" y="11.433" x="18.803"/>
	<rect id="bar-active-center" style="opacity:.875;fill:url(#linearGradient3126)" height="14" width="44" y="11.433" x="21.803"/>
	<rect id="bar-active-right" style="opacity:.875;fill:url(#linearGradient3123)" height="14" width="3" y="11.433" x="65.803"/>
	<g id="bar-active-bottomleft" style="opacity:.875" transform="translate(18.803 8.4331)">
		<path id="path4954" style="fill:#c01200" d="m3 20c-1.662 0-3-1.338-3-3h3v3z"/>
		<path id="path4983" style="opacity:.16450;fill:#000000" d="m3 20c-1.662 0-3-1.338-3-3 0 1.108 1.338 2 3 2v1z"/>
	</g>
	<g id="bar-active-bottom" style="opacity:.875" transform="translate(18.803 8.4331)">
		<rect id="rect4958" style="fill:#c01200" transform="matrix(0,-1,-1,0,0,0)" height="44" width="3" y="-47" x="-20"/>
		<path id="path4987" style="opacity:0.165;fill:#000000" d="m3 20v-1h44v1h-44z"/>
	</g>
	<g id="bar-active-bottomright" style="opacity:.875" transform="translate(18.803 8.4331)">
		<path id="path4956" style="fill:#c01200" d="m47 20c1.662 0 3-1.338 3-3h-3v3z"/>
		<path id="path4985" style="opacity:.16450;fill:#000000" d="m47 20v-1c1.662 0 3-.892 3-2 0 1.662-1.338 3-3 3z"/>
	</g>
	<rect id="hint-bar-stretch" style="fill:#008000" height="5" width="5" y="6" x="3.7891e-7"/>
</svg>
